<svg width="46" height="46" viewBox="0 0 46 46" fill="none" xmlns="http://www.w3.org/2000/svg">
<path d="M3.83333 22.0414L39.8533 22.0414L33.8215 16.0116C33.6416 15.8316 33.5405 15.5876 33.5405 15.3331C33.5405 15.0786 33.6416 14.8345 33.8215 14.6546C34.0015 14.4746 34.2455 14.3736 34.5 14.3736C34.7545 14.3736 34.9986 14.4746 35.1785 14.6546L42.8452 22.3213C42.9344 22.4103 43.0052 22.516 43.0536 22.6325C43.1019 22.7489 43.1267 22.8737 43.1267 22.9998C43.1267 23.1258 43.1019 23.2506 43.0536 23.3671C43.0052 23.4835 42.9344 23.5892 42.8452 23.6783L35.1785 31.3449C34.9986 31.5249 34.7545 31.626 34.5 31.626C34.2455 31.626 34.0015 31.5249 33.8215 31.3449C33.6416 31.165 33.5405 30.9209 33.5405 30.6664C33.5405 30.4119 33.6416 30.1679 33.8215 29.9879L39.8533 23.9581L3.83333 23.9581C3.57917 23.9581 3.33541 23.8571 3.15569 23.6774C2.97597 23.4977 2.875 23.2539 2.875 22.9998C2.875 22.7456 2.97597 22.5018 3.15569 22.3221C3.33541 22.1424 3.57917 22.0414 3.83333 22.0414Z" fill="white"/>
</svg>
