<svg width="64" height="64" viewBox="0 0 64 64" fill="none" xmlns="http://www.w3.org/2000/svg">
<path d="M1.37509 63.9999C1.02321 63.9999 0.671339 63.8656 0.402839 63.5971C-0.134036 63.0601 -0.134036 62.1895 0.402839 61.6525L61.6528 0.402506C62.1898 -0.134494 63.0605 -0.134494 63.5975 0.402506C64.1343 0.939506 64.1343 1.81013 63.5975 2.34713L2.34746 63.5971C2.07884 63.8658 1.72696 63.9999 1.37509 63.9999Z" fill="#8B99A1"/>
<path d="M62.6237 25.8146C61.8643 25.8146 61.2487 25.199 61.2487 24.4396V2.74976H39.5588C38.7994 2.74976 38.1838 2.13413 38.1838 1.37476C38.1838 0.615381 38.7994 -0.000244141 39.5588 -0.000244141H62.6237C63.383 -0.000244141 63.9987 0.615381 63.9987 1.37476V24.4396C63.9987 25.199 63.383 25.8146 62.6237 25.8146Z" fill="#FFD162"/>
</svg>
