<svg width="140" height="140" viewBox="0 0 140 140" fill="none" xmlns="http://www.w3.org/2000/svg">
<g clip-path="url(#clip0_1_47)">
<path d="M3.00761 140C2.23788 140 1.46815 139.707 0.88081 139.119C-0.293603 137.945 -0.293603 136.04 0.88081 134.865L134.865 0.881016C136.04 -0.293672 137.944 -0.293672 139.119 0.881016C140.293 2.0557 140.293 3.9602 139.119 5.13488L5.13468 139.119C4.54706 139.707 3.77733 140 3.00761 140Z" fill="#B9C8CF"/>
<path d="M136.993 56.47C135.332 56.47 133.986 55.1234 133.986 53.4622V6.01562H86.5391C84.8779 6.01562 83.5312 4.66895 83.5312 3.00781C83.5312 1.34668 84.8779 0 86.5391 0H136.993C138.655 0 140.001 1.34668 140.001 3.00781V53.4622C140.001 55.1234 138.655 56.47 136.993 56.47Z" fill="#FFD162"/>
</g>
<defs>
<clipPath id="clip0_1_47">
<rect width="140" height="140" fill="white"/>
</clipPath>
</defs>
</svg>
