<svg width="46" height="46" viewBox="0 0 46 46" fill="none" xmlns="http://www.w3.org/2000/svg">
<path d="M3.83333 22.0417L39.8533 22.0417L33.8215 16.0118C33.6416 15.8319 33.5405 15.5878 33.5405 15.3333C33.5405 15.0789 33.6416 14.8348 33.8215 14.6548C34.0015 14.4749 34.2455 14.3738 34.5 14.3738C34.7545 14.3738 34.9986 14.4749 35.1785 14.6548L42.8452 22.3215C42.9344 22.4105 43.0052 22.5163 43.0536 22.6327C43.1019 22.7491 43.1267 22.874 43.1267 23C43.1267 23.1261 43.1019 23.2509 43.0536 23.3673C43.0052 23.4837 42.9344 23.5895 42.8452 23.6785L35.1785 31.3452C34.9986 31.5251 34.7545 31.6262 34.5 31.6262C34.2455 31.6262 34.0015 31.5251 33.8215 31.3452C33.6416 31.1652 33.5405 30.9212 33.5405 30.6667C33.5405 30.4122 33.6416 30.1681 33.8215 29.9882L39.8533 23.9583L3.83333 23.9583C3.57917 23.9583 3.33541 23.8574 3.15569 23.6777C2.97597 23.4979 2.875 23.2542 2.875 23C2.875 22.7458 2.97597 22.5021 3.15569 22.3224C3.33541 22.1426 3.57917 22.0417 3.83333 22.0417Z" fill="black"/>
</svg>
