<svg width="16" height="16" viewBox="0 0 16 16" fill="none" xmlns="http://www.w3.org/2000/svg">
<g clip-path="url(#clip0_1_143)">
<path d="M10.0333 3.33333C10.6845 3.46038 11.2829 3.77884 11.7521 4.24796C12.2212 4.71708 12.5396 5.31551 12.6667 5.96667M10.0333 0.666667C11.3862 0.816958 12.6477 1.42278 13.6108 2.38467C14.5739 3.34656 15.1813 4.60734 15.3333 5.96M14.6667 11.28V13.28C14.6674 13.4657 14.6294 13.6494 14.555 13.8196C14.4806 13.9897 14.3715 14.1424 14.2347 14.2679C14.0979 14.3934 13.9364 14.489 13.7605 14.5485C13.5846 14.608 13.3983 14.63 13.2133 14.6133C11.1619 14.3904 9.19134 13.6894 7.46001 12.5667C5.84923 11.5431 4.48356 10.1774 3.46001 8.56667C2.33333 6.82747 1.63217 4.84733 1.41334 2.78667C1.39668 2.60231 1.41859 2.41651 1.47767 2.24108C1.53676 2.06566 1.63172 1.90446 1.75652 1.76775C1.88131 1.63104 2.03321 1.52181 2.20253 1.44701C2.37186 1.37222 2.5549 1.33351 2.74001 1.33333H4.74001C5.06354 1.33015 5.3772 1.44472 5.62251 1.65569C5.86783 1.86666 6.02806 2.15963 6.07334 2.48C6.15775 3.12004 6.31431 3.74848 6.54001 4.35333C6.6297 4.59195 6.64911 4.85128 6.59594 5.10059C6.54277 5.3499 6.41925 5.57874 6.24001 5.76L5.39334 6.60667C6.34238 8.2757 7.72431 9.65763 9.39334 10.6067L10.24 9.76C10.4213 9.58076 10.6501 9.45723 10.8994 9.40406C11.1487 9.35089 11.4081 9.3703 11.6467 9.46C12.2515 9.6857 12.88 9.84225 13.52 9.92667C13.8439 9.97235 14.1396 10.1355 14.351 10.385C14.5624 10.6345 14.6748 10.953 14.6667 11.28Z" stroke="#09243C" stroke-width="1.2" stroke-linecap="round" stroke-linejoin="round"/>
</g>
<defs>
<clipPath id="clip0_1_143">
<rect width="16" height="16" fill="white"/>
</clipPath>
</defs>
</svg>
