<svg width="30" height="30" viewBox="0 0 30 30" fill="none" xmlns="http://www.w3.org/2000/svg">
<circle cx="15" cy="15" r="15" fill="white"/>
<g clip-path="url(#clip0_3005_34)">
<path d="M20.4585 11.4023L13.6062 19.5641C13.5766 19.5995 13.5454 19.6334 13.5141 19.6656C13.4607 19.7371 13.4009 19.8032 13.3353 19.8635C13.0819 20.0783 12.7538 20.1826 12.4232 20.154C12.0925 20.1249 11.7872 19.9656 11.5745 19.7106L8.81789 16.4233C8.60625 16.1704 8.50308 15.844 8.53218 15.5154C8.56075 15.1868 8.71894 14.8831 8.97185 14.671C9.49829 14.2297 10.2824 14.2985 10.7237 14.8249L12.7554 17.2413L19.8908 10.8198C19.9696 10.7393 20.0775 10.6938 20.1902 10.6938C20.3029 10.6938 20.4109 10.7393 20.4897 10.8198C20.622 10.996 20.6087 11.2415 20.4585 11.4023Z" fill="#FF1B1B"/>
</g>
<defs>
<clipPath id="clip0_3005_34">
<rect width="16" height="16" fill="white" transform="translate(7 7)"/>
</clipPath>
</defs>
</svg>
