<svg width="16" height="16" viewBox="0 0 16 16" fill="none" xmlns="http://www.w3.org/2000/svg">
<g clip-path="url(#clip0_1_377)">
<path d="M13.4585 4.40181L6.6062 12.5636C6.57657 12.599 6.54536 12.6329 6.51414 12.6651C6.4607 12.7366 6.40092 12.8027 6.33531 12.863C6.08188 13.0778 5.75384 13.1821 5.42316 13.1535C5.09248 13.1244 4.78719 12.9651 4.5745 12.7101L1.81789 9.42282C1.60625 9.16992 1.50308 8.84348 1.53218 8.51491C1.56075 8.18634 1.71894 7.88265 1.97185 7.67048C2.49829 7.22922 3.28241 7.298 3.72372 7.82444L5.75542 10.2408L12.8908 3.81928C12.9696 3.73886 13.0775 3.69336 13.1902 3.69336C13.3029 3.69336 13.4109 3.73886 13.4897 3.81928C13.622 3.99547 13.6087 4.24097 13.4585 4.40181Z" fill="#09243C"/>
</g>
<defs>
<clipPath id="clip0_1_377">
<rect width="16" height="16" fill="white"/>
</clipPath>
</defs>
</svg>
