<svg width="14" height="16" viewBox="0 0 14 16" fill="none" xmlns="http://www.w3.org/2000/svg">
<path d="M2.13835 8.48195C1.89672 8.48263 1.66023 8.5517 1.45623 8.68118C1.25223 8.81065 1.08905 8.99524 0.985578 9.21359C0.882106 9.43193 0.842567 9.67511 0.871536 9.91499C0.900504 10.1549 0.996796 10.3816 1.14927 10.5691L4.3997 14.5508C4.51559 14.6947 4.66415 14.8089 4.83303 14.8839C5.00191 14.9588 5.18624 14.9924 5.3707 14.9819C5.76523 14.9607 6.12143 14.7496 6.34852 14.4026L13.1005 3.52859C13.1016 3.52679 13.1027 3.52498 13.1039 3.52321C13.1673 3.42593 13.1467 3.23316 13.016 3.11206C12.98 3.07881 12.9377 3.05326 12.8915 3.03699C12.8454 3.02072 12.7963 3.01407 12.7475 3.01746C12.6987 3.02085 12.651 3.0342 12.6076 3.05669C12.5641 3.07917 12.5257 3.11033 12.4947 3.14822C12.4923 3.1512 12.4898 3.15414 12.4872 3.15703L5.67776 10.8507C5.65185 10.8799 5.62038 10.9038 5.58518 10.9208C5.54998 10.9378 5.51175 10.9477 5.47271 10.9498C5.43367 10.9519 5.3946 10.9462 5.35777 10.9331C5.32094 10.92 5.28708 10.8997 5.25816 10.8734L2.99824 8.81682C2.76353 8.60166 2.45675 8.4822 2.13835 8.48195Z" fill="white"/>
</svg>
