<svg width="14" height="14" viewBox="0 0 14 14" fill="none" xmlns="http://www.w3.org/2000/svg">
<path d="M2.13835 6.48195C1.89672 6.48263 1.66023 6.5517 1.45623 6.68118C1.25223 6.81065 1.08905 6.99524 0.985578 7.21359C0.882106 7.43193 0.842567 7.67511 0.871536 7.91499C0.900504 8.15487 0.996796 8.38165 1.14927 8.56908L4.3997 12.5508C4.51559 12.6947 4.66415 12.8089 4.83303 12.8839C5.00191 12.9588 5.18624 12.9924 5.3707 12.9819C5.76523 12.9607 6.12143 12.7496 6.34852 12.4026L13.1005 1.52859C13.1016 1.52679 13.1027 1.52498 13.1039 1.52321C13.1673 1.42593 13.1467 1.23316 13.016 1.11206C12.98 1.07881 12.9377 1.05326 12.8915 1.03699C12.8454 1.02072 12.7963 1.01407 12.7475 1.01746C12.6987 1.02085 12.651 1.0342 12.6076 1.05669C12.5641 1.07917 12.5257 1.11033 12.4947 1.14822C12.4923 1.1512 12.4898 1.15414 12.4872 1.15703L5.67776 8.85067C5.65185 8.87995 5.62038 8.90379 5.58518 8.9208C5.54998 8.93781 5.51175 8.94766 5.47271 8.94977C5.43367 8.95188 5.3946 8.94621 5.35777 8.9331C5.32094 8.91998 5.28708 8.89968 5.25816 8.87337L2.99824 6.81682C2.76353 6.60166 2.45675 6.4822 2.13835 6.48195Z" fill="#11BD36"/>
</svg>
