<svg width="50" height="50" viewBox="0 0 50 50" fill="none" xmlns="http://www.w3.org/2000/svg">
<path d="M25.0013 46.4397C24.8016 46.4394 24.6048 46.392 24.4269 46.3012C24.2926 46.2336 21.0912 44.5941 16.9091 41.5523C13.0497 38.7403 7.59977 34.1553 3.58071 28.2568C2.99182 27.3954 2.46129 26.4954 1.99269 25.5631C1.89621 25.3699 1.85069 25.1553 1.86044 24.9396C1.8702 24.7239 1.93491 24.5143 2.04844 24.3307C2.16193 24.1469 2.32052 23.9951 2.50917 23.8898C2.69782 23.7846 2.91024 23.7293 3.12627 23.7293H11.2759L13.3412 20.7728C13.4657 20.5943 13.6341 20.4509 13.8301 20.3564C14.0261 20.2618 14.2432 20.2194 14.4604 20.2332C14.6777 20.2469 14.8877 20.3164 15.0702 20.4349C15.2528 20.5534 15.4017 20.7169 15.5027 20.9097L17.9811 25.6399L22.1505 16.7115C22.2623 16.4709 22.4468 16.2715 22.6779 16.1413C22.9091 16.0112 23.1753 15.9569 23.439 15.9861C23.7027 16.0153 23.9506 16.1265 24.1477 16.3041C24.3448 16.4817 24.4812 16.7167 24.5376 16.9759L27.1392 28.8185L30.8086 20.9629C30.9084 20.7488 31.0661 20.567 31.2639 20.4378C31.4616 20.3086 31.6915 20.2373 31.9276 20.2319C32.1637 20.2264 32.3967 20.2871 32.6001 20.407C32.8036 20.5269 32.9695 20.7013 33.0791 20.9105L35.7779 26.0631L37.0272 24.2724C37.144 24.1052 37.2995 23.9686 37.4804 23.8744C37.6613 23.7801 37.8622 23.7309 38.0662 23.7309H46.0773C48.4923 18.3494 47.7413 12.9907 44.0103 9.27737C39.7472 5.03278 32.8105 5.03278 28.5465 9.27737C27.8234 9.99705 26.9129 10.8493 25.9491 11.7523L25.8688 11.8267C25.6341 12.0464 25.3246 12.1686 25.003 12.1686C24.6815 12.1686 24.372 12.0464 24.1372 11.8267L24.0527 11.7481C23.0889 10.8417 22.18 9.99705 21.4578 9.27484C17.1947 5.03109 10.2572 5.03109 5.99401 9.27484C3.17273 12.0826 2.02394 15.882 2.74869 19.9712C2.80768 20.302 2.73288 20.6426 2.54073 20.9183C2.34859 21.1939 2.05483 21.3819 1.72408 21.441C1.56023 21.4702 1.39225 21.4668 1.2297 21.4311C1.06716 21.3953 0.913253 21.3279 0.776766 21.2327C0.64028 21.1375 0.52389 21.0163 0.434246 20.8761C0.344601 20.7359 0.283458 20.5794 0.254308 20.4155C-0.180709 17.9752 -0.0565392 15.6092 0.622595 13.3834C1.30785 11.1481 2.53936 9.11887 4.20579 7.47902C9.45556 2.25374 17.9963 2.25374 23.246 7.47902C23.7453 7.97654 24.3492 8.55009 25.0013 9.16334C25.6534 8.55009 26.2574 7.98077 26.7574 7.47902C32.0064 2.25374 40.5479 2.25374 45.7969 7.47902C48.0523 9.69977 49.493 12.6162 49.886 15.757C50.2839 18.9213 49.6326 22.311 48.01 25.5614C47.9022 25.777 47.7353 25.9573 47.5287 26.0814C47.322 26.2054 47.0843 26.2679 46.8434 26.2616H38.7285L36.6623 29.2181C36.5384 29.3972 36.3703 29.5414 36.1744 29.6367C35.9785 29.7319 35.7613 29.7751 35.5438 29.7619C35.3264 29.7487 35.116 29.6797 34.933 29.5615C34.75 29.4433 34.6005 29.2799 34.4991 29.0871L32.0207 24.3569L27.8513 33.2811C27.739 33.5207 27.5545 33.7191 27.3237 33.8486C27.0929 33.978 26.8274 34.0319 26.5644 34.0028C26.3013 33.9736 26.0541 33.8628 25.8572 33.686C25.6603 33.5091 25.5238 33.2751 25.4667 33.0167L22.8651 21.1741L19.1957 29.0297C19.0958 29.2435 18.9381 29.4252 18.7405 29.5542C18.5428 29.6832 18.3131 29.7544 18.0771 29.7599C17.8412 29.7653 17.6084 29.7047 17.405 29.585C17.2016 29.4652 17.0357 29.2911 16.926 29.0821L14.2272 23.9294L12.9763 25.7194C12.8595 25.8864 12.7042 26.0229 12.5235 26.1172C12.3428 26.2114 12.142 26.2607 11.9381 26.2608H5.30136C5.42215 26.4509 5.54716 26.6392 5.67471 26.8267C9.47837 32.4085 14.6741 36.7849 18.3629 39.4769C20.4862 41.0315 22.7029 42.4544 25.0005 43.7375C27.3158 42.4595 36.1378 37.279 42.5203 29.278C42.6226 29.144 42.7507 29.0317 42.897 28.9478C43.0433 28.8638 43.2048 28.8099 43.3722 28.7893C43.5396 28.7686 43.7094 28.7816 43.8718 28.8274C44.0341 28.8732 44.1856 28.951 44.3175 29.0561C44.4493 29.1613 44.5589 29.2917 44.6397 29.4398C44.7205 29.5878 44.7709 29.7505 44.788 29.9183C44.8051 30.0861 44.7885 30.2556 44.7393 30.4169C44.69 30.5782 44.609 30.728 44.5011 30.8576C40.4618 35.9258 35.5389 39.8477 32.1204 42.2492C28.4164 44.8508 25.6906 46.2471 25.5757 46.3037C25.3976 46.3936 25.2008 46.4402 25.0013 46.4397Z" fill="white"/>
</svg>
