<svg width="65" height="66" viewBox="0 0 65 66" fill="none" xmlns="http://www.w3.org/2000/svg">
<g clip-path="url(#clip0_392_47)">
<path d="M28.0306 65.3254C22.7102 65.3254 18.3818 60.9969 18.3818 55.6766V39.0289C18.3818 37.9204 19.2805 37.0217 20.389 37.0217C21.4976 37.0217 22.3962 37.9204 22.3962 39.0289V55.6766C22.3962 58.7834 24.9238 61.3108 28.0305 61.3108C31.1371 61.3108 33.6647 58.7833 33.6647 55.6766V51.6613C33.6647 45.8083 38.4265 41.0465 44.2796 41.0465H53.9304C55.0389 41.0465 55.9376 41.9452 55.9376 43.0537C55.9376 44.1622 55.0389 45.0609 53.9304 45.0609H44.2796C40.6401 45.0609 37.6792 48.0218 37.6792 51.6613V55.6766C37.6793 60.9969 33.351 65.3254 28.0306 65.3254Z" fill="#60B8FF"/>
<path d="M54.049 41.0524C54.0972 41.2248 54.1249 41.4057 54.1249 41.5934C54.1249 42.7019 53.2262 43.6006 52.1177 43.6006H42.4669C38.8274 43.6006 35.8665 46.5615 35.8665 50.201V54.2163C35.8665 59.5367 31.538 63.8651 26.2177 63.8651C24.3499 63.8651 22.6055 63.3299 21.1265 62.4074C22.88 64.2057 25.3264 65.3254 28.0306 65.3254C33.351 65.3254 37.6793 60.9969 37.6793 55.6766V51.6613C37.6793 48.0218 40.6403 45.0609 44.2798 45.0609H53.9305C55.0391 45.0609 55.9377 44.1622 55.9377 43.0537C55.9377 41.9852 55.1021 41.114 54.049 41.0524Z" fill="#22A7FF"/>
<path d="M55.9761 51.1845C60.3925 51.1845 63.9727 47.6043 63.9727 43.1879C63.9727 38.7715 60.3925 35.1913 55.9761 35.1913C51.5597 35.1913 47.9795 38.7715 47.9795 43.1879C47.9795 47.6043 51.5597 51.1845 55.9761 51.1845Z" fill="#AB9FAA"/>
<path d="M60.2338 36.4202C60.5524 37.2831 60.7269 38.2159 60.7269 39.1895C60.7269 43.606 57.1467 47.1862 52.7303 47.1862C51.1649 47.1862 49.7057 46.7346 48.4727 45.9573C49.5992 49.0086 52.5334 51.1845 55.9762 51.1845C60.3926 51.1845 63.9728 47.6044 63.9728 43.1879C63.9728 40.3368 62.4796 37.836 60.2338 36.4202Z" fill="#928392"/>
<path d="M55.9764 47.1863C58.1846 47.1863 59.9748 45.3962 59.9748 43.1879C59.9748 40.9797 58.1846 39.1896 55.9764 39.1896C53.7682 39.1896 51.978 40.9797 51.978 43.1879C51.978 45.3962 53.7682 47.1863 55.9764 47.1863Z" fill="#D8D1D7"/>
<path d="M57.5561 39.5145C57.7948 40.0269 57.9289 40.5977 57.9289 41.2003C57.9289 43.4085 56.1387 45.1987 53.9305 45.1987C53.3693 45.1987 52.8353 45.0826 52.3506 44.8738C52.9866 46.2393 54.3704 47.1863 55.9762 47.1863C58.1844 47.1863 59.9744 45.3962 59.9744 43.1879C59.9746 41.541 58.9784 40.127 57.5561 39.5145Z" fill="#CAC0C9"/>
<path d="M20.389 39.7811C13.918 39.7811 8.22014 35.418 6.53316 29.1704L1.35491 9.9948C0.874449 8.21551 1.24152 6.35592 2.36205 4.89281C3.48258 3.42971 5.18206 2.59052 7.02511 2.59052H11.7421C12.2786 2.59052 12.7134 3.02539 12.7134 3.56179C12.7134 4.09819 12.2786 4.53307 11.7421 4.53307H7.02498C5.79157 4.53307 4.65399 5.09472 3.9042 6.07395C3.15427 7.05319 2.90855 8.29784 3.23003 9.48858L8.40841 28.6642C9.86722 34.066 14.7937 37.8387 20.389 37.8387C25.9843 37.8387 30.911 34.066 32.3697 28.6642L37.548 9.48858C37.8695 8.29784 37.6239 7.05319 36.8739 6.07395C36.124 5.09472 34.9866 4.53307 33.7532 4.53307H29.0362C28.4996 4.53307 28.0649 4.09819 28.0649 3.56179C28.0649 3.02539 28.4996 2.59052 29.0362 2.59052H33.7532C35.5961 2.59052 37.2957 3.42971 38.4162 4.89294C39.5367 6.35617 39.9038 8.21576 39.4232 9.99492L34.245 29.1706C32.558 35.4178 26.8603 39.7811 20.389 39.7811Z" fill="#928392"/>
<path d="M20.3891 40.817C13.4509 40.817 7.34189 36.1388 5.53306 29.4405L4.87999 27.0221C4.59095 25.9518 5.2242 24.8499 6.29447 24.5609C7.365 24.2721 8.46659 24.9053 8.75562 25.9754L9.4087 28.3939C10.7457 33.3448 15.261 36.8025 20.3891 36.8025C25.5173 36.8025 30.0327 33.3448 31.3696 28.3939L32.0227 25.9754C32.3116 24.9053 33.4135 24.2716 34.4839 24.5609C35.554 24.8498 36.1874 25.9518 35.8983 27.0221L35.2453 29.4405C33.4366 36.139 27.3274 40.817 20.3891 40.817Z" fill="#60B8FF"/>
<path d="M34.7906 24.6737C34.814 24.9093 34.798 25.1525 34.7328 25.3947L34.0797 27.8132C32.2709 34.5115 26.1617 39.1897 19.2235 39.1897C14.5014 39.1897 10.1648 37.0212 7.30518 33.5252C10.0591 37.9646 14.9712 40.8172 20.389 40.8172C27.3272 40.8172 33.4363 36.139 35.2452 29.4407L35.8982 27.0222C36.1582 26.0592 35.6702 25.0727 34.7906 24.6737Z" fill="#22A7FF"/>
<path d="M11.8195 6.45809C13.4165 6.45809 14.7112 5.16341 14.7112 3.56635C14.7112 1.96929 13.4165 0.674622 11.8195 0.674622C10.2224 0.674622 8.92773 1.96929 8.92773 3.56635C8.92773 5.16341 10.2224 6.45809 11.8195 6.45809Z" fill="#BBB0BA"/>
<path d="M12.6761 0.80365C12.98 1.26138 13.1574 1.81028 13.1574 2.40085C13.1574 3.99793 11.8628 5.29258 10.2657 5.29258C9.96755 5.29258 9.6799 5.24738 9.40918 5.16354C9.92714 5.94364 10.8131 6.45807 11.8196 6.45807C13.4166 6.45807 14.7113 5.16341 14.7113 3.56633C14.7113 2.26751 13.8549 1.1687 12.6761 0.80365Z" fill="#AB9FAA"/>
<path d="M28.6544 6.45809C30.2515 6.45809 31.5462 5.16341 31.5462 3.56635C31.5462 1.96929 30.2515 0.674622 28.6544 0.674622C27.0574 0.674622 25.7627 1.96929 25.7627 3.56635C25.7627 5.16341 27.0574 6.45809 28.6544 6.45809Z" fill="#BBB0BA"/>
<path d="M29.511 0.80365C29.815 1.26138 29.9924 1.81028 29.9924 2.40085C29.9924 3.99793 28.6977 5.29258 27.1006 5.29258C26.8025 5.29258 26.5149 5.24738 26.2441 5.16354C26.7621 5.94364 27.648 6.45807 28.6545 6.45807C30.2516 6.45807 31.5463 5.16341 31.5463 3.56633C31.5464 2.26751 30.69 1.1687 29.511 0.80365Z" fill="#AB9FAA"/>
</g>
<defs>
<clipPath id="clip0_392_47">
<rect width="64.6508" height="64.6508" fill="white" transform="translate(0.235352 0.674622)"/>
</clipPath>
</defs>
</svg>
