<svg width="50" height="50" viewBox="0 0 50 50" fill="none" xmlns="http://www.w3.org/2000/svg">
<g clip-path="url(#clip0_409_106)">
<path d="M45.0964 46.6664C50.5676 41.1952 49.151 30.9081 41.9323 23.6894C34.7137 16.4708 24.4265 15.0542 18.9553 20.5254C13.4841 25.9966 14.9007 36.2838 22.1194 43.5024C29.338 50.7211 39.6252 52.1376 45.0964 46.6664Z" fill="#FB8189"/>
<path d="M15.8994 32.0852C16.612 36.0231 18.7245 40.104 22.1247 43.5042C22.3456 43.7251 22.5694 43.9405 22.7959 44.1504C23.4653 42.9735 23.8496 41.6132 23.8496 40.1625C23.8496 35.7433 20.3019 32.155 15.8994 32.0852Z" fill="#FB6672"/>
<path d="M35.1471 18.5603C28.8052 15.2842 23.0163 16.4677 18.9602 20.5237C14.9944 24.4895 14.648 30.9849 17.5054 37.0087C21.4025 36.2733 25.4302 34.1702 28.7925 30.8079C32.432 27.1685 34.596 22.7493 35.1471 18.5603Z" fill="#FB6672"/>
<path d="M45.1055 46.6683C39.6336 52.1412 29.3448 50.7237 22.1245 43.5043C20.8529 42.2328 19.7623 40.8666 18.8569 39.448C19.1245 39.7427 19.4022 40.0345 19.6879 40.3203C26.9072 47.5396 37.196 48.9571 42.6679 43.4853C47.1407 39.0124 48.1227 32.4339 43.4817 25.3303C50.7735 33.624 50.2394 41.5345 45.1055 46.6683Z" fill="#FB6672"/>
<path d="M43.1648 41.8995C46.4045 38.6598 44.6786 31.6813 39.3098 26.3125C33.9411 20.9438 26.9626 19.2178 23.7229 22.4575C20.4832 25.6972 22.2092 32.6757 27.5779 38.0445C32.9467 43.4132 39.9252 45.1392 43.1648 41.8995Z" fill="#F82F40"/>
<path d="M34.1746 22.4885C30.0834 20.3532 25.9926 20.1915 23.7281 22.456C21.2211 24.963 21.688 29.7085 24.5144 34.2149C26.0122 33.2827 27.4551 32.1454 28.7924 30.808C31.3048 28.2957 33.1137 25.4117 34.1746 22.4885Z" fill="#E22334"/>
<path d="M43.1727 41.9008C39.933 45.1404 32.9533 43.4143 27.5843 38.0452C24.6981 35.1591 22.8645 31.8075 22.2886 28.8213C23.2187 30.8454 24.6418 32.8985 26.5014 34.7581C31.8712 40.1279 38.8501 41.8549 42.0905 38.6145C43.5892 37.1158 44.025 34.8182 43.5307 32.25C45.2864 36.0678 45.2901 39.7833 43.1727 41.9008Z" fill="#E22334"/>
<path d="M37.4803 31.278C38.2732 30.4852 37.8521 28.7786 36.5398 27.4663C35.2275 26.154 33.521 25.7329 32.7281 26.5258C31.9352 27.3187 32.3563 29.0252 33.6686 30.3375C34.9809 31.6498 36.6875 32.0709 37.4803 31.278Z" fill="#FB8189"/>
<path d="M38.055 38.5442C38.8304 37.7688 38.6911 36.3723 37.7438 35.425C36.7966 34.4778 35.4001 34.3384 34.6247 35.1138C33.8493 35.8892 33.9886 37.2857 34.9359 38.233C35.8831 39.1802 37.2796 39.3196 38.055 38.5442Z" fill="#FB8189"/>
<path d="M40.9214 34.0911C40.6635 34.0911 40.4123 33.9588 40.2714 33.7208C40.0591 33.3623 40.1777 32.8995 40.5362 32.6872L40.5461 32.6813C40.9047 32.4691 41.3675 32.5874 41.5798 32.9461C41.7921 33.3047 41.6736 33.7675 41.315 33.9798L41.3051 33.9857C41.1845 34.0571 41.0521 34.0911 40.9214 34.0911Z" fill="#FB8189"/>
<path d="M29.1811 33.6747C28.9227 33.6747 28.671 33.5419 28.5303 33.3031C28.3188 32.944 28.4384 32.4816 28.7974 32.27L28.8074 32.2642C29.1662 32.0528 29.6289 32.1722 29.8404 32.5313C30.0519 32.8904 29.9323 33.3528 29.5733 33.5643L29.5633 33.5701C29.4432 33.641 29.3113 33.6747 29.1811 33.6747Z" fill="#FB8189"/>
<path d="M27.8698 26.8362C35.0885 19.6176 36.5051 9.3304 31.0339 3.85919C25.5627 -1.61201 15.2755 -0.195424 8.05685 7.02323C0.838201 14.2419 -0.578384 24.529 4.89282 30.0002C10.364 35.4714 20.6512 34.0549 27.8698 26.8362Z" fill="#FC9AA1"/>
<path d="M31.0395 3.85752C36.5115 9.32959 35.0951 19.6179 27.8754 26.8376C22.9577 31.7553 16.6155 33.9811 11.3428 33.1702C15.6705 32.7248 20.2857 30.536 24.0621 26.7598C31.2818 19.54 32.699 9.25098 27.227 3.77891C25.2918 1.84365 22.9615 0.561426 20.3637 0.107129C24.5022 -0.417578 28.1963 1.01436 31.0395 3.85752Z" fill="#FB8189"/>
<path d="M22.4114 21.3776C27.7801 16.0089 29.5061 9.03039 26.2664 5.79071C23.0267 2.55103 16.0482 4.27698 10.6795 9.64573C5.31072 15.0145 3.58478 21.993 6.82446 25.2327C10.0641 28.4723 17.0426 26.7464 22.4114 21.3776Z" fill="#F82F40"/>
<path d="M26.2714 5.78979C29.511 9.02943 27.7849 16.0091 22.4158 21.3782C19.5297 24.2643 16.1781 26.098 13.1919 26.6739C15.216 25.7437 17.2691 24.3206 19.1287 22.4611C24.4985 17.0913 26.2255 10.1123 22.9851 6.87191C21.4864 5.37328 19.1888 4.93744 16.6206 5.43178C20.4384 3.67602 24.1539 3.67231 26.2714 5.78979Z" fill="#E22334"/>
<path d="M13.5834 18.2071C15.0074 16.7832 15.4643 14.9314 14.6039 14.0711C13.7436 13.2108 11.8919 13.6677 10.4679 15.0917C9.04398 16.5156 8.58708 18.3673 9.4474 19.2277C10.3077 20.088 12.1595 19.6311 13.5834 18.2071Z" fill="#FB8189"/>
<path d="M22.6008 14.0198C23.548 13.0726 23.6874 11.6761 22.912 10.9007C22.1366 10.1253 20.7401 10.2646 19.7928 11.2118C18.8455 12.1591 18.7062 13.5556 19.4816 14.331C20.257 15.1064 21.6535 14.9671 22.6008 14.0198Z" fill="#FB8189"/>
<path d="M15.3638 11.7093C15.1059 11.7093 14.8547 11.5771 14.7138 11.3391L14.7079 11.3292C14.4956 10.9707 14.6142 10.5079 14.9728 10.2956C15.3315 10.0832 15.7942 10.2019 16.0065 10.5604L16.0123 10.5703C16.2246 10.9289 16.1061 11.3916 15.7475 11.604C15.6269 11.6753 15.4945 11.7093 15.3638 11.7093Z" fill="#FC9AA1"/>
<path d="M13.9565 23.0563C13.6987 23.0563 13.4474 22.9241 13.3066 22.6861L13.3007 22.6762C13.0884 22.3176 13.207 21.8548 13.5655 21.6425C13.9243 21.4301 14.3869 21.5489 14.5992 21.9074L14.6051 21.9172C14.8174 22.2758 14.6988 22.7386 14.3403 22.9509C14.2196 23.0223 14.0872 23.0563 13.9565 23.0563Z" fill="#FC9AA1"/>
<path d="M13.9501 46.542C18.4128 46.542 22.0306 42.9243 22.0306 38.4616C22.0306 33.9989 18.4128 30.3811 13.9501 30.3811C9.48738 30.3811 5.86963 33.9989 5.86963 38.4616C5.86963 42.9243 9.48738 46.542 13.9501 46.542Z" fill="#24D1F8"/>
<path d="M22.0303 38.4611C22.0303 42.9239 18.4126 46.5416 13.9498 46.5416C13.5464 46.5416 13.151 46.5124 12.7637 46.4541C16.6641 45.8816 19.658 42.5205 19.658 38.4611C19.658 34.4017 16.6641 31.0406 12.7637 30.4681C13.151 30.4097 13.5464 30.3806 13.9498 30.3806C18.4126 30.3806 22.0303 33.9983 22.0303 38.4611Z" fill="#21C1F8"/>
<path d="M18.1386 36.7424C17.571 35.9515 16.6626 35.5791 15.7783 35.6564C15.3259 35.696 14.8871 35.5016 14.6283 35.1286C14.4561 34.8804 14.216 34.6717 13.915 34.5326C13.1964 34.2002 12.3245 34.4009 11.8245 35.0147C11.5973 35.2935 11.4705 35.6137 11.4347 35.9373C11.4133 36.1304 11.2874 36.294 11.1026 36.3539C10.762 36.464 10.4378 36.6456 10.1526 36.9011C9.10404 37.8407 8.9848 39.4769 9.88461 40.5598C10.4546 41.2458 11.2974 41.5697 12.1228 41.5065C12.5129 41.4766 12.8829 41.6566 13.141 41.9506C13.2935 42.1244 13.484 42.2717 13.7095 42.3797C14.4574 42.7379 15.3752 42.5104 15.871 41.8459C16.0263 41.6377 16.1283 41.4089 16.1807 41.1745C16.2203 40.9975 16.3658 40.8632 16.5433 40.8264C16.975 40.7368 17.3906 40.5368 17.746 40.2216C18.7391 39.341 18.9124 37.8207 18.1386 36.7424Z" fill="#FC9AA1"/>
<path d="M17.7467 40.2216C17.3905 40.5365 16.9751 40.7368 16.5435 40.8262C16.3664 40.8634 16.2205 40.9972 16.1813 41.1743C16.1289 41.4086 16.0264 41.638 15.8714 41.8453C15.3754 42.5102 14.4579 42.7376 13.7094 42.3794C13.484 42.2718 13.2938 42.1239 13.1409 41.9508C12.9961 41.7848 12.816 41.655 12.6157 41.5796C13.152 41.6168 13.6922 41.3844 14.0262 40.9377C14.169 40.7466 14.2626 40.5364 14.3108 40.321C14.3471 40.159 14.4809 40.0353 14.6438 40.0021C15.0402 39.9196 15.4226 39.7355 15.7484 39.4457C16.6609 38.6369 16.8198 37.2405 16.1096 36.2505C15.9345 36.0061 15.7232 35.8048 15.4898 35.649C15.5844 35.6621 15.681 35.6651 15.7786 35.656C16.6629 35.5786 17.5714 35.9518 18.1388 36.7425C18.9127 37.8202 18.7396 39.3413 17.7467 40.2216Z" fill="#FB8189"/>
<path d="M12.1371 39.4092C12.0747 39.4092 12.0112 39.4014 11.948 39.3851C11.5445 39.281 11.3018 38.8695 11.4059 38.466L11.4087 38.4553C11.5129 38.0518 11.9247 37.8092 12.3278 37.9132C12.7313 38.0173 12.974 38.4289 12.8699 38.8324L12.8672 38.843C12.7794 39.1834 12.4729 39.4092 12.1371 39.4092Z" fill="#FFC4C8"/>
<path d="M14.3328 40.6515C14.2694 40.6515 14.2049 40.6435 14.1407 40.6265C13.7376 40.5206 13.4967 40.108 13.6026 39.705L13.6054 39.6944C13.7114 39.2913 14.1239 39.0504 14.5269 39.1563C14.9299 39.2621 15.1708 39.6747 15.065 40.0778L15.0621 40.0884C14.9731 40.4272 14.6674 40.6515 14.3328 40.6515Z" fill="#FFC4C8"/>
<path d="M15.0815 36.2777C14.9799 36.2777 14.8767 36.2571 14.7778 36.2135C14.3964 36.0456 14.2234 35.6003 14.3913 35.2189L15.0788 33.6576C15.2467 33.2763 15.6921 33.1033 16.0735 33.2712C16.4548 33.4391 16.6279 33.8844 16.4599 34.2659L15.7724 35.8271C15.648 36.1095 15.3714 36.2777 15.0815 36.2777Z" fill="#FB4A59"/>
<path d="M11.913 44.1297C11.8112 44.1297 11.7079 44.109 11.6089 44.0653C11.2276 43.8972 11.0549 43.4518 11.223 43.0704L11.9217 41.4865C12.0898 41.1053 12.5352 40.9326 12.9166 41.1007C13.2979 41.2689 13.4706 41.7143 13.3024 42.0956L12.6038 43.6795C12.4793 43.9617 12.2028 44.1297 11.913 44.1297Z" fill="#FB4A59"/>
</g>
<defs>
<clipPath id="clip0_409_106">
<rect width="50" height="50" fill="white"/>
</clipPath>
</defs>
</svg>
