<svg width="50" height="50" viewBox="0 0 50 50" fill="none" xmlns="http://www.w3.org/2000/svg">
<g clip-path="url(#clip0_409_555)">
<path d="M49.9345 24.6909C44.9043 13.509 35.637 6.00903 25.0361 6.00903V43.9912C35.637 43.9912 44.9043 36.4911 49.9345 25.3093C49.9582 25.2568 49.9749 25.2021 49.9859 25.1464V24.8538C49.975 24.7982 49.9582 24.7435 49.9345 24.6909Z" fill="#FFAD84"/>
<path d="M46.5094 25.0001C42.2229 13.6475 34.2119 6.00903 25.036 6.00903C14.3377 6.00903 4.99762 13.6475 0 25.0001C4.99762 36.3526 14.3377 43.9912 25.036 43.9912C34.2119 43.9912 42.2229 36.3526 46.5094 25.0001Z" fill="#FFD4A1"/>
<path d="M49.986 24.8538C44.9678 16.2924 35.6737 10.5427 25.0361 10.5427V39.4575C35.6737 39.4575 44.9678 33.7078 49.986 25.1464C50.005 25.0499 50.005 24.9504 49.986 24.8538Z" fill="#FE8566"/>
<path d="M46.5094 25.0001C42.2229 16.3577 34.2119 10.5427 25.036 10.5427C15.5282 10.5427 7.09359 15.1357 1.82606 22.2242C0.751986 22.6878 0 23.756 0 25.0001C0 26.2443 0.751986 27.3125 1.82606 27.776C7.09359 34.8645 15.5282 39.4575 25.036 39.4575C34.2119 39.4575 42.2229 33.6425 46.5094 25.0001Z" fill="#FFAD84"/>
<path d="M38.1565 17.134C34.1975 14.7993 29.6605 13.5652 25.0361 13.5652V36.4351C29.6605 36.4351 34.1976 35.201 38.1565 32.8663C41.4908 30.8999 44.3504 28.2018 46.5094 25.0001C44.3505 21.7984 41.4908 19.1003 38.1565 17.134Z" fill="#FFFBBE"/>
<path d="M43.4868 25.0001C41.6317 21.7984 39.1744 19.1002 36.3094 17.134C32.9077 14.7993 29.0092 13.5652 25.0358 13.5652C20.4115 13.5652 15.8744 14.7993 11.9154 17.134C8.58118 19.1003 5.72154 21.7984 3.5625 25.0001C5.72154 28.2018 8.58118 30.9 11.9154 32.8663C15.8745 35.201 20.4115 36.4351 25.0358 36.4351C29.0093 36.4351 32.9078 35.201 36.3094 32.8663C39.1744 30.9 41.6317 28.2019 43.4868 25.0001Z" fill="white"/>
<path d="M25.0361 13.5652V36.4351C31.3514 36.4351 36.4711 31.3154 36.4711 25.0001C36.4711 18.6848 31.3514 13.5652 25.0361 13.5652Z" fill="#01B1BC"/>
<path d="M33.4485 25.0001C33.4485 18.6848 29.6821 13.5652 25.036 13.5652C18.7207 13.5652 13.6011 18.6848 13.6011 25.0001C13.6011 31.3154 18.7207 36.4351 25.036 36.4351C29.6821 36.4351 33.4485 31.3155 33.4485 25.0001Z" fill="#3AC7CF"/>
<path d="M25.0361 19.6101V30.3902C28.0129 30.3902 30.4262 27.977 30.4262 25.0001C30.4262 22.0233 28.0129 19.6101 25.0361 19.6101Z" fill="#20335A"/>
<path d="M27.4036 25.0001C27.4036 22.0233 26.3436 19.6101 25.036 19.6101C22.0592 19.6101 19.646 22.0233 19.646 25.0001C19.646 27.977 22.0592 30.3902 25.036 30.3902C26.3436 30.3902 27.4036 27.9771 27.4036 25.0001Z" fill="#2B4478"/>
</g>
<defs>
<clipPath id="clip0_409_555">
<rect width="50" height="50" fill="white"/>
</clipPath>
</defs>
</svg>
