<svg width="53" height="53" viewBox="0 0 53 53" fill="none" xmlns="http://www.w3.org/2000/svg">
<path d="M13.081 43.3695C14.4357 43.3695 15.7715 42.4805 16.9437 40.7983C19.1167 37.6794 21.534 36.0425 24.5514 35.6471C25.203 35.5616 25.8658 35.5185 26.5209 35.5185C27.1518 35.5185 27.7896 35.5584 28.4169 35.6377C31.4443 36.02 33.871 37.6588 36.054 40.7944C37.2266 42.4791 38.5629 43.3695 39.9193 43.3695C41.0021 43.3695 42.1365 42.7904 43.1991 41.694C45.9933 38.8117 47.6833 33.2236 47.5042 27.4579C47.2165 18.1988 46.4044 9.63062 42.4444 9.63062C41.5314 9.63062 40.8106 10.6214 40.0474 11.6704C39.5621 12.338 39.06 13.0281 38.4479 13.568C37.7299 14.2015 36.981 14.4957 36.3203 14.7554C35.6235 15.0292 35.0214 15.2656 34.5882 15.8408C34.3792 16.1182 34.1819 16.4174 34.0006 16.7301C32.4488 19.4065 29.608 21.0763 26.5866 21.088L26.5257 21.0882L26.464 21.088C23.4381 21.0777 20.5643 19.3853 18.9651 16.6704C18.7919 16.3768 18.6061 16.0979 18.4126 15.841C17.9791 15.2654 17.3772 15.029 16.6802 14.7554C16.0195 14.4957 15.2706 14.2015 14.5526 13.568C13.9405 13.0277 13.4345 12.3375 12.945 11.6697C12.1765 10.6212 11.4506 9.63062 10.5563 9.63062C6.59611 9.63062 5.78397 18.1988 5.49636 27.4579C5.31722 33.2236 7.00721 38.8117 9.80137 41.694C10.8638 42.7902 11.9982 43.3695 13.081 43.3695ZM43.832 26.0087C44.2814 26.4581 44.5291 27.0556 44.5291 27.6912C44.5291 28.3269 44.2814 28.9244 43.832 29.3738C43.7535 29.4523 43.6507 29.4915 43.5481 29.4915C43.4452 29.4915 43.3426 29.4523 43.2642 29.3738C43.1073 29.2169 43.1073 28.9627 43.2642 28.8058C43.562 28.508 43.726 28.1121 43.726 27.6911C43.726 27.2701 43.562 26.8742 43.2642 26.5763C43.1073 26.4194 43.1073 26.1652 43.2642 26.0083C43.421 25.8518 43.6751 25.8518 43.832 26.0087ZM41.1885 15.9767C41.2733 15.7719 41.5081 15.6737 41.7134 15.7594C42.3006 16.0025 42.758 16.4602 43.0011 17.0471C43.2445 17.6341 43.2445 18.2811 43.0011 18.8685C42.937 19.0231 42.7875 19.1164 42.6297 19.1164C42.5785 19.1164 42.5264 19.1067 42.4762 19.0858C42.2713 19.0008 42.1739 18.766 42.2589 18.5609C42.42 18.1719 42.42 17.7433 42.2589 17.3545C42.0978 16.9655 41.7948 16.6623 41.4056 16.5012C41.2007 16.4164 41.1035 16.1816 41.1885 15.9767ZM39.9246 37.887C40.3135 37.7259 40.6165 37.4229 40.7779 37.0337C40.939 36.6447 40.939 36.2161 40.7779 35.8273C40.6929 35.6223 40.7903 35.3874 40.9952 35.3024C41.201 35.2169 41.4353 35.3153 41.5201 35.5197C41.7632 36.1069 41.7632 36.7537 41.5201 37.3411C41.2767 37.9284 40.8193 38.3858 40.2324 38.6289C40.1822 38.6497 40.1301 38.6594 40.0789 38.6594C39.9211 38.6594 39.7716 38.5661 39.7075 38.4116C39.6223 38.2068 39.7197 37.972 39.9246 37.887ZM37.6566 32.3409C37.5781 32.4194 37.4753 32.4586 37.3727 32.4586C37.2699 32.4586 37.1672 32.4194 37.0888 32.3409C36.9319 32.1841 36.9319 31.9298 37.0888 31.773C37.3866 31.4751 37.5506 31.0792 37.5506 30.6582C37.5506 30.237 37.3866 29.8411 37.0888 29.5432C36.9319 29.3864 36.9319 29.1321 37.0888 28.9753C37.2457 28.8184 37.4999 28.8184 37.6568 28.9753C38.1062 29.4247 38.3539 30.0225 38.3539 30.6582C38.3537 31.294 38.106 31.8915 37.6566 32.3409ZM36.7261 20.3122C36.5692 20.1554 36.5692 19.9011 36.7261 19.7443C36.883 19.5874 37.1372 19.5874 37.2941 19.7443C37.7435 20.1937 37.9912 20.7912 37.9912 21.4268C37.9912 22.0625 37.7435 22.66 37.2941 23.1094C37.2156 23.1878 37.1128 23.2271 37.0102 23.2271C36.9073 23.2271 36.8047 23.1878 36.7263 23.1094C36.5694 22.9525 36.5694 22.6983 36.7263 22.5414C37.0241 22.2436 37.1881 21.8476 37.1881 21.4266C37.1877 21.006 37.0238 20.6101 36.7261 20.3122ZM30.3675 32.9874C30.7565 32.8262 31.0597 32.5233 31.2208 32.1341C31.3819 31.7452 31.3819 31.3166 31.2208 30.9276C31.1358 30.7227 31.2332 30.4877 31.4381 30.4027C31.6436 30.3178 31.8783 30.4156 31.963 30.62C32.2064 31.2076 32.2064 31.8544 31.963 32.4415C31.7199 33.0285 31.2625 33.4861 30.6752 33.7292C30.6251 33.75 30.5728 33.7597 30.5217 33.7597C30.3641 33.7597 30.2145 33.6665 30.1504 33.5119C30.0652 33.3071 30.1626 33.0723 30.3675 32.9874ZM28.8489 23.9127C28.692 23.7558 28.692 23.5016 28.8489 23.3447C29.0057 23.1878 29.26 23.1878 29.4168 23.3447C29.8663 23.7942 30.114 24.3916 30.114 25.0273C30.114 25.6629 29.8663 26.2604 29.4168 26.7099C29.3384 26.7883 29.2356 26.8275 29.1329 26.8275C29.0301 26.8275 28.9275 26.7883 28.849 26.7099C28.6922 26.553 28.6922 26.2988 28.849 26.1419C29.1469 25.844 29.3108 25.4481 29.3108 25.0271C29.3107 24.6063 29.1467 24.2104 28.8489 23.9127ZM22.6606 23.3447C22.8175 23.1878 23.0717 23.1878 23.2286 23.3447C23.3854 23.5016 23.3854 23.7558 23.2286 23.9127C22.9311 24.2102 22.7671 24.6061 22.7671 25.0275C22.7671 25.4486 22.9311 25.8446 23.2286 26.1422C23.3854 26.2991 23.3854 26.5533 23.2286 26.7102C23.1501 26.7887 23.0473 26.8279 22.9447 26.8279C22.8418 26.8279 22.7392 26.7887 22.6608 26.7102C22.2113 26.261 21.964 25.6633 21.964 25.0276C21.9638 24.3916 22.2111 23.794 22.6606 23.3447ZM21.0229 30.6202C21.1077 30.4154 21.3425 30.3174 21.5478 30.4029C21.7527 30.4879 21.85 30.7227 21.7651 30.9278C21.6039 31.3168 21.6039 31.7454 21.7651 32.1342C21.9262 32.5233 22.2292 32.8264 22.6184 32.9875C22.8233 33.0725 22.9206 33.3073 22.8357 33.5124C22.7715 33.667 22.6221 33.7603 22.4643 33.7603C22.4131 33.7603 22.361 33.7506 22.3108 33.7297C21.7235 33.4866 21.2662 33.0289 21.0231 32.442C20.7794 31.8546 20.7794 31.2076 21.0229 30.6202ZM15.4084 19.7443C15.5653 19.5874 15.8195 19.5874 15.9764 19.7443C16.1333 19.9011 16.1333 20.1554 15.9764 20.3122C15.6789 20.6097 15.5149 21.0057 15.5149 21.427C15.5149 21.8482 15.6789 22.2441 15.9764 22.5418C16.1333 22.6986 16.1333 22.9529 15.9764 23.1097C15.898 23.1882 15.7951 23.2274 15.6925 23.2274C15.5899 23.2274 15.487 23.1882 15.4086 23.1097C14.9592 22.6605 14.7118 22.0628 14.7118 21.4272C14.7118 20.7915 14.959 20.1935 15.4084 19.7443ZM15.0457 28.9754C15.2026 28.8186 15.4568 28.8186 15.6137 28.9754C15.7706 29.1323 15.7706 29.3865 15.6137 29.5434C15.3162 29.8409 15.1523 30.2372 15.1523 30.6584C15.1523 31.0795 15.3162 31.4754 15.6137 31.7731C15.7706 31.93 15.7706 32.1842 15.6137 32.3411C15.5353 32.4196 15.4324 32.4588 15.3298 32.4588C15.227 32.4588 15.1243 32.4196 15.0459 32.3411C14.5965 31.8918 14.3491 31.2942 14.3491 30.6585C14.3489 30.0224 14.5963 29.4247 15.0457 28.9754ZM11.9745 34.7669C12.1795 34.8517 12.277 35.0865 12.192 35.2914C12.0309 35.6808 12.0309 36.1094 12.192 36.4983C12.3533 36.8873 12.6565 37.1904 13.0455 37.3516C13.2504 37.4365 13.3478 37.6713 13.2628 37.8764C13.1987 38.031 13.0492 38.1243 12.8914 38.1243C12.8402 38.1243 12.7881 38.1146 12.7379 38.0937C12.1507 37.8506 11.6933 37.3932 11.4498 36.806C11.2068 36.2189 11.2068 35.572 11.4498 34.9848C11.5345 34.7795 11.7691 34.6814 11.9745 34.7669ZM9.96903 17.8504C10.2125 17.2631 10.6699 16.8058 11.2568 16.5627C11.4615 16.4773 11.6967 16.575 11.7816 16.78C11.8666 16.9849 11.7693 17.2199 11.5643 17.3048C11.1755 17.466 10.8725 17.7689 10.711 18.1581C10.5499 18.5472 10.5499 18.9758 10.711 19.3646C10.796 19.5695 10.6987 19.8045 10.4937 19.8895C10.4436 19.9103 10.3913 19.92 10.3402 19.92C10.1826 19.92 10.033 19.8268 9.96885 19.6722C9.72594 19.0846 9.72594 18.438 9.96903 17.8504ZM9.42207 29.2238C9.31925 29.2238 9.21661 29.1846 9.13817 29.1062C8.68873 28.6569 8.44139 28.0592 8.44139 27.4236C8.44139 26.7879 8.68873 26.1901 9.13817 25.741C9.29505 25.5841 9.54927 25.5841 9.70615 25.741C9.86303 25.8979 9.86303 26.1521 9.70615 26.309C9.40864 26.6065 9.2447 27.0024 9.2447 27.4238C9.2447 27.8449 9.40864 28.2409 9.70615 28.5385C9.86303 28.6954 9.86303 28.9496 9.70615 29.1065C9.62753 29.1846 9.52471 29.2238 9.42207 29.2238Z" fill="#F56464"/>
<path d="M13.0805 44.1728C14.7096 44.1728 16.2733 43.1647 17.6022 41.2576C19.6368 38.3373 21.8778 36.8078 24.6556 36.4438C25.8673 36.2854 27.1054 36.282 28.3161 36.435C31.1014 36.7867 33.3508 38.3179 35.3941 41.2536C36.7235 43.1635 38.2883 44.173 39.9187 44.173C41.2238 44.173 42.5578 43.5091 43.775 42.2535C46.7133 39.2226 48.4918 33.4055 48.3061 27.433C47.9594 16.2653 46.8296 8.8275 42.4436 8.8275C41.1216 8.8275 40.2448 10.0327 39.3972 11.198C38.9373 11.8303 38.4616 12.484 37.9158 12.9656C37.3037 13.5058 36.6543 13.7609 36.0259 14.0079C35.2835 14.2994 34.5157 14.601 33.9458 15.3576C33.7175 15.6606 33.502 15.9871 33.3048 16.3272C31.8957 18.7576 29.3198 20.2739 26.5816 20.2847L26.5249 20.2849L26.4671 20.2847C23.7221 20.2755 21.1122 18.7344 19.6561 16.2625C19.4678 15.9429 19.2649 15.6383 19.0531 15.3574C18.4834 14.6008 17.7156 14.2992 16.973 14.0074C16.3446 13.7607 15.6952 13.5056 15.0831 12.9654C14.5363 12.4829 14.0563 11.828 13.5922 11.1947C12.6997 9.97725 11.857 8.82715 10.5556 8.82715C6.16952 8.82715 5.03973 16.265 4.69294 27.4326C4.50726 33.4052 6.28594 39.2223 9.22409 42.2532C10.4417 43.5091 11.7752 44.1728 13.0805 44.1728ZM5.49571 27.4579C5.78332 18.1988 6.59546 9.63063 10.5556 9.63063C11.4499 9.63063 12.1758 10.6212 12.9443 11.6697C13.4339 12.3375 13.9399 13.0279 14.552 13.568C15.27 14.2015 16.0189 14.4957 16.6796 14.7554C17.3764 15.0292 17.9785 15.2656 18.412 15.841C18.6054 16.0977 18.7915 16.3768 18.9644 16.6704C20.5636 19.3851 23.4376 21.0777 26.4634 21.088L26.5251 21.0882L26.586 21.088C29.6074 21.0761 32.4482 19.4065 34 16.7301C34.1813 16.4174 34.3786 16.1184 34.5876 15.8408C35.0208 15.2656 35.6229 15.0292 36.3197 14.7554C36.9804 14.4957 37.7293 14.2015 38.4473 13.568C39.0594 13.0281 39.5615 12.338 40.0468 11.6704C40.81 10.6214 41.5306 9.63063 42.4438 9.63063C46.4036 9.63063 47.2159 18.1988 47.5036 27.4579C47.6827 33.2236 45.9927 38.8117 43.1985 41.694C42.1359 42.7904 41.0015 43.3695 39.9187 43.3695C38.5624 43.3695 37.226 42.4791 36.0534 40.7944C33.8703 37.6588 31.4438 36.02 28.4163 35.6377C27.7889 35.5586 27.1512 35.5184 26.5203 35.5184C25.8652 35.5184 25.2024 35.5616 24.5508 35.6471C21.5333 36.0424 19.1158 37.6793 16.943 40.7983C15.7708 42.4803 14.4351 43.3695 13.0804 43.3695C11.9976 43.3695 10.8632 42.7904 9.80055 41.694C7.00657 38.8115 5.31657 33.2234 5.49571 27.4579Z" fill="#333333"/>
<path d="M11.4499 34.9845C11.2068 35.5717 11.2068 36.2187 11.4499 36.8057C11.6933 37.393 12.1507 37.8504 12.738 38.0935C12.7881 38.1143 12.8403 38.124 12.8915 38.124C13.0491 38.124 13.1987 38.0308 13.2629 37.8762C13.3478 37.6712 13.2505 37.4363 13.0456 37.3513C12.6565 37.1902 12.3534 36.8872 12.1921 36.498C12.031 36.1091 12.031 35.6806 12.1921 35.2912C12.2771 35.0862 12.1795 34.8513 11.9746 34.7667C11.769 34.6813 11.5343 34.7794 11.4499 34.9845Z" fill="#333333"/>
<path d="M10.3396 19.9199C10.3907 19.9199 10.443 19.9102 10.4932 19.8894C10.6981 19.8044 10.7954 19.5696 10.7105 19.3645C10.5493 18.9756 10.5493 18.547 10.7105 18.158C10.8718 17.769 11.1749 17.4658 11.5638 17.3047C11.7687 17.2197 11.866 16.9849 11.7811 16.7798C11.6961 16.5749 11.4609 16.4774 11.2562 16.5625C10.6691 16.8056 10.2119 17.263 9.96845 17.8503C9.72536 18.4379 9.72536 19.0845 9.96845 19.6717C10.0324 19.8265 10.1819 19.9199 10.3396 19.9199Z" fill="#333333"/>
<path d="M15.6918 23.2273C15.7946 23.2273 15.8973 23.1881 15.9757 23.1096C16.1326 22.9527 16.1326 22.6985 15.9757 22.5416C15.6782 22.2441 15.5142 21.8482 15.5142 21.4269C15.5142 21.0057 15.6782 20.6098 15.9757 20.3121C16.1326 20.1552 16.1326 19.901 15.9757 19.7441C15.8188 19.5872 15.5646 19.5872 15.4077 19.7441C14.9583 20.1934 14.7109 20.7911 14.7109 21.4267C14.7109 22.0623 14.9583 22.6602 15.4077 23.1093C15.4863 23.1881 15.5891 23.2273 15.6918 23.2273Z" fill="#333333"/>
<path d="M15.3295 32.4587C15.4323 32.4587 15.535 32.4194 15.6134 32.341C15.7703 32.1841 15.7703 31.9299 15.6134 31.773C15.3159 31.4755 15.1519 31.0796 15.1519 30.6583C15.1519 30.2369 15.3159 29.8408 15.6134 29.5433C15.7703 29.3864 15.7703 29.1322 15.6134 28.9753C15.4565 28.8184 15.2023 28.8184 15.0454 28.9753C14.596 29.4246 14.3486 30.0223 14.3486 30.6583C14.3486 31.2939 14.596 31.8917 15.0454 32.3408C15.124 32.4194 15.2268 32.4587 15.3295 32.4587Z" fill="#333333"/>
<path d="M9.70519 28.5382C9.40768 28.2407 9.24373 27.8448 9.24373 27.4235C9.24373 27.0023 9.40768 26.6064 9.70519 26.3087C9.86207 26.1518 9.86207 25.8976 9.70519 25.7407C9.54831 25.5838 9.29408 25.5838 9.1372 25.7407C8.68776 26.19 8.44043 26.7876 8.44043 27.4233C8.44043 28.0589 8.68776 28.6568 9.1372 29.1059C9.21564 29.1843 9.31846 29.2235 9.42111 29.2235C9.52393 29.2235 9.62657 29.1843 9.70501 29.1059C9.86207 28.9493 9.86207 28.6951 9.70519 28.5382Z" fill="#333333"/>
<path d="M40.078 38.6596C40.1293 38.6596 40.1814 38.6499 40.2316 38.6291C40.8186 38.386 41.2758 37.9286 41.5193 37.3413C41.7624 36.7537 41.7624 36.1071 41.5193 35.5199C41.4345 35.3155 41.2002 35.2171 40.9944 35.3026C40.7895 35.3876 40.6921 35.6224 40.7771 35.8275C40.9382 36.2163 40.9382 36.6449 40.7771 37.0339C40.6158 37.423 40.3127 37.7261 39.9238 37.8872C39.7189 37.9722 39.6215 38.207 39.7065 38.4121C39.7708 38.5663 39.9205 38.6596 40.078 38.6596Z" fill="#333333"/>
<path d="M41.4052 16.5013C41.7942 16.6625 42.0974 16.9654 42.2585 17.3546C42.4196 17.7435 42.4196 18.1721 42.2585 18.5611C42.1735 18.766 42.2709 19.001 42.4758 19.086C42.526 19.1068 42.5781 19.1165 42.6293 19.1165C42.7869 19.1165 42.9365 19.0233 43.0007 18.8687C43.2441 18.2811 43.2441 17.6343 43.0007 17.0472C42.7576 16.4602 42.3002 16.0026 41.713 15.7595C41.5077 15.6738 41.2729 15.7721 41.1881 15.9768C41.1029 16.1816 41.2001 16.4164 41.4052 16.5013Z" fill="#333333"/>
<path d="M36.7253 23.1095C36.8037 23.188 36.9065 23.2272 37.0092 23.2272C37.112 23.2272 37.2146 23.188 37.2931 23.1095C37.7425 22.6601 37.9902 22.0626 37.9902 21.4269C37.9902 20.7913 37.7425 20.1938 37.2931 19.7444C37.1362 19.5875 36.882 19.5875 36.7251 19.7444C36.5682 19.9012 36.5682 20.1555 36.7251 20.3124C37.0229 20.6102 37.1869 21.0061 37.1869 21.4271C37.1869 21.8481 37.0229 22.244 36.7251 22.5419C36.5682 22.6984 36.5682 22.9526 36.7253 23.1095Z" fill="#333333"/>
<path d="M37.0884 28.9755C36.9315 29.1324 36.9315 29.3867 37.0884 29.5435C37.3862 29.8414 37.5502 30.2373 37.5502 30.6585C37.5502 31.0795 37.3862 31.4754 37.0884 31.7732C36.9315 31.9301 36.9315 32.1843 37.0884 32.3412C37.1668 32.4197 37.2696 32.4589 37.3723 32.4589C37.4751 32.4589 37.5777 32.4197 37.6562 32.3412C38.1056 31.8918 38.3533 31.2943 38.3533 30.6587C38.3533 30.023 38.1056 29.4252 37.6562 28.9757C37.4995 28.8187 37.2452 28.8187 37.0884 28.9755Z" fill="#333333"/>
<path d="M28.8483 26.7101C28.9267 26.7885 29.0296 26.8278 29.1322 26.8278C29.235 26.8278 29.3377 26.7885 29.4161 26.7101C29.8656 26.2607 30.1132 25.6632 30.1132 25.0275C30.1132 24.3919 29.8656 23.7944 29.4161 23.345C29.2592 23.1881 29.005 23.1881 28.8481 23.345C28.6912 23.5018 28.6912 23.7561 28.8481 23.9129C29.146 24.2108 29.3099 24.6067 29.3099 25.0277C29.3099 25.4487 29.146 25.8446 28.8481 26.1425C28.6914 26.299 28.6914 26.553 28.8483 26.7101Z" fill="#333333"/>
<path d="M30.5214 33.76C30.5725 33.76 30.6247 33.7503 30.6749 33.7294C31.2622 33.4863 31.7196 33.0286 31.9626 32.4417C32.2061 31.8546 32.2061 31.2077 31.9626 30.6203C31.8782 30.4159 31.6434 30.318 31.4378 30.403C31.2328 30.4879 31.1355 30.7227 31.2205 30.9278C31.3816 31.3169 31.3816 31.7455 31.2205 32.1343C31.0593 32.5233 30.7564 32.8265 30.3672 32.9876C30.1622 33.0726 30.0649 33.3074 30.1499 33.5125C30.2142 33.6665 30.3638 33.76 30.5214 33.76Z" fill="#333333"/>
<path d="M22.3103 33.7293C22.3605 33.7502 22.4126 33.7599 22.4639 33.7599C22.6216 33.7599 22.7711 33.6666 22.8352 33.512C22.9202 33.3071 22.8228 33.0721 22.6179 32.9871C22.2289 32.826 21.9257 32.523 21.7646 32.1338C21.6035 31.745 21.6035 31.3164 21.7646 30.9274C21.8496 30.7225 21.7522 30.4875 21.5473 30.4025C21.342 30.317 21.1072 30.4151 21.0224 30.6198C20.779 31.2074 20.779 31.8542 21.0224 32.4412C21.2657 33.0287 21.7231 33.4862 22.3103 33.7293Z" fill="#333333"/>
<path d="M22.9437 26.8276C23.0466 26.8276 23.1492 26.7884 23.2276 26.71C23.3845 26.5531 23.3845 26.2989 23.2276 26.142C22.9301 25.8445 22.7662 25.4486 22.7662 25.0272C22.7662 24.606 22.9301 24.2101 23.2276 23.9124C23.3845 23.7556 23.3845 23.5013 23.2276 23.3445C23.0708 23.1876 22.8165 23.1876 22.6597 23.3445C22.2102 23.7937 21.9629 24.3914 21.9629 25.027C21.9629 25.6627 22.2102 26.2605 22.6597 26.7096C22.7381 26.7884 22.8409 26.8276 22.9437 26.8276Z" fill="#333333"/>
<path d="M43.2642 26.5766C43.562 26.8745 43.726 27.2704 43.726 27.6914C43.726 28.1124 43.562 28.5083 43.2642 28.8062C43.1073 28.9631 43.1073 29.2173 43.2642 29.3742C43.3426 29.4526 43.4454 29.4918 43.5481 29.4918C43.6509 29.4918 43.7535 29.4526 43.832 29.3742C44.2814 28.9247 44.5291 28.3272 44.5291 27.6916C44.5291 27.0559 44.2814 26.4585 43.832 26.009C43.6751 25.8521 43.4209 25.8521 43.264 26.009C43.1073 26.1655 43.1073 26.4198 43.2642 26.5766Z" fill="#333333"/>
</svg>
