<svg width="53" height="53" viewBox="0 0 53 53" fill="none" xmlns="http://www.w3.org/2000/svg">
<g clip-path="url(#clip0_409_703)">
<path d="M41.5107 27.6495C38.941 22.3404 34.69 18.0201 29.3803 15.3653L28.7546 15.0525C28.4554 14.9028 28.2664 14.5971 28.2664 14.2625V2.36719H24.7331V14.2623C24.7331 14.5968 24.544 14.9027 24.2448 15.0524L23.619 15.3652C18.3094 18.02 14.0584 22.3404 11.4887 27.6493C11.043 28.5703 11.4747 29.6767 12.4247 30.0567C13.2899 30.4028 14.2689 30.0144 14.6754 29.1759C16.9068 24.5734 20.5944 20.828 25.1992 18.5255L26.1047 18.0727C26.3534 17.9484 26.6461 17.9484 26.8948 18.0727L27.8003 18.5255C32.4051 20.828 36.0928 24.5733 38.3243 29.1759C38.7308 30.0144 39.7097 30.4029 40.5749 30.0567C41.5248 29.6767 41.9565 28.5704 41.5107 27.6495Z" fill="#FE646F"/>
<path d="M21.3692 11.0649L21.2383 10.1628C20.9116 7.91131 18.4629 6.51282 16.1856 7.27708C10.7111 9.11427 6.77581 13.6572 5.97253 19.0673L4.4849 29.097C4.44712 29.3517 4.29495 29.5734 4.07436 29.7061C2.40817 30.7091 1.21215 32.2886 0.762481 34.1198C-0.572871 39.5574 -0.147318 45.2459 1.98459 50.4544L2.08738 50.7057C2.84925 52.5672 5.08395 53.4837 7.05468 52.7431L15.646 49.5139C19.8217 47.9444 22.6284 44.2184 22.8155 39.996C23.2442 30.331 22.7602 20.6495 21.3692 11.0649Z" fill="#FD8087"/>
<path d="M52.2373 34.1198C51.7876 32.2889 50.5919 30.7096 48.9262 29.7065C48.7057 29.5737 48.5535 29.3522 48.5157 29.0975L47.0273 19.0673C46.2239 13.6572 42.2887 9.11437 36.8142 7.27708C34.537 6.51282 32.0883 7.91132 31.7615 10.1628L31.6306 11.0649C30.2396 20.6495 29.7557 30.331 30.1842 39.996C30.3715 44.2183 33.1782 47.9443 37.3538 49.5139L45.9451 52.7431C47.9157 53.4838 50.1504 52.5672 50.9124 50.7057L51.0153 50.4545C53.1471 45.246 53.5727 39.5573 52.2373 34.1198Z" fill="#FD8087"/>
<path d="M16.8179 37.9601C16.6992 37.9588 13.959 37.8974 12.9253 35.157C13.4321 31.627 14.5153 29.4716 14.5335 29.436C14.7359 29.044 14.5827 28.562 14.191 28.359C13.7989 28.1556 13.3162 28.3088 13.1129 28.7009C13.0106 28.8981 11.1865 32.4997 11.0669 38.1196C6.39503 39.3454 5.46836 43.7097 5.42975 43.9031C5.34331 44.3351 5.6228 44.7539 6.05446 44.842C6.10819 44.853 6.16181 44.8582 6.2146 44.8582C6.58601 44.8582 6.91913 44.5973 6.9977 44.2198C7.02823 44.0734 7.73183 40.8914 11.0822 39.7852C11.1371 41.1677 11.2998 42.6504 11.613 44.2167C11.6891 44.5969 12.0231 44.8598 12.3964 44.8597C12.4484 44.8597 12.5012 44.8546 12.5541 44.8441C12.9873 44.7574 13.2681 44.3361 13.1815 43.903C12.7313 41.6522 12.6161 39.5761 12.6893 37.7404C14.0277 39.1318 15.8086 39.5596 16.8139 39.5596C17.254 39.5596 17.6094 39.2039 17.6116 38.7639C17.6138 38.3237 17.2579 37.9645 16.8179 37.9601Z" fill="#FD4755"/>
<path d="M9.80474 19.4217C9.97264 19.4728 10.8737 19.7309 11.9167 19.7309C12.5078 19.7309 13.1444 19.6474 13.7187 19.3968C14.5391 20.3255 15.6046 20.941 16.8796 21.2062C16.9346 21.2177 16.9894 21.2232 17.0433 21.2232C17.4142 21.2232 17.747 20.9636 17.8254 20.5861C17.9154 20.1536 17.6378 19.7301 17.2053 19.6402C15.9796 19.3852 15.1581 18.7256 14.6072 17.9513C14.5853 17.9133 14.5608 17.8764 14.5319 17.8415C14.5313 17.8407 14.5305 17.8401 14.5299 17.8393C13.4995 16.3002 13.4867 14.3731 13.4871 14.2451C13.49 13.8039 13.1352 13.4436 12.6939 13.44C12.2567 13.4354 11.8911 13.7914 11.8876 14.2332C11.8871 14.2932 11.8823 15.7172 12.4671 17.2703C12.5665 17.5344 12.6772 17.7865 12.7982 18.0267C11.9193 18.2595 10.7126 18.024 10.2686 17.8908C9.84697 17.7631 9.40051 18.0017 9.27205 18.4238C9.14369 18.8464 9.38208 19.2932 9.80474 19.4217Z" fill="#FD4755"/>
<path d="M17.3097 24.9895C16.9633 24.7155 16.4603 24.774 16.1862 25.1205C15.9122 25.4669 15.9708 25.9699 16.3173 26.244C18.7265 28.1501 18.6357 31.7296 18.6344 31.7711C18.6184 32.2117 18.9622 32.5823 19.4031 32.5992C19.4135 32.5996 19.4239 32.5998 19.4343 32.5998C19.8618 32.5998 20.2164 32.2615 20.233 31.8306C20.2398 31.6512 20.3662 27.4075 17.3097 24.9895Z" fill="#FD4755"/>
<path d="M13.0785 27.9634C13.2518 27.5575 13.0635 27.0887 12.6579 26.9148C12.2525 26.7413 11.7825 26.9289 11.6079 27.334C11.5915 27.3719 9.93949 31.1333 6.84334 31.9073C6.41479 32.0145 6.15424 32.4487 6.26138 32.8773C6.35216 33.2406 6.67834 33.4832 7.0366 33.4832C7.10078 33.4832 7.1661 33.4754 7.23121 33.4592C11.1057 32.4906 12.9997 28.1477 13.0785 27.9634Z" fill="#FD4755"/>
<path d="M41.9345 38.1196C41.815 32.4997 39.9908 28.8981 39.8886 28.7009C39.6852 28.3086 39.2024 28.1557 38.8104 28.359C38.4183 28.5623 38.2652 29.045 38.4685 29.4372C38.4868 29.4725 39.573 31.6174 40.0799 35.147C39.0505 37.8935 36.3099 37.9588 36.184 37.9602C35.7439 37.962 35.3877 38.3195 35.3877 38.7599C35.3877 39.2017 35.7458 39.5597 36.1875 39.5597C37.1935 39.5597 38.9767 39.1311 40.3156 37.7369C40.3876 39.5711 40.2709 41.6477 39.8199 43.9031C39.7333 44.3362 40.0142 44.7575 40.4473 44.8442C40.5002 44.8548 40.553 44.8598 40.605 44.8598C40.9785 44.8598 41.3124 44.597 41.3884 44.2168C41.7016 42.6505 41.8644 41.1678 41.9192 39.7852C45.2644 40.8897 45.9711 44.0632 46.0035 44.219C46.0804 44.598 46.4139 44.8598 46.7865 44.8598C46.8385 44.8598 46.8913 44.8548 46.9442 44.8442C47.3773 44.7575 47.6582 44.3362 47.5716 43.9031C47.533 43.7097 46.6064 39.3454 41.9345 38.1196Z" fill="#FD4755"/>
<path d="M35.9583 21.2232C36.0122 21.2232 36.0671 21.2177 36.122 21.2062C37.3969 20.9411 38.4624 20.3256 39.2829 19.3967C39.8572 19.6475 40.4937 19.7309 41.085 19.7309C42.1277 19.7309 43.029 19.4727 43.1969 19.4217C43.619 19.2934 43.8567 18.8478 43.7292 18.4255C43.6018 18.0031 43.156 17.7637 42.733 17.8908C42.2892 18.024 41.0824 18.2593 40.2033 18.0266C40.3243 17.7865 40.435 17.5344 40.5344 17.2702C41.1191 15.7172 41.1144 14.2931 41.114 14.2332C41.1103 13.7914 40.7495 13.4401 40.3076 13.4399C39.8659 13.4436 39.5108 13.8045 39.5143 14.2463C39.5148 14.2925 39.5092 18.8678 35.7963 19.6401C35.3638 19.7301 35.0861 20.1536 35.1761 20.586C35.2546 20.9636 35.5874 21.2232 35.9583 21.2232Z" fill="#FD4755"/>
<path d="M36.6835 26.2437C37.03 25.9696 37.0885 25.4666 36.8145 25.1203C36.5403 24.7738 36.0372 24.7152 35.6911 24.9892C32.6347 27.4073 32.7611 31.651 32.768 31.8304C32.7845 32.2612 33.1389 32.5987 33.5665 32.5987C33.5764 32.5987 33.5861 32.5985 33.596 32.5981C34.0367 32.5823 34.3813 32.2117 34.3665 31.7709C34.3652 31.7349 34.2723 28.1514 36.6835 26.2437Z" fill="#FD4755"/>
<path d="M46.158 31.9073C43.0619 31.1333 41.4098 27.3718 41.3934 27.3339C41.2196 26.9285 40.7506 26.7402 40.3443 26.9137C39.9381 27.0872 39.7494 27.557 39.9229 27.9633C40.0015 28.1478 41.8958 32.4906 45.7701 33.4593C45.8353 33.4755 45.9004 33.4833 45.9647 33.4833C46.323 33.4833 46.6491 33.2407 46.74 32.8773C46.847 32.4488 46.5866 32.0145 46.158 31.9073Z" fill="#FD4755"/>
<path d="M26.1342 3.5333H24.7339C24.246 3.5333 23.8506 3.13787 23.8506 2.65V0.883298C23.8505 0.395429 24.2459 0 24.7338 0H26.1341C26.622 0 27.0174 0.395429 27.0174 0.883298V2.65C27.0175 3.13787 26.6221 3.5333 26.1342 3.5333Z" fill="#E3F9FF"/>
<path d="M26.1342 11.4832H24.7339C24.246 11.4832 23.8506 11.0878 23.8506 10.5999V8.83325C23.8506 8.34538 24.246 7.94995 24.7339 7.94995H26.1342C26.6221 7.94995 27.0175 8.34538 27.0175 8.83325V10.5999C27.0175 11.0878 26.6221 11.4832 26.1342 11.4832Z" fill="#E3F9FF"/>
<path d="M22.4147 20.1693C22.3031 18.8549 22.174 17.5416 22.0286 16.2297C17.4603 18.9126 13.7963 22.8819 11.4887 27.6493C11.043 28.5703 11.4747 29.6766 12.4247 30.0566C13.2899 30.4027 14.2689 30.0143 14.6754 29.1758C16.4365 25.5436 19.1049 22.446 22.4147 20.1693Z" fill="#FD4755"/>
<path d="M30.9711 16.2297C30.8257 17.5416 30.6966 18.8549 30.585 20.1693C33.8949 22.446 36.5633 25.5436 38.3242 29.1757C38.7307 30.0142 39.7097 30.4027 40.5748 30.0565C41.5249 29.6765 41.9566 28.5703 41.5108 27.6492C39.2035 22.8819 35.5394 18.9126 30.9711 16.2297Z" fill="#FD4755"/>
<path d="M52.2378 34.12C51.7881 32.2891 50.5924 30.7098 48.9266 29.7067C48.7061 29.5739 48.554 29.3524 48.5162 29.0977L47.0277 19.0675C46.4158 14.947 43.986 11.3312 40.4443 9.02905C42.6414 11.4349 44.1172 14.5258 44.575 17.9288L46.2287 30.4165C46.2665 30.6975 46.4186 30.9422 46.6391 31.0887C48.3049 32.1959 49.5006 33.9392 49.9503 35.9603C51.2856 41.9624 50.6949 46.8259 48.563 52.5752L48.4631 52.8448C49.5468 52.5355 50.4742 51.778 50.9129 50.7061L51.0158 50.4548C53.1476 45.2461 53.5731 39.5574 52.2378 34.12Z" fill="#FE646F"/>
<path d="M28.2671 0H25.8145C26.3023 0 26.6978 0.395429 26.6978 0.883298V2.65C26.6978 3.13787 26.3023 3.5333 25.8145 3.5333H28.2671C28.755 3.5333 29.1504 3.13787 29.1504 2.65V0.883298C29.1504 0.395429 28.7549 0 28.2671 0Z" fill="#CDE3EA"/>
<path d="M28.2671 7.94995H25.8145C26.3023 7.94995 26.6978 8.34538 26.6978 8.83325V10.5999C26.6978 11.0878 26.3023 11.4832 25.8145 11.4832H28.2671C28.755 11.4832 29.1504 11.0878 29.1504 10.5999V8.83325C29.1504 8.34538 28.7549 7.94995 28.2671 7.94995Z" fill="#CDE3EA"/>
</g>
<defs>
<clipPath id="clip0_409_703">
<rect width="53" height="53" fill="white"/>
</clipPath>
</defs>
</svg>
