<svg width="55" height="55" viewBox="0 0 55 55" fill="none" xmlns="http://www.w3.org/2000/svg">
<path d="M14.293 31.948C18.5511 38.6856 32.6573 31.6657 32.6573 31.6657L31.6107 30.1658C31.6107 30.1658 28.4633 31.7381 23.5399 32.2671C18.6165 32.7961 16.7824 30.8184 16.7824 30.8184L14.293 31.948Z" fill="url(#paint0_linear_409_773)"/>
<path d="M6.69597 29.8444C13.1708 34.6542 22.5657 25.6556 22.8362 24.0942C23.1065 22.5328 24.1731 24.162 24.1053 25.5377C24.0377 26.9135 20.7371 31.3893 14.1727 33.6475C7.60831 35.9056 5.49983 32.635 4.97007 31.8911C4.4402 31.147 4.37189 28.118 6.69597 29.8444Z" fill="url(#paint1_linear_409_773)"/>
<path d="M14.1772 23.5841C15.2708 31.4791 31.017 30.9155 31.017 30.9155L30.6838 29.1171C30.6838 29.1171 27.1679 29.2483 22.466 27.6955C17.764 26.1427 16.911 23.584 16.911 23.584H14.1772V23.5841Z" fill="url(#paint2_linear_409_773)"/>
<path d="M8.12843 18.5292C12.0372 25.5845 24.311 21.2724 25.2023 19.9623C26.0937 18.6523 26.3917 20.5766 25.7616 21.8013C25.1315 23.026 20.2764 25.738 13.3654 25.0818C6.45456 24.4258 5.88597 20.5761 5.71096 19.6797C5.53617 18.7833 6.72549 15.9967 8.12843 18.5292Z" fill="url(#paint3_linear_409_773)"/>
<path d="M18.7734 18.0614C11.3115 14.5598 13.0066 2.55678 29.7481 2.75236C46.4895 2.94794 50.8712 18.796 50.2838 29.7422C49.3842 46.2098 35.8893 56.0669 26.4232 49.4565C19.3196 44.4957 25.7974 38.9735 25.7974 31.5416C25.7975 24.1094 20.4722 18.8584 18.7734 18.0614Z" fill="url(#paint4_linear_409_773)"/>
<path d="M18.392 18.7767C10.9302 15.2752 12.6253 3.27211 29.3667 3.46769C46.1082 3.66316 50.4898 19.5113 49.9024 30.4575C49.0028 46.9252 35.5079 56.7823 26.0419 50.1718C18.9383 45.211 25.4161 39.6888 25.4161 32.2568C25.4162 24.8247 20.0908 19.5738 18.392 18.7767Z" fill="url(#paint5_linear_409_773)"/>
<path opacity="0.5" d="M31.211 44.2745C24.1074 39.3137 30.5851 33.7915 30.5851 26.3596C30.5851 18.9275 25.2599 13.6767 23.561 12.8795C20.3599 11.3773 18.8507 8.31067 19.4851 5.31372C12.3551 8.78301 12.811 16.1575 18.3922 18.7766C20.0911 19.5738 25.4163 24.8247 25.4163 32.2567C25.4163 39.6887 18.9386 45.2109 26.0421 50.1716C32.6621 54.7947 41.2474 51.3571 46.1222 43.2435C41.4952 46.7869 35.8669 47.526 31.211 44.2745Z" fill="url(#paint6_linear_409_773)"/>
<g opacity="0.8">
<path d="M22.7544 43.8812C23.3268 41.2714 24.7158 38.4174 25.1025 35.1975C24.4543 38.4192 23.0052 41.2692 22.7544 43.8812Z" fill="url(#paint7_linear_409_773)"/>
<path d="M29.367 3.4677C19.0321 3.34692 14.4374 7.87485 14.1851 12.1819C15.2115 8.31242 19.8622 4.65999 29.1576 4.76856C45.8991 4.96414 50.2807 20.8122 49.6933 31.7584C49.6461 32.6209 49.5569 33.4607 49.443 34.2855C49.6691 33.0537 49.8307 31.7796 49.9029 30.4575C50.4901 19.5113 46.1085 3.66317 29.367 3.4677Z" fill="url(#paint8_linear_409_773)"/>
</g>
<path d="M24.939 13.6968C22.3959 15.4467 17.8581 13.0271 18.4661 10.6086C19.0739 8.18999 22.7181 6.33396 24.3588 6.65758C25.9994 6.9812 26.6485 12.5204 24.939 13.6968Z" fill="url(#paint9_linear_409_773)"/>
<path opacity="0.4" d="M23.9035 8.14423C25.0398 8.3683 25.6997 11.0934 25.4306 13.1391C26.487 11.3276 25.8131 6.94446 24.3588 6.65758C22.7181 6.33396 19.074 8.18988 18.4661 10.6086C18.4207 10.7892 18.4071 10.9697 18.4163 11.1487C19.573 9.21497 22.4852 7.8645 23.9035 8.14423Z" fill="url(#paint10_linear_409_773)"/>
<path d="M30.9607 11.7373C27.8775 11.5853 25.7384 6.90879 27.6892 5.35515C29.6398 3.80129 33.6627 4.53708 34.7705 5.78976C35.8782 7.04244 33.0333 11.8395 30.9607 11.7373Z" fill="url(#paint11_linear_409_773)"/>
<path opacity="0.4" d="M27.3421 6.2874C29.2928 4.73365 33.3157 5.46944 34.4234 6.72201C34.728 7.06642 34.7264 7.6822 34.5316 8.38697C35.027 7.3159 35.2044 6.28058 34.7704 5.78976C33.6626 4.53708 29.6397 3.80129 27.6891 5.35515C27.2777 5.68273 27.0576 6.15331 26.9805 6.68692C27.0816 6.54007 27.1971 6.4029 27.3421 6.2874Z" fill="url(#paint12_linear_409_773)"/>
<path d="M35.7346 15.1121C33.8665 12.6547 36.0688 8.0075 38.5135 8.50041C40.9582 8.99321 42.9844 12.5457 42.7385 14.1998C42.4928 15.8538 36.9905 16.7642 35.7346 15.1121Z" fill="url(#paint13_linear_409_773)"/>
<path opacity="0.4" d="M38.5134 9.60612C40.5685 10.0205 42.3223 12.5939 42.6847 14.3872C42.7092 14.3257 42.729 14.2635 42.7385 14.1998C42.9842 12.5457 40.958 8.99331 38.5135 8.5004C36.5653 8.1077 34.7734 10.9786 35.0705 13.4049C35.3128 11.299 36.8566 9.27227 38.5134 9.60612Z" fill="url(#paint14_linear_409_773)"/>
<path d="M39.7547 21.5234C39.4212 18.4546 43.7045 15.6085 45.5449 17.2914C47.3853 18.9743 47.2896 23.0627 46.2263 24.3533C45.1628 25.6439 39.9789 23.5866 39.7547 21.5234Z" fill="url(#paint15_linear_409_773)"/>
<path opacity="0.4" d="M45.2199 18.5161C46.4957 19.6827 46.8399 22.0041 46.5774 23.7493C47.2834 22.0795 47.1557 18.7643 45.5451 17.2916C43.8214 15.7155 39.9559 18.1119 39.7461 20.9433C40.7432 18.7119 43.7535 17.1752 45.2199 18.5161Z" fill="url(#paint16_linear_409_773)"/>
<path d="M40.5454 30.3846C41.1806 27.3636 46.1355 25.9872 47.363 28.1582C48.5903 30.329 47.2306 34.1861 45.8192 35.0828C44.4078 35.9796 40.1183 32.4154 40.5454 30.3846Z" fill="url(#paint17_linear_409_773)"/>
<path opacity="0.4" d="M46.5932 29.2638C47.4605 30.798 47.034 33.17 46.2122 34.7485C47.4622 33.4694 48.475 30.1253 47.3628 28.1582C46.2264 26.1481 41.9006 27.1824 40.7607 29.7443C42.4396 28.0382 45.639 27.5762 46.5932 29.2638Z" fill="url(#paint18_linear_409_773)"/>
<path d="M38.2105 37.3456C40.3062 35.0792 45.2651 36.4411 45.2043 38.9341C45.1434 41.4271 41.9968 44.0394 40.3252 44.0847C38.6535 44.1301 36.8016 38.8693 38.2105 37.3456Z" fill="url(#paint19_linear_409_773)"/>
<path opacity="0.4" d="M37.9176 38.1262C40.0133 35.8596 44.9722 37.2216 44.9114 39.7147C44.905 39.9795 44.8572 40.2455 44.7864 40.5099C45.0335 39.9958 45.1911 39.463 45.2041 38.9341C45.2649 36.4411 40.306 35.0792 38.2103 37.3456C37.9869 37.5872 37.8461 37.9232 37.7729 38.3165C37.8172 38.2487 37.8644 38.1839 37.9176 38.1262Z" fill="url(#paint20_linear_409_773)"/>
<path d="M31.0536 38.6264C34.1249 38.3169 36.9376 42.6221 35.2405 44.4493C33.5434 46.2767 29.4558 46.1492 28.1735 45.0757C26.8914 44.0025 28.9888 38.8347 31.0536 38.6264Z" fill="url(#paint21_linear_409_773)"/>
<path opacity="0.3" d="M30.6202 39.4754C33.2745 39.2078 35.729 42.3844 35.2532 44.4321C36.9192 42.5958 34.1162 38.3178 31.0538 38.6265C30.0428 38.7284 29.0265 40.0205 28.4004 41.4377C29.0125 40.3896 29.8175 39.5564 30.6202 39.4754Z" fill="url(#paint22_linear_409_773)"/>
<path opacity="0.5" d="M25.8461 5.59545C25.8461 5.92171 25.5816 6.18615 25.2554 6.18615C24.929 6.18615 24.6646 5.9216 24.6646 5.59545C24.6646 5.26908 24.929 5.00464 25.2554 5.00464C25.5815 5.00464 25.8461 5.26919 25.8461 5.59545Z" fill="url(#paint23_linear_409_773)"/>
<path opacity="0.5" d="M36.9344 7.21166C36.9344 7.53792 36.67 7.80236 36.3436 7.80236C36.0174 7.80236 35.7529 7.53792 35.7529 7.21166C35.7529 6.88529 36.0174 6.62085 36.3436 6.62085C36.6699 6.62085 36.9344 6.88529 36.9344 7.21166Z" fill="url(#paint24_linear_409_773)"/>
<path opacity="0.5" d="M37.8301 21.997C37.8301 22.3233 37.5656 22.5878 37.2392 22.5878C36.9129 22.5878 36.6484 22.3232 36.6484 21.997C36.6484 21.6707 36.9129 21.4062 37.2392 21.4062C37.5656 21.4062 37.8301 21.6708 37.8301 21.997Z" fill="url(#paint25_linear_409_773)"/>
<path opacity="0.5" d="M36.3436 47.2983C36.3436 47.6247 36.0792 47.8891 35.7529 47.8891C35.4265 47.8891 35.1621 47.6246 35.1621 47.2983C35.1621 46.972 35.4265 46.7075 35.7529 46.7075C36.0791 46.7075 36.3436 46.972 36.3436 47.2983Z" fill="url(#paint26_linear_409_773)"/>
<path opacity="0.5" d="M38.8929 33.9775C38.8929 34.3038 38.6285 34.5682 38.3021 34.5682C37.9759 34.5682 37.7114 34.3038 37.7114 33.9775C37.7114 33.6512 37.9759 33.3867 38.3021 33.3867C38.6284 33.3867 38.8929 33.6513 38.8929 33.9775Z" fill="url(#paint27_linear_409_773)"/>
<path opacity="0.5" d="M26.5337 41.0727C26.86 41.0727 27.1245 40.8082 27.1245 40.4819C27.1245 40.1556 26.86 39.8911 26.5337 39.8911C26.2074 39.8911 25.9429 40.1556 25.9429 40.4819C25.9429 40.8082 26.2074 41.0727 26.5337 41.0727Z" fill="url(#paint28_linear_409_773)"/>
<path opacity="0.5" d="M32.4419 14.2939C32.4419 14.6202 32.1774 14.8846 31.8511 14.8846C31.5248 14.8846 31.2603 14.6202 31.2603 14.2939C31.2603 13.9676 31.5248 13.7031 31.8511 13.7031C32.1774 13.7031 32.4419 13.9676 32.4419 14.2939Z" fill="url(#paint29_linear_409_773)"/>
<path opacity="0.4" d="M29.7481 2.75236C13.0066 2.55678 11.3116 14.5599 18.7733 18.0614C20.472 18.8586 25.7974 24.1095 25.7974 31.5415C25.7974 38.9735 19.3196 44.4957 26.4232 49.4564C35.8892 56.067 49.384 46.2099 50.2838 29.7422C50.8712 18.796 46.4895 2.94783 29.7481 2.75236ZM48.9704 28.7535C48.4817 44.3274 36.468 53.8943 27.7743 47.8285C21.2501 43.2764 27.0011 37.9372 26.8544 30.9163C26.7076 23.8955 21.7864 19.0356 20.2339 18.3146C13.4144 15.1478 14.7109 3.77657 29.86 3.6449C45.0091 3.51312 49.2858 18.4017 48.9704 28.7535Z" fill="#FFD7D6"/>
<path opacity="0.6" d="M36.1213 24.3841C35.5338 24.3047 34.7443 24.1985 34.203 24.0885C34.5972 23.5827 35.2443 22.8594 35.7219 22.3254C36.9723 20.9288 37.7503 20.0341 38.0129 19.3927C38.1855 18.9708 38.1707 18.5304 37.9716 18.1535C37.5194 17.2977 36.2814 17.0335 35.287 16.8218C35.0371 16.7688 34.8012 16.7184 34.6766 16.6767C34.567 16.6403 34.4504 16.6219 34.3303 16.6219C33.5771 16.6219 32.6685 17.3444 30.7755 18.9934C30.6341 19.1169 30.4787 19.2522 30.3229 19.3863C30.3838 18.4974 30.4869 17.3832 30.5555 16.6403C30.6836 15.2559 30.7268 14.7509 30.7114 14.5192C30.6521 13.635 29.6455 12.8594 28.5575 12.8594C28.0264 12.8594 27.5086 13.043 27.0606 13.3898C26.2138 14.0453 25.9493 15.5554 25.7511 17.3468C25.2981 16.8619 24.962 16.5229 24.6561 16.3284C24.3814 16.1539 24.0338 16.0651 23.6233 16.0651C22.631 16.0651 21.1668 16.6276 21.0196 17.8792C20.8941 18.9471 21.0368 19.9472 22.149 22.172C22.3073 22.4886 22.448 22.7835 22.5608 23.0595C24.0962 25.3979 25.4164 28.5569 25.4164 32.2571C25.4164 32.756 25.3854 33.2457 25.3331 33.7277C25.589 33.6181 25.8251 33.5345 26.0204 33.4792C26.0057 33.8142 25.9771 34.2168 25.955 34.5312C25.8135 36.5363 25.7547 37.3659 26.4936 37.702C26.6812 37.7875 27.252 38.0471 27.8881 38.0471C28.3612 38.0471 29.9083 37.8609 29.9545 35.4727C29.9775 34.2719 30.224 34.0434 30.4279 33.9891C30.612 34.1334 30.9283 34.5308 31.1262 34.7794C31.6636 35.4536 32.1272 36.0363 32.8014 36.0363L32.9171 36.0325L32.9911 36.0191C33.7422 35.8825 36.4027 33.9012 36.1795 32.5629C36.1026 32.1009 35.7321 31.7015 34.9684 30.9119C34.7285 30.6642 34.363 30.2863 34.093 29.9654C34.1302 29.965 34.1695 29.9646 34.2104 29.9646C34.6393 29.9646 35.1324 29.999 35.6549 30.0354C36.1902 30.0725 36.7437 30.111 37.2446 30.111C38.0917 30.111 38.6475 29.9981 39.0473 29.7443C39.816 29.2561 40.7061 28.3664 40.8995 27.3327C41.0104 26.7419 40.8819 26.1764 40.5287 25.6969C39.9688 24.9368 38.4891 24.703 36.1213 24.3841Z" fill="url(#paint30_linear_409_773)"/>
<path d="M15.2286 49.2162C13.4745 49.2162 12.2348 48.8621 11.5451 48.163C11.153 47.7661 10.9494 47.2627 10.9567 46.7074L10.9592 46.5386C11.0789 37.3395 11.215 26.9134 18.3061 25.7603C21.4588 25.2476 22.436 24.5232 22.701 24.0058C22.9839 23.4522 22.631 22.657 22.14 21.6753C21.0279 19.4506 20.8852 18.4505 21.0107 17.3826C21.1579 16.1311 22.622 15.5685 23.6143 15.5685C24.0248 15.5685 24.3723 15.6573 24.6471 15.8318C24.9529 16.0265 25.2891 16.3654 25.7421 16.8502C25.9404 15.0588 26.2048 13.5487 27.0517 12.8932C27.4998 12.5464 28.0174 12.3628 28.5486 12.3628C29.6366 12.3628 30.6432 13.1383 30.7025 14.0226C30.718 14.2544 30.6747 14.7594 30.5466 16.1437C30.478 16.8867 30.3749 18.0008 30.314 18.8898C30.4698 18.7556 30.6252 18.6203 30.7666 18.4968C32.6596 16.8478 33.5682 16.1253 34.3213 16.1253C34.4415 16.1253 34.558 16.1437 34.6676 16.1801C34.7923 16.2218 35.0283 16.2721 35.2781 16.3252C36.2725 16.537 37.5104 16.8011 37.9627 17.6569C38.1618 18.0338 38.1766 18.4742 38.004 18.8961C37.7414 19.5375 36.9634 20.4323 35.713 21.8288C35.2354 22.3628 34.5883 23.0861 34.1941 23.5918C34.7354 23.7018 35.5249 23.8081 36.1124 23.8875C38.4802 24.2064 39.9599 24.4402 40.5197 25.1999C40.8729 25.6795 41.0014 26.245 40.8905 26.8358C40.6971 27.8694 39.807 28.7592 39.0383 29.2473C38.6385 29.5012 38.0829 29.6141 37.2356 29.6141C36.7347 29.6141 36.1812 29.5756 35.6459 29.5384C35.1234 29.5021 34.6302 29.4677 34.2014 29.4677C34.1605 29.4677 34.1212 29.4681 34.084 29.4684C34.3539 29.7894 34.7195 30.1673 34.9594 30.415C35.7231 31.2046 36.0936 31.6041 36.1704 32.066C36.3937 33.4042 33.7332 35.3856 32.9822 35.5221L32.9081 35.5356L32.7924 35.5393C32.1181 35.5393 31.6545 34.9567 31.1172 34.2824C30.9193 34.0339 30.6029 33.6365 30.4189 33.4921C30.2149 33.5465 29.9684 33.7751 29.9455 34.9758C29.8993 37.364 28.3521 37.55 27.8791 37.55C27.2429 37.55 26.6721 37.2904 26.4845 37.205C25.7456 36.8689 25.8045 36.0393 25.946 34.0342C25.968 33.7197 25.9966 33.3171 26.0115 32.9822C24.7477 33.34 21.8973 34.7322 21.5596 38.4721C21.3438 40.8636 21.2784 42.6429 21.2306 43.9423C21.1656 45.7214 21.1296 46.7014 20.7992 47.4806C20.1978 48.8976 16.4829 49.2162 15.2286 49.2162Z" fill="url(#paint31_linear_409_773)"/>
<path d="M11.7941 46.7184C11.9124 37.6569 12.0033 27.6335 18.4406 26.5869C24.8778 25.5402 23.9356 23.3945 22.889 21.3011C21.8423 19.2077 21.7376 18.3703 21.8423 17.4807C21.9471 16.5909 23.6217 16.1722 24.1973 16.5386C24.7731 16.905 25.9768 18.4749 26.2907 18.5273C26.6048 18.5796 26.4827 14.3928 27.5642 13.5554C28.6458 12.7181 29.8321 13.5554 29.8671 14.0788C29.9019 14.6022 29.2391 20.1323 29.4833 20.4811C29.7275 20.83 33.6177 16.7131 34.4027 16.9747C35.1877 17.2365 37.6997 17.4283 37.2287 18.5796C36.7578 19.7309 33.0942 23.1502 33.042 23.9352C32.9897 24.7202 39.1128 24.7028 39.8455 25.6972C40.5782 26.6916 39.5316 27.9426 38.5894 28.5408C37.6475 29.1389 34.455 28.3687 33.1989 28.7339C31.9429 29.0991 35.2399 31.5763 35.3446 32.2043C35.4493 32.8323 33.4083 34.5942 32.8326 34.6988C32.2569 34.8036 31.2058 32.5706 30.4601 32.6403C29.7144 32.7102 29.1429 33.1462 29.1082 34.9605C29.0605 37.4383 27.2154 36.6178 26.8316 36.4433C26.4478 36.2689 27.0409 32.5357 26.7967 32.1169C26.5525 31.6983 21.2144 32.9892 20.726 38.397C20.2374 43.805 20.5166 46.0031 20.0281 47.1545C19.5396 48.3058 11.7591 49.3875 11.7941 46.7184Z" fill="url(#paint32_linear_409_773)"/>
<g opacity="0.4">
<path d="M17.4867 28.3645C21.7023 27.679 22.7528 26.5221 22.6821 25.2173C21.9065 25.7671 20.5844 26.2381 18.4406 26.5867C16.0694 26.9722 14.5613 28.5783 13.5938 30.9032C14.5267 29.5524 15.7825 28.6416 17.4867 28.3645Z" fill="url(#paint33_linear_409_773)"/>
<path d="M23.2433 18.3163C23.819 18.6826 25.0228 20.2527 25.3367 20.305C25.4992 20.3321 25.5459 19.2245 25.7019 18.0335C25.2134 17.5255 24.5724 16.7773 24.1972 16.5385C23.6216 16.1722 21.9468 16.5908 21.8422 17.4806C21.8097 17.7569 21.8025 18.0325 21.8324 18.338C22.3502 18.1491 22.9445 18.1261 23.2433 18.3163Z" fill="url(#paint34_linear_409_773)"/>
<path d="M19.7719 40.1749C19.42 44.0705 19.4655 46.2956 19.3364 47.6686C19.7031 47.5078 19.9528 47.332 20.028 47.1545C20.5165 46.0032 20.2373 43.805 20.7258 38.3971C20.7889 37.6996 20.9336 37.0717 21.1367 36.5061C20.4423 37.4333 19.9107 38.6372 19.7719 40.1749Z" fill="url(#paint35_linear_409_773)"/>
<path d="M28.9133 15.8565C28.9482 16.38 28.2853 21.91 28.5295 22.2588C28.7737 22.6077 32.664 18.4907 33.4489 18.7525C34.1149 18.9745 36.0167 19.1485 36.2933 19.8981C36.7458 19.3597 37.103 18.8874 37.229 18.5796C37.7 17.4282 35.1879 17.2362 34.403 16.9747C33.618 16.713 29.7278 20.83 29.4836 20.4811C29.2394 20.1322 29.9022 14.6023 29.8673 14.0788C29.8324 13.5554 28.6461 12.7181 27.5645 13.5554C27.2112 13.829 26.9875 14.4617 26.834 15.1855C27.8493 14.6108 28.8808 15.3691 28.9133 15.8565Z" fill="url(#paint36_linear_409_773)"/>
<path d="M39.8456 25.6972C39.1807 24.7948 34.0761 24.7256 33.1774 24.1338C32.5684 24.8413 32.1065 25.4392 32.0882 25.7132C32.036 26.4981 38.159 26.4807 38.8917 27.4751C39.0459 27.6844 39.1176 27.9052 39.1317 28.1289C39.8685 27.47 40.4373 26.5001 39.8456 25.6972Z" fill="url(#paint37_linear_409_773)"/>
<path d="M28.1562 36.6813C28.6472 36.5757 29.0851 36.1502 29.108 34.9605C29.1112 34.7925 29.1205 34.6401 29.1327 34.4949C28.5845 34.6813 28.1942 35.2291 28.1562 36.6813Z" fill="url(#paint38_linear_409_773)"/>
<path d="M32.2449 30.5116C31.1196 30.8388 33.6428 32.8575 34.2566 33.7265C34.8622 33.1755 35.3996 32.5339 35.3446 32.2042C35.2936 31.8976 34.4828 31.1506 33.8112 30.4235C33.1888 30.395 32.6269 30.4006 32.2449 30.5116Z" fill="url(#paint39_linear_409_773)"/>
</g>
<defs>
<linearGradient id="paint0_linear_409_773" x1="14.293" y1="32.5183" x2="32.6573" y2="32.5183" gradientUnits="userSpaceOnUse">
<stop stop-color="#43BAE8"/>
<stop offset="0.3146" stop-color="#298CB3"/>
<stop offset="1" stop-color="#43BAE8"/>
</linearGradient>
<linearGradient id="paint1_linear_409_773" x1="4.66559" y1="28.9435" x2="24.1084" y2="28.9435" gradientUnits="userSpaceOnUse">
<stop stop-color="#43BAE8"/>
<stop offset="0.3146" stop-color="#298CB3"/>
<stop offset="1" stop-color="#43BAE8"/>
</linearGradient>
<linearGradient id="paint2_linear_409_773" x1="18.6621" y1="31.8657" x2="24.3674" y2="25.1733" gradientUnits="userSpaceOnUse">
<stop stop-color="#E82C45"/>
<stop offset="0.3146" stop-color="#B3192D"/>
<stop offset="1" stop-color="#E82C45"/>
</linearGradient>
<linearGradient id="paint3_linear_409_773" x1="8.65027" y1="28.5081" x2="19.0165" y2="16.3486" gradientUnits="userSpaceOnUse">
<stop stop-color="#E82C45"/>
<stop offset="0.3146" stop-color="#B3192D"/>
<stop offset="1" stop-color="#E82C45"/>
</linearGradient>
<linearGradient id="paint4_linear_409_773" x1="42.5196" y1="2.81187" x2="4.0147" y2="78.7811" gradientUnits="userSpaceOnUse">
<stop stop-color="#E67E7C"/>
<stop offset="1" stop-color="#FF4B45"/>
</linearGradient>
<linearGradient id="paint5_linear_409_773" x1="42.1383" y1="3.52721" x2="3.63335" y2="79.4965" gradientUnits="userSpaceOnUse">
<stop stop-color="#E67E7C"/>
<stop offset="1" stop-color="#FF4B45"/>
</linearGradient>
<linearGradient id="paint6_linear_409_773" x1="38.0289" y1="11.5596" x2="6.61363" y2="73.541" gradientUnits="userSpaceOnUse">
<stop stop-color="#E36764"/>
<stop offset="1" stop-color="#94120D"/>
</linearGradient>
<linearGradient id="paint7_linear_409_773" x1="26.2206" y1="35.0171" x2="18.7766" y2="49.7039" gradientUnits="userSpaceOnUse">
<stop stop-color="#E36764"/>
<stop offset="1" stop-color="#94120D"/>
</linearGradient>
<linearGradient id="paint8_linear_409_773" x1="40.7732" y1="4.94489" x2="23.289" y2="39.4409" gradientUnits="userSpaceOnUse">
<stop stop-color="#E36764"/>
<stop offset="1" stop-color="#94120D"/>
</linearGradient>
<linearGradient id="paint9_linear_409_773" x1="23.901" y1="17.8877" x2="21.452" y2="7.37948" gradientUnits="userSpaceOnUse">
<stop stop-color="#E36764"/>
<stop offset="1" stop-color="#94120D"/>
</linearGradient>
<linearGradient id="paint10_linear_409_773" x1="23.3911" y1="16.8792" x2="21.5624" y2="7.26324" gradientUnits="userSpaceOnUse">
<stop stop-color="#E36764"/>
<stop offset="1" stop-color="#94120D"/>
</linearGradient>
<linearGradient id="paint11_linear_409_773" x1="27.5848" y1="14.4506" x2="32.0189" y2="4.61037" gradientUnits="userSpaceOnUse">
<stop stop-color="#E36764"/>
<stop offset="1" stop-color="#94120D"/>
</linearGradient>
<linearGradient id="paint12_linear_409_773" x1="31.886" y1="11.2167" x2="30.6167" y2="4.54269" gradientUnits="userSpaceOnUse">
<stop stop-color="#E36764"/>
<stop offset="1" stop-color="#94120D"/>
</linearGradient>
<linearGradient id="paint13_linear_409_773" x1="31.4939" y1="14.273" x2="41.8761" y2="11.3318" gradientUnits="userSpaceOnUse">
<stop stop-color="#E36764"/>
<stop offset="1" stop-color="#94120D"/>
</linearGradient>
<linearGradient id="paint14_linear_409_773" x1="39.8164" y1="18.2658" x2="37.9981" y2="8.70489" gradientUnits="userSpaceOnUse">
<stop stop-color="#E36764"/>
<stop offset="1" stop-color="#94120D"/>
</linearGradient>
<linearGradient id="paint15_linear_409_773" x1="36.5527" y1="18.6317" x2="46.9673" y2="21.4627" gradientUnits="userSpaceOnUse">
<stop stop-color="#E36764"/>
<stop offset="1" stop-color="#94120D"/>
</linearGradient>
<linearGradient id="paint16_linear_409_773" x1="44.6911" y1="27.7599" x2="42.6988" y2="17.2841" gradientUnits="userSpaceOnUse">
<stop stop-color="#E36764"/>
<stop offset="1" stop-color="#94120D"/>
</linearGradient>
<linearGradient id="paint17_linear_409_773" x1="38.3749" y1="26.6342" x2="47.4005" y2="32.5631" gradientUnits="userSpaceOnUse">
<stop stop-color="#E36764"/>
<stop offset="1" stop-color="#94120D"/>
</linearGradient>
<linearGradient id="paint18_linear_409_773" x1="45.9998" y1="38.6635" x2="43.8861" y2="27.5488" gradientUnits="userSpaceOnUse">
<stop stop-color="#E36764"/>
<stop offset="1" stop-color="#94120D"/>
</linearGradient>
<linearGradient id="paint19_linear_409_773" x1="38.2777" y1="33.0288" x2="42.9821" y2="42.7461" gradientUnits="userSpaceOnUse">
<stop stop-color="#E36764"/>
<stop offset="1" stop-color="#94120D"/>
</linearGradient>
<linearGradient id="paint20_linear_409_773" x1="42.4272" y1="43.4497" x2="41.0681" y2="36.3039" gradientUnits="userSpaceOnUse">
<stop stop-color="#E36764"/>
<stop offset="1" stop-color="#94120D"/>
</linearGradient>
<linearGradient id="paint21_linear_409_773" x1="33.9956" y1="35.4622" x2="31.0822" y2="45.8484" gradientUnits="userSpaceOnUse">
<stop stop-color="#E36764"/>
<stop offset="1" stop-color="#94120D"/>
</linearGradient>
<linearGradient id="paint22_linear_409_773" x1="33.2071" y1="48.0521" x2="31.4444" y2="38.7842" gradientUnits="userSpaceOnUse">
<stop stop-color="#E36764"/>
<stop offset="1" stop-color="#94120D"/>
</linearGradient>
<linearGradient id="paint23_linear_409_773" x1="25.4736" y1="6.74341" x2="25.1527" y2="5.05667" gradientUnits="userSpaceOnUse">
<stop stop-color="#E36764"/>
<stop offset="1" stop-color="#94120D"/>
</linearGradient>
<linearGradient id="paint24_linear_409_773" x1="36.562" y1="8.35962" x2="36.2412" y2="6.67277" gradientUnits="userSpaceOnUse">
<stop stop-color="#E36764"/>
<stop offset="1" stop-color="#94120D"/>
</linearGradient>
<linearGradient id="paint25_linear_409_773" x1="37.4576" y1="23.145" x2="37.1368" y2="21.4582" gradientUnits="userSpaceOnUse">
<stop stop-color="#E36764"/>
<stop offset="1" stop-color="#94120D"/>
</linearGradient>
<linearGradient id="paint26_linear_409_773" x1="35.9712" y1="48.4464" x2="35.6503" y2="46.7594" gradientUnits="userSpaceOnUse">
<stop stop-color="#E36764"/>
<stop offset="1" stop-color="#94120D"/>
</linearGradient>
<linearGradient id="paint27_linear_409_773" x1="38.5205" y1="35.1255" x2="38.1996" y2="33.4387" gradientUnits="userSpaceOnUse">
<stop stop-color="#E36764"/>
<stop offset="1" stop-color="#94120D"/>
</linearGradient>
<linearGradient id="paint28_linear_409_773" x1="26.752" y1="41.63" x2="26.4313" y2="39.943" gradientUnits="userSpaceOnUse">
<stop stop-color="#E36764"/>
<stop offset="1" stop-color="#94120D"/>
</linearGradient>
<linearGradient id="paint29_linear_409_773" x1="32.0694" y1="15.4418" x2="31.7487" y2="13.755" gradientUnits="userSpaceOnUse">
<stop stop-color="#E36764"/>
<stop offset="1" stop-color="#94120D"/>
</linearGradient>
<linearGradient id="paint30_linear_409_773" x1="22.2114" y1="37.0169" x2="34.5689" y2="16.6868" gradientUnits="userSpaceOnUse">
<stop stop-color="#E36764"/>
<stop offset="1" stop-color="#94120D"/>
</linearGradient>
<linearGradient id="paint31_linear_409_773" x1="12.5844" y1="52.2218" x2="34.2161" y2="16.634" gradientUnits="userSpaceOnUse">
<stop stop-color="#FFA940"/>
<stop offset="1" stop-color="#FFD096"/>
</linearGradient>
<linearGradient id="paint32_linear_409_773" x1="28.2809" y1="18.4443" x2="23.3377" y2="49.0141" gradientUnits="userSpaceOnUse">
<stop stop-color="#F7A239"/>
<stop offset="0.9537" stop-color="#FFBA66"/>
</linearGradient>
<linearGradient id="paint33_linear_409_773" x1="18.5658" y1="25.5649" x2="17.622" y2="31.4016" gradientUnits="userSpaceOnUse">
<stop stop-color="#F7A239"/>
<stop offset="0.9537" stop-color="#FFBA66"/>
</linearGradient>
<linearGradient id="paint34_linear_409_773" x1="23.944" y1="16.9529" x2="23.4635" y2="19.9243" gradientUnits="userSpaceOnUse">
<stop stop-color="#F7A239"/>
<stop offset="0.9537" stop-color="#FFBA66"/>
</linearGradient>
<linearGradient id="paint35_linear_409_773" x1="20.8324" y1="38.0787" x2="19.3217" y2="47.4214" gradientUnits="userSpaceOnUse">
<stop stop-color="#F7A239"/>
<stop offset="0.9537" stop-color="#FFBA66"/>
</linearGradient>
<linearGradient id="paint36_linear_409_773" x1="32.3339" y1="15.0807" x2="31.1342" y2="22.5001" gradientUnits="userSpaceOnUse">
<stop stop-color="#F7A239"/>
<stop offset="0.9537" stop-color="#FFBA66"/>
</linearGradient>
<linearGradient id="paint37_linear_409_773" x1="36.2612" y1="25.0617" x2="35.8612" y2="27.5351" gradientUnits="userSpaceOnUse">
<stop stop-color="#F7A239"/>
<stop offset="0.9537" stop-color="#FFBA66"/>
</linearGradient>
<linearGradient id="paint38_linear_409_773" x1="28.7924" y1="34.7719" x2="28.4832" y2="36.6841" gradientUnits="userSpaceOnUse">
<stop stop-color="#F7A239"/>
<stop offset="0.9537" stop-color="#FFBA66"/>
</linearGradient>
<linearGradient id="paint39_linear_409_773" x1="33.7624" y1="30.8732" x2="33.3362" y2="33.5085" gradientUnits="userSpaceOnUse">
<stop stop-color="#F7A239"/>
<stop offset="0.9537" stop-color="#FFBA66"/>
</linearGradient>
</defs>
</svg>
