<svg width="49" height="49" viewBox="0 0 49 49" fill="none" xmlns="http://www.w3.org/2000/svg">
<path d="M27.5498 32.2261H21.6289L24.5 49H27.5498V32.2261Z" fill="#FF3A33"/>
<path d="M21.4502 32.2261H24.5V49H21.4502V32.2261Z" fill="#FE5E49"/>
<path d="M24.5 0L21.6289 17.5362L24.5 35.2759C26.1844 35.2759 27.5498 33.9105 27.5498 32.2261L36.2745 24.6805C40.9884 25.3623 45.401 22.1038 45.8863 17.3656C45.9286 16.9523 45.9501 16.5345 45.9501 16.113C45.9502 7.2141 36.3466 0 24.5 0Z" fill="#FE5E49"/>
<path d="M3.0498 16.113C3.0498 16.5346 3.07134 16.9523 3.11364 17.3656C3.59885 22.1038 8.01153 25.3623 12.7254 24.6805L21.4502 32.2261C21.4502 33.9105 22.8156 35.2759 24.4999 35.2759V0C12.6534 0 3.0498 7.2141 3.0498 16.113Z" fill="#FE8566"/>
<path d="M13.8257 24.6016C9.61481 24.6016 6.20117 28.0151 6.20117 32.226C6.20117 39.8056 11.663 45.9501 18.4004 45.9501C20.0847 45.9501 21.4501 44.5848 21.4501 42.9004V32.226C21.4501 28.0152 18.0365 24.6016 13.8257 24.6016Z" fill="#CA3C44"/>
<path d="M35.1743 24.6016C30.9633 24.6016 27.5498 28.0151 27.5498 32.226V42.9003C27.5498 44.5847 28.9152 45.95 30.5996 45.95C37.337 45.95 42.7988 39.8055 42.7988 32.2259C42.7988 28.0152 39.3852 24.6016 35.1743 24.6016Z" fill="#953F55"/>
<path d="M35.1738 30.7012H38.2236V33.7509H35.1738V30.7012Z" fill="#604167"/>
<path d="M32.125 36.8008H35.1748V39.8506H32.125V36.8008Z" fill="#2B4478"/>
<path d="M13.8262 33.751H10.7764V30.7012H13.8262V33.751Z" fill="#953F55"/>
<path d="M16.876 39.8506H13.8262V36.8008H16.876V39.8506Z" fill="#604167"/>
</svg>
