<svg width="53" height="53" viewBox="0 0 53 53" fill="none" xmlns="http://www.w3.org/2000/svg">
<g clip-path="url(#clip0_409_907)">
<path d="M26.2551 0.000976562L33.9454 25.9079L26.2551 53H20.3334L19.8212 49.7856C19.4299 47.3343 19.4206 43.7338 19.7933 41.2794L19.909 40.5205C20.1805 38.7362 19.7107 36.919 18.609 35.4889L18.4128 35.2338C15.8335 32.0918 14.7441 29.2264 14.7441 25.1612V11.6203C14.7441 9.31049 15.4287 7.11012 16.6409 5.25668C17.8552 3.40325 19.5971 1.89572 21.7139 0.970546C23.1626 0.338622 24.7073 0.0154323 26.2551 0.000976562Z" fill="#FF80AA"/>
<path d="M37.9857 21.884L33.0408 42.8066C33.1864 44.9894 33.1369 47.8961 32.8395 49.7619L32.3222 53H26.2549V0.00103255C26.2921 0 26.3282 0 26.3654 0C27.9493 0 29.5332 0.32319 31.016 0.970601C35.2495 2.81991 37.9857 7.00072 37.9857 11.6204V21.884Z" fill="#FF5E95"/>
<path d="M26.2551 10.6343L28.3202 15.7329L26.2551 19.5679C24.5235 20.142 22.8952 21.1188 21.5177 22.4973C21.4651 22.5489 21.4134 22.6016 21.3639 22.6542V13.3767L10.266 5.6367C9.69808 5.24846 9.03311 5.04298 8.3444 5.04298H6.5715C4.69225 5.04298 3.16407 6.57116 3.16407 8.45041V9.27646C3.16407 10.8119 3.87963 13.0969 5.84975 13.0969V16.1946C4.07478 16.1946 2.5115 15.3758 1.44693 13.8899C0.55687 12.6467 0.0664062 11.0081 0.0664062 9.27646V8.45041C0.0664062 4.86331 2.98441 1.94531 6.5715 1.94531H8.3444C9.65884 1.94531 10.9279 2.33768 12.0131 3.07906L22.8477 10.6343H26.2551Z" fill="#E30A6C"/>
<path d="M52.933 8.4504V9.27645C52.933 11.008 52.4425 12.6467 51.5525 13.8899C50.4879 15.3757 48.9246 16.1946 47.1497 16.1946V13.0969C49.1198 13.0969 49.8353 10.8119 49.8353 9.27645V8.4504C49.8353 6.57116 48.3072 5.04298 46.4279 5.04298H44.655C43.9663 5.04298 43.3013 5.24845 42.7334 5.63669L31.366 13.1485V19.0186C29.652 18.8358 27.9059 19.0186 26.2549 19.5679V10.6343H29.5518L40.9863 3.07906C42.0716 2.33768 43.3406 1.94531 44.655 1.94531H46.4279C50.015 1.94531 52.933 4.86331 52.933 8.4504Z" fill="#9B0548"/>
<path d="M46.3235 10.8487C45.2915 9.91978 43.8881 9.47289 42.473 9.6223L40.2624 9.85586H40.2625C37.8219 10.1136 35.9814 12.0638 35.9814 14.3922C35.9814 16.7204 37.8219 18.6707 40.2625 18.9286L42.4731 19.1621C42.6527 19.181 42.8318 19.1904 43.0103 19.1904C44.238 19.1904 45.4224 18.7467 46.3236 17.9357C47.2899 17.0661 47.822 15.8906 47.822 14.6258V14.1586C47.822 12.8937 47.2898 11.7183 46.3235 10.8487Z" fill="#FFD396"/>
<path d="M12.53 9.85586L10.3195 9.6223C8.90443 9.47289 7.50108 9.91978 6.46904 10.8487C5.50278 11.7183 4.9707 12.8937 4.9707 14.1586V14.6258C4.9707 15.8906 5.50288 17.0662 6.46904 17.9357C7.37026 18.7467 8.5546 19.1904 9.78241 19.1904C9.96083 19.1904 10.14 19.181 10.3195 19.1621L12.5301 18.9286C14.9708 18.6708 16.8112 16.7205 16.8112 14.3922C16.8111 12.0639 14.9707 10.1137 12.53 9.85586Z" fill="#FFF1B3"/>
<path d="M26.2546 19.0825L29.8783 24.129L26.2546 36.9069L24.4115 35.808L21.8272 32.3292C20.0998 30.2248 21.0123 26.6128 21.0123 23.8901V22.3877C21.066 22.332 21.1208 22.2752 21.1765 22.2194C22.6531 20.7429 24.3981 19.6969 26.2546 19.0825Z" fill="#FF5E95"/>
<path d="M31.7171 18.4973L33.4543 23.255C33.4543 26.0656 33.5468 31.1783 31.7171 33.3115L26.2549 37.6053V19.0827C28.0206 18.4973 29.8853 18.3021 31.7171 18.4973Z" fill="#E30A6C"/>
<path d="M50.6673 45.9501L40.0449 35.3276L34.5371 40.8355L45.1595 51.4579C45.9187 52.2172 46.9161 52.5967 47.9133 52.5967C48.9106 52.5967 49.9079 52.2171 50.6672 51.4579C52.1857 49.9394 52.1857 47.4686 50.6673 45.9501Z" fill="#606075"/>
<path d="M26.2546 33.9494L28.5262 37.4303L26.2546 42.5537C24.523 41.9796 22.8957 41.0038 21.5172 39.6254C16.8387 34.9469 16.7881 27.3958 21.3634 22.6543V24.0575C21.3634 26.6018 22.2452 29.0665 23.8591 31.0325L26.2546 33.9494Z" fill="#FF80AA"/>
<path d="M38.6455 39.6253C35.2939 42.9759 30.4656 43.9527 26.2549 42.5536V33.9493L28.7155 31.0809C30.4264 29.088 31.366 26.549 31.366 23.9232V19.0186C34.0249 19.2994 36.6083 20.459 38.6455 22.4972C43.3746 27.2263 43.3746 34.8951 38.6455 39.6253Z" fill="#FF5E95"/>
<path d="M26.2548 21.7187L27.2873 19.7998L26.2548 18.4373C24.2815 19.0289 22.4229 20.1038 20.8679 21.6588C15.8435 26.6822 15.8435 34.8559 20.8679 39.8793C22.424 41.4353 24.2815 42.5092 26.2548 43.1009L27.2873 41.7669L26.2548 39.8194C25.0911 39.3424 24.0007 38.632 23.058 37.6892C19.2416 33.8729 19.2416 27.6642 23.058 23.8489C24.0017 22.9051 25.0911 22.1947 26.2548 21.7187Z" fill="#ABABC5"/>
<path d="M39.0885 39.8793C36.5763 42.3905 33.2773 43.6471 29.9783 43.6471C28.7227 43.6471 27.4671 43.4653 26.2549 43.1009V39.8194C29.7976 41.2712 34.0259 40.5608 36.8985 37.6892C40.7138 33.8729 40.7138 27.6642 36.8985 23.8489C34.9903 21.9407 32.4843 20.9866 29.9783 20.9866C28.7113 20.9866 27.4444 21.2303 26.2549 21.7187V18.4373C30.6525 17.1177 35.6212 18.1915 39.0885 21.6588C44.1119 26.6822 44.1119 34.8559 39.0885 39.8793Z" fill="#7C7C97"/>
</g>
<defs>
<clipPath id="clip0_409_907">
<rect width="53" height="53" fill="white"/>
</clipPath>
</defs>
</svg>
