<svg width="27" height="26" viewBox="0 0 27 26" fill="none" xmlns="http://www.w3.org/2000/svg">
<path d="M13.8001 3.91029C13.4234 3.64123 12.9174 3.64123 12.5407 3.91029L2.24902 11.2615L3.50838 13.0245L13.1703 6.12314L22.8324 13.0245L24.0917 11.2615L13.8001 3.91029ZM21.3834 14.7437L13.8001 9.32696C13.4234 9.0579 12.9174 9.0579 12.5407 9.32696L4.95736 14.7437C4.67267 14.947 4.5037 15.2752 4.5037 15.6252V22.6668C4.5037 23.2652 4.98872 23.7502 5.58703 23.7502H20.7537C21.352 23.7502 21.837 23.2652 21.837 22.6668V15.6252C21.837 15.2752 21.6681 14.947 21.3834 14.7437ZM6.67037 21.5835V16.1826L13.1703 11.5398L19.6703 16.1826V21.5835H6.67037Z" fill="black"/>
</svg>
