<svg width="25" height="24" viewBox="0 0 25 24" fill="none" xmlns="http://www.w3.org/2000/svg">
<path d="M12.1758 22.0029C6.65294 22.0029 2.17578 17.5258 2.17578 12.0029C2.17578 6.48008 6.65294 2.00293 12.1758 2.00293C17.6986 2.00293 22.1758 6.48008 22.1758 12.0029C22.1758 17.5258 17.6986 22.0029 12.1758 22.0029ZM12.1758 20.0029C16.5941 20.0029 20.1758 16.4212 20.1758 12.0029C20.1758 7.58465 16.5941 4.00293 12.1758 4.00293C7.7575 4.00293 4.17578 7.58465 4.17578 12.0029C4.17578 16.4212 7.7575 20.0029 12.1758 20.0029ZM10.2258 11.0029H15.1758V13.0029H10.2258C10.4574 14.1441 11.4663 15.0029 12.6758 15.0029C13.291 15.0029 13.8542 14.7808 14.2897 14.4122L15.9907 15.5462C15.1682 16.4417 13.9875 17.0029 12.6758 17.0029C10.3595 17.0029 8.45197 15.2529 8.20325 13.0029H7.17578V11.0029H8.20325C8.45197 8.75295 10.3595 7.00293 12.6758 7.00293C13.9875 7.00293 15.1682 7.5642 15.9907 8.45969L14.2898 9.59369C13.8543 9.22514 13.291 9.00293 12.6758 9.00293C11.4663 9.00293 10.4574 9.86181 10.2258 11.0029Z" fill="black"/>
</svg>
