<svg width="47" height="47" viewBox="0 0 47 47" fill="none" xmlns="http://www.w3.org/2000/svg">
<g clip-path="url(#clip0_582_95)">
<path d="M8.88089 15.6575C8.62021 15.6575 8.35546 15.589 8.11515 15.4465C7.40074 15.0221 7.16531 14.0999 7.58891 13.3855C10.4034 8.64282 10.4124 6.08819 7.62394 3.96205C6.96329 3.4578 6.83621 2.51448 7.34045 1.85382C7.84389 1.19317 8.78639 1.06528 9.44786 1.56952C15.4019 6.11018 11.7394 12.2833 10.1761 14.9202C9.89427 15.3935 9.3941 15.6575 8.88089 15.6575Z" fill="white"/>
<path d="M17.3049 9.75799C17.208 9.75799 17.1094 9.74821 17.0108 9.72866C16.1962 9.56737 15.6667 8.77556 15.828 7.96095C16.0985 6.60054 15.3523 4.27726 13.4363 2.65047C12.8033 2.11283 12.7251 1.1638 13.2636 0.530029C13.8021 -0.101297 14.7503 -0.180315 15.3832 0.357331C17.9126 2.50547 19.3089 5.87227 18.7785 8.54584C18.636 9.26189 18.0079 9.75799 17.3049 9.75799Z" fill="white"/>
<path d="M32.7598 46.9997C31.8979 46.9997 31.0165 46.9671 30.1221 46.9011C21.655 46.2771 14.3193 42.8427 9.99537 37.4809C6.70351 33.3981 5.19729 28.7491 5.51988 23.6634C5.57201 22.8333 6.30109 22.2248 7.11571 22.2566C7.94499 22.3087 8.57387 23.0231 8.52174 23.8524C8.24477 28.2253 9.49276 32.0654 12.3374 35.5918C16.1408 40.3093 22.705 43.338 30.3445 43.9009C35.8936 44.3131 41.0876 43.2508 43.305 41.2607C43.9396 40.2278 44.6939 33.6384 42.6981 26.1741C41.3532 21.1454 38.3855 14.4966 31.8865 11.375C31.1379 11.0157 30.8226 10.1172 31.1827 9.36856C31.5411 8.6183 32.4396 8.30223 33.1891 8.66392C42.7258 13.2445 45.647 23.9477 46.5398 29.9205C47.3332 35.2261 47.2005 41.7634 45.3928 43.4284C42.9303 45.6979 38.2291 46.9997 32.7598 46.9997Z" fill="white"/>
<path d="M19.9344 20.9059C19.9034 20.9059 19.8717 20.9051 19.8407 20.9034C19.0114 20.8521 18.3809 20.1393 18.4322 19.3101C19.0294 9.57703 24.7129 4.47265 34.415 4.95572C35.2443 4.99645 35.8837 5.7019 35.843 6.532C35.8023 7.36128 35.1001 8.01134 34.2667 7.96002C26.2501 7.5633 21.9278 11.4466 21.4333 19.495C21.3844 20.2917 20.7221 20.9059 19.9344 20.9059Z" fill="white"/>
<path d="M15.6455 14.1772C15.56 14.1772 15.472 14.1691 15.3849 14.1544C14.567 14.0111 14.0196 13.2315 14.1629 12.4136C15.2423 6.24533 20.886 0.000488281 29.5812 0.000488281C30.4121 0.000488281 31.0858 0.67336 31.0858 1.50427C31.0858 2.33517 30.4121 3.00805 29.5812 3.00805C22.5445 3.00805 17.9884 8.00082 17.1241 12.9333C16.997 13.6624 16.3616 14.1772 15.6455 14.1772Z" fill="white"/>
<path d="M14.6183 18.7073C14.2599 18.7073 13.9006 18.5802 13.6131 18.3219C10.3619 15.3983 4.87307 14.4313 1.97956 15.3983C1.19346 15.6614 0.340555 15.2346 0.0782493 14.446C-0.184056 13.6583 0.241987 12.8062 1.02972 12.5439C4.7688 11.3 11.4136 12.2979 15.6243 16.085C16.2418 16.6414 16.2923 17.592 15.7368 18.2087C15.4402 18.5394 15.0297 18.7073 14.6183 18.7073Z" fill="white"/>
<path d="M10.1069 22.6207C9.77945 22.6207 9.44953 22.5148 9.17338 22.2957C7.34049 20.8416 4.07959 20.7455 1.94123 21.3956C1.14453 21.6342 0.306296 21.1878 0.0651699 20.3936C-0.175956 19.5985 0.272897 18.7587 1.06715 18.5175C3.91748 17.6524 8.25449 17.729 11.0421 19.9398C11.693 20.4563 11.8021 21.4021 11.2857 22.053C10.9892 22.4252 10.5501 22.6207 10.1069 22.6207Z" fill="white"/>
<path d="M14.4358 46.5248C14.4016 46.5248 14.3682 46.524 14.334 46.5215C13.5088 46.4661 12.8831 45.7599 12.9328 44.9346C12.9393 44.8247 13.1177 42.2195 14.9262 39.9785C15.4483 39.3334 16.3957 39.2324 17.0409 39.7537C17.6869 40.2759 17.7879 41.2225 17.2666 41.8693C16.078 43.3413 15.9355 45.1098 15.9339 45.1269C15.8768 45.9171 15.217 46.5248 14.4358 46.5248Z" fill="white"/>
<path d="M7.15472 45.8428C6.42157 44.7081 7.84551 40.622 8.29355 39.6249C8.63406 38.8673 9.52606 38.5317 10.282 38.8705C11.0396 39.211 11.3777 40.1014 11.0364 40.859C10.0368 43.0813 9.92034 45.0771 9.91952 45.0966L8.42552 45.0168L8.41737 45.0249L7.15472 45.8428Z" fill="white"/>
<path d="M31.3178 36.0439C31.1354 36.0439 30.9504 36.0105 30.7696 35.9396C29.9965 35.6374 29.6145 34.7649 29.9175 33.991C31.3651 30.2902 31.269 26.4591 29.6462 23.2039C28.4088 20.7218 26.3837 18.8278 24.361 18.2616C23.5611 18.0384 23.0943 17.2083 23.3183 16.4084C23.5423 15.6093 24.3724 15.1409 25.1724 15.3665C28.0309 16.1656 30.7093 18.5948 32.3385 21.8631C34.3458 25.8889 34.4802 30.5859 32.719 35.0883C32.4868 35.6814 31.919 36.0439 31.3178 36.0439Z" fill="white"/>
<path d="M37.7037 26.2359C37.1147 26.2359 36.5559 25.8872 36.3147 25.3097C35.294 22.8618 33.0367 23.0507 31.3203 23.6413C30.5351 23.9142 29.6789 23.4939 29.4084 22.7094C29.138 21.9241 29.5551 21.068 30.3412 20.7975C34.3067 19.4314 37.6605 20.7169 39.091 24.1521C39.4111 24.9187 39.0478 25.7984 38.2812 26.1186C38.0931 26.1984 37.8967 26.2359 37.7037 26.2359Z" fill="white"/>
</g>
<defs>
<clipPath id="clip0_582_95">
<rect width="47" height="47" fill="white"/>
</clipPath>
</defs>
</svg>
