<svg width="24" height="23" viewBox="0 0 24 23" fill="none" xmlns="http://www.w3.org/2000/svg">
<path d="M11.5376 2.29096C12.4848 1.65948 13.7154 1.64639 14.6759 2.25758L18.6579 4.79161H20.2955C20.8248 4.79161 21.2539 5.22068 21.2539 5.74994V14.3749C21.2539 14.9042 20.8248 15.3332 20.2955 15.3332H18.8392C18.8962 16.2411 18.4685 17.1639 17.6081 17.6802L12.7269 20.609C12.1107 20.9786 11.3458 20.97 10.7425 20.6017C10.0714 21.1952 9.03829 21.2605 8.28882 20.6716L3.36225 16.8007C2.62778 16.2237 2.44204 15.2378 2.82128 14.4562C2.35811 14.093 2.0874 13.5368 2.0874 12.9479V5.75C2.0874 5.22073 2.51647 4.79167 3.04574 4.79167H7.78654L11.5376 2.29096ZM4.16952 13.0767L4.83271 12.4964C6.01166 11.4647 7.79947 11.5669 8.85325 12.7261L11.4428 15.5746C12.2761 16.4913 12.4281 17.8379 11.8221 18.9165L16.622 16.0367C16.8916 15.8749 16.9892 15.5515 16.8887 15.279L12.646 9.33945C12.4077 9.0058 11.9835 8.86073 11.5908 8.97855L9.20911 9.69306C8.19606 9.99695 7.09793 9.72009 6.35006 8.97225L6.06949 8.69168C5.52515 8.14734 5.38438 7.37263 5.61345 6.70833H4.00407V12.9479L4.16952 13.0767ZM13.6469 3.8746C13.3267 3.67087 12.9166 3.67523 12.6008 3.88573L7.42477 7.3364L7.70534 7.61697C7.95464 7.86626 8.32068 7.95854 8.65837 7.85723L11.0401 7.14272C12.2182 6.78927 13.4908 7.22448 14.2057 8.2254L17.9137 13.4166H19.3372V6.70828H18.6579C18.2934 6.70828 17.9364 6.60434 17.6289 6.40864L13.6469 3.8746ZM6.09485 13.9388L4.54642 15.2937L9.47298 19.1646L10.1476 17.984C10.3536 17.6235 10.304 17.1712 10.0246 16.8639L7.43503 14.0153C7.08377 13.6289 6.48783 13.5949 6.09485 13.9388Z" fill="black"/>
</svg>
