<svg width="15" height="15" viewBox="0 0 15 15" fill="none" xmlns="http://www.w3.org/2000/svg">
<g clip-path="url(#clip0_498_118)">
<path d="M14.0028 7.69427C13.9425 7.57079 13.9425 7.42917 14.0028 7.30571L14.5623 6.16124C14.8737 5.524 14.627 4.76449 14.0004 4.43206L12.8751 3.83499C12.7537 3.7706 12.6705 3.65599 12.6467 3.52067L12.4267 2.26592C12.3041 1.56731 11.6579 1.09786 10.9557 1.1972L9.69442 1.37562C9.55827 1.39484 9.42366 1.35107 9.3249 1.25553L8.40935 0.369835C7.89955 -0.123345 7.10093 -0.123375 6.59116 0.369835L5.67558 1.25562C5.5768 1.35119 5.44218 1.39487 5.30606 1.37571L4.04475 1.19729C3.34236 1.09789 2.69637 1.5674 2.57382 2.26601L2.35375 3.5207C2.32999 3.65605 2.24676 3.77063 2.12538 3.83505L1.00009 4.43212C0.373555 4.76452 0.126759 5.52409 0.438242 6.16132L0.997662 7.30577C1.05801 7.42926 1.05801 7.57088 0.997662 7.69433L0.438212 8.83878C0.12673 9.47601 0.373525 10.2355 1.00006 10.568L2.12535 11.165C2.24676 11.2294 2.32999 11.344 2.35375 11.4794L2.57382 12.7341C2.68539 13.3701 3.23072 13.8161 3.85746 13.816C3.91919 13.816 3.98182 13.8117 4.04478 13.8028L5.30609 13.6244C5.44212 13.6051 5.57682 13.6489 5.67561 13.7445L6.59116 14.6302C6.8461 14.8768 7.17311 15.0001 7.50024 15C7.82728 15 8.15449 14.8767 8.40932 14.6302L9.3249 13.7445C9.42369 13.6489 9.55833 13.6053 9.69442 13.6244L10.9557 13.8028C11.6582 13.9022 12.3041 13.4327 12.4267 12.7341L12.6468 11.4794C12.6705 11.344 12.7538 11.2294 12.8751 11.165L14.0004 10.568C14.627 10.2356 14.8737 9.47598 14.5623 8.83875L14.0028 7.69427ZM13.5949 9.8037L12.4696 10.4008C12.1109 10.5912 11.8648 10.9298 11.7946 11.3298L11.5746 12.5846C11.5331 12.8209 11.3146 12.9797 11.0769 12.9461L9.81559 12.7677C9.41334 12.7107 9.01532 12.8402 8.72338 13.1226L7.8078 14.0083C7.63536 14.1751 7.36515 14.1751 7.19265 14.0083L6.2771 13.1226C6.03037 12.8839 5.70781 12.7545 5.37107 12.7545C5.30937 12.7545 5.24718 12.7589 5.18489 12.7677L3.92358 12.9461C3.6861 12.9797 3.4674 12.8209 3.42592 12.5845L3.20581 11.3298C3.13562 10.9297 2.88958 10.5911 2.53079 10.4007L1.4055 9.80367C1.19351 9.6912 1.11001 9.43424 1.2154 9.21864L1.77485 8.07417C1.9532 7.70925 1.9532 7.29071 1.77485 6.92579L1.2154 5.78132C1.11001 5.56572 1.19351 5.30876 1.4055 5.19629L2.53079 4.59923C2.88955 4.40883 3.13562 4.07021 3.20578 3.67014L3.42586 2.41542C3.46734 2.17905 3.68584 2.02027 3.92352 2.05384L5.18483 2.23226C5.58693 2.28918 5.9851 2.15978 6.27704 1.87739L7.19263 0.991687C7.36507 0.824872 7.63527 0.824872 7.80777 0.991687L8.72332 1.87739C9.01526 2.15981 9.41337 2.28918 9.81553 2.23226L11.0768 2.05384C11.3143 2.02024 11.533 2.17905 11.5745 2.41542L11.7946 3.67017C11.8648 4.07024 12.1108 4.40888 12.4696 4.59923L13.5949 5.19629C13.8069 5.30876 13.8904 5.56572 13.785 5.78132L13.2255 6.92576C13.0472 7.29065 13.0472 7.70925 13.2255 8.07414L13.785 9.21858C13.8904 9.43423 13.8069 9.69123 13.5949 9.8037Z" fill="#FFBD08"/>
<path d="M10.6609 4.33958C10.492 4.17066 10.2181 4.17066 10.0492 4.33958L4.33958 10.0492C4.17066 10.2181 4.17066 10.492 4.33958 10.661C4.42405 10.7454 4.53476 10.7877 4.64544 10.7877C4.75612 10.7877 4.86687 10.7455 4.9513 10.661L10.6609 4.95136C10.8299 4.7824 10.8299 4.50854 10.6609 4.33958Z" fill="#FFBD08"/>
<path d="M5.76969 3.6066C4.89512 3.6066 4.18359 4.31813 4.18359 5.19269C4.18359 6.06726 4.89512 6.77879 5.76969 6.77879C6.64425 6.77879 7.35578 6.06726 7.35578 5.19269C7.35578 4.31813 6.64425 3.6066 5.76969 3.6066ZM5.76969 5.91363C5.37216 5.91363 5.04875 5.59022 5.04875 5.19266C5.04875 4.79514 5.37216 4.47173 5.76969 4.47173C6.16722 4.47173 6.49065 4.79514 6.49065 5.19266C6.49062 5.59022 6.16722 5.91363 5.76969 5.91363Z" fill="#FFBD08"/>
<path d="M9.23063 8.22095C8.35606 8.22095 7.64453 8.93248 7.64453 9.80704C7.64453 10.6816 8.35606 11.3931 9.23063 11.3931C10.1052 11.3931 10.8167 10.6816 10.8167 9.80704C10.8167 8.93248 10.1052 8.22095 9.23063 8.22095ZM9.23063 10.528C8.8331 10.528 8.50966 10.2046 8.50966 9.80704C8.50966 9.40952 8.83307 9.08611 9.23063 9.08611C9.62815 9.08611 9.95156 9.40952 9.95156 9.80704C9.95156 10.2046 9.62815 10.528 9.23063 10.528Z" fill="#FFBD08"/>
</g>
<defs>
<clipPath id="clip0_498_118">
<rect width="15" height="15" fill="white"/>
</clipPath>
</defs>
</svg>
