<svg width="46" height="45" viewBox="0 0 46 45" fill="none" xmlns="http://www.w3.org/2000/svg">
<path d="M17.2395 33.6304C16.7757 36.7769 13.9871 39.1957 10.6163 39.1957C7.24552 39.1957 4.45693 36.7769 3.99312 33.6304H2.01367V11.3693C2.01367 10.3447 2.86958 9.51416 3.92537 9.51416H30.6891C31.7449 9.51416 32.6008 10.3447 32.6008 11.3693V15.0795H38.3359L44.071 22.6032V33.6304H40.1799C39.7159 36.7769 36.9273 39.1957 33.5566 39.1957C30.1859 39.1957 27.3973 36.7769 26.9334 33.6304H17.2395ZM28.7774 13.2244H5.83706V28.1588C7.05148 26.9562 8.7441 26.2101 10.6163 26.2101C13.2854 26.2101 15.5895 27.7266 16.6633 29.9202H27.5096C27.8302 29.2654 28.2605 28.6707 28.7774 28.1588V13.2244ZM32.6008 24.355H40.2476V23.8262L36.4083 18.7897H32.6008V24.355ZM33.5566 35.4855C34.8052 35.4855 35.8673 34.7112 36.2609 33.6304C36.3666 33.3403 36.4242 33.0281 36.4242 32.7029C36.4242 31.1661 35.1403 29.9202 33.5566 29.9202C31.973 29.9202 30.6891 31.1661 30.6891 32.7029C30.6891 33.0281 30.7466 33.3403 30.8524 33.6304C31.246 34.7112 32.3081 35.4855 33.5566 35.4855ZM13.4838 32.7029C13.4838 31.1661 12.2 29.9202 10.6163 29.9202C9.03259 29.9202 7.74876 31.1661 7.74876 32.7029C7.74876 33.0281 7.80626 33.3403 7.91192 33.6304C8.30558 34.7112 9.36775 35.4855 10.6163 35.4855C11.8648 35.4855 12.927 34.7112 13.3207 33.6304C13.4263 33.3403 13.4838 33.0281 13.4838 32.7029Z" fill="#0E538C"/>
</svg>
