<svg width="47" height="45" viewBox="0 0 47 45" fill="none" xmlns="http://www.w3.org/2000/svg">
<path d="M38.1419 22.6807L41.0697 27.6015C42.9173 30.707 41.8208 34.678 38.6206 36.4709C37.6034 37.0408 36.4497 37.3408 35.2752 37.3408L31.3325 37.3397L31.3329 41.9785L21.7744 35.4857L31.3329 28.9929L31.3325 33.6295L35.2752 33.6306C35.7785 33.6306 36.2731 33.5021 36.7089 33.2577C38.0804 32.4894 38.5505 30.7875 37.7584 29.4566L34.8309 24.5358L38.1419 22.6807ZM14.7085 17.1832L15.7238 28.4625L11.5846 26.1423L9.61374 29.4566C9.36206 29.8796 9.22956 30.3595 9.22956 30.848C9.22956 32.3847 10.5134 33.6306 12.0971 33.6306L17.9525 33.6308V37.3408H12.0971C8.4018 37.3408 5.40618 34.4339 5.40618 30.848C5.40618 29.7082 5.71534 28.5886 6.30259 27.6015L8.27358 24.2872L4.13477 21.9696L14.7085 17.1832ZM27.0315 5.74645C28.0488 6.31632 28.8933 7.13596 29.4806 8.123L31.451 11.4351L35.5908 9.11713L34.5755 20.3963L24.0017 15.61L28.1399 13.2902L26.1696 9.9781C25.9178 9.55508 25.5559 9.2038 25.1199 8.95957C23.7484 8.19116 21.9946 8.64718 21.2028 9.9781L18.275 14.8988L14.9639 13.0438L17.8916 8.123C19.7393 5.01751 23.8314 3.9535 27.0315 5.74645Z" fill="#0E538C"/>
</svg>
