<svg width="40" height="40" viewBox="0 0 40 40" fill="none" xmlns="http://www.w3.org/2000/svg">
<path d="M19.9512 12.0308C27.2862 12.0308 33.2324 17.8009 33.2324 24.9188C33.2324 32.0368 27.2862 37.8069 19.9512 37.8069C12.6161 37.8069 6.66992 32.0368 6.66992 24.9188C6.66992 17.8009 12.6161 12.0308 19.9512 12.0308ZM19.9512 15.2528C14.4499 15.2528 9.99023 19.5805 9.99023 24.9188C9.99023 30.2572 14.4499 34.5849 19.9512 34.5849C25.4524 34.5849 29.9121 30.2572 29.9121 24.9188C29.9121 19.5805 25.4524 15.2528 19.9512 15.2528ZM19.9512 17.6693L22.1467 21.9863L27.0563 22.6786L23.5037 26.039L24.3423 30.7839L19.9512 28.5436L15.56 30.7839L16.3986 26.039L12.8461 22.6786L17.7556 21.9863L19.9512 17.6693ZM29.9121 3.97573V8.80875L27.6486 10.6414C25.8124 9.70723 23.7737 9.09688 21.6132 8.88848L21.6113 3.97412L29.9121 3.97573ZM18.291 3.97412L18.2905 8.88834C16.1302 9.09654 14.0916 9.70667 12.2554 10.6405L9.99023 8.80875V3.97573L18.291 3.97412Z" fill="#0E538C"/>
</svg>
