<svg width="34" height="34" viewBox="0 0 34 34" fill="none" xmlns="http://www.w3.org/2000/svg">
<path d="M31.189 23.6811C31.1875 27.6053 28.3458 30.8853 24.5504 31.6904L23.6517 29.0741C25.3477 28.8055 26.7891 27.8022 27.618 26.4119H24.1459C22.5899 26.4119 21.3286 25.1879 21.3286 23.6781V18.2104C21.3286 16.7005 22.5899 15.4766 24.1459 15.4766H28.2845C27.5913 10.0823 22.8494 5.90815 17.1028 5.90815C11.3562 5.90815 6.6142 10.0823 5.92102 15.4766H10.0597C11.6156 15.4766 12.8769 16.7005 12.8769 18.2104V23.6781C12.8769 25.1879 11.6156 26.4119 10.0597 26.4119H5.83384C4.27792 26.4119 3.0166 25.1879 3.0166 23.6781V16.8435C3.0166 9.2942 9.32319 3.17432 17.1028 3.17432C24.8823 3.17432 31.189 9.2942 31.189 16.8435V18.2086V18.2104V23.6781V23.6811ZM28.3717 23.6781V18.2104H24.1459V23.6781H28.3717ZM5.83384 18.2104V23.6781H10.0597V18.2104H5.83384Z" fill="#0E538C"/>
</svg>
