<svg width="72" height="72" viewBox="0 0 72 72" fill="none" xmlns="http://www.w3.org/2000/svg">
<path d="M38.0526 49.3694C37.8617 49.2946 37.6614 49.2877 37.4771 49.3355C37.415 49.3078 37.3304 49.2663 37.2573 49.2307C36.8279 49.0206 36.1791 48.7033 35.1346 48.4934L35.104 48.4878C33.2644 48.182 32.1499 48.4936 31.4801 48.9294C30.8104 48.4936 29.6954 48.1818 27.8561 48.4878L27.8255 48.4934C26.7811 48.7033 26.1322 49.0206 25.7028 49.2307C25.6296 49.2664 25.5448 49.308 25.4826 49.3357C25.2984 49.2879 25.0982 49.2947 24.9074 49.3694C24.4261 49.558 24.1887 50.1009 24.3772 50.5823C24.4384 50.7385 25.9299 54.4136 30.7583 55.1329C31.0509 55.1816 31.2981 55.1807 31.4801 55.165C31.5471 55.1707 31.623 55.1744 31.7068 55.1744C31.8504 55.1744 32.0172 55.1636 32.202 55.1329C37.0303 54.4136 38.5218 50.7385 38.5829 50.5823C38.7714 50.1009 38.534 49.558 38.0526 49.3694ZM31.9189 53.2824L31.9002 53.2854C31.7443 53.3118 31.6383 53.3006 31.6095 53.2966L31.4802 53.2786L31.3508 53.2966C31.322 53.3006 31.2159 53.3117 31.06 53.2854L31.0413 53.2824C28.6779 52.9323 27.3525 51.7114 26.686 50.8346C27.0315 50.6695 27.4921 50.4714 28.179 50.3318C29.9108 50.0468 30.4612 50.4687 30.5888 50.6048C30.8213 50.8537 31.1462 50.9963 31.4801 50.9963C31.8139 50.9963 32.1388 50.8537 32.3713 50.6049C32.4989 50.4685 33.0494 50.0469 34.7811 50.3318C35.4677 50.4713 35.9282 50.6691 36.2736 50.8343C35.6066 51.7094 34.2783 52.933 31.9189 53.2824Z" fill="#C7857A"/>
<path d="M27.1577 34.1552C26.9303 33.6909 26.3696 33.4989 25.9054 33.7262C24.1308 34.5955 22.6225 34.84 21.5439 34.4337C20.7282 34.1264 20.3496 33.5267 20.2322 33.3032C20.2174 33.1838 20.1794 33.0654 20.116 32.9544C19.8595 32.5056 19.2878 32.3497 18.839 32.6061C18.1764 32.9845 17.5859 32.7976 17.5609 32.7895L17.5767 32.7951L16.9253 34.5501C17.0008 34.5782 17.4004 34.7155 17.9714 34.7155C18.2305 34.7155 18.5252 34.6862 18.8405 34.6066C18.9125 34.7096 18.9959 34.818 19.0911 34.9299C18.6522 35.063 18.2722 35.0105 18.2369 35.0051C17.7308 34.9188 17.2497 35.2572 17.1592 35.763C17.0681 36.2718 17.4068 36.7583 17.9156 36.8492C17.9407 36.8537 18.1442 36.8883 18.4538 36.8883C19.0209 36.8883 19.9437 36.7704 20.7778 36.1422C20.7947 36.149 20.8099 36.1569 20.8269 36.1636C20.8971 36.1911 20.968 36.2168 21.0396 36.2409C20.8777 36.395 20.6916 36.5353 20.4754 36.6424C20.0122 36.8719 19.8226 37.4334 20.0521 37.8966C20.2153 38.2264 20.5469 38.4174 20.8915 38.4174C21.031 38.4174 21.1727 38.3861 21.3062 38.32C22.0732 37.9402 22.7231 37.306 23.2035 36.478C24.2732 36.3899 25.4513 36.0331 26.7288 35.4074C27.1931 35.18 27.3851 34.6194 27.1577 34.1552Z" fill="#C7857A"/>
<path d="M45.1726 32.7951C45.1668 32.7972 44.5666 32.9811 43.9103 32.6061C43.4616 32.3497 42.8897 32.5056 42.6333 32.9544C42.5698 33.0656 42.5317 33.1843 42.517 33.3038C42.405 33.5142 42.0292 34.1109 41.2389 34.4208C40.158 34.8449 38.6377 34.6048 36.8439 33.7262C36.3796 33.499 35.8191 33.691 35.5916 34.1552C35.3642 34.6194 35.5562 35.1801 36.0205 35.4074C37.2982 36.0332 38.4761 36.3899 39.5458 36.478C40.0263 37.306 40.6762 37.9402 41.4431 38.32C41.5767 38.3861 41.7183 38.4174 41.8578 38.4174C42.2023 38.4174 42.534 38.2264 42.6973 37.8966C42.9267 37.4334 42.7371 36.8719 42.2739 36.6424C42.0576 36.5354 41.8716 36.395 41.7097 36.2409C41.7813 36.2168 41.8523 36.1911 41.9225 36.1636C41.9395 36.1569 41.9547 36.149 41.9715 36.1422C42.8056 36.7705 43.7284 36.8883 44.2955 36.8883C44.605 36.8883 44.8087 36.8537 44.8337 36.8492C45.3425 36.7583 45.6862 36.271 45.595 35.7621C45.5039 35.2533 45.0227 34.9139 44.5138 35.0049C44.4886 35.0089 44.1038 35.0647 43.6583 34.9296C43.7535 34.8179 43.8368 34.7095 43.9087 34.6066C44.2241 34.6862 44.5188 34.7155 44.7779 34.7155C45.3488 34.7155 45.7484 34.5782 45.824 34.5501C46.3086 34.3702 46.5556 33.8315 46.3758 33.3469C46.1958 32.8622 45.6569 32.6147 45.1726 32.7951Z" fill="#C7857A"/>
<path d="M46.8788 29.6272L44.8939 28.098C43.8237 27.2735 42.4251 27.034 41.153 27.4574L35.317 29.3991C34.8265 29.5623 34.5612 30.0922 34.7244 30.5827C34.8875 31.0732 35.4171 31.3385 35.908 31.1753L41.7439 29.2336C42.4247 29.0071 43.1752 29.137 43.7515 29.5808L45.7364 31.1101C45.9065 31.2413 46.1075 31.3048 46.3069 31.3048C46.5873 31.3048 46.8648 31.1793 47.0491 30.94C47.3645 30.5305 47.2883 29.9427 46.8788 29.6272Z" fill="#C7857A"/>
<path d="M19.1055 29.5828C19.6816 29.1389 20.4323 29.0089 21.1129 29.2355L26.9488 31.1772C27.4393 31.3404 27.9692 31.0751 28.1325 30.5846C28.2957 30.0941 28.0304 29.5642 27.5399 29.401L21.7039 27.4593C20.4315 27.036 19.033 27.2754 17.9629 28.0999L15.978 29.6292C15.5685 29.9446 15.4924 30.5324 15.8079 30.9419C15.9922 31.1812 16.2696 31.3067 16.55 31.3067C16.7494 31.3067 16.9504 31.2432 17.1206 31.112L19.1055 29.5828Z" fill="#C7857A"/>
<path d="M11.735 64.8027C13.4218 60.2956 10.2261 56.1826 7.40654 52.5539C6.19125 50.9897 5.0434 49.5123 4.36186 48.1266C4.13377 47.6628 3.5731 47.4718 3.10882 47.6996C2.64497 47.9277 2.45386 48.4888 2.68196 48.9526C3.44787 50.51 4.65275 52.0607 5.92836 53.7023C8.57028 57.1025 11.3021 60.6186 9.98173 64.1466C9.18284 66.2814 7.55039 66.8872 4.62343 67.3111C4.11176 67.385 3.75711 67.8599 3.83114 68.3715C3.89864 68.8377 4.29879 69.1735 4.75632 69.1735C4.80096 69.1735 4.84618 69.1703 4.8916 69.1636C7.67956 68.7601 10.5045 68.0908 11.735 64.8027Z" fill="#C7857A"/>
<path d="M31.48 46.8687C32.7986 46.8687 34.0075 46.2145 34.6349 45.1613C34.8995 44.7173 34.7539 44.1427 34.3098 43.8781C33.8655 43.6136 33.2912 43.7592 33.0267 44.2031C32.7395 44.6852 32.1324 44.9967 31.48 44.9967C30.8268 44.9967 30.2199 44.6856 29.9341 44.2043C29.6702 43.7599 29.0959 43.6135 28.6514 43.8774C28.2068 44.1414 28.0605 44.7157 28.3245 45.1602C28.9503 46.2141 30.1594 46.8687 31.48 46.8687Z" fill="#C7857A"/>
<path d="M70.2946 61.2257C69.9752 60.819 69.3866 60.7484 68.9804 61.0679C68.4526 61.4826 67.972 61.9479 67.538 62.4599L66.8381 61.9595L67.8289 60.5634C68.1273 60.1429 68.0295 59.5602 67.61 59.2602L56.0125 50.969C55.5861 50.6639 55.0844 50.5028 54.5618 50.5028C54.1206 50.5028 53.6936 50.6209 53.3204 50.8349L50.3657 49.275C50.1096 49.1162 49.808 49.0563 49.5077 49.1067C49.3251 49.1372 49.1561 49.2077 49.0082 49.3101L48.325 48.8216C49.2716 47.066 49.7861 45.2287 49.8603 43.3229L51.5621 26.336C51.6551 26.1759 51.7021 25.9869 51.6853 25.7884C51.642 25.2735 51.1902 24.8908 50.6741 24.9344C50.584 24.942 41.8467 25.5941 33.2221 19.2684C34.4634 18.4327 35.5797 17.4365 36.5457 16.3128C42.3906 20.0127 47.941 20.4121 50.0551 20.4121C50.5741 20.4121 50.8862 20.3882 50.9445 20.3832C51.4596 20.3396 51.8418 19.8868 51.7982 19.3717C51.7548 18.8566 51.3027 18.4748 50.7867 18.5178C50.7214 18.5233 44.3971 19 37.6882 14.8205C39.0084 12.8815 39.9272 10.6593 40.3431 8.28323C40.4322 7.77402 40.0916 7.28901 39.5824 7.19985C39.0732 7.1102 38.5881 7.45129 38.4992 7.96049C37.6695 12.701 34.592 16.7543 30.2669 18.8032C28.9472 19.4283 27.5002 20.0367 25.9659 20.6115C24.2837 21.2419 22.4743 21.7055 20.5587 22.1962C16.2614 23.2974 11.8177 24.436 8.57996 27.6097C6.20108 29.9416 4.87569 33.1349 4.7473 36.8443C4.6374 40.0171 5.41548 43.4696 6.93809 46.5654C7.89554 48.5122 9.41162 50.4634 11.0168 52.5293C14.3994 56.8829 17.8974 61.3846 16.1792 65.9758C15.0264 69.0562 12.3393 69.6822 9.20644 70.1359C8.69485 70.2098 8.34019 70.6847 8.41423 71.1963C8.48173 71.6625 8.88188 71.9983 9.33941 71.9983C9.38405 71.9983 9.42927 71.9951 9.47476 71.9885C12.927 71.4887 16.4237 70.6634 17.9324 66.6319C20.0171 61.0618 16.0208 55.9185 12.495 51.3807C10.9502 49.3926 9.491 47.5145 8.61793 45.7394C6.05026 40.5184 5.44789 33.3012 9.89044 28.9465C10.3841 28.4626 10.9173 28.0311 11.4811 27.6413L13.0997 43.3242C13.2412 46.9492 14.9733 50.3266 18.2486 53.3638C18.8379 53.9101 19.4003 54.4368 19.9394 54.9416C24.5401 59.2497 27.5796 62.0958 31.2537 62.0958H31.7064C35.0914 62.0958 37.9386 59.6788 41.9635 55.9297V58.7911C41.9635 61.9726 43.8268 64.8492 46.7093 66.1191L46.7753 66.1479C47.6 66.5131 48.7394 66.859 50.0586 67.2598C51.4219 67.6738 52.9671 68.1432 54.5053 68.7368C54.6161 68.7795 54.73 68.7998 54.8421 68.7998C55.2177 68.7998 55.5721 68.572 55.7155 68.2004C55.9015 67.7182 55.6615 67.1764 55.1791 66.9902C53.577 66.3719 51.9968 65.8919 50.6025 65.4685C49.3421 65.0857 48.2535 64.7551 47.5289 64.4342L47.4652 64.4065C45.2603 63.4351 43.8355 61.2309 43.8355 58.7911V54.1793C44.1209 53.9127 44.4127 53.6408 44.7114 53.3638C45.7371 52.4127 46.6113 51.4283 47.3328 50.4133L47.9181 50.8318C47.779 51.3007 47.926 51.8246 48.3185 52.1471L50.8296 54.5121C50.7432 55.3774 51.1069 56.265 51.8624 56.8052L63.4599 65.0966C63.6197 65.2108 63.8103 65.2711 64.0042 65.2711C64.0558 65.2711 64.1077 65.2669 64.1593 65.2582C64.4047 65.2169 64.6235 65.0797 64.7675 64.8768L65.7546 63.486L66.4619 63.9917C66.1381 64.5523 65.8564 65.1525 65.6194 65.7924C65.44 66.2771 65.6874 66.8156 66.1722 66.9952C66.2794 67.0348 66.3891 67.0536 66.4971 67.0536C66.8775 67.0536 67.2352 66.8199 67.375 66.4424C67.9838 64.7983 68.8871 63.5219 70.1369 62.54C70.5434 62.2206 70.614 61.6323 70.2946 61.2257ZM47.9948 43.1653C47.9928 43.1848 47.9915 43.2046 47.9907 43.2243C47.9335 44.7925 47.5387 46.2874 46.7972 47.7292L42.3674 44.5618C42.1649 44.4168 41.9126 44.3587 41.6671 44.4002C41.4214 44.4417 41.2024 44.5794 41.0587 44.7829L41.0472 44.7992C40.7488 45.2213 40.849 45.8054 41.2712 46.1038C41.3238 46.141 41.3791 46.1721 41.4359 46.197L45.8162 49.3289C45.17 50.2335 44.3788 51.1191 43.4385 51.991C42.847 52.5396 42.2826 53.0682 41.7414 53.5749C37.4656 57.5788 34.6409 60.2238 31.7064 60.2238H31.2537C28.3192 60.2238 25.4945 57.5788 21.2189 53.5752C20.6777 53.0684 20.1131 52.5397 19.5215 51.991C16.5738 49.2577 15.0848 46.3901 14.9693 43.2243C14.9685 43.2037 14.9671 43.183 14.965 43.1624L13.2549 26.5924C15.6285 25.3921 18.3558 24.6932 21.0234 24.0097C22.9028 23.5282 24.8461 23.0302 26.6226 22.3646C28.2058 21.7714 29.7016 21.1424 31.0683 20.495C31.2049 20.4302 31.3401 20.3631 31.4745 20.2949C39.0429 26.143 46.7269 26.8115 49.6309 26.8329L47.9948 43.1653ZM51.682 52.7435L50.0954 51.2491L52.0211 52.2658L51.682 52.7435ZM52.9511 55.2824C52.6674 55.0796 52.6009 54.6832 52.8027 54.3988L54.0525 52.638C54.1712 52.4707 54.3568 52.3748 54.5618 52.3748C54.6524 52.3748 54.7886 52.395 54.9238 52.4918L55.538 52.9309L54.4885 54.4095C54.1894 54.8309 54.2886 55.4152 54.7102 55.7145C54.8746 55.8312 55.0637 55.8873 55.251 55.8873C55.5441 55.8873 55.8326 55.7501 56.0152 55.4929L57.0608 54.0196L58.3893 54.9694L57.3569 56.4241C57.0578 56.8455 57.1569 57.4298 57.5785 57.7291C57.7429 57.8458 57.932 57.9019 58.1193 57.9019C58.4124 57.9019 58.701 57.7647 58.8835 57.5075L59.9121 56.0581L61.174 56.9602L60.1341 58.4255C59.835 58.8469 59.9341 59.4312 60.3557 59.7305C60.5201 59.8472 60.7092 59.9033 60.8965 59.9033C61.1896 59.9033 61.4782 59.766 61.6607 59.5088L62.6968 58.049L63.7054 58.77L61.7276 61.5569L52.9511 55.2824ZM63.7846 63.0274L63.2505 62.6456L65.2283 59.8587L65.7624 60.2407L63.7846 63.0274Z" fill="#C7857A"/>
<path d="M3.36738 28.7643C5.04968 17.2769 9.32285 9.34156 16.0681 5.17885C25.4155 -0.589874 36.4725 2.96618 36.5824 3.00253C36.7013 3.04212 36.8276 3.05717 36.9517 3.04753C44.8089 2.42639 49.5668 6.69921 52.1767 10.3924C55.3191 14.8389 56.6971 20.3455 56.0567 25.8978C55.568 30.1331 54.8088 38.4235 55.2149 46.3602C55.2405 46.8603 55.6538 47.2484 56.1488 47.2484C56.165 47.2484 56.1811 47.248 56.1974 47.2472C56.7137 47.2209 57.1108 46.7809 57.0844 46.2646C56.6853 38.4632 57.4342 30.29 57.9163 26.1123C58.6096 20.1018 57.1142 14.1353 53.7056 9.3121C50.8354 5.25063 45.6095 0.557626 36.9874 1.16759C36.2724 0.9499 33.6001 0.205783 29.9723 0.0340794C26.1086 -0.148663 20.3921 0.317087 15.102 3.57523C7.85409 8.03937 3.2828 16.4229 1.51514 28.493C1.44019 29.0044 1.79414 29.4798 2.30559 29.5547C2.81641 29.6295 3.29236 29.2756 3.36738 28.7643Z" fill="#C7857A"/>
<path d="M13.2085 19.2721C12.7027 19.3785 12.3789 19.8749 12.4853 20.3808C12.5781 20.8216 12.967 21.1243 13.4004 21.1243C13.4642 21.1243 13.529 21.1176 13.594 21.104C22.1316 19.3079 28.1267 16.2627 31.4126 12.0531C33.9697 8.77724 33.8509 5.99638 33.8446 5.87959C33.8167 5.36342 33.375 4.9637 32.8593 4.99161C32.3431 5.01953 31.9471 5.45673 31.975 5.97296C31.9758 5.99582 32.0349 8.29152 29.8273 11.0398C27.7387 13.6397 23.1602 17.1785 13.2085 19.2721Z" fill="#C7857A"/>
</svg>
