<svg width="72" height="72" viewBox="0 0 72 72" fill="none" xmlns="http://www.w3.org/2000/svg">
<g clip-path="url(#clip0_5_299)">
<path d="M52.6102 52.312C52.4315 51.9558 52.0673 51.731 51.6687 51.731C51.2703 51.731 50.9058 51.9558 50.7272 52.312C50.6045 52.5568 47.7138 58.3493 47.2513 61.8499C47.0523 63.357 47.5424 65.0141 48.5304 66.1747C50.2186 68.1574 53.1142 68.1624 54.8068 66.1747C55.7949 65.0143 56.285 63.3571 56.086 61.8499C55.6234 58.3492 52.733 52.5567 52.6102 52.312ZM53.2028 64.8088C52.3446 65.8168 50.9946 65.819 50.1344 64.8088C49.5301 64.0991 49.2182 63.0459 49.3397 62.1257C49.5993 60.1604 50.7974 57.216 51.6686 55.2661C52.5396 57.216 53.7377 60.1604 53.9973 62.1257C54.119 63.0459 53.8071 64.0991 53.2028 64.8088Z" fill="#C7857A"/>
<path d="M12.7014 12.9729C13.2774 13.05 13.8076 12.6441 13.8841 12.0674C14.3429 8.61031 16.8767 5.12646 20.0458 3.59562C24.555 1.41734 30.1455 1.63784 35.0004 4.18554C37.899 5.7064 40.1146 7.64196 41.4076 9.78284C41.9276 10.6442 42.3291 11.8099 42.6009 13.248C42.6964 13.7535 43.1384 14.1059 43.6347 14.1059C43.6995 14.1059 43.7653 14.0999 43.8314 14.0874C44.403 13.9794 44.7788 13.4284 44.6708 12.8568C44.3523 11.1714 43.8612 9.77074 43.2108 8.6937C41.6977 6.18846 39.2646 4.04393 35.9793 2.32015C30.5357 -0.536224 24.2367 -0.768537 19.1294 1.69873C15.2985 3.54949 12.3514 7.60498 11.7958 11.7903C11.7193 12.3668 12.1247 12.8964 12.7014 12.9729Z" fill="#C7857A"/>
<path d="M23.6853 58.3634C23.2739 58.7748 23.2739 59.4417 23.6853 59.8531C24.6602 60.828 25.9564 61.3649 27.3352 61.3649C28.714 61.3649 30.0102 60.828 30.9851 59.8531C31.3964 59.4417 31.3964 58.7748 30.9851 58.3634C30.5738 57.9521 29.9068 57.9521 29.4955 58.3634C28.9183 58.9404 28.1512 59.2582 27.3352 59.2582C26.5191 59.2582 25.7519 58.9404 25.1749 58.3634C24.7634 57.9521 24.0966 57.9521 23.6853 58.3634Z" fill="#C7857A"/>
<path d="M29.7524 51.7244C30.1638 51.3131 30.1638 50.6461 29.7524 50.2348C29.3411 49.8234 28.6741 49.8234 28.2628 50.2348C28.015 50.4825 27.6855 50.6191 27.3351 50.6191C26.9847 50.6191 26.6553 50.4827 26.4074 50.2348C25.9961 49.8234 25.3291 49.8234 24.9177 50.2348C24.5064 50.6461 24.5064 51.3131 24.9177 51.7244C25.5635 52.3702 26.4219 52.7258 27.335 52.7258C28.2482 52.7258 29.1067 52.3702 29.7524 51.7244Z" fill="#C7857A"/>
<path d="M22.3827 41.1603C21.9714 40.749 21.3044 40.749 20.8931 41.1603C20.0444 42.009 18.9161 42.4763 17.716 42.4763C16.5157 42.4763 15.3873 42.0088 14.5387 41.1603C14.1273 40.749 13.4604 40.749 13.049 41.1603C12.6377 41.5716 12.6377 42.2386 13.049 42.6499C13.2951 42.896 13.5577 43.1192 13.8333 43.3207L13.1905 44.5166C12.915 45.029 13.1073 45.6676 13.6196 45.943C13.7782 46.0283 13.9489 46.0687 14.1174 46.0687C14.4926 46.0687 14.8559 45.8676 15.0461 45.5139L15.7129 44.2735C16.0221 44.3716 16.3394 44.4468 16.6627 44.4985V45.7244C16.6627 46.3062 17.1343 46.7777 17.716 46.7777C18.2977 46.7777 18.7692 46.3061 18.7692 45.7244V44.4985C19.0925 44.4468 19.4098 44.3716 19.719 44.2735L20.3857 45.5139C20.5758 45.8677 20.9391 46.0687 21.3144 46.0687C21.4827 46.0687 21.6536 46.0282 21.8122 45.943C22.3247 45.6676 22.5168 45.0289 22.2413 44.5166L21.5985 43.3207C21.8741 43.1193 22.1366 42.896 22.3827 42.6499C22.7941 42.2385 22.7941 41.5716 22.3827 41.1603Z" fill="#C7857A"/>
<path d="M41.6211 41.1603C41.2099 40.749 40.543 40.7491 40.1315 41.1603C39.283 42.009 38.1546 42.4763 36.9545 42.4763C35.7542 42.4763 34.6259 42.0088 33.7772 41.1603C33.3659 40.749 32.6989 40.749 32.2876 41.1603C31.8762 41.5716 31.8762 42.2386 32.2876 42.6499C32.5335 42.8959 32.7961 43.1192 33.0718 43.3206L32.429 44.5165C32.1535 45.0288 32.3456 45.6675 32.8579 45.943C33.0167 46.0283 33.1874 46.0687 33.3559 46.0687C33.7311 46.0687 34.0943 45.8676 34.2846 45.5139L34.9514 44.2735C35.2607 44.3716 35.5779 44.4469 35.9012 44.4985V45.7244C35.9012 46.3062 36.3727 46.7777 36.9545 46.7777C37.5362 46.7777 38.0078 46.3061 38.0078 45.7244V44.4985C38.3311 44.4469 38.6482 44.3716 38.9574 44.2735L39.6241 45.5138C39.8144 45.8676 40.1775 46.0685 40.5529 46.0685C40.7213 46.0685 40.892 46.028 41.0506 45.9428C41.563 45.6675 41.7551 45.0288 41.4798 44.5165L40.8369 43.3206C41.1125 43.1192 41.3752 42.8959 41.6211 42.6498C42.0325 42.2386 42.0325 41.5718 41.6211 41.1603Z" fill="#C7857A"/>
<path d="M66.4182 29.3073C65.7732 28.6624 64.916 28.3073 64.0039 28.3073C63.0919 28.3073 62.2347 28.6626 61.5897 29.3073L57.2796 33.6173L56.2435 32.5812C55.6842 32.022 54.7743 32.022 54.2144 32.5812L51.9345 34.8613C51.3752 35.4207 51.3752 36.331 51.9345 36.8903L53.1668 38.1226L48.0238 43.2655C47.9594 42.0548 47.8607 40.867 47.7522 39.7229L47.6904 39.05C47.896 38.6188 48.3556 37.6553 48.3706 37.6239C51.0068 32.0972 50.6269 25.1877 47.403 20.021C44.2521 14.9715 38.9811 12.0618 34.088 9.00263C30.9161 7.01897 27.3209 4.77052 23.3373 5.2516C21.2117 5.50824 19.3283 6.59822 18.0343 8.32102C17.2348 9.38513 16.7308 10.6006 16.5425 11.8755C14.546 12.9908 12.4696 14.4261 10.5204 16.2696C4.72878 21.7469 2.85129 30.3239 6.33345 37.624L6.98553 38.9912L6.91873 39.7198C6.50431 44.0901 6.18481 49.1416 7.64731 53.7848C7.78892 54.2342 8.20404 54.522 8.65165 54.522C8.75642 54.522 8.86301 54.5062 8.96834 54.473C9.52311 54.2984 9.83122 53.7069 9.65642 53.152C8.31218 48.8844 8.621 44.0836 9.01615 39.9155L9.09462 39.0602C9.29979 38.5637 9.47825 38.0529 9.64981 37.5567C10.1063 36.2363 10.5376 34.9893 11.4097 34.2113C13.22 32.5967 15.5288 31.4862 17.7618 30.4119C21.0302 28.8379 24.2934 27.1781 27.2185 25.0045C29.1427 26.2184 30.9722 27.2965 32.7853 28.2868C33.2958 28.5654 33.9356 28.3777 34.2146 27.8672C34.4935 27.3567 34.3056 26.7167 33.795 26.4379C30.5201 24.6493 27.1856 22.5663 23.3013 19.8826C20.6022 18.018 19.0604 16.5224 18.6424 13.9642C18.3874 12.4045 18.7696 10.8499 19.7187 9.5865C20.6648 8.32707 22.0397 7.53043 23.59 7.34325C26.8347 6.95203 30.095 8.99025 32.9713 10.789C37.5705 13.6653 42.6447 16.3748 45.6159 21.1365C48.3429 25.5065 48.769 31.288 46.7623 36.0637C46.3065 34.8111 45.7523 33.5808 44.6965 32.6392C42.6681 30.83 40.2162 29.6498 38.0531 28.6086C37.529 28.3564 36.8996 28.5765 36.6471 29.1008C36.3947 29.625 36.6152 30.2544 37.1393 30.5067C39.1773 31.4877 41.487 32.5995 43.2942 34.2113C44.1665 34.9891 44.5976 36.2363 45.0543 37.5567C45.2137 38.0176 45.3791 38.4911 45.5661 38.9542L45.6546 39.9186C45.8179 41.6407 45.963 43.461 45.9862 45.3033L35.7612 55.5284C35.1687 56.1209 34.8425 56.9085 34.8425 57.7465C34.8424 60.4448 38.2972 61.8647 40.1974 59.9646C40.199 59.9629 43.381 56.781 43.381 56.781C41.3415 60.2775 37.6152 64.525 32.0202 68.0187C30.7697 68.7995 28.5007 69.8945 27.3548 69.8945C27.3507 69.8945 27.3465 69.8945 27.3425 69.8945H27.3282C26.188 69.9058 23.9054 68.8024 22.6506 68.0187C18.0602 65.1524 14.0484 61.2845 11.6437 57.4069C11.3372 56.9126 10.6879 56.7601 10.1935 57.0668C9.69917 57.3734 9.54673 58.0228 9.85343 58.5171C12.4224 62.6596 16.6801 66.7742 21.5346 69.8055C21.6786 69.8955 25.0761 72.0011 27.3181 72.0011H27.3522C29.5941 72.0008 32.9917 69.8955 33.1357 69.8056C39.5096 65.8257 44.5462 60.2784 46.6084 54.967C46.8746 54.2815 47.0961 53.5847 47.2813 52.8806L57.6029 42.559L58.8352 43.7913C59.1151 44.071 59.4824 44.2108 59.8497 44.2108C60.2172 44.2108 60.5846 44.071 60.8643 43.7913L63.1443 41.5112C63.7035 40.9518 63.7035 40.0415 63.1443 39.4823L62.1081 38.4461L66.4183 34.136C67.7495 32.8045 67.7493 30.6383 66.4182 29.3073ZM22.1037 21.6157C23.2148 22.3834 24.2809 23.1014 25.3156 23.7798C22.7468 25.5899 19.917 27.034 17.2651 28.313L16.8483 28.5136C14.4841 29.651 12.0395 30.8271 10.0077 32.6392C8.95147 33.5811 8.39726 34.8121 7.94136 36.0652C5.39295 30.0545 6.70976 23.0425 11.3214 18.4102C12.8502 16.8747 14.676 15.4611 16.5649 14.3129C17.1599 17.9312 19.6272 19.9046 22.1037 21.6157ZM38.7077 58.4748C38.5132 58.6693 38.2545 58.7766 37.9794 58.7766C37.4089 58.7767 36.9489 58.3138 36.9489 57.7463C36.9489 57.4711 37.0562 57.2124 37.2508 57.0178L54.6563 39.6122L56.1133 41.0692L38.7077 58.4748ZM59.8497 41.8263L53.8992 35.8758L55.2289 34.5459L61.1794 40.4964L59.8497 41.8263ZM64.9285 32.6462L60.6185 36.9563L58.7691 35.1071L63.0792 30.7971C63.5889 30.2872 64.4187 30.2871 64.9285 30.7971C65.4383 31.3067 65.4383 32.1363 64.9285 32.6462Z" fill="#C7857A"/>
</g>
<defs>
<clipPath id="clip0_5_299">
<rect width="72" height="72" fill="white"/>
</clipPath>
</defs>
</svg>
