<svg width="60" height="60" viewBox="0 0 60 60" fill="none" xmlns="http://www.w3.org/2000/svg">
<g clip-path="url(#clip0_582_134)">
<path d="M22.711 31.5939L20.9454 29.8283L24.3983 26.3749C24.7998 25.9716 25.0484 25.4415 25.1015 24.8748C25.7762 17.1381 32.2728 11.2124 40.0392 11.2499H47.5392C49.6101 11.2499 51.2892 12.929 51.2892 14.9999V17.4998C51.2892 19.5712 49.6101 21.2498 47.5392 21.2498H43.7892C38.9603 21.2585 35.0478 25.171 35.0391 29.9999H32.5392C32.5475 23.7904 37.5797 18.7586 43.7892 18.7499H47.5392C48.2295 18.7499 48.7889 18.1901 48.7889 17.4998V14.9999C48.7889 14.3096 48.2295 13.7498 47.5392 13.7498H40.0392C33.5641 13.7173 28.147 18.6584 27.5858 25.1092C27.4777 26.2618 26.9687 27.3399 26.1484 28.1561L22.711 31.5939Z" fill="white"/>
<path d="M25.2736 26.8438C20.9766 22.7047 20.0492 16.1719 23.0233 11.0001L19.6642 7.64059L21.4298 5.875L26.2422 10.6875L25.6485 11.5471C22.7413 15.7664 23.3094 21.4687 26.9921 25.0315L25.2736 26.8438Z" fill="white"/>
<path d="M30.0544 8.03146L24.6638 2.64084L26.4299 0.874786L30.8047 5.25009C31.3755 5.1265 31.9555 5.04822 32.5392 5.01572V0H35.039V7.60941L33.7111 7.51556C32.7159 7.45239 31.7175 7.55814 30.7576 7.82822L30.0544 8.03146Z" fill="white"/>
<path d="M41.5549 13.0312C40.9918 11.8245 40.1953 10.741 39.2111 9.84375L38.7891 9.48441V0H41.2889V8.39081C42.3349 9.42673 43.1914 10.638 43.8203 11.9687L41.5549 13.0312Z" fill="white"/>
<path d="M30.0389 60C21.6486 60 8.78906 46.5623 8.78906 30C8.78906 22.1095 14.4296 15.0155 22.836 12.3591L23.5858 14.75C16.2263 17.0782 11.2889 23.2031 11.2889 30C11.2889 45.8908 23.6174 57.5001 30.0389 57.5001C36.4609 57.5001 48.7889 45.8908 48.7889 30C48.7889 26.6876 47.6486 23.5002 45.4765 20.7811L47.4298 19.2187C49.9608 22.3906 51.2892 26.1094 51.2892 30C51.2892 46.5623 38.4297 60 30.0389 60Z" fill="white"/>
</g>
<defs>
<clipPath id="clip0_582_134">
<rect width="60" height="60" fill="white"/>
</clipPath>
</defs>
</svg>
