<svg width="72" height="72" viewBox="0 0 72 72" fill="none" xmlns="http://www.w3.org/2000/svg">
<path d="M23.9805 40.2897C24.6165 40.2417 25.0958 39.6889 25.0493 39.0514C25.0095 38.5099 24.9803 37.9459 24.9578 37.3624C24.9353 36.7249 24.405 36.1354 23.7608 36.2509C23.1233 36.2734 22.626 36.8097 22.6508 37.4464C22.6733 38.0584 22.704 38.6509 22.7453 39.2202C22.7888 39.8262 23.2965 40.2919 23.8958 40.2919C23.9243 40.2927 23.952 40.2897 23.9805 40.2897Z" fill="#C7857A"/>
<path d="M23.7563 34.3801C24.3938 34.3801 24.9113 33.7231 24.9113 33.0856L24.9158 31.6359C24.9218 30.9984 24.4081 30.4771 23.7691 30.4711C23.1106 30.4539 22.6103 30.9819 22.6058 31.6186L22.6013 33.3616C22.6013 33.9991 23.1188 34.3801 23.7563 34.3801Z" fill="#C7857A"/>
<path d="M32.1293 25.1824C31.689 24.7196 30.9578 24.7031 30.4965 25.1456C30.0368 25.5859 30.0203 26.3186 30.4598 26.7784C30.8235 27.1594 31.1775 27.5681 31.5173 28.0024C31.7445 28.2956 32.0843 28.4479 32.4285 28.4479C32.6768 28.4479 32.928 28.3661 33.1395 28.2026C33.6413 27.8081 33.7305 27.0829 33.3368 26.5811C32.9483 26.0846 32.544 25.6136 32.1293 25.1824Z" fill="#C7857A"/>
<path d="M35.6137 39.244C36.1537 39.244 36.6375 38.8608 36.7462 38.3103C36.876 37.6473 36.9435 36.9963 36.9435 36.367V36.3363C36.9435 35.6988 36.4275 35.197 35.7885 35.197C35.1495 35.197 34.6335 35.7303 34.6335 36.367C34.6335 36.8493 34.5802 37.354 34.4782 37.8648C34.3552 38.491 34.7632 39.097 35.3895 39.2215C35.4645 39.2358 35.5387 39.244 35.6137 39.244Z" fill="#C7857A"/>
<path d="M29.481 44.6616C29.0272 44.8701 28.5615 45.0223 28.0965 45.1131C27.4702 45.2368 27.0645 45.8436 27.1882 46.4698C27.2955 47.0196 27.7777 47.4036 28.3192 47.4036C28.3927 47.4036 28.4685 47.3953 28.545 47.3811C29.1862 47.2543 29.8252 47.0458 30.4455 46.7608C31.0237 46.4961 31.2787 45.8106 31.0125 45.2293C30.7462 44.6481 30.0592 44.3886 29.481 44.6616Z" fill="#C7857A"/>
<path d="M33.1418 41.2288C32.871 41.6713 32.568 42.0943 32.2335 42.4948C31.8233 42.9831 31.8863 43.7106 32.376 44.1223C32.592 44.3031 32.8553 44.3931 33.1178 44.3931C33.4478 44.3931 33.7748 44.2521 34.0035 43.9783C34.4123 43.4931 34.7835 42.9741 35.1158 42.4303C35.4473 41.8858 35.2748 41.1756 34.7295 40.8426C34.185 40.5186 33.4748 40.6851 33.1418 41.2288Z" fill="#C7857A"/>
<path d="M23.8125 28.7379C23.8493 28.7409 23.8845 28.7439 23.9198 28.7439C24.5093 28.7439 25.014 28.2924 25.0688 27.6946C25.1213 27.1164 25.1918 26.5809 25.287 26.0986C25.4123 25.4724 25.0065 24.8664 24.3818 24.7396C23.7585 24.6211 23.1465 25.0186 23.0228 25.6479C22.911 26.2036 22.8285 26.8179 22.7678 27.4809C22.71 28.1176 23.178 28.6786 23.8125 28.7379Z" fill="#C7857A"/>
<path d="M28.6155 22.4928C28.1603 22.2671 27.7103 22.0953 27.2745 21.9798C27.015 21.9153 26.76 21.8726 26.5185 21.8613C25.8743 21.8696 25.338 22.3181 25.3058 22.9556C25.2735 23.5931 25.764 24.1376 26.4 24.1683C26.4863 24.1743 26.5875 24.1908 26.6933 24.2163C26.9723 24.2898 27.273 24.4053 27.5873 24.5636C27.7523 24.6453 27.9285 24.6851 28.1018 24.6851C28.5248 24.6851 28.9335 24.4481 29.1368 24.0423C29.4203 23.4708 29.1878 22.7771 28.6155 22.4928Z" fill="#C7857A"/>
<path d="M23.9708 45.2655C24.1681 45.6855 24.5843 45.9307 25.0171 45.9307C25.1821 45.9307 25.3501 45.894 25.5076 45.8205C26.0858 45.5497 26.3341 44.862 26.0633 44.2837C25.8743 43.8802 25.7176 43.404 25.5841 42.8595C25.4318 42.2392 24.8003 41.8695 24.1853 42.0135C23.5666 42.1657 23.1886 42.792 23.3408 43.4122C23.5156 44.1202 23.7256 44.7442 23.9708 45.2655Z" fill="#C7857A"/>
<path d="M35.5642 30.2764C35.3032 29.6951 34.6222 29.4356 34.0372 29.6981C33.4552 29.9576 33.1965 30.6431 33.4575 31.2236C33.6772 31.7089 33.8707 32.2076 34.0342 32.7184C34.191 33.2089 34.6447 33.5224 35.1337 33.5224C35.2507 33.5224 35.3692 33.5029 35.4862 33.4661C36.0937 33.2719 36.4282 32.6231 36.2332 32.0134C36.0435 31.4186 35.8177 30.8404 35.5642 30.2764Z" fill="#C7857A"/>
<path d="M59.3384 11.849C58.0724 11.522 57.2039 11.9113 56.6999 12.2975C55.1534 13.4908 54.7769 16.2635 54.6861 19.919C51.4866 17.8723 47.4089 17.9998 44.8379 18.3793L46.9499 16.268L45.3156 14.6323L40.9109 19.037C40.4594 19.4885 40.4594 20.2213 40.9109 20.6728L45.6179 25.3798L47.2521 23.744L44.3234 20.816C46.6911 20.3645 51.7574 19.8575 54.6591 22.8583C54.6591 23.1575 54.6576 23.4463 54.6591 23.7523V24.5615C54.6591 30.9095 55.1796 37.4015 59.0414 37.4015C64.6514 37.4023 68.9999 31.4008 68.9999 26.237C68.9999 19.1218 63.1844 12.8638 59.3384 11.849ZM59.0421 35.0893C58.8306 35.0893 56.9691 34.796 56.9691 24.5615V23.7493C56.9646 19.8575 56.9609 15.0125 58.1099 14.1268C58.1519 14.096 58.2329 14.0308 58.4174 14.0308C58.5036 14.0308 58.6109 14.045 58.7474 14.0818C61.8704 14.9083 66.6906 20.4973 66.6906 26.2363C66.6899 29.762 63.6389 35.0893 59.0421 35.0893Z" fill="#C7857A"/>
<path d="M46.4235 32.3995H45.2475C44.0107 30.5695 40.6522 25.7298 33.8017 19.0435C28.7887 14.1475 28.2292 12.76 27.8047 4.20703L25.4977 4.31953C25.9477 13.4058 26.76 15.397 32.1885 20.6958C37.1692 25.5565 40.2217 29.3748 41.9647 31.7553C40.8367 32.8773 40.167 34.4073 40.167 36.0685C40.167 38.1535 41.2387 40.0105 42.9112 41.134C42.8805 41.2135 42.8602 41.2758 42.828 41.359C42.6487 41.8443 42.3892 42.301 42.1185 42.7638C38.847 48.7353 32.9542 51.718 26.3467 50.8135C23.7097 50.1918 21.4005 49.1523 19.845 47.8825C18.345 46.6585 17.0895 45.3273 16.1167 43.9285L14.2215 45.2485C15.3157 46.825 16.7175 48.3115 18.384 49.6705C20.4345 51.3445 22.9612 52.2873 24.9862 52.837C25.0102 54.6955 24.834 56.482 23.6662 59.5465C22.1647 63.4863 23.7427 65.8668 24.5895 67.144C24.7432 67.3728 24.9435 67.6713 24.9772 67.6795L27.2842 67.792C27.321 67.081 26.9287 66.4893 26.514 65.866C25.7272 64.6788 24.7455 63.1983 25.8247 60.3693C27.0405 57.1795 27.3022 55.1658 27.3112 53.2368C34.3125 53.7303 40.6605 50.2308 44.1292 43.9023C44.451 43.3495 44.7697 42.7683 44.9835 42.1878C45.2782 41.449 45.507 40.8063 45.6885 40.1995H46.4235C48.5737 40.1995 50.322 38.4483 50.322 36.2995C50.322 34.1508 48.5737 32.3995 46.4235 32.3995ZM46.4235 37.8873H44.8065C44.2732 37.8873 43.8112 38.254 43.6837 38.77C43.6807 38.7873 43.674 38.8053 43.6695 38.8218C42.9405 38.1085 42.4762 37.1223 42.4762 36.0685C42.4762 35.1708 42.792 34.3405 43.3222 33.6805C43.3717 33.7525 43.6807 34.207 43.6807 34.207C43.8952 34.5228 44.2515 34.7118 44.634 34.7118H46.4235C47.2852 34.7118 48.0127 35.4393 48.0127 36.2995C48.0127 37.1598 47.2845 37.8873 46.4235 37.8873Z" fill="#C7857A"/>
<path d="M3 4.26367H5.31V67.7369H3V4.26367Z" fill="#C7857A"/>
</svg>
