<svg width="72" height="72" viewBox="0 0 72 72" fill="none" xmlns="http://www.w3.org/2000/svg">
<path d="M44.7741 30.1799C38.9436 28.6686 32.6496 28.6004 26.6909 30.0119C16.8839 32.2521 8.51313 38.3346 3.71388 46.7181C3.06588 47.9061 3.06588 49.3229 3.72288 50.5274C9.95688 61.4526 22.0926 68.2379 35.3954 68.2379C48.6644 68.2379 60.7889 61.4526 67.0379 50.5326C67.7286 49.3311 67.7286 47.8986 67.0386 46.7001C62.3909 38.5769 54.2729 32.5566 44.7741 30.1799ZM65.2889 49.5231L65.2881 49.5261C59.3976 59.8229 47.9436 66.2189 35.3961 66.2189C22.8164 66.2189 11.3526 59.8229 5.48688 49.5441C5.16438 48.9524 5.16438 48.2774 5.47638 47.7044C9.98613 39.8249 17.8821 34.0949 27.1484 31.9784C29.8559 31.3371 32.6301 31.0109 35.3954 31.0109C38.4074 31.0109 41.3924 31.3896 44.2754 32.1389C53.2514 34.3814 60.9104 40.0544 65.2881 47.7066C65.6211 48.2819 65.6211 48.9471 65.2889 49.5231Z" fill="#C7857A"/>
<path d="M58.0882 24.7478L56.8725 26.3618C58.266 27.4133 59.5822 28.5751 60.7845 29.8186L62.2357 28.4146C60.9607 27.0976 59.5657 25.8623 58.0882 24.7478Z" fill="#C7857A"/>
<path d="M63.0181 32.3787C64.0943 33.743 65.0663 35.2047 65.9086 36.7212L67.6733 35.738C66.7793 34.1292 65.7466 32.5782 64.6036 31.127L63.0181 32.3787Z" fill="#C7857A"/>
<path d="M35.2207 19.1772C36.1942 19.1532 37.1692 19.2117 38.13 19.2852L38.2852 17.2715C37.3065 17.195 36.3187 17.1582 35.3257 17.1582C34.4625 17.1657 33.6082 17.1845 32.7615 17.2422L32.8965 19.256C33.6637 19.2065 34.4377 19.1772 35.2207 19.1772Z" fill="#C7857A"/>
<path d="M7.65825 32.3819L6.072 31.1309C4.92825 32.5844 3.89475 34.1354 3 35.7389L4.764 36.7221C5.60625 35.2109 6.5805 33.7491 7.65825 32.3819Z" fill="#C7857A"/>
<path d="M21.2393 22.0281L20.4488 20.1719C18.7576 20.8896 17.1053 21.7439 15.5386 22.7114L16.5991 24.4304C18.0803 23.5161 19.6411 22.7091 21.2393 22.0281Z" fill="#C7857A"/>
<path d="M29.5147 19.6392L29.1929 17.6465C27.3749 17.9382 25.5659 18.3695 23.8162 18.9237L24.4259 20.8482C26.0819 20.3232 27.7934 19.9182 29.5147 19.6392Z" fill="#C7857A"/>
<path d="M13.7978 26.3513L12.5738 24.7478C11.1 25.8706 9.70951 27.1058 8.43976 28.4206L9.89176 29.8246C11.0903 28.5826 12.405 27.4133 13.7978 26.3513Z" fill="#C7857A"/>
<path d="M35.3918 34.041C27.3503 34.041 20.8088 40.584 20.8088 48.6255C20.8088 56.667 27.3511 63.21 35.3918 63.21H35.4053C43.4431 63.2048 49.9793 56.6618 49.9748 48.6255C49.9748 40.584 43.4333 34.041 35.3918 34.041ZM35.4046 61.191H35.3918C28.4641 61.191 22.8278 55.5548 22.8278 48.6255C22.8278 41.6963 28.4641 36.06 35.3918 36.06C42.3196 36.06 47.9566 41.6963 47.9566 48.6255C47.9596 55.5495 42.3286 61.1858 35.4046 61.191Z" fill="#C7857A"/>
<path d="M35.3917 41.4043C31.4099 41.4043 28.1707 44.6428 28.1707 48.6253C28.1707 52.6078 31.4099 55.8463 35.3917 55.8463H35.3992C39.3787 55.844 42.6149 52.6025 42.6134 48.6253C42.6127 44.6428 39.3734 41.4043 35.3917 41.4043ZM35.3969 53.8273H35.3909C32.5222 53.8273 30.1889 51.4933 30.1889 48.6253C30.1889 45.7573 32.5229 43.4233 35.3909 43.4233C38.2589 43.4233 40.5929 45.7573 40.5929 48.6253C40.5952 51.4903 38.2634 53.825 35.3969 53.8273Z" fill="#C7857A"/>
<path d="M62.103 5.06334L54.6735 12.4951L46.773 20.3941L47.214 19.0583C45.471 18.4823 43.6672 18.0308 41.8515 17.7173L41.5065 19.7048C43.122 19.9868 44.7255 20.3843 46.2817 20.8846L40.0342 27.1313L41.8087 27.5416C43.2202 27.8678 44.5785 28.0118 45.8805 28.0118C55.9155 28.0118 62.4967 19.4101 62.8065 18.9976L63.3315 18.2986L62.025 16.9921L67.7887 10.7521C69.4035 9.13809 69.4035 6.51159 67.7887 4.89234C66.2175 3.32559 63.7732 3.39684 62.103 5.06334ZM44.1315 25.8908L56.1007 13.9216L60.6337 18.4561C58.7887 20.5516 52.527 26.7931 44.1315 25.8908ZM66.3337 9.35109L60.597 15.5626L57.528 12.4951L63.5302 6.49359C64.2532 5.77359 65.4472 5.41059 66.3607 6.32034C67.1887 7.15059 67.1895 8.49609 66.3337 9.35109Z" fill="#C7857A"/>
</svg>
