<svg width="48" height="48" viewBox="0 0 48 48" fill="none" xmlns="http://www.w3.org/2000/svg">
<path d="M24.3733 43.3731L21.0667 42.0398C17.2275 40.5167 13.9357 37.8734 11.6195 34.4538C9.3033 31.0342 8.06997 26.9966 8.07999 22.8664V10.0931C12.1165 9.95689 16.0843 9.00916 19.7467 7.30645C19.8671 7.25185 19.9755 7.17391 20.0655 7.07715C20.1556 6.98038 20.2257 6.86672 20.2715 6.74272C20.3174 6.61872 20.3382 6.48686 20.3328 6.35476C20.3274 6.22266 20.2959 6.09294 20.24 5.97311C20.1244 5.73472 19.921 5.55027 19.6725 5.45833C19.424 5.36638 19.1496 5.37407 18.9067 5.47978C15.2058 7.21966 11.1694 8.12978 7.07999 8.14645C6.94579 8.14644 6.81292 8.17308 6.6891 8.22484C6.56528 8.2766 6.45297 8.35243 6.3587 8.44795C6.26443 8.54346 6.19007 8.65675 6.13993 8.78123C6.0898 8.90572 6.06489 9.03892 6.06666 9.17312V22.8664C6.03847 27.4146 7.38401 31.8652 9.92717 35.636C12.4703 39.4067 16.0926 42.3218 20.32 43.9998L23.6267 45.3331C23.751 45.3821 23.8837 45.4062 24.0173 45.4039C24.151 45.4016 24.2828 45.3731 24.4054 45.3198C24.528 45.2666 24.6389 45.1897 24.7317 45.0936C24.8246 44.9975 24.8976 44.8841 24.9467 44.7598C24.9957 44.6355 25.0197 44.5027 25.0175 44.3691C25.0152 44.2355 24.9866 44.1036 24.9334 43.981C24.8801 43.8585 24.8033 43.7476 24.7072 43.6547C24.6111 43.5618 24.4976 43.4888 24.3733 43.4398V43.3731Z" fill="#C7857A"/>
<path d="M40.9333 8.07933C35.3816 8.09166 29.9517 6.45338 25.3333 3.37266L24.5333 2.83933C24.4234 2.76453 24.2996 2.71239 24.1694 2.68597C24.0391 2.65955 23.9048 2.65936 23.7745 2.68543C23.6441 2.71151 23.5203 2.76331 23.4102 2.83781C23.3001 2.91231 23.2059 3.00802 23.1333 3.11933C23.0581 3.23028 23.0057 3.35503 22.9791 3.48636C22.9526 3.61769 22.9523 3.75299 22.9783 3.88443C23.0043 4.01587 23.0562 4.14084 23.1309 4.25211C23.2055 4.36338 23.3015 4.45874 23.4133 4.53266L24.2133 5.066C28.8786 8.17142 34.3184 9.91235 39.9199 10.0927V22.866C39.9063 26.7397 38.8105 30.5326 36.7562 33.8167C34.7018 37.1009 31.7706 39.7456 28.2933 41.4527C28.0548 41.5678 27.8717 41.7729 27.7842 42.0228C27.6967 42.2728 27.712 42.5473 27.8266 42.786C27.942 43.0244 28.1462 43.2081 28.3954 43.2978C28.6446 43.3875 28.919 43.3761 29.1599 43.266C32.9765 41.3889 36.1932 38.4835 38.4476 34.8769C40.7021 31.2703 41.9046 27.1059 41.9199 22.8527V9.106C41.9235 8.8395 41.822 8.58232 41.6373 8.39015C41.4526 8.19799 41.1997 8.08632 40.9333 8.07933Z" fill="#C7857A"/>
<path d="M22.3866 34.4925C23.6247 34.4881 24.8411 34.1668 25.9199 33.5592C26.7222 34.1658 27.7008 34.4935 28.7066 34.4925C29.9502 34.489 31.142 33.9934 32.0214 33.114C32.9008 32.2346 33.3964 31.0429 33.3999 29.7992C33.3999 26.1325 29.6132 21.9192 29.3999 21.7325C29.306 21.6275 29.1909 21.5435 29.0622 21.4861C28.9335 21.4286 28.7942 21.399 28.6532 21.3992C28.5002 21.3997 28.3495 21.4362 28.2132 21.5059C26.8481 18.7349 25.122 16.1569 23.0799 13.8392C22.986 13.7342 22.8709 13.6502 22.7422 13.5927C22.6135 13.5353 22.4742 13.5057 22.3332 13.5059C22.1903 13.5055 22.0489 13.5349 21.9181 13.5923C21.7872 13.6497 21.6697 13.7338 21.5732 13.8392C21.3066 14.1325 14.9866 21.1592 14.9866 27.1725C14.9901 28.1396 15.1844 29.0964 15.5585 29.9881C15.9326 30.8799 16.4791 31.689 17.1666 32.3691C17.8541 33.0492 18.6691 33.5868 19.5649 33.9512C20.4607 34.3156 21.4196 34.4996 22.3866 34.4925ZM31.3732 29.7992C31.3732 30.5064 31.0923 31.1847 30.5922 31.6848C30.0921 32.1849 29.4138 32.4659 28.7066 32.4659C27.9993 32.4659 27.3211 32.1849 26.821 31.6848C26.3209 31.1847 26.0399 30.5064 26.0399 29.7992C26.0399 27.9059 27.5999 25.4659 28.7066 24.0125C29.8266 25.4659 31.3732 27.8925 31.3732 29.7992ZM22.3866 16.0925C24.1648 18.2512 25.6406 20.6421 26.7732 23.1992C25.6132 24.7859 23.9999 27.4125 23.9999 29.8659C24.0122 30.6134 24.2091 31.3462 24.5732 31.9992C23.8865 32.3121 23.1412 32.4757 22.3866 32.4792C20.9721 32.4792 19.6155 31.9173 18.6153 30.9171C17.6151 29.9169 17.0532 28.5604 17.0532 27.1459C17.0799 23.0792 20.7599 18.0925 22.3866 16.0925Z" fill="#C7857A"/>
</svg>
