<svg width="48" height="48" viewBox="0 0 48 48" fill="none" xmlns="http://www.w3.org/2000/svg">
<g clip-path="url(#clip0_5_448)">
<path d="M47.3228 0.0183842C46.9386 -0.0185533 46.5886 0.241322 46.5141 0.619978C46.5032 0.675291 45.3839 6.20101 41.873 10.1136C40.9075 11.1895 39.1004 12.7373 37.869 13.7561C37.8204 12.8409 37.6219 11.9633 37.2694 11.1954C36.6757 9.90235 35.7148 9.0062 34.4907 8.60382C32.5131 7.95404 30.9089 8.89276 29.8798 9.98823C29.8349 9.83532 29.7864 9.67632 29.7338 9.51329C29.2384 7.97654 28.649 6.85295 27.9814 6.17082C28.1441 6.17298 28.314 6.1742 28.4912 6.1742C30.4033 6.1742 33.1192 6.03498 35.8022 5.42138C39.503 4.5751 42.1511 3.35279 44.6565 1.33407C44.979 1.0742 45.0298 0.602072 44.77 0.279478C44.5102 -0.043022 44.0381 -0.0939283 43.7154 0.166041C42.081 1.48276 39.8231 2.96307 35.4678 3.95907C31.4473 4.87857 27.2174 4.66763 26.2262 4.60079C25.4102 3.96788 24.507 3.39817 23.268 2.70995C22.7372 2.4151 22.1422 2.15167 21.5122 1.87276C20.5002 1.42473 19.3533 0.916978 18.1421 0.135009C17.7942 -0.0898033 17.33 0.0103217 17.1053 0.358228C16.8806 0.706228 16.9806 1.17048 17.3285 1.3951C18.6385 2.24082 19.8426 2.77398 20.905 3.24432C21.5291 3.5206 22.0681 3.75929 22.5397 4.02123C23.7992 4.72088 24.6688 5.27317 25.4639 5.9087C25.4684 5.91245 25.4731 5.9161 25.4777 5.91976C25.9528 6.30048 26.4019 6.71138 26.8926 7.20188C27.9308 8.23989 28.6253 10.9308 28.8052 11.8798C28.8646 12.1945 29.1179 12.4359 29.4349 12.482C29.7527 12.5279 30.0638 12.3666 30.2102 12.0818C30.2696 11.9664 31.69 9.26232 34.0223 10.0289C35.0549 10.3683 35.6167 11.191 35.9061 11.8214C36.5742 13.2766 36.5449 15.2542 35.8297 16.9825C34.7609 19.565 33.3865 21.2401 32.0589 21.5784C31.5235 21.7149 30.7989 21.8042 30.3859 21.4556C29.947 21.085 29.9088 20.2898 29.9308 20.0185C29.9689 19.6061 29.6654 19.2409 29.2529 19.2028C28.8413 19.1646 28.4753 19.4682 28.4373 19.8807C28.4208 20.0594 28.3079 21.6539 29.4084 22.5933C29.8824 22.9978 30.4819 23.2007 31.1994 23.2007C31.5771 23.2007 31.9874 23.1444 32.4293 23.0319C33.5498 22.7463 35.1175 21.7849 36.5794 18.9374C36.7708 19.3861 37.0132 19.8958 37.3176 20.4465C37.8976 21.4959 38.996 23.0519 39.452 23.687C39.0594 24.8283 38.8682 25.7719 38.6944 26.6304L38.6403 26.897C38.5964 27.1109 37.5863 32.2202 39.2571 39.4591C40.3172 44.0522 41.8746 46.5035 42.9943 47.7509C43.1425 47.9159 43.3471 47.9999 43.5527 47.9999C43.7311 47.9999 43.9102 47.9366 44.0534 47.808C44.3617 47.5314 44.3873 47.0572 44.1105 46.7489C42.1995 44.62 41.1652 41.0564 40.7186 39.1217C39.1263 32.2227 40.0998 27.2466 40.1096 27.1978L40.1646 26.9279C40.5662 24.9435 41.0662 22.4739 44.3081 17.868C47.8962 12.7704 47.9998 5.83492 47.9998 5.06092V0.764822C47.9998 0.378759 47.7068 0.0557905 47.3226 0.0183842H47.3228ZM43.0817 17.0049C41.6628 19.0208 40.7411 20.6539 40.1166 22.0273C39.6221 21.316 39.0002 20.39 38.6304 19.7209C37.8955 18.3914 37.5616 17.3272 37.4487 16.9157C37.5671 16.5503 37.6616 16.1784 37.7312 15.8038C38.5747 15.1287 41.5648 12.703 42.9894 11.1154C44.5856 9.33657 45.7158 7.28542 46.4926 5.4901C46.4413 7.17282 46.0443 12.7959 43.0816 17.0049H43.0817Z" fill="#C7857A"/>
<path d="M7.43378 7.24868C7.43903 7.24362 7.96122 6.73999 8.72481 6.53065C10.0603 6.16446 11.5878 6.77477 12.634 7.35134C13.8376 8.01462 14.7043 8.79255 14.7123 8.79977C14.856 8.92999 15.0363 8.99421 15.216 8.99421C15.4203 8.99421 15.6238 8.91124 15.7718 8.74802C16.0501 8.44118 16.0268 7.9668 15.72 7.68865C15.5598 7.54343 11.7588 4.14377 8.32816 5.08409C7.18938 5.39627 6.45635 6.10493 6.37656 6.18462C6.08472 6.47618 6.08482 6.94709 6.3746 7.24062C6.66457 7.53415 7.13875 7.53687 7.43378 7.24868Z" fill="#C7857A"/>
<path d="M14.1422 13.4021C14.201 13.4163 14.26 13.4231 14.318 13.4231C14.6567 13.4231 14.964 13.192 15.0466 12.8483C15.1433 12.4455 14.8954 12.0406 14.4927 11.9438C14.4633 11.9366 11.5259 11.2254 10.0175 10.4506C8.37476 9.60675 7.67736 9.01332 7.65983 8.99822C7.34904 8.72616 6.87664 8.75644 6.60326 9.06647C6.32933 9.37716 6.35904 9.85107 6.66964 10.1251C6.69298 10.1457 7.10642 10.5062 8.02779 11.0615C7.98458 11.3778 7.95879 11.8052 8.00136 12.3369C8.03951 12.8147 8.14854 13.2162 8.27454 13.5383C8.01804 13.6981 7.87311 14.0043 7.9347 14.3185C8.00483 14.6764 8.31851 14.9244 8.66989 14.9244C8.7177 14.9244 8.76617 14.9198 8.81492 14.9104C8.87089 14.8994 10.1985 14.6381 11.2097 14.3314C12.2133 14.027 13.2991 13.4853 13.6829 13.2864C13.9458 13.3549 14.1141 13.3956 14.1423 13.4023L14.1422 13.4021ZM10.7742 12.8957C10.4525 12.9933 10.0884 13.0875 9.74848 13.1692C9.64545 12.9578 9.53023 12.6376 9.49657 12.217C9.48626 12.0878 9.48158 11.9692 9.48036 11.8587C10.0654 12.1438 10.7877 12.4124 11.4883 12.6434C11.2518 12.7369 11.0089 12.8244 10.7743 12.8956L10.7742 12.8957Z" fill="#C7857A"/>
<path d="M24.6921 27.5005C24.6196 27.5768 23.4084 28.8519 22.2557 30.1261C22.0314 29.8977 21.6761 29.831 21.3765 29.9857C21.3746 29.9866 21.2273 30.0628 20.9715 30.1918C20.6017 30.3784 20.4531 30.8294 20.6396 31.1993C20.7206 31.36 20.8517 31.4783 21.0042 31.5462C20.9619 31.5961 20.9205 31.6452 20.8805 31.6932C20.6549 31.9354 16.8209 36.0017 13.1132 36.7894C10.8339 37.2732 8.42991 35.5194 8.40704 35.5024C8.33907 35.4518 8.26313 35.413 8.18232 35.3877C7.55223 35.1909 7.50207 34.4508 7.62526 32.7566C7.6636 32.2286 7.70326 31.6825 7.67082 31.1952C7.56835 29.6584 6.76069 29.2437 6.17101 28.9409C5.93804 28.8213 5.73685 28.718 5.56801 28.5492C5.4482 28.4293 5.79798 27.8207 6.13548 27.4722C6.34098 27.2624 6.4052 26.952 6.29982 26.678C6.19435 26.404 5.9387 26.2166 5.64554 26.1987C5.42466 26.1851 4.5166 26.0298 4.44507 25.5648C4.41507 25.3694 4.63238 25.0722 4.84266 24.7847C5.13976 24.3785 5.47651 23.9181 5.47651 23.3226C5.47651 22.5359 4.67298 22.1648 3.65551 21.6948C2.85432 21.3247 1.51613 20.7065 1.5002 20.121C1.54941 19.7117 2.45804 18.1746 3.12226 17.0508C4.73298 14.3259 5.86763 12.2995 5.79751 11.0368C5.76938 10.5299 5.63945 9.91906 5.4752 9.14572C5.07423 7.2589 4.46813 4.4074 5.01085 0.877715C5.07376 0.468309 4.79298 0.0853402 4.38357 0.022434C3.9737 -0.0402848 3.59129 0.240403 3.52829 0.649715C2.94395 4.45072 3.58426 7.46375 4.00801 9.45753C4.15304 10.1396 4.2782 10.7286 4.29995 11.1199C4.3502 12.0255 2.83416 14.5903 1.83104 16.2874C0.626071 18.326 -0.00261681 19.4221 8.18657e-06 20.1177C0.00582069 21.6613 1.75173 22.4678 3.02635 23.0566C3.31773 23.1912 3.68963 23.363 3.90845 23.4927C3.8342 23.6225 3.71495 23.7856 3.63179 23.8992C3.29691 24.3572 2.8381 24.9844 2.96232 25.7927C3.0917 26.6336 3.69751 27.1344 4.34673 27.4104C4.11938 27.8473 3.74157 28.8444 4.50732 29.6099C4.84229 29.9449 5.19901 30.1281 5.4857 30.2753C5.96616 30.5219 6.12807 30.6051 6.17401 31.2948C6.19951 31.6779 6.16529 32.149 6.1291 32.6477C6.02148 34.1282 5.87504 36.1437 7.6126 36.7781C8.08248 37.1052 10.0492 38.3737 12.2848 38.3737C12.6593 38.3737 13.0411 38.3382 13.4248 38.2566C15.6526 37.7833 17.8384 36.3452 19.4461 35.0491C19.7483 36.5838 20.1739 39.6472 19.7017 43.1845C19.4857 44.8017 19.1608 46.2818 18.8739 46.9553C18.7117 47.3364 18.8889 47.7769 19.2701 47.9392C19.3659 47.9801 19.4656 47.9994 19.5637 47.9994C19.8552 47.9994 20.1325 47.8283 20.254 47.5431C20.7663 46.3405 21.0988 44.0548 21.1885 43.3829C21.7962 38.8307 21.0198 35.0771 20.7392 33.9356C21.4805 33.2551 21.9417 32.7555 21.9972 32.6948C22.0048 32.6864 22.0123 32.6779 22.0195 32.6693C23.2399 31.2073 25.754 28.5606 25.7793 28.5341C26.0647 28.2339 26.0527 27.7591 25.7525 27.4737C25.4525 27.1885 24.9775 27.2004 24.6922 27.5006L24.6921 27.5005Z" fill="#C7857A"/>
<path d="M17.6524 33.3532C17.754 33.3532 17.8574 33.3323 17.9562 33.2885C18.2082 33.1766 18.458 33.0637 18.7029 32.9513C19.0794 32.7787 19.2446 32.3334 19.072 31.9569C18.8994 31.5803 18.4542 31.4155 18.0777 31.5878C17.8383 31.6976 17.594 31.8082 17.3477 31.9175C16.9691 32.0856 16.7985 32.5287 16.9666 32.9073C17.0907 33.1869 17.3649 33.3532 17.6525 33.3532H17.6524Z" fill="#C7857A"/>
<path d="M13.9255 34.9394C14.0223 34.9394 14.1207 34.9205 14.2156 34.8807C14.4598 34.7781 14.7092 34.6722 14.965 34.5633C15.346 34.401 15.5235 33.9606 15.3612 33.5794C15.1991 33.1983 14.7587 33.021 14.3774 33.1831C14.124 33.2911 13.8769 33.396 13.6348 33.4976C13.2529 33.658 13.0734 34.0976 13.2338 34.4795C13.3543 34.7666 13.6326 34.9393 13.9255 34.9393L13.9255 34.9394Z" fill="#C7857A"/>
<path d="M10.6698 34.6229C10.5283 34.6676 10.3866 34.7106 10.2442 34.7519C9.84639 34.8672 9.61736 35.2832 9.73277 35.6811C9.82802 36.0092 10.1275 36.2223 10.4528 36.2223C10.522 36.2223 10.5923 36.2127 10.662 36.1924C10.8157 36.1479 10.9684 36.1015 11.121 36.0534C11.5161 35.9288 11.7353 35.5076 11.6108 35.1125C11.4862 34.7175 11.0651 34.4982 10.6699 34.6229L10.6698 34.6229Z" fill="#C7857A"/>
<path d="M14.7645 39.7C14.6223 39.5452 14.4219 39.457 14.2117 39.457C14.0015 39.457 13.8011 39.5452 13.659 39.7L11.784 41.7443C11.504 42.0495 11.5244 42.524 11.8297 42.8039C12.1348 43.0838 12.6094 43.0635 12.8894 42.7582L13.4616 42.1343V44.7063C13.4616 45.1205 13.7974 45.4563 14.2116 45.4563C14.6258 45.4563 14.9616 45.1205 14.9616 44.7063V42.1343L15.5339 42.7582C15.6818 42.9194 15.8839 43.0012 16.0867 43.0012C16.2678 43.0012 16.4495 42.9359 16.5934 42.8039C16.8988 42.524 16.9192 42.0495 16.6392 41.7443L14.7642 39.7H14.7645Z" fill="#C7857A"/>
</g>
<defs>
<clipPath id="clip0_5_448">
<rect width="48" height="48" fill="white"/>
</clipPath>
</defs>
</svg>
