<svg width="48" height="48" viewBox="0 0 48 48" fill="none" xmlns="http://www.w3.org/2000/svg">
<path d="M18 20C12.486 20 8 15.514 8 10C8 4.486 12.486 0 18 0C23.514 0 28 4.486 28 10C28 15.514 23.514 20 18 20ZM18 2C13.588 2 10 5.588 10 10C10 14.412 13.588 18 18 18C22.412 18 26 14.412 26 10C26 5.588 22.412 2 18 2Z" fill="#C7857A"/>
<path d="M17 42H1C0.448 42 0 41.552 0 41V33C0 28.038 4.038 24 9 24H21C21.552 24 22 24.448 22 25C22 25.552 21.552 26 21 26H9C5.14 26 2 29.14 2 33V40H17C17.552 40 18 40.448 18 41C18 41.552 17.552 42 17 42Z" fill="#C7857A"/>
<path d="M34 40C31.244 40 29 37.756 29 35C29 32.244 31.244 30 34 30C36.756 30 39 32.244 39 35C39 37.756 36.756 40 34 40ZM34 32C32.346 32 31 33.346 31 35C31 36.654 32.346 38 34 38C35.654 38 37 36.654 37 35C37 33.346 35.654 32 34 32Z" fill="#C7857A"/>
<path d="M35.594 48H32.404C31.372 48 30.516 47.226 30.414 46.198L30.16 43.656C29.554 43.386 28.976 43.05 28.43 42.65L26.094 43.704C25.156 44.132 24.054 43.774 23.54 42.88L21.946 40.118C21.43 39.224 21.674 38.096 22.51 37.494L24.568 36.014C24.528 35.704 24.5 35.36 24.5 35C24.5 34.64 24.528 34.294 24.568 33.986L22.51 32.506C21.674 31.904 21.43 30.776 21.946 29.882L23.54 27.12C24.056 26.226 25.152 25.872 26.094 26.296L28.43 27.35C28.976 26.95 29.554 26.614 30.16 26.344L30.414 23.802C30.516 22.776 31.372 22.002 32.404 22.002H35.594C36.626 22.002 37.482 22.776 37.584 23.804L37.838 26.346C38.446 26.616 39.024 26.954 39.568 27.352L41.904 26.298C42.846 25.876 43.944 26.23 44.458 27.122L46.052 29.884C46.568 30.778 46.324 31.906 45.488 32.508L43.43 33.988C43.47 34.298 43.498 34.642 43.498 35.002C43.498 35.362 43.47 35.708 43.43 36.016L45.488 37.496C46.324 38.098 46.568 39.226 46.052 40.12L44.46 42.88C43.944 43.772 42.85 44.13 41.906 43.704L39.57 42.65C39.024 43.05 38.446 43.386 37.84 43.656L37.584 46.2C37.482 47.226 36.626 48 35.594 48ZM28.57 40.49C28.8 40.49 29.028 40.57 29.212 40.724C29.89 41.292 30.64 41.726 31.438 42.018C31.798 42.15 32.052 42.476 32.09 42.858L32.406 46H35.596L35.91 42.858C35.948 42.476 36.202 42.15 36.562 42.018C37.36 41.726 38.11 41.29 38.788 40.724C39.084 40.478 39.492 40.422 39.84 40.58L42.728 41.884L44.322 39.122L41.766 37.286C41.454 37.062 41.3 36.678 41.364 36.3C41.438 35.878 41.498 35.448 41.498 35.004C41.498 34.56 41.438 34.13 41.364 33.708C41.298 33.33 41.454 32.948 41.766 32.722L44.322 30.886L42.728 28.124L39.84 29.426C39.49 29.584 39.082 29.528 38.786 29.282C38.11 28.714 37.362 28.28 36.56 27.988C36.2 27.856 35.946 27.53 35.908 27.148L35.594 24H32.404L32.09 27.142C32.052 27.524 31.798 27.85 31.438 27.982C30.64 28.274 29.89 28.71 29.212 29.276C28.918 29.522 28.51 29.58 28.16 29.42L25.272 28.116L23.678 30.878L26.234 32.714C26.546 32.938 26.7 33.322 26.636 33.7C26.562 34.122 26.502 34.552 26.502 34.996C26.502 35.44 26.562 35.87 26.636 36.292C26.702 36.67 26.546 37.052 26.234 37.278L23.678 39.114L25.272 41.876L28.16 40.574C28.292 40.518 28.43 40.49 28.57 40.49Z" fill="#C7857A"/>
</svg>
