<svg width="48" height="48" viewBox="0 0 48 48" fill="none" xmlns="http://www.w3.org/2000/svg">
<g clip-path="url(#clip0_5_475)">
<path d="M47.2725 0.869141H0.7275C0.3225 0.869141 0 1.19164 0 1.59664V26.5866C0 26.9916 0.3225 27.3141 0.7275 27.3141H14.655L14.805 34.4916C14.8125 34.8891 15.135 35.2041 15.5325 35.2041H19.6575C19.815 35.4141 19.98 35.6091 20.1525 35.7966C19.905 36.3141 19.5375 36.7191 19.035 36.9816C18.48 37.2816 17.73 37.5141 16.9275 37.7691C14.0325 38.6841 10.1175 39.9366 9.8175 45.6816H4.7325C4.3275 45.6816 4.005 46.0041 4.005 46.4091C4.005 46.8141 4.3275 47.1366 4.7325 47.1366H10.515H37.4775H43.26C43.665 47.1366 43.9875 46.8141 43.9875 46.4091C43.9875 46.0041 43.665 45.6816 43.26 45.6816H38.175C37.875 39.9366 33.96 38.6841 31.065 37.7691C30.27 37.5141 29.5125 37.2816 28.9575 36.9816C28.455 36.7191 28.08 36.3141 27.84 35.7966C28.0125 35.6091 28.1775 35.4141 28.335 35.2041H32.46C32.8575 35.2041 33.18 34.8891 33.1875 34.4916L33.3375 27.3141H47.265C47.67 27.3141 47.9925 26.9916 47.9925 26.5866V1.59664C48 1.19164 47.6775 0.869141 47.2725 0.869141ZM28.845 30.5541C27.8475 31.1091 26.19 31.6566 24.975 31.7766C24.9375 31.4091 24.6375 31.1166 24.2625 31.1166C23.8575 31.1166 23.535 31.4391 23.535 31.8441V33.1941C23.535 33.5991 23.8575 33.9216 24.2625 33.9216C24.6525 33.9216 24.96 33.6141 24.9825 33.2316C25.98 33.1566 27.1875 32.8416 28.2375 32.4291C27.2925 34.7016 25.7625 36.1566 24 36.1566C21.06 36.1566 18.7575 32.1216 18.7575 26.9691C18.7575 26.1741 18.81 25.3791 18.9225 24.6066L20.16 23.4516C21.435 24.2391 24.9675 26.1591 29.235 26.2866C29.2425 26.4891 29.25 26.7141 29.25 26.9691C29.2425 28.2516 29.1 29.4591 28.845 30.5541ZM27.795 37.9416L24.09 40.7691L20.22 37.9266C20.6475 37.6116 21.0075 37.2141 21.2775 36.7566C22.1025 37.3041 23.0175 37.6116 23.9925 37.6116C24.975 37.6116 25.89 37.3041 26.7075 36.7566C27 37.2291 27.36 37.6266 27.795 37.9416ZM36.7275 45.6741H11.2725C11.5575 40.9941 14.6325 40.0116 17.37 39.1491C17.865 38.9916 18.3375 38.8416 18.78 38.6691L23.6625 42.2616C23.79 42.3591 23.94 42.4041 24.09 42.4041C24.2475 42.4041 24.3975 42.3516 24.5325 42.2541L29.22 38.6766C29.6625 38.8416 30.135 38.9991 30.6225 39.1491C33.3675 40.0191 36.4425 41.0016 36.7275 45.6741ZM31.755 33.7491H29.2425C29.625 32.9916 29.94 32.1516 30.18 31.2291C30.1875 31.2066 30.195 31.1916 30.195 31.1691C30.5175 29.8941 30.6975 28.4841 30.6975 26.9766C30.6975 26.3766 30.675 25.9191 30.63 25.4916C30.5925 25.1241 30.2775 24.8391 29.91 24.8391C29.9025 24.8391 29.9025 24.8391 29.895 24.8391C24.8025 24.9216 20.535 21.9741 20.49 21.9441C20.205 21.7491 19.83 21.7716 19.575 22.0041L17.7375 23.7216C17.6175 23.8341 17.5425 23.9766 17.5125 24.1416C17.3625 25.0641 17.2875 26.0241 17.2875 26.9766C17.2875 29.5941 17.8275 31.9341 18.7425 33.7491H16.23L16.08 26.8191C16.08 22.4616 19.62 18.9141 23.9775 18.9141C26.085 18.9141 28.0725 19.7391 29.565 21.2316C31.0575 22.7316 31.875 24.7191 31.875 26.8041L31.755 33.7491ZM46.545 25.8516H33.3C33.105 23.9316 32.3175 22.1391 31.035 20.6691H40.9725C41.3775 20.6691 41.7 20.3466 41.7 19.9416C41.7 19.5366 41.3775 19.2141 40.9725 19.2141H29.4375C27.8625 18.0816 25.98 17.4591 24 17.4591C21.975 17.4591 20.1075 18.1116 18.5775 19.2141H7.0275C6.6225 19.2141 6.3 19.5366 6.3 19.9416C6.3 20.3466 6.6225 20.6691 7.0275 20.6691H16.9725C15.735 22.0866 14.9025 23.8791 14.7 25.8516H1.455V2.32414H46.545V25.8516Z" fill="#C7857A"/>
<path d="M7.02755 8.96086H40.965C41.37 8.96086 41.6926 8.63836 41.6926 8.23336C41.6926 7.82836 41.37 7.50586 40.965 7.50586H7.02755C6.62255 7.50586 6.30005 7.82836 6.30005 8.23336C6.30005 8.63086 6.63005 8.96086 7.02755 8.96086Z" fill="#C7857A"/>
<path d="M7.02755 14.8124H40.965C41.37 14.8124 41.6926 14.4899 41.6926 14.0849C41.6926 13.6799 41.37 13.3574 40.965 13.3574H7.02755C6.62255 13.3574 6.30005 13.6799 6.30005 14.0849C6.30005 14.4899 6.63005 14.8124 7.02755 14.8124Z" fill="#C7857A"/>
</g>
<defs>
<clipPath id="clip0_5_475">
<rect width="48" height="48" fill="white"/>
</clipPath>
</defs>
</svg>
