<svg width="33" height="32" viewBox="0 0 33 32" fill="none" xmlns="http://www.w3.org/2000/svg">
<g clip-path="url(#clip0_5_817)">
<path d="M32.4961 13.0049L17.3277 1.89887C17.0352 1.68475 16.6378 1.68475 16.3454 1.89887L1.17677 13.0049C0.806274 13.2762 0.725774 13.7965 0.997087 14.167C1.2684 14.5375 1.78871 14.6179 2.15915 14.3467L16.8365 3.60019L31.5138 14.3466C31.6618 14.4551 31.8338 14.5072 32.0043 14.5072C32.2603 14.5072 32.5129 14.3894 32.6758 14.1669C32.9471 13.7965 32.8666 13.2762 32.4961 13.0049Z" fill="#C7857A"/>
<path d="M28.4769 14.5352C28.0177 14.5352 27.6454 14.9074 27.6454 15.3666V28.6009H20.9941V21.3768C20.9941 19.0843 19.1289 17.2193 16.8366 17.2193C14.5442 17.2193 12.6791 19.0844 12.6791 21.3768V28.601H6.02762V15.3667C6.02762 14.9075 5.65531 14.5352 5.19618 14.5352C4.73706 14.5352 4.36475 14.9075 4.36475 15.3667V29.4325C4.36475 29.8917 4.73706 30.2639 5.19618 30.2639H13.5105C13.9477 30.2639 14.3056 29.9261 14.3387 29.4972C14.3407 29.4778 14.3419 29.4565 14.3419 29.4325V21.3768C14.3419 20.0013 15.461 18.8822 16.8366 18.8822C18.2121 18.8822 19.3312 20.0013 19.3312 21.3768V29.4325C19.3312 29.4564 19.3324 29.4773 19.3344 29.4965C19.3672 29.9257 19.7251 30.2639 20.1626 30.2639H28.4769C28.9361 30.2639 29.3084 29.8917 29.3084 29.4325V15.3667C29.3083 14.9074 28.9361 14.5352 28.4769 14.5352Z" fill="#C7857A"/>
</g>
<defs>
<clipPath id="clip0_5_817">
<rect width="32" height="32" fill="white" transform="translate(0.836426)"/>
</clipPath>
</defs>
</svg>
