<svg width="33" height="32" viewBox="0 0 33 32" fill="none" xmlns="http://www.w3.org/2000/svg">
<g clip-path="url(#clip0_5_827)">
<path d="M19.0515 0C18.7063 0 18.4265 0.279785 18.4265 0.624999C18.4265 0.970214 18.7063 1.25 19.0515 1.25C25.9634 1.25 31.5864 6.87328 31.5864 13.7849C31.5864 14.1301 31.8664 14.4099 32.2114 14.4099C32.5566 14.4099 32.8364 14.1301 32.8364 13.7849C32.8364 6.18407 26.6526 0 19.0515 0Z" fill="#C7857A"/>
<path d="M28.4516 14.4121C28.7969 14.4121 29.0766 14.1321 29.0766 13.7871C29.0766 8.25903 24.5793 3.76172 19.0515 3.76172C18.7063 3.76172 18.4265 4.04175 18.4265 4.38672C18.4265 4.73193 18.7063 5.01172 19.0515 5.01172C23.8901 5.01172 27.8266 8.94824 27.8266 13.7871C27.8266 14.1321 28.1064 14.4121 28.4516 14.4121Z" fill="#C7857A"/>
<path d="M24.0662 13.7842C24.0662 14.1291 24.3459 14.4092 24.6912 14.4092C25.0364 14.4092 25.3162 14.1291 25.3162 13.7842C25.3162 10.3298 22.5059 7.51953 19.0515 7.51953C18.7063 7.51953 18.4265 7.79932 18.4265 8.14429C18.4265 8.4895 18.7063 8.76929 19.0515 8.76929C21.8166 8.76929 24.0662 11.0188 24.0662 13.7842Z" fill="#C7857A"/>
<path d="M18.4265 11.9062C18.4265 12.2512 18.7063 12.531 19.0515 12.531C19.7434 12.531 20.3064 13.094 20.3064 13.7861C20.3064 14.1311 20.5862 14.4111 20.9314 14.4111C21.2764 14.4111 21.5564 14.1311 21.5564 13.7861C21.5564 12.4048 20.4326 11.2812 19.0515 11.2812C18.7063 11.2812 18.4265 11.561 18.4265 11.9062Z" fill="#C7857A"/>
<path d="M12.551 20.293C12.551 20.6382 12.2712 20.918 11.926 20.918C11.5808 20.918 11.301 20.6382 11.301 20.293C11.301 19.948 11.5808 19.668 11.926 19.668C12.2712 19.668 12.551 19.948 12.551 20.293Z" fill="#C7857A"/>
<path d="M17.9634 31.2415C20.8094 32.6363 24.2332 32.056 26.4837 29.8055L27.7759 28.5132C28.4776 27.8123 28.4778 26.6768 27.7762 25.9754L22.783 20.9827C22.0826 20.2813 20.9468 20.2803 20.2456 20.9825L18.1241 23.1043C17.7085 23.5198 17.0672 23.6046 16.5994 23.306C15.8367 22.8184 15.0948 22.2808 14.3943 21.7081C14.127 21.4896 13.7334 21.5291 13.5149 21.7962C13.2964 22.0635 13.336 22.4573 13.6031 22.6756C14.3411 23.2791 15.1226 23.8455 15.9266 24.3592C16.8848 24.9713 18.1807 24.8153 19.0079 23.9881L21.1299 21.866C21.3421 21.6536 21.6858 21.6531 21.899 21.8663L26.8924 26.8592C27.105 27.0721 27.1055 27.4163 26.8924 27.629L25.5999 28.9217C23.7251 30.7964 20.8775 31.2776 18.5135 30.1192C9.85308 25.8724 5.14118 19.1385 2.71345 14.2371C1.55207 11.8931 2.03425 9.05624 3.9134 7.17758L5.17755 5.91366C5.38947 5.70126 5.73346 5.70053 5.94635 5.91391L10.9402 10.9076C11.1517 11.1187 11.1539 11.463 10.9398 11.6766L8.81817 13.7984C7.99103 14.6256 7.83502 15.9215 8.44708 16.88C8.80768 17.4442 9.19635 18.0008 9.6026 18.5343C9.81158 18.8089 10.2037 18.8619 10.4783 18.6529C10.753 18.4439 10.8062 18.0518 10.597 17.7769C10.2117 17.2708 9.84259 16.7425 9.5003 16.2071C9.20172 15.7391 9.28644 15.0977 9.70196 14.6822L11.8233 12.5609C12.5247 11.8604 12.5254 10.7244 11.8238 10.0235L6.83038 5.03036C6.13019 4.32895 4.9942 4.32797 4.29328 5.03012L3.02961 6.29379C0.770821 8.55184 0.193674 11.9671 1.59333 14.7921C4.10724 19.867 8.98761 26.8402 17.9634 31.2415Z" fill="#C7857A"/>
</g>
<defs>
<clipPath id="clip0_5_827">
<rect width="32" height="32" fill="white" transform="translate(0.836426)"/>
</clipPath>
</defs>
</svg>
