<svg width="33" height="32" viewBox="0 0 33 32" fill="none" xmlns="http://www.w3.org/2000/svg">
<g clip-path="url(#clip0_5_839)">
<path d="M17.4969 18.1251C16.3014 18.1195 15.1137 17.9322 13.9745 17.5696C12.1543 16.9606 10.8024 15.4197 10.4354 13.5358C10.0339 11.6016 10.7656 9.55657 12.4427 7.92511C12.6227 7.74985 12.8096 7.58198 13.0037 7.42148C14.7208 5.9839 17.0358 5.48431 19.193 6.0858C21.2814 6.75237 22.7245 8.66092 22.7966 10.8519C22.8748 12.1131 22.4638 13.3559 21.649 14.3217C21.0205 15.1134 20.0023 15.4873 19.0109 15.2905C18.6055 15.2064 18.2517 14.9608 18.0311 14.6104C17.8332 14.27 17.7824 13.8637 17.8906 13.4851C18.357 11.7221 18.8311 9.04287 18.8358 9.01572C18.869 8.82804 18.9997 8.67228 19.1788 8.60713C19.3579 8.54197 19.5582 8.57732 19.7041 8.69985C19.8501 8.82238 19.9196 9.01348 19.8865 9.20116C19.8667 9.31263 19.3998 11.9517 18.9219 13.7577C18.8878 13.8578 18.8964 13.9675 18.9456 14.0611C19.0193 14.1631 19.1306 14.2317 19.2549 14.2517C19.8618 14.353 20.4749 14.1095 20.8469 13.6194C21.4796 12.8624 21.7967 11.8909 21.7322 10.9064C21.6801 9.16238 20.5364 7.63975 18.876 7.10372C17.0636 6.60521 15.1219 7.03108 13.6845 8.24238C13.5131 8.38462 13.3464 8.53353 13.1866 8.68927C12.3574 9.49577 11.0334 11.1693 11.4796 13.3186C11.7793 14.8202 12.8518 16.0508 14.2983 16.553C16.7996 17.3509 20.3939 17.447 22.2876 15.0923C22.4737 14.8682 22.8051 14.8349 23.0321 15.0173C23.2591 15.1998 23.2977 15.5307 23.1189 15.7605C21.7185 17.502 19.5875 18.1251 17.4969 18.1251Z" fill="#C7857A"/>
<path d="M15.671 15.3624C15.1072 15.3721 14.5574 15.1872 14.114 14.8389C13.0903 14.0197 13.0621 12.5965 13.3491 11.6273C13.4458 11.3045 13.5755 10.9926 13.7364 10.6965C14.1365 9.88908 14.7764 9.22504 15.5684 8.79521C16.5547 8.28342 17.7598 8.4775 18.5356 9.27307C18.9204 9.69485 19.2103 10.1943 19.3857 10.7377C19.4786 11.0134 19.3333 11.3127 19.0592 11.4103C18.7851 11.5079 18.4834 11.3679 18.381 11.0955C18.2546 10.694 18.0444 10.324 17.7644 10.0098C17.3121 9.54724 16.6074 9.442 16.0397 9.75222C15.4457 10.0872 14.9684 10.5958 14.6717 11.2098C14.547 11.4398 14.4463 11.6821 14.3712 11.9327C14.1639 12.6338 14.2094 13.5487 14.7813 14.0067C15.4066 14.5088 16.4613 14.2965 17.0548 13.7845C17.497 13.3864 17.877 12.9241 18.1821 12.4132C18.2809 12.2477 18.4613 12.1483 18.654 12.1533C18.8467 12.1584 19.0217 12.267 19.1117 12.4374C19.2017 12.6079 19.1927 12.8137 19.0882 12.9756C18.7269 13.5777 18.2771 14.122 17.7538 14.5902C17.1706 15.0823 16.434 15.3554 15.671 15.3624Z" fill="#C7857A"/>
<path d="M31.2364 31.9998H2.43643C1.55317 31.9988 0.837396 31.2831 0.836426 30.3998V10.6665C0.836434 10.4597 0.956008 10.2715 1.14324 10.1837C1.33048 10.0958 1.55162 10.1242 1.71067 10.2564L14.7971 21.1324C15.9812 22.1103 17.6928 22.1099 18.8765 21.1316L31.9618 10.2564C32.1208 10.1239 32.3421 10.0954 32.5295 10.1833C32.7169 10.2711 32.8366 10.4595 32.8364 10.6665V30.3998C32.8355 31.2831 32.1197 31.9988 31.2364 31.9998ZM1.90309 11.8032V30.3998C1.90347 30.6942 2.14203 30.9328 2.43643 30.9332H31.2364C31.5309 30.9329 31.7695 30.6943 31.7698 30.3998V11.8032L19.5575 21.9525C17.9785 23.2574 15.6955 23.2578 14.1161 21.9533L1.90309 11.8032Z" fill="#C7857A"/>
<path d="M1.37028 11.1966C1.13798 11.1969 0.932257 11.0467 0.861676 10.8254C0.791095 10.604 0.871891 10.3625 1.06143 10.2282L5.86143 6.8255C6.10175 6.65894 6.43136 6.71693 6.6004 6.95551C6.76945 7.19409 6.71488 7.52429 6.47807 7.69579L1.67807 11.0985C1.58819 11.1624 1.48059 11.1967 1.37028 11.1966Z" fill="#C7857A"/>
<path d="M32.3024 11.1966C32.1921 11.1967 32.0845 11.1624 31.9947 11.0985L27.1947 7.69579C26.9578 7.52429 26.9033 7.19409 27.0723 6.95551C27.2414 6.71693 27.571 6.65894 27.8113 6.8255L32.6113 10.2282C32.8008 10.3625 32.8816 10.604 32.8111 10.8254C32.7405 11.0467 32.5348 11.1969 32.3024 11.1966Z" fill="#C7857A"/>
<path d="M21.764 3.73168C21.6536 3.73174 21.5459 3.69742 21.4559 3.6335L18.9066 1.8255C17.7232 0.825488 15.9939 0.815071 14.7985 1.80075L12.2172 3.63355C12.0617 3.7438 11.8592 3.76273 11.686 3.68322C11.5128 3.60371 11.3952 3.43783 11.3774 3.24807C11.3597 3.05831 11.4445 2.8735 11.6 2.76326L14.1493 0.955256C15.7246 -0.332763 17.9921 -0.322518 19.5556 0.979683L22.073 2.76304C22.2627 2.89733 22.3436 3.13899 22.2729 3.36042C22.2023 3.58184 21.9964 3.73204 21.764 3.73168Z" fill="#C7857A"/>
<path d="M1.71644 31.7099C1.49168 31.7101 1.29092 31.5694 1.21445 31.358C1.13799 31.1466 1.20224 30.91 1.37511 30.7664L13.5458 20.6544C13.692 20.53 13.8938 20.4939 14.0741 20.5597C14.2545 20.6255 14.3855 20.7832 14.4173 20.9725C14.449 21.1618 14.3765 21.3536 14.2275 21.4746L2.05687 31.5866C1.96131 31.6663 1.84085 31.7099 1.71644 31.7099Z" fill="#C7857A"/>
<path d="M31.9556 31.7098C31.8313 31.7099 31.711 31.6663 31.6155 31.5866L19.4449 21.4746C19.2959 21.3536 19.2234 21.1618 19.2552 20.9725C19.2869 20.7832 19.4179 20.6255 19.5983 20.5597C19.7786 20.4939 19.9804 20.53 20.1266 20.6544L32.297 30.7664C32.4699 30.91 32.5341 31.1466 32.4576 31.358C32.3812 31.5694 32.1804 31.71 31.9556 31.7098Z" fill="#C7857A"/>
<path d="M27.5031 15.1871C27.2086 15.1871 26.9698 14.9483 26.9698 14.6537V3.73524C26.9683 3.74644 26.9469 3.73135 26.9111 3.73108H6.76181C6.73823 3.72963 6.7151 3.73792 6.69781 3.75401L6.70314 14.6537C6.70314 14.9483 6.46436 15.1871 6.16981 15.1871C5.87526 15.1871 5.63647 14.9483 5.63647 14.6537V3.73108C5.65368 3.12623 6.1569 2.64924 6.76181 2.66441H26.9111C27.516 2.6493 28.0192 3.12625 28.0365 3.73108V14.6537C28.0365 14.9483 27.7977 15.1871 27.5031 15.1871Z" fill="#C7857A"/>
</g>
<defs>
<clipPath id="clip0_5_839">
<rect width="32" height="32" fill="white" transform="translate(0.836426)"/>
</clipPath>
</defs>
</svg>
