<svg width="53" height="53" viewBox="0 0 53 53" fill="none" xmlns="http://www.w3.org/2000/svg">
<path fill-rule="evenodd" clip-rule="evenodd" d="M39.75 6.62853C39.75 3.22199 36.3994 0.825862 33.1754 1.92682L19.9254 6.45156C17.9142 7.13837 16.5625 9.02814 16.5625 11.1533V21.4152H6.625C3.88083 21.4152 1.65625 23.6397 1.65625 26.3836V46.3753C1.65625 49.1192 3.88083 51.3436 6.625 51.3436H30.8461C29.4485 50.4342 28.2255 49.311 27.2153 48.0313H19.875V11.1533C19.875 10.4449 20.3256 9.81494 20.9959 9.58605L34.2459 5.06129C35.3206 4.69431 36.4375 5.49302 36.4375 6.62853V24.1861C37.5199 24.0227 38.6299 23.9753 39.75 24.0539V6.62853ZM14.9062 48.0313H16.5625V24.7275H6.625C5.71028 24.7275 4.96875 25.469 4.96875 26.3836V46.3753C4.96875 47.2898 5.71028 48.0313 6.625 48.0313V43.891C6.625 41.6044 8.47884 39.7508 10.7656 39.7508C13.0524 39.7508 14.9062 41.6044 14.9062 43.891V48.0313ZM11.5938 48.0313V43.891C11.5938 43.4338 11.223 43.063 10.7656 43.063C10.3083 43.063 9.9375 43.4338 9.9375 43.891V48.0313H11.5938Z" fill="white"/>
<path d="M32.1637 25.4975C32.2494 25.2974 32.2969 25.0772 32.2969 24.8458C32.2969 23.9312 31.5554 23.1897 30.6406 23.1897H25.6719C24.7571 23.1897 24.0156 23.9312 24.0156 24.8458C24.0156 25.7604 24.7571 26.502 25.6719 26.502H30.3781C30.9498 26.1276 31.5465 25.792 32.1637 25.4975Z" fill="white"/>
<path d="M32.2969 18.2213C32.2969 17.3066 31.5554 16.5652 30.6406 16.5652H25.6719C24.7571 16.5652 24.0156 17.3066 24.0156 18.2213C24.0156 19.1359 24.7571 19.8774 25.6719 19.8774H30.6406C31.5554 19.8774 32.2969 19.1359 32.2969 18.2213Z" fill="white"/>
<path d="M41.118 30.1325C38.6091 29.4656 36.0654 29.8782 33.9885 31.0821C34.2584 31.3502 34.4378 31.712 34.4714 32.1207C34.5465 33.0323 33.8684 33.8321 32.9568 33.9072L30.0638 34.1454C29.4121 34.1992 28.7898 33.8643 28.4755 33.2909C28.1611 32.7175 28.2137 32.0128 28.6096 31.4924C31.6204 27.5343 36.8494 25.5706 41.969 26.9314C48.2048 28.5889 52.1085 34.6043 51.2177 40.814C51.0879 41.7193 50.2485 42.348 49.3431 42.2181C48.4376 42.0883 47.8089 41.249 47.9388 40.3436C48.5913 35.795 45.7295 31.3583 41.118 30.1325Z" fill="white"/>
<path d="M29.8709 37.8717C29.9764 36.9632 29.3254 36.1411 28.4168 36.0356C27.5082 35.9301 26.686 36.5811 26.5805 37.4896C25.8799 43.5221 29.8 49.2828 35.9125 50.9075C41.0152 52.2639 46.2323 50.3669 49.2337 46.4724C49.633 45.9543 49.6899 45.2497 49.379 44.6742C49.068 44.0987 48.4475 43.7602 47.7952 43.8102L44.9068 44.0317C43.9948 44.1016 43.3121 44.8976 43.382 45.8096C43.4127 46.2095 43.5829 46.5652 43.8414 46.8328C41.7845 47.9843 39.2636 48.371 36.7635 47.7065C32.2033 46.4943 29.3646 42.2309 29.8709 37.8717Z" fill="white"/>
</svg>
