<svg width="20" height="16" viewBox="0 0 20 16" fill="none" xmlns="http://www.w3.org/2000/svg">
<path d="M8.99895 4.10707C12.4512 2.7341 16.2266 3.81836 17.941 5.47854C18.3124 5.83821 18.6279 6.20313 18.8981 6.56579C19.0522 5.71426 19.0647 4.8661 18.9165 4.04584C18.3748 1.05089 15.5492 -0.645808 13.0161 0.230624C10.4944 1.10312 9.51085 2.79888 9.51085 2.79888C9.51085 2.79888 8.5273 1.10312 6.00561 0.230624C3.47231 -0.645808 0.646738 1.05107 0.105252 4.04584C-0.294496 6.25611 0.462498 8.66915 2.06879 10.8015C2.40713 10.9152 2.76175 11.0006 3.13735 11.0498C5.38755 11.3456 6.19641 10.7439 7.147 10.3409C7.77817 10.0736 8.253 10.3771 8.22997 10.5898C8.19421 10.9195 6.95003 11.4829 7.21684 11.6012C8.27023 12.0685 9.5674 12.0725 10.545 11.2376C11.7597 10.2003 12.2142 10.9094 12.2142 10.9094C12.2142 10.9094 11.6109 12.4482 9.79433 13.2123C8.27866 13.8499 6.69052 14.0069 5.23926 13.8437C6.49093 14.7283 7.92815 15.47 9.51085 15.9993C14.0358 14.4857 17.3785 11.2432 18.557 7.8532C17.7586 7.06552 16.7793 6.57721 15.6121 6.40028C13.3681 6.06008 12.5476 6.64593 11.5892 7.02994C10.9528 7.28495 10.4841 6.97209 10.5114 6.75977C10.5536 6.4308 11.8088 5.89213 11.5442 5.76837C10.5004 5.28045 9.20341 5.25087 8.20957 6.06626C6.97456 7.07937 6.53418 6.36152 6.53418 6.36152C6.53418 6.36152 7.1676 4.83521 8.99895 4.10707ZM8.1401 8.32521H9.01187V7.45346H10.0095V8.32521H10.8812V9.32278H10.0095V10.1945H9.01187V9.32278H8.1401V8.32521Z" fill="#09243C"/>
<path d="M8.14002 8.32559H9.01179V7.45383H10.0094V8.32559H10.8811V9.32316H10.0159C11.3013 9.97266 13.662 10.939 16.4988 11.3688C17.4323 10.2646 18.1343 9.06871 18.5567 7.85357C17.7583 7.06589 16.7791 6.57759 15.6118 6.40066C13.3678 6.06046 12.5474 6.6463 11.5889 7.03032C10.9525 7.28533 10.4838 6.97246 10.5112 6.76014C10.5533 6.43118 11.8085 5.89251 11.544 5.76875C10.5001 5.28082 9.20314 5.25124 8.20929 6.06664C6.97428 7.07975 6.53391 6.3619 6.53391 6.3619C6.53391 6.3619 7.16751 4.8354 8.99868 4.10707C12.4509 2.7341 16.2264 3.81836 17.9407 5.47854C18.3122 5.83821 18.6277 6.20313 18.8978 6.56579C19.0519 5.71427 19.0645 4.86611 18.9162 4.04584C18.3745 1.05089 15.5489 -0.645808 13.0158 0.230624C10.4941 1.10312 9.51058 2.79888 9.51058 2.79888C9.51058 2.79888 8.52703 1.10312 6.00534 0.230624C4.55857 -0.270034 3.01687 0.0699797 1.85938 1.01063C2.40311 2.17484 3.04008 3.26265 4.85459 5.45046C6.32982 7.22953 8.14002 8.32559 8.14002 8.32559Z" fill="#FFD162"/>
<path opacity="0.31" d="M16.0706 1.30693C13.6884 0.110149 11.2298 1.97236 10.45 2.9557C11.7949 2.67241 12.9717 2.52712 14.4608 2.83999C16.6636 3.30282 17.488 4.09818 18.4716 5.27325C18.2978 3.09593 16.9226 1.73495 16.0706 1.30693Z" fill="white"/>
</svg>
