<svg width="52" height="52" viewBox="0 0 52 52" fill="none" xmlns="http://www.w3.org/2000/svg">
<path d="M36.6942 3.27694C36.0238 3.94736 36.0238 5.03454 36.6942 5.70539L45.195 14.2062C45.8655 14.8766 46.9526 14.8766 47.6235 14.2062L50.0523 11.7769L39.1231 0.847656L36.6942 3.27694Z" fill="white"/>
<path d="M34.2656 12.9921L39.1229 8.13477L42.766 11.7779L37.9087 16.6352L34.2656 12.9921Z" fill="#D1D3D4"/>
<path d="M33.0516 27.5654L20.9081 15.4219L8.76376 27.5654C7.4225 28.9066 7.4225 31.0814 8.76376 32.4227L10.5859 34.244L13.6215 37.2804L18.4788 42.1377C19.8205 43.4794 21.9953 43.4794 23.3365 42.1377L28.1938 37.2804L35.48 29.9934L33.0516 27.5654Z" fill="#FFD162"/>
<path d="M34.2679 12.9922L28.803 7.52734L20.9102 15.4215L33.0536 27.565L35.4821 29.993L43.3758 22.1001L34.2679 12.9922Z" fill="#F1F2F2"/>
<path d="M21.9125 42.1371C22.1246 42.3489 22.3645 42.5308 22.6253 42.678C21.2802 43.4595 19.5775 43.2373 18.4778 42.1371L13.6263 37.2769L10.5866 34.246L8.76609 32.4255C7.42693 31.0825 7.42693 28.9086 8.76609 27.5656L20.9079 15.4238L22.6253 17.1412L12.2008 27.5656C10.8616 28.9086 10.8616 31.0825 12.2008 32.4255L14.0213 34.246L17.061 37.2769L21.9125 42.1371Z" fill="#FFE477"/>
<path d="M20.9062 15.4229L28.7974 7.53125L30.5148 9.2486L22.6232 17.1402L20.9062 15.4229Z" fill="#E6E7E8"/>
<path d="M8.15907 36.6734C7.48864 37.3438 7.48864 38.431 8.15907 39.1014L9.98124 40.9228L11.1955 42.1378L11.8026 42.745C12.4734 43.4154 13.5602 43.4154 14.231 42.745L16.6603 40.3157L13.6239 37.2805L10.5884 34.2441L8.15907 36.6734Z" fill="white"/>
<path d="M8.76412 39.707L3.99276 44.4796C2.41544 46.0565 1.70225 48.3009 2.0796 50.4992L2.19029 51.1403L11.1934 42.1363L9.97918 40.9213L8.76412 39.707Z" fill="#D1D3D4"/>
<path d="M50.661 11.1708L39.7326 0.241503C39.3921 -0.0805009 38.8592 -0.0805009 38.5184 0.241503L36.0903 2.66995C35.0841 3.67579 35.0841 5.30719 36.0903 6.31345L37.9117 8.13437L34.2682 11.7779L29.4104 6.92057C29.0754 6.58514 28.5316 6.58514 28.1962 6.92057L8.15904 26.9578C6.48529 28.6353 6.48529 31.3513 8.15904 33.0293L9.3741 34.2435L7.55193 36.0657C6.54608 37.0715 6.54608 38.7029 7.55193 39.7088L3.38852 43.8734C1.6154 45.6486 0.813327 48.1731 1.23554 50.646L1.34665 51.2875C1.40073 51.6032 1.62672 51.8623 1.93195 51.9596C2.23803 52.0569 2.57261 51.9755 2.79944 51.7483L11.1954 43.3514C12.2017 44.3577 13.8327 44.3577 14.8389 43.3514L16.6603 41.5293L17.8741 42.7443C19.552 44.4181 22.2681 44.4181 23.946 42.7443L36.0895 30.6008L43.9824 22.7071C44.3174 22.3717 44.3174 21.8283 43.9824 21.4929L39.1246 16.6356L42.7673 12.9921L44.5895 14.8143C45.5953 15.8197 47.2259 15.8197 48.2317 14.8143L50.6602 12.385C50.9956 12.05 50.996 11.5062 50.661 11.1708ZM2.8422 49.2762C2.85897 47.7035 3.49082 46.1996 4.60274 45.0868L8.76615 40.9221L9.98037 42.1372L2.8422 49.2762ZM13.6247 42.1364C13.2847 42.4613 12.7497 42.4613 12.4097 42.1364L8.76615 38.4929C8.60515 38.3319 8.51458 38.1134 8.51458 37.8853C8.51458 37.6577 8.60515 37.4392 8.76615 37.2782L10.5875 35.4569L15.4452 40.3142L13.6247 42.1364ZM39.1276 25.1347L37.3046 23.3142C37.0886 23.0912 36.7696 23.0015 36.4694 23.0799C36.1692 23.1587 35.9348 23.3931 35.856 23.6933C35.7776 23.9935 35.8669 24.313 36.0903 24.5285L37.9117 26.3506L35.4824 28.7795L33.6611 26.9578C33.3256 26.6219 32.7818 26.6219 32.4464 26.9573C32.111 27.2923 32.1106 27.8361 32.446 28.1716L34.2682 29.9937L31.8397 32.4222L30.0176 30.6008C29.6809 30.2755 29.145 30.2801 28.8138 30.6113C28.4826 30.9425 28.478 31.4784 28.8033 31.8151L30.6255 33.6364L28.1962 36.0657L26.3745 34.2435C26.0374 33.9181 25.502 33.9228 25.1707 34.254C24.8395 34.5852 24.8349 35.1206 25.1602 35.4577L26.9824 37.2799L24.5531 39.7079L22.7318 37.887C22.5163 37.6635 22.1968 37.5742 21.8966 37.6526C21.5964 37.731 21.362 37.9658 21.2836 38.266C21.2048 38.5662 21.2945 38.8853 21.5176 39.1008L23.3389 40.9221L22.7318 41.5301C21.7247 42.5338 20.0954 42.5338 19.0883 41.5301L9.37326 31.8151C8.36951 30.808 8.36951 29.1787 9.37326 28.1716L20.9105 16.6356L30.0176 25.7427C30.3547 26.068 30.8901 26.0634 31.2213 25.7322C31.5525 25.401 31.5571 24.8651 31.2318 24.5285L22.1247 15.4214L28.8033 8.74232L42.1619 22.1L39.1276 25.1347ZM37.9117 15.4214L35.4824 12.9921L39.1255 9.34943L41.5539 11.7779L37.9117 15.4214ZM47.0188 13.5992C46.6833 13.9342 46.14 13.9342 45.8045 13.5992L37.3037 5.09839C36.9687 4.76297 36.9687 4.22001 37.3037 3.88501L39.1255 2.062L48.8418 11.7779L47.0188 13.5992Z" fill="#09243C"/>
</svg>
