<svg width="52" height="52" viewBox="0 0 52 52" fill="none" xmlns="http://www.w3.org/2000/svg">
<path d="M25.3561 1.30785L16.6761 8.31888C13.7548 10.6785 10.7274 14.51 11.6084 18.1605L12.6405 24.7574C13.0891 28.3278 17.6486 31.006 21.247 31.006H33.6045C37.2029 31.006 40.7466 28.3278 41.1953 24.7574L42.2273 18.1605C43.1084 14.51 40.0809 10.6786 37.1596 8.31888L28.4796 1.30785C27.5686 0.571861 26.2673 0.571861 25.3561 1.30785Z" fill="#FFD162"/>
<path d="M37.158 8.31803L28.4781 1.30701C27.6104 0.606161 26.3897 0.574268 25.4883 1.20818C25.5335 1.23997 25.5787 1.27187 25.6222 1.30701L34.3021 8.31803C37.2234 10.6777 40.2509 14.5092 39.3699 18.1597L38.3378 24.7566C37.8891 28.327 34.3454 31.0052 30.747 31.0052H33.6029C37.2013 31.0052 40.745 28.327 41.1937 24.7566L42.2258 18.1597C43.1068 14.5092 40.0793 10.6777 37.158 8.31803Z" fill="#FFE477"/>
<path d="M34.8239 26.6797H19.0793L14.0646 34.0454C12.2027 36.7801 11.207 40.0119 11.207 43.3202V51.2381H42.6962V43.3202C42.6962 40.0119 41.7005 36.7801 39.8387 34.0454L34.8239 26.6797Z" fill="#E6E7E8"/>
<path d="M39.8395 34.0454L34.8247 26.6797H31.9688L36.9836 34.0454C38.8454 36.7801 39.8411 40.0119 39.8411 43.3202V51.2381H42.697V43.3202C42.697 40.0119 41.7013 36.78 39.8395 34.0454Z" fill="white"/>
<path d="M26.9545 34.937C20.4363 34.937 15.1523 29.653 15.1523 23.1349V21.2497C15.1523 17.4508 18.232 14.3711 22.0309 14.3711H31.8781C35.677 14.3711 38.7567 17.4508 38.7567 21.2497V23.1349C38.7566 29.653 33.4726 34.937 26.9545 34.937Z" fill="#FFCEBF"/>
<path d="M31.8749 14.3711H29.019C32.8179 14.3711 35.8976 17.4507 35.8976 21.2497V23.1349C35.8976 29.1697 31.3681 34.1459 25.5234 34.8508C25.9916 34.9073 26.468 34.937 26.9513 34.937C33.4694 34.937 38.7534 29.653 38.7534 23.1349V21.2497C38.7535 17.4508 35.6739 14.3711 31.8749 14.3711Z" fill="#FFB09E"/>
<path d="M17.0864 29.6094C23.5185 33.2081 30.0936 33.29 36.8221 29.6094L37.6126 30.7529L26.9542 40.7621L16.2539 30.8322L17.0864 29.6094Z" fill="white"/>
<path d="M36.8202 29.6094C35.9747 30.0719 35.1316 30.4748 34.291 30.819L25.4414 39.3598L26.9525 40.762L37.6108 30.7528L36.8202 29.6094Z" fill="white"/>
<path d="M15.4837 12.2701L12.1437 14.5802C11.5742 14.9741 10.7862 14.7352 10.5313 14.0913L9.37701 11.1759C9.12206 10.532 9.53292 9.8185 10.2178 9.71571L14.234 9.11328L15.4837 12.2701Z" fill="white"/>
<path d="M18.2693 11.1661L22.2854 10.5637C22.9703 10.461 23.3812 9.74749 23.1263 9.10352L21.972 6.18809C21.717 5.54423 20.929 5.30533 20.3595 5.69923L17.0195 8.00928L18.2693 11.1661Z" fill="white"/>
<path d="M14.5743 7.66068L15.7753 7.18512C16.2133 7.01173 16.709 7.22615 16.8824 7.66413L18.4058 11.512C18.5792 11.95 18.3648 12.4456 17.9268 12.619L16.7258 13.0946C16.2879 13.268 15.7922 13.0536 15.6188 12.6156L14.0953 8.76771C13.9218 8.32974 14.1364 7.83406 14.5743 7.66068Z" fill="white"/>
<path d="M38.8179 41.7109C38.8179 43.2507 37.5698 44.4987 36.03 44.4987C34.4903 44.4987 33.2422 43.2506 33.2422 41.7109C33.2422 40.3241 34.2551 39.1736 35.5822 38.959C35.499 39.1922 35.4548 39.4428 35.4548 39.7037C35.4548 40.9456 36.4615 41.9523 37.7024 41.9523C38.1082 41.9523 38.4883 41.8455 38.816 41.6564C38.8179 41.6749 38.8179 41.6924 38.8179 41.7109Z" fill="white"/>
<path d="M40.4703 33.6163C40.4291 33.5428 38.3076 30.4646 38.2732 30.3771C40.3146 29.0799 41.6676 27.0715 41.948 24.8649L42.9735 18.3088C43.4119 16.4526 43.0082 14.454 41.7734 12.3683C40.8223 10.762 39.3531 9.11367 37.6368 7.72741L33.9621 4.75917C33.6348 4.49467 33.1552 4.54576 32.8908 4.87303C32.6264 5.2004 32.6774 5.67992 33.0048 5.94431L36.6795 8.91256C39.5096 11.1985 42.2581 14.7816 41.485 17.9824C41.4802 18.0027 41.4761 18.023 41.4729 18.0436L40.441 24.6407C40.4398 24.6483 40.4387 24.656 40.4377 24.6638C40.2599 26.083 39.5104 27.408 38.3531 28.4218C39.1179 26.7757 39.5166 24.9779 39.5166 23.1364V21.2502C39.5166 17.0373 36.0891 13.61 31.8763 13.61H22.0299C17.8165 13.61 14.3886 17.0373 14.3886 21.2502V23.1364C14.3886 24.8013 14.7155 26.4297 15.3431 27.9429C14.3047 27.0564 13.5215 25.7765 13.3912 24.6408L12.3592 18.0437C12.1764 17.3165 12.1583 16.2758 12.4308 15.2983C12.4806 15.2703 15.2153 13.3833 15.2153 13.3833C15.6525 13.7874 16.1521 14.0895 17.0084 13.8041L18.2095 13.3285C18.6105 13.1698 18.9256 12.8643 19.097 12.4684C19.1905 12.2521 19.2333 12.0231 19.2285 11.7944L22.4005 11.3186C22.9581 11.235 23.4392 10.9067 23.7205 10.4183C24.0017 9.9298 24.0442 9.34891 23.8366 8.8247L22.6823 5.90927C22.5366 5.54137 22.2806 5.2395 21.9552 5.03443L25.8331 1.90143C26.4607 1.39499 27.3719 1.39499 27.9993 1.90123L30.2169 3.69256C30.5442 3.95695 31.0237 3.90596 31.2882 3.57869C31.5526 3.25133 31.5016 2.7718 31.1742 2.50741L28.9563 0.715475C27.7742 -0.238593 26.0581 -0.238492 24.8758 0.715779L17.2625 6.86679C17.1146 6.71108 16.9359 6.58493 16.7329 6.49707C16.3372 6.32572 15.8983 6.31891 15.4972 6.47767L14.2962 6.95323L14.2961 6.95333C13.6528 7.20817 13.2656 7.83294 13.2781 8.48727L10.1053 8.96314C9.54779 9.04673 9.06664 9.37501 8.78528 9.86358C8.50393 10.3521 8.46157 10.9329 8.66919 11.457L9.82335 14.3725C10.0101 14.8444 10.3769 15.2094 10.8416 15.3972C10.6348 16.4039 10.6396 17.3798 10.8587 18.3086L11.8844 24.8653C12.1423 26.8761 13.5843 28.8059 15.7963 30.1493L13.436 33.6164C11.4804 36.4894 10.4467 39.8451 10.4467 43.3206V51.2381C10.4467 51.6589 10.7878 51.9999 11.2085 51.9999C11.6292 51.9999 11.9703 51.6589 11.9703 51.2381V43.3206C11.9703 40.1522 12.9127 37.093 14.6955 34.4737L16.3836 31.994L25.8401 40.7697L23.6865 42.814C23.3814 43.1037 23.3689 43.5859 23.6585 43.891C23.8083 44.0488 24.0095 44.1284 24.2112 44.1284C24.3995 44.1284 24.5881 44.0589 24.7355 43.919L37.4764 31.9262L39.211 34.4736C40.9939 37.093 41.9363 40.1521 41.9363 43.3206V51.2381C41.9363 51.6589 42.2774 51.9999 42.6981 51.9999C43.1188 51.9999 43.4599 51.6589 43.4599 51.2381V43.3206C43.4598 39.8453 42.4261 36.4896 40.4703 33.6163ZM22.4199 9.38517C22.4686 9.50787 22.4284 9.60853 22.4001 9.65769C22.3719 9.70675 22.305 9.79207 22.1745 9.81167L18.7568 10.3243L17.9526 8.29297L20.7949 6.32714C20.9034 6.25218 21.0105 6.26843 21.0647 6.28488C21.1189 6.30134 21.217 6.34715 21.2657 6.46985L22.4199 9.38517ZM14.857 8.36975L16.058 7.89419C16.0812 7.88485 16.1047 7.88536 16.1277 7.89531C16.1507 7.90526 16.167 7.92213 16.1763 7.94539L17.6998 11.7933C17.7089 11.8166 17.7086 11.8401 17.6987 11.8631C17.6887 11.8862 17.6718 11.9024 17.6486 11.9117L16.4475 12.3872C16.4241 12.3965 16.4008 12.396 16.3777 12.3861C16.3547 12.3762 16.3384 12.3593 16.3292 12.336L14.8057 8.48819C14.7873 8.44136 14.8102 8.38834 14.857 8.36975ZM10.0856 10.8962C10.0371 10.7735 10.0772 10.6728 10.1055 10.6236C10.1339 10.5745 10.2007 10.4893 10.3312 10.4697L13.7488 9.95702L14.5531 11.9885L11.7108 13.9543C11.6028 14.0088 11.4288 14.0914 11.2399 13.8116L10.0856 10.8962ZM15.9123 21.25C15.9123 17.8773 18.6567 15.1333 22.03 15.1333H28.9696C28.6363 16.1028 27.9398 17.5114 26.7095 17.5122C26.7085 17.5122 26.7085 17.5122 26.7085 17.5122C26.1356 17.5122 25.836 17.0094 25.8228 16.9881L25.8035 16.9576C25.5841 16.6021 25.124 16.4802 24.7573 16.6803C24.3459 16.9048 24.2169 17.4401 24.4881 17.822C25.0153 18.5645 25.8035 19.0358 26.7085 19.0358H26.7095C28.3123 19.0347 29.3108 17.9246 29.9111 16.8022C30.355 17.6005 31.0751 18.3319 32.2432 18.4954C32.2797 18.5005 32.3153 18.5025 32.3498 18.5025C32.7236 18.5025 33.0507 18.2272 33.1035 17.8463C33.1624 17.4299 32.8719 17.0449 32.4545 16.986C31.5059 16.8534 31.0706 15.8683 30.8766 15.1333H31.8765C35.2492 15.1333 37.9932 17.8773 37.9932 21.25V23.1362C37.9932 25.2363 37.4021 27.2702 36.2851 29.0328C30.0848 32.3732 23.8351 32.4581 17.6236 29.0361C16.5046 27.2735 15.9124 25.2382 15.9124 23.1362V21.25H15.9123ZM26.9501 39.7213L17.2512 30.7208L17.3276 30.6087C20.105 32.0657 22.9105 32.8821 25.7305 33.0585L25.0146 34.3026C24.8047 34.6672 24.9302 35.1329 25.2949 35.3428C25.6595 35.5523 26.1253 35.4271 26.3351 35.0623L26.9531 33.9884L27.5711 35.0623C27.712 35.3073 27.9684 35.4443 28.232 35.4443C28.3609 35.4443 28.4915 35.4116 28.6113 35.3428C28.9759 35.1329 29.1015 34.6672 28.8916 34.3026L28.1715 33.0512C30.9667 32.8608 33.7725 32.0455 36.5754 30.6035L36.608 30.6514L26.9501 39.7213Z" fill="#09243C"/>
<path d="M24.4961 27.0414C24.5665 27.0772 25.6871 27.6319 27.0994 27.6319C27.8392 27.6319 28.6592 27.4795 29.4499 27.0205C29.8137 26.8092 29.9374 26.343 29.7263 25.9792C29.5151 25.6153 29.049 25.4917 28.6849 25.7028C27.1142 26.6147 25.2144 25.6967 25.1819 25.6808C24.8069 25.4924 24.3501 25.643 24.1604 26.0176C23.9704 26.3931 24.1207 26.8515 24.4961 27.0414Z" fill="#09243C"/>
<path d="M19.582 22.9729C19.6301 22.9973 20.3953 23.3762 21.3639 23.3762C21.8748 23.3762 22.4426 23.2706 22.9913 22.9521C23.3552 22.7409 23.4789 22.2747 23.2676 21.9108C23.0564 21.5469 22.5902 21.4234 22.2264 21.6344C21.366 22.1338 20.2923 21.6241 20.2663 21.6116C19.8917 21.4245 19.4356 21.575 19.2463 21.9492C19.0563 22.3247 19.2067 22.7829 19.582 22.9729Z" fill="#09243C"/>
<path d="M30.9531 22.9729C31.0013 22.9973 31.7664 23.3762 32.735 23.3762C33.2459 23.3762 33.8137 23.2706 34.3624 22.9521C34.7263 22.7409 34.8501 22.2747 34.6388 21.9108C34.4276 21.5469 33.9613 21.4234 33.5976 21.6344C32.7369 22.1338 31.6633 21.6241 31.6374 21.6116C31.2627 21.4245 30.8068 21.575 30.6174 21.9492C30.4274 22.3247 30.5777 22.7829 30.9531 22.9729Z" fill="#09243C"/>
<path d="M21.0989 45.2698L15.3935 50.6856C15.0884 50.9753 15.0759 51.4574 15.3655 51.7626C15.5153 51.9204 15.7165 51.9999 15.9182 51.9999C16.1065 51.9999 16.2951 51.9305 16.4425 51.7906L22.1478 46.3748C22.4529 46.0851 22.4654 45.6029 22.1758 45.2978C21.8862 44.9928 21.4041 44.9802 21.0989 45.2698Z" fill="#09243C"/>
<path d="M39.1603 40.9771C38.9309 40.8608 38.6583 40.8684 38.4354 40.9967C38.2153 41.1235 37.9619 41.1906 37.7024 41.1906C36.8831 41.1906 36.2166 40.5237 36.2166 39.7038C36.2166 39.5339 36.2445 39.3695 36.2997 39.215C36.3902 38.9613 36.3399 38.6787 36.1676 38.4717C35.9954 38.2648 35.7266 38.1637 35.4606 38.2072C33.7338 38.4866 32.4805 39.9602 32.4805 41.7111C32.4805 43.6684 34.0729 45.2608 36.0302 45.2608C37.9875 45.2608 39.5799 43.6683 39.5799 41.7111C39.5799 41.682 39.5799 41.6332 39.5733 41.5733C39.5449 41.3174 39.3897 41.0933 39.1603 40.9771ZM36.0301 43.7371C34.9129 43.7371 34.0039 42.8282 34.0039 41.711C34.0039 41.0893 34.2806 40.5287 34.7268 40.1557C34.9284 41.576 36.2631 42.7605 37.7908 42.713C37.4416 43.3242 36.7832 43.7371 36.0301 43.7371Z" fill="#09243C"/>
</svg>
