<svg width="52" height="52" viewBox="0 0 52 52" fill="none" xmlns="http://www.w3.org/2000/svg">
<path d="M19.2507 48.0689H16.0898V36.2031H22.1582L19.2507 48.0689Z" fill="#E0ECE5"/>
<path d="M26.3538 9.00051C26.3538 9.00051 44.7169 5.68652 44.599 22.1113L43.8798 41.8568C43.8798 41.8568 43.6177 50.524 37.0495 51.2094C37.0495 51.2094 25.7018 52.2897 13.5337 36.84C13.5337 36.84 12.6801 35.6983 11.6336 33.8783C8.12425 27.775 4.40125 14.8187 21.4872 10.9486L26.3538 9.00051Z" fill="#E0ECE5"/>
<path d="M18.8325 10.3438C12.9753 11.8181 11.0707 15.2413 9.76874 18.3634C7.46396 23.8905 9.42248 30.0333 11.6336 33.8789C11.6355 33.868 8.60031 26.9287 14.2993 21.2497C14.6601 20.8902 15.11 20.6017 15.6421 20.2802C17.7739 16.7625 18.8325 14.2466 18.8325 10.3438Z" fill="#FFE5A7"/>
<path d="M11.3809 25.9113C10.0948 20.5021 10.9046 14.4705 18.8102 11.3235C18.826 11.006 18.8344 10.6804 18.8344 10.3438C2.60846 14.428 8.17524 27.861 11.6355 33.8789C11.637 33.871 10.0066 30.1398 11.3809 25.9113Z" fill="#FFD162"/>
<path d="M12.6811 1.23961C12.6811 1.23961 12.1124 1.17919 11.7415 1.03906C11.7415 1.03906 11.7415 1.03906 11.3874 1.08049C7.73276 1.50798 7.34772 5.63237 8.80006 7.61322C8.80006 7.61322 16.1477 7.67039 18.3365 17.2656L21.4905 15.0746C21.4904 15.0746 19.4332 4.72327 12.6811 1.23961Z" fill="#FFD162"/>
<path d="M10.9713 6.53554C9.76156 4.8855 10.3403 2.30494 12.6792 1.2414C12.3333 1.06289 11.9754 0.901845 11.6044 0.761719C11.6044 0.761719 11.6044 0.761719 11.2504 0.803147C7.5957 1.23063 6.57369 5.93787 8.02603 7.91873C8.02603 7.91873 15.2454 7.52323 18.335 17.2668L20.7692 15.5757C17.4232 7.40655 10.9713 6.53554 10.9713 6.53554Z" fill="#FFE5A7"/>
<path d="M25.2287 16.38C25.6833 16.3107 25.3947 15.3034 25.3947 15.3034C26.042 12.3454 27.3349 9.2721 29.6572 7.95492C33.1062 5.99853 36.7584 6.71216 38.1996 7.12127C38.9748 7.3413 39.3657 6.63174 39.4028 6.6028C40.4878 5.21138 40.6132 3.29845 39.719 1.77737L39.4405 1.30379C39.2668 1.0083 38.9541 0.835174 38.6128 0.803595C29.9271 -0.000507176 24.7041 5.75564 24.7041 5.75564C19.3101 10.4213 16.1174 15.327 15.6445 20.2805C15.6445 20.2805 19.6727 17.2265 25.2287 16.38Z" fill="#E0ECE5"/>
<path d="M26.4849 4.91653C26.4849 4.91653 30.0381 1.20176 38.4677 0.79712C27.8401 0.315004 23.4387 4.91653 23.4387 4.91653C18.0447 9.58223 16.1174 15.3267 15.6445 20.2802C15.6445 20.2802 16.8884 19.3375 18.9464 18.3545C19.7106 13.8821 21.7773 8.98853 26.4849 4.91653Z" fill="#FFD162"/>
<path d="M44.05 37.2468C43.6323 37.2312 43.2766 37.5599 43.2613 37.9801C43.1535 40.9909 43.2808 43.3067 42.2214 45.9984C41.1572 48.702 39.3913 50.2009 36.9795 50.4525C36.9443 50.456 35.7772 50.5476 33.8167 50.1668C32.8007 49.9013 29.9205 48.7482 28.5278 44.0499C28.4084 43.6466 27.9847 43.4165 27.5812 43.5361C27.178 43.6556 26.948 44.0794 27.0675 44.4826C27.6094 46.3111 28.3589 47.6809 29.1662 48.7079C25.0339 46.9383 19.6777 43.4059 14.141 36.3785C14.0706 36.2832 13.2804 35.2041 12.3217 33.5431C11.9946 32.7175 9.8734 26.7378 14.8391 21.7895C15.3487 21.2817 16.1931 20.6916 17.2903 20.246C16.1403 22.4975 16.6425 25.2 17.6209 27.5056C17.7609 27.9533 18.0041 29.194 17.5751 29.9988C17.3735 30.3769 17.0387 30.6275 16.5514 30.7648C16.1467 30.8791 15.9111 31.2998 16.0253 31.7046C16.139 32.1076 16.5583 32.3454 16.965 32.2308C17.8506 31.9809 18.5276 31.4543 18.923 30.7078C19.7549 29.1373 19.0866 27.0853 19.0578 26.9988C19.0151 26.87 18.5464 25.875 18.3002 24.6375C19.3228 24.8179 20.9609 25.4627 21.4126 27.7204C21.4951 28.1327 21.8959 28.4003 22.3088 28.3178C22.7213 28.2353 22.9887 27.8341 22.9062 27.4216C22.3825 24.8041 20.5238 23.341 18.1487 23.0821C18.1819 20.8749 19.3793 19.8737 19.7574 19.6124C22.4981 19.2817 24.6915 20.0836 26.8645 21.7858C26.8996 21.8134 29.3362 23.7575 31.5152 27.1871C31.079 27.4299 30.5746 27.8272 30.1465 28.4754C29.1899 29.9241 29.4371 31.2517 29.5318 32.1319C28.7109 33.4125 27.5654 33.7375 26.1803 32.8669C25.8239 32.6429 25.354 32.7504 25.1302 33.1064C24.9063 33.4625 25.0137 33.9326 25.3697 34.1564C26.7778 35.0415 28.3006 35.1885 29.647 34.2071C29.6379 35.9311 29.3186 37.1102 28.7374 37.3561C28.3501 37.52 28.1688 37.9668 28.3328 38.3542C28.4966 38.7416 28.9437 38.9227 29.331 38.7589C30.4626 38.2801 31.6662 36.608 30.9733 31.3618C30.803 30.0718 31.4221 28.9651 32.292 28.4994C33.9554 31.5291 33.9084 32.804 34.6699 34.1613C34.2402 35.2573 33.2517 38.3936 35.1608 40.1893C35.4665 40.4767 35.9485 40.4634 36.2374 40.1563C36.5255 39.8499 36.5107 39.3679 36.2045 39.0797C35.3311 38.2584 35.4872 36.7194 35.802 35.5699C36.4915 36.1547 37.3046 36.4599 38.2077 36.4599C38.6284 36.4599 38.9692 36.1189 38.9692 35.6983C38.9692 35.2777 38.6284 34.9368 38.2077 34.9368C36.1509 34.9368 35.4879 32.1613 35.4819 32.1353C35.1747 30.7803 33.8263 27.7082 31.9681 25.1169C33.7568 25.4796 35.3226 24.9658 36.4753 23.8922C38.0601 23.9343 38.981 24.7253 38.9804 26.3296C38.9802 26.7502 39.321 27.0913 39.7417 27.0915H39.742C40.1624 27.0915 40.5033 26.7507 40.5035 26.3303C40.5043 24.3426 39.4906 23.0936 37.9178 22.5998C38.5799 22.1357 39.3744 21.7794 40.0954 21.9929C40.4986 22.1126 40.9225 21.8826 41.042 21.4792C41.1616 21.076 40.9316 20.6522 40.5283 20.5327C38.5129 19.9346 36.5776 21.5802 35.6035 22.6141C33.9997 24.3156 31.5572 23.8584 29.7631 22.4333C26.982 19.474 23.9458 17.628 19.7211 18.0815C18.5746 18.2045 17.4715 18.523 16.5839 18.8955C17.4063 13.5102 19.8745 9.00626 23.9364 5.49274C23.9886 5.44756 24.1994 5.21696 24.7434 4.81841C25.0826 4.56984 25.1562 4.09331 24.9076 3.75406C24.6592 3.41481 24.1825 3.34129 23.8433 3.58976C22.8918 4.28674 21.0612 5.98115 19.6551 7.79335C17.6261 3.87956 14.9491 1.21036 11.8738 0.0488307C11.4633 -0.106222 8.49722 0.0648742 7.1583 3.13821C6.37247 4.94209 6.47686 7.09282 7.41205 8.36858C7.56426 8.57613 7.81161 8.69219 8.0679 8.67869C8.10649 8.67676 11.1449 8.55227 13.9922 11.2799C11.0054 12.7709 8.96004 14.8446 7.90787 17.4519C7.75048 17.8419 7.93915 18.2858 8.32906 18.4432C8.71827 18.6001 9.16261 18.4128 9.32031 18.022C10.2718 15.6638 12.2013 13.7928 15.0561 12.4574C15.8305 13.4426 16.0243 13.9481 16.1992 14.1382C15.5763 15.9059 15.1533 17.7843 14.9326 19.7692C12.4419 21.4164 10.2459 24.9316 10.085 28.9251C8.71157 25.3936 8.51346 22.7811 8.63054 21.1091C8.65988 20.6896 8.34358 20.3256 7.92402 20.2963C7.50343 20.2665 7.14053 20.5831 7.11118 21.0028C6.5719 28.7023 12.6662 36.9498 12.9258 37.2972C13.2339 37.7092 14.3414 39.0583 15.3293 40.1559V48.0698C15.3293 48.4903 15.6703 48.8313 16.0908 48.8313H19.2516C19.6024 48.8313 19.9078 48.5917 19.9913 48.251L20.7163 45.2926C24.139 48.0516 27.2212 49.63 29.5854 50.5312C31.7931 51.3728 35.0352 52.1684 37.1305 51.9681C40.1171 51.6565 42.3675 49.7851 43.6384 46.5563C44.7931 43.6229 44.6687 41.243 44.7832 38.0356C44.7987 37.6153 44.4704 37.2621 44.05 37.2468ZM8.45619 7.16218C8.01977 6.27867 8.04739 4.91183 8.55499 3.74685C9.52227 1.52655 11.4549 1.56839 11.5055 1.54006C15.0513 2.96092 17.3399 6.45525 18.6517 9.19431C17.9794 10.2123 17.3921 11.2797 16.8926 12.3968C13.8524 7.83316 9.82537 7.2299 8.45619 7.16218ZM18.6545 47.3083H16.8527V41.7767C17.7206 42.6606 18.5768 43.4662 19.4161 44.2002L18.6545 47.3083Z" fill="#09243C"/>
<path d="M31.362 8.00351C34.1413 6.98252 36.8477 7.53043 37.9903 7.85486C38.3498 7.9569 39.2642 8.08647 39.9889 7.08842C39.9934 7.08304 39.9977 7.07766 40.002 7.07208C41.2874 5.42387 41.4335 3.19443 40.3741 1.39249C40.2183 1.20961 39.8802 0.104849 38.6492 0.0439247C34.1708 -0.177638 30.2144 0.439731 26.8874 1.87928C26.5013 2.04631 26.3238 2.49461 26.4909 2.88057C26.658 3.26653 27.106 3.44443 27.4923 3.27709C31.3671 1.60055 35.6574 1.42102 38.5738 1.56511C38.7992 1.57628 39.0611 2.1642 39.0611 2.1642C39.7979 3.41742 39.7008 4.96632 38.8153 6.11698C38.6943 6.26026 38.611 6.4477 38.4063 6.38962C36.8971 5.96122 32.986 5.19144 29.2802 7.29344C26.5978 8.81493 25.1401 12.466 24.585 15.4636C24.3737 15.4268 24.1613 15.3957 23.9474 15.3719C23.5294 15.3252 23.1528 15.6266 23.1063 16.0446C23.0598 16.4627 23.361 16.8392 23.779 16.8857C24.9568 17.0167 26.0918 17.3805 27.1526 17.967C27.2694 18.0316 27.3958 18.0623 27.5204 18.0623C28.3062 18.0623 28.5744 17.0127 27.8896 16.6341C27.3005 16.3083 26.6912 16.0422 26.0658 15.8355C26.4219 13.801 27.3679 11.0894 28.8928 9.51637C31.8516 9.38173 37.1511 9.66949 40.5539 12.9246C42.7601 15.0352 43.8653 18.121 43.8389 22.0967L43.3813 34.6618C43.366 35.082 43.6943 35.4352 44.1146 35.4505C44.535 35.4659 44.8881 35.1375 44.9035 34.7172C45.3829 21.5476 45.3616 22.1453 45.362 22.1185C45.4261 13.1504 40.0798 8.46481 31.362 8.00351Z" fill="#09243C"/>
</svg>
