<svg width="20" height="20" viewBox="0 0 20 20" fill="none" xmlns="http://www.w3.org/2000/svg">
<g clip-path="url(#clip0_1_475)">
<path d="M12.245 10.3094L11.845 11.5427C11.2507 13.3885 9.63934 14.7215 7.71497 14.9594C7.50828 14.9862 7.30006 14.9996 7.09164 14.9994H6.90497C6.72677 14.9995 6.54871 14.9895 6.37164 14.9694C4.41008 14.7647 2.75469 13.4205 2.15164 11.5427L1.7483 10.3094C1.62618 9.93397 1.73638 9.52181 2.02959 9.25742C2.32279 8.99303 2.74411 8.9259 3.10497 9.08608V9.08941C3.36548 9.20082 3.56489 9.41969 3.65164 9.68941L4.05164 10.9261C4.45144 12.1636 5.60448 13.0014 6.90497 12.9994H7.09164C8.39213 13.0014 9.54516 12.1636 9.94497 10.9261L10.345 9.68941C10.4317 9.41969 10.6311 9.20082 10.8916 9.08941V9.08608C11.3574 8.87877 11.9045 9.05729 12.1583 9.49941C12.3035 9.744 12.3351 10.0396 12.245 10.3094Z" fill="#C4FDA0"/>
<path d="M12.1581 9.49941C11.9043 9.05729 11.3572 8.87877 10.8914 9.08608V9.08941C10.8602 9.10466 10.8298 9.12158 10.8004 9.14008C11.2041 9.37767 11.3888 9.86367 11.2448 10.3094L10.8448 11.5427C10.2505 13.3885 8.63914 14.7215 6.71477 14.9594C6.65177 14.9677 6.58744 14.9724 6.52344 14.9781C6.6501 14.9881 6.7761 14.9994 6.90477 14.9994H7.09144C7.29986 14.9996 7.50808 14.9862 7.71477 14.9594C9.63914 14.7215 11.2505 13.3885 11.8448 11.5427L12.2448 10.3094C12.3349 10.0396 12.3033 9.744 12.1581 9.49941Z" fill="#6EC23A"/>
<path d="M2.04774 3.15758C1.66874 3.67432 1.56318 4.3425 1.7644 4.95091L3.1044 9.08758C2.87948 8.98698 2.62512 8.97391 2.39107 9.05091C2.15831 9.12731 1.96151 9.28617 1.83774 9.49758L0.494402 5.36091C0.159268 4.34699 0.336981 3.23348 0.971069 2.37424C1.52402 1.60146 2.385 1.10652 3.33107 1.01758V2.36091C2.81468 2.44607 2.35315 2.73257 2.04774 3.15758Z" fill="white"/>
<path d="M13.5046 5.36091L12.1613 9.50091C11.9075 9.05879 11.3604 8.88027 10.8946 9.08758L12.2346 4.95091C12.4143 4.39823 12.3447 3.79472 12.0439 3.29746C11.7431 2.80019 11.2409 2.45836 10.668 2.36091V1.01758C11.67 1.11954 12.5723 1.66882 13.1231 2.51211C13.6738 3.35541 13.8141 4.40241 13.5046 5.36091Z" fill="white"/>
<path d="M13.028 2.37424C12.4736 1.60302 11.6134 1.10853 10.668 1.01758V1.27724C12.2359 1.96697 13.0289 3.73018 12.5046 5.36091L11.322 9.00591C11.419 9.00652 11.5154 9.02168 11.608 9.05091C11.8422 9.1265 12.0396 9.28704 12.1613 9.50091L13.5046 5.36091C13.8382 4.34686 13.6606 3.2341 13.028 2.37424Z" fill="#E1E5E8"/>
<path d="M17.3311 13.2598V14.3331C17.3272 17.277 14.9417 19.6626 11.9978 19.6664H11.6644C8.96661 19.6635 6.69507 17.6481 6.37109 14.9698C6.54816 14.9898 6.72623 14.9998 6.90443 14.9998H7.09109C7.29952 14.9999 7.50773 14.9866 7.71443 14.9598C8.02363 16.9019 9.69785 18.3317 11.6644 18.3331H11.9978C14.2061 18.3313 15.9959 16.5415 15.9978 14.3331V13.2598C16.4368 13.3576 16.892 13.3576 17.3311 13.2598Z" fill="#C4FDA0"/>
<path d="M16.6662 13.3331C16.5548 13.333 16.4435 13.3267 16.3329 13.3144V14.3331C16.3277 17.1508 14.1327 19.479 11.3202 19.6501C11.4349 19.6578 11.5495 19.6664 11.6662 19.6664H11.9995C14.9434 19.6626 17.329 17.277 17.3329 14.3331V13.2598C17.1139 13.3081 16.8904 13.3327 16.6662 13.3331Z" fill="#6EC23A"/>
<path d="M19.6644 10.3324C19.6642 11.7327 18.6961 12.9469 17.3311 13.2591C16.892 13.3569 16.4368 13.3569 15.9977 13.2591C14.4672 12.9102 13.4644 11.4405 13.6977 9.88813C13.9311 8.33578 15.3217 7.22581 16.8872 7.34238C18.4526 7.45895 19.6635 8.76263 19.6644 10.3324Z" fill="white"/>
<path d="M16.668 7.33399C16.5003 7.33507 16.3331 7.35012 16.168 7.37899C17.5782 7.61905 18.6228 8.82149 18.6633 10.2515C18.7039 11.6815 17.7291 12.9411 16.3346 13.2607C16.2803 13.2727 16.2236 13.279 16.168 13.2883C16.3331 13.3171 16.5003 13.3324 16.668 13.334C16.8922 13.3336 17.1157 13.309 17.3346 13.2607C18.8272 12.9245 19.8276 11.519 19.6566 9.99864C19.4856 8.47829 18.1979 7.3302 16.668 7.33399Z" fill="#E1E5E8"/>
<path d="M16.6654 11.6667C17.4017 11.6667 17.9987 11.0697 17.9987 10.3333C17.9987 9.59695 17.4017 9 16.6654 9C15.929 9 15.332 9.59695 15.332 10.3333C15.332 11.0697 15.929 11.6667 16.6654 11.6667Z" fill="white"/>
<path d="M5.33203 1.33398V2.00065C5.33203 2.55294 4.88432 3.00065 4.33203 3.00065H3.66536C3.48127 3.00065 3.33203 2.85141 3.33203 2.66732V0.667318C3.33203 0.483223 3.48127 0.333984 3.66536 0.333984H4.33203C4.88432 0.333984 5.33203 0.7817 5.33203 1.33398Z" fill="#F5F5F5"/>
<path d="M10.668 0.667318V2.66732C10.668 2.85141 10.5187 3.00065 10.3346 3.00065H9.66797C9.11568 3.00065 8.66797 2.55294 8.66797 2.00065V1.33398C8.66797 0.7817 9.11568 0.333984 9.66797 0.333984H10.3346C10.5187 0.333984 10.668 0.483223 10.668 0.667318Z" fill="#F5F5F5"/>
<path d="M16.6662 7C15.0207 7.00021 13.6216 8.20107 13.3719 9.82747C13.1222 11.4539 14.0966 13.0192 15.6662 13.513V14.3333C15.6638 16.3574 14.0236 17.9976 11.9995 18H11.6662C9.99126 17.9901 8.53254 16.8546 8.11186 15.2333C10.0161 14.8664 11.5694 13.4914 12.1645 11.6457L12.5645 10.4123C12.6632 10.1059 12.6463 9.77392 12.5172 9.479L13.8199 5.46333C14.187 4.34805 13.9917 3.12407 13.2959 2.17833C12.7483 1.41489 11.9244 0.895341 10.9995 0.730333V0.666667C10.9995 0.298477 10.7011 0 10.3329 0H9.6662C8.92982 0 8.33286 0.596954 8.33286 1.33333V2C8.33286 2.73638 8.92982 3.33333 9.6662 3.33333H10.3329C10.6482 3.33328 10.9204 3.11229 10.9852 2.80367C11.7807 3.13816 12.1858 4.02766 11.9159 4.84733L10.6159 8.859C10.3369 9.02201 10.1274 9.2816 10.0269 9.58867L9.62686 10.822C9.27243 11.9227 8.24752 12.6683 7.0912 12.6667H6.90753C5.75096 12.6687 4.72553 11.9234 4.37053 10.8227L3.97053 9.58933C3.87013 9.2824 3.66069 9.02292 3.38186 8.86L2.08186 4.84767C1.81189 4.02745 2.21762 3.13747 3.01386 2.80333C3.07853 3.11208 3.35074 3.33325 3.6662 3.33333H4.33286C5.06924 3.33333 5.6662 2.73638 5.6662 2V1.33333C5.6662 0.596954 5.06924 0 4.33286 0H3.6662C3.29801 0 2.99953 0.298477 2.99953 0.666667V0.729667C2.07397 0.892259 1.24938 1.41206 0.703529 2.177C0.00574613 3.1223 -0.189753 4.34749 0.179196 5.463L1.4822 9.476C1.35209 9.77129 1.33455 10.104 1.43286 10.4113L1.83286 11.6447C2.45013 13.5601 4.09584 14.963 6.08486 15.2693C6.53886 17.9985 8.89952 19.9994 11.6662 20H11.9995C15.1277 19.9965 17.6627 17.4615 17.6662 14.3333V13.513C19.2358 13.0192 20.2102 11.4539 19.9605 9.82747C19.7108 8.20107 18.3117 7.00021 16.6662 7ZM3.6662 0.666667H4.33286C4.70105 0.666667 4.99953 0.965144 4.99953 1.33333V2C4.99953 2.36819 4.70105 2.66667 4.33286 2.66667H3.6662V0.666667ZM9.6662 2.66667C9.29801 2.66667 8.99953 2.36819 8.99953 2V1.33333C8.99953 0.965144 9.29801 0.666667 9.6662 0.666667H10.3329V2.66667H9.6662ZM12.5499 5.05267C12.7445 4.4553 12.6897 3.80462 12.3978 3.24826C12.1059 2.69189 11.6017 2.27699 10.9995 2.09767V1.409C11.8197 1.59697 12.5234 2.12053 12.939 2.85214C13.3547 3.58374 13.4443 4.45621 13.1859 5.257L12.0105 8.87967C11.9163 8.81769 11.8146 8.76795 11.7079 8.73167C11.6007 8.69866 11.4899 8.67917 11.3779 8.67367L12.5499 5.05267ZM1.24286 2.56867C1.66443 1.97753 2.29042 1.56393 2.99953 1.408V2.09767C2.3974 2.27691 1.89318 2.69175 1.60128 3.24807C1.30938 3.80438 1.25454 4.45501 1.4492 5.05233L2.6212 8.67367C2.5092 8.67912 2.39834 8.6986 2.2912 8.73167C2.1848 8.76789 2.08334 8.81727 1.9892 8.87867L0.813196 5.257C0.51143 4.34428 0.671643 3.34186 1.24286 2.56867ZM2.4682 11.4397L2.0682 10.2063C1.98107 9.97643 2.02754 9.71724 2.18913 9.53193C2.35071 9.34663 2.60116 9.2653 2.84078 9.32032C3.08041 9.37533 3.2703 9.55777 3.33486 9.795L3.73486 11.0283C4.17854 12.4049 5.46121 13.3368 6.90753 13.3333H7.0912C8.5369 13.3361 9.8187 12.4043 10.2622 11.0283L10.6622 9.795C10.7758 9.44476 11.1518 9.25291 11.502 9.3665C11.8523 9.48009 12.0441 9.85609 11.9305 10.2063L11.5305 11.4397C10.9098 13.3662 9.11522 14.6707 7.0912 14.6667H6.90753C4.88364 14.6703 3.08926 13.3659 2.4682 11.4397ZM16.9995 14.3333C16.9964 17.0935 14.7597 19.3302 11.9995 19.3333H11.6662C9.28895 19.3334 7.241 17.6581 6.76986 15.328C6.81586 15.328 6.8612 15.3333 6.90753 15.3333H7.0912C7.21186 15.3333 7.3312 15.327 7.44986 15.319C7.91755 17.2722 9.65787 18.6539 11.6662 18.6667H11.9995C14.3916 18.6639 16.3301 16.7254 16.3329 14.3333V13.6497C16.5545 13.6723 16.7779 13.6723 16.9995 13.6497V14.3333ZM16.6662 13C15.1934 13 13.9995 11.8061 13.9995 10.3333C13.9995 8.86057 15.1934 7.66667 16.6662 7.66667C18.139 7.66667 19.3329 8.86057 19.3329 10.3333C19.3312 11.8054 18.1383 12.9983 16.6662 13Z" fill="#09243C"/>
<path d="M16.6667 8.66602C15.7462 8.66602 15 9.41221 15 10.3327C15 11.2532 15.7462 11.9993 16.6667 11.9993C17.5871 11.9993 18.3333 11.2532 18.3333 10.3327C18.3322 9.41266 17.5867 8.66712 16.6667 8.66602ZM16.6667 11.3327C16.1144 11.3327 15.6667 10.885 15.6667 10.3327C15.6667 9.7804 16.1144 9.33268 16.6667 9.33268C17.219 9.33268 17.6667 9.7804 17.6667 10.3327C17.6667 10.885 17.219 11.3327 16.6667 11.3327Z" fill="#09243C"/>
</g>
<defs>
<clipPath id="clip0_1_475">
<rect width="20" height="20" fill="white"/>
</clipPath>
</defs>
</svg>
