<svg width="24" height="24" viewBox="0 0 24 24" fill="none" xmlns="http://www.w3.org/2000/svg">
<path d="M8 5.75C7.59 5.75 7.25 5.41 7.25 5V2C7.25 1.59 7.59 1.25 8 1.25C8.41 1.25 8.75 1.59 8.75 2V5C8.75 5.41 8.41 5.75 8 5.75Z" fill="#09243C"/>
<path d="M16 5.75C15.59 5.75 15.25 5.41 15.25 5V2C15.25 1.59 15.59 1.25 16 1.25C16.41 1.25 16.75 1.59 16.75 2V5C16.75 5.41 16.41 5.75 16 5.75Z" fill="#09243C"/>
<path d="M8.5 14.5003C8.37 14.5003 8.24 14.4703 8.12 14.4203C7.99 14.3703 7.89 14.3003 7.79 14.2103C7.61 14.0203 7.5 13.7703 7.5 13.5003C7.5 13.3703 7.53 13.2403 7.58 13.1203C7.63 13.0003 7.7 12.8903 7.79 12.7903C7.89 12.7003 7.99 12.6303 8.12 12.5803C8.48 12.4303 8.93 12.5103 9.21 12.7903C9.39 12.9803 9.5 13.2403 9.5 13.5003C9.5 13.5603 9.49 13.6303 9.48 13.7003C9.47 13.7603 9.45 13.8203 9.42 13.8803C9.4 13.9403 9.37 14.0003 9.33 14.0603C9.3 14.1103 9.25 14.1603 9.21 14.2103C9.02 14.3903 8.76 14.5003 8.5 14.5003Z" fill="#09243C"/>
<path d="M12 14.5008C11.87 14.5008 11.74 14.4708 11.62 14.4208C11.49 14.3708 11.39 14.3008 11.29 14.2108C11.11 14.0208 11 13.7708 11 13.5008C11 13.3708 11.03 13.2408 11.08 13.1208C11.13 13.0008 11.2 12.8908 11.29 12.7908C11.39 12.7008 11.49 12.6308 11.62 12.5808C11.98 12.4208 12.43 12.5108 12.71 12.7908C12.89 12.9808 13 13.2408 13 13.5008C13 13.5608 12.99 13.6308 12.98 13.7008C12.97 13.7608 12.95 13.8208 12.92 13.8808C12.9 13.9408 12.87 14.0008 12.83 14.0608C12.8 14.1108 12.75 14.1608 12.71 14.2108C12.52 14.3908 12.26 14.5008 12 14.5008Z" fill="#09243C"/>
<path d="M15.5 14.5008C15.37 14.5008 15.24 14.4708 15.12 14.4208C14.99 14.3708 14.89 14.3008 14.79 14.2108C14.75 14.1608 14.71 14.1108 14.67 14.0608C14.63 14.0008 14.6 13.9408 14.58 13.8808C14.55 13.8208 14.53 13.7608 14.52 13.7008C14.51 13.6308 14.5 13.5608 14.5 13.5008C14.5 13.2408 14.61 12.9808 14.79 12.7908C14.89 12.7008 14.99 12.6308 15.12 12.5808C15.49 12.4208 15.93 12.5108 16.21 12.7908C16.39 12.9808 16.5 13.2408 16.5 13.5008C16.5 13.5608 16.49 13.6308 16.48 13.7008C16.47 13.7608 16.45 13.8208 16.42 13.8808C16.4 13.9408 16.37 14.0008 16.33 14.0608C16.3 14.1108 16.25 14.1608 16.21 14.2108C16.02 14.3908 15.76 14.5008 15.5 14.5008Z" fill="#09243C"/>
<path d="M8.5 17.9991C8.37 17.9991 8.24 17.9692 8.12 17.9192C8 17.8692 7.89 17.7991 7.79 17.7091C7.61 17.5191 7.5 17.2591 7.5 16.9991C7.5 16.8691 7.53 16.7391 7.58 16.6191C7.63 16.4891 7.7 16.3792 7.79 16.2892C8.16 15.9192 8.84 15.9192 9.21 16.2892C9.39 16.4792 9.5 16.7391 9.5 16.9991C9.5 17.2591 9.39 17.5191 9.21 17.7091C9.02 17.8891 8.76 17.9991 8.5 17.9991Z" fill="#09243C"/>
<path d="M12 17.9991C11.74 17.9991 11.48 17.8891 11.29 17.7091C11.11 17.5191 11 17.2591 11 16.9991C11 16.8691 11.03 16.7391 11.08 16.6191C11.13 16.4891 11.2 16.3792 11.29 16.2892C11.66 15.9192 12.34 15.9192 12.71 16.2892C12.8 16.3792 12.87 16.4891 12.92 16.6191C12.97 16.7391 13 16.8691 13 16.9991C13 17.2591 12.89 17.5191 12.71 17.7091C12.52 17.8891 12.26 17.9991 12 17.9991Z" fill="#09243C"/>
<path d="M15.5 17.9989C15.24 17.9989 14.98 17.8889 14.79 17.7089C14.7 17.6189 14.63 17.5089 14.58 17.3789C14.53 17.2589 14.5 17.1289 14.5 16.9989C14.5 16.8689 14.53 16.7389 14.58 16.6189C14.63 16.4889 14.7 16.3789 14.79 16.2889C15.02 16.0589 15.37 15.9489 15.69 16.0189C15.76 16.0289 15.82 16.0489 15.88 16.0789C15.94 16.0989 16 16.1289 16.06 16.1689C16.11 16.1989 16.16 16.2489 16.21 16.2889C16.39 16.4789 16.5 16.7389 16.5 16.9989C16.5 17.2589 16.39 17.5189 16.21 17.7089C16.02 17.8889 15.76 17.9989 15.5 17.9989Z" fill="#09243C"/>
<path d="M20.5 9.83984H3.5C3.09 9.83984 2.75 9.49984 2.75 9.08984C2.75 8.67984 3.09 8.33984 3.5 8.33984H20.5C20.91 8.33984 21.25 8.67984 21.25 9.08984C21.25 9.49984 20.91 9.83984 20.5 9.83984Z" fill="#09243C"/>
<path d="M16 22.75H8C4.35 22.75 2.25 20.65 2.25 17V8.5C2.25 4.85 4.35 2.75 8 2.75H16C19.65 2.75 21.75 4.85 21.75 8.5V17C21.75 20.65 19.65 22.75 16 22.75ZM8 4.25C5.14 4.25 3.75 5.64 3.75 8.5V17C3.75 19.86 5.14 21.25 8 21.25H16C18.86 21.25 20.25 19.86 20.25 17V8.5C20.25 5.64 18.86 4.25 16 4.25H8Z" fill="#09243C"/>
</svg>
