<svg width="24" height="24" viewBox="0 0 24 24" fill="none" xmlns="http://www.w3.org/2000/svg">
<path d="M8.75 5.5C8.75 5.08579 9.08579 4.75 9.5 4.75H18.5C18.9142 4.75 19.25 5.08579 19.25 5.5V14.5C19.25 14.9142 18.9142 15.25 18.5 15.25C18.0858 15.25 17.75 14.9142 17.75 14.5V6.25H9.5C9.08579 6.25 8.75 5.91421 8.75 5.5Z" fill="#09243C"/>
<path d="M19.0317 4.96967C19.3246 5.26256 19.3246 5.73744 19.0317 6.03033L6.30376 18.7583C6.01087 19.0512 5.53601 19.0512 5.24311 18.7583C4.95021 18.4654 4.95021 17.9905 5.24311 17.6976L17.971 4.96967C18.2639 4.67678 18.7388 4.67678 19.0317 4.96967Z" fill="#09243C"/>
</svg>
