<svg width="45" height="45" viewBox="0 0 45 45" fill="none" xmlns="http://www.w3.org/2000/svg">
<g clip-path="url(#clip0_569_37)">
<path d="M22.5 45C34.9264 45 45 34.9264 45 22.5C45 10.0736 34.9264 0 22.5 0C10.0736 0 0 10.0736 0 22.5C0 34.9264 10.0736 45 22.5 45Z" fill="#E1E6E9"/>
<path d="M42.1875 25.0313L38.6719 20.3906C38.6719 9.84375 28.8281 1.54687 17.8594 4.14843C10.4063 5.90625 5.20312 12.7266 5.20312 20.3203C5.20312 25.9453 7.73438 30.5156 12.0234 33.5391V44.2969H29.8828V38.3203H34.2422C36.4922 38.3203 38.3906 36.4922 38.3906 34.1719V33.1875L36.1406 31.5L38.3906 29.8828V27.3516H41.0625C42.2578 27.3516 42.9609 26.0156 42.1875 25.0313Z" fill="white"/>
<path d="M30.5859 45H11.3203V33.9609C6.89063 30.7265 4.5 25.875 4.5 20.3906C4.5 12.375 10.0547 5.27343 17.6484 3.51562C22.9922 2.24999 28.4766 3.44531 32.6953 6.74999C36.8438 10.0547 39.2344 14.9062 39.3047 20.1797L42.75 24.6797C43.2422 25.3125 43.3125 26.2265 42.961 26.9297C42.6094 27.7031 41.836 28.125 40.9922 28.125H39.0235V30.3047L37.2656 31.5703L39.0235 32.9062V34.2422C39.0235 36.914 36.8438 39.0937 34.1719 39.0937H30.5156V45H30.5859ZM12.7266 43.5937H29.1797V37.6172H34.2422C36.1406 37.6172 37.6875 36.0703 37.6875 34.1719V33.539L34.9453 31.5L37.6875 29.5312V26.6484H41.0625C41.3438 26.6484 41.625 26.5078 41.7656 26.2265C41.9063 25.9453 41.836 25.664 41.6953 25.4531L37.9688 20.6015V20.3906C37.9688 15.4687 35.7188 10.8984 31.8516 7.80468C27.9844 4.71093 22.9219 3.65624 18 4.85156C10.9688 6.46874 5.90625 13.0078 5.90625 20.3203C5.90625 25.5937 8.15625 29.9531 12.4453 32.9765L12.7266 33.1875V43.5937Z" fill="#193651"/>
<path d="M38.3906 29.25H27.4922C22.9922 29.25 19.3359 32.9063 19.3359 37.4063V44.3672H24.0469V37.4063C24.0469 35.5078 25.5938 33.8906 27.5625 33.8906H38.4609L36.3516 31.5L38.3906 29.25Z" fill="#F16050"/>
<path d="M21.5156 28.6875C26.758 28.6875 31.0078 24.4377 31.0078 19.1953C31.0078 13.9529 26.758 9.70312 21.5156 9.70312C16.2732 9.70312 12.0234 13.9529 12.0234 19.1953C12.0234 24.4377 16.2732 28.6875 21.5156 28.6875Z" fill="#FDBE5E"/>
<path d="M16.0312 18.4922H17.4375V19.8984H16.0312V18.4922Z" fill="#193651"/>
<path d="M20.8125 18.4922H22.2188V19.8984H20.8125V18.4922Z" fill="#193651"/>
<path d="M25.5938 18.4922H27V19.8984H25.5938V18.4922Z" fill="#193651"/>
<path d="M30.5859 45H11.3203V33.9609C6.89063 30.7265 4.5 25.875 4.5 20.3906C4.5 12.375 10.0547 5.27343 17.6484 3.51562C22.9922 2.24999 28.4766 3.44531 32.6953 6.74999C36.8438 10.0547 39.2344 14.9062 39.3047 20.1797L42.75 24.6797C43.2422 25.3125 43.3125 26.2265 42.961 26.9297C42.6094 27.7031 41.836 28.125 40.9922 28.125H39.0235V30.3047L37.2656 31.5703L39.0235 32.9062V34.2422C39.0235 36.914 36.8438 39.0937 34.1719 39.0937H30.5156V45H30.5859ZM12.7266 43.5937H29.1797V37.6172H34.2422C36.1406 37.6172 37.6875 36.0703 37.6875 34.1719V33.539L34.9453 31.5L37.6875 29.5312V26.6484H41.0625C41.3438 26.6484 41.625 26.5078 41.7656 26.2265C41.9063 25.9453 41.836 25.664 41.6953 25.4531L37.9688 20.6015V20.3906C37.9688 15.4687 35.7188 10.8984 31.8516 7.80468C27.9844 4.71093 22.9219 3.65624 18 4.85156C10.9688 6.46874 5.90625 13.0078 5.90625 20.3203C5.90625 25.5937 8.15625 29.9531 12.4453 32.9765L12.7266 33.1875V43.5937Z" fill="#193651"/>
</g>
<defs>
<clipPath id="clip0_569_37">
<rect width="45" height="45" fill="white"/>
</clipPath>
</defs>
</svg>
