<svg width="50" height="50" viewBox="0 0 50 50" fill="none" xmlns="http://www.w3.org/2000/svg">
<g clip-path="url(#clip0_569_59)">
<path d="M43.188 23.2507C45.654 25.7686 47.8843 28.5069 49.8513 31.431C50.0497 31.7098 50.0497 32.0836 49.8513 32.3621C47.972 35.2068 37.5592 49.9985 25 49.9985C12.4409 49.9985 2.02809 35.2068 0.14876 32.3621C-0.0495866 32.0836 -0.0495866 31.7098 0.14876 31.431C2.02809 28.5866 12.4409 13.7949 25 13.7949C29.3961 13.7949 33.5423 15.6136 37.1369 18.096L43.188 23.2507Z" fill="#E4E8EB"/>
<path d="M37.0678 31.8967C37.0678 38.5615 31.6648 43.9646 25 43.9646C18.3352 43.9646 12.9321 38.5615 12.9321 31.8967C12.9321 25.2319 18.3352 19.8289 25 19.8289C31.6648 19.8289 37.0678 25.2319 37.0678 31.8967Z" fill="#5E9CEA"/>
<path d="M18.9663 24.1387C18.9663 25.5668 17.8087 26.7249 16.3802 26.7249C14.9521 26.7249 13.7944 25.5668 13.7944 24.1387C13.7944 22.7107 14.9521 21.5526 16.3802 21.5526C17.8087 21.5526 18.9663 22.7107 18.9663 24.1387Z" fill="white"/>
<path d="M49.9978 4.2095C49.9967 4.70346 49.909 5.1936 49.7392 5.65781L43.1881 23.2508L42.4553 25.2247L41.0677 28.9486C40.9055 29.3869 40.4238 29.6162 39.9813 29.4659L35.0337 27.7937C34.5939 27.6422 34.3536 27.1692 34.4906 26.7249L36.6026 19.8461L37.137 18.096L41.7745 2.95954C42.3939 0.976454 44.3686 -0.257871 46.4226 0.0545249C48.4767 0.366539 49.9955 2.13182 49.9978 4.2095Z" fill="#46CEAC"/>
<path d="M39.3494 33.9992L38.2433 37.2696C37.3835 39.8081 34.7291 41.272 32.1231 40.6442C32.0091 40.6121 31.913 40.5339 31.858 40.4287C31.8031 40.3238 31.794 40.2002 31.8329 40.088L35.8841 28.077L39.1503 29.182L38.5045 31.1209C38.3775 31.4596 38.4786 31.8414 38.7563 32.0733C39.3452 32.5227 39.5832 33.2962 39.3494 33.9992Z" fill="#636C77"/>
<path d="M29.9875 30.4961C30.446 32.1424 30.0634 33.9088 28.9652 35.2179C27.8671 36.5274 26.1945 37.2117 24.4933 37.0469C22.6117 36.8325 20.9906 35.6222 20.2498 33.8791C19.9657 33.2383 19.8219 32.5437 19.8283 31.8422C19.8459 31.3845 20.2269 31.0256 20.685 31.0347C21.9182 31.0275 22.9782 30.1589 23.2281 28.9513C23.2956 28.6019 23.2918 28.2422 23.2159 27.8944C23.1636 27.6666 23.2048 27.4275 23.3303 27.2307C23.4562 27.0335 23.6553 26.895 23.8838 26.8462C25.3099 26.5345 26.801 26.8332 27.9972 27.6693C28.9763 28.3445 29.682 29.3469 29.9875 30.4961Z" fill="#424852"/>
<path d="M37.1371 18.096L36.6027 19.846L34.5509 18.096C31.3659 15.7513 27.6203 14.2858 23.6899 13.8464C24.121 13.8121 24.5604 13.7949 25.0002 13.7949C29.3962 13.7949 33.5424 15.6136 37.1371 18.096Z" fill="#CAD0D7"/>
<path d="M49.8514 32.3621C47.972 35.2068 37.5592 49.9985 25.0001 49.9985C24.5691 49.9985 24.1381 49.9813 23.707 49.9466C35.6803 48.99 45.455 35.1118 47.2652 32.3621C47.4636 32.0836 47.4636 31.7098 47.2652 31.431C45.8047 29.2557 44.1977 27.1818 42.4553 25.2247L43.1881 23.2507C45.6541 25.7686 47.8843 28.5069 49.8514 31.431C50.0497 31.7098 50.0497 32.0836 49.8514 32.3621Z" fill="#CAD0D7"/>
<path d="M49.998 4.20949C49.9968 4.70345 49.9091 5.19359 49.7394 5.6578L43.1882 23.2507L42.4555 25.2247L41.0678 28.9486C40.9057 29.3869 40.424 29.6161 39.9815 29.4659L39.1973 29.1985C39.261 29.1248 39.3106 29.0402 39.3437 28.9486L40.7314 25.2247L41.4641 23.2507L48.0153 5.6578C48.4074 4.59321 48.3521 3.41496 47.8616 2.39195C47.371 1.36894 46.4876 0.58814 45.412 0.22692C45.2564 0.175808 45.0981 0.132706 44.9379 0.0976136C45.6687 -0.0610636 46.4293 -0.0164356 47.1361 0.22692C48.8449 0.804032 49.9961 2.40568 49.998 4.20949Z" fill="#35BA9B"/>
<path d="M39.3522 34L38.2399 37.267C37.3828 39.8081 34.7273 41.2743 32.1198 40.6457C32.005 40.6133 31.9081 40.5347 31.8528 40.4287C31.7975 40.3226 31.7879 40.1987 31.8268 40.0854L32.0595 39.3961C34.239 39.3538 36.1584 37.9513 36.861 35.8877L37.9641 32.6119C38.1991 31.9074 37.9603 31.1316 37.3695 30.6811C37.0941 30.4496 36.9941 30.07 37.1196 29.7332L37.4816 28.621L39.1451 29.1813L38.5073 31.1209C38.3776 31.4577 38.4783 31.8399 38.7571 32.0691C39.3491 32.5185 39.5883 33.2955 39.3522 34Z" fill="#424852"/>
<path d="M43.9052 8.62308C43.6321 8.6227 43.3747 8.49301 43.2122 8.27331C43.0497 8.0536 43.0012 7.76981 43.0813 7.50853L44.2424 3.71553C44.4579 3.04535 45.0812 2.5903 45.7853 2.58877C46.2614 2.56818 46.6642 2.93741 46.6848 3.41344C46.7054 3.88947 46.3365 4.29226 45.8605 4.31286L44.7261 8.01965C44.6132 8.3782 44.281 8.62232 43.9052 8.62308Z" fill="#61DDBC"/>
</g>
<defs>
<clipPath id="clip0_569_59">
<rect width="50" height="50" fill="white"/>
</clipPath>
</defs>
</svg>
