<svg width="141" height="141" viewBox="0 0 141 141" fill="none" xmlns="http://www.w3.org/2000/svg">
<g clip-path="url(#clip0_283_124)">
<path d="M55.907 51.3179C41.2549 62.3761 32.6874 78.5984 30.5065 96.0165C30.2114 98.373 31.8546 100.55 34.2016 100.913C51.55 103.592 69.5 99.8008 84.152 88.7426C98.8041 77.6844 107.372 61.4622 109.553 44.044C109.847 41.6876 108.204 39.5105 105.857 39.1479C88.509 36.4689 70.5592 40.2596 55.907 51.3179Z" fill="#FAF5DC"/>
<path d="M58.7314 55.0606C73.6286 43.8174 91.934 40.0931 109.551 43.0368C109.344 41.0967 107.863 39.4579 105.857 39.1481C88.5087 36.4692 70.559 40.26 55.9069 51.3181C41.2548 62.3763 32.6873 78.5986 30.5065 96.0166C30.2544 98.0308 31.4242 99.9044 33.2333 100.635C35.2332 82.8864 43.8343 66.3037 58.7314 55.0606Z" fill="#F5EBCD"/>
<path d="M84.1522 88.7426C94.4868 80.9429 96.5417 66.2423 88.742 55.9077C80.9424 45.5732 66.2417 43.5182 55.9072 51.3179C45.5726 59.1176 43.5177 73.8182 51.3174 84.1528C59.117 94.4873 73.8177 96.5423 84.1522 88.7426Z" fill="#B3E59F"/>
<path d="M77.5615 80.0103C83.0733 75.8505 84.1692 68.0102 80.0094 62.4984C75.8496 56.9867 68.0093 55.8907 62.4975 60.0505C56.9857 64.2103 55.8898 72.0507 60.0496 77.5624C64.2094 83.0742 72.0498 84.1702 77.5615 80.0103Z" fill="#5D5360"/>
<path d="M72.6296 67.395C74.0076 66.3551 74.2816 64.395 73.2416 63.0171C72.2017 61.6391 70.2416 61.3651 68.8636 62.4051C67.4857 63.445 67.2117 65.4051 68.2517 66.7831C69.2916 68.161 71.2517 68.435 72.6296 67.395Z" fill="white"/>
<path d="M84.764 84.3648C74.4296 92.1643 59.7287 90.1095 51.9291 79.775C48.5086 75.2428 46.9852 69.871 47.2221 64.6098C45.6667 71.1711 46.9376 78.3501 51.3171 84.153C59.1168 94.4875 73.8176 96.5423 84.152 88.7428C89.9549 84.3633 93.1456 77.808 93.4489 71.0715C92.2343 76.1963 89.2963 80.9442 84.764 84.3648Z" fill="#95D6A4"/>
<path d="M78.1735 75.6323C72.6618 79.792 64.8214 78.6961 60.6616 73.1843C59.0628 71.066 58.2476 68.6036 58.1538 66.1385C56.9264 69.895 57.4885 74.1688 60.0496 77.5623C64.2094 83.0741 72.0498 84.17 77.5615 80.0102C80.955 77.4491 82.6674 73.493 82.5173 69.5441C81.7512 71.8892 80.2919 74.0335 78.1735 75.6323Z" fill="#4B3F4E"/>
<path d="M106.159 37.6327C87.6171 34.7695 69.4463 39.1998 54.9936 50.1076C40.5408 61.0154 31.2976 77.275 28.9666 95.8909C28.5756 99.0149 30.7886 101.947 33.9001 102.428C52.4417 105.291 70.6124 100.861 85.0652 89.9528C99.518 79.0451 108.761 62.7857 111.092 44.1697C111.483 41.0457 109.27 38.1133 106.159 37.6327ZM83.2999 87.6138C73.6044 94.9312 59.7632 92.9965 52.4458 83.3009C45.1283 73.6052 47.0631 59.7642 56.7587 52.4468C66.4544 45.1293 80.2954 47.064 87.6128 56.7597C94.9303 66.4553 92.9955 80.2963 83.2999 87.6138ZM34.3475 99.5316C32.788 99.2907 31.6786 97.8209 31.8745 96.2549C33.473 83.4881 38.4643 71.8867 46.2435 62.4982C43.8972 69.9425 45.0573 78.3753 50.1069 85.0661C55.1557 91.7557 62.9453 95.1832 70.7463 94.9691C59.5856 99.8754 47.062 101.495 34.3475 99.5316ZM108.184 43.8057C106.586 56.5729 101.595 68.1756 93.8152 77.564C96.162 70.1194 95.002 61.6858 89.9519 54.9944C84.9033 48.305 77.1138 44.877 69.3132 45.0905C80.4735 40.1846 92.9972 38.5657 105.711 40.529C107.271 40.7699 108.38 42.2396 108.184 43.8057Z" fill="black"/>
<path d="M42.5206 54.0879C43.054 54.4547 43.7441 54.4202 44.2337 54.0507C44.3563 53.9582 44.4663 53.8445 44.5582 53.711C45.0169 53.0443 44.848 52.132 44.1815 51.6734L40.1005 48.8664C39.4338 48.4078 38.5214 48.5765 38.0629 49.2432C37.6042 49.9099 37.773 50.8221 38.4396 51.2808L42.5206 54.0879Z" fill="black"/>
<path d="M36.2834 63.4371C36.6841 63.4933 37.0697 63.3815 37.3689 63.1556C37.6682 62.9298 37.8814 62.5897 37.9373 62.1889C38.0493 61.3875 37.4904 60.647 36.6891 60.5351L34.4952 60.2284C33.6937 60.1164 32.9532 60.6753 32.8413 61.4766C32.7293 62.278 33.2882 63.0186 34.0896 63.1306L36.2834 63.4371Z" fill="black"/>
<path d="M52.0411 46.1955C52.687 45.7081 52.8154 44.7893 52.328 44.1434L48.5537 39.1425C48.0663 38.4966 47.1474 38.3682 46.5016 38.8556C45.8557 39.3431 45.7272 40.2619 46.2147 40.9078L49.9888 45.9085C50.4764 46.5546 51.3952 46.683 52.0411 46.1955Z" fill="black"/>
<path d="M61.3212 41.06C61.4748 41.0083 61.6141 40.9337 61.7368 40.8411C62.2264 40.4716 62.4489 39.8174 62.2424 39.2039L60.6619 34.5096C60.4037 33.7426 59.5727 33.3303 58.8057 33.5885C58.039 33.8465 57.6264 34.6778 57.8846 35.4448L59.465 40.139C59.7232 40.9057 60.5544 41.3182 61.3212 41.06Z" fill="black"/>
<path d="M72.3749 36.7364C72.6742 36.5106 72.8874 36.1705 72.9433 35.7697L73.2501 33.5759C73.3621 32.7745 72.8032 32.034 72.0018 31.9219C71.2003 31.8099 70.4599 32.369 70.3479 33.1701L70.0412 35.364C69.9292 36.1655 70.4881 36.906 71.2894 37.0179C71.6901 37.0741 72.0755 36.9624 72.3749 36.7364Z" fill="black"/>
<path d="M97.5384 85.9717C96.8717 85.5132 95.9594 85.682 95.5009 86.3486C95.0422 87.0154 95.2111 87.9277 95.8776 88.3863L99.9585 91.1933C100.492 91.56 101.182 91.5255 101.672 91.156C101.794 91.0635 101.904 90.9498 101.996 90.8164C102.455 90.1496 102.286 89.2375 101.619 88.7787L97.5384 85.9717Z" fill="black"/>
<path d="M103.775 76.6229C102.974 76.5109 102.233 77.0698 102.122 77.8711C102.01 78.6726 102.568 79.4131 103.37 79.525L105.564 79.8317C105.964 79.8877 106.35 79.7758 106.649 79.55C106.948 79.3242 107.162 78.9841 107.218 78.5835C107.33 77.782 106.771 77.0415 105.969 76.9295L103.775 76.6229Z" fill="black"/>
<path d="M88.0177 93.8644C87.3718 94.3519 87.2433 95.2707 87.7308 95.9166L91.5049 100.917C91.9924 101.563 92.9112 101.692 93.5571 101.204C94.203 100.717 94.3314 99.7979 93.844 99.152L90.0698 94.1513C89.5824 93.5054 88.6637 93.3768 88.0177 93.8644Z" fill="black"/>
<path d="M78.7379 99.0001C77.971 99.2582 77.5586 100.089 77.8167 100.856L79.3972 105.551C79.6554 106.318 80.4864 106.73 81.2534 106.472C81.407 106.42 81.5463 106.345 81.669 106.253C82.1586 105.883 82.381 105.229 82.1746 104.615L80.5943 99.9213C80.336 99.1543 79.5049 98.7419 78.7379 99.0001Z" fill="black"/>
<path d="M67.1161 104.29L66.8093 106.484C66.6972 107.286 67.2561 108.026 68.0576 108.138C68.4582 108.194 68.8437 108.082 69.143 107.856C69.4422 107.631 69.6555 107.291 69.7115 106.89L70.0181 104.696C70.1302 103.895 69.5713 103.154 68.7699 103.042C67.9685 102.93 67.2281 103.489 67.1161 104.29Z" fill="black"/>
<path d="M63.3637 61.1981C64.9307 60.0154 66.8002 59.2722 68.7701 59.0486C69.5739 58.9572 70.1521 58.2315 70.0607 57.4274C69.9695 56.6235 69.2435 56.0455 68.4396 56.1368C65.9491 56.4196 63.5834 57.3608 61.5984 58.859C55.4386 63.5079 54.2094 72.3014 58.8583 78.4612C60.3564 80.4462 62.3734 82.0001 64.6909 82.9551C65.1879 83.1599 65.7328 83.0712 66.1329 82.7692C66.335 82.6167 66.5004 82.4096 66.6038 82.1585C66.9121 81.4104 66.5554 80.5539 65.8074 80.2457C63.9741 79.4904 62.3801 78.263 61.1974 76.696C57.5218 71.8258 58.4936 64.8736 63.3637 61.1981Z" fill="black"/>
<path d="M73.4551 57.902C73.1469 58.6501 73.5035 59.5066 74.2516 59.8148C76.0848 60.5701 77.6789 61.7975 78.8615 63.3645C82.5369 68.2344 81.5652 75.1868 76.6951 78.8623C75.1281 80.0449 73.2586 80.7882 71.2887 81.0118C70.485 81.1031 69.9068 81.8287 69.9981 82.6329C70.0893 83.4369 70.8153 84.0148 71.6193 83.9236C74.1097 83.6408 76.4754 82.6995 78.4605 81.2013C84.6203 76.5524 85.8494 67.759 81.2005 61.5992C79.7024 59.6141 77.6855 58.0602 75.3679 57.1052C74.62 56.7969 73.7636 57.1537 73.4551 57.902Z" fill="black"/>
</g>
<defs>
<clipPath id="clip0_283_124">
<rect width="100" height="100" fill="white" transform="translate(0 60.2407) rotate(-37.0425)"/>
</clipPath>
</defs>
</svg>
