<svg width="45" height="45" viewBox="0 0 45 45" fill="none" xmlns="http://www.w3.org/2000/svg">
<g clip-path="url(#clip0_283_22)">
<path d="M22.5 45C34.9264 45 45 34.9264 45 22.5C45 10.0736 34.9264 0 22.5 0C10.0736 0 0 10.0736 0 22.5C0 34.9264 10.0736 45 22.5 45Z" fill="#E1E6E9"/>
<path d="M42.1875 25.0314L38.6719 20.3908C38.6719 9.84393 28.8281 1.54705 17.8594 4.14862C10.4063 5.90643 5.20312 12.7267 5.20312 20.3205C5.20312 25.9455 7.73438 30.5158 12.0234 33.5393V44.2971H29.8828V38.3205H34.2422C36.4922 38.3205 38.3906 36.4924 38.3906 34.1721V33.1877L36.1406 31.5002L38.3906 29.883V27.3518H41.0625C42.2578 27.3518 42.9609 26.0158 42.1875 25.0314Z" fill="white"/>
<path d="M30.5859 45.0002H11.3203V33.9611C6.89063 30.7267 4.5 25.8752 4.5 20.3908C4.5 12.3752 10.0547 5.27361 17.6484 3.5158C22.9922 2.25018 28.4766 3.44549 32.6953 6.75018C36.8438 10.0549 39.2344 14.9064 39.3047 20.1799L42.75 24.6799C43.2422 25.3127 43.3125 26.2267 42.961 26.9299C42.6094 27.7033 41.836 28.1252 40.9922 28.1252H39.0235V30.3049L37.2656 31.5705L39.0235 32.9064V34.2424C39.0235 36.9142 36.8438 39.0939 34.1719 39.0939H30.5156V45.0002H30.5859ZM12.7266 43.5939H29.1797V37.6174H34.2422C36.1406 37.6174 37.6875 36.0705 37.6875 34.172V33.5392L34.9453 31.5002L37.6875 29.5314V26.6486H41.0625C41.3438 26.6486 41.625 26.508 41.7656 26.2267C41.9063 25.9455 41.836 25.6642 41.6953 25.4533L37.9688 20.6017V20.3908C37.9688 15.4689 35.7188 10.8986 31.8516 7.80486C27.9844 4.71111 22.9219 3.65643 18 4.85174C10.9688 6.46893 5.90625 13.008 5.90625 20.3205C5.90625 25.5939 8.15625 29.9533 12.4453 32.9767L12.7266 33.1877V43.5939Z" fill="#193651"/>
<path d="M38.3906 29.25H27.4922C22.9922 29.25 19.3359 32.9063 19.3359 37.4063V44.3672H24.0469V37.4063C24.0469 35.5078 25.5938 33.8906 27.5625 33.8906H38.4609L36.3516 31.5L38.3906 29.25Z" fill="#F16050"/>
<path d="M21.5156 28.6875C26.758 28.6875 31.0078 24.4377 31.0078 19.1953C31.0078 13.9529 26.758 9.70312 21.5156 9.70312C16.2732 9.70312 12.0234 13.9529 12.0234 19.1953C12.0234 24.4377 16.2732 28.6875 21.5156 28.6875Z" fill="#FDBE5E"/>
<path d="M16.0312 18.4922H17.4375V19.8984H16.0312V18.4922Z" fill="#193651"/>
<path d="M20.8125 18.4922H22.2188V19.8984H20.8125V18.4922Z" fill="#193651"/>
<path d="M25.5938 18.4922H27V19.8984H25.5938V18.4922Z" fill="#193651"/>
<path d="M30.5859 45.0002H11.3203V33.9611C6.89063 30.7267 4.5 25.8752 4.5 20.3908C4.5 12.3752 10.0547 5.27361 17.6484 3.5158C22.9922 2.25018 28.4766 3.44549 32.6953 6.75018C36.8438 10.0549 39.2344 14.9064 39.3047 20.1799L42.75 24.6799C43.2422 25.3127 43.3125 26.2267 42.961 26.9299C42.6094 27.7033 41.836 28.1252 40.9922 28.1252H39.0235V30.3049L37.2656 31.5705L39.0235 32.9064V34.2424C39.0235 36.9142 36.8438 39.0939 34.1719 39.0939H30.5156V45.0002H30.5859ZM12.7266 43.5939H29.1797V37.6174H34.2422C36.1406 37.6174 37.6875 36.0705 37.6875 34.172V33.5392L34.9453 31.5002L37.6875 29.5314V26.6486H41.0625C41.3438 26.6486 41.625 26.508 41.7656 26.2267C41.9063 25.9455 41.836 25.6642 41.6953 25.4533L37.9688 20.6017V20.3908C37.9688 15.4689 35.7188 10.8986 31.8516 7.80486C27.9844 4.71111 22.9219 3.65643 18 4.85174C10.9688 6.46893 5.90625 13.008 5.90625 20.3205C5.90625 25.5939 8.15625 29.9533 12.4453 32.9767L12.7266 33.1877V43.5939Z" fill="#193651"/>
</g>
<defs>
<clipPath id="clip0_283_22">
<rect width="45" height="45" fill="white"/>
</clipPath>
</defs>
</svg>
