<svg width="24" height="24" viewBox="0 0 24 24" fill="none" xmlns="http://www.w3.org/2000/svg">
<path d="M14.3094 22.0001C13.7076 21.999 13.1147 21.8551 12.5794 21.5801C9.91651 20.1889 7.61067 18.2017 5.84148 15.7734C4.0723 13.3451 2.88752 10.5412 2.37942 7.58007C2.26433 6.89233 2.34379 6.1861 2.60885 5.54113C2.87391 4.89617 3.31399 4.33814 3.87942 3.93007L5.60942 2.59007C5.9016 2.37661 6.2333 2.22337 6.58523 2.13925C6.93716 2.05513 7.3023 2.04181 7.65942 2.10007C8.01633 2.15395 8.35874 2.27911 8.66626 2.46809C8.97378 2.65707 9.24012 2.906 9.44942 3.20007L10.6294 4.81007C11.056 5.40428 11.2293 6.14355 11.1112 6.86545C10.9931 7.58735 10.5932 8.23283 9.99942 8.66007L8.85942 9.48007C9.7601 11.4785 11.064 13.2693 12.6894 14.7401L13.8194 13.9201C14.4084 13.4909 15.1436 13.313 15.8636 13.4255C16.5836 13.538 17.2295 13.9317 17.6594 14.5201L18.8394 16.1401C19.0556 16.4317 19.2118 16.7633 19.2992 17.1156C19.3866 17.468 19.4033 17.8341 19.3484 18.193C19.2936 18.5518 19.1682 18.8962 18.9796 19.2064C18.791 19.5166 18.5428 19.7863 18.2494 20.0001L16.5094 21.2601C15.8748 21.737 15.1033 21.9965 14.3094 22.0001ZM7.22942 3.56007C6.96415 3.56329 6.7061 3.64698 6.48942 3.80007L4.75942 5.06007C4.41981 5.30459 4.15549 5.63937 3.99642 6.02644C3.83735 6.41351 3.78989 6.8374 3.85942 7.25007C4.31544 9.99719 5.40263 12.601 7.03545 14.8568C8.66828 17.1126 10.8022 18.9587 13.2694 20.2501C13.6473 20.4313 14.0681 20.5039 14.4849 20.4598C14.9016 20.4156 15.2979 20.2565 15.6294 20.0001L17.3694 18.7401C17.6327 18.5427 17.8084 18.2502 17.8588 17.9251C17.9093 17.5999 17.8305 17.2679 17.6394 17.0001L16.4694 15.3901C16.3732 15.2564 16.2515 15.1431 16.1113 15.0567C15.9711 14.9702 15.8152 14.9123 15.6526 14.8863C15.49 14.8603 15.3238 14.8667 15.1637 14.9051C15.0035 14.9435 14.8526 15.0131 14.7194 15.1101L13.0994 16.3001C12.9686 16.4039 12.8065 16.4604 12.6394 16.4604C12.4724 16.4604 12.3103 16.4039 12.1794 16.3001C10.0099 14.4744 8.32351 12.1424 7.26942 9.51007C7.20569 9.35511 7.19569 9.18328 7.241 9.02197C7.28631 8.86067 7.38433 8.71918 7.51942 8.62007L9.13942 7.44007C9.40646 7.24583 9.58578 6.95382 9.63824 6.62781C9.6907 6.3018 9.61204 5.96828 9.41942 5.70007L8.23942 4.08007C8.14246 3.94678 8.02009 3.83398 7.87936 3.74817C7.73863 3.66236 7.58232 3.60523 7.41942 3.58007L7.22942 3.56007Z" fill="#515F66"/>
<path d="M17.3199 11.78C17.1261 11.7802 16.9397 11.7053 16.7999 11.5711C16.6601 11.4368 16.5777 11.2537 16.5699 11.06C16.538 10.145 16.2362 9.25993 15.7024 8.51613C15.1685 7.77232 14.4266 7.20307 13.5699 6.88003C13.4735 6.84586 13.385 6.79231 13.31 6.72267C13.235 6.65304 13.175 6.56879 13.1338 6.47511C13.0926 6.38144 13.071 6.28031 13.0703 6.17797C13.0697 6.07563 13.0899 5.97424 13.1299 5.88003C13.1628 5.78266 13.2157 5.69321 13.2851 5.61738C13.3544 5.54155 13.4389 5.48101 13.5329 5.43962C13.627 5.39822 13.7287 5.37688 13.8315 5.37695C13.9343 5.37702 14.0359 5.3985 14.1299 5.44003C15.2697 5.8615 16.2585 6.61223 16.9707 7.59686C17.6829 8.5815 18.0864 9.75559 18.1299 10.97C18.1353 11.1673 18.0628 11.3587 17.928 11.5029C17.7933 11.647 17.6071 11.7322 17.4099 11.74L17.3199 11.78Z" fill="#FFD162"/>
<path d="M20.9184 11.6295C20.7317 11.6281 20.552 11.558 20.4137 11.4325C20.2754 11.3071 20.188 11.1352 20.1684 10.9495C20.0234 9.33105 19.443 7.78204 18.4888 6.46685C17.5345 5.15166 16.242 4.11936 14.7484 3.47948C14.5654 3.40124 14.421 3.25351 14.3469 3.06879C14.2728 2.88406 14.2751 2.67748 14.3534 2.49448C14.4316 2.31148 14.5794 2.16706 14.7641 2.09298C14.9488 2.0189 15.1554 2.02124 15.3384 2.09948C17.0846 2.8401 18.5964 4.04206 19.7115 5.57647C20.8267 7.11088 21.5031 8.91987 21.6684 10.8095C21.6851 11.008 21.6233 11.2052 21.4961 11.3586C21.3689 11.5119 21.1866 11.6092 20.9884 11.6295H20.9184Z" fill="#FFD162"/>
</svg>
