<svg width="16" height="16" viewBox="0 0 16 16" fill="none" xmlns="http://www.w3.org/2000/svg">
<path d="M7.99948 16L7.57175 15.5364C7.43237 15.3852 4.14633 11.8215 3.36659 10.9298C2.65584 10.117 2.02046 8.99236 1.78579 8.1312C1.63504 7.58187 1.55859 7.01049 1.55859 6.43413C1.55859 2.89173 4.44784 0.00533333 7.99913 0C11.5522 0.00533333 14.4414 2.89138 14.4414 6.43413C14.4414 7.01049 14.365 7.58187 14.2139 8.13191C13.9792 8.99236 13.3438 10.117 12.6331 10.9298C11.853 11.8219 8.5673 15.3852 8.42793 15.5364L7.99948 16ZM7.99877 1.16373C5.08997 1.168 2.72197 3.53209 2.72197 6.43413C2.72197 6.90631 2.78455 7.37387 2.90793 7.824C3.09779 8.52053 3.64677 9.48231 4.24233 10.1639C4.8553 10.8651 7.05762 13.2604 7.99913 14.2834C8.94099 13.2604 11.1429 10.8651 11.7559 10.1639C12.3518 9.48267 12.9005 8.52053 13.0903 7.82507C13.2141 7.37422 13.2766 6.90667 13.2766 6.43449C13.277 3.53209 10.909 1.168 7.99877 1.16373Z" fill="#09243C"/>
<path d="M7.99983 9.62997C6.18401 9.62997 4.70703 8.15619 4.70703 6.34428C4.70703 4.53237 6.18436 3.05859 7.99983 3.05859C9.8153 3.05859 11.2926 4.53237 11.2926 6.34428C11.2926 8.15619 9.81565 9.62997 7.99983 9.62997ZM7.99983 4.22268C6.82579 4.22268 5.87076 5.1745 5.87076 6.34464C5.87076 7.51477 6.82579 8.46659 7.99983 8.46659C9.17388 8.46659 10.1289 7.51477 10.1289 6.34464C10.1289 5.1745 9.17388 4.22268 7.99983 4.22268Z" fill="#09243C"/>
</svg>
