<svg width="63" height="63" viewBox="0 0 63 63" fill="none" xmlns="http://www.w3.org/2000/svg">
<g clip-path="url(#clip0_392_34)">
<path fill-rule="evenodd" clip-rule="evenodd" d="M31.5 59.8501C47.1572 59.8501 59.8501 47.1576 59.8501 31.5C59.8501 15.8427 47.1576 3.14993 31.5 3.14993C15.8427 3.14993 3.14993 15.8427 3.14993 31.5C3.14993 47.1572 15.8427 59.8501 31.5 59.8501ZM31.5 63C48.8968 63 63 48.8968 63 31.5C63 14.1029 48.8968 0 31.5 0C14.1029 0 0 14.1029 0 31.5C0 48.8968 14.1029 63 31.5 63Z" fill="white"/>
<path fill-rule="evenodd" clip-rule="evenodd" d="M39.6856 31.5L25.2001 21.8431V41.1572L39.6856 31.5ZM42.6121 29.6654C43.9215 30.5383 43.9215 32.462 42.6121 33.3349L25.478 44.7579C24.0127 45.7348 22.0498 44.6841 22.0498 42.923V20.0773C22.0498 18.3162 24.0127 17.2658 25.478 18.2427L42.6121 29.6654Z" fill="white"/>
</g>
<defs>
<clipPath id="clip0_392_34">
<rect width="63" height="63" fill="white"/>
</clipPath>
</defs>
</svg>
