<svg width="20" height="20" viewBox="0 0 20 20" fill="none" xmlns="http://www.w3.org/2000/svg">
<g clip-path="url(#clip0_1_535)">
<path d="M19.2047 7.37266L13.2075 6.50117L10.5254 1.0668C10.418 0.849219 10.209 0.740234 10 0.740234L10.0008 16.373L15.3641 19.193C15.7942 19.4187 16.2961 19.0539 16.2141 18.5754L15.1899 12.602L19.5293 8.37187C19.8774 8.03281 19.6852 7.44258 19.2047 7.37266Z" fill="#FFC107"/>
<path d="M13.9305 12.193C13.9305 12.193 14.8555 17.5848 14.8586 17.6027C14.8555 17.6023 10.0754 16.3918 10.0008 16.373C10 16.3727 4.63598 19.193 4.63598 19.193C4.2059 19.4187 3.70395 19.0539 3.78598 18.5754L4.8102 12.602L0.470746 8.37187C0.122699 8.03281 0.314887 7.44258 0.795356 7.37266L6.79262 6.50117L9.47465 1.0668C9.58207 0.849219 9.79106 0.740234 10 0.740234L12.4293 7.57227L17.8614 8.36172L13.9305 12.193Z" fill="#FFC107"/>
<path d="M19.9564 7.68092C19.8522 7.36046 19.5804 7.13131 19.247 7.08284L13.402 6.2335L10.788 0.937108C10.6389 0.634961 10.337 0.447266 10 0.447266C9.66307 0.447266 9.36111 0.634961 9.21201 0.937108L6.59807 6.2335L0.753083 7.08288C0.419607 7.13131 0.147811 7.36046 0.0436705 7.68096C-0.0604699 8.00147 0.0247643 8.34659 0.266053 8.58182L4.4955 12.7045L4.10835 14.9618C4.08101 15.1212 4.18812 15.2727 4.34757 15.3C4.50722 15.3274 4.6585 15.2202 4.68585 15.0608L5.09905 12.6517C5.11534 12.5567 5.08386 12.4597 5.01479 12.3924L0.675037 8.16213C0.593435 8.0826 0.56574 7.97038 0.600935 7.86198C0.636169 7.75358 0.724529 7.67905 0.837341 7.66264L6.83475 6.79116C6.93018 6.77733 7.01264 6.71737 7.05534 6.63089L9.73744 1.19633C9.78791 1.0941 9.88603 1.03308 10 1.03308C10.114 1.03308 10.2122 1.0941 10.2626 1.19633L12.9447 6.63089C12.9874 6.71737 13.0699 6.77729 13.1653 6.79116L19.1627 7.66264C19.2755 7.67905 19.3639 7.75354 19.3991 7.86194C19.4343 7.97034 19.4066 8.08256 19.325 8.16213L14.9852 12.3924C14.9162 12.4597 14.8847 12.5567 14.901 12.6517L15.9255 18.6248C15.9448 18.7372 15.9012 18.8443 15.809 18.9113C15.7168 18.9782 15.6015 18.9866 15.5006 18.9335L10.1363 16.1134C10.051 16.0686 9.94904 16.0686 9.86369 16.1134L4.49944 18.9335C4.39854 18.9866 4.28323 18.9782 4.19108 18.9113C4.09886 18.8443 4.0553 18.7372 4.0746 18.6248L4.4878 16.2157C4.51515 16.0563 4.40804 15.9049 4.24858 15.8775C4.08897 15.8502 3.93765 15.9573 3.9103 16.1167L3.4971 18.5258C3.44015 18.8579 3.57409 19.1873 3.84671 19.3853C4.00073 19.4972 4.18097 19.5541 4.36237 19.5541C4.50202 19.5541 4.64241 19.5204 4.77214 19.4522L10 16.7038L15.2279 19.4522C15.5261 19.609 15.8807 19.5833 16.1534 19.3853C16.426 19.1873 16.5599 18.8579 16.5029 18.5258L15.5045 12.7045L19.734 8.58178C19.9753 8.34655 20.0605 8.00135 19.9564 7.68092Z" fill="black"/>
</g>
<defs>
<clipPath id="clip0_1_535">
<rect width="20" height="20" fill="white"/>
</clipPath>
</defs>
</svg>
