<svg width="154" height="31" viewBox="0 0 154 31" fill="none" xmlns="http://www.w3.org/2000/svg">
<path fill-rule="evenodd" clip-rule="evenodd" d="M20.3069 0.762695H7.88892L0.879883 7.84687L0.890484 30.2037H10.5934L20.2965 20.3972H10.5934V10.5799L20.3069 0.762695ZM39.8397 0.762695H30.1369L20.4337 10.5692H30.1369V20.3865L20.4234 30.2037H32.8413L39.8503 23.1195L39.8397 0.762695ZM97.5353 11.9862C97.6088 11.2773 97.858 8.98289 97.858 8.98289C96.7136 8.52331 95.4816 8.29404 94.2745 8.29404C92.9428 8.29404 91.6424 8.57278 90.5242 9.12936C88.273 10.2506 86.931 12.6309 86.9336 15.4971C86.931 18.3644 88.273 20.7447 90.5242 21.866C92.6546 22.9262 95.4509 22.9787 97.858 22.0124C97.858 22.0124 97.6088 19.718 97.5353 19.0091C96.0023 19.4259 94.6112 19.693 93.2355 19.1471C91.8405 18.5928 91.0673 17.2975 91.0564 15.499C91.0673 13.6979 91.8405 12.4026 93.2355 11.8482C94.6112 11.3027 96.0023 11.5695 97.5353 11.9862ZM115.678 5.58456V22.2675H119.866V4.42015L115.678 5.58456ZM112.524 8.69872H108.981L104.244 14.5769V4.42015L100.056 5.58493V22.2675H104.244V18.9753L105.886 16.9377L109.489 22.2675H113.971L108.323 13.9125L112.524 8.69872ZM148.327 22.2675H152.808L147.161 13.9125L151.362 8.69872H147.819L143.082 14.5764V4.42015L138.894 5.58493V22.2675H143.082V18.9753L144.725 16.9377L148.327 22.2675ZM131.537 18.9757C131.021 19.4985 130.325 19.7638 129.466 19.7638C128.606 19.7638 127.908 19.4985 127.391 18.9753C126.687 18.2614 126.331 17.0882 126.335 15.4878C126.331 13.8884 126.687 12.7152 127.391 12.0014C127.908 11.4781 128.606 11.2128 129.466 11.2128C130.323 11.2128 131.021 11.4781 131.537 12.0009C132.243 12.7147 132.597 13.8884 132.594 15.4888C132.597 17.0882 132.243 18.262 131.537 18.9757ZM129.466 8.24909C126.545 8.24909 124.809 9.38582 123.866 10.3396C122.74 11.4791 122.095 13.0233 122.097 14.5759V16.4002C122.095 17.9534 122.74 19.4976 123.866 20.637C124.809 21.5908 126.545 22.7276 129.466 22.7276C132.384 22.7276 134.121 21.5908 135.063 20.637C136.189 19.4976 136.834 17.9538 136.831 16.4007V14.5764C136.834 13.0228 136.189 11.4791 135.063 10.3396C134.121 9.38582 132.384 8.24909 129.466 8.24909ZM70.101 8.69685H66.2701V4.42015L62.0823 5.58493V17.4126C62.0823 19.9917 63.289 21.8665 65.3104 22.4286C66.7468 22.8281 68.3328 22.7922 70.101 22.3353V19.3838C69.5495 19.4994 68.968 19.5552 68.2945 19.5395C67.274 19.513 66.3091 18.483 66.3091 17.4201L66.2682 11.4329H70.101V8.69685ZM59.3089 15.646C57.8166 14.0298 54.9899 14.1833 53.0302 13.5132C52.4111 13.3016 51.6335 12.7622 52.0499 12.0074C52.3553 11.4539 53.0792 11.3306 53.6512 11.2884C55.687 11.1381 57.6383 11.6292 59.3791 12.0966L59.6812 9.31123C56.4813 8.2768 51.2283 7.29364 48.6641 10.2304C47.404 11.6733 47.3762 14.011 48.6028 15.3354C50.0963 16.9477 52.9222 16.7958 54.8784 17.4647C55.411 17.6467 56.0436 18.0025 55.9664 18.6634C55.8737 19.4578 54.9016 19.6413 54.257 19.6894C52.223 19.842 50.2716 19.3494 48.5295 18.8812L48.2274 21.6667C51.4286 22.7018 56.6788 23.6856 59.2442 20.7474C60.5029 19.3064 60.5324 16.9713 59.3089 15.646ZM80.8267 18.6595C79.7602 19.638 78.369 20.0813 76.9537 19.7517C76.1977 19.5763 75.7274 18.8087 75.8603 17.9667C76.0463 16.7921 77.2962 16.4647 77.8975 16.3072L80.833 15.5608L80.8267 18.6595ZM84.8243 12.6987C84.8243 11.7992 84.476 10.8801 83.8683 10.1774C82.789 8.92928 80.9506 8.28862 78.4061 8.27299C76.7824 8.26459 74.7842 8.61773 72.8512 9.24903L73.1529 12.0628C74.675 11.6495 76.3568 11.2181 78.116 11.2181C78.8713 11.2181 79.9902 11.26 80.4854 11.9486C81.0062 12.6733 80.1071 13.2839 79.5014 13.4935C78.0495 13.9956 76.5127 14.2302 75.0264 14.6043C73.25 15.0515 71.8908 16.9408 71.9279 18.9067C71.949 20.0221 72.4404 21.08 73.243 21.7368C75.2763 23.3998 78.8119 22.819 80.833 20.767L81.104 22.2667L84.8543 22.2675L84.8243 12.6987Z" fill="black"/>
</svg>
