<svg width="182" height="37" viewBox="0 0 182 37" fill="none" xmlns="http://www.w3.org/2000/svg">
<g clip-path="url(#clip0_412_744)">
<path d="M180.92 26.4107C180.823 26.3445 180.711 26.2931 180.585 26.2563C180.466 26.2122 180.339 26.1791 180.205 26.157C180.079 26.135 179.952 26.1239 179.825 26.1239C179.676 26.1239 179.52 26.1423 179.356 26.1791C179.199 26.2085 179.054 26.26 178.92 26.3335C178.786 26.3997 178.678 26.4879 178.597 26.5983C178.514 26.7086 178.473 26.8409 178.473 26.9953C178.473 27.1792 178.529 27.3336 178.641 27.4587C178.76 27.5836 178.912 27.6976 179.099 27.8006C179.285 27.8962 179.49 27.9881 179.713 28.0764C179.937 28.1572 180.16 28.2491 180.384 28.3521C180.615 28.4478 180.823 28.5617 181.01 28.694C181.196 28.8265 181.345 28.9882 181.456 29.1794C181.576 29.3633 181.635 29.5912 181.635 29.8633C181.635 30.128 181.579 30.3597 181.467 30.5582C181.356 30.7568 181.207 30.9222 181.021 31.0546C180.835 31.187 180.626 31.2862 180.395 31.3524C180.172 31.4186 179.941 31.4517 179.703 31.4517C179.308 31.4517 178.924 31.3671 178.551 31.198C178.179 31.0289 177.862 30.7972 177.602 30.5031L177.948 30.1391C178.119 30.3009 178.294 30.4369 178.473 30.5472C178.652 30.6575 178.842 30.7421 179.043 30.8009C179.252 30.8524 179.472 30.8781 179.703 30.8781C179.843 30.8781 179.993 30.8598 180.149 30.823C180.305 30.7862 180.451 30.7273 180.585 30.6465C180.727 30.5582 180.838 30.4516 180.92 30.3266C181.01 30.2016 181.054 30.0508 181.054 29.8743C181.054 29.6758 180.995 29.5067 180.875 29.3669C180.764 29.2199 180.615 29.0948 180.429 28.9919C180.242 28.8816 180.034 28.7823 179.803 28.694C179.579 28.6058 179.353 28.5139 179.122 28.4183C178.898 28.3227 178.693 28.2124 178.506 28.0874C178.321 27.9623 178.168 27.8153 178.049 27.6462C177.937 27.4696 177.881 27.2601 177.881 27.0174C177.881 26.7821 177.933 26.5799 178.037 26.4107C178.142 26.2343 178.28 26.0871 178.451 25.9695C178.63 25.8445 178.827 25.7526 179.043 25.6937C179.259 25.6349 179.479 25.6055 179.703 25.6055C179.851 25.6055 180.004 25.6165 180.16 25.6386C180.317 25.6533 180.48 25.6901 180.652 25.7489C180.823 25.8003 180.998 25.8813 181.177 25.9916L180.92 26.4107Z" fill="black"/>
<path d="M176.588 26.4768C176.394 26.3885 176.178 26.3223 175.94 26.2782C175.709 26.2268 175.486 26.1973 175.269 26.19C174.919 26.19 174.637 26.2598 174.42 26.3996C174.205 26.5392 174.048 26.7341 173.951 26.9842C173.855 27.2268 173.802 27.5063 173.795 27.8225L173.783 29.2013C173.783 29.4807 173.809 29.7234 173.862 29.9294C173.921 30.1279 174.014 30.2897 174.141 30.4147C174.268 30.5397 174.428 30.6353 174.621 30.7015C174.815 30.7603 175.046 30.7934 175.314 30.8007C175.478 30.8007 175.638 30.7934 175.794 30.7787C175.958 30.764 176.104 30.7456 176.23 30.7235C176.364 30.7015 176.469 30.6831 176.543 30.6684C176.618 30.6537 176.651 30.6464 176.644 30.6464L176.767 31.1979C176.536 31.2567 176.294 31.3008 176.041 31.3302C175.787 31.367 175.538 31.3817 175.292 31.3743C174.868 31.367 174.495 31.2934 174.175 31.1537C173.855 31.0066 173.605 30.786 173.426 30.4919C173.255 30.1904 173.169 29.8043 173.169 29.3337V27.7342C173.169 27.3151 173.244 26.9474 173.393 26.6312C173.549 26.315 173.78 26.0686 174.085 25.8922C174.398 25.7156 174.786 25.6274 175.247 25.6274C175.5 25.6274 175.754 25.6605 176.007 25.7267C176.268 25.7929 176.513 25.8775 176.744 25.9804L176.588 26.4768Z" fill="black"/>
<path d="M171.599 31.2526V25.7263H172.236V31.2526H171.599ZM171.923 23.4209C172.027 23.4209 172.117 23.4577 172.192 23.5312C172.266 23.6047 172.303 23.693 172.303 23.796C172.303 23.8915 172.266 23.9761 172.192 24.0496C172.117 24.1232 172.027 24.16 171.923 24.16C171.826 24.16 171.737 24.1232 171.655 24.0496C171.581 23.9761 171.543 23.8915 171.543 23.796C171.543 23.693 171.581 23.6047 171.655 23.5312C171.737 23.4577 171.826 23.4209 171.923 23.4209Z" fill="black"/>
<path d="M169.34 29.7966C169.34 29.9878 169.366 30.1607 169.419 30.3151C169.478 30.4621 169.56 30.5871 169.664 30.6901C169.776 30.7857 169.914 30.8629 170.078 30.9217L169.888 31.396C169.478 31.2711 169.18 31.0798 168.994 30.8224C168.808 30.5651 168.715 30.2231 168.715 29.7966V23.5312H169.34V25.7373H170.692L170.424 26.3109H169.34V29.7966Z" fill="black"/>
<path d="M166.975 26.4107C166.879 26.3445 166.767 26.2931 166.641 26.2563C166.522 26.2122 166.394 26.1791 166.261 26.157C166.134 26.135 166.007 26.1239 165.881 26.1239C165.732 26.1239 165.575 26.1423 165.412 26.1791C165.255 26.2085 165.11 26.26 164.976 26.3335C164.842 26.3997 164.734 26.4879 164.651 26.5983C164.57 26.7086 164.529 26.8409 164.529 26.9953C164.529 27.1792 164.585 27.3336 164.696 27.4587C164.816 27.5836 164.968 27.6976 165.155 27.8006C165.341 27.8962 165.545 27.9881 165.769 28.0764C165.993 28.1572 166.216 28.2491 166.439 28.3521C166.67 28.4478 166.879 28.5617 167.065 28.694C167.251 28.8265 167.4 28.9882 167.512 29.1794C167.631 29.3633 167.691 29.5912 167.691 29.8633C167.691 30.128 167.635 30.3597 167.523 30.5582C167.411 30.7568 167.262 30.9222 167.076 31.0546C166.89 31.187 166.681 31.2862 166.45 31.3524C166.227 31.4186 165.996 31.4517 165.758 31.4517C165.363 31.4517 164.98 31.3671 164.607 31.198C164.235 31.0289 163.918 30.7972 163.657 30.5031L164.004 30.1391C164.175 30.3009 164.35 30.4369 164.529 30.5472C164.707 30.6575 164.898 30.7421 165.099 30.8009C165.307 30.8524 165.527 30.8781 165.758 30.8781C165.899 30.8781 166.049 30.8598 166.205 30.823C166.361 30.7862 166.506 30.7273 166.641 30.6465C166.782 30.5582 166.894 30.4516 166.975 30.3266C167.065 30.2016 167.11 30.0508 167.11 29.8743C167.11 29.6758 167.05 29.5067 166.931 29.3669C166.819 29.2199 166.67 29.0948 166.484 28.9919C166.298 28.8816 166.089 28.7823 165.858 28.694C165.635 28.6058 165.407 28.5139 165.177 28.4183C164.954 28.3227 164.749 28.2124 164.562 28.0874C164.376 27.9623 164.224 27.8153 164.105 27.6462C163.993 27.4696 163.937 27.2601 163.937 27.0174C163.937 26.7821 163.989 26.5799 164.093 26.4107C164.198 26.2343 164.336 26.0871 164.506 25.9695C164.686 25.8445 164.882 25.7526 165.099 25.6937C165.315 25.6349 165.535 25.6055 165.758 25.6055C165.907 25.6055 166.06 25.6165 166.216 25.6386C166.373 25.6533 166.536 25.6901 166.707 25.7489C166.879 25.8003 167.054 25.8813 167.233 25.9916L166.975 26.4107Z" fill="black"/>
<path d="M162.086 31.2526V25.7263H162.723V31.2526H162.086ZM162.411 23.4209C162.515 23.4209 162.604 23.4577 162.679 23.5312C162.753 23.6047 162.791 23.693 162.791 23.796C162.791 23.8915 162.753 23.9761 162.679 24.0496C162.604 24.1232 162.515 24.16 162.411 24.16C162.314 24.16 162.224 24.1232 162.142 24.0496C162.068 23.9761 162.031 23.8915 162.031 23.796C162.031 23.693 162.068 23.6047 162.142 23.5312C162.224 23.4577 162.314 23.4209 162.411 23.4209Z" fill="black"/>
<path d="M161.077 31.9584C161.077 32.2526 161.036 32.5026 160.954 32.7085C160.872 32.9217 160.742 33.0982 160.564 33.238C160.384 33.3777 160.154 33.4917 159.871 33.5799L159.692 33.1056C159.819 33.0541 159.927 32.9916 160.016 32.9181C160.113 32.8519 160.191 32.771 160.251 32.6754C160.31 32.5798 160.355 32.4695 160.384 32.3445C160.422 32.2268 160.44 32.0945 160.44 31.9474V30.5796C160.381 30.6899 160.295 30.7965 160.184 30.8995C160.079 30.995 159.957 31.0796 159.815 31.1532C159.673 31.2267 159.521 31.2818 159.357 31.3186C159.201 31.3628 159.036 31.3848 158.865 31.3848C158.24 31.3848 157.763 31.2083 157.435 30.8554C157.107 30.495 156.943 29.9803 156.943 29.3111V27.4358C156.943 27.0462 157.018 26.7152 157.167 26.4431C157.316 26.1637 157.532 25.9541 157.815 25.8144C158.098 25.6673 158.445 25.6048 158.854 25.6269C159.033 25.6342 159.211 25.6637 159.39 25.7151C159.577 25.7592 159.755 25.8291 159.927 25.9247C160.105 26.0129 160.277 26.1233 160.44 26.2556V25.7372H161.077V31.9584ZM160.44 26.9175C160.366 26.8071 160.27 26.7079 160.15 26.6196C160.039 26.5314 159.912 26.4578 159.77 26.399C159.636 26.3328 159.502 26.2813 159.368 26.2446C159.234 26.2078 159.107 26.1858 158.988 26.1784C158.816 26.1637 158.646 26.1784 158.474 26.2225C158.31 26.2593 158.158 26.3292 158.016 26.4321C157.882 26.5277 157.774 26.6637 157.692 26.8402C157.61 27.0094 157.569 27.219 157.569 27.469V29.4104C157.569 29.7265 157.621 29.9876 157.726 30.1935C157.83 30.3994 157.979 30.5539 158.172 30.6568C158.373 30.7597 158.616 30.8112 158.898 30.8112C159.115 30.8112 159.316 30.7782 159.502 30.712C159.688 30.6458 159.852 30.5501 159.994 30.4252C160.135 30.3001 160.243 30.1457 160.317 29.9619C160.4 29.778 160.44 29.5684 160.44 29.3331V26.9175Z" fill="black"/>
<path d="M155.957 29.2125C155.957 29.8596 155.789 30.3818 155.453 30.7788C155.119 31.1686 154.612 31.3635 153.934 31.3635C153.472 31.3635 153.082 31.2679 152.761 31.0767C152.448 30.8781 152.214 30.6171 152.057 30.2935C151.901 29.9699 151.822 29.6096 151.822 29.2125V27.7675C151.822 27.2968 151.904 26.9034 152.068 26.5872C152.233 26.2637 152.471 26.021 152.783 25.8592C153.096 25.6901 153.472 25.6055 153.912 25.6055C154.575 25.6055 155.082 25.7967 155.432 26.1791C155.782 26.5615 155.957 27.0909 155.957 27.7675V29.2125ZM155.331 27.7675C155.331 27.4145 155.283 27.1204 155.185 26.8851C155.089 26.6424 154.936 26.4622 154.727 26.3445C154.526 26.2196 154.262 26.157 153.934 26.157C153.607 26.157 153.331 26.2196 153.108 26.3445C152.891 26.4622 152.728 26.6424 152.616 26.8851C152.504 27.1204 152.448 27.4145 152.448 27.7675V29.3228C152.448 29.6169 152.508 29.878 152.627 30.106C152.753 30.3266 152.928 30.4994 153.152 30.6244C153.376 30.7494 153.636 30.8119 153.934 30.8119C154.247 30.8119 154.508 30.7531 154.716 30.6354C154.925 30.5105 155.077 30.3376 155.175 30.117C155.278 29.889 155.331 29.6243 155.331 29.3228V27.7675Z" fill="black"/>
<path d="M146.956 31.2526V23.5312H147.593V30.7011H150.99V31.2526H146.956Z" fill="black"/>
<path d="M142.652 31.2526C142.659 31.2526 142.619 31.2564 142.529 31.2637C142.447 31.2711 142.335 31.2784 142.194 31.2858C142.06 31.3005 141.911 31.3115 141.747 31.3189C141.59 31.3336 141.438 31.3446 141.289 31.3519C141.14 31.3593 141.014 31.363 140.909 31.363C140.552 31.3703 140.216 31.3483 139.903 31.2968C139.591 31.2453 139.319 31.1497 139.088 31.01C138.857 30.8629 138.674 30.657 138.54 30.3922C138.414 30.1275 138.351 29.7929 138.351 29.3885V27.2927C138.351 26.9838 138.403 26.7228 138.507 26.5095C138.619 26.2962 138.764 26.1271 138.942 26.0021C139.129 25.8698 139.33 25.7741 139.546 25.7153C139.77 25.6565 139.993 25.6271 140.216 25.6271C140.582 25.6271 140.913 25.6675 141.211 25.7484C141.509 25.8293 141.784 25.9249 142.038 26.0352V23.5312H142.652V31.2526ZM142.038 26.5868C141.74 26.4617 141.441 26.3588 141.144 26.2779C140.853 26.1896 140.529 26.1455 140.172 26.1455C140.075 26.1455 139.959 26.1602 139.826 26.1896C139.691 26.219 139.557 26.2742 139.423 26.3551C139.296 26.436 139.189 26.5573 139.099 26.7191C139.01 26.8736 138.965 27.0794 138.965 27.3368V29.3113C138.965 29.576 138.995 29.8077 139.054 30.0062C139.114 30.1974 139.215 30.3592 139.356 30.4916C139.497 30.6166 139.688 30.7085 139.926 30.7673C140.172 30.8188 140.481 30.8409 140.853 30.8335C140.995 30.8262 141.125 30.8188 141.245 30.8115C141.371 30.8041 141.483 30.7967 141.579 30.7894C141.676 30.782 141.758 30.7747 141.826 30.7673C141.892 30.76 141.945 30.7563 141.982 30.7563C142.019 30.7489 142.038 30.7453 142.038 30.7453V26.5868Z" fill="black"/>
<path d="M136.73 27.4806C136.73 27.2306 136.689 27.0246 136.607 26.8628C136.525 26.6937 136.414 26.5613 136.272 26.4657C136.13 26.3628 135.974 26.2892 135.803 26.2451C135.631 26.201 135.456 26.1789 135.278 26.1789C135.106 26.1789 134.939 26.1936 134.775 26.223C134.618 26.2524 134.466 26.2966 134.317 26.3554C134.168 26.4069 134.015 26.4768 133.859 26.565V31.253H133.222V25.7267H133.859V26.1017C134 26.0062 134.153 25.9252 134.317 25.859C134.488 25.7855 134.663 25.7303 134.842 25.6936C135.028 25.6495 135.214 25.6274 135.4 25.6274C135.647 25.6274 135.87 25.6532 136.071 25.7046C136.28 25.7561 136.462 25.8333 136.618 25.9362C136.775 26.0392 136.905 26.1643 137.01 26.3113C137.121 26.4584 137.203 26.6275 137.255 26.8187C137.315 27.0026 137.345 27.2121 137.345 27.4474V31.253H136.73V27.4806Z" fill="black"/>
<path d="M131.546 27.3926C131.546 27.1205 131.497 26.8999 131.4 26.7307C131.311 26.5616 131.185 26.4329 131.021 26.3446C130.864 26.2564 130.681 26.1976 130.473 26.1682C130.265 26.1314 130.049 26.113 129.825 26.113L129.848 25.6387C130.302 25.6387 130.678 25.6828 130.976 25.771C131.274 25.852 131.509 25.988 131.68 26.1792C131.859 26.363 131.985 26.6131 132.06 26.9292C132.134 27.2381 132.172 27.6205 132.172 28.0764V31.2533C132.179 31.2533 132.138 31.2569 132.048 31.2643C131.967 31.2716 131.855 31.279 131.713 31.2864C131.579 31.3011 131.43 31.3121 131.266 31.3194C131.11 31.3341 130.954 31.3452 130.797 31.3526C130.648 31.3599 130.518 31.3635 130.406 31.3635C130.049 31.3709 129.713 31.3488 129.4 31.2974C129.095 31.2459 128.827 31.1503 128.596 31.0106C128.373 30.8635 128.194 30.6576 128.06 30.3929C127.933 30.1282 127.87 29.7935 127.87 29.3891V28.4736C127.87 28.1647 127.914 27.9036 128.004 27.6904C128.101 27.4771 128.231 27.308 128.395 27.183C128.559 27.0506 128.742 26.955 128.942 26.8962C129.151 26.8373 129.367 26.8079 129.591 26.8079C129.836 26.8079 130.074 26.8373 130.305 26.8962C130.536 26.9477 130.756 27.0175 130.965 27.1058C131.181 27.194 131.374 27.2896 131.546 27.3926ZM131.546 27.911C131.352 27.8081 131.143 27.7124 130.92 27.6242C130.697 27.536 130.469 27.4661 130.238 27.4147C130.007 27.3632 129.773 27.3374 129.535 27.3374C129.438 27.3374 129.33 27.3521 129.211 27.3815C129.092 27.4109 128.976 27.4661 128.864 27.547C128.753 27.6205 128.66 27.7345 128.585 27.8889C128.518 28.0434 128.485 28.2456 128.485 28.4956V29.3119C128.485 29.5766 128.511 29.8082 128.562 30.0068C128.622 30.2054 128.719 30.3708 128.853 30.5031C128.994 30.6282 129.188 30.7201 129.434 30.779C129.68 30.8305 129.989 30.8488 130.361 30.8341C130.51 30.8267 130.644 30.8194 130.763 30.812C130.891 30.8047 131.002 30.7973 131.099 30.7899C131.196 30.7752 131.278 30.7679 131.344 30.7679C131.411 30.7605 131.46 30.7569 131.49 30.7569C131.527 30.7495 131.546 30.7458 131.546 30.7458V27.911Z" fill="black"/>
<path d="M122.591 29.7966C122.591 29.9878 122.616 30.1607 122.669 30.3151C122.728 30.4621 122.81 30.5871 122.915 30.6901C123.027 30.7857 123.164 30.8629 123.328 30.9217L123.138 31.396C122.728 31.2711 122.43 31.0798 122.244 30.8224C122.058 30.5651 121.965 30.2231 121.965 29.7966V23.5312H122.591V25.7373H123.942L123.674 26.3109H122.591V29.7966Z" fill="black"/>
<path d="M120.951 26.1673C120.951 26.1673 120.903 26.1637 120.806 26.1563C120.717 26.149 120.609 26.149 120.482 26.1563C120.326 26.1637 120.158 26.1857 119.98 26.2224C119.801 26.2519 119.626 26.296 119.455 26.3548C119.283 26.4063 119.123 26.4688 118.974 26.5424C118.825 26.6085 118.699 26.6747 118.594 26.7409V31.2524H117.957V25.7261H118.594V26.0901C118.87 25.9651 119.152 25.8584 119.443 25.7702C119.741 25.682 120.091 25.6268 120.494 25.6048C120.627 25.5974 120.743 25.6011 120.839 25.6158C120.944 25.6305 120.996 25.6378 120.996 25.6378L120.951 26.1673Z" fill="black"/>
<path d="M116.947 29.2125C116.947 29.8596 116.78 30.3818 116.445 30.7788C116.11 31.1686 115.603 31.3635 114.925 31.3635C114.463 31.3635 114.072 31.2679 113.752 31.0767C113.439 30.8781 113.205 30.6171 113.048 30.2935C112.892 29.9699 112.813 29.6096 112.813 29.2125V27.7675C112.813 27.2968 112.896 26.9034 113.06 26.5872C113.223 26.2637 113.461 26.021 113.774 25.8592C114.087 25.6901 114.463 25.6055 114.903 25.6055C115.566 25.6055 116.072 25.7967 116.422 26.1791C116.772 26.5615 116.947 27.0909 116.947 27.7675V29.2125ZM116.322 27.7675C116.322 27.4145 116.273 27.1204 116.177 26.8851C116.079 26.6424 115.927 26.4622 115.718 26.3445C115.517 26.2196 115.253 26.157 114.925 26.157C114.597 26.157 114.322 26.2196 114.098 26.3445C113.882 26.4622 113.718 26.6424 113.607 26.8851C113.495 27.1204 113.439 27.4145 113.439 27.7675V29.3228C113.439 29.6169 113.499 29.878 113.618 30.106C113.745 30.3266 113.92 30.4994 114.143 30.6244C114.367 30.7494 114.627 30.8119 114.925 30.8119C115.238 30.8119 115.498 30.7531 115.708 30.6354C115.916 30.5105 116.068 30.3376 116.165 30.117C116.27 29.889 116.322 29.6243 116.322 29.3228V27.7675Z" fill="black"/>
<path d="M111.809 29.311C111.809 29.9803 111.644 30.495 111.317 30.8554C110.997 31.2083 110.527 31.3848 109.909 31.3848C109.678 31.3848 109.458 31.3481 109.25 31.2745C109.042 31.2083 108.855 31.1128 108.692 30.9877C108.535 30.8627 108.412 30.7267 108.323 30.5796V33.591L107.675 33.3262V25.7372H108.323V26.2556C108.487 26.1233 108.654 26.0129 108.825 25.9247C109.005 25.8291 109.183 25.7592 109.362 25.7151C109.548 25.6637 109.731 25.6342 109.909 25.6269C110.326 25.6048 110.673 25.6673 110.948 25.8144C111.231 25.9541 111.443 26.1637 111.585 26.4431C111.734 26.7152 111.809 27.0462 111.809 27.4358V29.311ZM111.172 27.469C111.172 27.219 111.131 27.0094 111.049 26.8402C110.974 26.6637 110.87 26.5277 110.736 26.4321C110.61 26.3292 110.461 26.2593 110.289 26.2225C110.125 26.1784 109.954 26.1637 109.775 26.1784C109.611 26.1931 109.436 26.2299 109.25 26.2887C109.071 26.3475 108.9 26.4284 108.736 26.5314C108.572 26.6343 108.434 26.763 108.323 26.9175V29.3331C108.323 29.5684 108.363 29.778 108.445 29.9619C108.527 30.1457 108.639 30.3001 108.781 30.4252C108.922 30.5501 109.086 30.6458 109.273 30.712C109.458 30.7781 109.66 30.8112 109.876 30.8112C110.159 30.8112 110.393 30.7597 110.58 30.6568C110.773 30.5539 110.918 30.3994 111.016 30.1935C111.119 29.9876 111.172 29.7265 111.172 29.4104V27.469Z" fill="black"/>
<path d="M105.936 26.4107C105.839 26.3445 105.727 26.2931 105.601 26.2563C105.481 26.2122 105.355 26.1791 105.221 26.157C105.094 26.135 104.967 26.1239 104.841 26.1239C104.692 26.1239 104.535 26.1423 104.372 26.1791C104.215 26.2085 104.07 26.26 103.936 26.3335C103.802 26.3997 103.693 26.4879 103.612 26.5983C103.53 26.7086 103.489 26.8409 103.489 26.9953C103.489 27.1792 103.545 27.3336 103.656 27.4587C103.776 27.5836 103.928 27.6976 104.115 27.8006C104.301 27.8962 104.505 27.9881 104.729 28.0764C104.953 28.1572 105.176 28.2491 105.399 28.3521C105.63 28.4478 105.839 28.5617 106.025 28.694C106.211 28.8265 106.36 28.9882 106.472 29.1794C106.591 29.3633 106.651 29.5912 106.651 29.8633C106.651 30.128 106.595 30.3597 106.483 30.5582C106.372 30.7568 106.222 30.9222 106.036 31.0546C105.85 31.187 105.641 31.2862 105.41 31.3524C105.187 31.4186 104.956 31.4517 104.718 31.4517C104.323 31.4517 103.94 31.3671 103.567 31.198C103.195 31.0289 102.878 30.7972 102.617 30.5031L102.964 30.1391C103.135 30.3009 103.31 30.4369 103.489 30.5472C103.667 30.6575 103.858 30.7421 104.059 30.8009C104.267 30.8524 104.487 30.8781 104.718 30.8781C104.859 30.8781 105.009 30.8598 105.165 30.823C105.321 30.7862 105.466 30.7273 105.601 30.6465C105.742 30.5582 105.854 30.4516 105.936 30.3266C106.025 30.2016 106.07 30.0508 106.07 29.8743C106.07 29.6758 106.01 29.5067 105.891 29.3669C105.779 29.2199 105.63 29.0948 105.444 28.9919C105.258 28.8816 105.049 28.7823 104.818 28.694C104.595 28.6058 104.368 28.5139 104.137 28.4183C103.914 28.3227 103.709 28.2124 103.522 28.0874C103.336 27.9623 103.184 27.8153 103.065 27.6462C102.953 27.4696 102.897 27.2601 102.897 27.0174C102.897 26.7821 102.949 26.5799 103.053 26.4107C103.158 26.2343 103.295 26.0871 103.467 25.9695C103.646 25.8445 103.842 25.7526 104.059 25.6937C104.274 25.6349 104.495 25.6055 104.718 25.6055C104.867 25.6055 105.02 25.6165 105.176 25.6386C105.333 25.6533 105.496 25.6901 105.667 25.7489C105.839 25.8003 106.014 25.8813 106.192 25.9916L105.936 26.4107Z" fill="black"/>
<path d="M100.998 27.4806C100.998 27.2306 100.956 27.0246 100.874 26.8628C100.792 26.6937 100.681 26.5613 100.539 26.4657C100.398 26.3628 100.241 26.2892 100.07 26.2451C99.8989 26.201 99.7239 26.1789 99.5452 26.1789C99.3738 26.1789 99.2061 26.1936 99.042 26.223C98.8858 26.2524 98.7333 26.2966 98.5837 26.3554C98.4348 26.4069 98.2823 26.4768 98.1262 26.565V31.253H97.4893V25.7267H98.1262V26.1017C98.2678 26.0062 98.4203 25.9252 98.5837 25.859C98.7551 25.7855 98.9301 25.7303 99.1095 25.6936C99.2954 25.6495 99.4813 25.6274 99.668 25.6274C99.9134 25.6274 100.137 25.6532 100.338 25.7046C100.547 25.7561 100.729 25.8333 100.886 25.9362C101.042 26.0392 101.173 26.1643 101.277 26.3113C101.388 26.4584 101.471 26.6275 101.523 26.8187C101.582 27.0026 101.612 27.2121 101.612 27.4474V31.253H100.998V27.4806Z" fill="black"/>
<path d="M95.813 27.3926C95.813 27.1205 95.7643 26.8999 95.6677 26.7307C95.5776 26.5616 95.4513 26.4329 95.2872 26.3446C95.131 26.2564 94.9487 26.1976 94.7403 26.1682C94.5311 26.1314 94.3154 26.113 94.0918 26.113L94.1143 25.6387C94.5689 25.6387 94.9451 25.6828 95.2429 25.771C95.5406 25.852 95.7752 25.988 95.9466 26.1792C96.1252 26.363 96.2523 26.6131 96.3264 26.9292C96.4012 27.2381 96.4382 27.6205 96.4382 28.0764V31.2533C96.4455 31.2533 96.4048 31.2569 96.3155 31.2643C96.2334 31.2716 96.1216 31.279 95.98 31.2864C95.8464 31.3011 95.6975 31.3121 95.5333 31.3194C95.3772 31.3341 95.2203 31.3452 95.0642 31.3526C94.9153 31.3599 94.7846 31.3635 94.6727 31.3635C94.3154 31.3709 93.9799 31.3488 93.6676 31.2974C93.3619 31.2459 93.0939 31.1503 92.863 31.0106C92.6393 30.8635 92.4606 30.6576 92.327 30.3929C92.1999 30.1282 92.1367 29.7935 92.1367 29.3891V28.4736C92.1367 28.1647 92.1817 27.9036 92.2711 27.6904C92.3677 27.4771 92.4977 27.308 92.6618 27.183C92.8259 27.0506 93.0082 26.955 93.2094 26.8962C93.4178 26.8373 93.6342 26.8079 93.8572 26.8079C94.1034 26.8079 94.3416 26.8373 94.5725 26.8962C94.8035 26.9477 95.0228 27.0175 95.232 27.1058C95.4477 27.194 95.6416 27.2896 95.813 27.3926ZM95.813 27.911C95.619 27.8081 95.4106 27.7124 95.1869 27.6242C94.9633 27.536 94.7367 27.4661 94.5057 27.4147C94.2748 27.3632 94.0402 27.3374 93.8013 27.3374C93.7047 27.3374 93.5965 27.3521 93.4774 27.3815C93.3583 27.4109 93.2428 27.4661 93.1309 27.547C93.0191 27.6205 92.9261 27.7345 92.8521 27.8889C92.7845 28.0434 92.7511 28.2456 92.7511 28.4956V29.3119C92.7511 29.5766 92.7773 29.8082 92.8296 30.0068C92.8891 30.2054 92.9857 30.3708 93.12 30.5031C93.2617 30.6282 93.4548 30.7201 93.701 30.779C93.9465 30.8305 94.2559 30.8488 94.6284 30.8341C94.7773 30.8267 94.9117 30.8194 95.0308 30.812C95.1571 30.8047 95.269 30.7973 95.3656 30.7899C95.4629 30.7752 95.5442 30.7679 95.6118 30.7679C95.6786 30.7605 95.7272 30.7569 95.757 30.7569C95.7941 30.7495 95.813 30.7458 95.813 30.7458V27.911Z" fill="black"/>
<path d="M91.8153 26.1673C91.8153 26.1673 91.7667 26.1637 91.6701 26.1563C91.58 26.149 91.4725 26.149 91.3454 26.1563C91.1893 26.1637 91.0215 26.1857 90.8429 26.2224C90.6642 26.2519 90.4892 26.296 90.3178 26.3548C90.1464 26.4063 89.9867 26.4688 89.837 26.5424C89.6882 26.6085 89.5618 26.6747 89.4572 26.7409V31.2524H88.8203V25.7261H89.4572V26.0901C89.7332 25.9651 90.0164 25.8584 90.3069 25.7702C90.6047 25.682 90.9547 25.6268 91.3571 25.6048C91.4907 25.5974 91.6062 25.6011 91.7035 25.6158C91.8073 25.6305 91.8596 25.6378 91.8596 25.6378L91.8153 26.1673Z" fill="black"/>
<path d="M86.4792 24.0828V31.2526H85.8648V24.0828H83.9541V23.5312H88.4459V24.0828H86.4792Z" fill="black"/>
<path d="M179.077 15.4605C177.255 15.4605 176.344 14.526 176.344 12.6571V8.86799H175.419C175.256 8.86799 175.141 8.83572 175.075 8.77105C175.015 8.70107 174.985 8.58528 174.985 8.42367V7.42994C174.985 7.26836 175.015 7.15525 175.075 7.09062C175.141 7.0206 175.256 6.98559 175.419 6.98559H176.344V5.68487C176.344 5.5556 176.371 5.45596 176.425 5.38594C176.655 5.08971 176.99 4.76925 177.432 4.42454C177.508 4.37068 177.577 4.34375 177.637 4.34375C177.702 4.34375 177.768 4.37068 177.833 4.42454C178.068 4.60228 178.264 4.76925 178.423 4.92544C178.586 5.08164 178.725 5.23514 178.84 5.38594C178.894 5.45596 178.922 5.5556 178.922 5.68487V6.98559H180.37C180.534 6.98559 180.646 7.0206 180.705 7.09062C180.771 7.15525 180.804 7.26836 180.804 7.42994V8.42367C180.804 8.58528 180.771 8.70107 180.705 8.77105C180.646 8.83572 180.534 8.86799 180.37 8.86799H178.922V12.2127C178.922 13.0745 179.238 13.5054 179.871 13.5054C179.969 13.5054 180.059 13.4973 180.141 13.4812C180.223 13.4596 180.293 13.4381 180.354 13.4165C180.468 13.3734 180.548 13.3573 180.591 13.368C180.64 13.3788 180.683 13.4381 180.722 13.5458L181.197 14.798C181.246 14.9327 181.213 15.0296 181.098 15.0889C181.017 15.1266 180.817 15.1966 180.501 15.2989C180.19 15.4066 179.715 15.4605 179.077 15.4605Z" fill="black"/>
<path d="M171.163 8.52041H171.196C171.605 7.40008 172.342 6.83993 173.405 6.83993C173.542 6.83993 173.654 6.84802 173.741 6.86418C173.829 6.87495 173.888 6.88572 173.921 6.89649C174.003 6.92342 174.044 6.98536 174.044 7.08231V9.02933C174.044 9.19631 173.946 9.24213 173.749 9.1667C173.683 9.13974 173.588 9.11286 173.463 9.0859C173.343 9.05356 173.174 9.03743 172.956 9.03743C172.394 9.03743 171.954 9.24213 171.638 9.65146C171.322 10.0554 171.163 10.6075 171.163 11.3076V14.8301C171.163 14.9917 171.128 15.1048 171.057 15.1694C170.991 15.2287 170.877 15.2583 170.713 15.2583H169.027C168.864 15.2583 168.746 15.2287 168.675 15.1694C168.61 15.1048 168.577 14.9917 168.577 14.8301V8.05989C168.577 7.93062 168.605 7.83096 168.659 7.76098C168.774 7.61012 168.91 7.45664 169.068 7.30044C169.232 7.14425 169.431 6.97728 169.666 6.79954C169.709 6.76723 169.753 6.74568 169.797 6.73491C169.84 6.72413 169.879 6.71875 169.911 6.71875C169.988 6.71875 170.064 6.74568 170.14 6.79954C170.593 7.14963 170.91 7.44856 171.09 7.69631C171.139 7.76098 171.163 7.83633 171.163 7.92251V8.52041Z" fill="black"/>
<path d="M163.545 4.31158C163.845 4.72631 164.15 5.26221 164.461 5.91931C164.778 6.57102 165.083 7.28736 165.378 8.0683C165.672 8.84932 165.937 9.64912 166.171 10.4678C166.412 11.2811 166.608 12.0648 166.761 12.8188C166.914 13.5728 167.001 14.2434 167.022 14.8305C167.028 15.1159 166.898 15.2587 166.63 15.2587H164.65C164.393 15.2587 164.259 15.1321 164.248 14.879C164.226 14.2757 164.128 13.5432 163.954 12.6815H159.486C159.333 13.5217 159.246 14.2542 159.224 14.879C159.213 15.1321 159.074 15.2587 158.807 15.2587H156.867C156.769 15.2587 156.687 15.2317 156.622 15.1779C156.556 15.1187 156.526 15.019 156.532 14.879C156.559 14.2811 156.646 13.6024 156.793 12.843C156.947 12.0782 157.143 11.2865 157.383 10.4678C157.623 9.64912 157.89 8.84932 158.185 8.0683C158.479 7.28198 158.785 6.56294 159.101 5.91123C159.418 5.25953 159.726 4.72631 160.026 4.31158C160.184 4.09076 160.351 3.92918 160.525 3.82684C160.705 3.7245 160.926 3.67334 161.188 3.67334H162.367C162.634 3.67334 162.858 3.7245 163.038 3.82684C163.218 3.92918 163.387 4.09076 163.545 4.31158ZM161.696 6.22631C161.335 6.79185 161.006 7.46779 160.705 8.25415C160.405 9.04054 160.146 9.84844 159.928 10.6779H163.479C163.25 9.84844 162.985 9.04054 162.685 8.25415C162.385 7.46779 162.072 6.79185 161.744 6.22631H161.696Z" fill="black"/>
<path d="M143.307 19.1446C143.105 19.1446 142.952 19.123 142.849 19.08C142.745 19.0422 142.658 18.9938 142.587 18.9345C142.445 18.7999 142.292 18.6113 142.129 18.369C142.09 18.3098 142.049 18.2397 142.006 18.1589C141.962 18.0836 141.94 18.0189 141.94 17.965C141.94 17.9058 141.954 17.8519 141.981 17.8034C142.009 17.755 142.041 17.7092 142.079 17.6661C142.167 17.553 142.273 17.4345 142.399 17.3106C142.524 17.1921 142.63 17.0979 142.718 17.0279C142.778 16.9794 142.827 16.9471 142.865 16.9309C142.903 16.9202 142.936 16.9147 142.963 16.9147C142.991 16.9147 143.031 16.9202 143.086 16.9309C143.14 16.9417 143.222 16.9471 143.331 16.9471C143.708 16.9471 144.101 16.8259 144.51 16.5835C144.919 16.3411 145.323 15.8861 145.721 15.2182C145.307 14.8411 144.897 14.3698 144.493 13.8044C144.095 13.2334 143.735 12.6167 143.413 11.9542C143.092 11.2864 142.832 10.6212 142.636 9.95872C142.445 9.29623 142.349 8.68492 142.349 8.12474C142.349 8.00629 142.38 7.91201 142.439 7.84203C142.691 7.53502 143.048 7.21452 143.511 6.8806C143.593 6.82674 143.667 6.7998 143.732 6.7998C143.803 6.7998 143.877 6.82674 143.954 6.8806C144.204 7.05833 144.414 7.2253 144.583 7.38149C144.758 7.53767 144.906 7.69118 145.026 7.84203C145.085 7.91201 145.116 8.01167 145.116 8.14094V8.10861C145.116 8.53407 145.167 8.98383 145.271 9.45784C145.375 9.93176 145.516 10.3949 145.697 10.8474C145.877 11.2945 146.079 11.7011 146.302 12.0673C146.526 12.4282 146.758 12.7163 146.997 12.9318H147.039C147.148 12.7272 147.267 12.4335 147.399 12.0512C147.535 11.6634 147.663 11.2352 147.783 10.7666C147.903 10.2926 148.002 9.82407 148.078 9.36083C148.154 8.89228 148.193 8.47757 148.193 8.11671V8.14094C148.193 8.01167 148.22 7.91201 148.274 7.84203C148.4 7.69118 148.547 7.53767 148.716 7.38149C148.885 7.2253 149.09 7.05833 149.33 6.8806C149.406 6.82674 149.477 6.7998 149.543 6.7998C149.619 6.7998 149.69 6.82674 149.756 6.8806C150.001 7.05833 150.208 7.2253 150.377 7.38149C150.546 7.53767 150.691 7.69118 150.811 7.84203C150.865 7.91201 150.893 8.00895 150.893 8.13284C150.888 8.62298 150.792 9.26389 150.607 10.0557C150.421 10.842 150.151 11.6957 149.796 12.6167C149.442 13.5377 149.01 14.4399 148.503 15.3232C147.745 16.6535 146.927 17.623 146.048 18.2316C145.17 18.8403 144.256 19.1446 143.307 19.1446ZM150.893 8.11671V8.14094V8.13284C150.893 8.12747 150.893 8.12209 150.893 8.11671ZM142.349 8.11671V8.12474V8.14094V8.11671Z" fill="black"/>
<path d="M138.282 8.52041H138.315C138.724 7.40008 139.461 6.83993 140.524 6.83993C140.661 6.83993 140.773 6.84802 140.86 6.86418C140.948 6.87495 141.007 6.88572 141.04 6.89649C141.122 6.92342 141.163 6.98536 141.163 7.08231V9.02933C141.163 9.19631 141.065 9.24213 140.869 9.1667C140.803 9.13974 140.707 9.11286 140.582 9.0859C140.462 9.05356 140.293 9.03743 140.075 9.03743C139.513 9.03743 139.073 9.24213 138.757 9.65146C138.441 10.0554 138.282 10.6075 138.282 11.3076V14.8301C138.282 14.9917 138.247 15.1048 138.176 15.1694C138.11 15.2287 137.996 15.2583 137.832 15.2583H136.147C135.983 15.2583 135.865 15.2287 135.794 15.1694C135.729 15.1048 135.696 14.9917 135.696 14.8301V8.05989C135.696 7.93062 135.724 7.83096 135.778 7.76098C135.893 7.61012 136.03 7.45664 136.187 7.30044C136.351 7.14425 136.55 6.97728 136.785 6.79954C136.828 6.76723 136.872 6.74568 136.916 6.73491C136.959 6.72413 136.998 6.71875 137.03 6.71875C137.107 6.71875 137.183 6.74568 137.259 6.79954C137.712 7.14963 138.029 7.44856 138.209 7.69631C138.258 7.76098 138.282 7.83633 138.282 7.92251V8.52041Z" fill="black"/>
<path d="M130.428 15.4606C129.505 15.4606 128.704 15.3152 128.022 15.0243C127.34 14.7281 126.81 14.2703 126.434 13.6508C126.058 13.0315 125.869 12.2316 125.869 11.2514C125.869 9.78105 126.251 8.66879 127.015 7.91473C127.779 7.16072 128.794 6.78369 130.06 6.78369C130.883 6.78369 131.579 6.92912 132.146 7.21996C132.719 7.51081 133.153 7.91208 133.447 8.42372C133.747 8.93544 133.897 9.51978 133.897 10.1769C133.897 10.8178 133.731 11.2649 133.398 11.518C133.065 11.7711 132.58 11.8977 131.941 11.8977H128.431C128.474 12.4525 128.679 12.8753 129.044 13.1662C129.415 13.457 129.917 13.6024 130.55 13.6024C131.052 13.6024 131.453 13.5297 131.753 13.3843C132.059 13.2335 132.272 13.115 132.391 13.0288C132.495 12.9534 132.612 12.9184 132.744 12.9238C132.847 12.9238 132.994 12.9453 133.185 12.9884C133.381 13.0261 133.575 13.0988 133.766 13.2065C133.903 13.2766 133.971 13.3735 133.971 13.4973C133.971 13.5674 133.957 13.6671 133.93 13.7963C133.914 13.8717 133.886 13.9821 133.848 14.1276C133.81 14.2676 133.761 14.3995 133.701 14.5234C133.668 14.5826 133.616 14.6392 133.545 14.6931C133.437 14.7685 133.259 14.8682 133.013 14.992C132.773 15.1159 132.443 15.2236 132.023 15.3152C131.604 15.4121 131.071 15.4606 130.428 15.4606ZM128.415 10.2415H131.082C131.36 10.2415 131.5 10.115 131.5 9.86178C131.5 9.47941 131.377 9.15892 131.131 8.90038C130.891 8.63645 130.529 8.50453 130.043 8.50453C129.513 8.50453 129.123 8.67151 128.873 9.00541C128.627 9.33939 128.474 9.75137 128.415 10.2415Z" fill="black"/>
<path d="M118.724 14.5072C118.424 14.0386 118.127 13.5 117.833 12.8914C117.544 12.2774 117.279 11.658 117.039 11.0332C116.804 10.403 116.616 9.82945 116.475 9.31236C116.332 8.78996 116.262 8.38866 116.262 8.10861C116.262 8.00092 116.291 7.91201 116.352 7.84203C116.602 7.53502 116.96 7.21453 117.424 6.8806C117.505 6.82674 117.579 6.7998 117.644 6.7998C117.716 6.7998 117.789 6.82674 117.865 6.8806C118.117 7.05833 118.326 7.2253 118.496 7.38149C118.67 7.53767 118.817 7.69118 118.937 7.84203C118.997 7.91201 119.027 8.01167 119.027 8.14095V8.10051C119.027 8.45061 119.09 8.91113 119.215 9.48207C119.347 10.0476 119.524 10.6455 119.748 11.2756C119.971 11.9058 120.231 12.4847 120.525 13.0126H120.566C120.812 12.614 121.029 12.1831 121.22 11.7199C121.411 11.2568 121.573 10.7935 121.703 10.3303C121.834 9.86716 121.932 9.44163 121.998 9.05389C122.069 8.66607 122.104 8.35095 122.104 8.10861V8.14095C122.104 8.01167 122.132 7.91201 122.186 7.84203C122.312 7.69118 122.459 7.53767 122.628 7.38149C122.797 7.2253 123.002 7.05833 123.242 6.8806C123.319 6.82674 123.389 6.7998 123.454 6.7998C123.531 6.7998 123.602 6.82674 123.667 6.8806C123.913 7.05833 124.12 7.2253 124.29 7.38149C124.459 7.53767 124.603 7.69118 124.723 7.84203C124.778 7.91201 124.805 8.00629 124.805 8.12474C124.799 8.41562 124.723 8.82495 124.576 9.3528C124.428 9.8752 124.229 10.4515 123.978 11.0817C123.733 11.7065 123.457 12.3232 123.152 12.9318C122.847 13.5351 122.536 14.0602 122.219 14.5072C122.028 14.7819 121.856 14.9758 121.703 15.0889C121.551 15.202 121.286 15.2586 120.91 15.2586H120.043C119.65 15.2586 119.377 15.2047 119.224 15.0969C119.077 14.9893 118.91 14.7927 118.724 14.5072ZM116.262 8.10051V8.10861C116.262 8.11936 116.262 8.13012 116.262 8.14095V8.10051ZM124.805 8.10861V8.14095V8.12474C124.805 8.11936 124.805 8.11399 124.805 8.10861Z" fill="black"/>
<path d="M111.769 4.27068C111.769 4.20066 111.79 4.13873 111.834 4.08487C111.877 4.03101 111.935 3.96099 112.005 3.87481C112.159 3.70246 112.336 3.52203 112.538 3.33352C112.74 3.13962 112.944 2.9538 113.151 2.77606C113.282 2.67373 113.38 2.62256 113.446 2.62256C113.512 2.62256 113.612 2.67373 113.748 2.77606C114.191 3.15309 114.567 3.51933 114.878 3.87481C114.949 3.9556 115.006 4.02562 115.05 4.08487C115.099 4.13873 115.123 4.20066 115.123 4.27068C115.123 4.34071 115.099 4.40264 115.05 4.4565C115.006 4.51036 114.946 4.58308 114.87 4.67463C114.722 4.8416 114.551 5.02204 114.354 5.21593C114.158 5.40444 113.956 5.58487 113.748 5.75723C113.672 5.82186 113.612 5.86495 113.569 5.88649C113.525 5.90265 113.484 5.91073 113.446 5.91073C113.408 5.91073 113.367 5.90265 113.323 5.88649C113.285 5.86495 113.222 5.82186 113.135 5.75723C112.917 5.58487 112.712 5.40444 112.521 5.21593C112.33 5.02204 112.159 4.83622 112.005 4.65848C111.935 4.5723 111.877 4.50497 111.834 4.4565C111.79 4.40264 111.769 4.34071 111.769 4.27068ZM114.731 14.83C114.731 14.9915 114.695 15.1047 114.624 15.1693C114.559 15.2286 114.444 15.2582 114.281 15.2582H112.595C112.431 15.2582 112.314 15.2286 112.243 15.1693C112.177 15.1047 112.145 14.9915 112.145 14.83V7.41343C112.145 7.25185 112.177 7.14144 112.243 7.08219C112.314 7.01756 112.431 6.98524 112.595 6.98524H114.281C114.444 6.98524 114.559 7.01756 114.624 7.08219C114.695 7.14144 114.731 7.25185 114.731 7.41343V14.83Z" fill="black"/>
<path d="M108.388 15.4275C108.274 15.476 108.192 15.5002 108.143 15.5002C108.093 15.5002 108.042 15.4814 107.987 15.4437C107.862 15.3575 107.717 15.1474 107.554 14.8135C107.396 14.4742 107.316 13.9544 107.316 13.2543V3.89874C107.316 3.76948 107.343 3.66984 107.398 3.59982C107.627 3.30359 107.963 2.98311 108.404 2.63841C108.481 2.58455 108.549 2.55762 108.609 2.55762C108.68 2.55762 108.749 2.58455 108.814 2.63841C109.048 2.81615 109.245 2.98311 109.403 3.13931C109.566 3.29551 109.706 3.449 109.82 3.59982C109.875 3.66984 109.902 3.76948 109.902 3.89874V12.7614C109.902 13.1169 109.932 13.4212 109.992 13.6744C110.052 13.9222 110.123 14.1214 110.205 14.2722C110.298 14.4499 110.262 14.5766 110.099 14.6519L108.388 15.4275Z" fill="black"/>
<path d="M102.047 15.4606C101.126 15.4606 100.323 15.3152 99.6411 15.0243C98.9592 14.7281 98.4305 14.2703 98.0535 13.6508C97.6773 13.0315 97.4893 12.2316 97.4893 11.2514C97.4893 9.78105 97.8713 8.66879 98.6345 7.91473C99.3985 7.16072 100.413 6.78369 101.679 6.78369C102.502 6.78369 103.198 6.92912 103.765 7.21996C104.338 7.51081 104.772 7.91208 105.067 8.42372C105.367 8.93544 105.517 9.51978 105.517 10.1769C105.517 10.8178 105.351 11.2649 105.017 11.518C104.685 11.7711 104.2 11.8977 103.561 11.8977H100.051C100.094 12.4525 100.299 12.8753 100.664 13.1662C101.035 13.457 101.537 13.6024 102.17 13.6024C102.672 13.6024 103.073 13.5297 103.373 13.3843C103.678 13.2335 103.891 13.115 104.011 13.0288C104.115 12.9534 104.232 12.9184 104.363 12.9238C104.467 12.9238 104.614 12.9453 104.805 12.9884C105.001 13.0261 105.195 13.0988 105.386 13.2065C105.522 13.2766 105.59 13.3735 105.59 13.4973C105.59 13.5674 105.577 13.6671 105.55 13.7963C105.533 13.8717 105.506 13.9821 105.468 14.1276C105.43 14.2676 105.381 14.3995 105.32 14.5234C105.288 14.5826 105.236 14.6392 105.165 14.6931C105.056 14.7685 104.879 14.8682 104.633 14.992C104.393 15.1159 104.063 15.2236 103.643 15.3152C103.223 15.4121 102.691 15.4606 102.047 15.4606ZM100.034 10.2415H102.702C102.98 10.2415 103.119 10.115 103.119 9.86178C103.119 9.47941 102.996 9.15892 102.751 8.90038C102.511 8.63645 102.148 8.50453 101.663 8.50453C101.134 8.50453 100.744 8.67151 100.492 9.00541C100.247 9.33939 100.094 9.75137 100.034 10.2415Z" fill="black"/>
<path d="M87.7103 15.2582C87.1482 15.2582 86.7197 15.1882 86.4249 15.0481C86.1358 14.9081 85.9398 14.6792 85.8359 14.3614C85.7379 14.0436 85.6885 13.6208 85.6885 13.093V5.83803C85.6885 5.29943 85.7379 4.87394 85.8359 4.56154C85.9398 4.24377 86.1358 4.01756 86.4249 3.8829C86.7197 3.74287 87.1482 3.67285 87.7103 3.67285H90.2224C91.3953 3.67285 92.4207 3.8452 93.2995 4.18991C94.1833 4.53461 94.8703 5.11899 95.3612 5.94306C95.8522 6.76174 96.0977 7.88742 96.0977 9.32011C96.0977 10.7528 95.8522 11.9054 95.3612 12.7779C94.8703 13.6451 94.1833 14.2752 93.2995 14.6684C92.4207 15.0616 91.3953 15.2582 90.2224 15.2582H87.7103ZM89.2645 5.79764C88.905 5.79764 88.6595 5.87304 88.5281 6.02385C88.3973 6.17466 88.332 6.43319 88.332 6.79944V12.1316C88.332 12.4925 88.3973 12.751 88.5281 12.9072C88.6595 13.0634 88.905 13.1415 89.2645 13.1415H89.6414C90.8085 13.1415 91.7119 12.8587 92.3503 12.2932C92.9937 11.7277 93.3154 10.7474 93.3154 9.35244C93.3154 8.42065 93.168 7.69893 92.8739 7.18723C92.5848 6.67017 92.1643 6.30931 91.6131 6.10464C91.0626 5.89997 90.3996 5.79764 89.6247 5.79764H89.2645Z" fill="black"/>
<mask id="mask0_412_744" style="mask-type:luminance" maskUnits="userSpaceOnUse" x="0" y="0" width="73" height="37">
<path d="M72.5887 0.352051H0.523438V36.2014H72.5887V0.352051Z" fill="white"/>
</mask>
<g mask="url(#mask0_412_744)">
<path d="M71.3962 31.6009C70.9886 30.4121 70.529 29.2404 70.1214 28.0602L68.7903 24.5495C68.3568 23.3735 67.8711 22.2233 67.4159 21.0559L67.1774 20.4594L66.4273 20.4337C65.1873 20.3822 63.9473 20.3221 62.7072 20.2963L58.9871 20.2062C56.7064 20.1461 54.4258 20.1504 52.1452 20.1246C51.3171 19.2663 50.4673 18.408 49.6348 17.5496L46.7081 14.5711C44.7483 12.6226 42.7756 10.6527 40.7464 8.72992L40.3735 8.38232L39.9703 8.40376C38.6696 8.45954 37.3992 8.49389 36.1158 8.57541L32.2612 8.79861C29.6901 8.98316 27.119 9.16341 24.5479 9.46383C27.119 9.76425 29.6901 9.9445 32.2612 10.129L36.1158 10.3522C37.2344 10.4209 38.353 10.4552 39.4717 10.5025C41.206 12.4895 43.0314 14.4209 44.8134 16.3779L47.688 19.4079C48.6506 20.4122 49.5914 21.438 50.5713 22.4122L51.0049 22.8414H51.5729C54.053 22.807 56.533 22.8199 59.0088 22.7556L62.7289 22.6611C63.7521 22.6611 64.7754 22.5968 65.803 22.5538C66.2365 23.4594 66.6962 24.365 67.1687 25.2576L68.9031 28.5881C69.5058 29.6868 70.0868 30.7984 70.7067 31.8928C71.3267 32.9872 71.9338 34.0816 72.5841 35.1631C72.2113 33.97 71.8081 32.7854 71.3962 31.6009Z" fill="black"/>
<path d="M59.5646 29.1073C58.6526 28.7393 57.6827 28.5316 56.6986 28.4936C55.7127 28.4365 54.7238 28.5321 53.7676 28.7768C52.7888 29.036 51.867 29.4725 51.0491 30.0644C50.2299 30.6547 49.52 31.3807 48.9505 32.2103C48.5236 32.8405 48.1716 33.5174 47.9012 34.2275C44.5237 34.1588 41.1461 34.1588 37.7685 34.133C34.1698 34.1588 30.5668 34.133 26.9681 34.2317C23.3693 34.3304 19.7663 34.3948 16.1632 34.5407C12.5602 34.6866 8.96583 34.8712 5.36279 35.1588C8.96583 35.4463 12.5646 35.6394 16.1632 35.7768C19.762 35.9141 23.365 36.03 26.9681 36.0857C30.5711 36.1416 34.1698 36.1587 37.7685 36.1888C41.3672 36.2188 44.9703 36.163 48.569 36.0814H49.3104L49.4795 35.3776C49.6817 34.5997 50.0034 33.8571 50.4333 33.1759C50.8577 32.4759 51.3969 31.8506 52.029 31.3262C53.3575 30.2918 54.9953 29.7227 56.6856 29.7081C58.4194 29.6065 60.1265 30.1672 61.455 31.2747C62.7912 32.4833 63.7345 34.0578 64.1649 35.7982C63.993 33.9286 63.2176 32.1635 61.9536 30.764C61.2812 30.0544 60.4679 29.4904 59.5646 29.1073Z" fill="black"/>
<path d="M34.2087 14.5149C36.0254 14.3775 37.8421 14.1973 39.6632 13.9269C37.8421 13.6522 36.0254 13.4763 34.2087 13.3347C33.2982 13.2617 32.392 13.1973 31.4815 13.1544C30.5709 13.1115 29.6648 13.0471 28.7543 13.0256L27.5186 12.9956L27.8958 14.2188C28.3293 15.6394 28.763 17.0556 29.2615 18.4591C29.7602 19.8625 30.2154 21.2701 30.7271 22.665L30.9829 23.356H31.6939C34.174 23.3174 36.6541 23.2315 39.1385 23.0813C40.3785 22.9997 41.6186 22.9096 42.8586 22.7894C44.0987 22.6693 45.343 22.5363 46.5831 22.3603C45.343 22.1715 44.0987 22.0341 42.8586 21.9311C41.6186 21.8281 40.3785 21.7165 39.1385 21.6393C36.9012 21.5062 34.664 21.4247 32.4267 21.3818C32.0235 20.1972 31.6159 19.0127 31.1823 17.841C30.8268 16.8239 30.4452 15.8196 30.055 14.811C30.5319 14.7896 31.0089 14.7595 31.4815 14.7338C32.392 14.6351 33.2982 14.5707 34.2087 14.5149Z" fill="black"/>
<path d="M16.7786 2.22327C17.2425 2.26619 17.7108 2.29623 18.1747 2.33486C19.2587 7.14167 20.5855 11.8755 22.077 16.5621C22.8705 19.0085 23.7159 21.4377 24.6438 23.8582C25.5717 26.2788 26.5602 28.6564 27.7222 30.9955C27.4273 28.4204 26.9461 25.8711 26.4215 23.3432C25.8969 20.8153 25.2768 18.3218 24.6177 15.8368C23.2997 10.8584 21.7691 5.93139 19.9654 1.11599L19.6793 0.352051L18.9942 0.394969C18.2528 0.442178 17.5157 0.510847 16.7786 0.575224C16.0416 0.639602 15.3001 0.699687 14.563 0.789814C13.0845 0.952902 11.606 1.13316 10.1318 1.39925C11.606 1.66105 13.0845 1.82843 14.563 2.00869C15.3001 2.09881 16.0372 2.15461 16.7786 2.22327Z" fill="black"/>
<path d="M8.42372 10.1508C9.72449 10.1508 11.0599 10.095 12.3737 9.99632C13.7026 9.90978 15.0238 9.73196 16.3279 9.46417C15.0238 9.19781 13.7025 9.02143 12.3737 8.93625C11.0613 8.83329 9.74468 8.78174 8.42372 8.78174C7.123 8.78174 5.79191 8.83329 4.47383 8.93202C3.14633 9.01863 1.82652 9.19644 0.523926 9.46417C1.82678 9.73125 3.14645 9.91049 4.47383 10.0006C5.79191 10.1008 7.10855 10.1508 8.42372 10.1508Z" fill="black"/>
<path d="M10.1322 16.4848C11.4473 16.4848 12.764 16.4348 14.0821 16.3346C15.4093 16.2456 16.729 16.0678 18.032 15.8024C16.7294 15.5335 15.4096 15.3543 14.0821 15.2659C12.764 15.1686 11.4473 15.1186 10.1322 15.1157C8.83143 15.1157 7.49602 15.1672 6.17793 15.2659C4.85015 15.3522 3.5302 15.5314 2.22803 15.8024C3.52496 16.0691 4.83893 16.2469 6.16059 16.3346C7.49602 16.4333 8.81407 16.4891 10.1322 16.4848Z" fill="black"/>
<path d="M11.8363 22.8236C13.1515 22.8236 14.4681 22.7721 15.7862 22.6691C17.1137 22.5825 18.4335 22.4046 19.7361 22.1369C18.4335 21.8691 17.1137 21.6913 15.7862 21.6047C14.4855 21.506 13.15 21.4502 11.8363 21.4502C10.5225 21.4502 9.20014 21.5017 7.88637 21.6047C6.55744 21.6913 5.23618 21.8691 3.93213 22.1369C5.23904 22.405 6.56321 22.5828 7.89501 22.6691C9.19578 22.7721 10.5182 22.8279 11.8363 22.8236Z" fill="black"/>
<path d="M13.5312 27.7896C12.2305 27.7896 10.895 27.841 9.58129 27.9398C8.25365 28.0274 6.93379 28.2067 5.63135 28.4762C6.93389 28.7443 8.25372 28.9221 9.58129 29.0084C10.8964 29.1114 12.2131 29.1629 13.5312 29.1629C14.8319 29.1629 16.163 29.1071 17.4811 29.0084C18.8086 28.9221 20.1285 28.7443 21.431 28.4762C20.1285 28.2081 18.8086 28.0303 17.4811 27.9441C16.1717 27.841 14.8579 27.7896 13.5312 27.7896Z" fill="black"/>
</g>
</g>
<defs>
<clipPath id="clip0_412_744">
<rect width="181.56" height="35.8494" fill="white" transform="translate(0.309082 0.352051)"/>
</clipPath>
</defs>
</svg>
