<svg width="129" height="40" viewBox="0 0 129 40" fill="none" xmlns="http://www.w3.org/2000/svg">
<g clip-path="url(#clip0_412_818)">
<g opacity="0.84">
<path fill-rule="evenodd" clip-rule="evenodd" d="M16.6218 36.641C25.7451 36.641 33.141 29.2418 33.141 20.1145C33.141 10.987 25.7451 3.58789 16.6218 3.58789C7.49846 3.58789 0.102539 10.987 0.102539 20.1145C0.102539 29.2418 7.49846 36.641 16.6218 36.641ZM21.7753 11.2866C22.0261 10.3953 21.1614 9.86812 20.3717 10.431L9.34766 18.288C8.49118 18.8983 8.62591 20.1145 9.55001 20.1145H12.4529V20.092H18.1107L13.5007 21.7193L11.4684 28.9423C11.2175 29.8337 12.0822 30.3608 12.8719 29.7979L23.896 21.941C24.7524 21.3307 24.6176 20.1145 23.6936 20.1145H19.2914L21.7753 11.2866Z" fill="black"/>
</g>
<g opacity="0.84">
<path d="M106.65 14.2247C107.021 14.5641 107.467 14.7338 107.992 14.7338C108.53 14.7338 108.978 14.5641 109.332 14.2247C109.687 13.8854 109.865 13.438 109.865 12.8827C109.865 12.3274 109.687 11.8801 109.332 11.5408C108.978 11.2015 108.53 11.0317 107.992 11.0317C107.467 11.0317 107.021 11.2015 106.65 11.5408C106.296 11.8801 106.118 12.3274 106.118 12.8827C106.118 13.438 106.296 13.8854 106.65 14.2247Z" fill="black"/>
<path fill-rule="evenodd" clip-rule="evenodd" d="M51.2997 27.0425C50.5749 27.3818 49.7271 27.5515 48.7557 27.5515H41.4014V11.3555H48.6632C49.6499 11.3555 50.5056 11.5251 51.2303 11.8644C51.9703 12.1884 52.5408 12.6589 52.9416 13.2759C53.358 13.8774 53.5661 14.6025 53.5661 15.4508V15.6821C53.5661 16.4225 53.4273 17.0318 53.1498 17.51C52.8723 17.9727 52.5408 18.3352 52.1553 18.5974C51.7854 18.8442 51.4308 19.0216 51.0916 19.1296V19.5461C51.4308 19.6386 51.8008 19.816 52.2016 20.0782C52.6025 20.3251 52.9416 20.6874 53.2192 21.1656C53.5122 21.6439 53.6587 22.2686 53.6587 23.0397V23.2712C53.6587 24.1658 53.4505 24.937 53.0342 25.5849C52.618 26.2173 52.0397 26.7032 51.2997 27.0425ZM50.0046 21.2813C49.6036 20.9574 49.064 20.7955 48.3857 20.7955H44.4541V24.775H48.3857C49.0486 24.775 49.5806 24.6131 49.9814 24.2892C50.3978 23.9653 50.6059 23.5025 50.6059 22.9009V22.6696C50.6059 22.068 50.4054 21.6053 50.0046 21.2813ZM49.9121 14.6178C49.5112 14.2939 48.9869 14.1319 48.3394 14.1319H44.4541V18.019H48.3394C48.9716 18.019 49.4881 17.857 49.8889 17.5331C50.3052 17.2091 50.5133 16.7618 50.5133 16.1912V15.9598C50.5133 15.3736 50.3129 14.9263 49.9121 14.6178Z" fill="black"/>
<path fill-rule="evenodd" clip-rule="evenodd" d="M60.5443 27.8764C59.4034 27.8764 58.378 27.645 57.4684 27.1823C56.5587 26.7195 55.8417 26.0486 55.3175 25.1694C54.7934 24.2901 54.5312 23.2336 54.5312 21.9995V21.6294C54.5312 20.3954 54.7934 19.3388 55.3175 18.4595C55.8417 17.5803 56.5587 16.9094 57.4684 16.4466C58.378 15.9839 59.4034 15.7524 60.5443 15.7524C61.6852 15.7524 62.7105 15.9839 63.6202 16.4466C64.5298 16.9094 65.2467 17.5803 65.7709 18.4595C66.2949 19.3388 66.5573 20.3954 66.5573 21.6294V21.9995C66.5573 23.2336 66.2949 24.2901 65.7709 25.1694C65.2467 26.0486 64.5298 26.7195 63.6202 27.1823C62.7105 27.645 61.6852 27.8764 60.5443 27.8764ZM60.5443 25.2851C61.4385 25.2851 62.1786 24.9997 62.7645 24.4289C63.3504 23.8428 63.6432 23.0099 63.6432 21.9301V21.6988C63.6432 20.619 63.3504 19.7938 62.7645 19.223C62.194 18.6369 61.454 18.3439 60.5443 18.3439C59.6501 18.3439 58.91 18.6369 58.3241 19.223C57.7382 19.7938 57.4452 20.619 57.4452 21.6988V21.9301C57.4452 23.0099 57.7382 23.8428 58.3241 24.4289C58.91 24.9997 59.6501 25.2851 60.5443 25.2851Z" fill="black"/>
<path d="M77.4711 27.5518C76.7155 27.5518 76.0993 27.3205 75.6214 26.8577C75.1586 26.3796 74.9273 25.7471 74.9273 24.9605V18.4821H72.0596V16.0758H74.9273V12.5127H77.8412V16.0758H80.9866V18.4821H77.8412V24.4515C77.8412 24.9142 78.0567 25.1456 78.4891 25.1456H80.7089V27.5518H77.4711Z" fill="black"/>
<path d="M83.5549 26.9047C84.5108 27.5524 85.7365 27.8764 87.2325 27.8764C88.6967 27.8764 89.8608 27.5524 90.7242 26.9047C91.6034 26.2413 92.0424 25.3082 92.0424 24.1051C92.0424 23.303 91.8341 22.6705 91.4183 22.2077C91.0171 21.7296 90.4624 21.3672 89.7531 21.1203C89.059 20.8581 88.2809 20.6499 87.4169 20.4956L86.7697 20.38C86.2455 20.2874 85.829 20.1563 85.521 19.9866C85.2122 19.8015 85.0582 19.5239 85.0582 19.1536C85.0582 18.8143 85.205 18.5521 85.4978 18.367C85.7907 18.1665 86.2144 18.0662 86.7697 18.0662C87.325 18.0662 87.7871 18.1896 88.1573 18.4364C88.5427 18.6832 88.7972 19.0997 88.9202 19.6858L91.6266 18.8529C91.3641 17.9274 90.8095 17.1793 89.9613 16.6086C89.1132 16.0378 88.0495 15.7524 86.7697 15.7524C85.4125 15.7524 84.3185 16.061 83.4855 16.678C82.6533 17.2795 82.2368 18.151 82.2368 19.2924C82.2368 20.0484 82.4371 20.6653 82.8377 21.1435C83.239 21.6216 83.7711 21.9995 84.4335 22.2771C85.0966 22.5395 85.829 22.7477 86.6309 22.9018L87.2781 23.0176C87.957 23.141 88.4501 23.303 88.7589 23.5035C89.0669 23.6886 89.2209 23.9585 89.2209 24.3133C89.2209 24.6681 89.059 24.9689 88.7357 25.2156C88.4118 25.447 87.9107 25.5627 87.2325 25.5627C86.7849 25.5627 86.3691 25.501 85.983 25.3776C85.6135 25.2388 85.2975 25.0151 85.0351 24.7066C84.7885 24.3981 84.6113 23.974 84.5029 23.4341L81.8203 24.1282C82.0206 25.3313 82.599 26.2568 83.5549 26.9047Z" fill="black"/>
<path d="M97.0932 19.2458C96.6 19.8319 96.3534 20.6571 96.3534 21.7214V27.552H93.4395V11.356H96.3534V17.4873H96.7699C96.8929 17.2406 97.0859 16.9938 97.3477 16.747C97.6101 16.5002 97.9572 16.2997 98.3888 16.1454C98.8357 15.9757 99.3983 15.8909 100.077 15.8909C100.971 15.8909 101.75 16.0991 102.413 16.5156C103.091 16.9166 103.615 17.4797 103.985 18.2046C104.355 18.9141 104.54 19.747 104.54 20.7035V27.552H101.626V20.9348C101.626 20.071 101.41 19.4232 100.979 18.9912C100.562 18.5594 99.9608 18.3434 99.1748 18.3434C98.2804 18.3434 97.587 18.6442 97.0932 19.2458Z" fill="black"/>
<path d="M122.756 26.8579C122.293 26.3798 122.062 25.7473 122.062 24.9607V18.4823H116.331V27.552H113.417V18.4823H110.503V16.076H113.417V13.9473C113.417 13.1607 113.649 12.536 114.111 12.0731C114.59 11.595 115.206 11.356 115.961 11.356H118.967V13.7622H116.979C116.547 13.7622 116.331 13.9936 116.331 14.4563V16.076H122.062V12.5129H124.976V16.076H128.121V18.4823H124.976V24.4516C124.976 24.9143 125.192 25.1458 125.623 25.1458H127.843V27.552H124.606C123.85 27.552 123.234 27.3207 122.756 26.8579Z" fill="black"/>
<path d="M106.535 16.0752V27.5513H109.449V16.0752H106.535Z" fill="black"/>
<path d="M68.0898 11.356V27.552H71.0038V11.356H68.0898Z" fill="black"/>
</g>
</g>
<defs>
<clipPath id="clip0_412_818">
<rect width="128.907" height="39.6638" fill="white" transform="translate(0.102539 0.283203)"/>
</clipPath>
</defs>
</svg>
