<svg width="98" height="34" viewBox="0 0 98 34" fill="none" xmlns="http://www.w3.org/2000/svg">
<path d="M16.3791 33.4621C16.1529 33.4227 15.9267 33.403 15.7004 33.3636C14.8365 33.206 13.9522 33.0878 13.0883 32.8907C11.772 32.5951 10.5379 32.0827 9.36558 31.4718C8.54294 31.0382 7.74083 30.585 7.02095 29.9938C6.46561 29.5405 5.86921 29.1267 5.35494 28.634C4.18267 27.5107 3.17485 26.2495 2.37274 24.8503C1.57054 23.4511 0.974137 21.9731 0.583349 20.4359C0.439334 19.8251 0.336573 19.2141 0.274879 18.6032C0.21309 17.6376 0.151396 16.672 0.172025 15.7063C0.172025 15.0363 0.357107 14.3465 0.459961 13.6765C0.60388 12.7108 0.912441 11.8044 1.26207 10.8979C1.8174 9.45926 2.57835 8.09946 3.52448 6.85794C4.16204 6.03029 4.84076 5.28144 5.62234 4.57199C6.5273 3.72455 7.53512 3.0151 8.62516 2.38454C9.85922 1.67509 11.155 1.10353 12.5536 0.729152C13.4174 0.492668 14.3018 0.315284 15.2068 0.177298C16.05 0.0591006 16.9138 0 17.7571 0C18.5182 0 19.2791 0.0788001 20.0401 0.177298C22.611 0.472969 24.9763 1.30062 27.1153 2.66042C31.3316 5.30114 33.9025 9.00599 34.8696 13.7357C35.1363 15.056 35.1987 16.3961 35.0951 17.7164C34.8072 20.9878 32.6273 23.4314 29.2337 23.9241C27.4855 24.1803 25.7784 24.0226 24.1947 23.254C22.4465 22.4264 21.3564 21.0666 20.904 19.2338C20.7188 18.485 20.5954 17.6967 20.6571 16.9282C20.7806 15.3713 21.1507 13.8933 22.1997 12.632C22.9195 11.7649 23.8862 11.3905 25.038 11.3511C26.1897 11.292 27.1975 11.627 28.0408 12.3365C28.7195 12.9079 29.1926 13.6174 29.3571 14.4845C29.3983 14.721 29.3777 14.9772 29.3983 15.2334H22.3231V18.5638H34.5194C34.5194 18.2288 34.5405 17.8741 34.5194 17.539C34.4781 16.9676 34.4167 16.3961 34.3342 15.8245C34.0464 14.051 33.4089 12.3759 32.2777 10.9176C30.7969 9.0257 28.8224 7.86298 26.3749 7.56739C22.6933 7.11413 18.7855 8.9272 17.0372 12.1985C16.6259 12.9473 16.3585 13.7554 16.194 14.583C16.0706 15.1546 15.9677 15.726 15.9472 16.2975C15.7415 20.5739 17.5309 23.8847 21.3358 26.1706C22.6933 26.9787 24.1742 27.5107 25.7372 27.826C26.7657 28.0231 27.8352 28.0625 28.8841 27.9246C29.5216 27.8457 30.1593 27.7078 30.7969 27.6092C30.838 27.6092 30.8791 27.6092 31.0026 27.6092C30.5912 28.0231 30.221 28.4173 29.8302 28.772C27.4032 30.9791 24.565 32.4374 21.2947 33.0878C20.5543 33.2454 19.7728 33.3045 19.0117 33.403C18.9706 33.403 18.9295 33.4227 18.8883 33.4424C18.0451 33.4424 17.2018 33.4424 16.3791 33.4424V33.4621ZM8.5841 15.0363C7.65851 14.9378 6.589 15.8048 6.589 16.9085C6.589 17.9529 7.47343 18.7609 8.44008 18.8003C9.77699 18.8594 10.5379 17.7953 10.5379 17.0464C10.5379 15.8245 9.75637 15.0166 8.56347 15.0166L8.5841 15.0363Z" fill="#212121"/>
<path d="M84.9913 13.857H80.5902C80.549 13.2657 80.6727 12.714 80.7955 12.1622C81.3923 9.75798 83.0791 8.41787 85.5055 7.82671C86.8219 7.51142 88.1584 7.49164 89.4959 7.55083C90.5859 7.59022 91.6557 7.64932 92.6833 8.02379C94.1647 8.55586 95.3371 9.42291 96.0366 10.8024C96.3657 11.4528 96.4683 12.1622 96.5508 12.8717C96.6324 13.5811 96.6948 14.2709 96.6948 14.9802C96.7351 17.4437 96.7351 19.907 96.7562 22.3703C96.7562 22.863 96.7149 23.3557 96.7562 23.8286C96.8387 24.6564 96.9413 25.5037 97.3318 26.2723C97.3318 26.2723 97.3318 26.3117 97.3318 26.3708H97.0853C95.6864 26.3708 94.3086 26.3708 92.9097 26.3708C92.7044 26.3708 92.6017 26.3117 92.5393 26.1344C92.3954 25.7205 92.2515 25.3066 92.1076 24.8731C92.0663 24.8928 92.026 24.9322 91.9637 24.9519C90.5446 26.0555 88.9404 26.6861 87.1097 26.8438C86.6578 26.8832 86.1848 26.9226 85.732 26.8832C83.7574 26.7452 81.9891 26.1541 80.6516 24.6761C79.8908 23.8286 79.5204 22.8433 79.3976 21.7398C79.1299 19.4931 80.6104 17.5618 82.441 16.6553C83.6547 16.0641 84.9299 15.7489 86.2664 15.5912C87.4388 15.4532 88.6324 15.3941 89.7636 15.0591C90.2155 14.9211 90.6684 14.724 91.0589 14.4679C91.4907 14.2117 91.6758 13.7782 91.6969 13.2854C91.7583 12.2804 91.2028 11.6498 90.3182 11.2951C89.0431 10.763 87.7267 10.7039 86.4516 11.3345C85.7118 11.6892 85.259 12.3001 85.0738 13.0884C85.0124 13.3249 84.9913 13.5811 84.95 13.8373L84.9913 13.857ZM91.9848 17.1875C91.6144 17.3648 91.2853 17.6012 90.915 17.7195C90.3182 17.9166 89.7224 18.0348 89.1054 18.1728C88.1997 18.3896 87.2949 18.5472 86.4103 18.8034C85.4854 19.0792 84.8474 19.6705 84.5394 20.577C84.3129 21.2865 84.4569 21.8974 84.9299 22.4491C85.3415 22.9221 85.9171 23.1783 86.5753 23.2966C87.9742 23.533 89.2896 23.2966 90.5034 22.6068C91.223 22.1929 91.7372 21.5821 91.8197 20.7543C91.9023 20.1041 91.9435 19.4537 91.9637 18.8034C91.9848 18.2713 91.9637 17.7195 91.9637 17.2072L91.9848 17.1875Z" fill="#212121"/>
<path d="M58.5994 18.6051H46.5255V15.2549H53.4778C53.5603 13.8754 52.9222 12.8704 51.8323 12.082C49.9815 10.7617 46.4229 11.0573 45.3329 14.1513C45.1276 14.7425 44.9837 15.3534 44.9424 15.9644C44.9012 16.4767 44.8599 16.9891 44.9012 17.4818C44.9837 18.6839 45.1477 19.886 45.8059 20.9501C46.5255 22.1128 47.6366 22.7435 48.9942 23.0194C51.154 23.4529 53.046 22.3296 53.6217 20.4378C53.6217 20.3787 53.6629 20.3393 53.6831 20.2801H58.6195C58.5581 20.9501 58.3106 21.5808 58.0026 22.1719C57.4883 23.1968 56.8301 24.1229 55.9455 24.8719C54.773 25.8769 53.3751 26.4681 51.8524 26.7833C51.2355 26.9016 50.5984 27.0001 49.9815 27.0198C48.5001 27.0593 47.081 26.7439 45.7445 26.1331C42.8239 24.8127 41.0345 22.6252 40.2938 19.6298C40.0674 18.6839 39.9446 17.7182 40.006 16.7329C40.171 14.0922 41.0959 11.7667 43.0504 9.87488C44.3869 8.59396 46.0324 7.86481 47.9043 7.66773C48.5001 7.60863 49.0969 7.54953 49.6937 7.58893C52.8397 7.80571 55.2873 9.10633 56.8714 11.7864C57.5708 12.9492 58.0851 14.1907 58.3729 15.5111C58.5783 16.4373 58.6809 17.3832 58.6397 18.3488C58.6397 18.4474 58.5994 18.5459 58.5994 18.6642V18.6051Z" fill="#212121"/>
<path d="M76.7634 13.9106C75.3846 13.9106 74.0682 13.9106 72.773 13.9106C72.6492 13.9106 72.5878 13.8712 72.5676 13.7333C72.5053 12.1567 71.4153 11.2108 70.2016 10.9546C69.0503 10.7181 67.9191 10.7378 66.8493 11.2502C66.1911 11.5655 65.7181 12.0582 65.6355 12.748C65.554 13.3194 65.8006 13.8318 66.3148 14.1668C66.7667 14.4821 67.3021 14.62 67.8365 14.7383C68.7624 14.9157 69.6672 15.0536 70.5931 15.2113C71.7444 15.4084 72.8967 15.6054 74.0068 16.0192C76.4544 16.9061 77.4215 18.7388 77.339 20.946C77.2153 23.7837 75.447 25.9712 72.1148 26.7003C71.5391 26.8186 70.9222 26.8974 70.3254 26.9368C69.7084 26.9763 69.0915 27.0157 68.4947 26.9763C66.6439 26.858 64.8958 26.4047 63.3942 25.3012C62.0165 24.2764 61.2556 22.8773 60.9054 21.281C60.844 21.0248 60.844 20.7489 60.8027 20.4927C60.8027 20.4533 60.8027 20.4138 60.8027 20.3744C60.8852 20.3744 60.9466 20.3744 61.0292 20.3744C62.3244 20.3744 63.6207 20.3744 64.8958 20.3744C65.081 20.3744 65.1424 20.4138 65.1836 20.5912C65.3074 21.0445 65.4513 21.5175 65.6566 21.951C65.9646 22.6211 66.5202 23.0941 67.2407 23.3502C68.6185 23.8429 69.9963 23.8034 71.3539 23.2517C72.2587 22.8773 72.7931 22.2269 72.7518 21.2416C72.7518 20.5518 72.4237 20.0001 71.7444 19.7833C71.0661 19.5665 70.3455 19.3891 69.6259 19.2709C68.1656 19.0147 66.6852 18.7783 65.2863 18.3053C64.7308 18.1082 64.1762 17.8914 63.6408 17.6155C62.5096 17.044 61.79 16.1375 61.4197 14.9748C61.2758 14.5215 61.1731 14.0486 61.1731 13.5756C61.1932 11.467 62.1393 9.81156 64.0726 8.72773C64.9159 8.25476 65.8006 7.91978 66.7677 7.8015C67.59 7.6833 68.4122 7.62411 69.2354 7.66351C70.9222 7.703 72.5264 8.13648 73.9867 8.98391C75.4259 9.83126 76.228 11.0926 76.5782 12.6494C76.6808 13.0829 76.6808 13.5165 76.7221 13.9895L76.7634 13.9106Z" fill="#212121"/>
</svg>
