<svg width="169" height="43" viewBox="0 0 169 43" fill="none" xmlns="http://www.w3.org/2000/svg">
<mask id="mask0_412_999" style="mask-type:luminance" maskUnits="userSpaceOnUse" x="1" y="0" width="168" height="43">
<path d="M168.444 0.230469H1.29785V42.8154H168.444V0.230469Z" fill="white"/>
</mask>
<g mask="url(#mask0_412_999)">
<g opacity="0.84">
<path d="M23.4514 6.46992C20.6796 3.69818 16.1858 3.69818 13.414 6.46992L3.37666 16.5073C0.604916 19.279 0.604916 23.7729 3.37666 26.5447L13.414 36.582C16.1858 39.3538 20.6796 39.3538 23.4514 36.582L28.2407 31.7928C24.2537 30.2545 21.4252 26.3859 21.4252 21.8565C21.4252 17.1467 24.4836 13.1512 28.7227 11.7477C28.6398 11.6605 28.5556 11.5742 28.4701 11.4887L23.4514 6.46992Z" fill="black"/>
<path opacity="0.7" d="M28.2407 31.7961C29.4293 32.2545 30.7209 32.5058 32.0711 32.5058C37.9508 32.5058 42.7173 27.7394 42.7173 21.8596C42.7173 15.9799 37.9508 11.2134 32.0711 11.2134C30.9013 11.2134 29.7757 11.4021 28.7228 11.7506C34.0125 17.3115 33.9284 26.1084 28.4704 31.5664L28.2407 31.7961Z" fill="black"/>
</g>
<g opacity="0.84">
<path d="M63.0519 29.5066L61.7584 25.8177H55.0752L53.7578 29.5066H50.0928L56.5604 12.3076H60.5367L66.9564 29.5066H63.0519ZM58.4528 16.284L56.1053 22.9193H60.7524L58.4528 16.284Z" fill="black"/>
<path d="M71.1597 29.5066H67.8062V12.3076H71.1597V29.5066Z" fill="black"/>
<path d="M85.9548 23.1109C85.9548 26.8956 83.7265 29.7461 80.2774 29.7461C78.7683 29.7461 77.4747 29.0994 76.5166 27.8538V34.1297H73.187V16.7151H76.2531V18.5835C77.2353 17.2182 78.6485 16.4756 80.2774 16.4756C83.7265 16.4756 85.9548 19.3501 85.9548 23.1109ZM82.5291 23.1109C82.5291 20.7155 81.1637 19.422 79.5348 19.422C77.9059 19.422 76.5406 20.6915 76.5406 23.1109C76.5406 25.5302 77.9059 26.7758 79.5348 26.7758C81.1637 26.7758 82.5291 25.5542 82.5291 23.1109Z" fill="black"/>
<path d="M90.4597 22.536V29.5066H87.1299V12.3076H90.4597V18.3919C91.3458 17.2182 92.4473 16.4756 94.1245 16.4756C96.6877 16.4756 98.4599 18.1524 98.4599 21.2425V29.5066H95.1547V22.3683C95.1547 20.476 94.4119 19.422 92.9026 19.422C91.5849 19.422 90.4597 20.476 90.4597 22.536Z" fill="black"/>
<path d="M107.99 29.5067V27.9256C107.15 29.1233 105.881 29.7462 104.132 29.7462C101.473 29.7462 99.7012 28.1891 99.7012 25.7937C99.7012 23.3025 101.713 21.9611 105.45 21.9611C106.168 21.9611 106.792 22.009 107.582 22.1048V21.3383C107.582 19.9011 106.767 19.0626 105.378 19.0626C103.941 19.0626 103.078 19.9011 102.959 21.3383H99.9641C100.156 18.3919 102.288 16.4756 105.378 16.4756C108.732 16.4756 110.695 18.3201 110.695 21.458V29.5067H107.99ZM102.839 25.6979C102.839 26.7758 103.605 27.4465 104.851 27.4465C106.552 27.4465 107.582 26.5124 107.582 25.0272V24.117C106.792 23.9972 106.24 23.9492 105.666 23.9492C103.773 23.9492 102.839 24.5481 102.839 25.6979Z" fill="black"/>
<path d="M124.755 29.5066L121.546 17.4817L118.335 29.5066H114.647L110.239 12.3076H113.784L116.563 23.9733L119.725 12.3076H123.438L126.504 24.0212L129.307 12.3076H132.876L128.444 29.5066H124.755Z" fill="black"/>
<path d="M140.343 29.5067V27.9256C139.504 29.1233 138.235 29.7462 136.486 29.7462C133.828 29.7462 132.055 28.1891 132.055 25.7937C132.055 23.3025 134.067 21.9611 137.804 21.9611C138.523 21.9611 139.145 22.009 139.935 22.1048V21.3383C139.935 19.9011 139.121 19.0626 137.732 19.0626C136.294 19.0626 135.432 19.9011 135.312 21.3383H132.318C132.509 18.3919 134.642 16.4756 137.732 16.4756C141.085 16.4756 143.049 18.3201 143.049 21.458V29.5067H140.343ZM135.192 25.6979C135.192 26.7758 135.959 27.4465 137.204 27.4465C138.906 27.4465 139.935 26.5124 139.935 25.0272V24.117C139.145 23.9972 138.594 23.9492 138.019 23.9492C136.127 23.9492 135.192 24.5481 135.192 25.6979Z" fill="black"/>
<path d="M156.037 16.7148L151.342 29.5063H147.701L142.983 16.7148H146.576L149.618 25.7216L152.684 16.7148H156.037Z" fill="black"/>
<path d="M161.654 29.7222C157.821 29.7222 155.257 27.0633 155.257 23.063C155.257 19.2543 157.917 16.4756 161.606 16.4756C165.654 16.4756 168.337 19.7573 167.738 23.9253H158.659C158.875 26.0093 159.881 27.1591 161.581 27.1591C163.043 27.1591 164.025 26.4405 164.408 25.1709H167.713C166.995 28.0693 164.768 29.7222 161.654 29.7222ZM161.534 18.9189C159.977 18.9189 158.994 19.925 158.707 21.8174H164.217C164.121 20.0448 163.114 18.9189 161.534 18.9189Z" fill="black"/>
</g>
</g>
</svg>
