<svg width="94" height="37" viewBox="0 0 94 37" fill="none" xmlns="http://www.w3.org/2000/svg">
<mask id="mask0_412_866" style="mask-type:luminance" maskUnits="userSpaceOnUse" x="0" y="0" width="94" height="37">
<path d="M93.2756 0H0.556641V37H93.2756V0Z" fill="white"/>
</mask>
<g mask="url(#mask0_412_866)">
<path d="M45.5479 23.7161C45.0376 24.2011 44.4467 24.604 43.7721 24.8868C43.1196 25.1696 42.3849 25.3102 41.6092 25.3102C41.2016 25.3102 40.8129 25.2692 40.4464 25.1886C40.0783 25.108 39.7117 24.9863 39.3642 24.8457C39.0166 24.6846 38.6911 24.5029 38.3846 24.3006C38.0781 24.0779 37.7921 23.8361 37.5488 23.5739L47.2006 19.8785L51.302 18.3033C51.0776 16.8892 50.5673 15.5574 49.7931 14.4057C48.0379 11.7814 45.0187 10.0641 41.6108 10.0641C36.2027 10.0641 31.7963 14.4246 31.7963 19.7758C31.7963 20.2813 31.8375 20.7648 31.918 21.2498C32.1424 22.6638 32.6527 23.9958 33.4284 25.1475C33.8771 25.7937 34.3874 26.3988 34.9783 26.9249C35.5708 27.4494 36.2027 27.9139 36.9168 28.2978C37.6104 28.6817 38.3656 28.9851 39.1604 29.1858C39.9566 29.388 40.7734 29.4875 41.6298 29.4875C42.9758 29.4875 44.2824 29.2253 45.4453 28.7197C46.6286 28.2346 47.6698 27.5079 48.5672 26.6405C49.4646 25.7526 50.1787 24.7225 50.6684 23.5518C50.8723 23.0668 51.035 22.5422 51.1582 22.0177H46.7092C46.4472 22.6593 46.0507 23.2374 45.5464 23.7129L45.5479 23.7161ZM41.6298 14.2271C43.2208 14.2271 44.6695 14.9128 45.6901 15.9634L36.0385 19.6588C36.1 16.6697 38.5884 14.2271 41.6298 14.2271ZM27.7866 21.3968L27.766 0H23.4971L23.5176 21.2957C23.5176 25.7905 26.54 28.9835 30.9527 29.309V25.1191C29.0947 24.8141 27.7866 23.3495 27.7866 21.3968Z" fill="black"/>
<path d="M27.7407 21.4378L27.7202 0.0410156H23.4512L23.4717 21.3367C23.4717 25.8316 26.4941 29.0245 30.9068 29.35V25.1601C29.0473 24.8551 27.7407 23.3906 27.7407 21.4378ZM72.9372 19.4345C72.7303 14.265 68.3586 10.1051 62.9916 10.1051C57.6247 10.1051 53.0272 14.4656 53.0272 19.8184C53.0272 25.1711 57.5015 29.5301 62.9916 29.5301C65.104 29.5301 67.0742 28.8839 68.6888 27.7732V29.3484H72.9768L72.9356 19.4739V19.4345H72.9372ZM62.9933 25.3718C59.865 25.3718 57.3167 22.8881 57.3167 19.8389C57.3167 16.7897 59.865 14.3076 62.9933 14.3076C66.1215 14.3076 68.6699 16.7913 68.6699 19.8389C68.6699 22.8866 66.1215 25.3718 62.9933 25.3718ZM84.1197 9.99608C79.0625 9.99608 74.9644 14.0707 74.9644 19.0964V29.4006H79.3171V19.0885C79.3171 16.4753 81.4483 14.3566 84.079 14.3566H84.1626C86.7918 14.3566 88.9245 16.4753 88.9245 19.0885V29.4006H93.2772V19.0964C93.2772 14.0707 89.179 9.99608 84.1212 9.99608H84.1197Z" fill="black"/>
<path fill-rule="evenodd" clip-rule="evenodd" d="M14.5547 10.9157L17.3448 7.36719L20.7306 9.99613L17.961 13.5193C19.3908 15.2178 20.2503 17.406 20.2503 19.7932C20.2503 25.1981 15.8423 29.5807 10.4043 29.5807C4.96618 29.5807 0.556641 25.1981 0.556641 19.7932C0.556641 14.3883 4.96618 10.0056 10.4043 10.0056C11.8878 10.0056 13.2939 10.3327 14.5563 10.9157H14.5547ZM10.4043 25.3766C7.3013 25.3766 4.78607 22.8772 4.78607 19.7932C4.78607 16.7092 7.3013 14.2098 10.4043 14.2098C13.5072 14.2098 16.0224 16.7092 16.0224 19.7932C16.0224 22.8772 13.5072 25.3766 10.4043 25.3766ZM20.3656 28.1651C20.1211 28.452 19.8644 28.7283 19.5962 28.993C19.3276 29.2585 19.048 29.5113 18.7572 29.7514C18.4674 29.9922 18.1669 30.22 17.8567 30.4339C17.5463 30.6495 17.2263 30.8509 16.8977 31.0374C16.5706 31.2251 16.2354 31.398 15.8928 31.5557C15.5516 31.7136 15.2024 31.8574 14.8454 31.9838C14.4899 32.1121 14.1288 32.2244 13.7631 32.3203C13.4013 32.4183 13.0316 32.4989 12.6572 32.5621C12.2875 32.6268 11.9131 32.6758 11.5339 32.7074C11.161 32.739 10.7834 32.7564 10.4026 32.7564C10.0219 32.7564 9.64429 32.739 9.27147 32.7074C8.8923 32.6758 8.51786 32.6268 8.14815 32.5621C7.77527 32.4989 7.40557 32.4183 7.04377 32.3203L5.93783 36.4186C6.41812 36.5466 6.90947 36.6556 7.40715 36.7409C7.89692 36.8262 8.3962 36.8926 8.90014 36.9337C9.89995 37.0198 10.9053 37.0198 11.9051 36.9337C12.4107 36.8926 12.9068 36.8279 13.3982 36.7409C13.8959 36.6556 14.3856 36.5466 14.8675 36.4186C15.3557 36.2906 15.836 36.1422 16.3052 35.9715C16.7792 35.8024 17.2437 35.6113 17.6971 35.4011C18.1537 35.1911 18.5992 34.9604 19.0337 34.7123C19.4682 34.4627 19.8932 34.1941 20.304 33.9066C20.7163 33.6206 21.1176 33.3189 21.5015 32.9981C21.8886 32.6774 22.26 32.3409 22.6138 31.9886C22.9709 31.6362 23.3105 31.2713 23.6344 30.8874C23.9599 30.5066 24.2664 30.1101 24.5555 29.7024L21.0608 27.2694C20.843 27.5771 20.6116 27.875 20.3672 28.162L20.3656 28.1651Z" fill="black"/>
</g>
</svg>
