<svg width="134" height="40" viewBox="0 0 134 40" fill="none" xmlns="http://www.w3.org/2000/svg">
<path d="M12.591 0C14.8499 2.07 16.7056 4.4049 18.027 7.0926C19.5231 10.134 20.1114 13.3005 19.5997 16.6256C19.5198 17.1438 19.4762 17.668 19.4283 18.1902C19.4166 18.3192 19.4529 18.4522 19.4667 18.5833C19.5252 18.5911 19.5837 18.599 19.6422 18.6069C19.8476 17.9813 20.0519 17.3567 20.2806 16.6611C20.42 16.8069 20.5158 16.8926 20.5956 16.9911C21.7266 18.398 22.8641 19.8 23.9739 21.2207C24.1356 21.4276 24.2271 21.7232 24.2367 21.9813C24.2697 22.8118 24.2484 23.6453 24.2484 24.531C23.493 24.531 22.8938 24.531 22.2023 24.531C21.2914 24.531 20.3806 24.5429 19.4699 24.5251C19.089 24.5172 18.8762 24.5754 18.8729 24.998C18.8697 25.4739 18.7751 25.9488 18.7102 26.5005H16.3012C14.9925 26.5005 15.0137 26.5005 14.9531 27.7271C14.7562 31.6453 14.5434 35.5636 14.3306 39.4808C14.3211 39.6542 14.2487 39.8256 14.2051 39.9971H13.9923C13.9551 39.7389 13.8944 39.4808 13.8848 39.2217C13.8273 37.7448 13.7912 36.268 13.7316 34.7911C13.506 29.1468 13.2741 23.5035 13.0421 17.8601C13.0378 17.7468 12.9985 17.6345 12.9751 17.5212C12.9293 17.5202 12.8825 17.5192 12.8367 17.5182C12.8112 17.6502 12.7708 17.7813 12.7633 17.9133C12.608 20.8158 12.4558 23.7182 12.3037 26.6207C12.176 29.064 12.0537 31.5084 11.91 33.9507C11.8973 34.1773 11.7504 34.3971 11.6653 34.6197C11.5898 34.3852 11.46 34.1527 11.4482 33.9153C11.3343 31.603 11.2418 29.2897 11.1354 26.9773C11.129 26.8414 11.0705 26.6 11.0109 26.5921C10.6641 26.5498 10.298 26.5192 9.96175 26.5852C9.85852 26.6049 9.78091 26.9389 9.77133 27.132C9.67984 28.9527 9.60848 30.7734 9.51807 32.5941C9.51171 32.734 9.40214 32.869 9.34143 33.0059C9.25629 32.867 9.1127 32.734 9.09354 32.5872C8.90302 31.1035 8.735 29.6177 8.55514 28.133C8.49239 27.6177 8.41575 27.1035 8.34019 26.5537C7.98273 26.5537 7.68371 26.5537 7.38469 26.5537C6.58818 26.555 6.14622 26.1846 6.05892 25.4424C5.9557 24.5616 5.9557 24.5665 4.98642 24.5606C3.37444 24.5507 1.76139 24.534 0.149414 24.5202C0.152536 23.6631 0.152535 22.7941 0.152535 21.933C0.152535 21.6719 0.249407 21.4128 0.449397 21.2286C0.46748 21.2118 0.484595 21.1951 0.500526 21.1764C1.23892 20.3586 1.96881 19.534 2.703 18.7133C3.27445 18.0749 3.85009 17.4404 4.47461 16.7478C4.7225 17.4246 4.93852 18.0138 5.15455 18.603L5.36305 18.5636C5.31418 17.932 5.27371 17.3005 5.21623 16.67C5.07372 15.0995 4.94175 13.533 5.22161 11.9606C6.0685 7.2138 8.61477 3.3271 12.2707 0H12.591ZM9.97875 9.3034C9.98198 10.4325 10.8726 11.4138 12.0707 11.6207C13.6592 11.8946 15.0967 10.7074 15.0893 9.268C15.0818 7.9882 13.9284 6.933 12.5346 6.932C11.1141 6.9301 9.97563 7.9882 9.97875 9.3034Z" fill="#212121"/>
<path d="M133.453 32.7396C133.474 33.1199 133.497 33.5042 133.517 33.8845C132.232 35.785 129.878 36.4293 127.661 35.4805C127.518 35.4194 127.361 35.2411 127.342 35.1032C127.297 34.7524 127.327 34.3938 127.327 34.0628C128.016 34.2815 128.645 34.5613 129.306 34.6667C129.864 34.7554 130.467 34.6884 131.036 34.6037C131.544 34.5278 131.878 34.1948 131.966 33.7051C132.049 33.2431 131.885 32.8293 131.472 32.584C131.002 32.3032 130.47 32.1071 129.965 31.8756C129.427 31.6293 128.848 31.4391 128.358 31.1278C127.01 30.2707 126.999 28.4313 128.347 27.5751C129.723 26.7002 131.234 26.6973 132.769 27.1702C132.882 27.2047 133.013 27.3643 133.024 27.4756C133.057 27.8116 133.036 28.1524 133.036 28.5712C132.159 28.1268 131.293 27.9357 130.376 28.0234C130.116 28.048 129.85 28.1042 129.612 28.1987C129.144 28.384 128.852 28.7209 128.851 29.2441C128.85 29.6943 129.138 30.1042 129.568 30.313C129.966 30.5051 130.39 30.6519 130.794 30.8352C131.379 31.1012 132.007 31.3199 132.523 31.6746C132.906 31.9386 133.151 32.3741 133.454 32.7396H133.453Z" fill="#212121"/>
<path d="M43.9906 6.87966V16.7496C43.9906 16.7496 42.5979 16.7496 42.6075 16.7496V4.77516C43.2022 4.77516 43.813 4.76046 44.4227 4.78896C44.5237 4.79396 44.6492 4.97226 44.7067 5.09346C46.1602 8.16926 47.6072 11.2491 49.0554 14.327C49.0894 14.3989 49.1405 14.4639 49.2033 14.5644C49.6885 13.5447 50.1503 12.5565 50.6259 11.5733C51.6597 9.43526 52.7081 7.30326 53.7328 5.16236C53.877 4.85996 54.0546 4.73776 54.4109 4.76046C54.85 4.78796 55.2935 4.76736 55.8016 4.76736V16.8491H54.4184V6.88746C54.3571 6.88256 54.3312 6.87766 54.3043 6.87276C53.6122 8.31606 52.9223 9.75946 52.2291 11.2018C51.3884 12.9536 50.545 14.7023 49.7087 16.456C49.6097 16.6639 49.5193 16.8048 49.2224 16.8048C48.9192 16.8048 48.7862 16.6915 48.6723 16.455C47.2785 13.5506 45.875 10.6501 44.478 7.74666C44.3365 7.45306 44.2226 7.14856 44.0971 6.84906C44.064 6.85996 44.0322 6.86976 43.9896 6.88066L43.9906 6.87966Z" fill="#212121"/>
<path d="M118.578 34.496V39.6733C118.129 39.6733 117.725 39.696 117.326 39.6566C117.234 39.6477 117.104 39.427 117.099 39.3009C117.076 38.6852 117.088 38.0684 117.088 37.4517C117.088 34.1512 117.088 27.699 117.195 27.699V27.093H118.578V28.4073C118.651 28.4231 118.69 28.4389 118.731 28.4556C118.828 28.361 118.933 28.2733 119.018 28.1709C120.706 26.162 124.108 26.4625 125.194 28.7886C126.062 30.6487 125.935 32.5315 124.778 34.299C123.525 36.2103 120.07 36.4014 118.913 34.6783C118.878 34.628 118.577 34.497 118.577 34.497L118.578 34.496ZM118.577 31.5118C118.592 31.5137 118.608 31.5147 118.624 31.5167C118.624 31.7462 118.619 31.9758 118.624 32.2054C118.657 33.4743 119.539 34.4852 120.809 34.7088C122.126 34.9403 123.344 34.3068 123.859 33.093C124.276 32.1068 124.355 31.0812 124.117 30.0477C123.816 28.7443 122.894 28.0063 121.596 27.9857C120.201 27.964 119.051 28.7778 118.753 30.0507C118.641 30.5265 118.632 31.0241 118.577 31.5118Z" fill="#212121"/>
<path d="M76.762 25.318C75.7492 24.7781 74.6642 24.5909 73.534 24.6855C73.0841 24.7229 72.618 24.8145 72.2047 24.9791C70.9507 25.4746 70.6762 26.9249 71.6816 27.7742C72.0809 28.1111 72.5717 28.3643 73.0442 28.6165C73.887 29.0668 74.7804 29.4402 75.5952 29.9288C77.1183 30.8421 77.6619 32.1032 77.2421 33.5456C76.9106 34.6825 76.014 35.2914 74.8708 35.5919C73.2778 36.0116 71.6869 35.8973 70.1133 35.4362C69.659 35.3032 69.4352 35.0884 69.4976 34.6254C69.5385 34.3229 69.5051 34.0116 69.5051 33.6264C69.7225 33.7347 69.8689 33.8077 70.0153 33.8796C71.307 34.515 72.6664 34.7978 74.1185 34.5278C74.8881 34.385 75.5188 34.0382 75.7438 33.2796C75.9763 32.4894 75.7589 31.782 75.0538 31.3042C74.3865 30.853 73.633 30.5111 72.9215 30.115C72.1799 29.7032 71.3802 29.3554 70.7139 28.8549C68.9616 27.5397 69.1671 25.1988 71.0938 24.1141C72.2962 23.4372 73.6298 23.3426 74.9957 23.4451C75.1012 23.453 75.2056 23.4717 75.3111 23.4884C77.1129 23.7732 76.8428 23.5722 76.7642 25.316L76.762 25.318Z" fill="#212121"/>
<path d="M90.3364 30.1782C90.5011 28.4954 89.3558 27.6215 87.5238 28.0442C86.8177 28.2068 86.1579 28.5408 85.4206 28.8186C85.4206 28.5201 85.3937 28.1683 85.4356 27.8245C85.4518 27.6964 85.6036 27.5408 85.7392 27.4747C87.005 26.8531 88.3451 26.6511 89.7454 26.9693C90.9155 27.2353 91.6603 28.0481 91.7453 29.2344C91.8272 30.3772 91.8196 31.527 91.8347 32.6738C91.8476 33.6225 91.8368 34.5713 91.8368 35.5654H90.3816V34.4698C90.3202 34.4481 90.3181 34.4481 90.2578 34.4265C90.1362 34.5526 90.0135 34.6777 89.8929 34.8048C88.9016 35.857 87.0233 36.1486 85.7263 35.4324C84.7339 34.8846 84.4422 34.0127 84.539 32.9821C84.623 32.0876 85.4583 31.1358 86.3861 30.8767C87.2343 30.6403 88.132 30.5319 89.0071 30.3693C89.4516 30.2866 89.9037 30.2403 90.3375 30.1792L90.3364 30.1782ZM90.4074 31.3772C90.345 31.3309 90.2826 31.2856 90.218 31.2393C89.1125 31.4422 87.992 31.594 86.9071 31.8679C86.1568 32.057 85.9017 32.5802 85.9512 33.3831C85.9878 34.0028 86.4055 34.4669 87.09 34.6511C88.3289 34.9851 89.6873 34.391 90.0985 33.2393C90.3084 32.6511 90.3106 31.9999 90.4064 31.3782L90.4074 31.3772Z" fill="#212121"/>
<path d="M51.8847 35.8464C48.8011 35.8681 47.1647 33.6947 47.3849 30.9873C47.4945 29.6464 47.9712 28.4681 49.2055 27.6375C50.7868 26.5745 54.0353 26.473 55.539 28.2612C56.8026 29.7636 57.047 33.4967 54.7263 35.0484C53.8706 35.6208 52.9212 35.8513 51.8847 35.8464ZM55.0546 31.3203C54.9825 30.9104 54.9373 30.4188 54.8027 29.9489C54.4723 28.7922 53.6015 28.1075 52.4283 28.0198C50.8729 27.9045 49.8066 28.4159 49.2448 29.5646C48.8076 30.4602 48.7734 31.4011 48.9437 32.3548C49.198 33.7745 50.3843 34.7173 51.9256 34.737C53.5283 34.7577 54.5864 33.9577 54.8975 32.472C54.9717 32.1203 54.9954 31.7607 55.0535 31.3193L55.0546 31.3203Z" fill="#212121"/>
<path d="M104.817 12.4241C104.833 13.831 104.454 15.1088 103.232 16.028C101.712 17.1719 99.9827 17.2763 98.2314 16.6014C96.5932 15.9689 95.857 14.6832 95.7655 13.096C95.7246 12.4004 95.759 11.6724 95.9388 11.0004C96.464 9.0438 98.1787 7.962 100.521 8.0093C103.274 8.0645 104.807 9.6408 104.817 12.4241ZM103.373 12.5886C103.315 12.1305 103.293 11.7029 103.204 11.2881C102.935 10.0211 102.003 9.232 100.683 9.1206C99.2335 8.9985 98.0818 9.5896 97.5533 10.7699C97.0819 11.8251 97.0679 12.9187 97.45 13.9926C97.8924 15.2359 98.9752 15.8812 100.427 15.8477C101.839 15.8152 102.769 15.1748 103.149 13.9167C103.282 13.4802 103.304 13.0142 103.373 12.5886Z" fill="#212121"/>
<path d="M86.3793 12.4473C86.3696 14.1764 85.8088 15.6759 84.0436 16.4975C82.443 17.2424 80.7778 17.2305 79.2386 16.3271C77.708 15.4296 77.2506 14.0059 77.2872 12.4158C77.3141 11.2424 77.6058 10.1399 78.5164 9.25706C79.7897 8.02266 82.0081 7.61576 83.8832 8.32316C85.6463 8.98816 86.2544 10.3665 86.3782 12.0059C86.389 12.1527 86.3793 12.2995 86.3793 12.4473ZM84.9779 12.5025C84.8788 11.9793 84.8358 11.4345 84.6679 10.9241C84.3213 9.86696 83.5172 9.24726 82.3267 9.13296C81.1223 9.01766 80.0319 9.29456 79.3915 10.3172C78.5131 11.7202 78.4722 13.198 79.3495 14.6148C80.047 15.7429 81.2353 15.9832 82.5269 15.8108C83.6765 15.6571 84.3902 14.9872 84.6991 13.9695C84.8412 13.5025 84.8842 13.0099 84.9779 12.5025Z" fill="#212121"/>
<path d="M112.938 34.3321C112.755 34.4936 112.67 34.5459 112.617 34.6188C111.674 35.9035 109.995 36.0148 108.677 35.5872C107.52 35.2119 106.957 34.3005 106.908 33.2493C106.814 31.2148 106.88 29.1735 106.88 27.0938H108.15V28.4828C108.084 29.6641 108.077 30.8454 108.088 32.0267C108.091 32.336 108.121 32.6493 108.182 32.9537C108.395 34.0375 108.979 34.5951 110.005 34.7281C111.073 34.8661 112.133 34.3557 112.552 33.4138C112.749 32.9715 112.857 32.467 112.87 31.9882C112.911 30.5124 112.884 29.0355 112.886 27.5587C112.886 27.4148 112.904 27.271 112.915 27.1922H114.322V35.5667H112.938V34.3321Z" fill="#212121"/>
<path d="M44.3147 27.095H46.4895C46.4895 27.3817 46.4768 27.6221 46.4927 27.8605C46.5108 28.1364 46.3852 28.2359 46.0915 28.229C45.517 28.2162 44.9424 28.225 44.3103 28.225V35.5679H43.0336V28.1787H41.4375V26.9965H42.9686C42.9686 26.4487 42.9399 25.8625 42.9739 25.2802C43.0708 23.6231 44.6115 22.5117 46.3884 22.7669C46.8033 22.826 46.9821 22.9639 46.9215 23.36C46.8896 23.5659 46.9161 23.7797 46.9161 23.9886C46.5469 23.9521 46.2331 23.897 45.9192 23.894C45.1158 23.8871 44.5859 24.2595 44.4711 24.9925C44.3668 25.6506 44.3147 27.095 44.3147 27.095Z" fill="#212121"/>
<path d="M88.0873 15.0776C89.1314 15.715 90.1776 15.9328 91.3089 15.8293C92.3433 15.7347 92.9762 15.0845 92.6371 14.3062C92.4735 13.9288 92.0344 13.5879 91.6296 13.3791C90.8923 12.9968 90.056 12.7791 89.3208 12.3958C87.6772 11.5387 87.6428 9.51802 89.253 8.60762C89.7094 8.34952 90.2551 8.12592 90.7761 8.08742C91.5758 8.02932 92.3917 8.13282 93.1979 8.19482C93.6285 8.22832 93.8599 8.44212 93.7835 8.88652C93.7426 9.11902 93.7759 9.36332 93.7759 9.52592C92.9353 9.38302 92.1517 9.21752 91.3573 9.13182C91.0441 9.09832 90.6932 9.21162 90.3843 9.31702C89.9214 9.47562 89.6265 9.79982 89.5781 10.2697C89.5285 10.7564 89.7417 11.1534 90.1948 11.3869C90.6394 11.6175 91.1281 11.7771 91.5887 11.983C92.1442 12.2313 92.7361 12.4362 93.2324 12.7643C94.5585 13.6401 94.5574 15.4264 93.2098 16.2727C91.6738 17.2382 90.0086 17.1653 88.3381 16.5791C88.2218 16.5387 88.112 16.3436 88.0991 16.2126C88.0668 15.8727 88.0873 15.5268 88.0873 15.0776Z" fill="#212121"/>
<path d="M111.236 8.24871V9.25851C110.855 9.25851 110.482 9.25851 110.108 9.25851C109.442 9.25851 109.109 9.58301 109.109 10.2319C109.109 12.2132 109.109 14.1955 109.109 16.1768C109.109 16.3551 109.109 16.5344 109.109 16.7462H107.62C107.62 16.5334 107.62 16.3413 107.62 16.1492C107.62 14.0319 107.61 11.9147 107.628 9.79841C107.632 9.41121 107.514 9.25951 107.079 9.29891C106.742 9.32951 106.401 9.3048 106.023 9.3048V8.24771C106.369 8.24771 106.69 8.22411 107.004 8.25361C107.463 8.29601 107.666 8.1669 107.622 7.7068C107.581 7.295 107.605 6.8753 107.623 6.46051C107.7 4.68321 109.436 3.46641 111.292 3.90091C111.427 3.93241 111.584 4.12651 111.609 4.26351C111.658 4.53641 111.624 4.8221 111.624 5.1354C111.351 5.0782 111.13 5.0201 110.904 4.9876C110.053 4.8654 109.31 5.27431 109.162 6.04571C109.042 6.67821 109.053 7.3344 109.051 7.9797C109.051 8.0684 109.301 8.22901 109.442 8.23591C110.028 8.26541 110.615 8.24771 111.238 8.24771L111.236 8.24871Z" fill="#212121"/>
<path d="M102.618 27.0937H104.959V28.1774H102.779C102.779 28.1774 102.676 28.2956 102.675 28.3203C102.67 30.0415 102.634 31.7646 102.677 33.4848C102.702 34.4631 103.437 34.9045 104.466 34.6631C104.618 34.6277 104.769 34.5853 104.996 34.5262C104.996 34.808 105.031 35.0671 104.982 35.3114C104.954 35.4533 104.814 35.6513 104.682 35.6868C103.92 35.8897 103.139 35.9331 102.401 35.6099C101.403 35.1725 101.22 34.3085 101.201 33.4178C101.168 31.8927 101.191 30.3676 101.234 28.8424V28.1774H99.6377V26.9952H101.191C101.191 26.4671 101.207 25.9134 101.184 25.3617C101.173 25.069 101.259 24.9065 101.586 24.8415C101.924 24.7735 102.253 24.6602 102.617 24.5469V27.0927L102.618 27.0937Z" fill="#212121"/>
<path d="M83.3797 34.5192C83.4916 35.6709 83.3937 35.7724 82.1957 35.7872C80.3927 35.8088 79.5467 35.0404 79.5295 33.329C79.5133 31.8197 79.5273 30.3093 79.5295 28.8C79.5295 28.6207 79.5295 28.4798 79.5295 28.2216C79.1237 28.2216 78.748 28.2019 78.3767 28.2276C77.9892 28.2542 77.8482 28.1231 77.8912 27.7793C77.9171 27.5724 77.8955 27.3596 77.8955 27.0965H79.5295C79.5295 26.5172 79.5607 25.9882 79.5166 25.464C79.4897 25.1497 79.7297 24.868 80.0644 24.8118C80.3658 24.7606 80.6543 24.6581 81.0192 24.5586V26.999H83.2537V28.1813H81.0192C81.0192 28.7822 81.0192 29.3192 81.0192 29.8561C81.0192 30.8571 81.0181 31.8581 81.0192 32.8591C81.0224 34.5221 81.5983 34.9359 83.3808 34.5221L83.3797 34.5192Z" fill="#212121"/>
<path d="M114.682 9.26042C114.682 9.73822 114.682 10.1638 114.682 10.5894C114.683 11.7313 114.67 12.8742 114.689 14.016C114.706 15.1333 115.672 15.8131 116.813 15.4485C116.859 15.4338 116.91 15.4298 117.023 15.4081C117.023 15.6958 117.056 15.9658 117.009 16.2239C116.986 16.3431 116.827 16.4879 116.693 16.5362C114.877 17.1835 113.261 16.221 113.235 14.4663C113.212 12.886 113.216 11.3047 113.237 9.72342C113.241 9.44262 112.997 9.22592 112.696 9.25152C112.365 9.28012 112.028 9.25742 111.66 9.25742V8.19242C111.889 8.19242 112.095 8.19442 112.301 8.19242C113.442 8.18252 113.169 8.31262 113.218 7.12242C113.227 6.89882 113.232 6.67422 113.209 6.45152C113.182 6.16582 113.273 6.01112 113.577 5.94312C113.912 5.86922 114.237 5.75492 114.64 5.63672V8.17562H116.981V9.25942H114.68L114.682 9.26042Z" fill="#212121"/>
<path d="M69.5543 9.60286C68.7965 9.43136 68.1077 9.17326 67.4069 9.13876C66.0087 9.06886 65.0012 9.71416 64.4308 10.8925C63.9464 11.8925 63.9259 12.9378 64.3005 13.9664C64.9291 15.6915 67.0377 16.3743 68.9085 15.4876C69.0904 15.4009 69.2691 15.3073 69.4381 15.2236C69.4811 15.2679 69.5026 15.2787 69.5037 15.2915C69.6027 16.4452 69.4951 16.5841 68.2809 16.859C64.9377 17.6186 62.2005 15.329 62.6052 12.1487C62.7936 10.6669 63.3695 9.41566 64.7935 8.62546C66.153 7.86986 67.6114 7.86396 69.1033 8.24326C69.452 8.33186 69.5974 8.50626 69.5608 8.84416C69.5328 9.11616 69.5543 9.39296 69.5543 9.60286Z" fill="#212121"/>
<path d="M76.6368 9.48788C76.3688 9.42578 76.1611 9.35778 75.948 9.33118C74.8673 9.19918 74.0137 9.57258 73.5993 10.481C73.3485 11.0278 73.1892 11.6396 73.1601 12.2288C73.0956 13.5667 73.1386 14.9095 73.1365 16.2504C73.1365 16.409 73.1365 16.5687 73.1365 16.748H71.6543V8.27508H73.144V9.77948C73.5498 9.33808 73.8878 8.89478 74.3097 8.53018C74.8135 8.09568 75.4743 8.01988 76.1578 8.08098C76.512 8.11248 76.6777 8.25038 76.6422 8.58638C76.6121 8.87308 76.6358 9.16368 76.6358 9.48688L76.6368 9.48788Z" fill="#212121"/>
<path d="M63.4367 28.3035C61.4863 27.8838 60.2571 28.806 60.1935 30.7252C60.1483 32.1291 60.1785 33.5341 60.1763 34.939C60.1763 35.1321 60.1763 35.3262 60.1763 35.5666H58.7803V27.0937H60.1634V28.5626C60.2172 28.5764 60.2118 28.5754 60.2678 28.5892C60.3765 28.4188 60.4852 28.2474 60.5961 28.0779C61.1601 27.2129 61.9696 26.8286 63.0513 26.941C63.329 26.9695 63.456 27.0582 63.441 27.3331C63.4237 27.6405 63.4367 27.9518 63.4367 28.3035Z" fill="#212121"/>
<path d="M95.8876 35.5654H94.5303V27.0925H95.9134V28.5289C95.9877 28.5476 95.9801 28.5457 96.0544 28.5654C96.1362 28.4383 96.2234 28.3131 96.3009 28.1841C96.8563 27.258 97.6937 26.8304 98.853 26.9329C99.1759 26.9614 99.3438 27.0462 99.3147 27.3752C99.29 27.6659 99.3094 27.9604 99.3094 28.2629C99.2362 28.2747 99.1824 28.3003 99.1436 28.2865C97.6496 27.7486 96.5259 28.5575 96.1244 29.8728C95.9909 30.3072 95.9349 30.7723 95.9263 31.2245C95.9005 32.5634 95.9177 33.9033 95.9156 35.2422C95.9156 35.3368 95.8994 35.4304 95.8876 35.5654Z" fill="#212121"/>
<path d="M60.269 16.7502H58.9922V8.27734H60.269V16.7502Z" fill="#212121"/>
<path d="M31.2211 3.76172V36.1479C30.8826 35.7647 30.8815 4.15482 31.2211 3.76172Z" fill="#212121"/>
<path d="M59.6694 4.21094C60.1656 4.21784 60.6123 4.64054 60.6069 5.09864C60.6016 5.58534 60.1452 5.97554 59.5984 5.96074C59.0688 5.94594 58.7071 5.57654 58.7201 5.06124C58.7319 4.57654 59.1485 4.20304 59.6694 4.21094Z" fill="#212121"/>
</svg>
