<svg width="65" height="28" viewBox="0 0 65 28" fill="none" xmlns="http://www.w3.org/2000/svg">
<mask id="mask0_412_833" style="mask-type:luminance" maskUnits="userSpaceOnUse" x="0" y="0" width="65" height="28">
<path d="M64.4987 0.35498H0.492188V27.8847H64.4987V0.35498Z" fill="white"/>
</mask>
<g mask="url(#mask0_412_833)">
<path d="M47.6184 8.37262H43.7181V7.4949C43.7181 6.60259 43.5124 5.84195 43.0857 5.19837C42.6589 4.55472 41.9521 4.2329 40.9666 4.2329C40.4366 4.2329 39.9948 4.33531 39.6417 4.54006C39.3031 4.74488 39.0236 5.00821 38.8323 5.31537C38.641 5.63719 38.5081 6.00286 38.4345 6.41243C38.3615 6.83666 38.3168 7.2609 38.3168 7.72897C38.3168 8.25555 38.3319 8.70903 38.376 9.07477C38.42 9.44043 38.5081 9.76225 38.6554 10.0256C38.8027 10.2888 39.0381 10.5229 39.3175 10.7277C39.6121 10.9325 40.0099 11.1373 40.5247 11.342L43.5124 12.5269C44.3809 12.8633 45.0871 13.2437 45.617 13.6826C46.147 14.1214 46.5737 14.648 46.8531 15.2477C47.1477 15.8475 47.339 16.5203 47.4422 17.2956C47.5448 18.0709 47.5888 18.9486 47.5888 19.9433C47.5888 21.0843 47.4712 22.1375 47.2509 23.1176C47.0148 24.0976 46.6473 24.9314 46.1174 25.6189C45.5874 26.3211 44.8957 26.8623 44.0272 27.2719C43.1593 27.6814 42.0994 27.8863 40.8482 27.8863C39.9067 27.8863 39.0236 27.7254 38.2143 27.3889C37.4049 27.0671 36.6981 26.6136 36.1096 26.0431C35.5205 25.4727 35.0642 24.7998 34.7111 24.0099C34.3725 23.22 34.1963 22.3715 34.1963 21.4646V20.0164H38.0966V21.2305C38.0966 21.9473 38.3024 22.5763 38.7291 23.1468C39.1558 23.7173 39.8626 23.9952 40.8482 23.9952C41.511 23.9952 42.0258 23.9075 42.394 23.7173C42.7615 23.5271 43.0416 23.2638 43.2329 22.9127C43.4243 22.5763 43.542 22.1521 43.6005 21.6401C43.6445 21.1281 43.6741 20.5723 43.6741 19.9726C43.6741 19.2704 43.6445 18.6853 43.6005 18.2319C43.5564 17.7784 43.4387 17.4126 43.277 17.1347C43.1153 16.8568 42.8792 16.6227 42.5853 16.4472C42.2907 16.2717 41.9081 16.0815 41.4222 15.8767L38.6258 14.7358C36.9486 14.0482 35.815 13.1413 35.241 12.0149C34.667 10.8886 34.3876 9.46968 34.3876 7.77288C34.3876 6.7635 34.5198 5.7981 34.8143 4.89114C35.0938 3.98424 35.506 3.19434 36.0504 2.53603C36.5948 1.8778 37.2865 1.35122 38.1406 0.956239C38.9796 0.561256 39.9652 0.371094 41.0842 0.371094C42.0554 0.371094 42.9384 0.546666 43.7478 0.897739C44.5571 1.24881 45.2344 1.71689 45.8083 2.30203C46.3823 2.88711 46.8235 3.53075 47.1332 4.26215C47.4422 4.97889 47.5888 5.72494 47.5888 6.48559V8.37262H47.6184Z" fill="#212121"/>
<path d="M58.9208 27.6506H55.4769L49.9434 0.588867H54.0639L57.1548 19.4735H57.2284L60.3778 0.588867H64.5135L58.9208 27.6506Z" fill="#212121"/>
<path d="M30.1039 4.08419C29.8982 3.63077 29.6476 3.2212 29.3682 2.85547L26.7777 8.53114V21.2721C26.7777 22.2082 26.5127 22.8958 25.9979 23.3492C25.4679 23.7881 24.8499 24.0075 24.1431 24.0075C23.4225 24.0075 22.8037 23.7881 22.2889 23.3492C21.7591 22.9104 21.5089 22.2082 21.5089 21.2721V20.0579L19.0068 25.5288C19.2129 25.7921 19.4484 26.0261 19.6986 26.2455C20.3167 26.7868 21.0232 27.1963 21.8032 27.4743C22.5835 27.7522 23.3633 27.8985 24.1582 27.8985C24.9524 27.8985 25.7329 27.7522 26.5127 27.4743C27.2932 27.1963 27.9848 26.7868 28.6173 26.2455C29.2354 25.7043 29.7509 25.0168 30.1335 24.1977C30.5162 23.3785 30.7075 22.3984 30.7075 21.2867V6.98053C30.6779 5.88347 30.4866 4.918 30.1039 4.08419Z" fill="#212121"/>
<path d="M13.8705 8.39209H9.97029V7.51444C9.97029 6.62214 9.7643 5.86149 9.33745 5.21784C8.91067 4.5742 8.20418 4.25237 7.21813 4.25237C6.68832 4.25237 6.24675 4.35478 5.89354 4.55961C5.55506 4.76436 5.27542 5.02768 5.08409 5.33484C4.89276 5.65667 4.76027 6.0224 4.6867 6.43197C4.61312 6.85621 4.56894 7.28037 4.56894 7.74845C4.56894 8.27509 4.58367 8.72857 4.62786 9.09424C4.67197 9.45997 4.76027 9.78179 4.90749 10.045C5.05464 10.3084 5.29015 10.5424 5.56979 10.7472C5.86408 10.952 6.26147 11.1568 6.77662 11.3616L9.7643 12.5465C10.6326 12.8682 11.3391 13.2632 11.8689 13.702C12.3987 14.1409 12.8108 14.6675 13.1052 15.2526C13.3995 15.8524 13.5909 16.5399 13.6938 17.3005C13.7969 18.0758 13.8411 18.9535 13.8411 19.9482C13.8411 21.0892 13.7233 22.1424 13.5026 23.1224C13.2671 24.1025 12.8991 24.9363 12.3693 25.6238C11.8394 26.3259 11.1477 26.8672 10.2794 27.2767C9.41102 27.6863 8.3514 27.8911 7.10038 27.8911C6.15845 27.8911 5.27542 27.7302 4.46591 27.3938C3.65646 27.072 2.95005 26.6185 2.36132 26.048C1.7726 25.4775 1.31636 24.8046 0.963151 24.0148C0.668788 23.2249 0.492188 22.3764 0.492188 21.4548V20.0067H4.39234V21.2208C4.39234 21.923 4.5984 22.5665 5.02518 23.137C5.45203 23.7075 6.15845 23.9855 7.14456 23.9855C7.80686 23.9855 8.32194 23.8831 8.68988 23.7075C9.05781 23.5174 9.33745 23.2541 9.52878 22.903C9.72011 22.5665 9.83787 22.1424 9.89672 21.6304C9.9409 21.1184 9.97029 20.5625 9.97029 19.9628C9.97029 19.2606 9.9409 18.6756 9.89672 18.2074C9.83787 17.754 9.73484 17.3883 9.57297 17.1104C9.41102 16.8324 9.17558 16.5984 8.88121 16.4229C8.58685 16.2473 8.20418 16.0571 7.71849 15.8524L4.92215 14.7113C3.24434 14.0531 2.11115 13.1462 1.53715 12.0198C0.963156 10.8935 0.68352 9.47456 0.68352 7.77777C0.68352 6.76839 0.830668 5.80299 1.1103 4.89602C1.38994 3.98912 1.80205 3.19922 2.34659 2.54092C2.89113 1.88268 3.58289 1.35611 4.43652 0.961122C5.27543 0.566139 6.26147 0.375977 7.38001 0.375977C8.3514 0.375977 9.23442 0.551549 10.0439 0.902622C10.8534 1.2537 11.5304 1.72177 12.1043 2.30691C12.6783 2.89199 13.1199 3.53563 13.4289 4.26703C13.738 4.98377 13.8852 5.72983 13.8852 6.49047V8.39209H13.8705Z" fill="#212121"/>
<path d="M21.4939 6.98147C21.4939 6.04525 21.7588 5.35776 22.2739 4.90428C22.8035 4.46545 23.4222 4.24604 24.1283 4.24604C24.2316 4.24604 24.3341 4.24604 24.4374 4.26063L26.1002 0.647552C25.4532 0.45739 24.8056 0.35498 24.1428 0.35498C23.3486 0.35498 22.5681 0.501234 21.7882 0.779216C21.0082 1.05713 20.3018 1.4667 19.6836 2.00794C19.0655 2.54917 18.5503 3.23666 18.1677 4.08513C17.7851 4.91887 17.5938 5.88434 17.5938 6.98147V21.2729C17.5938 22.3847 17.7851 23.3647 18.1677 24.1839C18.4032 24.6813 18.6681 25.1201 18.9919 25.5297L21.4939 20.0588V6.98147Z" fill="#212121"/>
</g>
</svg>
