<svg width="162" height="41" viewBox="0 0 162 41" fill="none" xmlns="http://www.w3.org/2000/svg">
<g clip-path="url(#clip0_412_215)">
<mask id="mask0_412_215" style="mask-type:luminance" maskUnits="userSpaceOnUse" x="0" y="0" width="162" height="41">
<path d="M161.824 0H0.535156V41H161.824V0Z" fill="white"/>
</mask>
<g mask="url(#mask0_412_215)">
<g opacity="0.84">
<path d="M21.9124 6.00729C19.2378 3.33871 14.9014 3.33871 12.2267 6.00729L2.54112 15.6711C-0.133497 18.3397 -0.133497 22.6663 2.54112 25.3349L12.2267 34.9987C14.9014 37.6673 19.2378 37.6673 21.9124 34.9987L26.5339 30.3877C22.6865 28.9067 19.9572 25.1821 19.9572 20.8212C19.9572 16.2867 22.9084 12.4399 26.999 11.0886C26.919 11.0047 26.8378 10.9216 26.7552 10.8392L21.9124 6.00729Z" fill="black"/>
<path opacity="0.7" d="M26.5342 30.3909C27.6811 30.8322 28.9274 31.0742 30.2303 31.0742C35.904 31.0742 40.5035 26.4852 40.5035 20.8242C40.5035 15.1634 35.904 10.5742 30.2303 10.5742C29.1015 10.5742 28.0154 10.7559 26.9994 11.0914C32.1037 16.4454 32.0225 24.9149 26.7558 30.1698L26.5342 30.3909Z" fill="black"/>
</g>
<g opacity="0.84">
<path d="M60.1252 28.1868L58.877 24.6352H52.428L51.1567 28.1868H47.6201L53.8611 11.6279H57.6981L63.8928 28.1868H60.1252ZM55.6872 15.4563L53.4219 21.8447H57.9062L55.6872 15.4563Z" fill="black"/>
<path d="M67.9489 28.1868H64.7129V11.6279H67.9489V28.1868Z" fill="black"/>
<path d="M82.2256 22.029C82.2256 25.6728 80.0754 28.4172 76.7472 28.4172C75.291 28.4172 74.0428 27.7946 73.1182 26.5953V32.6377H69.9053V15.8712H72.8639V17.6701C73.8117 16.3556 75.1754 15.6406 76.7472 15.6406C80.0754 15.6406 82.2256 18.4081 82.2256 22.029ZM78.92 22.029C78.92 19.7227 77.6024 18.4774 76.0306 18.4774C74.4588 18.4774 73.1413 19.6996 73.1413 22.029C73.1413 24.3582 74.4588 25.5575 76.0306 25.5575C77.6024 25.5575 78.92 24.3813 78.92 22.029Z" fill="black"/>
<path d="M86.5725 21.4757V28.1868H83.3594V11.6279H86.5725V17.4858C87.4276 16.3558 88.4904 15.6408 90.1089 15.6408C92.5823 15.6408 94.2924 17.2552 94.2924 20.2303V28.1868H91.103V21.3142C91.103 19.4923 90.3862 18.4775 88.9298 18.4775C87.6583 18.4775 86.5725 19.4923 86.5725 21.4757Z" fill="black"/>
<path d="M103.488 28.1867V26.6645C102.678 27.8176 101.453 28.4173 99.7662 28.4173C97.2003 28.4173 95.4902 26.9182 95.4902 24.612C95.4902 22.2135 97.4319 20.922 101.038 20.922C101.731 20.922 102.332 20.9681 103.095 21.0604V20.3224C103.095 18.9386 102.308 18.1314 100.968 18.1314C99.5813 18.1314 98.7492 18.9386 98.6338 20.3224H95.7439C95.9288 17.4856 97.9866 15.6406 100.968 15.6406C104.204 15.6406 106.099 17.4165 106.099 20.4376V28.1867H103.488ZM98.5177 24.5197C98.5177 25.5575 99.2573 26.2032 100.459 26.2032C102.101 26.2032 103.095 25.3039 103.095 23.874V22.9976C102.332 22.8822 101.8 22.8361 101.246 22.8361C99.4193 22.8361 98.5177 23.4127 98.5177 24.5197Z" fill="black"/>
<path d="M119.666 28.1868L116.569 16.6094L113.472 28.1868H109.912L105.659 11.6279H109.08L111.761 22.8594L114.813 11.6279H118.396L121.354 22.9055L124.058 11.6279H127.503L123.226 28.1868H119.666Z" fill="black"/>
<path d="M134.708 28.1867V26.6645C133.898 27.8176 132.674 28.4173 130.986 28.4173C128.421 28.4173 126.71 26.9182 126.71 24.612C126.71 22.2135 128.652 20.922 132.257 20.922C132.951 20.922 133.552 20.9681 134.314 21.0604V20.3224C134.314 18.9386 133.528 18.1314 132.188 18.1314C130.801 18.1314 129.969 18.9386 129.854 20.3224H126.964C127.149 17.4856 129.206 15.6406 132.188 15.6406C135.424 15.6406 137.319 17.4165 137.319 20.4376V28.1867H134.708ZM129.737 24.5197C129.737 25.5575 130.477 26.2032 131.679 26.2032C133.321 26.2032 134.314 25.3039 134.314 23.874V22.9976C133.552 22.8822 133.02 22.8361 132.465 22.8361C130.64 22.8361 129.737 23.4127 129.737 24.5197Z" fill="black"/>
<path d="M149.852 15.8711L145.322 28.1865H141.808L137.256 15.8711H140.723L143.658 24.5426L146.616 15.8711H149.852Z" fill="black"/>
<path d="M155.272 28.3942C151.574 28.3942 149.1 25.8342 149.1 21.9828C149.1 18.3159 151.666 15.6406 155.226 15.6406C159.132 15.6406 161.721 18.8002 161.143 22.8131H152.382C152.591 24.8195 153.561 25.9265 155.202 25.9265C156.612 25.9265 157.56 25.2346 157.93 24.0123H161.119C160.426 26.8029 158.277 28.3942 155.272 28.3942ZM155.156 17.993C153.654 17.993 152.705 18.9616 152.428 20.7836H157.745C157.652 19.077 156.681 17.993 155.156 17.993Z" fill="black"/>
</g>
</g>
</g>
<defs>
<clipPath id="clip0_412_215">
<rect width="162" height="41" fill="white"/>
</clipPath>
</defs>
</svg>
