<svg width="110" height="48" viewBox="0 0 110 48" fill="none" xmlns="http://www.w3.org/2000/svg">
<path fill-rule="evenodd" clip-rule="evenodd" d="M54.5417 45.5412C30.486 48.9921 9.5678 42.1941 7.85954 30.3063C6.15128 18.4524 24.2803 6.04109 48.336 2.55452C69.2542 -0.443535 87.7667 4.26279 93.3794 13.327C87.9756 3.07745 67.4059 -2.36133 44.0826 0.985751C17.9702 4.75069 -1.72821 18.1034 0.12014 30.8287C1.93286 43.5189 24.5943 50.7704 50.7067 47.0049C61.3403 45.5062 70.8924 42.3686 78.3529 38.3591C71.7638 41.6718 63.5709 44.2152 54.5417 45.5412ZM91.1482 32.6414C90.2769 32.6414 89.7189 32.014 89.7189 31.2121C89.7189 30.0624 90.6953 29.1554 91.7756 29.1554C92.6469 29.1554 93.2405 29.7828 93.2405 30.5847C93.2399 31.7 92.2297 32.6414 91.1482 32.6414Z" fill="#1F3044" fill-opacity="0.6"/>
<path fill-rule="evenodd" clip-rule="evenodd" d="M35.855 32.9564H32.8913L33.1353 31.4577C32.7168 32.0506 31.392 33.236 29.7188 33.236C27.7315 33.236 26.7551 32.2596 26.7551 30.6558C26.7551 30.3774 26.7902 30.064 26.8596 29.75L28.08 22.8113H31.0436L29.9627 28.8086C29.8933 29.1226 29.8933 29.4004 29.8933 29.645C29.8933 30.7608 30.3462 31.4577 31.2875 31.4577C32.5079 31.4577 33.2748 30.6558 33.6582 28.6341L34.669 22.8113H37.6327L35.855 32.9564ZM44.9892 25.3921H44.3969C44.4319 24.4157 43.595 23.6132 42.688 23.6132C41.6428 23.6132 40.8403 24.2412 40.8403 25.0431C40.8403 25.81 41.7817 26.1234 42.7581 26.508C43.9084 26.9253 45.0937 27.5527 45.0937 29.1921C45.0937 31.4233 43.2454 33.236 40.3173 33.236C39.376 33.236 37.9817 32.9564 37.3887 32.3985L38.0862 30.3768H38.6091C38.8186 31.4227 39.6205 32.1539 40.8059 32.1539C42.0262 32.1539 42.723 31.2826 42.723 30.6902C42.723 30.0628 42.1307 29.7138 41.3638 29.3998C40.1434 28.8418 38.5747 28.3195 38.5747 26.5068C38.5747 24.3451 40.4224 22.5317 42.8631 22.5317C44.1179 22.5317 45.2338 22.8807 45.8268 23.5081L44.9892 25.3921ZM49.5567 21.2075C48.7198 21.2075 48.1274 20.5795 48.1274 19.7782C48.1274 18.6974 49.1382 17.791 50.1497 17.791C50.986 17.791 51.5789 18.3834 51.5789 19.1859C51.5783 20.2661 50.6025 21.2075 49.5567 21.2075ZM48.9637 32.9564H46.0001L47.7778 22.8113H50.7414L48.9637 32.9564ZM61.3056 26.7858L60.1897 32.9564H57.226L58.2719 27.2048C58.3075 26.7864 58.3413 26.3673 58.3413 26.0195C58.3413 25.0075 57.9579 24.3463 56.9827 24.3463C55.6923 24.3463 54.8904 25.6705 54.6458 27.2048L53.6 32.9564H50.6363L52.4491 22.8113H55.4121L55.1337 24.3801C55.4822 23.8221 56.877 22.5323 58.7254 22.5323C60.7114 22.5323 61.4438 23.5087 61.4438 25.217C61.4445 25.6705 61.375 26.1928 61.3056 26.7858ZM69.3596 25.3209C69.3596 25.7749 69.2545 26.2973 69.1851 26.7858H65.9775C66.2915 25.1125 67.0233 23.5087 68.2787 23.5087C69.08 23.5087 69.3596 24.3106 69.3596 25.3209ZM72.1487 26.0889C72.1487 23.8578 71.2061 22.5323 68.4526 22.5323C64.8616 22.5323 62.4909 25.3209 62.4909 28.9819C62.4909 31.5271 63.8864 33.2704 66.9539 33.2704C68.2087 33.2704 69.08 32.9564 70.2653 32.329L70.9622 31.1087L70.7532 30.8997C70.0564 31.4233 68.9405 31.8761 67.9991 31.8761C66.5342 31.8761 65.6284 31.1087 65.6284 29.331C65.6284 28.9125 65.6979 28.4596 65.7673 27.9711H71.973C72.078 27.2743 72.1487 26.6469 72.1487 26.0889ZM80.027 25.3921H79.4352C79.4352 24.4157 78.6333 23.6132 77.7264 23.6132C76.6805 23.6132 75.878 24.2412 75.878 25.0431C75.878 25.81 76.8206 26.1234 77.7958 26.508C78.9117 26.9253 80.132 27.5527 80.132 29.1921C80.132 31.4233 78.2837 33.236 75.3557 33.236C74.3793 33.236 73.0206 32.9564 72.4271 32.3985L73.0901 30.3768H73.648C73.857 31.4227 74.6589 32.1539 75.8086 32.1539C77.0645 32.1539 77.7614 31.2826 77.7614 30.6902C77.7614 30.0628 77.134 29.7138 76.4015 29.3998C75.1812 28.8418 73.578 28.3195 73.578 26.5068C73.578 24.3451 75.4251 22.5317 77.9003 22.5317C79.155 22.5317 80.2709 22.8807 80.8639 23.5081L80.027 25.3921ZM88.4638 25.3921H87.8721C87.9065 24.4157 87.1046 23.6132 86.1632 23.6132C85.1524 23.6132 84.3148 24.2412 84.3148 25.0431C84.3148 25.81 85.2562 26.1234 86.2326 26.508C87.3836 26.9253 88.5689 27.5527 88.5689 29.1921C88.5689 31.4233 86.7205 33.236 83.7925 33.236C82.8511 33.236 81.4563 32.9564 80.8639 32.3985L81.5607 30.3768H82.0831C82.2932 31.4227 83.0951 32.1539 84.2804 32.1539C85.5352 32.1539 86.1982 31.2826 86.1982 30.6902C86.1982 30.0628 85.6052 29.7138 84.8384 29.3998C83.618 28.8418 82.0492 28.3195 82.0492 26.5068C82.0492 24.3451 83.8976 22.5317 86.3377 22.5317C87.5925 22.5317 88.7084 22.8807 89.3358 23.5081L88.4638 25.3921ZM98.2255 21.2075C97.3541 21.2075 96.7962 20.5795 96.7962 19.7782C96.7962 18.6974 97.7726 17.791 98.7834 17.791C99.6548 17.791 100.213 18.3834 100.213 19.1859C100.213 20.2661 99.2363 21.2075 98.2255 21.2075ZM97.5981 32.9564H94.6695L96.4466 22.8113H99.4102L97.5981 32.9564ZM106.732 25.3209C106.732 25.7749 106.663 26.2973 106.593 26.7858H103.386C103.7 25.1125 104.397 23.5087 105.687 23.5087C106.488 23.5087 106.732 24.3106 106.732 25.3209ZM109.556 26.0889C109.556 23.8578 108.615 22.5323 105.861 22.5323C102.27 22.5323 99.8993 25.3209 99.8993 28.9819C99.8993 31.5271 101.259 33.2704 104.362 33.2704C105.582 33.2704 106.488 32.9564 107.674 32.329L108.371 31.1087L108.162 30.8997C107.465 31.4233 106.349 31.8761 105.408 31.8761C103.943 31.8761 103.037 31.1087 103.037 29.331C103.037 28.9125 103.071 28.4596 103.176 27.9711H109.346C109.486 27.2743 109.556 26.6469 109.556 26.0889ZM22.5373 22.5323C21.108 22.5323 19.9577 23.2642 19.3297 24.2762L20.6201 16.8496H17.6565L14.8323 32.9564H17.7954L17.8998 32.5035C18.4228 32.9564 19.1552 33.236 20.0616 33.236C23.8615 33.236 25.9532 29.5399 25.9532 26.3329C25.9889 23.9966 24.6991 22.5323 22.5373 22.5323ZM19.8182 32.2596C18.7724 32.2596 18.4584 31.3182 18.4584 30.1335C18.4584 27.5533 19.3297 23.9278 21.422 23.9278C22.4679 23.9278 22.8169 24.7991 22.8513 25.9507C22.8513 28.4596 21.7004 32.2596 19.8182 32.2596Z" fill="#676869"/>
</svg>
