<svg width="115" height="30" viewBox="0 0 115 30" fill="none" xmlns="http://www.w3.org/2000/svg">
<path d="M0.906128 16.7751C3.03427 15.2991 4.9908 13.6286 6.85578 11.8323C9.29286 9.48674 11.5583 7.0039 13.4805 4.22358C13.5034 4.18926 13.5263 4.16637 13.572 4.12061C13.9496 4.64692 14.3157 5.15035 14.7048 5.65379C16.3066 7.77049 18.1144 9.71557 20.0137 11.5691C21.9016 13.4112 23.8924 15.1389 26.0778 16.6378C26.2837 16.7751 26.1922 16.8208 26.0549 16.9238C21.7871 19.9444 18.1144 23.6057 14.8649 27.6904C14.4187 28.251 14.0183 28.8346 13.5835 29.4295C13.2517 28.9719 12.9427 28.5256 12.6109 28.0909C9.33862 23.8689 5.58576 20.116 1.23794 17.0039C1.1464 16.9353 1.06631 16.8323 0.929011 16.8323C0.906128 16.8208 0.906128 16.798 0.906128 16.7751Z" fill="#676869"/>
<path d="M70.9859 0C71.0202 0.0915332 71.1232 0.0686501 71.1919 0.102975C71.9928 0.411899 72.4161 1.17849 72.2559 2.01373C72.0957 2.83753 71.3978 3.38673 70.5397 3.36385C69.7273 3.34096 69.0637 2.746 68.9378 1.91076C68.812 1.13272 69.3154 0.34325 70.1049 0.0800921C70.1621 0.0572088 70.2308 0.0800922 70.2536 0.0114423C70.4939 6.98172e-07 70.7342 0 70.9859 0ZM84.796 29.9771C84.201 29.7826 83.6861 29.4851 83.3886 28.8902C82.8623 27.8375 83.3314 26.5561 84.407 26.1098C85.5397 25.6407 86.844 26.2128 87.1987 27.3112C87.5763 28.4783 86.9241 29.6339 85.7342 29.9313C85.6999 29.9428 85.6655 29.9657 85.6312 29.9771H84.796ZM85.2308 29.1876C85.8944 29.1991 86.3864 28.6957 86.3978 27.9977C86.4092 27.3112 85.8944 26.7506 85.2422 26.7506C84.5786 26.7391 84.0866 27.2426 84.0751 27.9405C84.0637 28.6384 84.5671 29.1876 85.2308 29.1876ZM92.8509 29.9771C92.8394 29.9085 92.7708 29.9199 92.7365 29.9085C92.1072 29.6682 91.8326 29.2677 91.8898 28.6156C91.9356 28.0664 92.3475 27.6659 92.9653 27.5629C93.4001 27.4828 93.8349 27.4943 94.2468 27.6087C94.4985 27.6773 94.5214 27.5744 94.487 27.3799C94.4298 27.0481 94.1438 26.8192 93.7433 26.7849C93.3772 26.7506 93.0111 26.7963 92.6793 26.9336C92.4848 27.0137 92.4275 26.9565 92.3703 26.7849C92.1987 26.2586 92.1873 26.2586 92.7365 26.1098C93.2742 25.9611 93.812 25.9268 94.3497 26.0641C95.0019 26.2357 95.3566 26.7162 95.3909 27.4943C95.4138 28.238 95.3909 28.9817 95.4024 29.7368C95.4024 29.8741 95.3566 29.9428 95.2079 29.9313C95.1163 29.9199 95.0248 29.9313 94.9333 29.9313C94.6701 29.9313 94.3383 30.0114 94.5214 29.4737C94.2353 29.7712 93.9264 29.8627 93.6404 30C93.3658 29.9771 93.1026 29.9771 92.8509 29.9771ZM93.6976 28.0892C93.4573 28.0892 93.2285 28.1236 93.0225 28.2494C92.6793 28.4554 92.6564 28.9474 92.9653 29.1762C93.3886 29.4851 94.1896 29.3021 94.4298 28.833C94.6243 28.4554 94.5214 28.2265 94.1209 28.1465C93.9836 28.1236 93.8349 28.1121 93.6976 28.0892ZM102.839 29.9771C102.519 29.8284 102.176 29.714 101.901 29.4622C101.249 28.8444 101.066 27.849 101.466 27.0481C101.89 26.2128 102.862 25.778 103.823 25.9954C104.67 26.1899 105.322 26.9336 105.379 27.7803C105.437 28.7643 104.899 29.5652 103.995 29.8856C103.915 29.9085 103.812 29.897 103.755 29.9771H102.839ZM102.164 27.9634C102.164 28.6728 102.668 29.1991 103.331 29.1876C103.995 29.1876 104.476 28.6728 104.476 27.9748C104.476 27.2769 103.972 26.7506 103.297 26.7506C102.633 26.7506 102.164 27.254 102.164 27.9634ZM59.4756 29.9771L59.0637 29.8055C58.0912 29.3593 57.6678 28.1465 58.1255 27.0938C58.5488 26.1213 59.6243 25.6865 60.5969 26.087C61.3177 26.3844 61.8555 27.4142 61.7067 28.1579C61.6724 28.341 61.5465 28.2723 61.4436 28.2723C60.6655 28.2723 59.8875 28.2838 59.1095 28.2723C58.8806 28.2723 58.8349 28.3181 58.915 28.5355C59.1896 29.2449 60.0591 29.4622 60.7456 28.9817C60.8372 28.913 60.9173 28.7414 61.0317 28.8215C61.2033 28.9245 61.352 29.0732 61.4779 29.222C61.5465 29.3021 61.4207 29.3593 61.3749 29.4165C61.1232 29.7025 60.7571 29.8169 60.4253 29.9771H59.4756ZM59.8417 27.6888C60.0935 27.6888 60.3452 27.6773 60.5969 27.6888C60.7685 27.7002 60.8257 27.6659 60.7685 27.4714C60.6312 26.968 60.2994 26.6934 59.8189 26.7048C59.3612 26.7162 59.0065 27.0366 58.8806 27.5057C58.8349 27.6773 58.9035 27.6888 59.0408 27.6888C59.3154 27.6773 59.5786 27.6888 59.8417 27.6888ZM44.3383 29.9771C43.5374 29.7025 43.3086 29.0732 43.3086 28.2952C43.32 27.6316 43.32 26.968 43.3086 26.3043C43.3086 26.0984 43.3429 26.0183 43.5717 26.0297C44.2239 26.0297 44.2353 26.0183 44.2353 26.6934V28.238C44.2468 28.8215 44.5214 29.1419 45.0134 29.1533C45.5511 29.1648 45.8829 28.8558 45.9058 28.2723C45.9287 27.6087 45.9173 26.9451 45.9058 26.2815C45.9058 26.0984 45.9516 26.0412 46.1346 26.0412C46.8211 26.0412 46.8211 26.0297 46.8211 26.7048C46.8211 27.6888 46.8097 28.6842 46.8211 29.6682C46.8211 29.8856 46.7639 29.9657 46.5465 29.9313H46.455C45.9287 29.9313 45.9287 29.9314 45.8715 29.3936C45.6541 29.6911 45.3566 29.8513 45.0591 30C44.8189 29.9771 44.5786 29.9771 44.3383 29.9771ZM63.4687 29.9771C63.1369 29.8169 62.7708 29.7483 62.4619 29.5423C62.3131 29.4394 62.2445 29.3478 62.3818 29.1991L62.4504 29.0961C62.5763 28.8444 62.7021 28.7643 62.9653 28.9588C63.2742 29.1762 63.6404 29.2792 64.0294 29.2449C64.2468 29.222 64.4527 29.1648 64.5099 28.9016C64.5557 28.6384 64.3612 28.5355 64.1781 28.4668C63.8806 28.3524 63.5603 28.2723 63.2628 28.1579C62.6564 27.9291 62.3818 27.5286 62.4619 26.9908C62.542 26.4188 62.9882 26.0183 63.606 25.9611C64.1209 25.9153 64.6015 26.0297 65.0706 26.2586C65.2422 26.3501 65.2994 26.4416 65.1735 26.6018C65.1507 26.6247 65.1392 26.6476 65.1278 26.6819C65.0362 26.9908 64.8646 27.0481 64.5786 26.8764C64.304 26.7048 63.9836 26.6362 63.6518 26.7048C63.4802 26.7391 63.3543 26.8192 63.32 27.0023C63.2857 27.1854 63.4001 27.2998 63.5488 27.357C63.7662 27.46 63.9951 27.5286 64.2239 27.6087C64.3841 27.6659 64.5443 27.7231 64.7044 27.7918C65.2308 28.0435 65.4253 28.3638 65.3795 28.8902C65.3337 29.3707 65.0248 29.7254 64.5328 29.8856C64.4527 29.9085 64.3497 29.8741 64.2811 29.9657C63.9951 29.9771 63.7319 29.9771 63.4687 29.9771ZM67.1072 29.9771C66.7754 29.8513 66.4207 29.7712 66.1118 29.5767C65.9058 29.4508 65.8143 29.3478 66.0088 29.1419C66.0546 29.0961 66.0889 29.0275 66.1232 28.9703C66.2033 28.7986 66.2834 28.7872 66.4436 28.8902C66.7754 29.1076 67.1415 29.2563 67.542 29.2449C67.6564 29.2449 67.7594 29.222 67.8623 29.1762C67.9996 29.119 68.0912 29.016 68.0912 28.8558C68.0912 28.7071 68.0225 28.6041 67.8967 28.5355C67.6106 28.3753 67.2903 28.3181 66.9813 28.2151C66.5694 28.0664 66.169 27.8833 66.0546 27.3913C65.9058 26.6934 66.352 26.0641 67.0957 25.9725C67.6449 25.9039 68.1598 26.0183 68.6404 26.27C68.812 26.3616 68.8349 26.4531 68.7205 26.5904C68.709 26.6018 68.709 26.6133 68.709 26.6133C68.4916 27.0137 68.4916 27.0137 68.0912 26.8307C67.8051 26.7048 67.5191 26.6247 67.2102 26.6819C67.0385 26.7162 66.9012 26.7963 66.8669 26.968C66.8211 27.1625 66.947 27.2654 67.1072 27.3455C67.2674 27.4256 67.439 27.4828 67.6106 27.54C67.828 27.6201 68.0454 27.6888 68.2628 27.7803C68.6861 27.9748 68.9493 28.2952 68.9264 28.7986C68.9035 29.3135 68.6404 29.6453 68.1827 29.8398C68.0797 29.8856 67.9653 29.8627 67.8852 29.9542C67.6335 29.9771 67.3703 29.9771 67.1072 29.9771ZM48.812 29.9771C48.4802 29.8398 48.1255 29.7597 47.8166 29.5652C47.6335 29.4508 47.5305 29.3478 47.7136 29.1533C47.725 29.1419 47.725 29.1419 47.725 29.1304C47.9424 28.7872 47.9424 28.7872 48.3086 28.9817C48.6289 29.1533 48.9493 29.2677 49.3154 29.2449C49.5557 29.222 49.7731 29.1533 49.8074 28.8902C49.8417 28.6384 49.6472 28.5355 49.4527 28.4668C49.1552 28.3638 48.8578 28.2723 48.5717 28.1693C47.9424 27.9405 47.7022 27.5858 47.7708 26.9908C47.8166 26.476 48.2399 26.0641 48.8234 25.984C49.3841 25.9039 49.8989 26.0297 50.4024 26.2929C50.5511 26.373 50.5626 26.4416 50.4825 26.5904C50.2422 27.0137 50.2536 27.0137 49.796 26.8421C49.5214 26.7277 49.2468 26.659 48.9379 26.7048C48.7662 26.7391 48.6289 26.8192 48.606 27.0023C48.5832 27.1854 48.6861 27.2998 48.8234 27.357C49.0408 27.4485 49.2697 27.5286 49.4985 27.6087C49.6587 27.6659 49.8189 27.7231 49.979 27.7918C50.4825 28.032 50.6999 28.3753 50.6541 28.8558C50.6083 29.3707 50.288 29.7483 49.7845 29.897C49.7044 29.9199 49.6015 29.8856 49.5328 29.9657C49.304 29.9771 49.0523 29.9771 48.812 29.9771ZM89.1552 29.9771C89.1095 29.5767 88.8921 29.2449 88.7548 28.8787C88.4115 28.0092 88.0568 27.1396 87.6907 26.2815C87.6106 26.087 87.6221 26.0297 87.8509 26.0297C88.5603 26.0297 88.5603 26.0183 88.8005 26.6934C89.0523 27.3799 89.304 28.0664 89.5786 28.833C89.7845 28.2723 89.979 27.7689 90.1621 27.2654C90.288 26.9108 90.4253 26.5675 90.5397 26.2128C90.5854 26.0755 90.6541 26.0183 90.8028 26.0297C91.0431 26.0412 91.2834 26.0297 91.5694 26.0297C91.2262 26.8764 90.9058 27.6888 90.574 28.4897C90.368 28.9931 90.2079 29.508 89.9333 29.9771H89.1552ZM97.3932 29.9771C96.7067 29.6911 96.558 29.4622 96.558 28.6957V27.0366C96.558 26.8764 96.5237 26.7849 96.3406 26.8078C96.1003 26.8421 96.0317 26.7391 96.066 26.5217C96.0774 26.4416 96.0774 26.3616 96.066 26.2815C96.0431 26.1098 96.0889 26.0069 96.2948 26.0412C96.5122 26.0755 96.5809 25.9725 96.558 25.7666C96.5465 25.6865 96.5465 25.6064 96.558 25.5263C96.5694 25.3432 96.4664 25.0801 96.6037 25.0114C96.8211 24.8856 97.1186 24.9657 97.3703 24.9771C97.4962 24.9771 97.4619 25.0915 97.4619 25.1602C97.4619 25.3776 97.4733 25.5835 97.4619 25.8009C97.4504 25.984 97.4962 26.0641 97.6907 26.0412C97.8051 26.0297 97.931 26.0297 98.0568 26.0412C98.1941 26.0526 98.423 25.9497 98.4687 26.0984C98.5374 26.2929 98.4916 26.5217 98.4802 26.7277C98.4802 26.8192 98.3772 26.8078 98.3086 26.8078C98.1026 26.8078 97.9081 26.8192 97.7021 26.8078C97.4962 26.7849 97.4504 26.8764 97.4504 27.0709C97.4619 27.5629 97.4504 28.0549 97.4504 28.5583C97.4504 29.0847 97.6564 29.2677 98.1713 29.1304C98.4344 29.0618 98.4916 29.1076 98.4802 29.3707C98.4573 29.8055 98.4802 29.8055 97.931 29.9886C97.7479 29.9771 97.5648 29.9771 97.3932 29.9771ZM114.464 7.26545C114.281 7.27689 114.201 7.20824 114.212 7.00229C114.224 6.57895 114.212 6.15561 114.212 5.67506C114.006 5.98398 113.949 6.29291 113.835 6.56751C113.778 6.71625 113.732 6.87643 113.663 7.01373C113.617 7.10526 113.629 7.24256 113.469 7.24256C113.309 7.24256 113.297 7.11671 113.263 7.02517C113.103 6.59039 112.942 6.16705 112.714 5.73227C112.714 6.13272 112.725 6.53318 112.714 6.93364C112.714 7.03661 112.817 7.24256 112.588 7.23112C112.37 7.21968 112.473 7.02517 112.473 6.9222C112.462 6.45309 112.462 5.97254 112.473 5.50343C112.473 5.40046 112.382 5.25172 112.588 5.21739C112.782 5.18307 112.874 5.26316 112.942 5.44622C113.08 5.85812 113.24 6.25858 113.389 6.65904C113.412 6.71625 113.434 6.76201 113.48 6.85355C113.652 6.40732 113.823 6.00687 113.949 5.58352C114.041 5.30892 114.167 5.14874 114.476 5.19451C114.464 5.89245 114.464 6.57895 114.464 7.26545ZM45.1392 22.4256C40.2079 22.4371 36.3063 18.6156 36.3177 13.5469C36.3177 8.50115 40.2193 4.61098 45.2193 4.61098C50.3795 4.61098 54.1095 8.67277 54.098 13.4897C54.0866 18.5126 50.1621 22.4256 45.1392 22.4256ZM45.2079 20.1259C46.9127 20.1144 48.4001 19.5423 49.6129 18.3066C50.7342 17.1625 51.3177 15.778 51.4436 14.1991C51.6152 12.1053 51.0431 10.2403 49.5671 8.71853C48.2742 7.37986 46.661 6.75057 44.796 6.87643C42.9653 6.99085 41.4436 7.71167 40.3337 9.21053C39.1552 10.8009 38.7319 12.5973 39.0294 14.5195C39.3841 16.8192 40.5397 18.5927 42.725 19.5881C43.5031 19.9657 44.3383 20.1259 45.2079 20.1259ZM83.9493 22.4256C78.812 22.46 75.1049 18.3982 75.1049 13.6384C75.1049 8.53547 78.9836 4.59954 84.0179 4.61098C89.0179 4.62243 92.8852 8.51259 92.8852 13.5469C92.8738 18.5355 88.8005 22.46 83.9493 22.4256ZM84.1438 20.1259C84.8303 20.1602 85.6541 20 86.4436 19.6453C88.8234 18.5698 90.0134 16.6476 90.2307 14.1076C90.4024 12.151 89.8532 10.3776 88.5259 8.92449C86.9584 7.20824 84.9905 6.59039 82.7136 6.99085C81.2147 7.254 79.9676 8.03204 79.0751 9.24485C77.8623 10.881 77.4962 12.7574 77.8166 14.7712C78.2971 17.6201 80.7456 20.1602 84.1438 20.1259ZM95.4024 15.8924C95.4024 14.2449 95.3681 12.5973 95.4138 10.9611C95.4481 9.51945 95.8372 8.18078 96.7067 7.00229C97.5648 5.83524 98.7205 5.11442 100.116 4.81693C101.661 4.48513 103.228 4.46224 104.773 4.81693C107.313 5.4119 108.766 7.09382 109.315 9.61098C109.453 10.2288 109.498 10.8467 109.498 11.476V20.8581C109.498 21.8192 108.64 22.4371 107.771 22.1053C107.279 21.9222 107.016 21.5561 106.958 21.0412C106.947 20.9153 106.947 20.778 106.947 20.6522C106.947 17.7231 106.958 14.7941 106.947 11.8764C106.936 10.6865 106.672 9.55378 105.929 8.58124C104.773 7.07094 102.553 6.52174 100.677 7.28833C99.1324 7.91762 98.3543 9.15332 98.0568 10.7323C97.9653 11.2128 97.9424 11.6934 97.9424 12.1739V20.8009C97.9424 21.5217 97.5648 22.0366 96.947 22.1625C96.1118 22.3341 95.3909 21.7506 95.3909 20.881C95.3795 19.2105 95.3909 17.5515 95.3909 15.881C95.3909 15.8924 95.3909 15.8924 95.4024 15.8924Z" fill="#676869"/>
<path d="M24.3725 7.9751C24.9102 8.76457 25.4823 9.50828 26.0887 10.2291C28.1253 12.609 30.3565 14.7943 32.9308 16.6021C33.1025 16.728 33.1826 16.7737 32.9423 16.9453C31.4205 17.998 30.0361 19.2222 28.7089 20.5037C28.3427 20.8584 27.9537 21.2016 27.6105 21.5907C26.535 22.7691 25.4938 23.9591 24.5784 25.2749C24.5098 25.3664 24.4411 25.4694 24.361 25.5838C23.6974 24.6112 22.988 23.7074 22.2215 22.8492C22.0498 22.6547 22.2329 22.5746 22.313 22.4831C23.1025 21.6593 23.9148 20.8698 24.7615 20.1032C26.0544 18.9248 27.4045 17.8035 28.8919 16.7852C28.6517 16.6135 28.4343 16.4648 28.2169 16.3046C26.0659 14.7486 24.1208 12.9408 22.2672 11.0415C22.1757 10.9385 22.0842 10.8698 22.21 10.7211C22.9995 9.85153 23.7203 8.94764 24.3725 7.9751Z" fill="#676869"/>
<path d="M59.4529 9.11817C59.9106 8.1113 60.517 7.27606 61.2836 6.54379C62.3248 5.54837 63.5262 4.87332 64.9907 4.73602C65.62 4.67881 66.112 4.8962 66.3637 5.36531C66.6154 5.83441 66.5582 6.47515 66.215 6.8756C65.9861 7.13876 65.6886 7.27606 65.3454 7.32183C64.1211 7.49345 62.977 7.85958 62.0044 8.64906C60.9976 9.47286 60.3225 10.5255 59.8992 11.7497C59.5101 12.8596 59.3843 14.0037 59.3843 15.1708V20.8687C59.3843 21.4637 59.0639 21.9328 58.549 22.1159C58.0342 22.2989 57.485 22.1502 57.1188 21.7383C56.8786 21.4637 56.8214 21.1319 56.8214 20.7772C56.8214 16.3035 56.8328 11.8298 56.8328 7.36759V6.12045C56.8442 5.37675 57.382 4.80467 58.0914 4.79322C58.8122 4.78178 59.3728 5.35386 59.3728 6.12045V8.75203C59.3843 8.86645 59.35 8.96942 59.4529 9.11817ZM71.8442 13.5346V20.823C71.8442 21.5896 71.4323 22.0816 70.7458 22.1731C70.0021 22.2646 69.3614 21.7497 69.3042 21.006C69.2928 20.9259 69.2927 20.8459 69.2927 20.7658V6.21199C69.2927 5.49116 69.6932 4.95341 70.3111 4.83899C71.112 4.69025 71.8214 5.23945 71.8328 6.06325C71.8442 6.85272 71.8328 7.64219 71.8328 8.42023C71.8328 10.125 71.8328 11.8298 71.8442 13.5346ZM41.5239 27.2189C41.6268 27.2761 41.7184 27.3218 41.7985 27.3676C42.2333 27.5964 42.4621 27.9511 42.4621 28.466C42.4621 28.9923 42.2561 29.3813 41.7985 29.633C41.4209 29.839 41.0204 29.8962 40.6085 29.9076C39.8877 29.9191 39.1555 29.9076 38.4346 29.9191C38.2401 29.9191 38.1944 29.8504 38.2058 29.6788C38.2172 28.1113 38.2172 26.5552 38.2058 24.9877C38.2058 24.8161 38.2516 24.7703 38.4232 24.7703C39.1669 24.7818 39.9106 24.7703 40.6658 24.7818C40.9404 24.7818 41.2035 24.8504 41.4552 24.9648C42.3477 25.3882 42.4735 26.5209 41.6841 27.1159C41.6383 27.1388 41.5925 27.1731 41.5239 27.2189ZM40.0593 29.0724C40.3683 29.0495 40.7344 29.1296 41.0891 29.0037C41.398 28.9008 41.5582 28.6719 41.5582 28.3745C41.5582 28.0541 41.3751 27.871 41.0891 27.7795C40.9632 27.7452 40.8374 27.7108 40.7001 27.7108C40.2424 27.6994 39.7733 27.7108 39.3156 27.6994C39.1669 27.6994 39.0982 27.7452 39.0982 27.9053C39.1097 28.2257 39.1097 28.5461 39.0982 28.8664C39.0868 29.0381 39.1669 29.0724 39.3156 29.061C39.5445 29.0724 39.7733 29.0724 40.0593 29.0724ZM39.922 25.6056V25.5941H39.3156C39.1669 25.5941 39.0868 25.6285 39.0982 25.7886C39.1097 26.0976 39.0982 26.4065 39.0982 26.7269C39.0982 26.8184 39.0982 26.9099 39.2355 26.9099C39.7275 26.8985 40.2195 26.9671 40.7115 26.8756C41.0891 26.807 41.2836 26.5324 41.2607 26.2005C41.2378 25.8802 41.0204 25.6628 40.6429 25.617C40.4026 25.5941 40.1623 25.6056 39.922 25.6056ZM107.176 26.5324C107.485 26.212 107.76 26.0175 108.126 25.9603C108.995 25.8344 109.693 26.3493 109.728 27.2189C109.762 28.0541 109.739 28.8893 109.739 29.736C109.739 29.7703 109.75 29.8161 109.728 29.8275C109.499 30.0221 109.236 29.8733 108.984 29.9076C108.812 29.9305 108.824 29.8047 108.824 29.6902V27.871C108.824 27.7452 108.824 27.6308 108.812 27.5049C108.755 27.0472 108.48 26.7726 108.046 26.7612C107.588 26.7497 107.256 27.0243 107.187 27.482C107.176 27.5964 107.165 27.6994 107.165 27.8138V29.2326C107.165 29.9648 107.165 29.9648 106.421 29.9076C106.295 29.8962 106.238 29.8619 106.238 29.736V26.1891C106.238 25.9603 106.398 25.9946 106.512 26.0289C106.73 26.0861 107.016 25.8459 107.165 26.1777C107.199 26.2578 107.176 26.3607 107.176 26.5324ZM75.2653 26.5324C75.517 26.2578 75.7573 26.0518 76.0891 25.9832C77.0387 25.7658 77.771 26.3264 77.8168 27.3218C77.8511 28.1227 77.8282 28.9122 77.8282 29.7131C77.8282 29.8504 77.7939 29.9076 77.6452 29.9191C76.9243 29.9648 76.9243 29.9763 76.9243 29.2669C76.9243 28.7177 76.9472 28.1571 76.9129 27.6079C76.8671 26.8985 76.2493 26.5667 75.6772 26.8985C75.3568 27.0815 75.2539 27.3905 75.2539 27.7452C75.2539 28.3745 75.2424 28.9923 75.2539 29.6216C75.2539 29.8504 75.2195 29.942 74.9678 29.9305C74.3385 29.9191 74.3385 29.9305 74.3385 29.2898V26.2921C74.3385 26.0976 74.3728 26.006 74.5902 26.0404C74.6474 26.0518 74.7161 26.0404 74.7733 26.0404C75.2081 26.0289 75.2081 26.0289 75.2653 26.5324ZM79.7962 26.5209C80.0136 26.2692 80.2653 26.0632 80.5857 25.9832C81.5353 25.7543 82.279 26.3035 82.3362 27.3218C82.382 28.1113 82.3477 28.9122 82.3477 29.7131C82.3477 29.8504 82.3133 29.9076 82.1646 29.9191C81.4552 29.9648 81.4552 29.9763 81.4552 29.244C81.4552 28.6719 81.501 28.0999 81.4323 27.5278C81.3637 27.0015 81.0777 26.7612 80.5971 26.7726C80.1394 26.7955 79.7962 27.1273 79.7847 27.6193C79.7733 28.2944 79.7733 28.9694 79.7847 29.6445C79.7847 29.8504 79.7275 29.9191 79.5216 29.9191C78.8694 29.9076 78.8694 29.9191 78.8694 29.2783C78.8694 28.2944 78.8809 27.2989 78.858 26.315C78.858 26.0632 78.9381 25.9946 79.1669 26.0289H79.2241C79.7275 26.0289 79.7275 26.0289 79.7962 26.5209ZM54.5674 26.5438C54.8992 26.1319 55.2882 25.9259 55.7687 25.9374C56.5239 25.9488 57.0731 26.4294 57.096 27.1845C57.1303 28.0312 57.1074 28.8779 57.1188 29.7246C57.1188 29.7932 57.1303 29.8962 57.0387 29.8962C56.787 29.9076 56.5353 29.9076 56.2836 29.8962C56.1577 29.8848 56.2035 29.7475 56.2035 29.6674C56.2035 28.9694 56.2149 28.2715 56.1921 27.585C56.1806 26.9443 55.5971 26.5781 55.025 26.8413C54.7047 26.99 54.5559 27.2532 54.5445 27.585C54.533 28.2486 54.5216 28.9122 54.533 29.5758C54.533 29.8161 54.4873 29.9076 54.2241 29.9076C53.6291 29.8848 53.6291 29.9076 53.6291 29.3012V26.2806C53.6291 26.0976 53.6635 25.9946 53.8809 26.0289C53.9381 26.0404 54.0067 26.0289 54.0639 26.0289C54.5216 26.0289 54.5216 26.0289 54.5674 26.5438ZM73.0914 27.3561C73.0914 28.1113 73.0799 28.8664 73.0914 29.6216C73.0914 29.839 73.0571 29.9191 72.8168 29.9191C72.1761 29.9076 72.176 29.9191 72.176 29.2669V25.0678C72.176 24.8504 72.2104 24.7589 72.4621 24.7589C73.0914 24.7818 73.0914 24.7589 73.0914 25.3882V27.3561ZM52.5079 27.9854C52.5079 28.5461 52.4964 29.1182 52.5079 29.6788C52.5079 29.8504 52.4735 29.9191 52.279 29.9191C51.5925 29.9305 51.5925 29.9305 51.5925 29.2555C51.5925 28.2715 51.604 27.2875 51.5925 26.2921C51.5925 26.0861 51.6383 26.0175 51.8557 26.0175C52.5079 26.0289 52.5079 26.0175 52.5079 26.6811V27.9854ZM99.4301 27.9511C99.4301 27.3905 99.4415 26.8184 99.4301 26.2578C99.4301 26.0747 99.4758 26.0175 99.6703 26.0175C100.334 26.0175 100.334 26.006 100.334 26.6696V29.633C100.334 29.839 100.277 29.9076 100.059 29.9076C99.4301 29.9076 99.4301 29.9076 99.4301 29.2783V27.9511ZM111.284 6.34929V5.98315C111.284 5.49116 111.284 5.49116 110.792 5.45684C110.712 5.4454 110.62 5.46828 110.62 5.34242C110.62 5.20512 110.723 5.21656 110.814 5.21656H112.05C112.142 5.21656 112.233 5.20512 112.233 5.34242C112.233 5.46828 112.142 5.4454 112.062 5.4454C111.57 5.47972 111.57 5.47972 111.57 5.97171V7.02434C111.57 7.12732 111.593 7.23029 111.432 7.23029C111.272 7.23029 111.295 7.12732 111.295 7.02434C111.284 6.8184 111.284 6.57812 111.284 6.34929ZM52.0845 24.5873C52.5536 24.5873 52.5536 24.5873 52.5536 25.0335C52.5536 25.4454 52.5536 25.4454 52.0845 25.4454C51.5696 25.4454 51.5925 25.4454 51.5696 24.9534C51.5582 24.6559 51.6383 24.5186 51.9472 24.5873C51.9815 24.5987 52.0273 24.5873 52.0845 24.5873ZM99.8877 25.4454C99.3843 25.4454 99.3843 25.4454 99.3843 24.9648C99.3843 24.5873 99.3843 24.5873 99.8305 24.5873C100.357 24.5873 100.357 24.5873 100.357 25.0678C100.357 25.4454 100.357 25.4454 99.8877 25.4454Z" fill="#676869"/>
</svg>
