<svg width="112" height="36" viewBox="0 0 112 36" fill="none" xmlns="http://www.w3.org/2000/svg">
<path d="M53.3948 22.2651L52.1574 28.4469C51.6124 30.9529 50.1025 32.6262 47.0184 32.6262C43.4789 32.6262 42.5445 30.4307 43.3215 27.3415C44.4201 22.9591 47.9951 21.654 53.3948 22.2651ZM58.9697 13.4274L55.206 13.6669L54.016 19.7201C52.5772 19.6693 52.1244 19.6236 50.4326 19.6236C45.1369 19.6236 40.515 21.8495 39.2937 27.0715C38.1934 31.7798 40.8679 35.4335 46.7001 35.4335C52.6746 35.4335 55.2737 32.3164 56.2081 27.934L58.9697 13.4274ZM18.1433 22.5291C12.625 22.0264 7.87781 22.4843 7.80079 24.3581C7.68146 27.1714 16.8957 24.717 16.718 29.8924C16.459 37.4961 3.64603 35.7467 0.475586 34.7793L1.05111 32.5221C6.51772 33.3896 12.2848 33.4615 12.4109 30.4468C12.5463 27.2425 3.29395 30.1226 3.51062 24.9336C3.67227 21.0683 9.45542 18.9838 18.9211 20.3743L18.1433 22.5291ZM33.0222 27.7012C32.2258 30.875 29.7087 32.8682 26.7118 32.8682C23.5777 32.8682 22.1677 31.0519 23.0081 27.7012C23.8054 24.5274 26.3512 22.3971 29.3473 22.3971C32.3417 22.3971 33.8186 24.5274 33.0222 27.7012ZM29.8306 19.7988C24.3428 19.7988 19.9316 22.9726 18.8466 27.7012C17.759 32.4323 20.7145 35.6062 26.1997 35.6062C31.6849 35.6062 36.0978 32.4323 37.1829 27.7012C38.2704 22.9735 35.3167 19.7988 29.8306 19.7988ZM93.2353 35.5258H88.4652C85.5724 32.8064 80.0389 26.5569 75.9646 19.9435H79.4651C83.3338 25.2823 93.2353 35.5258 93.2353 35.5258ZM98.2339 4.5754L100.429 0L101.056 4.65157L105.53 3.08581L102.403 7.09584L105.795 9.72378L101.268 10.0733L101.018 14.9111L98.5013 11.3361L94.8027 14.7469L96.1891 9.94044L91.8261 9.34884L96.0723 6.92996L94.3305 2.78959L98.2339 4.5754ZM107.536 27.7495C106.727 30.9732 104.171 32.9977 101.128 32.9977C97.9453 32.9977 96.5107 31.1526 97.3655 27.7495C98.1746 24.5257 100.76 22.3616 103.803 22.3616C106.848 22.3616 108.347 24.5257 107.536 27.7495ZM104.295 19.7192C98.7214 19.7192 94.2416 22.9455 93.1371 27.7495C92.0335 32.5542 95.0346 35.7788 100.607 35.7788C106.18 35.7788 110.662 32.5542 111.764 27.7495C112.868 22.9455 109.869 19.7192 104.295 19.7192Z" fill="#676869"/>
<path d="M72.3484 34.1947C81.3578 29.1902 89.1841 21.5002 94.7345 14.8521C90.7439 27.3426 81.1378 34.0643 72.3484 34.1947Z" fill="#1F3044" fill-opacity="0.72"/>
<path d="M68.784 22.1132C70.5097 22.1132 71.4492 22.7395 71.4492 23.9362C71.4492 27.1126 65.2572 26.9027 62.526 26.3467C63.4866 23.9684 65.6558 22.1132 68.784 22.1132ZM75.1604 23.7636C75.1604 21.4598 73.3247 19.7671 69.1598 19.7671C62.4042 19.7671 58.015 24.1521 58.015 29.5806C58.015 33.0862 60.9256 36.0002 66.2415 36.0002C69.9046 36.0002 72.3505 34.1949 72.3505 34.1949C67.6888 34.6943 61.964 34.1949 61.964 29.2082C61.964 29.0101 61.975 28.8121 61.9911 28.6149C68.3515 29.9352 75.1604 28.3381 75.1604 23.7636Z" fill="#676869"/>
</svg>
