<svg width="146" height="38" viewBox="0 0 146 38" fill="none" xmlns="http://www.w3.org/2000/svg">
<path d="M24.3776 21.3661C24.4644 19.8074 25.2287 18.4328 26.3802 17.458C27.5113 16.5006 29.0326 15.9171 30.6923 15.916C32.3519 15.9171 33.8733 16.5006 35.0044 17.458C36.1558 18.4328 36.9202 19.8074 37.008 21.3661C37.0957 22.9689 36.4522 24.4593 35.3214 25.5623C34.1696 26.685 32.5285 27.3904 30.6933 27.3904C28.8571 27.3904 27.2149 26.685 26.0621 25.5623C24.9324 24.4593 24.2888 22.9689 24.3776 21.3661Z" fill="#676869"/>
<path d="M14.3186 24.5207C14.3291 25.129 14.5251 26.3149 14.8164 27.2432C15.4298 29.2034 16.471 31.0183 17.921 32.6179C19.4082 34.2601 21.2374 35.581 23.3525 36.5167C25.5761 37.5021 27.9859 38.005 30.4842 38C32.9835 37.9957 35.3919 37.4846 37.6155 36.4932C39.7289 35.5471 41.558 34.223 43.0442 32.5766C44.492 30.9707 45.5311 29.1529 46.1455 27.1916C46.4525 26.215 46.6483 25.2068 46.7291 24.1862C46.806 23.1907 46.7738 22.1899 46.6331 21.2014C46.3573 19.2628 45.686 17.443 44.6543 15.7841C43.707 14.2609 42.4905 12.9265 41.0424 11.8028L41.0445 11.8007L26.4333 0.580421C26.4211 0.569879 26.4088 0.559484 26.3963 0.549227C25.4347 -0.185008 23.8234 -0.182896 22.7701 0.554512C21.7022 1.30117 21.5824 2.53327 22.5295 3.31299L22.5263 3.3151L28.6209 8.27257L10.0427 8.29214H10.0171C8.48224 8.2932 7.00742 9.30241 6.71394 10.5747C6.41543 11.8721 7.45875 12.9471 9.05439 12.9532L9.05228 12.9596L18.4683 12.9411L1.66472 25.8376C1.6441 25.854 1.62136 25.8696 1.60073 25.886C0.0172516 27.0996 -0.495946 29.1188 0.50163 30.3964C1.51586 31.6956 3.66912 31.6967 5.27138 30.4017L14.4415 22.8983C14.4415 22.8983 14.3083 23.9115 14.3186 24.5207ZM37.882 27.9116C35.9932 29.8388 33.3492 30.9294 30.4852 30.9344C27.6202 30.9397 24.9752 29.8573 23.085 27.9351C22.1617 26.9975 21.4832 25.9222 21.0639 24.7729C20.6532 23.6438 20.4949 22.4384 20.6002 21.2416C20.7007 20.0739 21.0459 18.9405 21.6133 17.9149C22.1659 16.9131 22.925 16.0083 23.8618 15.2421C25.698 13.7446 28.0353 12.9347 30.4831 12.9315C32.9309 12.9286 35.2671 13.7321 37.1044 15.2233C38.0401 15.9856 38.7992 16.8872 39.3508 17.8872C39.9184 18.9116 40.2644 20.0439 40.3661 21.2107C40.4708 22.4078 40.3122 23.6134 39.9012 24.7428C39.483 25.8934 38.8053 26.9706 37.882 27.9116Z" fill="#1F3044" fill-opacity="0.6"/>
<path d="M124.492 21.3428C124.634 19.7678 125.852 18.7691 127.71 18.7691C129.57 18.7691 130.786 19.7678 130.93 21.3428H124.492ZM130.739 25.2281C130.262 26.3962 129.141 27.0874 127.616 27.0874C125.707 27.0874 124.421 25.8955 124.374 24.0127H135.341V23.459C135.341 18.7443 132.575 16.0939 127.616 16.0939C122.8 16.0939 119.89 18.7691 119.89 22.9643C119.89 27.1833 122.846 29.853 127.616 29.853C130.476 29.853 132.697 28.8739 134.068 27.1471L130.739 25.2281ZM75.8132 21.3499C75.9589 19.7749 77.1736 18.7773 79.0336 18.7773C80.8915 18.7773 82.1094 19.7749 82.2519 21.3499H75.8132ZM82.0607 25.2366C81.5845 26.4044 80.4629 27.0956 78.9376 27.0956C77.03 27.0956 75.7421 25.9026 75.6945 24.0198H86.6618V23.4672C86.6618 18.7525 83.8951 16.1013 78.9376 16.1013C74.1195 16.1013 71.2132 18.7773 71.2132 22.9715C71.2132 27.1915 74.1671 29.8614 78.9376 29.8614C81.7974 29.8614 84.0188 28.8824 85.3895 27.1553L82.0607 25.2366ZM66.2721 13.2445H70.2299V29.4297H66.2721V13.2445ZM87.6451 17.5431H91.6235V18.5076C93.0354 17.0051 94.7241 16.246 96.6306 16.246C98.8294 16.246 100.493 17.0051 101.353 18.298C102.068 19.3669 102.116 20.6559 102.116 22.3517V29.4297H98.1311V23.2092C98.1311 20.6313 97.6126 19.4383 95.3478 19.4383C93.057 19.4383 91.6235 20.8016 91.6235 23.0902V29.4297H87.6451V17.5431ZM114.927 23.1626C114.927 25.3791 113.447 26.8322 111.159 26.8322C108.868 26.8322 107.389 25.4275 107.389 23.1883C107.389 20.9174 108.846 19.5126 111.159 19.5126C113.447 19.5126 114.927 20.9401 114.927 23.1626ZM114.927 18.0833C113.924 17.0051 112.469 16.4131 110.443 16.4131C106.083 16.4131 103.099 19.1068 103.099 23.1399C103.099 27.0934 106.058 29.8593 110.371 29.8593C112.351 29.8593 113.805 29.3604 114.927 28.2378V29.4297H118.908V12.2168L114.927 13.2445V18.0833ZM57.231 19.5126C59.5435 19.5126 60.9977 20.9174 60.9977 23.1883C60.9977 25.4275 59.5197 26.8322 57.231 26.8322C54.9424 26.8322 53.4634 25.3791 53.4634 23.1626C53.4634 20.9401 54.9424 19.5126 57.231 19.5126ZM53.4634 13.2445L49.4807 12.2168V29.4297H53.4634V28.2378C54.5839 29.3604 56.0381 29.8593 58.0171 29.8593C62.3321 29.8593 65.2888 27.0934 65.2888 23.1399C65.2888 19.1068 62.3093 16.4131 57.9457 16.4131C55.9183 16.4131 54.4652 17.0051 53.4634 18.0833V13.2445ZM136.324 29.4297V17.5431H140.306V18.2773C141.498 16.8427 142.76 16.128 144.191 16.128C144.478 16.128 144.835 16.1746 145.312 16.2222V19.6096C144.931 19.5602 144.502 19.5602 144.049 19.5602C141.735 19.5602 140.306 21.0866 140.306 23.684V29.4297H136.324Z" fill="#676869"/>
</svg>
