<svg width="140" height="32" viewBox="0 0 140 32" fill="none" xmlns="http://www.w3.org/2000/svg">
<path d="M89.0441 20.0281C86.613 20.0281 84.6348 18.0493 84.6348 15.6188C84.6348 13.1878 86.613 11.2095 89.0441 11.2095C91.4751 11.2095 93.4529 13.1878 93.4529 15.6188C93.4529 18.0736 91.4508 20.0281 89.0441 20.0281ZM89.0441 8.58742C85.1593 8.58742 82.0132 11.734 82.0132 15.6188C82.0132 19.5036 85.1593 22.6497 89.0441 22.6497C92.9289 22.6497 96.0749 19.5036 96.0749 15.6188C96.0749 11.7577 92.9289 8.58742 89.0441 8.58742ZM80.4402 20.3854H81.0122V23.0306H80.4402C77.4134 23.0306 74.9343 20.5521 74.9343 17.5253V5.44137H77.5802V8.96893H80.9879V11.6147H77.5802V17.5491C77.5802 19.0983 78.8672 20.3854 80.4402 20.3854ZM112.663 20.0281C110.232 20.0281 108.254 18.0493 108.254 15.6188C108.254 13.1878 110.232 11.2095 112.663 11.2095C115.094 11.2095 117.072 13.1878 117.072 15.6188C117.048 18.0736 115.07 20.0281 112.663 20.0281ZM112.663 8.58742C108.778 8.58742 105.632 11.734 105.632 15.6188C105.632 19.5036 108.778 22.6497 112.663 22.6497C116.547 22.6497 119.694 19.5036 119.694 15.6188C119.694 11.7577 116.547 8.58742 112.663 8.58742ZM132.898 20.0281C130.466 20.0281 128.488 18.0493 128.488 15.6188C128.488 13.1878 130.466 11.2095 132.897 11.2095C135.328 11.2095 137.307 13.1878 137.307 15.6188C137.307 18.0736 135.304 20.0276 132.897 20.0276M132.897 8.58742C129.012 8.58742 125.866 11.734 125.866 15.6188C125.866 19.5036 129.012 22.6497 132.897 22.6497C134.613 22.6497 136.186 22.0296 137.402 21.0049V22.3874H139.928V15.833V15.6183C139.928 11.7572 136.782 8.58742 132.897 8.58742ZM103.344 8.58794H104.607V11.2332H103.344C101.771 11.2332 100.484 12.5208 100.484 14.0933V22.4829H97.8384V14.0933C97.8384 11.0665 100.317 8.58794 103.344 8.58794ZM121.458 5.08413H124.103V22.4349H121.458V5.08413ZM57.3456 14.4505V22.8164H54.6998V14.4505C54.6998 12.8775 53.4128 11.5905 51.8398 11.5905C50.2673 11.5905 48.9797 12.8775 48.9797 14.4505V22.8159H46.3344V14.4505C46.3344 12.8775 45.0469 11.5905 43.4744 11.5905C41.9019 11.5905 40.6144 12.8775 40.6144 14.4505V22.8159H37.9691V14.4505C37.9691 11.4232 40.4476 8.94466 43.4506 8.94466C45.1429 8.94466 46.6204 9.68342 47.6452 10.8755C48.67 9.68342 50.1475 8.94466 51.8403 8.94466C54.8666 8.94466 57.3456 11.4232 57.3456 14.4505ZM66.1637 20.3854C63.7327 20.3854 61.7544 18.4071 61.7544 15.976C61.7544 13.545 63.7332 11.5667 66.1637 11.5667C68.5948 11.5667 70.573 13.5455 70.573 15.976C70.573 18.4071 68.571 20.3854 66.1637 20.3854ZM66.1637 8.94519C62.2552 8.94519 59.1086 12.0912 59.1086 15.976C59.1086 19.8608 62.2552 23.0069 66.14 23.0069C70.0248 23.0069 73.1708 19.8608 73.1708 15.976C73.1946 12.115 70.0485 8.94519 66.1637 8.94519ZM16.304 0.0078125C7.46212 0.0078125 0.312012 7.15792 0.312012 15.9998C0.312012 24.8417 7.46212 31.9923 16.304 31.9923C25.1464 31.9923 32.2965 24.8422 32.2965 15.9998C32.2965 7.20541 25.2414 0.0078125 16.304 0.0078125Z" fill="#676869"/>
<path d="M21.0709 3.94141L16.3281 19.6716L16.3038 19.6954L16.2564 19.6716L11.5135 3.94141L5.38818 24.081H6.5322C6.5322 24.081 7.29523 20.5772 8.55851 18.4801C9.24977 17.3361 10.2983 16.4063 11.704 16.4301C12.705 16.4544 13.5631 17.0021 14.6358 18.5039C14.8738 18.8374 15.1598 19.3856 15.4458 19.9102C15.8991 20.7914 16.2801 21.6974 16.2801 21.6974C16.2801 21.6974 17.2811 19.4094 17.9249 18.5039C18.9971 17.0021 19.8552 16.4544 20.8562 16.4301C22.2624 16.4063 23.3347 17.3361 24.0022 18.4801C25.2655 20.5772 26.0285 24.081 26.0285 24.081H27.172L21.0709 3.94141Z" fill="#EBE4DE"/>
</svg>
