<svg width="116" height="32" viewBox="0 0 116 32" fill="none" xmlns="http://www.w3.org/2000/svg">
<path fill-rule="evenodd" clip-rule="evenodd" d="M78.5346 8.82791H69.7481V10.6671C70.4803 10.6671 71.2131 10.8511 71.3952 11.219C71.762 11.403 71.9453 11.9543 71.9453 12.6902V15.2653H65.9043V12.6902C65.9043 11.9549 66.0876 11.403 66.271 11.219C66.6365 10.8511 67.3693 10.6671 68.1015 10.6671V8.82791H59.1316V10.6671C59.8638 10.6671 60.0466 10.6671 60.4121 10.8511C60.7788 10.8511 60.7788 11.219 60.9609 11.219C61.3276 11.771 61.511 12.1383 61.511 12.6902V22.4374C61.511 22.4374 61.3276 22.9887 60.9609 23.1727L60.4121 23.724H59.1316V25.5638H68.1003V23.724H66.8186C66.6352 23.3561 66.2698 23.1727 66.2698 23.1727C66.0864 22.9881 66.0864 22.6202 66.0864 22.4374C65.903 22.2528 65.903 21.7021 65.903 21.7021V17.8398H71.9441V22.4374C71.9441 22.4374 71.7607 22.9887 71.7607 23.1727C71.394 23.1727 71.2119 23.3561 71.0285 23.724H69.7468V25.5638H78.5334V23.724H77.2517C77.0683 23.3561 76.8862 23.1727 76.5195 23.1727C76.5195 22.9881 76.3361 22.6202 76.3361 22.4374V12.6896C76.3361 12.1377 76.5195 11.7703 76.8862 11.2184C77.0683 10.8504 77.8012 10.6665 78.5334 10.6665V8.82791H78.5346ZM79.6329 8.82791V10.6671C80.3651 10.6671 80.9134 10.6671 81.0967 10.8511C81.4635 10.8511 81.6456 11.219 81.6456 11.403C82.0123 11.771 82.0123 11.9549 82.0123 11.9549L82.1957 12.6902V22.4374C82.1957 22.4374 82.0123 22.9887 81.6456 23.1727L81.0967 23.724H79.6329V25.5638H95.1915L98.1203 19.6783L96.2898 18.943C95.1915 20.7822 94.0926 21.7021 92.6288 22.4374C91.1637 23.1727 89.6999 23.3561 88.0527 23.3561C87.5027 23.3561 87.3193 23.3561 86.9544 23.1727C86.7711 22.9881 86.5877 22.2528 86.5877 21.3335V17.8392H87.3199C88.4182 17.8392 88.9683 18.0225 89.3338 18.2071C89.8839 18.7597 90.2488 19.495 90.2488 20.4136H92.0793V12.6896H90.2488C90.2488 13.6089 89.8833 14.3448 89.3338 14.8967C88.9683 15.0807 88.4189 15.2647 87.3199 15.2647H86.5877V13.0576C86.5877 12.1383 86.7711 11.9543 86.7711 11.4024C86.9544 11.2184 87.686 10.8504 88.6016 10.8504H89.1504C90.981 10.8504 92.2627 11.4024 93.361 12.1377C94.4593 12.8736 95.1915 13.7929 95.7404 14.7121L97.3888 13.7929L95.0088 8.82729L79.6329 8.82791ZM113.862 19.6783C113.496 20.4136 112.947 21.3342 112.032 22.2528C111.482 22.6208 111.117 22.9881 110.385 23.1727C109.834 23.724 109.103 23.724 108.371 23.724C107.821 23.724 107.638 23.724 106.906 23.3561C106.357 23.1727 105.991 22.9881 105.442 22.4374C105.075 21.8849 104.527 21.3342 104.344 20.4143C103.978 19.679 103.795 18.3911 103.795 17.2879C103.795 14.8974 103.978 13.0582 105.075 12.1389C105.99 10.8517 106.906 10.4837 107.821 10.4837C109.286 10.4837 110.384 10.8517 111.3 11.9549C112.032 12.8748 112.947 13.7941 113.496 15.2653L115.509 14.7134L113.313 8.82852H111.848L111.482 9.19648C111.116 9.0125 110.385 8.82852 109.651 8.46057C109.102 8.46057 108.187 8.27721 107.455 8.27721C104.71 8.27721 102.512 9.19648 101.049 10.6683C99.5835 12.3235 98.6686 14.714 98.6686 17.2885C98.6686 19.6796 99.5835 21.8861 101.414 23.7253C102.696 25.3811 105.075 26.1164 107.638 26.1164C109.834 26.1164 111.848 25.3811 112.947 24.2772C114.411 23.3573 115.144 21.8861 115.876 20.7828L113.862 19.6783ZM43.7546 2.94243C41.7413 0.919894 39.1785 0 35.5175 0C30.392 0 25.6326 1.6552 21.4227 4.7816C17.5789 8.27597 15.3823 12.1383 14.4667 16.5513C14.1006 17.8392 13.9172 18.7591 13.9172 19.6777C13.9172 23.7234 15.3817 26.4819 17.5783 28.8736C19.9577 30.8967 22.8865 32 26.5476 32C28.7442 32 30.5747 31.632 32.588 31.2647C34.2352 30.7121 36.4324 29.4255 37.7135 28.5056C39.7268 26.8498 38.6285 26.2991 37.164 27.2178C36.4318 27.7703 34.2352 29.057 32.7708 29.2409C31.4891 29.4255 29.6586 29.7923 27.6453 29.7923C24.5331 29.7923 22.1537 29.057 20.1404 27.2178C18.3099 25.3786 17.5777 23.1721 17.5777 20.0457C17.5777 18.9424 17.5777 18.0225 17.7604 17.1033C18.4926 12.873 20.5059 9.56259 23.4348 6.62016C26.7297 3.67773 30.3908 2.20652 34.7834 2.20652C37.7123 2.20652 39.9089 2.94181 41.5561 4.59762C43.0205 6.06884 43.9354 8.27597 43.9354 10.6671C43.7521 14.3454 42.8371 17.2872 41.5561 18.943C39.9089 21.3342 38.6272 21.8855 38.4439 21.8855C37.895 21.8855 37.895 21.7021 37.895 21.7021C37.895 20.7822 38.6272 18.2077 38.81 17.2879L41.5554 8.46057C41.5554 8.2772 41.5555 8.09261 41.006 8.09261H37.5283C37.1622 8.09261 36.43 8.27659 36.2466 9.0125L35.8805 9.74842C34.5994 15.2659 31.1217 18.7603 30.2062 19.679C28.7417 21.1502 27.644 21.7021 27.2773 21.7021C26.7285 21.7021 26.7285 21.3342 26.7285 20.9668C26.7285 20.7822 26.7285 20.4143 26.9112 19.311L29.8401 12.1383C30.3895 11.219 30.3895 10.1151 30.3895 9.7478C30.3895 8.45995 29.6573 7.54067 28.1929 7.54067C26.7285 7.54067 24.3485 8.09261 21.603 10.4837C20.5047 11.9549 20.1386 12.6902 20.1386 12.6902C20.1386 13.0582 20.6874 13.0582 20.6874 13.0582C21.0535 13.0582 21.603 12.3229 22.1518 11.9549C22.8841 11.2196 23.799 10.1158 24.5312 10.1158C25.0801 10.1158 25.0801 10.4837 25.0801 10.6677C25.0801 10.8517 24.714 11.403 24.5312 12.1389L22.3346 17.1045C21.9685 18.2077 20.8702 20.4143 20.8702 22.438C20.8702 24.8291 22.7007 25.3805 23.6163 25.3805C25.9956 25.3805 30.2056 23.1739 33.8672 16.7372L33.3184 18.3917C33.135 19.4962 32.5855 21.7027 32.5855 23.3573C32.5855 23.9099 32.5855 25.3805 34.2327 25.3805C37.8938 25.3805 40.6393 22.6214 42.1043 20.9674C43.9348 18.3917 45.582 16.0012 45.7654 13.7947C46.1315 12.1395 46.1315 10.8523 46.1315 9.9324C46.1346 6.80476 45.5851 4.59762 43.7546 2.94243Z" fill="#676869"/>
<path fill-rule="evenodd" clip-rule="evenodd" d="M43.7546 2.94243C41.7413 0.919894 39.1785 0 35.5175 0C30.392 0 25.6326 1.6552 21.4227 4.7816C17.5789 8.27597 15.3823 12.1383 14.4667 16.5513C14.1006 17.8392 13.9172 18.7591 13.9172 19.6777C13.9172 23.7234 15.3817 26.4819 17.5783 28.8736C19.9577 30.8967 22.8865 32 26.5476 32C28.7442 32 30.5747 31.632 32.588 31.2647C34.2352 30.7121 36.4324 29.4255 37.7135 28.5056C39.7268 26.8498 38.6285 26.2991 37.164 27.2178C36.4318 27.7703 34.2352 29.057 32.7708 29.2409C31.4891 29.4255 29.6586 29.7923 27.6453 29.7923C24.5331 29.7923 22.1537 29.057 20.1404 27.2178C18.3099 25.3786 17.5777 23.1721 17.5777 20.0457C17.5777 18.9424 17.5777 18.0225 17.7604 17.1033C18.4926 12.873 20.5059 9.56259 23.4348 6.62016C26.7297 3.67773 30.3908 2.20652 34.7834 2.20652C37.7123 2.20652 39.9089 2.94181 41.5561 4.59762C43.0205 6.06884 43.9354 8.27597 43.9354 10.6671C43.7521 14.3454 42.8371 17.2872 41.5561 18.943C39.9089 21.3342 38.4439 21.8855 38.4439 21.8855L37.895 21.7021C37.895 20.7822 38.6272 18.2077 38.81 17.2879L41.5554 8.46057C41.5554 8.2772 41.006 8.09261 41.006 8.09261H37.5283C37.1622 8.09261 36.43 8.27659 36.2466 9.0125L35.8805 9.74842C34.5994 15.2659 31.1217 18.7603 30.2062 19.679C28.7417 21.1502 27.644 21.7021 27.2773 21.7021C26.7285 21.7021 26.7285 20.9668 26.7285 20.9668C26.7285 20.9668 26.7285 20.4143 26.9112 19.311L29.8401 12.1383C30.3895 11.219 30.3895 10.1151 30.3895 9.7478C30.3895 8.45995 29.6573 7.54067 28.1929 7.54067C26.7285 7.54067 24.3485 8.09261 21.603 10.4837C20.5047 11.9549 20.1386 12.6902 20.1386 12.6902C20.1386 13.0582 20.6874 13.0582 20.6874 13.0582C21.0535 13.0582 21.603 12.3229 22.1518 11.9549C22.8841 11.2196 23.799 10.1158 24.5312 10.1158C25.0801 10.1158 25.0801 10.6677 25.0801 10.6677C25.0801 10.6677 24.714 11.403 24.5312 12.1389L22.3346 17.1045C21.9685 18.2077 20.8702 20.4143 20.8702 22.438C20.8702 24.8291 22.7007 25.3805 23.6163 25.3805C25.9956 25.3805 30.2056 23.1739 33.8672 16.7372L33.3184 18.3917C33.135 19.4962 32.5855 21.7027 32.5855 23.3573C32.5855 23.9099 32.5855 25.3805 34.2327 25.3805C37.8938 25.3805 40.6393 22.6214 42.1043 20.9674C43.9348 18.3917 45.582 16.0012 45.7654 13.7947C46.1315 12.1395 46.1315 10.8523 46.1315 9.9324C46.1346 6.80476 45.5851 4.59762 43.7546 2.94243Z" fill="#1F3044" fill-opacity="0.6"/>
<path fill-rule="evenodd" clip-rule="evenodd" d="M0.37207 8.82733V10.6665C0.738176 10.6665 0.921538 10.6665 1.47039 10.8505C1.65313 10.8505 2.01986 11.2184 2.2026 11.4024C2.2026 11.7704 2.38534 11.7704 2.38534 11.9544V22.4368C2.38534 22.6202 2.2026 22.9882 2.2026 23.1721C2.01986 23.1721 1.65313 23.3555 1.47039 23.7235H0.37207V25.5632H12.2708C13.1858 25.5632 13.918 25.3786 14.6502 25.0107C15.3824 24.8273 16.1146 24.0908 16.4801 23.7228C17.0296 22.9875 17.3957 21.8837 17.3957 20.7804C17.3957 20.0451 17.3957 19.4938 17.0296 18.9412C16.8468 18.2059 16.2974 17.838 15.7485 17.2854C15.3824 16.5501 14.4668 15.9982 13.3691 15.9982C12.2708 15.6308 10.6237 15.2629 8.97587 15.2629H6.77923V12.1365C6.77923 11.9525 6.77923 11.7685 7.14534 11.4012L7.32808 11.2172C7.51144 10.8492 7.87755 10.8492 8.24366 10.8492H8.79251C10.2569 10.8492 11.7214 11.2172 12.2708 11.9525C13.1858 12.3205 13.918 13.4237 14.6502 14.711L16.2974 13.7917L14.4668 8.8261H0.37207V8.82733ZM6.77923 17.8386H8.79251C9.89082 17.8386 10.9891 18.022 11.538 18.2066C12.2708 18.7591 12.4529 19.4944 12.4529 20.4131C12.4529 21.1484 12.2702 21.7009 11.9041 22.4362C11.7214 22.6196 11.1719 22.9875 10.623 23.1715C10.2569 23.3549 9.70746 23.3549 8.97587 23.3549C8.24366 23.3549 8.06091 23.3549 7.51144 23.1715C7.14534 23.1715 6.77923 22.619 6.77923 22.2516V17.8386ZM47.9646 18.022H51.2596C51.8084 18.2066 52.1745 18.3899 52.5406 18.7585C52.7234 19.3098 52.9067 19.6772 52.9067 20.4131C52.9067 21.333 52.7234 22.2522 51.9911 22.6196C51.625 23.3549 50.5267 23.7228 49.2457 23.9074C48.6968 23.9074 48.1473 23.7228 47.5985 23.7228C47.4158 23.3549 47.2324 23.3549 46.8663 23.1715C46.6829 22.9869 46.5002 22.619 46.5002 22.4362C46.1341 22.2516 46.1341 21.8837 46.1341 21.7009C46.1341 21.7009 46.1341 21.333 46.5002 21.1484V20.4131C46.5002 20.0457 46.1341 19.6778 45.9513 19.3098C45.768 18.7585 45.0358 18.3899 44.3035 18.3899C43.5713 18.3899 43.0225 18.9425 42.6564 19.4944C42.2903 19.6778 42.1075 20.4131 42.1075 21.149C42.1075 22.4368 42.8397 23.7235 43.9381 24.6434C45.2191 25.5632 47.4158 26.1146 49.9785 26.1146C52.9073 26.1146 54.9206 25.5632 56.2023 24.2754C57.3006 23.3555 57.8495 22.2522 57.8495 20.781C57.8495 19.6778 57.6667 18.7591 56.9345 18.022C56.2023 17.1033 55.104 16.7353 53.8229 16.5507H54.0057C54.9206 16.3674 55.6528 15.8154 56.385 15.2641C57.1179 14.7122 57.3 13.7929 57.3 12.873C57.3 11.7691 56.9339 10.4819 55.6528 9.74661C54.7379 8.82671 52.9073 8.27539 50.8934 8.27539C49.7951 8.27539 48.8802 8.45876 48.148 8.45876C47.4158 8.82671 46.6835 9.01069 45.9513 9.19467L45.768 8.82671H43.5713L43.0219 13.7923L45.5846 14.1603C45.7673 13.6083 45.9507 12.873 46.6829 11.9531C47.2324 11.7691 47.5979 11.2178 48.1473 10.8499C48.6968 10.6659 49.2457 10.4819 49.7945 10.4819C51.0762 10.6659 51.8078 10.8499 52.1739 11.4012C52.54 11.7691 52.7234 11.9531 52.7234 12.1365C52.7234 12.3198 52.9067 12.6884 52.9067 12.8724C52.7234 13.6077 52.7234 14.1596 52.5406 14.3436C51.9911 14.8955 51.8084 15.0789 51.2596 15.0789C50.8935 15.2629 50.344 15.6308 49.7951 15.6308H47.964L47.9646 18.022Z" fill="#676869"/>
<path fill-rule="evenodd" clip-rule="evenodd" d="M52.3962 2.80994H52.9222V6.76735H52.3962V3.56191L50.3323 6.76735H49.8125V2.80994H50.3323V5.99253L52.3962 2.80994ZM59.6961 6.76735H59.1763V2.80994H59.6961V4.46082H61.647V2.80994H62.1669V6.76735H61.647V4.90718H59.6961V6.76735ZM70.1564 6.32098H69.936C69.8421 6.32098 69.7261 6.31295 69.5909 6.29814C69.4482 6.28167 69.3079 6.24958 69.1723 6.20244C68.9241 6.11539 68.6963 5.9629 68.4907 5.74435C68.2851 5.52579 68.182 5.19426 68.182 4.74913C68.182 4.3003 68.287 3.96629 68.4969 3.74589C68.7055 3.52549 68.9371 3.37546 69.1889 3.29644C69.3291 3.25137 69.4624 3.22112 69.5927 3.2063C69.723 3.19148 69.8372 3.18346 69.9354 3.18346H70.1558V2.58398H70.6756V3.18346H70.8904C70.988 3.18346 71.1028 3.19025 71.2331 3.20321C71.3634 3.21618 71.4961 3.2452 71.6313 3.29088C71.8844 3.36991 72.1172 3.51931 72.3296 3.73786C72.5432 3.95642 72.6494 4.2935 72.6494 4.74975C72.6494 5.17574 72.5543 5.49678 72.361 5.7141C72.169 5.9308 71.9585 6.08453 71.7282 6.17466C71.572 6.23534 71.4088 6.2762 71.2423 6.29629C71.088 6.31296 70.9713 6.3216 70.8917 6.3216H70.6768V6.9149H70.157L70.1564 6.32098ZM70.1564 3.60143H70.0094C69.6057 3.60143 69.3161 3.67428 69.1414 3.81936C68.9667 3.96444 68.8519 4.12373 68.7988 4.2966C68.7745 4.37491 68.7576 4.45531 68.7481 4.53676C68.7343 4.6757 68.7334 4.81562 68.7457 4.95472C68.7518 5.02819 68.7648 5.10474 68.7876 5.18377C68.8407 5.36466 68.955 5.5295 69.1303 5.67829C69.3056 5.82708 69.5983 5.90178 70.0094 5.90178H70.1564V3.60143ZM70.8231 5.9024C70.8941 5.9024 70.9738 5.8987 71.0608 5.89067C71.1522 5.88264 71.2428 5.86756 71.3319 5.8456C71.5239 5.79312 71.6998 5.68755 71.8579 5.52888C72.0159 5.37021 72.0956 5.1103 72.0956 4.74851C72.0956 4.39043 72.0147 4.13237 71.8542 3.97432C71.7088 3.82456 71.5269 3.71539 71.3263 3.65761C71.2362 3.63476 71.1479 3.61995 71.0608 3.61254C70.9738 3.60513 70.8941 3.60081 70.8231 3.60081H70.6762V5.90178L70.8231 5.9024ZM80.2937 6.88588C79.698 6.88218 79.2411 6.69203 78.9225 6.31542C78.604 5.93821 78.4453 5.42948 78.4453 4.78926C78.4453 4.03915 78.6324 3.50203 79.0047 3.1779C79.3588 2.86096 79.8185 2.68749 80.2937 2.69141C80.7883 2.69141 81.2186 2.85378 81.589 3.1779C81.9582 3.50203 82.1422 4.03915 82.1422 4.78926C82.1422 5.43319 81.9829 5.94314 81.6649 6.31851C81.347 6.69388 80.8895 6.88094 80.2937 6.88094V6.88588ZM80.2937 6.43952C80.7426 6.43952 81.0704 6.28517 81.2778 5.97649C81.4853 5.6678 81.589 5.27144 81.589 4.78926C81.589 4.33302 81.5168 3.99099 81.3729 3.76318C81.2309 3.53536 81.0716 3.37608 80.8988 3.28533C80.7913 3.22597 80.6746 3.18487 80.5537 3.1637C80.4675 3.1491 80.3805 3.14065 80.2931 3.13839C80.2326 3.13839 80.169 3.1421 80.1011 3.1495C80.0317 3.15721 79.9634 3.17253 79.8974 3.19519C79.6708 3.2594 79.4646 3.4088 79.2788 3.64464C79.0917 3.88048 78.9979 4.26202 78.9979 4.78926C78.9979 4.8794 79.004 4.98497 79.0158 5.10598C79.0269 5.22637 79.0497 5.35046 79.0831 5.47887C79.1473 5.72027 79.2701 5.94068 79.451 6.14009C79.6331 6.3395 79.9128 6.43952 80.2937 6.43952Z" fill="#676869"/>
</svg>
