<svg width="91" height="34" viewBox="0 0 91 34" fill="none" xmlns="http://www.w3.org/2000/svg">
<path d="M15.0609 33.4621C14.8507 33.4227 14.6405 33.403 14.4303 33.3636C13.6277 33.206 12.8062 33.0878 12.0036 32.8907C10.7807 32.5951 9.63417 32.0827 8.54499 31.4718C7.78072 31.0382 7.03553 30.585 6.36673 29.9938C5.85079 29.5405 5.29671 29.1267 4.81893 28.634C3.72984 27.5107 2.79353 26.2495 2.04833 24.8503C1.30305 23.4511 0.748967 21.9731 0.385907 20.4359C0.25211 19.8251 0.156641 19.2141 0.0993249 18.6032C0.0419199 17.6376 -0.0153966 16.672 0.00376816 15.7063C0.00376816 15.0363 0.175718 14.3465 0.271274 13.6765C0.404981 12.7108 0.691648 11.8044 1.01647 10.8979C1.5324 9.45926 2.23936 8.09946 3.11835 6.85794C3.71067 6.03029 4.34124 5.28144 5.06736 4.57199C5.90811 3.72455 6.84442 3.0151 7.85712 2.38454C9.00361 1.67509 10.2074 1.10353 11.5068 0.729152C12.3093 0.492668 13.131 0.315284 13.9717 0.177298C14.7552 0.0591006 15.5577 0 16.3411 0C17.0482 0 17.7551 0.0788001 18.4621 0.177298C20.8506 0.472969 23.0481 1.30062 25.0353 2.66042C28.9524 5.30114 31.3409 9.00599 32.2394 13.7357C32.4872 15.056 32.5451 16.3961 32.4488 17.7164C32.1814 20.9878 30.1562 23.4314 27.0034 23.9241C25.3792 24.1803 23.7932 24.0226 22.3219 23.254C20.6977 22.4264 19.685 21.0666 19.2647 19.2338C19.0926 18.485 18.978 17.6967 19.0353 16.9282C19.15 15.3713 19.4939 13.8933 20.4685 12.632C21.1372 11.7649 22.0354 11.3905 23.1054 11.3511C24.1754 11.292 25.1117 11.627 25.8951 12.3365C26.5257 12.9079 26.9652 13.6174 27.118 14.4845C27.1563 14.721 27.1372 14.9772 27.1563 15.2334H20.5831V18.5638H31.914C31.914 18.2288 31.9336 17.8741 31.914 17.539C31.8757 16.9676 31.8186 16.3961 31.742 15.8245C31.4746 14.051 30.8823 12.3759 29.8314 10.9176C28.4556 9.0257 26.6212 7.86298 24.3474 7.56739C20.927 7.11413 17.2965 8.9272 15.6723 12.1985C15.2902 12.9473 15.0417 13.7554 14.8889 14.583C14.7742 15.1546 14.6787 15.726 14.6596 16.2975C14.4685 20.5739 16.1309 23.8847 19.6659 26.1706C20.927 26.9787 22.3029 27.5107 23.755 27.826C24.7105 28.0231 25.7041 28.0625 26.6786 27.9246C27.2709 27.8457 27.8633 27.7078 28.4556 27.6092C28.4939 27.6092 28.532 27.6092 28.6467 27.6092C28.2645 28.0231 27.9206 28.4173 27.5576 28.772C25.3028 30.9791 22.6659 32.4374 19.6277 33.0878C18.9398 33.2454 18.2137 33.3045 17.5067 33.403C17.4685 33.403 17.4303 33.4227 17.3921 33.4424C16.6086 33.4424 15.8252 33.4424 15.0609 33.4424V33.4621ZM7.81896 15.0363C6.95905 14.9378 5.96542 15.8048 5.96542 16.9085C5.96542 17.9529 6.7871 18.7609 7.68517 18.8003C8.92722 18.8594 9.63417 17.7953 9.63417 17.0464C9.63417 15.8245 8.90805 15.0166 7.7998 15.0166L7.81896 15.0363Z" fill="#212121"/>
<path d="M78.805 13.857H74.7163C74.6779 13.2657 74.7929 12.714 74.907 12.1622C75.4615 9.75798 77.0285 8.41787 79.2828 7.82671C80.5058 7.51142 81.7475 7.49164 82.9901 7.55083C84.0027 7.59022 84.9966 7.64932 85.9512 8.02379C87.3275 8.55586 88.4168 9.42291 89.0666 10.8024C89.3724 11.4528 89.4677 12.1622 89.5444 12.8717C89.6202 13.5811 89.6781 14.2709 89.6781 14.9802C89.7155 17.4437 89.7155 19.907 89.7351 22.3703C89.7351 22.863 89.6968 23.3557 89.7351 23.8286C89.8118 24.6564 89.9072 25.5037 90.27 26.2723C90.27 26.2723 90.27 26.3117 90.27 26.3708H90.0409C88.7413 26.3708 87.4612 26.3708 86.1616 26.3708C85.9709 26.3708 85.8755 26.3117 85.8175 26.1344C85.6838 25.7205 85.5501 25.3066 85.4164 24.8731C85.3781 24.8928 85.3406 24.9322 85.2827 24.9519C83.9643 26.0555 82.474 26.6861 80.7732 26.8438C80.3534 26.8832 79.9139 26.9226 79.4932 26.8832C77.6587 26.7452 76.0159 26.1541 74.7733 24.6761C74.0665 23.8286 73.7224 22.8433 73.6083 21.7398C73.3596 19.4931 74.735 17.5618 76.4357 16.6553C77.5633 16.0641 78.748 15.7489 79.9897 15.5912C81.0789 15.4532 82.1878 15.3941 83.2388 15.0591C83.6586 14.9211 84.0793 14.724 84.4421 14.4679C84.8433 14.2117 85.0153 13.7782 85.0349 13.2854C85.0919 12.2804 84.5758 11.6498 83.754 11.2951C82.5693 10.763 81.3464 10.7039 80.1617 11.3345C79.4745 11.6892 79.0537 12.3001 78.8817 13.0884C78.8246 13.3249 78.805 13.5811 78.7667 13.8373L78.805 13.857ZM85.3023 17.1875C84.9582 17.3648 84.6525 17.6012 84.3084 17.7195C83.754 17.9166 83.2004 18.0348 82.6273 18.1728C81.7858 18.3896 80.9452 18.5472 80.1234 18.8034C79.2641 19.0792 78.6713 19.6705 78.3852 20.577C78.1748 21.2865 78.3085 21.8974 78.748 22.4491C79.1304 22.9221 79.6652 23.1783 80.2767 23.2966C81.5763 23.533 82.7984 23.2966 83.926 22.6068C84.5946 22.1929 85.0723 21.5821 85.149 20.7543C85.2257 20.1041 85.264 19.4537 85.2827 18.8034C85.3023 18.2713 85.2827 17.7195 85.2827 17.2072L85.3023 17.1875Z" fill="#212121"/>
<path d="M54.2858 18.6051H43.0686V15.2549H49.5276C49.6043 13.8754 49.0115 12.8704 47.9989 12.082C46.2794 10.7617 42.9733 11.0573 41.9607 14.1513C41.7699 14.7425 41.6362 15.3534 41.5979 15.9644C41.5595 16.4767 41.5212 16.9891 41.5595 17.4818C41.6362 18.6839 41.7886 19.886 42.4001 20.9501C43.0686 22.1128 44.1009 22.7435 45.3622 23.0194C47.3687 23.4529 49.1265 22.3296 49.6613 20.4378C49.6613 20.3787 49.6996 20.3393 49.7184 20.2801H54.3045C54.2475 20.9501 54.0175 21.5808 53.7314 22.1719C53.2536 23.1968 52.6421 24.1229 51.8202 24.8719C50.731 25.8769 49.4322 26.4681 48.0176 26.7833C47.4444 26.9016 46.8526 27.0001 46.2794 27.0198C44.9031 27.0593 43.5848 26.7439 42.3431 26.1331C39.6297 24.8127 37.9673 22.6252 37.2791 19.6298C37.0688 18.6839 36.9547 17.7182 37.0117 16.7329C37.165 14.0922 38.0243 11.7667 39.8401 9.87488C41.0818 8.59396 42.6105 7.86481 44.3496 7.66773C44.9031 7.60863 45.4575 7.54953 46.012 7.58893C48.9348 7.80571 51.2087 9.10633 52.6804 11.7864C53.3302 12.9492 53.808 14.1907 54.0754 15.5111C54.2662 16.4373 54.3616 17.3832 54.3232 18.3488C54.3232 18.4474 54.2858 18.5459 54.2858 18.6642V18.6051Z" fill="#212121"/>
<path d="M71.1602 13.9106C69.8792 13.9106 68.6563 13.9106 67.4529 13.9106C67.3379 13.9106 67.2809 13.8712 67.2622 13.7333C67.2042 12.1567 66.1916 11.2108 65.064 10.9546C63.9944 10.7181 62.9434 10.7378 61.9495 11.2502C61.338 11.5655 60.8986 12.0582 60.8219 12.748C60.7462 13.3194 60.9752 13.8318 61.453 14.1668C61.8729 14.4821 62.3702 14.62 62.8667 14.7383C63.7269 14.9157 64.5675 15.0536 65.4277 15.2113C66.4973 15.4084 67.5679 15.6054 68.5992 16.0192C70.8731 16.9061 71.7717 18.7388 71.695 20.946C71.58 23.7837 69.9372 25.9712 66.8414 26.7003C66.3066 26.8186 65.7334 26.8974 65.179 26.9368C64.6058 26.9763 64.0327 27.0157 63.4782 26.9763C61.7588 26.858 60.1347 26.4047 58.7397 25.3012C57.4596 24.2764 56.7528 22.8773 56.4274 21.281C56.3704 21.0248 56.3704 20.7489 56.332 20.4927C56.332 20.4533 56.332 20.4138 56.332 20.3744C56.4087 20.3744 56.4657 20.3744 56.5424 20.3744C57.7458 20.3744 58.95 20.3744 60.1347 20.3744C60.3067 20.3744 60.3637 20.4138 60.4021 20.5912C60.5171 21.0445 60.6508 21.5175 60.8415 21.951C61.1277 22.6211 61.6438 23.0941 62.3132 23.3502C63.5932 23.8429 64.8732 23.8034 66.1346 23.2517C66.9751 22.8773 67.4716 22.2269 67.4333 21.2416C67.4333 20.5518 67.1284 20.0001 66.4973 19.7833C65.8671 19.5665 65.1977 19.3891 64.5292 19.2709C63.1725 19.0147 61.7971 18.7783 60.4975 18.3053C59.9814 18.1082 59.4661 17.8914 58.9687 17.6155C57.9178 17.044 57.2493 16.1375 56.9052 14.9748C56.7715 14.5215 56.6761 14.0486 56.6761 13.5756C56.6948 11.467 57.5737 9.81156 59.3699 8.72773C60.1534 8.25476 60.9752 7.91978 61.8737 7.8015C62.6377 7.6833 63.4016 7.62411 64.1664 7.66351C65.7334 7.703 67.2238 8.13648 68.5805 8.98391C69.9176 9.83126 70.6628 11.0926 70.9881 12.6494C71.0835 13.0829 71.0835 13.5165 71.1218 13.9895L71.1602 13.9106Z" fill="#212121"/>
</svg>
