<svg width="138" height="20" viewBox="0 0 138 20" fill="none" xmlns="http://www.w3.org/2000/svg">
<g clip-path="url(#clip0_5_414)">
<path d="M23.0563 0.322166H18.8995C18.8995 0.322166 18.2648 0.322166 17.9475 1.24239L12.8704 13.9034L11.0617 9.17535L10.9982 9.11188L9.69722 5.74831V5.71658C9.06258 4.19345 8.45968 3.0511 7.82504 2.353C7.1904 1.55971 6.39711 0.988535 5.50862 0.607753C4.4932 0.163507 3.47778 -0.0903476 2.43063 0.0365797C2.01812 0.0365797 1.57387 0.100043 1.06616 0.195239C0.780576 0.322166 0.907503 0.671216 0.907503 0.671216L1.63734 3.49535C1.79599 3.93959 2.04985 4.06652 2.08158 4.06652C2.36717 4.12999 2.71622 4.22518 2.93834 4.35211C3.35085 4.51077 3.66817 4.85982 3.95376 5.27233C4.23935 5.71658 4.62013 6.50987 5.15957 7.65222L5.22303 7.77915H5.15957L6.30191 10.5081L9.95107 18.8536C10.0145 19.0122 10.2367 19.2978 10.6174 19.2978H14.8695C15.3772 19.2978 15.5676 18.8536 15.5993 18.7901L23.3102 0.893339C23.564 0.322166 23.0563 0.322166 23.0563 0.322166ZM32.3537 0.195239C29.4027 0.195239 27.0228 1.052 25.2141 2.79725C23.4688 4.5425 22.5486 6.85892 22.5486 9.74652C22.5486 12.6024 23.4688 14.9188 25.2141 16.6641C27.0228 18.4093 29.4027 19.2661 32.3537 19.2661C35.3683 19.2661 37.7482 18.4093 39.4934 16.6641C41.3021 14.9188 42.1589 12.6658 42.1589 9.74652C42.1589 6.85892 41.3021 4.51077 39.4934 2.79725C37.7164 1.052 35.3683 0.195239 32.3537 0.195239ZM35.7808 13.8399C34.9558 14.8236 33.8134 15.3631 32.3537 15.3631C30.8306 15.3631 29.7517 14.8553 28.9267 13.8399C28.0699 12.8562 27.6574 11.5235 27.6574 9.77825C27.6574 8.033 28.1334 6.6368 28.9267 5.65311C29.7517 4.66943 30.8941 4.19345 32.3537 4.19345C33.8134 4.19345 34.9558 4.66943 35.7808 5.65311C36.6375 6.6368 37.0501 7.96954 37.0501 9.77825C37.0818 11.5235 36.6058 12.8562 35.7808 13.8399ZM67.8617 2.79725C66.0529 1.052 63.7365 0.195239 60.722 0.195239C57.7709 0.195239 55.3911 1.052 53.5823 2.79725C51.8371 4.5425 50.9169 6.85892 50.9169 9.74652C50.9169 12.6024 51.8371 14.9188 53.5823 16.6641C55.3911 18.4093 57.7709 19.2661 60.722 19.2661C63.7365 19.2661 66.1164 18.4093 67.8617 16.6641C69.6704 14.9188 70.5271 12.6658 70.5271 9.74652C70.5271 6.89065 69.6704 4.5425 67.8617 2.79725ZM64.149 13.8399C63.324 14.8236 62.1817 15.3631 60.722 15.3631C59.1989 15.3631 58.12 14.8553 57.295 13.8399C56.4382 12.8562 56.0257 11.5235 56.0257 9.77825C56.0257 8.033 56.5017 6.6368 57.295 5.65311C58.12 4.66943 59.2623 4.19345 60.722 4.19345C62.1817 4.19345 63.324 4.66943 64.149 5.65311C65.0058 6.6368 65.4183 7.96954 65.4183 9.77825C65.4183 11.5235 64.9423 12.8562 64.149 13.8399ZM50.1236 15.9025V15.839C49.9014 15.7121 49.6793 15.49 49.4889 15.3313C49.2033 14.9823 49.0447 14.6015 48.9178 14.0938C48.7908 13.6495 48.7591 12.7928 48.7591 11.6504V0.702948C48.7591 0.480825 48.5687 0.290434 48.3466 0.290434H44.5705C44.3484 0.290434 44.158 0.480825 44.158 0.702948L44.3166 7.90607V9.11188L44.2532 11.6187C44.2532 13.3322 44.4118 14.6332 44.6974 15.5217C44.983 16.4419 45.4907 17.267 46.1888 18.0285C46.9821 18.8218 47.8389 19.4565 48.7908 19.742C49.1399 19.869 49.4572 19.9642 49.9332 20.0276C50.0918 20.0911 50.4409 20.0911 50.4409 19.6151V16.4419C50.4726 16.4102 50.4092 16.1246 50.1236 15.9025Z" fill="#676869"/>
<path d="M91.946 0.257787C94.6114 0.257787 96.5153 2.00304 96.5153 4.47812C96.5153 6.98493 94.5797 8.76192 91.946 8.76192H88.5189V0.257787H91.946ZM91.946 6.85801C93.3104 6.85801 94.3893 5.84259 94.3893 4.47812C94.3893 3.17711 93.3422 2.1617 91.946 2.1617H90.645V6.85801H91.946ZM99.8155 8.76192H97.7212V0.257787H99.8155V8.76192ZM109.97 8.76192H108.383L108.288 7.7465C107.685 8.50806 106.796 8.95231 105.591 8.95231C102.925 8.95231 101.085 7.0484 101.085 4.63678C101.085 2.00304 103.02 0.130859 105.622 0.130859C107.685 0.130859 109.494 1.30494 109.843 3.33577H107.621C107.241 2.35209 106.384 2.0665 105.622 2.0665C104.163 2.0665 103.179 3.08192 103.179 4.57332C103.179 5.90605 104.131 6.98493 105.654 6.98493C106.638 6.98493 107.399 6.50896 107.812 5.68393L105.369 5.6522V4.00214H109.906V8.76192H109.97ZM113.777 8.76192H111.683V0.257787H113.777V8.76192ZM119.521 2.1617V8.76192H117.427V2.1617H114.729V0.257787H122.25V2.12996H119.521V2.1617ZM124.09 7.30225L123.519 8.76192H121.266L124.884 0.226055H126.883L130.468 8.76192H128.247L127.676 7.30225H124.09ZM125.899 2.66941L124.788 5.49354H126.978L125.899 2.66941ZM137.703 8.76192H131.389V0.257787H133.515V6.88974H137.703V8.76192ZM90.5498 17.8689L90.0421 19.2334H87.9478L91.3113 11.3005H93.1835L96.5153 19.2017H94.4528L93.9133 17.8372H90.5498V17.8689ZM92.2316 13.5852L91.2161 16.1872H93.247L92.2316 13.5852ZM104.734 19.2334H103.274L103.179 18.2815C102.608 18.9796 101.783 19.3921 100.704 19.3921C98.2289 19.3921 96.5153 17.6468 96.5153 15.3939C96.5153 12.9505 98.3241 11.2053 100.736 11.2053C102.64 11.2053 104.321 12.2841 104.67 14.1563H102.608C102.259 13.2361 101.466 12.9822 100.767 12.9822C99.4347 12.9822 98.5145 13.9342 98.5145 15.3304C98.5145 16.5679 99.4029 17.5834 100.799 17.5834C101.719 17.5834 102.417 17.1391 102.798 16.3776L100.545 16.3458V14.791H104.766V19.2334H104.734ZM108.224 14.5054H111.715V16.1554H108.224V17.5199H112.223V19.2334H106.289V11.3639H112.223V13.0774H108.224V14.5054ZM120.568 19.2334H119.045L115.301 14.9179V19.2334H113.333V11.3639H114.825L118.632 15.8064V11.3639H120.6V19.2334H120.568ZM127.866 15.965H129.866C129.612 17.9959 128.057 19.3921 125.931 19.3921C123.551 19.3921 121.774 17.6786 121.774 15.2987C121.774 12.9188 123.583 11.2053 125.931 11.2053C128.089 11.2053 129.643 12.6015 129.866 14.6323H127.866C127.644 13.6486 126.946 13.0457 125.899 13.0457C124.63 13.0457 123.71 13.9977 123.71 15.2987C123.71 16.5997 124.598 17.5516 125.899 17.5516C126.978 17.5516 127.644 16.9487 127.866 15.965ZM134.752 16.8535V19.2334H132.785V16.8535L129.675 11.3639H131.833L133.769 14.791L135.704 11.3639H137.862L134.752 16.8535Z" fill="#676869"/>
<path d="M79.444 0.00585938L79.793 0.00585937V19.045H79.444V0.00585938Z" fill="#676869"/>
<path d="M69.6702 0.734298V2.06703H69.226V0.734298H68.6865V0.353516H70.2097V0.734298H69.6702ZM72.304 2.06703H71.8597V1.21027L71.4789 1.81318H71.2251L70.8443 1.21027V2.06703H70.4V0.353516L70.7174 0.353516L71.3203 1.27374L71.9232 0.353516H72.2405V2.06703H72.304Z" fill="#676869"/>
</g>
<defs>
<clipPath id="clip0_5_414">
<rect width="136.986" height="20" fill="white" transform="translate(0.875732)"/>
</clipPath>
</defs>
</svg>
