<svg width="142" height="18" viewBox="0 0 142 18" fill="none" xmlns="http://www.w3.org/2000/svg">
<path d="M110.965 0.00468939C107.573 -0.108874 103.905 1.84333 102.166 5.51882C101.086 7.5936 100.262 9.90272 99.7141 12.1704C99.6654 12.3694 99.6197 12.5693 99.5771 12.7697C99.523 13.0924 99.5185 13.5061 99.5474 13.9279C99.6817 15.7125 101.266 17.8702 103.878 17.9927H106.975C110.367 18.1054 114.032 16.1523 115.773 12.4768C116.853 10.402 117.676 8.09111 118.224 5.82526C118.273 5.62337 118.32 5.42328 118.361 5.22499C118.418 4.90143 118.421 4.48954 118.391 4.06683C118.257 2.28136 116.672 0.125463 114.061 0.0037881H110.964L110.965 0.00468939ZM52.8017 0.168725L54.1888 17.8179H56.9702H56.954H57.118C57.3848 17.8093 57.6457 17.7371 57.879 17.6072C58.1122 17.4774 58.3111 17.2938 58.4591 17.0716H58.4609L69.801 0.169626H66.8682L58.7448 12.3011L57.7913 0.170528H52.8008L52.8017 0.168725ZM71.828 0.168725L65.3198 17.8179H70.3157L76.8212 0.169626H71.828V0.168725ZM83.5494 0.168725C79.0618 0.222803 77.079 5.21598 79.5305 8.41378C80.7743 9.93246 82.5498 11.507 83.553 13.1699C84.1884 14.0694 83.5088 15.5692 82.2948 15.5836H74.3715L73.5513 17.8179H83.5827C87.5151 17.8062 90.1757 13.1762 87.5367 9.62512C86.3191 7.82613 84.3876 6.59767 83.2447 4.84014C82.5661 3.92352 83.2483 2.41836 84.4759 2.40214H91.8503L92.6714 0.168725H83.5494ZM96.1288 0.168725L89.625 17.8188H94.6191L101.126 0.169626H96.1288V0.168725ZM123.094 0.168725L116.559 17.8179H119.133L123.636 5.65401L123.659 5.87212L127.704 16.7958C127.826 17.0852 128.027 17.3344 128.284 17.5151C128.541 17.6958 128.843 17.8007 129.157 17.8179H131.51L138.046 0.169626H135.473L131.057 12.0974L126.353 0.169626H123.093L123.094 0.168725ZM112.106 1.82891C113.048 1.90102 113.796 2.69325 113.796 3.65404C113.803 3.89017 113.763 4.12361 113.674 4.33722L110.374 13.3249C109.708 15.05 108.16 16.1072 106.322 16.1613H105.834C105.374 16.1247 104.946 15.9165 104.632 15.5782C104.319 15.2399 104.145 14.7962 104.144 14.3353C104.136 14.1008 104.178 13.8672 104.267 13.6503L107.566 4.66258C108.233 2.93751 109.781 1.88299 111.622 1.82981H112.106V1.82891Z" fill="#404046" fill-opacity="0.4"/>
<path d="M6.50735 0.173678L0 17.8228H5.30412L8.4163 9.38222H14.7308L11.6186 17.8228H15.7619C16.4631 17.8228 17.0651 17.3803 17.3094 16.7629C17.3121 16.7539 17.3148 16.7512 17.3184 16.7467L23.4292 0.172776H18.1251L15.6195 6.96855H9.30498L11.8106 0.172776H6.50735V0.173678ZM26.7991 0.173678L20.2936 17.8228H25.595L32.1023 0.173678H26.7991ZM35.7102 0.173678L29.2038 17.8228H34.5061L37.0009 11.0541L38.3258 10.0366L41.8435 16.8558L41.8454 16.8467L41.8544 16.863C41.9995 17.1643 42.2315 17.4155 42.5204 17.5841C42.8093 17.7527 43.142 17.8312 43.4758 17.8093C43.4632 17.8093 43.4488 17.8183 43.4352 17.8183H47.9381L42.3366 6.95503L51.172 0.171875H47.209L38.5655 6.80812L41.0126 0.171875H35.7102V0.173678Z" fill="#515F66"/>
<path d="M141.955 1.73409C141.955 2.71741 141.183 3.48801 140.179 3.48801C139.186 3.48801 138.395 2.71741 138.395 1.73409C138.395 0.771509 139.186 0 140.179 0C141.183 0 141.955 0.771509 141.955 1.73409ZM138.838 1.73409C138.838 2.5056 139.408 3.11848 140.19 3.11848C140.952 3.11848 141.511 2.5056 141.511 1.74401C141.511 0.973399 140.952 0.348801 140.179 0.348801C139.407 0.348801 138.838 0.973399 138.838 1.73409ZM139.904 2.6426H139.503V0.910308C139.723 0.87106 139.947 0.852951 140.17 0.856231C140.496 0.856231 140.645 0.910308 140.771 0.984215C140.826 1.03088 140.87 1.08931 140.899 1.15516C140.928 1.221 140.942 1.29258 140.94 1.36456C140.94 1.55564 140.792 1.70255 140.58 1.76564V1.78727C140.75 1.85036 140.845 1.97834 140.898 2.21088C140.952 2.47496 140.983 2.58041 141.025 2.6435H140.592C140.539 2.58041 140.507 2.42178 140.454 2.22169C140.422 2.03062 140.317 1.9468 140.095 1.9468H139.904V2.6435V2.6426ZM139.915 1.66019H140.104C140.327 1.66019 140.507 1.58628 140.507 1.40602C140.507 1.24829 140.391 1.14284 140.137 1.14284C140.032 1.14284 139.957 1.15186 139.915 1.16357V1.65929V1.66019Z" fill="#404046" fill-opacity="0.4"/>
</svg>
