<svg width="117" height="40" viewBox="0 0 117 40" fill="none" xmlns="http://www.w3.org/2000/svg">
<path fill-rule="evenodd" clip-rule="evenodd" d="M22.1858 6.2683C21.5403 8.13488 22.3569 10.1119 24.0106 10.6842C25.6642 11.2565 27.5309 10.2084 28.1757 8.34116C28.8206 6.47458 28.004 4.49953 26.3483 3.92525C24.694 3.35429 22.8307 4.40238 22.1858 6.2683Z" fill="#515F66"/>
<path fill-rule="evenodd" clip-rule="evenodd" d="M21.271 19.4544C22.5314 19.9242 27.3707 20.2243 28.2837 17.8294C29.8542 13.7275 35.3776 8.06257 35.7523 7.08702C36.0797 6.23991 34.9178 5.31361 34.0986 6.13011C32.586 7.64467 30.1098 10.1973 26.4603 11.5495C24.4366 12.2988 22.9593 11.3133 22.4156 10.8754C19.3452 8.40395 20.6548 2.03095 20.537 0.929633C20.4758 0.339381 20.1943 0.0918319 19.8995 0H19.1821C19.1803 0.000196469 19.1785 0.000648677 19.1768 0.00133524L19.1615 0.00200033C19.0553 0.310334 18.9581 0.621672 18.87 0.935624C18.13 3.86692 16.125 13.5006 20.6468 21.5738C21.6543 23.3732 22.009 23.7405 20.165 25.3456C18.3177 26.9513 14.9065 28.5637 9.8649 27.6281C8.94189 27.4577 9.28527 26.1767 9.43567 25.1792C10.1517 20.37 9.90682 18.6146 9.16749 17.2471C8.3849 15.8057 3.97284 14.8049 0.692087 14.5434C0.238891 16.2127 0.00621773 17.9342 0 19.664V19.7485C0 26.946 3.84774 33.2438 9.59671 36.6981C9.92013 34.606 10.2569 31.867 10.9882 29.852C11.1033 29.5359 11.3882 28.7314 12.0802 28.5917C12.4762 28.5105 13.0418 28.5191 13.7146 28.6163C14.3036 28.7008 14.5072 29.1174 14.3195 29.8653C13.6787 32.4186 12.59 35.5429 11.7315 37.8094C13.6259 38.6511 15.6414 39.1878 17.7034 39.3999C17.6069 39.0265 17.5291 38.5674 17.4712 38.0137C17.2582 35.8989 16.4011 32.2363 16.5143 29.5046C16.5302 29.1686 16.6028 28.2676 17.1724 27.9734C17.5085 27.8018 18.0695 27.5016 18.7409 27.316C19.1375 27.2042 19.6466 27.5536 19.6932 28.3235C19.9055 31.7758 19.6786 36.587 19.4982 38.8322C19.4802 39.0651 19.4503 39.2794 19.4077 39.4764L19.7684 39.4884C20.3447 39.5755 20.9709 39.3366 21.1466 38.6486C22.001 35.316 22.0696 27.1363 23.8683 26.3258H23.8637C23.9934 26.2659 24.1259 26.2479 24.2616 26.2646C24.2616 26.2659 24.2616 26.2646 24.2636 26.2659H24.2616C26.2334 26.5261 28.8826 34.4909 30.7187 37.3955C31.4806 38.598 33.3978 37.5293 32.9706 36.4007C32.5434 35.2708 29.7404 27.9488 29.035 24.7786C28.3316 21.6098 28.3283 19.5529 27.024 19.9348C25.4002 20.4126 22.3178 20.8392 21.0334 19.6786C20.9742 19.6241 20.7952 19.276 21.271 19.4544Z" fill="#515F66"/>
<path d="M39.4883 30.4805H116.953V30.8678H39.4883V30.4805Z" fill="#09243C"/>
<path fill-rule="evenodd" clip-rule="evenodd" d="M108.082 23.7263H108.06C106.761 22.7813 104.934 22.3475 104.953 21.3047C104.964 20.4815 105.673 20.1335 106.318 20.1335C107.284 20.1335 108.042 20.5567 108.732 21.2475V20.0417C108.103 19.6182 107.379 19.3552 106.625 19.2757L106.479 19.2744C104.086 19.2744 103.121 20.4975 103.121 21.851C103.121 23.3782 104.667 24.1076 105.908 24.783C106.723 25.2368 107.409 25.668 107.452 26.2989C107.505 27.0522 107.2 27.9825 105.802 27.9592C104.673 27.9412 104.394 27.2964 103.875 27.0369C103.631 26.9158 103.354 26.9617 103.246 27.1473C102.994 27.5779 103.383 27.9199 103.531 28.0444C103.92 28.3731 104.813 28.8196 105.703 28.8196C107.732 28.8196 109.343 27.8394 109.343 25.9222C109.343 24.9141 108.792 24.2433 108.082 23.7263ZM65.666 27.5719V15.0136H63.7308V27.5852C63.7308 27.8418 63.8328 28.0879 64.0142 28.2694C64.1957 28.4508 64.4418 28.5528 64.6984 28.5528C64.955 28.5528 65.2011 28.4508 65.3826 28.2694C65.5641 28.0879 65.666 27.8418 65.666 27.5852V27.5719ZM85.4723 23.3084C85.4723 22.5484 85.8556 20.1661 87.3103 20.1661C88.6306 20.1661 88.9574 22.0806 88.9574 23.3084H85.4723ZM90.7182 28.1116C90.7222 27.8407 90.452 27.7449 90.2843 27.7915C89.8531 27.9167 89.4064 27.9803 88.9574 27.9805C86.2383 27.9805 85.473 26.1538 85.473 24.1069H90.8906C90.8906 22.4712 90.3955 19.504 87.3875 19.504C84.8222 19.504 83.3867 20.9274 83.3867 23.8687C83.3867 27.1021 85.1269 28.8562 88.0763 28.8562C89.1524 28.8562 90.0275 28.596 90.4939 28.431C90.5605 28.4087 90.6182 28.3656 90.6586 28.3082C90.699 28.2507 90.7199 28.1818 90.7182 28.1116ZM101.934 15.8893C101.315 15.8893 100.81 16.3045 100.81 16.9001C100.81 17.5449 101.251 17.8111 101.574 17.8444C101.784 17.859 101.916 17.9934 101.916 18.1911C101.916 18.8153 101.625 19.122 101.302 19.5146C101.153 19.7036 101.215 19.9073 101.425 19.9312C101.634 19.9578 101.82 19.8048 101.967 19.6344C102.212 19.3509 103.138 18.5557 103.138 17.1962C103.137 16.4516 102.649 15.8893 101.934 15.8893ZM57.4441 27.5832V21.9868C57.4441 20.5048 57.0775 19.3942 55.1084 19.3942C53.3083 19.3942 52.4245 20.9154 51.9873 21.7146H51.9474V15.0136H50.0155V27.5852C50.0155 27.8416 50.1174 28.0876 50.2987 28.2689C50.4801 28.4502 50.726 28.5521 50.9824 28.5521C51.2389 28.5521 51.4848 28.4502 51.6662 28.2689C51.8475 28.0876 51.9494 27.8416 51.9494 27.5852L51.948 27.5719V23.8381C51.948 22.6096 53.1732 20.5833 54.2659 20.5833C55.2228 20.5833 55.5103 21.2062 55.5103 23.5652V27.5852C55.5103 28.1182 55.9402 28.5528 56.4766 28.5528C57.0103 28.5528 57.4455 28.1182 57.4455 27.5852C57.4441 27.5852 57.4441 27.5839 57.4441 27.5832ZM61.5481 19.3636H59.6129V27.5566C59.6129 27.8132 59.7148 28.0593 59.8963 28.2408C60.0778 28.4222 60.3239 28.5241 60.5805 28.5241C60.8371 28.5241 61.0832 28.4222 61.2647 28.2408C61.4461 28.0593 61.5481 27.8132 61.5481 27.5566V19.3636ZM60.5798 17.7792C61.232 17.7792 61.7624 17.2508 61.7624 16.6C61.7624 16.2865 61.6378 15.9859 61.4162 15.7643C61.1946 15.5427 60.8939 15.4181 60.5805 15.4181C60.267 15.4181 59.9664 15.5427 59.7448 15.7643C59.5231 15.9859 59.3986 16.2865 59.3986 16.6C59.3986 17.2508 59.929 17.7792 60.5798 17.7792ZM75.6387 27.5746V15.0136H73.7049V20.7976H73.6656C73.3029 20.232 72.6893 19.3942 71.2726 19.3942C68.6107 19.3942 67.6531 21.4418 67.6531 24.071C67.6531 26.3508 68.268 28.7464 70.8893 28.7464C72.5942 28.7464 73.2443 27.7895 73.6656 27.148H73.7049V27.5852C73.7049 27.8418 73.8068 28.0879 73.9883 28.2694C74.1697 28.4508 74.4158 28.5528 74.6724 28.5528C74.9291 28.5528 75.1752 28.4508 75.3566 28.2694C75.5381 28.0879 75.64 27.8418 75.64 27.5852L75.6387 27.5746ZM71.7723 27.6358C70.1825 27.6358 69.7407 26.078 69.7407 24.0716C69.7407 22.2403 70.1825 20.3305 71.7723 20.3305C73.263 20.3305 73.7049 21.6947 73.7049 24.0716C73.7049 25.9409 73.3788 27.6358 71.7723 27.6358ZM82.3792 19.3942C80.8081 19.3942 80.1007 20.7783 79.7759 21.6547H79.7347V19.3875H77.8008V27.5852C77.8008 27.8416 77.9027 28.0876 78.084 28.2689C78.2654 28.4502 78.5113 28.5521 78.7677 28.5521C79.0242 28.5521 79.2701 28.4502 79.4515 28.2689C79.6328 28.0876 79.7347 27.8416 79.7347 27.5852V24.2453C79.7347 22.239 80.5964 21.0518 81.1907 21.0518C81.8249 21.0518 81.6911 21.499 82.3799 21.499C82.9349 21.499 83.4107 21.0898 83.4107 20.4077C83.41 19.7655 82.8184 19.3942 82.3792 19.3942ZM99.9243 27.6824V22.0999C99.9243 20.618 99.5589 19.508 97.6085 19.508C95.7904 19.508 94.9073 21.0099 94.4694 21.8071H94.4282V19.4967H92.4957V27.6963C92.505 27.9464 92.6108 28.1831 92.791 28.3567C92.9712 28.5303 93.2117 28.6274 93.4619 28.6274C93.7122 28.6274 93.9527 28.5303 94.1328 28.3567C94.313 28.1831 94.4189 27.9464 94.4282 27.6963V23.9299C94.4282 22.7228 95.654 20.6958 96.7653 20.6958C97.705 20.6958 97.9924 21.32 97.9924 23.677V27.6963C97.9924 28.2287 98.4223 28.6619 98.9594 28.6619C99.4897 28.6619 99.925 28.2287 99.925 27.6963L99.9243 27.6824ZM58.5528 12.031V7.23047C58.5528 5.95614 58.2394 4.99855 56.5591 4.99855C54.9939 4.99855 54.2372 6.29019 53.8593 6.9776H53.8247V4.9919H52.161V12.0437C52.161 12.5021 52.535 12.8748 52.9955 12.8748C53.4527 12.8748 53.8247 12.5028 53.8247 12.0437V8.80425C53.8247 7.76549 54.8808 6.02201 55.837 6.02201C56.6429 6.02201 56.8885 6.55836 56.8885 8.58465V12.0437C56.8885 12.2643 56.9762 12.476 57.1322 12.6321C57.2883 12.7881 57.4999 12.8758 57.7206 12.8758C57.9413 12.8758 58.153 12.7881 58.3091 12.6321C58.4651 12.476 58.5528 12.2643 58.5528 12.0437V12.031ZM101.991 4.99323H100.326V12.0417C100.326 12.2624 100.414 12.4742 100.57 12.6303C100.726 12.7864 100.938 12.8741 101.159 12.8741C101.38 12.8741 101.591 12.7864 101.747 12.6303C101.904 12.4742 101.991 12.2624 101.991 12.0417V4.99323ZM101.161 3.6284C101.721 3.6284 102.172 3.17655 102.172 2.61625C102.172 2.05527 101.721 1.60011 101.161 1.60011C100.892 1.60011 100.634 1.70696 100.444 1.89715C100.253 2.08733 100.147 2.34528 100.147 2.61425C100.147 2.88322 100.253 3.14117 100.444 3.33136C100.634 3.52155 100.892 3.6284 101.161 3.6284ZM68.8915 4.99323H67.2305V12.0417C67.2305 12.2619 67.318 12.4731 67.4738 12.6289C67.6295 12.7846 67.8408 12.8721 68.061 12.8721C68.2813 12.8721 68.4925 12.7846 68.6483 12.6289C68.804 12.4731 68.8915 12.2619 68.8915 12.0417V4.99323ZM68.0637 3.6284C68.6213 3.6284 69.0785 3.17655 69.0785 2.61625C69.078 2.34714 68.9709 2.08919 68.7808 1.89878C68.5906 1.70837 68.3328 1.60099 68.0637 1.60011C67.7939 1.59993 67.535 1.70685 67.344 1.89737C67.153 2.0879 67.0454 2.34645 67.0448 2.61625C67.0448 3.17722 67.5027 3.6284 68.0637 3.6284ZM50.0089 4.99323H48.3445V12.0417C48.3507 12.2583 48.441 12.464 48.5964 12.615C48.7518 12.7661 48.96 12.8506 49.1767 12.8506C49.3934 12.8506 49.6016 12.7661 49.757 12.615C49.9124 12.464 50.0027 12.2583 50.0089 12.0417V4.99323ZM49.1764 3.6284C49.4453 3.6284 49.7033 3.52155 49.8935 3.33136C50.0837 3.14117 50.1905 2.88322 50.1905 2.61425C50.1905 2.34528 50.0837 2.08733 49.8935 1.89715C49.7033 1.70696 49.4453 1.60011 49.1764 1.60011C48.9074 1.60011 48.6494 1.70696 48.4592 1.89715C48.269 2.08733 48.1622 2.34528 48.1622 2.61425C48.1622 2.88322 48.269 3.14117 48.4592 3.33136C48.6494 3.52155 48.9074 3.6284 49.1764 3.6284ZM77.492 12.031V7.23047C77.492 5.95614 77.1786 4.99855 75.5009 4.99855C73.9358 4.99855 73.1785 6.29019 72.7985 6.9776H72.7659V4.9919H71.1022V12.0437C71.1022 12.2643 71.1898 12.4758 71.3458 12.6318C71.5018 12.7878 71.7134 12.8755 71.934 12.8755C72.1547 12.8755 72.3662 12.7878 72.5222 12.6318C72.6782 12.4758 72.7659 12.2643 72.7659 12.0437V8.80425C72.7659 7.76549 73.8186 6.02201 74.7756 6.02201C75.5841 6.02201 75.8297 6.55836 75.8297 8.58465V12.0437C75.8383 12.2583 75.9296 12.4614 76.0845 12.6102C76.2395 12.7591 76.446 12.8422 76.6609 12.8422C76.8757 12.8422 77.0822 12.7591 77.2372 12.6102C77.3921 12.4614 77.4834 12.2583 77.492 12.0437V12.031ZM86.0173 12.031V7.23047C86.0173 5.95614 85.7079 4.99855 84.0289 4.99855C82.4624 4.99855 81.7051 6.29019 81.3245 6.9776H81.2932V4.9919H79.6295V12.0437C79.6295 12.5021 80.0002 12.8748 80.4613 12.8748C80.9238 12.8748 81.2932 12.5028 81.2932 12.0437V8.80425C81.2932 7.76549 82.3473 6.02201 83.3049 6.02201C84.1081 6.02201 84.3563 6.55836 84.3563 8.58465V12.0437C84.3563 12.2639 84.4438 12.4751 84.5996 12.6309C84.7553 12.7866 84.9666 12.8741 85.1868 12.8741C85.4071 12.8741 85.6183 12.7866 85.7741 12.6309C85.9298 12.4751 86.0173 12.2639 86.0173 12.0437V12.031ZM65.835 12.3524C65.857 12.5547 65.67 12.6705 65.5855 12.6985C65.0276 12.8914 64.4422 12.9923 63.8519 12.9972C61.4955 12.9972 60.1253 11.5239 60.1253 8.65719C60.1253 6.35607 61.1388 4.93068 63.2756 4.93068C65.2734 4.93068 65.9455 6.03133 65.9455 7.61909H64.2925C64.2925 6.69678 64.2 5.61076 63.2164 5.61076C62.3094 5.61076 61.8416 6.71341 61.8416 8.10553C61.8416 9.98542 62.6042 12.1395 64.5088 12.1395C64.8055 12.1373 65.1005 12.0925 65.3845 12.0064C65.5342 11.9625 65.7998 12.021 65.835 12.3524ZM99.0718 12.4749C99.0798 12.759 98.8389 12.8988 98.7065 12.9154C98.4649 12.944 98.2218 12.9582 97.9785 12.958C96.4965 12.958 95.636 12.5041 95.636 11.0688V5.36189H94.4548V4.55137H95.636V2.80324L97.2152 1.84965V4.55137H99.2442V5.36189H97.2152V10.4466C97.2152 11.5379 97.323 12.0689 98.3391 12.0689C98.421 12.0689 98.5068 12.0663 98.59 12.0576C98.7611 12.0423 99.0652 12.1574 99.0718 12.4749ZM93.3688 7.53857C93.3634 6.19569 93.0567 4.93001 90.6616 4.93001C88.3205 4.93001 87.8853 6.02601 87.8061 7.06411H89.4605C89.523 6.24294 89.6934 5.54356 90.6616 5.54356C91.7064 5.54356 91.7064 6.79926 91.7064 7.55853L91.7091 7.72489C90.7162 7.78146 87.5639 7.91987 87.5639 10.6795C87.5639 11.9232 88.423 12.9194 89.5942 12.9194C90.7808 12.9194 91.4362 11.9977 91.6858 11.4694H91.7184L91.7224 11.4554V12.1601C91.7224 12.5907 92.0931 12.94 92.5529 12.94C93.0114 12.94 93.3861 12.5913 93.3861 12.1601V7.5379L93.3688 7.53857ZM91.7177 9.56952C91.7177 11.0941 90.7302 11.7342 90.1852 11.7342C89.6708 11.7342 89.2808 11.2072 89.2808 10.3973C89.2808 8.74103 91.0603 8.57201 91.7177 8.51545V9.56952ZM47.8694 26.6123C43.102 28.5687 41.2813 25.2887 40.8886 23.7609H40.878C40.6837 22.9291 40.6091 22.0134 40.6091 21.1057C40.6091 19.301 41.0164 16.1229 43.5831 16.1229C45.4384 16.1229 45.8457 17.666 45.8457 18.7188H48.453C48.453 16.5933 46.9058 14.9949 43.7668 14.9949C39.4665 14.9949 38.2228 18.3049 38.2228 21.4438C38.2228 24.7344 39.5936 27.7383 42.9123 28.427C45.4517 28.9547 47.5832 27.9246 48.3565 27.2598C48.4497 27.1773 48.6274 26.9717 48.4856 26.7261C48.3645 26.5158 48.087 26.5245 47.8694 26.6123ZM46.4759 11.6391C42.334 13.3386 40.7542 10.4892 40.4128 9.1616H40.4015C40.2325 8.43892 40.1679 7.64371 40.1679 6.85449C40.1679 5.28736 40.5226 2.52708 42.7539 2.52708C44.3637 2.52708 44.7191 3.86663 44.7191 4.78095H46.985C46.985 2.93567 45.6394 1.54688 42.9123 1.54688C39.177 1.54688 38.0977 4.42161 38.0977 7.14995C38.0977 10.0074 39.2888 12.6173 42.173 13.2162C44.377 13.6727 46.2283 12.7783 46.9005 12.202C46.9836 12.1308 47.1354 11.9518 47.0123 11.7389C46.9058 11.5545 46.6649 11.5619 46.4759 11.6391Z" fill="#09243C"/>
<path fill-rule="evenodd" clip-rule="evenodd" d="M1.23047 12.8675C4.82067 12.936 8.58189 13.1636 10.6735 13.4611C11.3789 13.5609 12.4536 14.0653 13.2834 13.6168C14.3229 13.0591 14.2337 12.3398 14.3621 11.6344C15.0522 7.83604 16.2002 3.30567 17.1551 0.811567C17.2044 0.683136 17.3108 0.394999 17.4107 0.132812C9.9501 1.0152 3.76457 6.0533 1.23047 12.8675ZM13.9476 9.06911C13.8198 7.40283 12.8948 6.53775 11.8553 6.10787C11.6411 6.02003 11.4248 6.14647 11.6777 6.3115C11.9625 6.49782 13.712 7.85933 13.3247 10.0613C12.6918 13.0219 10.1071 12.387 9.35118 12.0896C9.3179 12.0756 9.28729 12.055 9.25402 12.041C8.53664 11.6224 8.09211 11.0741 8.00893 10.9144C7.95369 10.8139 7.75339 10.8971 7.84722 11.1074C8.04297 11.5594 8.33503 11.9631 8.70301 12.2905C7.14981 12.6186 6.37786 11.8094 6.37786 11.8094C6.60279 11.512 6.74188 10.8412 6.71459 10.4493C6.47902 7.24712 6.82373 6.32081 8.12339 5.31998C9.30592 4.41031 11.1832 4.67582 12.1561 5.26874C13.2575 5.93951 14.5991 5.67134 14.5991 5.67134C14.8187 7.46805 14.068 8.86149 13.9476 9.06911Z" fill="#515F66"/>
<path fill-rule="evenodd" clip-rule="evenodd" d="M42.7842 32.7473H42.7383V35.117H40.2827V32.7473H39.4961V38.3045H40.2827V35.7219H42.7383V38.3045H43.5262V32.7473H42.7842ZM45.9644 34.3564C44.8358 34.3564 44.1856 35.0937 44.1856 36.3807C44.1856 37.6756 44.8178 38.391 45.9644 38.391C46.5753 38.391 47.0412 38.194 47.3486 37.8047C47.6181 37.4647 47.7612 36.9723 47.7612 36.3807C47.7612 35.0937 47.1071 34.3564 45.9644 34.3564ZM45.9644 37.85C45.3256 37.85 44.9736 37.3256 44.9736 36.3727C44.9736 35.4218 45.3256 34.8967 45.9644 34.8967C46.6166 34.8967 46.9746 35.4218 46.9746 36.3727C46.9746 37.3256 46.6173 37.85 45.9644 37.85ZM49.9333 36.1118L49.8807 36.0892C49.884 36.0899 49.5254 35.8989 49.5234 35.8976L49.351 35.821C49.0582 35.6946 48.78 35.5742 48.78 35.3452C48.78 35.089 49.1287 34.8974 49.5939 34.8974C50.0052 34.8974 50.4131 35.0185 50.5721 35.0697L50.632 35.0884V34.4921L50.5941 34.4842L50.5176 34.4688C50.2119 34.397 49.8992 34.3595 49.5853 34.3571C48.6449 34.3571 48.0826 34.747 48.0826 35.3998C48.0826 35.9827 48.5638 36.2143 48.9477 36.4006L49.0728 36.4612C49.0735 36.4625 49.4582 36.6455 49.4582 36.6455C49.4967 36.6642 49.5433 36.6855 49.5926 36.7074C49.8488 36.8252 50.2021 36.9869 50.2021 37.2857C50.2021 37.7775 49.5806 37.8507 49.2099 37.8507C48.9145 37.8507 48.5564 37.7874 48.1478 37.6617L48.066 37.637V38.222L48.0973 38.232C48.3076 38.2912 48.7374 38.3917 49.2712 38.3917C50.3206 38.3917 50.8996 37.9711 50.8996 37.2072C50.8982 36.5524 50.3632 36.3088 49.9333 36.1118ZM53.3471 34.3564C52.7522 34.3564 52.4162 34.6884 52.2658 34.9626V34.4436H51.567V39.9994H52.2658V37.8074C52.4082 38.0722 52.7103 38.391 53.3551 38.391C54.4578 38.391 54.8478 37.3323 54.8478 36.3434C54.8471 35.0245 54.3427 34.3564 53.3471 34.3564ZM53.2207 34.8974C53.9141 34.8974 54.0612 35.6274 54.0612 36.2403C54.0612 36.9749 53.9115 37.8507 53.2014 37.8507C52.5552 37.8507 52.2658 37.1007 52.2658 36.3587C52.2651 35.7718 52.5193 34.8974 53.2207 34.8974ZM58.1924 34.4436V33.1919L58.1272 33.2291L57.5196 33.5698L57.4943 33.5825V34.4442H56.8735V34.9859H57.4943V37.3722C57.4943 38.0856 57.8623 38.391 58.7208 38.391C58.8885 38.391 59.0682 38.3777 59.2632 38.3511L59.3024 38.3444V37.7628L59.2439 37.7801L59.1999 37.7941C59.0895 37.826 59.0116 37.8493 58.8452 37.8493C58.406 37.8493 58.1931 37.657 58.1931 37.2611V34.9846H59.339V34.4429L58.1924 34.4436ZM61.3594 34.3564C60.2141 34.3564 59.7969 34.9233 59.7882 35.4544V35.4996H60.5502L60.5568 35.4604C60.6007 35.1682 60.7325 34.8961 61.378 34.8961C61.7899 34.8961 62.0355 35.0611 62.1134 35.3845C62.134 35.4976 62.1353 35.8636 62.1353 36.0559C62.0113 36.0712 61.8863 36.0774 61.7613 36.0746C60.9295 36.0746 59.6911 36.3986 59.6911 37.291C59.6911 37.9784 60.1343 38.389 60.8789 38.389C61.5564 38.389 61.9769 38.0889 62.1566 37.8719V38.3025H62.8361V35.6121C62.8361 35.0731 62.6823 34.3564 61.3594 34.3564ZM61.032 37.85C60.7618 37.85 60.4756 37.6936 60.4756 37.3489C60.4756 36.7287 61.4506 36.593 61.8245 36.593H62.1353C62.1327 36.9716 62.0887 37.0674 61.9949 37.2597L61.9809 37.2903C61.8219 37.6151 61.4206 37.85 61.032 37.85ZM63.8083 32.7473H63.7637V38.3045H64.4631V32.7473H63.8083ZM72.9492 32.7473H72.9192L72.9072 32.7786L71.2675 37.3369L69.6245 32.7786L69.6138 32.7473H68.4925V38.3045H69.2086V33.6517L70.9541 38.2745L70.9634 38.3045H71.5623L71.5717 38.2745L73.3185 33.649V38.3045H74.0319V32.7473H72.9492ZM76.4089 34.3564C75.3096 34.3564 74.7027 35.0285 74.7027 36.2469C74.7027 37.6297 75.4567 38.391 76.8215 38.391C77.2022 38.391 77.5362 38.3531 77.8078 38.2799L77.8404 38.2705V37.7369L77.7871 37.7475L77.6767 37.7728C77.5183 37.8101 77.3359 37.85 76.9566 37.85C75.7987 37.85 75.4919 36.8378 75.4919 36.2396V36.0613H77.9395V35.8343C77.9389 34.9094 77.3672 34.3564 76.4089 34.3564ZM77.1489 35.5209H75.5478C75.609 35.2987 75.796 34.8967 76.3863 34.8967C76.9706 34.8974 77.1303 35.3146 77.1489 35.5209ZM81.1258 32.7473H81.0805V34.9446C80.8716 34.56 80.4982 34.3564 79.9898 34.3564C78.8891 34.3564 78.4965 35.4144 78.4965 36.4053C78.4965 37.7222 79.0023 38.3903 79.9991 38.3903C80.5921 38.3903 80.9295 38.0596 81.0805 37.7848V38.3038H81.7786V32.7467L81.1258 32.7473ZM80.1249 37.85C79.5659 37.85 79.2838 37.3988 79.2838 36.5084C79.2838 35.7738 79.4335 34.8967 80.1429 34.8967C80.7904 34.8967 81.0799 35.6474 81.0799 36.39C81.0805 36.9543 80.8203 37.85 80.1249 37.85ZM82.8221 34.4436H82.7768V38.3045H83.4742V34.4436H82.8221ZM86.1141 34.3564C84.9482 34.3564 84.3347 35.0238 84.3347 36.2862C84.3347 37.6237 85.1485 38.3903 86.57 38.3903C86.9466 38.3903 87.1795 38.3624 87.4657 38.2865L87.4996 38.2772V37.7555L87.4411 37.7721C87.2321 37.8367 86.9573 37.8493 86.765 37.8493C85.3355 37.8493 85.1219 36.7953 85.1219 36.1677C85.1219 35.5808 85.3741 34.8967 86.0875 34.8967C86.709 34.8967 86.8022 35.3605 86.8022 35.6367V35.6813H87.6134V35.6367C87.6141 35.2521 87.4684 34.3564 86.1141 34.3564ZM89.6238 34.3564C88.4799 34.3564 88.0613 34.9233 88.0513 35.4544L88.0486 35.4996H88.8126L88.8206 35.4604C88.8618 35.1682 88.9923 34.8961 89.6418 34.8961C90.0537 34.8961 90.2993 35.0611 90.3764 35.3845C90.3997 35.4976 90.4011 35.8636 90.4024 36.0559C90.2779 36.0711 90.1525 36.0773 90.0271 36.0746C89.1939 36.0746 87.9528 36.3986 87.9528 37.291C87.9528 37.9784 88.3974 38.389 89.142 38.389C89.8181 38.389 90.2414 38.0889 90.4197 37.8726V38.3025H91.0991V35.6121C91.0985 35.0731 90.9468 34.3564 89.6238 34.3564ZM89.2944 37.85C89.0269 37.85 88.7394 37.6936 88.7394 37.3489C88.7394 36.7287 89.713 36.593 90.0883 36.593H90.3991C90.3964 36.9709 90.3538 37.0654 90.26 37.2571L90.2447 37.2903C90.0863 37.6151 89.6844 37.85 89.2944 37.85ZM92.1193 32.7473H92.0734V38.3045H92.7715V32.7473H92.1193ZM98.4719 32.6602C96.4089 32.6602 96.1021 34.3917 96.1021 35.4231C96.1021 35.9754 96.1866 36.7686 96.5919 37.4068C97.0065 38.0596 97.654 38.3903 98.5171 38.3903C99.3336 38.3903 99.7908 38.21 100.065 38.1029C100.102 38.0882 100.138 38.0749 100.167 38.0623L100.196 38.0516V37.2943L100.127 37.3416C99.9632 37.4507 99.4654 37.7848 98.6841 37.7848C97.1749 37.7848 96.9506 36.3241 96.9506 35.453C96.9506 34.001 97.463 33.2644 98.4712 33.2644C99.1274 33.2644 99.5526 33.6637 99.5526 34.2799V34.3251H100.427V34.2799C100.428 33.297 99.6604 32.6602 98.4719 32.6602ZM102.286 34.3564C101.188 34.3564 100.581 35.0285 100.581 36.2469C100.581 37.6297 101.332 38.391 102.7 38.391C103.079 38.391 103.413 38.3531 103.686 38.2799L103.718 38.2705V37.7369L103.665 37.7475C103.629 37.7559 103.592 37.7638 103.556 37.7715C103.395 37.8101 103.214 37.85 102.833 37.85C101.678 37.85 101.369 36.8378 101.369 36.2396V36.0613H103.819V35.8343C103.818 34.9094 103.243 34.3564 102.286 34.3564ZM103.025 35.5209H101.425C101.478 35.3233 101.665 34.8967 102.26 34.8967C102.849 34.8974 103.007 35.3146 103.025 35.5209ZM106.541 34.3564C105.707 34.3564 105.381 34.8515 105.237 35.1749V34.4429H104.541V38.3038H105.238V36.7074C105.238 36.0034 105.651 34.9852 106.4 34.9852C106.951 34.9852 106.981 35.4344 106.981 36.1677V38.3038H107.677V35.5655C107.677 34.9633 107.326 34.3564 106.541 34.3564ZM109.515 34.4436L109.507 33.2684V33.1912L109.437 33.2291L108.84 33.5698L108.817 33.5825V34.4442H108.12V34.9859H108.817V37.3722C108.817 38.0856 109.183 38.391 110.042 38.391C110.209 38.391 110.386 38.3777 110.585 38.3511L110.626 38.3457V37.7628L110.566 37.7794L110.52 37.7941C110.412 37.826 110.334 37.8493 110.167 37.8493C109.728 37.8493 109.515 37.657 109.515 37.2611V34.9846H110.659V34.4429L109.515 34.4436ZM112.513 34.4748C111.411 34.4748 110.804 35.1469 110.804 36.366C110.804 37.7482 111.556 38.5094 112.922 38.5094C113.304 38.5094 113.635 38.4715 113.907 38.397L113.941 38.387V37.8546L113.886 37.866C113.85 37.8726 113.817 37.8813 113.782 37.8886C113.62 37.9265 113.44 37.9684 113.057 37.9684C111.9 37.9684 111.591 36.955 111.591 36.3574V36.179H114.041V35.9521C114.04 35.0272 113.47 34.4748 112.513 34.4748ZM113.248 35.6387H111.648C111.703 35.4391 111.89 35.0158 112.484 35.0158C113.072 35.0158 113.229 35.4311 113.248 35.6387ZM116.889 34.4748C116.011 34.4748 115.65 34.9214 115.493 35.1875V34.5613H114.796V38.4223H115.493V36.8172C115.493 35.7525 116.004 35.1423 116.889 35.1423H116.935V34.4748H116.889ZM55.6383 34.4436H55.5931V38.3045H56.2912V34.4436H55.6383ZM83.1315 33.7961C83.2462 33.7961 83.3562 33.7505 83.4374 33.6694C83.5185 33.5883 83.5641 33.4783 83.5641 33.3635C83.5641 33.2488 83.5185 33.1388 83.4374 33.0577C83.3562 32.9766 83.2462 32.931 83.1315 32.931C83.0168 32.931 82.9068 32.9766 82.8256 33.0577C82.7445 33.1388 82.6989 33.2488 82.6989 33.3635C82.6989 33.4783 82.7445 33.5883 82.8256 33.6694C82.9068 33.7505 83.0168 33.7961 83.1315 33.7961ZM55.9598 33.7961C56.1987 33.7961 56.3917 33.6031 56.3917 33.3649C56.3917 33.2498 56.3459 33.1394 56.2646 33.0581C56.1832 32.9767 56.0728 32.931 55.9578 32.931C55.8427 32.931 55.7323 32.9767 55.651 33.0581C55.5696 33.1394 55.5239 33.2498 55.5239 33.3649C55.5239 33.6031 55.7189 33.7961 55.9598 33.7961Z" fill="#09243C"/>
</svg>
