<svg width="121" height="40" viewBox="0 0 121 40" fill="none" xmlns="http://www.w3.org/2000/svg">
<path d="M66.3291 32.5612C66.3291 32.4833 66.3921 32.0345 66.115 31.7228C65.9596 31.5521 65.4641 31.4131 65.0925 31.4131C64.1793 31.4131 63.6082 31.6132 63.499 32.1272C63.329 32.8857 64.3031 33.1216 65.0463 33.1974C66.516 33.3533 69.132 33.9285 68.5735 36.4902C67.9709 39.2226 65.2479 40 63.3458 40C60.8999 40 58.7332 39.1152 59.2895 36.3048L62.1994 36.1953C61.9685 37.1581 62.4304 37.7332 63.7615 37.7332C64.427 37.7163 65.3088 37.6068 65.418 36.9116C65.6342 35.5127 63.6838 36.0562 61.6263 35.0787C60.6668 34.611 60.2028 33.524 60.4506 32.4053C61.0846 29.9531 63.7006 29.1147 65.3088 29.1147C67.4754 29.1147 69.7198 29.9215 69.2243 32.4369L66.3312 32.5633L66.3291 32.5612ZM68.7289 39.5808L70.9585 29.2368H78.945L78.4495 31.5058H73.3729L73.0328 33.1069H77.5677L77.0722 35.3716H72.5373L72.1174 37.2971H77.2108L76.7153 39.5808H68.7289ZM95.6422 29.239H98.6151L92.7176 39.5808H90.0093L88.5396 29.2368H91.7434L92.346 36.0563H92.3775L95.6422 29.239ZM97.0656 39.5808L99.2953 29.2368H102.205L99.9755 39.5808H97.0656ZM101.416 39.5808L103.643 29.2368H111.613L111.134 31.5058H106.043L105.703 33.1069H110.238L109.742 35.3716H105.222L104.804 37.2971H109.881L109.385 39.5808H101.416ZM85.7704 34.5794C86.8516 34.828 87.0994 35.0766 86.8831 37.6552C86.7907 38.9129 86.9146 38.7423 86.9755 39.5808H84.0068C83.8368 38.6959 83.9291 37.1265 83.9291 37.1265C83.9291 37.1265 84.0677 35.8835 82.5834 35.8835H81.5L80.7106 39.5808H77.8007L80.0304 29.2368H84.8739C86.6522 29.2368 88.3255 29.4264 88.2163 31.708C88.1239 33.2923 86.7467 34.1602 85.7704 34.5794ZM83.1229 33.6167C84.0509 33.6167 84.8865 33.6946 85.1175 32.7003C85.3673 31.6469 84.4687 31.5058 83.5407 31.5058H82.4112L81.9913 33.6167H83.1229ZM29.607 18.164H97.1601L32.8402 14.5615L29.607 18.164ZM34.018 13.2765H83.6499L37.2659 9.66767L34.018 13.2765ZM38.4269 8.38468H69.766L41.6622 4.7759L38.4269 8.38468ZM42.838 3.49292H55.838L46.0901 0L42.838 3.49292ZM62.802 21.4273H0L59.552 25.0445L62.802 21.4273ZM58.3931 26.317H12.1308L55.1557 29.9363L58.3931 26.317ZM53.982 31.2108H24.732L50.7299 34.828L53.982 31.2108ZM49.571 36.1026H36.571L46.321 39.5955L49.571 36.1026ZM118.564 34.5794C119.646 34.828 119.893 35.0766 119.677 37.6552C119.568 38.9129 119.692 38.7423 119.77 39.5808H116.801C116.631 38.6959 116.723 37.1265 116.723 37.1265C116.723 37.1265 116.862 35.8835 115.377 35.8835H114.294L113.505 39.5808H110.595L112.822 29.2368H117.668C119.446 29.2368 121.117 29.4264 120.994 31.708C120.918 33.2923 119.541 34.1602 118.564 34.5794ZM115.917 33.6167C116.845 33.6167 117.681 33.6946 117.911 32.7003C118.161 31.6469 117.263 31.5058 116.335 31.5058H115.205L114.785 33.6167H115.917ZM17.241 0.619371L16.0968 6.33065L11.5409 2.7029L14.3122 7.82641L8.50713 7.97388L13.9112 10.1122L9.55897 13.9738L15.0659 12.1241L14.2135 17.8859L17.2431 12.9246L20.2769 17.8859L19.4245 12.1241L24.9188 13.9759L20.5708 10.1122L25.9707 7.97388L20.1677 7.82641L22.9537 2.70079L18.402 6.33065L17.241 0.619371Z" fill="#515F66"/>
</svg>
