<svg width="92" height="52" viewBox="0 0 92 52" fill="none" xmlns="http://www.w3.org/2000/svg">
<path d="M30.4417 24.7695C29.3837 24.7695 28.5195 25.6354 28.5195 26.7125C28.5406 27.2082 28.7523 27.6766 29.1105 28.0199C29.4687 28.3632 29.9456 28.5548 30.4417 28.5548C30.9379 28.5548 31.4148 28.3632 31.773 28.0199C32.1312 27.6766 32.3429 27.2082 32.3639 26.7125C32.3639 25.6337 31.4981 24.7695 30.4417 24.7695Z" fill="#515F66"/>
<path d="M72.462 20.3078L71.9026 20.2091C71.0368 20.294 70.1709 20.6126 69.7103 20.7685L68.692 21.1512L68.4807 21.1096L68.4253 20.8966L68.5794 20.2819L64.406 21.3001L62.657 29.1084L62.3106 29.8202L61.5608 30.2618L60.8681 30.0886L60.714 29.3422L62.4059 21.8231L58.7918 22.7271L57.138 30.0349L56.4263 30.8419L55.9067 31.093L55.2712 30.8419L55.2158 30.1319L56.7743 23.2067L53.0044 24.1488L51.5047 30.3812C51.3125 31.0531 50.6579 31.6887 50.2925 31.9762L49.3886 32.1684L49.2344 31.5727C49.2916 31.2644 49.3747 30.8627 49.4474 30.4003L50.083 27.5533L50.7168 24.7462L47.2551 25.5913L46.9867 26.8208C46.6213 26.4191 46.2178 26.0918 45.7554 25.8996C45.2658 25.6825 44.7193 25.629 44.1969 25.7472C42.7561 26.0727 41.6599 27.0338 40.872 28.2841C40.1204 29.4963 39.5247 30.977 39.4277 32.4004L39.2892 32.513L39.2476 32.4957L39.1628 32.3987V32.416C39.0797 31.8965 38.7991 31.4722 38.6052 31.2229L37.6822 30.7813L36.9514 31.1449L36.6622 32.0887L37.0657 33.0308L38.0476 33.6455C37.9237 34.2749 37.6681 34.8709 37.2977 35.3946C36.9323 35.895 36.5081 36.2414 36.1063 36.2414L35.547 35.876L35.4361 34.953C35.4361 34.4335 35.4777 33.8187 35.5747 33.1641C35.6595 32.5113 35.7877 31.7787 35.94 31.0687C37.0761 30.4332 38.0943 29.7215 38.9013 28.8002C39.71 27.8772 40.2676 26.7031 40.4598 25.1844C40.5152 24.625 40.5152 24.0293 40.3629 23.5306L39.7671 22.5487H39.7827L39.7394 22.4517L39.8243 22.3963C44.9588 22.5348 50.4397 22.5348 56.0158 21.8369C61.5747 21.165 67.3811 19.8178 72.8048 17.241L72.978 16.9916L72.6317 16.9362C57.8047 21.7815 45.3225 21.243 35.1123 20.5312C24.8605 19.8212 16.9778 19.1095 11.535 24.012C8.97722 26.3204 8.03517 28.9162 7.8239 31.4549C7.59358 34.0126 8.09231 36.4734 8.43866 38.5896C8.66897 39.9542 8.785 41.2045 8.63088 42.1465C8.4577 43.0522 8.03517 43.686 7.16931 43.7813C5.55362 43.9752 4.97695 42.0495 4.78473 40.0892C4.61156 38.0891 4.82629 36.089 4.82629 36.089L0 37.0518C0 37.0518 0.211269 39.1853 1.1741 41.3014C2.1733 43.3968 3.88597 45.532 6.86626 45.532C8.92354 45.532 10.3661 44.59 11.2891 43.2237C12.2121 41.8383 12.6156 40.0131 12.6156 38.2051L15.2131 36.8977L13.8468 40.3784L12.4632 43.8592L17.1942 42.6678L19.7918 35.6093C20.1174 34.6863 20.5208 34.262 20.8672 34.0715C21.2135 33.8793 21.9634 33.8395 21.6949 34.8595C21.6118 35.1088 21.4646 35.6093 21.023 36.9375C20.5607 38.264 20.0412 39.6286 19.984 40.0892C19.9684 40.5326 20.0394 40.9949 20.3113 41.2633C20.5797 41.5716 21.0421 41.7067 21.733 41.5525C22.1002 41.4971 22.753 41.0157 23.5808 40.3403C24.3878 39.6684 25.3489 38.7835 26.31 37.8224C26.213 38.5913 26.2546 39.2459 26.5611 39.6494C26.8676 40.0338 27.4269 40.188 28.3292 39.9957C29.079 39.8035 29.8496 39.2268 30.5423 38.5151C31.235 37.8224 31.8497 36.9947 32.3294 36.2847C32.5805 37.341 33.0619 37.9766 33.6178 38.3419C34.1945 38.6883 34.83 38.7264 35.3876 38.5913C36.515 38.3227 37.4981 37.6356 38.1376 36.6691C38.6861 35.8604 39.0709 34.952 39.2701 33.9953L39.4831 34.0508C39.6736 34.9928 40.3871 35.7236 41.0781 36.1461C41.7707 36.5704 42.5985 36.7055 43.3293 36.5323L44.5207 35.9556C44.9051 35.6872 45.3086 35.301 45.7329 34.8404L46.1935 35.4569L46.9815 35.5539C47.3676 35.4708 47.9824 35.1123 48.7132 34.5928C49.4232 34.0542 50.251 33.3425 51.0597 32.5147C51.0779 32.763 51.151 33.0041 51.2738 33.2206C51.3966 33.4372 51.566 33.6237 51.7697 33.7667L53.0217 34.0542C53.5984 33.881 54.2512 33.6126 54.8868 33.2282C55.5882 32.8039 56.2339 32.2937 56.809 31.7095L57.138 32.6134L58.0974 32.7866L62.1946 31.5952L66.2901 30.4211L67.963 23.018L68.1171 22.7669L68.3664 22.6145L68.8479 22.5019H69.0591L69.0747 22.6561L69.0591 22.7946C68.8479 23.6414 68.9483 24.5263 69.2895 25.1999C69.6167 25.8926 70.1934 26.4121 70.9051 26.5853C71.6359 26.7585 72.3667 26.5853 72.9832 26.1022C73.598 25.6796 74.0967 24.9488 74.3097 24.102C74.521 23.2189 74.4205 22.3703 74.0967 21.6794C73.7711 21.0075 73.1927 20.4879 72.462 20.3148M38.8666 24.4293C39.2892 24.4293 39.3082 24.8726 39.3082 25.3541C39.3082 26.8728 37.8848 28.3724 36.347 29.4496C37.0968 26.8156 38.1151 24.4293 38.8666 24.4293ZM21.307 31.4688L21.4196 31.1224C22.2075 28.8158 23.3037 26.2961 24.1696 26.2961C24.7462 26.2961 24.7462 26.9109 24.3999 27.7767C23.9583 28.892 22.7271 30.2964 21.3036 31.4688M32.1303 34.5079L32.1476 34.9893C31.5501 35.6249 30.8384 36.257 30.589 36.1808L30.4349 35.3547L31.6471 29.9518L28.0313 30.8557C28.0313 30.8557 27.2226 33.7789 26.6459 36.2015L26.5905 36.3557C26.0329 37.0276 25.4943 37.509 25.0718 37.3168C24.5332 37.0466 26.5524 33.7581 25.9377 32.4125C25.5515 31.4895 24.1678 31.5467 23.1288 31.9502L22.263 32.3156C24.1869 30.6237 25.7645 28.6045 25.7645 26.2771C25.7645 24.4899 24.9748 23.8734 23.8423 23.8734C21.3399 23.8734 18.8982 27.6243 17.5717 30.873L15.956 35.0084C15.2443 35.4119 14.5533 35.7773 13.878 36.1046C13.3585 36.3349 12.8978 36.5479 12.5324 36.7211C12.2051 32.0281 11.4934 28.298 15.3032 25.2207C19.7831 21.6239 28.014 22.0673 37.7826 22.3547L37.8796 22.4119L37.7965 22.5089H37.838C35.0499 23.8734 32.1268 30.163 32.1268 34.5097M46.2039 29.9518C46.1485 30.6064 46.0117 31.1241 45.8576 31.9311C45.4922 33.5866 44.7233 34.3936 44.1086 34.5097C43.2237 34.7001 43.0106 33.1624 43.3189 31.3164C43.6081 29.4513 44.396 27.8737 45.1649 27.6815C45.9147 27.5083 46.3771 28.3569 46.2039 29.9518ZM91.6338 18.5761L91.2874 18.7683C90.1913 20.1156 87.1919 22.7513 86.4421 22.6734C86.172 22.6561 85.7304 22.5331 85.9988 21.5581L87.6924 16.0963L83.7302 17.0972C83.7302 17.0972 83.6471 17.4799 83.519 18.0964C82.8263 17.6168 81.7492 17.2306 80.4798 17.3276C76.4605 17.6358 75.115 21.5789 75.0561 24.5973C74.973 27.0979 77.2882 28.3482 79.1343 27.8876C80.0174 27.6555 80.9023 27.0581 81.8063 26.097C82.0366 26.6563 82.4799 27.0009 83.1709 26.8087C85.0567 26.2892 89.057 23.328 91.594 18.9813L91.6373 18.5796M82.6947 21.3486C82.6098 21.7521 82.4817 22.2907 82.3864 22.7703C81.9258 24.8103 80.9266 25.7905 80.0018 25.9827C78.9836 26.1957 78.8104 24.5402 79.2918 22.4829C79.7906 20.4256 81.0599 18.4445 82.118 18.4445C83.0012 18.4445 83.0012 19.5216 82.6947 21.3486ZM25.7679 18.0947C28.9214 10.0578 36.7488 4.34488 45.9026 4.34488C54.7101 4.34488 62.3072 9.65259 65.6719 17.2115L69.9804 16.1154C66.0771 6.6723 56.7674 0 45.9026 0C34.307 0 24.4813 7.59531 21.1339 18.0964M67.0192 30.7501C64.8459 40.4027 56.2115 47.6343 45.9026 47.6343C39.6909 47.6343 34.0958 44.9796 30.1527 40.8079L25.4026 41.9803C27.8298 45.1025 30.9387 47.6285 34.4918 49.3651C38.0448 51.1017 41.9479 52.003 45.9026 52C59.0567 52 69.9042 42.2504 71.6532 29.5968" fill="#515F66"/>
</svg>
