<svg width="146" height="32" viewBox="0 0 146 32" fill="none" xmlns="http://www.w3.org/2000/svg">
<g clip-path="url(#clip0_1_673)">
<path d="M36.8212 10.9674C36.8212 13.5681 38.1757 14.4727 39.8689 14.4727C40.7719 14.4727 41.7879 14.3596 42.8038 13.9073L43.3682 16.1688C42.1265 16.7342 40.7719 16.9603 39.3045 16.9603C34.9022 16.9603 33.7734 13.9073 33.7734 10.402C33.7734 7.23595 35.4666 4.40909 39.1916 4.40909C42.0136 4.40909 43.5939 5.99213 43.5939 8.59284C43.5939 9.27128 43.481 10.289 43.2553 10.9674H36.8212ZM40.8848 9.27128V9.04514C40.8848 7.57517 40.3204 6.67058 39.1916 6.67058C37.3856 6.67058 36.9341 8.47976 36.8212 9.15821H40.8848V9.27128ZM69.5561 7.23595C69.2175 7.12287 68.8789 7.12287 68.5402 7.12287C67.1857 7.12287 66.2826 7.57517 65.8311 8.25362V16.7342H62.5576V4.63524H65.2667L65.4925 6.21828C66.0569 5.42676 67.1857 4.40909 68.9917 4.40909C69.2175 4.40909 69.669 4.40909 70.1205 4.52217L69.5561 7.23595ZM73.0554 10.9674C73.0554 13.5681 74.4099 14.4727 76.1031 14.4727C77.0062 14.4727 78.0221 14.3596 79.038 13.9073L79.6024 16.1688C78.4736 16.7342 77.0062 16.9603 75.6516 16.9603C71.2493 16.9603 70.1205 13.9073 70.1205 10.402C70.1205 7.23595 71.8137 4.40909 75.5387 4.40909C78.3607 4.40909 79.941 5.99213 79.941 8.59284C79.941 9.27128 79.8281 10.289 79.6024 10.9674H73.0554ZM77.119 9.27128V9.04514C77.119 7.57517 76.5546 6.67058 75.4258 6.67058C73.6198 6.67058 73.1683 8.47976 73.0554 9.15821H77.119V9.27128ZM87.2782 15.8296C86.6009 16.395 85.2463 16.9603 83.8918 16.9603C81.7471 16.9603 80.3925 15.6034 80.3925 13.455C80.3925 10.402 83.1016 9.94973 84.6819 9.94973C85.3592 9.94973 86.0365 9.94973 86.9395 10.0628V8.93206C86.9395 7.12287 86.1494 7.0098 84.9077 7.0098C83.8918 7.0098 82.8759 7.23595 82.0857 7.4621L81.4084 5.42676C82.6501 4.63524 84.6819 4.40909 85.6978 4.40909C88.8585 4.40909 90.1001 5.65291 90.1001 8.93206V13.9073C90.1001 14.4727 90.3259 14.5858 90.6645 14.5858C90.8903 14.5858 91.2289 14.4727 91.5676 14.4727L92.0191 16.395C91.0032 16.9603 89.9873 17.0734 89.4229 17.0734C88.4069 16.9603 87.7297 16.508 87.2782 15.8296ZM86.9395 14.2465V11.7589H85.8107C84.4562 11.7589 83.4403 12.2112 83.4403 13.2289C83.4403 14.3596 84.1175 14.8119 85.0206 14.8119C85.585 14.8119 86.2622 14.5858 86.9395 14.2465ZM93.5994 6.89673L91.4547 6.78365V4.86139L93.5994 4.63524V1.92146L96.8729 1.69531V4.74832H100.259L100.034 7.0098H96.76V13.2289C96.76 14.1335 96.9858 14.4727 97.7759 14.4727C98.1146 14.4727 98.7918 14.4727 99.3562 14.2465L99.8077 16.6211C99.0176 16.9603 97.663 16.9603 97.2115 16.9603C93.4865 16.9603 93.4865 14.8119 93.4865 12.7766V6.89673H93.5994Z" fill="#515F66"/>
<path d="M60.7507 6.89652L60.9764 4.63503H57.5901V1.58203L54.2037 1.92125V4.63503H49.9143V1.58203L46.6408 1.80818V4.52196L44.4961 4.74811V6.78344L46.6408 6.89652V12.7764C46.6408 14.8117 46.6408 16.9601 50.3658 16.9601C50.8173 16.9601 52.059 16.9601 53.0749 16.5078L52.6234 14.1333C51.9461 14.2463 51.2688 14.3594 51.0431 14.3594C50.2529 14.3594 50.0272 13.9071 50.0272 13.1156V6.89652H54.3166V12.7764C54.3166 14.8117 54.3166 16.9601 58.0416 16.9601C58.4931 16.9601 59.7348 16.9601 60.7507 16.5078L60.2992 14.1333C59.6219 14.2463 58.9446 14.3594 58.7189 14.3594C57.9287 14.3594 57.703 13.9071 57.703 13.1156V6.89652H60.7507Z" fill="#727F86"/>
<path d="M103.76 10.9682C103.76 13.5689 105.115 14.4735 106.808 14.4735C107.711 14.4735 108.727 14.3604 109.743 13.9081L110.307 16.1696C109.065 16.735 107.711 16.9611 106.243 16.9611C101.841 16.9611 100.712 13.9081 100.712 10.4028C100.712 7.23675 102.406 4.40989 106.131 4.40989C108.953 4.40989 110.533 5.99293 110.533 8.59364C110.533 9.27209 110.42 10.2898 110.194 10.9682H103.76ZM107.824 9.27209V9.04594C107.824 7.68905 107.259 6.78445 106.131 6.78445C104.324 6.78445 103.873 8.59364 103.76 9.27209H107.824ZM116.515 4.40989C117.08 4.40989 118.096 4.52297 118.66 4.86219V0H121.934V16.8481H119.225L118.999 15.9435C118.096 16.6219 116.967 16.8481 115.838 16.8481C112.79 16.8481 111.323 14.4735 111.323 10.8551C111.436 7.34982 112.565 4.40989 116.515 4.40989ZM118.66 7.34982C118.209 7.12367 117.644 7.0106 116.854 7.0106C115.161 7.0106 114.596 8.70671 114.596 10.8551C114.596 12.7774 115.048 14.3604 116.741 14.3604C117.531 14.3604 118.096 14.1343 118.66 13.7951V7.34982ZM23.6159 14.6996C23.6159 14.1343 23.8416 13.4558 24.2931 12.8905C23.1643 12.0989 22.4871 10.629 22.4871 9.04594C22.4871 6.44523 23.8416 4.40989 27.0022 4.40989C27.6795 4.40989 28.3568 4.52297 29.0341 4.52297C30.1629 4.52297 31.4045 4.40989 32.872 4.18375L33.0977 5.99293C32.3076 6.21908 31.4045 6.21908 30.6144 6.44523C31.4045 7.12367 31.6303 8.14134 31.6303 9.04594C31.6303 11.6466 30.1629 13.5689 27.1151 13.5689C26.6636 13.5689 26.2121 13.5689 25.8734 13.4558C25.7606 13.682 25.7606 14.0212 25.7606 14.1343C25.7606 14.6996 26.2121 14.9258 27.1151 14.9258H29.1469C31.5174 14.9258 32.9848 16.0565 32.9848 17.9788C32.9848 20.8057 30.7273 22.5018 27.1151 22.5018C23.9545 22.5018 22.1484 21.371 22.1484 19.2226C22.1484 17.9788 22.9386 16.8481 24.5189 16.1696C23.9545 15.8304 23.6159 15.3781 23.6159 14.6996ZM25.9863 17.3004C25.1962 17.5265 24.7447 18.2049 24.7447 18.7703C24.7447 19.788 25.8734 20.1272 27.228 20.1272C29.0341 20.1272 30.05 19.5618 30.05 18.4311C30.05 17.8657 29.7113 17.4134 28.2439 17.4134H25.9863V17.3004ZM25.5348 9.04594C25.5348 10.4028 25.9863 10.9682 27.1151 10.9682C28.2439 10.9682 28.6954 10.4028 28.6954 9.04594C28.6954 7.57597 28.2439 6.89753 27.1151 6.89753C26.0992 6.89753 25.5348 7.57597 25.5348 9.04594Z" fill="#515F66"/>
<path d="M54.4315 22.9537C53.8671 20.5792 51.3838 19.1092 49.0133 19.6746C48.336 19.9007 47.5459 20.2399 47.0944 20.6922C42.1277 17.0739 35.8065 22.8406 32.4201 25.8936C28.9208 29.1728 26.3246 30.6428 23.5026 30.7558C20.0034 30.8689 17.1814 28.1551 15.8268 23.406C17.2943 22.6145 18.3102 21.4838 18.9875 19.5615C20.7935 15.0385 19.8905 8.70637 18.7617 6.44488C18.3102 5.54029 17.8587 4.97492 17.2943 4.52262C17.1814 4.40955 16.9556 4.29647 16.8428 4.1834C15.4882 3.39188 13.5693 3.05266 12.5534 3.16573C11.0859 3.27881 10.5215 4.1834 10.4086 4.52262C9.84425 5.54029 10.2958 6.55796 11.0859 7.01026C11.989 7.6887 13.3435 7.46255 14.3594 5.87951C14.6981 5.31414 15.4882 5.20107 16.0526 5.42722C16.617 5.65337 17.1814 6.10566 17.52 7.12333C18.4231 9.15867 19.3261 13.5686 17.6329 17.6392C16.9556 19.4484 15.3753 20.9184 13.9079 21.4838C12.4405 22.0491 10.2958 21.9361 8.60258 21.1445C4.65181 19.2223 2.39423 15.3777 1.71695 13.2293C1.37832 12.2117 1.49119 11.5332 1.71695 10.9679C2.05559 10.5156 2.61999 10.0633 3.29726 10.1763C5.10333 10.6286 6.23212 9.95019 6.45788 8.81944C6.79651 7.80178 6.45788 6.78411 5.32909 6.44488C4.99045 6.33181 3.97454 5.99259 2.73287 6.89718C1.94271 7.46255 0.81392 9.04559 0.249524 10.5156C0.249524 10.7417 0.136645 10.8548 0.136645 11.0809C0.023766 11.8724 0.023766 12.664 0.249524 13.5686C1.03968 15.9431 4.53893 21.3707 8.82834 23.406C10.7473 24.3106 12.1018 24.5368 13.795 24.0845C16.0526 29.2859 19.3261 32.1127 23.5026 31.9997C27.1148 31.8866 30.5011 29.2859 33.7746 26.3459C36.9352 23.406 42.4663 18.77 46.3042 21.5968C45.7398 22.6145 45.5141 23.8583 45.7398 24.9891C46.3042 27.3636 48.7876 28.8336 51.158 28.2682C53.5285 27.8159 54.9959 25.3283 54.4315 22.9537ZM49.2391 23.0668C48.2232 24.3106 47.9974 26.3459 47.7716 26.1198C47.3201 25.6675 47.0944 25.2152 46.8686 24.5368C46.4171 22.8406 47.5459 21.1445 49.2391 20.6922C50.1421 20.4661 51.0451 20.6922 51.7224 21.1445C51.9482 21.4838 50.1421 21.9361 49.2391 23.0668Z" fill="#727F86"/>
<path d="M62.3343 23.6317C62.3343 23.2925 62.2214 23.1795 61.9956 23.1795C61.7699 23.1795 61.657 23.1795 61.4312 23.2925C61.2055 23.4056 60.9797 23.5187 60.8668 23.6317V23.8579L60.4153 26.5717H59.7381L60.1896 23.8579V23.5187C60.1896 23.1795 60.0767 23.0664 59.8509 23.0664C59.6252 23.0664 59.3994 23.0664 59.1737 23.1795C58.9479 23.2925 58.7221 23.4056 58.6093 23.5187L58.1577 26.4586H57.4805L58.1577 22.3879H58.7221V22.8402C58.9479 22.7272 59.0608 22.6141 59.3994 22.501C59.738 22.3879 59.8509 22.2749 60.0767 22.2749C60.5282 22.2749 60.8668 22.501 60.9797 22.8402C61.2055 22.7272 61.4312 22.501 61.657 22.3879C61.8828 22.2749 62.2214 22.1618 62.4471 22.1618C63.0115 22.1618 63.3502 22.501 63.3502 23.0664V23.5187L62.8987 26.3455H62.2214L62.6729 23.6317C62.3343 23.8579 62.3343 23.7448 62.3343 23.6317ZM66.8494 22.9533C66.9623 23.1795 67.0752 23.4056 67.0752 23.6317C67.0752 23.8579 66.9623 24.1971 66.8494 24.6494H64.3661V25.2148C64.3661 25.4409 64.3661 25.6671 64.479 25.7802C64.5919 26.1194 64.8176 26.2325 65.2691 26.2325C65.6078 26.2325 66.0593 26.1194 66.3979 26.0063L66.5108 26.4586C66.0593 26.6848 65.6078 26.7978 65.1563 26.7978C64.5919 26.7978 64.1403 26.5717 63.9146 26.2325C63.8017 26.0063 63.6888 25.6671 63.6888 25.2148C63.6888 24.4233 63.9146 23.7448 64.479 23.1795C64.8176 22.8402 65.2691 22.6141 65.8335 22.6141C66.285 22.501 66.6237 22.6141 66.8494 22.9533ZM66.285 24.084V23.7448C66.285 23.2925 66.0593 23.0664 65.7206 23.0664C65.382 23.0664 65.0434 23.1795 64.8176 23.4056C64.7047 23.6318 64.5919 23.8579 64.479 23.971L66.285 24.084ZM69.6714 22.501C70.0101 22.501 70.2358 22.6141 70.4616 22.7272L70.6873 21.031H71.3646L70.4616 26.6848H69.8972V26.3455C69.5585 26.5717 69.107 26.7978 68.6555 26.7978C68.204 26.7978 67.8653 26.5717 67.7525 26.2325C67.6396 26.0063 67.5267 25.7802 67.5267 25.4409V24.7625C67.7525 23.2925 68.4297 22.501 69.6714 22.501ZM69.5585 23.0664C68.8813 23.0664 68.4297 23.6317 68.3169 24.6494V25.2148C68.3169 25.7802 68.5426 26.1194 68.9941 26.1194C69.3328 26.1194 69.6714 26.0063 70.0101 25.7802L70.4616 23.2925C70.1229 23.1795 69.7843 23.0664 69.5585 23.0664ZM72.9449 22.6141L72.2676 26.6848H71.5904L72.2676 22.6141H72.9449ZM72.3805 21.031C72.4934 20.918 72.6063 20.918 72.7192 20.918C72.832 20.918 72.9449 20.918 73.0578 21.031C73.1707 21.1441 73.1707 21.1441 73.1707 21.2572C73.1707 21.4833 73.0578 21.5964 72.9449 21.7095C72.832 21.8226 72.7192 21.9356 72.6063 21.9356C72.4934 21.9356 72.3805 21.9356 72.2676 21.8226V21.5964C72.2676 21.3703 72.2676 21.1441 72.3805 21.031ZM75.9927 26.5717C75.654 26.6848 75.3154 26.7978 74.9767 26.7978C74.6381 26.7978 74.4123 26.7978 74.2995 26.6848C73.8479 26.4586 73.6222 26.1194 73.5093 25.6671V25.2148V24.6494C73.6222 23.971 73.8479 23.4056 74.2995 23.0664C74.751 22.7272 75.2025 22.501 75.654 22.501C75.9926 22.501 76.3313 22.6141 76.6699 22.7272L76.3313 23.2925C76.1055 23.1795 75.8798 23.1795 75.5411 23.1795C75.2025 23.1795 74.9767 23.2925 74.751 23.5187C74.5252 23.7448 74.2995 24.1971 74.2995 24.6494V25.1017C74.2995 25.7802 74.6381 26.1194 75.3154 26.1194C75.5411 26.1194 75.7669 26.1194 76.1055 26.0063L75.9927 26.5717ZM77.573 26.7978C77.2343 26.7978 77.0086 26.6848 76.7828 26.4586C76.6699 26.3455 76.557 26.1194 76.557 25.8932C76.557 25.554 76.6699 25.3279 76.7828 25.1017C76.8957 24.8756 77.1214 24.7625 77.2343 24.7625C77.573 24.6494 77.7987 24.5363 78.1374 24.5363H79.0404L79.1533 23.8579V23.5187C79.1533 23.4056 79.1533 23.2925 79.0404 23.1795C78.9275 23.0664 78.8146 22.9533 78.476 22.9533C78.1374 22.9533 77.7987 23.0664 77.3472 23.1795L77.2343 22.7272C77.4601 22.6141 77.573 22.501 77.9116 22.501C78.1374 22.3879 78.3631 22.3879 78.5889 22.3879C79.1533 22.3879 79.4919 22.501 79.6048 22.7272C79.7177 22.8402 79.8305 23.0664 79.8305 23.4056V23.8579L79.4919 25.7802V25.8932C79.4919 26.0063 79.4919 26.0063 79.6048 26.0063C79.7177 26.0063 79.8305 26.0063 79.9434 25.8932V26.3455C79.7177 26.4586 79.4919 26.5717 79.2661 26.5717C78.9275 26.5717 78.7017 26.4586 78.7017 26.1194C78.5889 26.2325 78.3631 26.3455 78.1374 26.4586C78.0245 26.6848 77.7987 26.7978 77.573 26.7978ZM77.3472 25.7802C77.3472 26.1194 77.573 26.2325 77.9116 26.2325C78.2502 26.2325 78.5889 26.1194 78.9275 25.8932L79.0404 24.9886H78.3631C77.6858 24.9886 77.3472 25.2148 77.3472 25.6671V25.7802ZM81.5237 25.8932C81.5237 26.0063 81.6366 26.1194 81.7495 26.1194C81.8624 26.1194 82.0881 26.1194 82.201 26.0063V26.5717C81.9752 26.6848 81.6366 26.6848 81.4108 26.6848C80.9593 26.6848 80.7336 26.4586 80.7336 26.0063V25.7802L81.5237 21.031H82.201L81.5237 25.8932ZM85.5874 26.7978C85.1359 26.7978 84.9101 26.6848 84.7972 26.5717C84.6843 26.4586 84.6843 26.3455 84.6843 26.1194V25.6671L85.023 23.1795H84.2328L84.3457 22.7272H85.1359L85.3616 21.7095L86.0389 21.5964L85.926 22.7272H87.0548L86.9419 23.2925H85.8131L85.4745 25.7802V26.1194C85.4745 26.2325 85.5874 26.2325 85.7003 26.2325C85.926 26.2325 86.1518 26.2325 86.3775 26.1194V26.6848C86.1518 26.6848 85.926 26.7978 85.5874 26.7978ZM89.7639 22.501H90.1025L89.8768 23.0664H89.651C89.0866 23.0664 88.6351 23.2925 88.4094 23.7448L87.9578 26.6848H87.2806L87.9578 22.6141H88.5222V23.1795C88.6351 23.0664 88.8609 22.8402 89.0866 22.7272C89.1995 22.6141 89.4253 22.501 89.7639 22.501ZM90.8927 26.7978C90.5541 26.7978 90.3283 26.6848 90.1025 26.4586C89.9897 26.3455 89.8768 26.1194 89.8768 25.8932C89.8768 25.554 89.9897 25.3279 90.1025 25.1017C90.2154 24.8756 90.4412 24.7625 90.5541 24.7625C90.8927 24.6494 91.1185 24.5363 91.4571 24.5363H92.3601L92.473 23.8579V23.5187C92.473 23.4056 92.473 23.2925 92.3601 23.1795C92.2472 23.0664 92.1344 22.9533 91.7957 22.9533C91.4571 22.9533 91.1185 23.0664 90.6669 23.1795L90.5541 22.7272C90.7798 22.6141 90.8927 22.501 91.2313 22.501C91.4571 22.3879 91.6829 22.3879 91.9086 22.3879C92.473 22.3879 92.8116 22.501 92.9245 22.7272C93.0374 22.8402 93.1503 23.0664 93.1503 23.4056V23.8579L92.8116 25.7802V25.8932C92.8116 26.0063 92.8116 26.0063 92.9245 26.0063C93.0374 26.0063 93.1503 26.0063 93.2632 25.8932V26.3455C93.0374 26.4586 92.8116 26.5717 92.5859 26.5717C92.2472 26.5717 92.0215 26.4586 92.0215 26.1194C91.9086 26.2325 91.6828 26.3455 91.4571 26.4586C91.3442 26.6848 91.1185 26.7978 90.8927 26.7978ZM90.5541 25.7802C90.5541 26.1194 90.7798 26.2325 91.1185 26.2325C91.4571 26.2325 91.7957 26.1194 92.1344 25.8932L92.2472 24.9886H91.57C90.8927 24.9886 90.5541 25.2148 90.5541 25.6671V25.7802ZM96.6495 22.6141H97.4397L95.5207 26.6848H94.7306L94.0533 22.6141H94.8435L95.1821 25.8932L96.6495 22.6141ZM100.6 22.9533C100.713 23.1795 100.826 23.4056 100.826 23.6317C100.826 23.8579 100.713 24.1971 100.6 24.6494H98.2298V25.2148C98.2298 25.4409 98.2298 25.6671 98.3427 25.7802C98.4556 26.1194 98.6814 26.2325 99.1329 26.2325C99.4715 26.2325 99.923 26.1194 100.262 26.0063L100.375 26.4586C99.923 26.6848 99.4715 26.7978 99.02 26.7978C98.4556 26.7978 98.0041 26.5717 97.7783 26.2325C97.6654 26.0063 97.5526 25.6671 97.5526 25.2148C97.5526 24.4233 97.7783 23.7448 98.3427 23.1795C98.6814 22.8402 99.1329 22.6141 99.6973 22.6141C100.036 22.501 100.375 22.6141 100.6 22.9533ZM100.036 24.084V23.7448C100.036 23.2925 99.8102 23.0664 99.4715 23.0664C99.1329 23.0664 98.7942 23.1795 98.5685 23.4056C98.4556 23.6318 98.3427 23.8579 98.2298 23.971L100.036 24.084ZM102.068 25.8932C102.068 26.0063 102.181 26.1194 102.293 26.1194C102.406 26.1194 102.632 26.1194 102.745 26.0063V26.5717C102.519 26.6848 102.181 26.6848 101.955 26.6848C101.503 26.6848 101.278 26.4586 101.278 26.0063V25.7802L102.068 21.031H102.745L102.068 25.8932ZM110.082 23.6317C110.082 23.2925 109.969 23.1795 109.744 23.1795C109.518 23.1795 109.405 23.1795 109.179 23.2925C108.953 23.4056 108.728 23.5187 108.615 23.6317V23.8579L108.163 26.5717H107.26L107.712 23.8579V23.5187C107.712 23.1795 107.599 23.0664 107.373 23.0664C107.147 23.0664 106.922 23.0664 106.696 23.1795C106.47 23.2925 106.244 23.4056 106.131 23.5187L105.68 26.4586H105.003L105.68 22.3879H106.244V22.8402C106.47 22.7272 106.583 22.6141 106.922 22.501C107.147 22.3879 107.373 22.2749 107.599 22.2749C108.05 22.2749 108.389 22.501 108.502 22.8402C108.728 22.7272 108.953 22.501 109.179 22.3879C109.405 22.2749 109.744 22.1618 109.969 22.1618C110.534 22.1618 110.872 22.501 110.872 23.0664V23.5187L110.421 26.3455H109.744L110.195 23.6317C110.082 23.8579 110.082 23.7448 110.082 23.6317ZM112.227 26.7978C111.888 26.7978 111.662 26.6848 111.437 26.4586C111.324 26.3455 111.211 26.1194 111.211 25.8932C111.211 25.554 111.324 25.3279 111.437 25.1017C111.55 24.8756 111.775 24.7625 111.888 24.7625C112.227 24.6494 112.453 24.5363 112.791 24.5363H113.694L113.807 23.8579V23.5187C113.807 23.4056 113.807 23.2925 113.694 23.1795C113.581 23.0664 113.469 22.9533 113.13 22.9533C112.791 22.9533 112.453 23.0664 112.001 23.1795L111.888 22.7272C112.114 22.6141 112.227 22.501 112.565 22.501C112.791 22.3879 113.017 22.3879 113.243 22.3879C113.807 22.3879 114.146 22.501 114.259 22.7272C114.372 22.8402 114.484 23.0664 114.484 23.4056V23.8579L114.146 25.7802V25.8932C114.146 26.0063 114.146 26.0063 114.259 26.0063C114.372 26.0063 114.484 26.0063 114.597 25.8932V26.3455C114.372 26.4586 114.146 26.5717 113.92 26.5717C113.581 26.5717 113.356 26.4586 113.356 26.1194C113.243 26.2325 113.017 26.3455 112.791 26.4586C112.678 26.6848 112.453 26.7978 112.227 26.7978ZM111.888 25.7802C111.888 26.1194 112.114 26.2325 112.453 26.2325C112.791 26.2325 113.13 26.1194 113.469 25.8932L113.581 24.9886H112.904C112.227 24.9886 111.888 25.2148 111.888 25.6671V25.7802ZM117.419 22.501C117.758 22.501 117.984 22.6141 118.209 22.7272L118.435 21.031H119.112L118.209 26.6848H117.645V26.3455C117.306 26.5717 116.855 26.7978 116.403 26.7978C115.952 26.7978 115.613 26.5717 115.5 26.2325C115.387 26.0063 115.275 25.7802 115.275 25.4409V24.7625C115.613 23.2925 116.291 22.501 117.419 22.501ZM117.419 23.0664C116.742 23.0664 116.291 23.6317 116.178 24.6494V25.2148C116.178 25.7802 116.403 26.1194 116.855 26.1194C117.194 26.1194 117.532 26.0063 117.871 25.7802L118.322 23.2925C117.871 23.1795 117.645 23.0664 117.419 23.0664ZM122.499 22.9533C122.612 23.1795 122.725 23.4056 122.725 23.6317C122.725 23.8579 122.612 24.1971 122.499 24.6494H120.128V25.2148C120.128 25.4409 120.128 25.6671 120.241 25.7802C120.354 26.1194 120.58 26.2325 121.031 26.2325C121.37 26.2325 121.822 26.1194 122.16 26.0063L122.273 26.4586C121.822 26.6848 121.37 26.7978 120.919 26.7978C120.354 26.7978 119.903 26.5717 119.677 26.2325C119.564 26.0063 119.451 25.6671 119.451 25.2148C119.451 24.4233 119.677 23.7448 120.241 23.1795C120.58 22.8402 121.031 22.6141 121.596 22.6141C122.047 22.501 122.386 22.6141 122.499 22.9533ZM122.047 24.084V23.7448C122.047 23.2925 121.822 23.0664 121.483 23.0664C121.144 23.0664 120.806 23.1795 120.58 23.4056C120.467 23.6318 120.354 23.8579 120.241 23.971L122.047 24.084ZM124.869 25.8932C125.208 26.0063 125.547 26.1194 125.772 26.1194C126.111 26.1194 126.337 26.1194 126.45 26.0063C126.675 25.8932 126.675 25.6671 126.675 25.554C126.675 25.3279 126.45 25.1017 126.111 24.9886C125.885 24.8756 125.772 24.8756 125.547 24.7625C125.321 24.6494 125.208 24.5363 125.095 24.4233C124.982 24.3102 124.982 24.1971 124.982 24.084C124.982 23.6317 125.208 23.1795 125.547 22.9533C125.885 22.7272 126.224 22.6141 126.675 22.6141C127.127 22.6141 127.466 22.7272 127.691 22.8402L127.466 23.4056C127.127 23.2925 126.901 23.2925 126.675 23.2925C126.45 23.2925 126.224 23.2925 126.111 23.4056C125.885 23.5187 125.885 23.6318 125.885 23.8579C125.885 24.084 126.111 24.3102 126.45 24.4233C126.675 24.5363 126.788 24.5363 127.014 24.6494C127.24 24.7625 127.353 24.8756 127.466 24.9886C127.578 25.1017 127.578 25.2148 127.578 25.3279C127.578 25.7802 127.353 26.1194 127.014 26.4586C126.675 26.6848 126.337 26.7978 125.885 26.7978C125.659 26.7978 125.434 26.7978 125.208 26.6848C124.982 26.5717 124.869 26.5717 124.756 26.4586L124.869 25.8932ZM129.497 22.6141L128.82 26.6848H128.143L128.82 22.6141H129.497ZM129.046 21.031C129.159 20.918 129.272 20.918 129.384 20.918C129.497 20.918 129.61 20.918 129.723 21.031C129.836 21.1441 129.836 21.1441 129.836 21.2572C129.836 21.4833 129.723 21.5964 129.61 21.7095C129.497 21.8226 129.384 21.9356 129.272 21.9356C129.159 21.9356 129.046 21.9356 128.933 21.8226C128.82 21.7095 128.82 21.7095 128.82 21.5964C128.82 21.3703 128.933 21.1441 129.046 21.031ZM135.028 23.6317C135.028 23.2925 134.916 23.1795 134.69 23.1795C134.464 23.1795 134.351 23.1795 134.125 23.2925C133.9 23.4056 133.674 23.5187 133.561 23.6317V23.8579L133.11 26.5717H132.432L132.884 23.8579V23.5187C132.884 23.1795 132.771 23.0664 132.545 23.0664C132.319 23.0664 132.094 23.0664 131.868 23.1795C131.642 23.2925 131.416 23.4056 131.303 23.5187L130.852 26.4586H130.175L130.852 22.3879H131.416V22.8402C131.642 22.7272 131.755 22.6141 132.094 22.501C132.319 22.3879 132.545 22.2749 132.771 22.2749C133.222 22.2749 133.561 22.501 133.674 22.8402C133.9 22.7272 134.125 22.501 134.351 22.3879C134.577 22.2749 134.916 22.1618 135.141 22.1618C135.706 22.1618 136.044 22.501 136.044 23.0664V23.5187L135.593 26.3455H134.916L135.367 23.6317C135.028 23.8579 135.028 23.7448 135.028 23.6317ZM138.753 22.501C139.205 22.501 139.544 22.7272 139.769 23.0664C139.882 23.2925 139.995 23.5187 139.995 23.8579C139.995 24.084 139.995 24.4233 139.882 24.6494C139.882 24.8756 139.769 25.2148 139.656 25.4409L139.318 26.1194C138.979 26.5717 138.528 26.7978 137.85 26.7978C137.625 26.7978 137.286 26.7978 137.173 26.6848L136.947 28.4939L136.157 28.607L137.06 22.7272H137.625V23.0664C137.963 22.6141 138.302 22.501 138.753 22.501ZM137.85 26.1194C138.528 26.1194 138.979 25.554 139.092 24.5363V23.971C139.092 23.4056 138.866 23.0664 138.415 23.0664C138.076 23.0664 137.738 23.1795 137.399 23.4056L136.947 26.0063C137.399 26.1194 137.625 26.1194 137.85 26.1194ZM141.35 25.8932C141.35 26.0063 141.463 26.1194 141.575 26.1194C141.688 26.1194 141.914 26.1194 142.027 26.0063V26.5717C141.801 26.6848 141.463 26.6848 141.237 26.6848C140.785 26.6848 140.56 26.4586 140.56 26.0063V25.7802L141.35 21.031H142.027L141.35 25.8932ZM145.752 22.9533C145.865 23.1795 145.978 23.4056 145.978 23.6317C145.978 23.8579 145.865 24.1971 145.752 24.6494H143.382V25.2148C143.382 25.4409 143.382 25.6671 143.494 25.7802C143.607 26.1194 143.833 26.2325 144.285 26.2325C144.623 26.2325 145.075 26.1194 145.413 26.0063L145.526 26.4586C145.075 26.6848 144.623 26.7978 144.172 26.7978C143.607 26.7978 143.156 26.5717 142.93 26.2325C142.817 26.0063 142.704 25.6671 142.704 25.2148C142.704 24.4233 142.93 23.7448 143.494 23.1795C143.833 22.8402 144.285 22.6141 144.849 22.6141C145.188 22.501 145.526 22.6141 145.752 22.9533ZM145.188 24.084V23.7448C145.188 23.2925 144.962 23.0664 144.623 23.0664C144.285 23.0664 143.946 23.1795 143.72 23.4056C143.607 23.6318 143.494 23.8579 143.382 23.971L145.188 24.084Z" fill="#727F86"/>
</g>
<defs>
<clipPath id="clip0_1_673">
<rect width="146" height="32" fill="white"/>
</clipPath>
</defs>
</svg>
