<svg width="112" height="36" viewBox="0 0 112 36" fill="none" xmlns="http://www.w3.org/2000/svg">
<path d="M52.9149 22.2632L51.6776 28.4445C51.1326 30.9504 49.6228 32.6235 46.539 32.6235C42.9998 32.6235 42.0655 30.4282 42.8424 27.3393C43.9409 22.9572 47.5156 21.6522 52.9149 22.2632ZM58.4894 13.4263L54.7259 13.6658L53.536 19.7185C52.0974 19.6677 51.6446 19.622 49.9529 19.622C44.6577 19.622 40.0361 21.8477 38.8149 27.0693C37.7147 31.7772 40.389 35.4306 46.2207 35.4306C52.1947 35.4306 54.7936 32.3137 55.7279 27.9317L58.4894 13.4263ZM17.6662 22.5273C12.1484 22.0246 7.40162 22.4824 7.3246 24.3561C7.20528 27.1692 16.4188 24.7149 16.2411 29.89C15.9821 37.493 3.17019 35.7437 0 34.7764L0.575474 32.5194C6.04164 33.3868 11.8082 33.4588 11.9343 30.4443C12.0697 27.2402 2.81813 30.1202 3.03478 24.9316C3.19642 21.0666 8.97909 18.9822 18.444 20.3726L17.6662 22.5273ZM32.5439 27.6989C31.7476 30.8725 29.2307 32.8655 26.234 32.8655C23.1002 32.8655 21.6903 31.0494 22.5307 27.6989C23.3279 24.5254 25.8735 22.3953 28.8693 22.3953C31.8635 22.3953 33.3403 24.5254 32.5439 27.6989ZM29.3526 19.7972C23.8653 19.7972 19.4544 22.9707 18.3695 27.6989C17.282 32.4297 20.2372 35.6032 25.722 35.6032C31.2068 35.6032 35.6193 32.4297 36.7043 27.6989C37.7917 22.9716 34.8382 19.7972 29.3526 19.7972ZM92.7521 35.5228H87.9824C85.0898 32.8037 79.5568 26.5548 75.4828 19.9419H78.983C82.8514 25.2802 92.7521 35.5228 92.7521 35.5228ZM97.7503 4.57502L99.9455 0L100.572 4.65119L105.046 3.08556L101.919 7.09526L105.311 9.72298L100.784 10.0725L100.535 14.9099L98.0177 11.3352L94.3194 14.7457L95.7056 9.93963L91.343 9.34807L95.5888 6.92939L93.8472 2.78936L97.7503 4.57502ZM107.052 27.7472C106.243 30.9707 103.687 32.995 100.644 32.995C97.4617 32.995 96.0272 31.1501 96.882 27.7472C97.691 24.5237 100.276 22.3597 103.319 22.3597C106.364 22.3597 107.863 24.5237 107.052 27.7472ZM103.811 19.7176C98.2377 19.7176 93.7583 22.9437 92.6539 27.7472C91.5504 32.5515 94.5513 35.7759 100.123 35.7759C105.696 35.7759 110.177 32.5515 111.279 27.7472C112.383 22.9437 109.384 19.7176 103.811 19.7176Z" fill="#515F66"/>
<path d="M71.8672 34.1926C80.8759 29.1885 88.7015 21.4991 94.2515 14.8516C90.2612 27.341 80.6559 34.0622 71.8672 34.1926Z" fill="#97A5AD"/>
<path d="M68.3033 22.1154C70.0289 22.1154 70.9683 22.7417 70.9683 23.9383C70.9683 27.1144 64.7768 26.9046 62.0459 26.3486C63.0064 23.9705 65.1754 22.1154 68.3033 22.1154ZM74.6792 23.7657C74.6792 21.4621 72.8436 19.7695 68.679 19.7695C61.924 19.7695 57.5352 24.1541 57.5352 29.5822C57.5352 33.0875 60.4455 36.0013 65.7611 36.0013C69.4238 36.0013 71.8695 34.1962 71.8695 34.1962C67.2082 34.6955 61.4839 34.1962 61.4839 29.2099C61.4839 29.0118 61.4949 28.8138 61.511 28.6166C67.8708 29.9368 74.6792 28.3399 74.6792 23.7657Z" fill="#515F66"/>
</svg>
