<svg width="114" height="44" viewBox="0 0 114 44" fill="none" xmlns="http://www.w3.org/2000/svg">
<path fill-rule="evenodd" clip-rule="evenodd" d="M16.1465 36.3459L11.9779 36.3296L11.6828 37.2784L15.1308 37.2711C16.0547 37.2711 16.5481 37.6098 16.3731 38.5768C16.3095 38.9271 16.2328 39.2094 16.2328 39.2094L13.5833 39.1998C11.4685 39.1998 10.684 39.5267 10.2901 41.3157C9.8963 43.1013 10.6093 43.8721 12.7045 43.8721L17.297 43.8624C17.297 43.8624 18.1868 39.9445 18.4435 38.6401C18.6968 37.3335 17.7648 36.3515 16.1465 36.3459ZM12.328 41.4431C12.5191 40.6138 12.8059 40.1677 13.5065 40.1677L16.0273 40.1685L15.4359 42.9346L12.9235 42.9271C12.0618 42.9239 12.1742 42.1122 12.328 41.4431ZM81.8733 36.3459L77.7048 36.3296L77.4107 37.2784L80.8583 37.2711C81.7809 37.2711 82.2756 37.6098 82.0981 38.5768C82.0347 38.9271 81.9591 39.2094 81.9591 39.2094L79.3116 39.1998C77.1949 39.1998 76.4108 39.5267 76.018 41.3157C75.6238 43.1013 76.3338 43.8721 78.4304 43.8721L83.0238 43.8624C83.0238 43.8624 83.9147 39.9445 84.168 38.6401C84.4247 37.3335 83.4923 36.3515 81.8733 36.3459ZM78.055 41.4431C78.246 40.6138 78.533 40.1677 79.2327 40.1677L81.7543 40.1685L81.1612 42.9346L78.6486 42.9271C77.7888 42.9239 77.9012 42.1122 78.0548 41.4431M103.724 43.8648L108.275 43.8794L108.57 42.9312L104.741 42.9391C103.818 42.9391 103.323 42.5994 103.497 41.6341C103.564 41.2835 103.717 40.6065 103.717 40.6065L106.366 40.6138C108.48 40.6138 109.221 40.4911 109.612 38.7049C110.006 36.9159 109.262 36.336 107.169 36.336C107.169 36.336 107.225 36.3418 105.249 36.3418C103.57 36.3418 102.407 37.078 102.131 38.3201C101.855 39.5496 101.574 40.8328 101.43 41.5699C101.174 42.875 102.108 43.86 103.724 43.8646V43.8648ZM107.575 38.5766C107.383 39.4046 107.141 39.6455 106.441 39.6455H103.922C103.922 39.6455 104.12 38.7321 104.222 38.2555C104.325 37.7801 104.804 37.2762 105.314 37.2762C105.822 37.2762 106.946 37.2827 106.946 37.2827C107.81 37.2867 107.729 37.9063 107.575 38.5766ZM25.0355 43.8858C25.0355 43.8858 26.9442 43.8624 29.3647 43.8624C31.7846 43.8624 32.0845 42.8315 32.2626 41.8486C32.5496 40.2629 31.937 39.7109 30.1908 39.4316C28.8244 39.2124 27.8537 39.1464 28.0914 38.1935C28.2817 37.4292 28.6961 37.3022 29.5878 37.3022C30.2174 37.3022 32.7648 37.3101 32.7648 37.3101L33.0908 36.3708C33.0908 36.3708 31.5701 36.3588 29.3057 36.3588C27.0411 36.3588 26.3401 36.7934 26.0529 38.2255C25.7479 39.7553 26.1752 40.1565 28.3214 40.4903C29.9375 40.7419 30.3835 40.9015 30.1561 42.0204C30.0246 42.6701 29.7678 42.9271 28.784 42.9239L25.3596 42.9119L25.0355 43.8858ZM93.0966 43.8858C93.0966 43.8858 95.0071 43.8624 97.428 43.8624C99.8467 43.8624 100.148 42.8315 100.325 41.8486C100.612 40.2629 99.9987 39.7109 98.2517 39.4316C96.8866 39.2124 95.9161 39.1464 96.1526 38.1935C96.3437 37.4292 96.7579 37.3022 97.6501 37.3022C98.2781 37.3022 100.828 37.3101 100.828 37.3101L101.152 36.3708C101.152 36.3708 99.6296 36.3588 97.3678 36.3588C95.1021 36.3588 94.4025 36.7934 94.1155 38.2255C93.8086 39.7553 94.237 40.1565 96.384 40.4903C97.9997 40.7419 98.4461 40.9015 98.2194 42.0204C98.0876 42.6701 97.8304 42.9271 96.8463 42.9239L93.4216 42.9119L93.0966 43.8858ZM20.4599 36.3088C20.4599 36.3088 19.4397 41.1076 19.1643 42.3567C18.8878 43.6076 19.087 43.863 20.8503 43.863C22.6138 43.863 24.3509 43.8738 24.3509 43.8738L24.6837 42.9065L21.1123 42.8982L22.5274 36.3161L20.4599 36.3088ZM48.4816 36.3586H44.2778L42.6705 43.8978L44.7397 43.9053L46.1597 37.2711L48.3126 37.2818C48.9284 37.2842 49.1373 37.6059 48.9896 38.3016L47.7907 43.8946L49.7659 43.9012L50.855 38.8214C51.2829 36.8255 50.9446 36.3588 48.4816 36.3588M90.3684 36.3586H86.1638L84.5569 43.8978L86.6244 43.9053L88.0457 37.2711L90.199 37.2818C90.8153 37.2842 91.0234 37.6059 90.8755 38.3016L89.6771 43.8946L91.6516 43.9012L92.7394 38.8214C93.1697 36.8255 92.8298 36.3588 90.3684 36.3588M2.93222 38.9327C2.32903 41.601 2.77412 42.5998 4.87668 42.5998C5.753 42.5998 9.62168 42.6159 9.62168 42.6159L9.21874 43.8729L3.55602 43.8551C0.946552 43.8439 -0.664088 42.9391 0.26543 38.857C1.07075 35.3315 2.45641 34.0223 5.66177 34.0274L11.4998 34.0869L11.0559 35.3049C11.0559 35.3049 7.28121 35.2961 6.40508 35.2961C4.36696 35.2961 3.48371 36.4931 2.93222 38.9327ZM57.8429 40.0623C57.3759 42.1214 57.721 42.8919 59.3423 42.8919C60.0193 42.8919 62.4144 42.9038 62.4144 42.9038L62.1061 43.8738L58.3236 43.86C56.3098 43.8527 55.0673 43.1528 55.7864 40.0033C56.4055 37.2842 57.3875 36.3118 59.8604 36.3161L63.8655 36.321L63.5197 37.2616C63.5197 37.2616 61.1996 37.2552 60.5221 37.2552C58.95 37.2552 58.2663 38.1796 57.8427 40.0623M37.2304 44.0003C40.5429 44.0003 41.3062 43.1522 41.986 40.2631C42.7719 36.9231 41.4173 36.2515 38.802 36.2515C35.618 36.2515 34.4999 36.8648 33.8339 39.7534C33.1245 42.8321 33.9572 44.0003 37.2304 44.0003ZM35.8288 40.0091C36.3055 37.8953 36.8997 37.2891 38.6522 37.2891C40.0687 37.2891 40.4477 37.9217 39.9916 40.1363C39.4802 42.5998 38.8432 43.0569 37.2691 43.0569C35.6768 43.0569 35.2348 42.642 35.8288 40.0091ZM52.9681 36.3482L51.3541 43.8738L53.421 43.8824L55.0358 36.3545L52.9681 36.3482ZM111.477 36.3482L109.862 43.8738L111.93 43.8824L113.545 36.3545L111.477 36.3482Z" fill="#515F66"/>
<path fill-rule="evenodd" clip-rule="evenodd" d="M71.2693 39.3192C70.9379 38.9283 70.9669 38.569 71.5233 38.14C72.5086 37.3791 77.0839 34.0705 77.0839 34.0705H74.7109C74.7109 34.0705 70.4463 37.2547 69.2497 38.0683L70.0929 34.0774L67.4744 34.069L65.3248 43.8355L68.0111 43.8467L68.844 39.9578C69.7098 41.1131 72.2409 43.8042 72.2409 43.8042L75.8551 43.8188L75.9178 43.7533C75.9178 43.7533 71.918 40.0951 71.2693 39.3192ZM45.2383 14.5651C61.0176 17.904 83.1938 1.95311 100.614 12.1139C91.7865 10.146 86.5617 12.7012 79.5417 15.2693C71.9515 18.3718 57.4966 24.4902 45.2383 14.5651Z" fill="#515F66"/>
<path fill-rule="evenodd" clip-rule="evenodd" d="M72.805 4.08897C62.5805 4.39001 53.7479 5.46957 46.911 7.0834C37.7812 9.23803 31.4091 12.4031 31.6361 15.8486C31.8028 18.415 34.2737 19.3484 36.7606 20.5932C24.9987 20.602 12.0391 16.4649 12.0391 12.3611C12.0391 5.94126 41.1898 0 59.5651 0C76.2511 0 91.5674 2.59392 102.867 5.97423C93.2904 4.73113 83.4621 3.77633 72.805 4.08897Z" fill="#515F66"/>
</svg>
