<svg width="111" height="32" viewBox="0 0 111 32" fill="none" xmlns="http://www.w3.org/2000/svg">
<g clip-path="url(#clip0_1_639)">
<path d="M11.9638 22.0513C10.3644 22.0513 8.64336 23.0366 8.64336 25.2054C8.64336 28.2379 11.1769 28.4747 11.951 28.4747C12.7315 28.4747 15.265 28.2379 15.265 25.2054C15.2714 23.0366 13.5568 22.0513 11.9638 22.0513ZM11.9638 27.3295C11.0745 27.3295 10.0317 26.7793 10.0317 25.2118C10.0317 24.0154 10.8058 23.2157 11.951 23.2157C13.1026 23.2157 13.8831 24.0154 13.8831 25.2118C13.8831 26.7793 12.8467 27.3295 11.9638 27.3295ZM17.8241 28.3595H19.1421V23.2669H21.2213V22.1729H15.7449V23.2669H17.8241V28.3595ZM25.0984 22.0513C23.4989 22.0513 21.7843 23.0366 21.7843 25.2054C21.7843 28.2379 24.3178 28.4747 25.092 28.4747C25.8725 28.4747 28.4124 28.2379 28.4124 25.2054C28.406 23.0366 26.6914 22.0513 25.0984 22.0513ZM25.0984 27.3295C24.2091 27.3295 23.1662 26.7793 23.1662 25.2118C23.1662 23.8299 24.1323 23.2157 25.0856 23.2157C26.2436 23.2157 27.0177 24.0154 27.0177 25.2118C27.0177 26.7793 25.9876 27.3295 25.0984 27.3295ZM33.441 26.0243C34.3175 25.8132 34.9061 25.0838 34.9061 24.201C34.9061 22.5184 33.5242 22.1665 32.3662 22.1665H29.4872V28.3531H30.8052V26.3186H31.9567L33.4346 28.3531H35.0788L33.3003 26.0563L33.441 26.0243ZM32.0975 25.231H30.8243V23.2669H32.0655C33.038 23.2669 33.5114 23.574 33.5114 24.2074C33.5178 24.8919 33.0508 25.231 32.0975 25.231ZM42.6986 27.3295C41.2847 27.3295 40.4082 26.5361 40.4082 25.2566C40.4082 23.9259 41.2399 23.1965 42.7561 23.1965C43.4663 23.1965 43.9845 23.3181 44.4324 23.4524V22.3008C43.8438 22.1281 43.108 22.0513 42.6346 22.0513C40.9712 22.0513 39.0263 22.8894 39.0263 25.263C39.0263 27.3039 40.3378 28.4747 42.6154 28.4747C43.1592 28.4747 43.8374 28.4043 44.4452 28.2763V27.048C44.0613 27.1631 43.4343 27.3231 42.7306 27.3295H42.6986ZM48.7252 22.0513C47.1258 22.0513 45.4048 23.0366 45.4048 25.2054C45.4048 28.2379 47.9383 28.4747 48.7124 28.4747C49.493 28.4747 52.0329 28.2379 52.0329 25.2054C52.0329 23.0366 50.3183 22.0513 48.7252 22.0513ZM48.7252 27.3295C47.836 27.3295 46.7931 26.7793 46.7931 25.2118C46.7931 23.8299 47.7592 23.2157 48.7124 23.2157C49.8704 23.2157 50.6446 24.0154 50.6446 25.2118C50.6446 26.7793 49.6081 27.3295 48.7252 27.3295ZM57.2406 26.0243C58.1171 25.8132 58.7057 25.0838 58.7057 24.201C58.7057 22.5184 57.3238 22.1665 56.1658 22.1665H53.2868V28.3531H54.6048V26.3186H55.7564L57.2342 28.3531H58.8785L57.0999 26.0563L57.2406 26.0243ZM55.9035 25.231H54.6304V23.2669H55.8715C56.844 23.2669 57.3174 23.574 57.3174 24.2074C57.3174 24.8919 56.8568 25.231 55.9035 25.231ZM62.9858 22.1729H60.1452V28.3595H61.4632V26.6001H62.9922C64.2846 26.6001 65.6601 26.0179 65.6601 24.3801C65.6601 22.8894 64.79 22.1729 62.9858 22.1729ZM62.8579 25.5061H61.4632V23.2669H62.8323C63.504 23.2669 64.2782 23.3884 64.2782 24.3417C64.2718 25.3653 63.5616 25.5061 62.8579 25.5061ZM69.8634 22.0513C68.264 22.0513 66.543 23.0366 66.543 25.2054C66.543 28.2379 69.0765 28.4747 69.8506 28.4747C70.6311 28.4747 73.171 28.2379 73.171 25.2054C73.171 23.0366 71.4564 22.0513 69.8634 22.0513ZM69.8634 27.3295C68.9741 27.3295 67.9313 26.7793 67.9313 25.2118C67.9313 24.0154 68.7054 23.2157 69.8506 23.2157C71.0022 23.2157 71.7827 24.0154 71.7827 25.2118C71.7891 26.7793 70.7527 27.3295 69.8634 27.3295ZM78.3852 26.0243C79.2617 25.8132 79.8503 25.0838 79.8503 24.201C79.8503 22.5184 78.4684 22.1665 77.3104 22.1665H74.4314V28.3531H75.7493V26.3186H76.9009L78.3788 28.3531H80.023L78.2445 26.0563L78.3852 26.0243ZM77.0481 25.231H75.7749V23.2669H77.0161C77.9885 23.2669 78.462 23.574 78.462 24.2074C78.462 24.8919 78.0013 25.231 77.0481 25.231ZM83.0364 22.1729L80.714 28.3595H82.0255L82.4414 27.2015H85.5507L85.9218 28.3595H87.3804L85.0133 22.1729H83.0364ZM82.8188 26.1011L83.9704 23.0622L85.1668 26.1011H82.8188ZM89.1078 28.3595H90.4258V23.2669H92.505V22.1729H87.0286V23.2669H89.1078V28.3595ZM93.7974 22.1729H95.1153V28.3595H93.7974V22.1729ZM99.7601 22.0513C98.1606 22.0513 96.446 23.0366 96.446 25.2054C96.446 28.2379 98.9795 28.4747 99.7537 28.4747C100.534 28.4747 103.074 28.2379 103.074 25.2054C103.068 23.0366 101.353 22.0513 99.7601 22.0513ZM99.7601 27.3295C98.8708 27.3295 97.828 26.7793 97.828 25.2118C97.828 23.8299 98.794 23.2157 99.7473 23.2157C100.899 23.2157 101.679 24.0154 101.679 25.2118C101.679 26.7793 100.643 27.3295 99.7601 27.3295ZM108.749 26.3826L105.908 22.1793H104.309V28.3595H105.601V23.8491L108.685 28.3595H110.041V22.1793H108.749V26.3826ZM1.35632 22.1729H0V28.3595H1.31794V24.5656L3.30124 28.3595H4.22251L6.21221 24.5656V28.3595H7.53015V22.1729H6.17383L3.76188 26.6577L1.35632 22.1729ZM63.8815 8.56486H56.3961C56.0571 8.56486 55.6796 8.53927 55.5005 8.48809C54.8351 8.30895 54.5216 7.72676 54.5216 7.13177C54.5216 6.61995 54.8031 5.99937 55.5133 5.78184C55.7244 5.71786 55.9291 5.71147 56.3642 5.71147H66.9844V3.52344H56.1914C55.7692 3.52344 55.4237 3.53623 55.123 3.58102C53.3764 3.82413 52.1096 5.28282 52.1096 7.13816C52.1096 8.79518 53.1781 10.433 55.0782 10.7145C55.4941 10.7785 56.1274 10.7657 56.3002 10.7657H63.5552C63.6576 10.7657 64.0223 10.7721 64.1182 10.7849C64.9819 10.9064 65.4298 11.5718 65.4298 12.3139C65.4298 12.9409 65.0459 13.6575 64.195 13.811C64.0862 13.8302 63.7024 13.843 63.5744 13.843H52.4743V16.0566H63.7472C63.8815 16.0566 64.5085 16.0502 64.6364 16.0374C66.7413 15.8455 67.8417 14.1245 67.8417 12.3011C67.8417 10.6953 66.8437 8.81437 64.8092 8.60965C64.3805 8.55847 64.0287 8.56486 63.8815 8.56486ZM42.4555 8.56486H34.9701C34.631 8.56486 34.2535 8.53927 34.0744 8.48809C33.409 8.30895 33.0955 7.72676 33.0955 7.13177C33.0955 6.61995 33.377 5.99937 34.0872 5.78184C34.2983 5.71786 34.5031 5.71147 34.9381 5.71147H45.5584V3.52344H34.7654C34.3431 3.52344 33.9976 3.53623 33.6969 3.58102C31.9503 3.82413 30.6836 5.28282 30.6836 7.13816C30.6836 8.79518 31.752 10.433 33.6521 10.7145C34.068 10.7785 34.7014 10.7657 34.8741 10.7657H42.1292C42.2315 10.7657 42.5962 10.7721 42.6922 10.7849C43.5559 10.9064 44.0037 11.5718 44.0037 12.3139C44.0037 12.9409 43.6198 13.6575 42.7689 13.811C42.6602 13.8302 42.2763 13.843 42.1484 13.843H31.0483V16.0566H42.3211C42.4555 16.0566 43.0824 16.0502 43.2104 16.0374C45.3152 15.8455 46.4157 14.1245 46.4157 12.3011C46.4157 10.6953 45.4112 8.81437 43.3831 8.60965C42.9545 8.55847 42.6026 8.56486 42.4555 8.56486ZM22.2834 3.52344H24.6697V16.0502H22.2834V3.52344ZM13.1474 13.5359L3.33962 3.52344H0V16.0502H2.38636V5.97377L12.2645 16.0502H15.5337V3.52344H13.1474V13.5359ZM107.648 13.5359L97.8407 3.52344H94.5011V16.0502H96.8875V5.97377L106.766 16.0502H110.035V3.52344H107.648V13.5359ZM79.5688 3.52344L71.8275 16.0502H74.7385L76.1652 13.7342H85.781L87.2077 16.0502H90.1187L82.3838 3.52344H79.5688ZM77.3488 11.7381L80.9763 5.85222L84.5974 11.7381H77.3488Z" fill="#515F66"/>
</g>
<defs>
<clipPath id="clip0_1_639">
<rect width="110.041" height="32" fill="white"/>
</clipPath>
</defs>
</svg>
