<svg width="92" height="37" viewBox="0 0 92 37" fill="none" xmlns="http://www.w3.org/2000/svg">
<g clip-path="url(#clip0_412_238)">
<mask id="mask0_412_238" style="mask-type:luminance" maskUnits="userSpaceOnUse" x="0" y="0" width="92" height="37">
<path d="M91.4859 0H0V37H91.4859V0Z" fill="white"/>
</mask>
<g mask="url(#mask0_412_238)">
<path d="M44.3933 23.7161C43.8898 24.2011 43.3068 24.604 42.6412 24.8868C41.9973 25.1696 41.2724 25.3102 40.507 25.3102C40.1048 25.3102 39.7213 25.2692 39.3597 25.1886C38.9964 25.108 38.6348 24.9863 38.2918 24.8457C37.9489 24.6846 37.6277 24.5029 37.3253 24.3006C37.0229 24.0779 36.7407 23.8361 36.5006 23.5739L46.024 19.8785L50.0709 18.3033C49.8495 16.8892 49.346 15.5574 48.5821 14.4057C46.8502 11.7814 43.8711 10.0641 40.5086 10.0641C35.1724 10.0641 30.8246 14.4246 30.8246 19.7758C30.8246 20.2813 30.8652 20.7648 30.9447 21.2498C31.166 22.6638 31.6696 23.9958 32.435 25.1475C32.8778 25.7937 33.3813 26.3988 33.9643 26.9249C34.5489 27.4494 35.1724 27.9139 35.877 28.2978C36.5614 28.6817 37.3065 28.9851 38.0907 29.1858C38.8764 29.388 39.6823 29.4875 40.5273 29.4875C41.8554 29.4875 43.1447 29.2253 44.292 28.7197C45.4596 28.2346 46.487 27.5079 47.3724 26.6405C48.2579 25.7526 48.9625 24.7225 49.4457 23.5518C49.6469 23.0668 49.8075 22.5422 49.929 22.0177H45.5392C45.2806 22.6593 44.8894 23.2374 44.3918 23.7129L44.3933 23.7161ZM40.5273 14.2271C42.0971 14.2271 43.5266 14.9128 44.5337 15.9634L35.0103 19.6588C35.0711 16.6697 37.5264 14.2271 40.5273 14.2271ZM26.8682 21.3968L26.8479 0H22.6357L22.656 21.2957C22.656 25.7905 25.6382 28.9835 29.9922 29.309V25.1191C28.159 24.8141 26.8682 23.3495 26.8682 21.3968Z" fill="black"/>
<path d="M26.8225 21.4378L26.8023 0.0410156H22.5901L22.6104 21.3367C22.6104 25.8316 25.5926 29.0245 29.9466 29.35V25.1601C28.1118 24.8551 26.8225 23.3906 26.8225 21.4378ZM71.418 19.4345C71.2138 14.265 66.9003 10.1051 61.6047 10.1051C56.3092 10.1051 51.7728 14.4656 51.7728 19.8184C51.7728 25.1711 56.1876 29.5301 61.6047 29.5301C63.689 29.5301 65.6329 28.8839 67.2261 27.7732V29.3484H71.457L71.4164 19.4739V19.4345H71.418ZM61.6063 25.3718C58.5196 25.3718 56.0052 22.8881 56.0052 19.8389C56.0052 16.7897 58.5196 14.3076 61.6063 14.3076C64.6929 14.3076 67.2074 16.7913 67.2074 19.8389C67.2074 22.8866 64.6929 25.3718 61.6063 25.3718ZM82.4517 9.99608C77.4618 9.99608 73.4182 14.0707 73.4182 19.0964V29.4006H77.713V19.0885C77.713 16.4753 79.8159 14.3566 82.4116 14.3566H82.4941C85.0884 14.3566 87.1927 16.4753 87.1927 19.0885V29.4006H91.4875V19.0964C91.4875 14.0707 87.4438 9.99608 82.4532 9.99608H82.4517Z" fill="black"/>
<path fill-rule="evenodd" clip-rule="evenodd" d="M13.8119 10.9157L16.5649 7.36719L19.9057 9.99613L17.1729 13.5193C18.5837 15.2178 19.4317 17.406 19.4317 19.7932C19.4317 25.1981 15.0824 29.5807 9.71666 29.5807C4.3509 29.5807 0 25.1981 0 19.7932C0 14.3883 4.3509 10.0056 9.71666 10.0056C11.1805 10.0056 12.5679 10.3327 13.8134 10.9157H13.8119ZM9.71666 25.3766C6.65496 25.3766 4.17318 22.8772 4.17318 19.7932C4.17318 16.7092 6.65496 14.2098 9.71666 14.2098C12.7783 14.2098 15.2601 16.7092 15.2601 19.7932C15.2601 22.8772 12.7783 25.3766 9.71666 25.3766ZM19.5455 28.1651C19.3043 28.452 19.051 28.7283 18.7863 28.993C18.5214 29.2585 18.2454 29.5113 17.9585 29.7514C17.6725 29.9922 17.3761 30.22 17.07 30.4339C16.7637 30.6495 16.448 30.8509 16.1237 31.0374C15.801 31.2251 15.4702 31.398 15.1322 31.5557C14.7956 31.7136 14.451 31.8574 14.0987 31.9838C13.7479 32.1121 13.3916 32.2244 13.0309 32.3203C12.6739 32.4183 12.3091 32.4989 11.9396 32.5621C11.5748 32.6268 11.2054 32.6758 10.8312 32.7074C10.4633 32.739 10.0908 32.7564 9.71505 32.7564C9.33939 32.7564 8.96679 32.739 8.59893 32.7074C8.2248 32.6758 7.85534 32.6268 7.49055 32.5621C7.12263 32.4989 6.75785 32.4183 6.40086 32.3203L5.30962 36.4186C5.78353 36.5466 6.26835 36.6556 6.7594 36.7409C7.24266 36.8262 7.7353 36.8926 8.23254 36.9337C9.21906 37.0198 10.2111 37.0198 11.1976 36.9337C11.6964 36.8926 12.1859 36.8279 12.6707 36.7409C13.1618 36.6556 13.6451 36.5466 14.1205 36.4186C14.6022 36.2906 15.0762 36.1422 15.5392 35.9715C16.0068 35.8024 16.4652 35.6113 16.9125 35.4011C17.363 35.1911 17.8027 34.9604 18.2313 34.7123C18.6601 34.4627 19.0794 34.1941 19.4847 33.9066C19.8916 33.6206 20.2875 33.3189 20.6663 32.9981C21.0483 32.6774 21.4147 32.3409 21.7638 31.9886C22.1161 31.6362 22.4513 31.2713 22.7709 30.8874C23.092 30.5066 23.3944 30.1101 23.6797 29.7024L20.2315 27.2694C20.0166 27.5771 19.7883 27.875 19.5471 28.162L19.5455 28.1651Z" fill="black"/>
</g>
</g>
<defs>
<clipPath id="clip0_412_238">
<rect width="92" height="37" fill="white"/>
</clipPath>
</defs>
</svg>
