<svg width="62" height="27" viewBox="0 0 62 27" fill="none" xmlns="http://www.w3.org/2000/svg">
<mask id="mask0_412_246" style="mask-type:luminance" maskUnits="userSpaceOnUse" x="0" y="0" width="62" height="27">
<path d="M61.8651 0H0V26.4615H61.8651V0Z" fill="white"/>
</mask>
<g mask="url(#mask0_412_246)">
<path d="M45.5493 7.70667H41.7795V6.86301C41.7795 6.00532 41.5806 5.27419 41.1681 4.65559C40.7557 4.03692 40.0725 3.72758 39.1199 3.72758C38.6077 3.72758 38.1806 3.82602 37.8394 4.02283C37.5121 4.2197 37.242 4.4728 37.0571 4.76805C36.8721 5.07738 36.7438 5.42886 36.6726 5.82254C36.6021 6.23031 36.5588 6.63808 36.5588 7.088C36.5588 7.59414 36.5735 8.03003 36.616 8.38157C36.6586 8.73305 36.7438 9.04238 36.8861 9.29549C37.0285 9.54852 37.256 9.77351 37.5261 9.97039C37.8108 10.1672 38.1953 10.3641 38.6929 10.5609L41.5806 11.6998C42.4201 12.0231 43.1026 12.3887 43.6148 12.8106C44.127 13.2324 44.5394 13.7385 44.8095 14.315C45.0942 14.8915 45.2792 15.5382 45.379 16.2834C45.4781 17.0287 45.5206 17.8723 45.5206 18.8284C45.5206 19.9251 45.4069 20.9374 45.194 21.8795C44.9659 22.8215 44.6106 23.6229 44.0984 24.2838C43.5862 24.9587 42.9176 25.4789 42.0781 25.8726C41.2393 26.2663 40.2149 26.4631 39.0055 26.4631C38.0955 26.4631 37.242 26.3085 36.4597 25.9851C35.6774 25.6758 34.9942 25.2399 34.4255 24.6915C33.8561 24.1432 33.415 23.4964 33.0738 22.7371C32.7465 21.9779 32.5762 21.1624 32.5762 20.2906V18.8986H36.346V20.0657C36.346 20.7546 36.5449 21.3592 36.9573 21.9076C37.3697 22.4559 38.0529 22.7231 39.0055 22.7231C39.6461 22.7231 40.1437 22.6387 40.4996 22.4559C40.8548 22.2731 41.1256 22.02 41.3105 21.6826C41.4954 21.3592 41.6092 20.9515 41.6657 20.4593C41.7083 19.9672 41.7369 19.433 41.7369 18.8565C41.7369 18.1816 41.7083 17.6192 41.6657 17.1833C41.6231 16.7474 41.5094 16.3959 41.3531 16.1288C41.1967 15.8616 40.9686 15.6367 40.6845 15.468C40.3998 15.2992 40.0299 15.1164 39.5603 14.9196L36.8575 13.8229C35.2364 13.162 34.1408 12.2903 33.586 11.2077C33.0312 10.1251 32.7611 8.76116 32.7611 7.1302C32.7611 6.15999 32.8888 5.23205 33.1735 4.36028C33.4436 3.48857 33.8421 2.72932 34.3683 2.09656C34.8945 1.46386 35.563 0.957722 36.3885 0.578065C37.1994 0.198408 38.152 0.015625 39.2337 0.015625C40.1723 0.015625 41.0258 0.184384 41.8081 0.521835C42.5904 0.859286 43.2449 1.3092 43.7997 1.87164C44.3545 2.43401 44.7809 3.05268 45.0803 3.7557C45.379 4.44462 45.5206 5.16173 45.5206 5.89286V7.70667H45.5493Z" fill="#212121"/>
<path d="M56.474 26.2362H53.1452L47.7969 0.224609H51.7795L54.767 18.3765H54.8382L57.8822 0.224609H61.8795L56.474 26.2362Z" fill="#212121"/>
<path d="M28.6213 3.58436C28.4224 3.14854 28.1803 2.75486 27.9102 2.40332L25.4063 7.85876V20.1053C25.4063 21.0051 25.1502 21.666 24.6526 22.1018C24.1404 22.5237 23.5431 22.7346 22.8599 22.7346C22.1634 22.7346 21.5654 22.5237 21.0677 22.1018C20.5556 21.68 20.3138 21.0051 20.3138 20.1053V18.9383L17.8955 24.1968C18.0947 24.45 18.3223 24.6749 18.5641 24.8858C19.1616 25.406 19.8444 25.7997 20.5983 26.0669C21.3525 26.334 22.1062 26.4746 22.8745 26.4746C23.6422 26.4746 24.3965 26.334 25.1502 26.0669C25.9046 25.7997 26.5731 25.406 27.1845 24.8858C27.7818 24.3655 28.2801 23.7047 28.6499 22.9174C29.0198 22.13 29.2047 21.1879 29.2047 20.1193V6.36832C29.1761 5.31382 28.9912 4.38582 28.6213 3.58436Z" fill="#212121"/>
<path d="M12.9307 7.72558H9.16099V6.88198C9.16099 6.0243 8.96189 5.29316 8.54932 4.67449C8.13682 4.05582 7.45397 3.74649 6.50091 3.74649C5.98883 3.74649 5.56203 3.84493 5.22064 4.0418C4.89348 4.23861 4.6232 4.49171 4.43827 4.78696C4.25334 5.09629 4.12529 5.44783 4.05417 5.84152C3.98306 6.24929 3.94036 6.65699 3.94036 7.10691C3.94036 7.61311 3.95459 8.049 3.9973 8.40048C4.03994 8.75202 4.12529 9.06135 4.26758 9.31439C4.4098 9.5675 4.63744 9.79249 4.90772 9.98929C5.19217 10.1862 5.57626 10.383 6.07418 10.5798L8.96189 11.7188C9.80113 12.028 10.484 12.4077 10.9961 12.8295C11.5081 13.2513 11.9065 13.7575 12.191 14.3199C12.4755 14.8964 12.6604 15.5572 12.76 16.2883C12.8595 17.0336 12.9022 17.8771 12.9022 18.8333C12.9022 19.93 12.7884 20.9423 12.5751 21.8843C12.3475 22.8264 11.9918 23.6278 11.4797 24.2886C10.9676 24.9635 10.299 25.4838 9.45974 25.8775C8.62043 26.2711 7.59627 26.468 6.3871 26.468C5.47668 26.468 4.6232 26.3133 3.84077 25.99C3.05841 25.6806 2.37563 25.2448 1.8066 24.6964C1.23757 24.1481 0.796596 23.5013 0.455206 22.742C0.170692 21.9828 0 21.1672 0 20.2814V18.8895H3.76966V20.0565C3.76966 20.7314 3.96882 21.35 4.38133 21.8984C4.7939 22.4467 5.47668 22.7139 6.42981 22.7139C7.06995 22.7139 7.56779 22.6155 7.92342 22.4467C8.27904 22.2639 8.54932 22.0109 8.73425 21.6734C8.91918 21.35 9.033 20.9423 9.08988 20.4502C9.13259 19.9581 9.16099 19.4238 9.16099 18.8473C9.16099 18.1724 9.13259 17.61 9.08988 17.16C9.033 16.7242 8.93342 16.3727 8.77696 16.1055C8.62043 15.8384 8.39287 15.6134 8.10835 15.4447C7.82384 15.276 7.45397 15.0932 6.98453 14.8964L4.28175 13.7996C2.66008 13.1669 1.5648 12.2952 1.01 11.2125C0.455211 10.1299 0.184931 8.76604 0.184931 7.13509C0.184931 6.16488 0.327156 5.23694 0.597434 4.36516C0.867712 3.49345 1.26604 2.7342 1.79236 2.10144C2.31868 1.46875 2.9873 0.962605 3.81237 0.582948C4.62321 0.203291 5.57626 0.0205078 6.65737 0.0205078C7.59626 0.0205078 8.44974 0.189267 9.23217 0.526718C10.0145 0.864169 10.6689 1.31408 11.2236 1.87652C11.7784 2.43889 12.2052 3.05756 12.5039 3.76058C12.8027 4.44951 12.9449 5.16661 12.9449 5.89775V7.72558H12.9307Z" fill="#212121"/>
<path d="M20.2989 6.36936C20.2989 5.46947 20.555 4.80866 21.0528 4.37277C21.5647 3.95097 22.1627 3.74007 22.8453 3.74007C22.945 3.74007 23.0442 3.74008 23.1439 3.7541L24.7511 0.281219C24.1258 0.0984359 23.4998 0 22.8592 0C22.0916 0 21.3372 0.140578 20.5835 0.407774C19.8295 0.674903 19.1467 1.06858 18.5492 1.58882C17.9518 2.10905 17.4539 2.76986 17.084 3.58541C16.7142 4.3868 16.5293 5.3148 16.5293 6.36936V20.1063C16.5293 21.1749 16.7142 22.1169 17.084 22.9043C17.3117 23.3824 17.5677 23.8042 17.8807 24.1978L20.2989 18.9393V6.36936Z" fill="#212121"/>
</g>
</svg>
