<svg width="135" height="36" viewBox="0 0 135 36" fill="none" xmlns="http://www.w3.org/2000/svg">
<path d="M133.91 35.612H129.738V28.4795H131.184V34.4141C131.24 34.4141 131.296 34.4141 131.351 34.4141C132.241 34.4141 133.131 34.4141 134.02 34.4141V35.5031C134.02 35.5031 134.02 35.5031 133.966 35.5031L133.91 35.612Z" fill="#212121"/>
<path d="M117.784 35.6621C117.784 35.6621 117.784 35.6621 117.784 35.7165H116.005C116.005 35.7165 116.005 35.7165 116.005 35.6621C116.005 35.6621 116.059 35.6621 116.115 35.6621C116.616 35.6621 117.117 35.6621 117.617 35.6621C117.672 35.6621 117.728 35.6621 117.784 35.6621Z" fill="#212121"/>
<path d="M133.966 13.3407C133.966 13.3407 133.966 13.3407 133.911 13.3407C133.911 12.4695 133.911 11.544 133.911 10.6729H133.966V13.3407Z" fill="#212121"/>
<path d="M3.89282 5.55357C3.39232 5.55357 2.89182 5.66245 2.39132 5.71689C1.89082 5.71689 1.39032 5.82588 0.889826 5.82588C0.611784 5.82588 0.33374 5.88031 0 5.93475C0 5.82587 0 5.77133 0 5.71689C0 3.86577 0 2.06898 0 0.217861C0 0.217861 0 0.108877 0 0.0544387C0 0.0544387 3.39868e-06 0.0544387 0.055701 0.0544387C0.278157 6.71845e-07 0.500501 0 0.667371 0C7.56318 0 14.4589 0 21.3547 0C21.4658 0 21.5771 0 21.7439 0V1.19786C17.1838 3.10353 12.4569 4.41026 7.50748 5.1725C7.50748 5.1725 7.50748 5.1725 7.45189 5.1725C7.17385 5.1725 6.89581 5.22694 6.61777 5.28138C6.61777 5.28138 6.56218 5.28138 6.50648 5.28138C6.11726 5.28138 5.72794 5.39026 5.33873 5.39026C5.33873 5.39026 5.28303 5.39026 5.22744 5.39026C4.83823 5.39026 4.39332 5.4447 4.00399 5.49914C4.00399 5.49914 3.9484 5.49914 3.89282 5.49914V5.55357Z" fill="#212121"/>
<path d="M86.5292 12.1406C86.8634 11.8684 87.1419 11.5417 87.475 11.2694C87.8649 10.9428 88.365 10.7794 88.8652 10.6705C89.1994 10.6161 89.5881 10.5616 89.9223 10.5616C90.3668 10.5616 90.8113 10.6161 91.2568 10.7794C92.3686 11.1606 92.9244 11.9228 93.2586 12.9028C93.37 13.284 93.4257 13.6652 93.4814 14.1007C93.6474 16.4418 93.4814 18.7831 93.5371 21.1243C93.5371 21.1243 93.5371 21.1243 93.4814 21.1787C92.5914 21.1787 91.7013 21.1787 90.867 21.1787C90.867 21.1787 90.867 21.1787 90.7567 21.1787C90.7567 21.0699 90.7567 20.9065 90.7567 20.7432C90.7567 18.7287 90.7567 16.7141 90.7567 14.6996C90.7567 14.2095 90.6453 13.774 90.4225 13.3929C90.1997 12.9573 89.8109 12.685 89.2551 12.685C89.1437 12.685 89.0323 12.6306 88.9209 12.6306C88.4764 12.6306 88.0308 12.6851 87.6978 12.9574C87.0862 13.4473 86.752 14.1007 86.5849 14.8629C86.4746 15.4618 86.4746 16.1152 86.4746 16.7141C86.4746 18.1297 86.4746 19.5998 86.4746 21.0154V21.1243C86.4746 21.1243 86.4735 21.1243 86.4189 21.1787H83.6931V6.09704C83.9159 6.0426 85.5846 5.98816 86.4189 6.09704C86.4189 6.09704 86.4189 6.09704 86.4746 6.15148C86.4746 6.85928 86.4746 7.51265 86.4746 8.22046C86.4746 9.5272 86.4746 10.8339 86.4746 12.1406C86.4746 12.1406 86.4746 12.195 86.4746 12.2495C86.4746 12.2495 86.5292 12.2495 86.5849 12.2495L86.5292 12.1406Z" fill="#212121"/>
<path d="M21.7398 11.0515C21.7398 11.2149 21.7398 11.4327 21.7398 11.596C21.7398 14.6995 21.7398 17.8029 21.7398 20.9064C21.7398 21.0153 21.7398 21.1242 21.7398 21.2331H7.89258C7.94828 21.1787 8.00386 21.1242 8.05945 21.1242C9.56094 20.0897 11.0624 19.0552 12.5639 17.9663C13.3425 17.4218 14.121 16.8774 14.844 16.2785C16.0674 15.3529 17.3465 14.4272 18.5699 13.4472C19.6265 12.6305 20.6275 11.8139 21.6841 10.9971C21.6841 10.9971 21.7398 10.9971 21.7954 10.9971L21.7398 11.0515Z" fill="#212121"/>
<path d="M100.712 21.4559C100.489 21.4559 100.212 21.4559 99.9891 21.4559C99.4889 21.4559 99.0433 21.2926 98.5432 21.0748C98.209 20.9659 97.8759 20.7481 97.5417 20.5848C96.9302 20.2036 96.43 19.7137 96.0958 19.0603C95.7071 18.407 95.4286 17.7536 95.3172 16.9913C95.2615 16.6646 95.2615 16.2835 95.3172 15.9568C95.3172 15.5213 95.3729 15.1401 95.4286 14.7045C95.4843 14.3779 95.5957 14.1057 95.7071 13.7789C95.9844 13.0167 96.43 12.3633 97.0416 11.8733C97.5974 11.3833 98.209 11.0566 98.8762 10.8388C99.5992 10.6211 100.322 10.5121 101.045 10.5666C102.102 10.5666 103.103 10.8933 103.993 11.4378C104.716 11.8733 105.271 12.4178 105.661 13.1256C105.994 13.7245 106.217 14.3234 106.273 14.9768C106.384 15.6302 106.44 16.2835 106.329 16.9369C106.106 18.0258 105.717 19.0603 104.883 19.877C104.548 20.2036 104.16 20.4759 103.715 20.7481C103.158 21.0203 102.602 21.2382 101.991 21.3471C101.546 21.4559 101.045 21.4559 100.545 21.4559H100.712ZM100.434 19.387C101.935 19.387 102.77 18.9513 103.214 17.9169C103.492 17.2635 103.604 16.6102 103.604 15.9024C103.604 15.3034 103.492 14.7045 103.27 14.1057C102.992 13.4523 102.547 13.0167 101.879 12.7989C101.435 12.6356 100.989 12.6356 100.545 12.6356C99.9891 12.6356 99.4332 12.9078 99.0433 13.3434C98.5989 13.8334 98.2647 14.4323 98.209 15.1401C98.209 15.5757 98.209 16.0112 98.209 16.4469C98.209 16.9913 98.3761 17.4813 98.5989 17.9713C99.0433 18.8425 99.7663 19.3325 100.378 19.2781L100.434 19.387Z" fill="#212121"/>
<path d="M77.9648 21.2883C77.9648 21.1795 77.9648 21.016 77.9648 20.9072C77.9648 19.0016 77.9648 17.0959 77.9648 15.1903C77.9648 14.6458 77.9091 14.1014 77.6863 13.6114C77.5203 13.1757 77.1861 12.9035 76.6859 12.7947C76.2415 12.6858 75.8516 12.6858 75.4071 12.7947C74.7399 12.958 74.4057 13.448 74.1272 13.9924C73.9612 14.3736 73.8498 14.7547 73.7384 15.1903C73.627 15.6259 73.7384 16.1158 73.7384 16.5515C73.7384 18.0215 73.7384 19.4916 73.7384 20.9616C73.7384 21.0705 73.7384 21.1795 73.7384 21.2883H70.958V10.8346H73.5713V12.2502C73.6827 12.1413 73.7384 12.1413 73.7941 12.0869C74.5171 11.2156 75.4071 10.7257 76.5189 10.6168C77.0747 10.5624 77.576 10.5624 78.1319 10.6713C79.1879 10.9434 79.9665 11.4879 80.3564 12.4679C80.6895 13.2846 80.8009 14.1014 80.8009 14.9725C80.8009 16.9326 80.8009 18.9471 80.8009 20.9072C80.8009 21.016 80.8009 21.125 80.8009 21.2339H78.0205L77.9648 21.2883Z" fill="#212121"/>
<path d="M58.1689 10.8318H60.9494C60.9494 10.9407 60.9494 11.1041 60.9494 11.213C60.9494 13.0642 60.9494 14.9697 60.9494 16.821C60.9494 17.202 60.9494 17.5832 61.0051 17.9643C61.1165 18.6177 61.5052 19.1077 62.1168 19.3255C62.2282 19.3255 62.3953 19.3255 62.5624 19.3255C62.8954 19.3255 63.1739 19.3255 63.507 19.2166C64.1197 18.9444 64.5084 18.5632 64.7869 17.9643C65.12 17.2565 65.1757 16.4942 65.1757 15.7864C65.1757 14.2619 65.1757 12.683 65.1757 11.1585C65.1757 11.0496 65.1757 10.9407 65.1757 10.8318H67.9561V21.2856H65.3428V19.8699C65.2314 19.9788 65.12 20.0333 65.0643 20.0877C64.7869 20.36 64.4527 20.6322 64.1197 20.8501C63.5627 21.1767 63.0068 21.3944 62.3953 21.4489C61.728 21.5033 61.0051 21.5579 60.3378 21.2856C59.6706 21.0134 59.1704 20.6322 58.7805 20.0333C58.4474 19.5433 58.2803 18.9444 58.2246 18.3999C58.1689 18.0188 58.1689 17.6377 58.1689 17.2565C58.1689 15.1876 58.1689 13.1186 58.1689 11.0496C58.1689 10.9952 58.1689 10.8862 58.1689 10.7773V10.8318Z" fill="#212121"/>
<path d="M124.902 18.5132C124.902 19.221 124.902 19.8743 124.902 20.4733C124.902 20.6366 124.79 20.691 124.679 20.7999C124.012 21.1266 123.344 21.3444 122.621 21.4533C121.676 21.5621 120.731 21.5621 119.785 21.4533C119.007 21.3444 118.284 21.0176 117.672 20.5821C116.893 20.0376 116.449 19.3298 116.059 18.4587C115.892 18.0775 115.782 17.642 115.726 17.2609C115.67 16.7708 115.726 16.2264 115.726 15.6819C115.726 15.2463 115.782 14.8653 115.892 14.4296C116.003 13.9396 116.226 13.4496 116.449 13.014C116.949 12.0885 117.672 11.4351 118.618 10.9995C119.007 10.8362 119.341 10.7273 119.785 10.7273C120.064 10.7273 120.341 10.6729 120.62 10.6729C121.454 10.6729 122.233 10.7817 123.01 11.1084C123.844 11.4351 124.456 11.9796 124.846 12.7418C125.179 13.2862 125.346 13.9396 125.513 14.5385C125.68 15.3008 125.792 16.1174 125.736 16.9342H118.339C118.228 17.3153 118.339 17.6965 118.506 17.9687C118.728 18.4587 119.062 18.8398 119.507 19.1121C119.952 19.3843 120.452 19.5476 121.008 19.5476C121.731 19.5476 122.399 19.5476 123.066 19.2754C123.567 19.1121 124.067 18.8398 124.623 18.622C124.679 18.622 124.79 18.5676 124.902 18.5132ZM123.01 15.0286C123.01 14.8653 122.955 14.7018 122.955 14.5385C122.9 13.994 122.677 13.5041 122.288 13.0685C121.954 12.7418 121.51 12.6328 121.12 12.5784C120.508 12.524 119.897 12.5784 119.341 12.9596C118.951 13.2318 118.673 13.613 118.506 14.103C118.395 14.3752 118.284 14.7018 118.284 15.0286H123.01Z" fill="#212121"/>
<path d="M47.5442 13.6071C47.5442 12.8449 47.4886 12.1371 47.433 11.3748C47.7111 11.266 47.9891 11.157 48.2671 11.0481C48.7676 10.8848 49.2681 10.7215 49.7686 10.667C50.436 10.6126 51.1038 10.4492 51.7711 10.5582C52.2712 10.667 52.8271 10.667 53.2727 10.8303C54.4401 11.157 55.1631 11.9193 55.4961 13.0626C55.6632 13.716 55.7746 14.4238 55.7746 15.1316C55.7746 16.6017 55.7746 18.0717 55.8303 19.5418C55.8303 20.0863 55.886 20.6852 55.9417 21.2297H53.4387C53.4387 20.7396 53.383 20.2496 53.3273 19.7052C53.217 19.8141 53.1613 19.8685 53.1056 19.923C52.7157 20.5219 52.1041 20.9574 51.4369 21.1753C51.3255 21.1753 51.1584 21.2841 51.0481 21.2841C50.6028 21.4474 50.158 21.393 49.6575 21.393C48.8789 21.393 48.156 21.1208 47.5442 20.7396C46.9325 20.304 46.4876 19.7052 46.3207 18.9428C46.0983 17.9084 46.3207 16.9828 46.9881 16.1662C47.2661 15.785 47.711 15.5128 48.156 15.3494C48.8232 15.0772 49.5462 14.9683 50.2691 14.8594C51.0481 14.7506 51.8268 14.8594 52.6043 14.805C52.8271 14.805 52.9942 14.805 53.1613 14.805C53.1613 14.7506 53.217 14.7506 53.217 14.696C53.217 14.2605 53.217 13.8249 52.9385 13.3894C52.7714 13.1171 52.5497 12.8449 52.1598 12.736C51.0481 12.3548 49.9911 12.4637 48.8788 12.8993C48.434 13.0626 47.9891 13.2804 47.5998 13.6071C47.5998 13.6071 47.5998 13.6071 47.5442 13.6071ZM53.2727 16.4928C53.1613 16.4928 53.0499 16.4928 52.9385 16.4928C52.2155 16.4928 51.5483 16.4928 50.8253 16.6017C50.5472 16.6017 50.3247 16.7105 50.1023 16.8194C49.3793 17.0917 48.9901 17.6362 48.9901 18.3985C48.9901 18.8884 49.2125 19.2151 49.6018 19.3785C50.2691 19.7052 50.9924 19.7052 51.7154 19.3785C52.4383 19.0518 52.9385 18.5073 53.1056 17.6907C53.217 17.3095 53.2727 16.9284 53.2727 16.4928Z" fill="#212121"/>
<path d="M29.1426 7.07812C29.2539 7.07812 29.365 7.07812 29.4206 7.07812C31.8675 7.07812 34.2588 7.07812 36.7056 7.07812C36.8169 7.07812 36.9281 7.07812 37.095 7.07812V9.31042H31.9231V12.795H36.8169C36.8169 13.1762 36.8169 13.5573 36.8169 13.884C36.8169 14.2651 36.8169 14.5918 36.8169 14.9729C36.8169 14.9729 36.8169 14.9729 36.8169 15.0273C36.5389 15.0273 36.2607 15.0273 35.9827 15.0273C34.7593 15.0273 33.5359 15.0273 32.3124 15.0273C32.2012 15.0273 32.09 15.0273 31.9787 15.0273C31.9787 15.1362 31.9787 15.2452 31.9787 15.4085C31.9787 17.2052 31.9787 19.002 31.9787 20.8532C31.9787 20.9621 31.9787 21.0709 31.9787 21.2343C31.9787 21.2343 31.9787 21.2342 31.9231 21.2887C30.9777 21.2887 30.088 21.2887 29.1426 21.2887C29.1426 21.2342 29.1426 21.1798 29.1426 21.0709C29.1426 16.4974 29.1426 11.9239 29.1426 7.29588C29.1426 7.29588 29.1426 7.187 29.1426 7.13256C29.1426 7.13256 29.1426 7.13256 29.1982 7.07812H29.1426Z" fill="#212121"/>
<path d="M21.6883 8.38051C19.6863 9.68724 17.6843 11.0484 15.6823 12.3552C14.6257 13.0085 13.5692 13.6618 12.5125 14.2607C11.3447 14.9685 10.1768 15.6763 8.95339 16.3841C6.22844 17.9632 3.50349 19.4877 0.667371 20.9033C0.444914 21.0121 0.278154 21.121 0 21.2299V18.072C0.111284 18.072 0.166873 17.9632 0.278156 17.9087C3.50349 16.3841 6.72894 14.8052 9.8988 13.1174C11.289 12.4096 12.6793 11.5929 14.0697 10.8306C15.6267 9.95944 17.1838 9.03388 18.7409 8.10832C19.6863 7.56382 20.5761 6.96489 21.5214 6.36596C21.5214 6.36596 21.6327 6.36596 21.6883 6.31152C21.6883 6.31152 21.6883 6.31152 21.7439 6.31152C21.7439 6.96489 21.7439 7.61826 21.7439 8.27163C21.7439 8.27163 21.7439 8.27163 21.7439 8.32607L21.6883 8.38051Z" fill="#212121"/>
<path d="M112.112 12.7911V21.2303H109.332C109.332 18.3991 109.332 15.6223 109.332 12.7911H107.274V10.7765H109.276C109.276 10.6132 109.276 10.5042 109.276 10.3954C109.276 9.95985 109.276 9.52423 109.276 9.08862C109.276 8.70755 109.276 8.32637 109.443 7.94531C109.832 6.91076 110.555 6.14852 111.724 5.87633C112.279 5.76745 112.891 5.76745 113.447 5.82189C113.837 5.82189 114.225 5.93076 114.615 5.9852C114.615 6.25739 114.615 6.52969 114.615 6.74745C114.56 6.9652 114.615 7.2375 114.56 7.45526C114.448 7.67301 114.671 7.94531 114.393 8.16306C114.058 8.05419 113.781 7.94531 113.447 7.89087C112.78 7.782 112.279 8.16306 112.112 8.76199C112.112 8.97974 112.057 9.19761 112.057 9.41536C112.057 9.85087 112.057 10.232 112.057 10.6677C112.057 10.6677 112.057 10.7221 112.057 10.7765H114.448V12.7911C113.67 12.7911 112.835 12.7911 112.001 12.7911H112.112Z" fill="#212121"/>
<path d="M21.7439 3.75977C21.7439 4.08651 21.7439 4.3587 21.7439 4.68544C21.7439 4.68544 21.7439 4.68543 21.7439 4.73987C21.0209 5.12094 20.298 5.55655 19.5194 5.93762C18.0179 6.75441 16.4609 7.5711 14.9038 8.38778C13.6247 9.04115 12.29 9.69452 11.011 10.3479C9.84321 10.8923 8.73093 11.3823 7.56317 11.9268C5.89481 12.6891 4.17086 13.3969 2.50249 14.1591C1.72395 14.4858 0.945414 14.8125 0.111287 15.1391C3.46093e-06 14.8125 0 11.9268 0 11.0013C0.111284 11.0013 0.278157 10.8923 0.389329 10.8923C2.22445 10.4568 4.05969 10.0211 5.83922 9.5312C8.17485 8.93227 10.5105 8.17003 12.7905 7.35323C14.4033 6.80885 15.9604 6.20992 17.5174 5.55655C18.7965 5.01206 20.0756 4.41313 21.3547 3.8142C21.4103 3.8142 21.5214 3.75977 21.5771 3.75977C21.5771 3.75977 21.5771 3.75977 21.6327 3.75977H21.7439Z" fill="#212121"/>
<path d="M41.7055 13.1245C41.8724 12.2533 42.4285 11.6 43.0959 11.0555C43.5408 10.7287 44.0413 10.5654 44.5974 10.5654C44.8754 10.5654 45.1534 10.5654 45.4315 10.6199V13.3422C45.0423 13.2878 44.6529 13.2333 44.2636 13.1789C43.652 13.1245 43.0959 13.2878 42.7065 13.7778C42.3729 14.1589 42.206 14.5945 42.0949 15.0846C41.9836 15.5201 41.928 15.9557 41.928 16.3912C41.928 17.9158 41.928 19.3858 41.928 20.9103C41.928 21.0192 41.928 21.1281 41.928 21.237H39.1475V10.7832H41.5944C41.5944 11.5455 41.5944 12.3622 41.5944 13.1245H41.7055Z" fill="#212121"/>
<path d="M133.912 10.6712C133.912 11.5424 133.912 12.4679 133.912 13.339C133.912 13.339 133.801 13.339 133.746 13.339C133.356 13.1757 132.967 13.1757 132.521 13.1757C131.743 13.1757 131.243 13.6113 130.91 14.2647C130.631 14.8091 130.464 15.4625 130.464 16.1158C130.464 17.6949 130.464 19.2738 130.464 20.8527C130.464 21.016 130.464 21.1249 130.464 21.2883H127.684V10.8346C128.462 10.8346 129.297 10.8346 130.131 10.8346C130.131 11.6512 130.131 12.4135 130.131 13.1757C130.131 13.1757 130.131 13.1757 130.131 13.1213C130.242 12.359 130.687 11.8145 131.243 11.2701C131.799 10.7257 132.521 10.5078 133.3 10.5078C133.467 10.5078 133.69 10.5623 133.856 10.6168L133.912 10.6712Z" fill="#212121"/>
<path d="M126.513 29.9425C126.235 30.7592 125.958 31.5215 125.735 32.3381C125.401 33.2637 125.123 34.1894 124.789 35.1149C124.566 35.6594 124.789 35.605 124.066 35.605C123.789 35.605 123.51 35.605 123.232 35.605C122.565 33.6993 121.953 31.7392 121.286 29.8336V35.5506H119.896V28.4725H122.176C122.732 30.2692 123.343 32.0115 123.899 33.8082C123.899 33.8082 123.955 33.8082 124.01 33.8082C124.01 33.7538 124.01 33.6449 124.01 33.5904C124.122 33.2093 124.233 32.8826 124.345 32.5015C124.512 31.9025 124.733 31.3581 124.9 30.7592C125.123 30.1059 125.345 29.4525 125.512 28.7991C125.512 28.6902 125.512 28.5269 125.623 28.4725C125.735 28.4179 125.902 28.4725 126.012 28.4725C126.569 28.4725 127.069 28.4725 127.625 28.4725C127.737 28.4725 127.848 28.4725 127.959 28.4725V35.5506H126.569C126.569 33.6449 126.569 31.7937 126.569 29.8881V29.7247C126.569 29.7247 126.569 29.8335 126.513 29.8881V29.9425Z" fill="#212121"/>
<path d="M21.7439 1.79785V2.8324C14.8482 5.99025 7.56317 8.16811 0 9.47484V7.07923C0.16687 7.07923 0.333742 7.07923 0.556198 7.0248C0.889827 7.0248 1.22346 7.02479 1.5572 6.91581C2.11328 6.86137 2.72495 6.80693 3.28115 6.75249C3.83723 6.69806 4.39331 6.58918 5.00498 6.53474C5.28303 6.53474 5.56118 6.4803 5.83922 6.42587C6.11727 6.42587 6.39531 6.31699 6.67335 6.26244C7.45189 6.09913 8.23043 5.93581 8.95339 5.7725C10.3437 5.50019 11.7339 5.11913 13.1242 4.73795C14.5145 4.35688 15.8492 3.92127 17.2394 3.48576C18.7409 2.99571 20.1868 2.39678 21.6327 1.79785C21.6327 1.79785 21.6327 1.79785 21.6883 1.79785H21.7439Z" fill="#212121"/>
<path d="M21.743 8.9873C21.743 9.25961 21.743 9.58623 21.743 9.85853C21.743 10.0218 21.743 10.1307 21.5762 10.2396C21.1312 10.5663 20.6863 10.9474 20.1858 11.2741C19.1848 11.982 18.2395 12.6898 17.2385 13.3976C15.0697 14.9765 12.8452 16.501 10.5096 17.8622C8.73007 18.9511 6.89483 20.04 5.1153 21.129C5.00412 21.1834 4.89284 21.2379 4.78167 21.2379C3.94754 21.2379 3.1133 21.2379 2.22359 21.2379C2.22359 21.2379 2.16789 21.2379 2.1123 21.2379C2.22359 21.1834 2.33476 21.129 2.39035 21.0746C4.89284 19.6589 7.45103 18.2433 9.89783 16.7187C12.1779 15.3031 14.458 13.8331 16.6823 12.363C18.2395 11.3286 19.741 10.2396 21.2981 9.15073C21.4093 9.09629 21.4649 9.04185 21.5762 8.9873H21.6873H21.743Z" fill="#212121"/>
<path d="M117.783 35.6648C117.728 35.6648 117.672 35.6648 117.616 35.6648C117.116 35.6648 116.615 35.6648 116.115 35.6648C116.115 35.6648 116.059 35.6648 116.003 35.6648C115.726 35.5559 115.447 35.6104 115.169 35.5014C114.224 35.1203 113.446 34.5214 113.112 33.487C113 33.1602 113 32.8336 112.944 32.5069C112.89 31.8535 112.944 31.2001 113.167 30.5467C113.557 29.5123 114.28 28.8045 115.392 28.5323C115.836 28.4233 116.282 28.3689 116.671 28.3145C117.172 28.3145 118.061 28.4233 118.506 28.6412C118.506 29.0223 118.395 29.349 118.339 29.7845C118.228 29.7845 118.061 29.6756 117.949 29.6756C117.116 29.349 116.282 29.4034 115.503 29.7845C114.947 30.0568 114.613 30.5467 114.446 31.1457C114.28 31.7446 114.28 32.398 114.446 32.9969C114.557 33.4325 114.836 33.7591 115.169 34.0858C115.781 34.5758 116.449 34.6847 117.226 34.5758C117.616 34.5214 117.949 34.467 118.339 34.4125C118.339 34.4125 118.339 34.4125 118.395 34.4125C118.395 34.7391 118.395 35.1203 118.451 35.5014C118.172 35.5014 117.895 35.6104 117.672 35.6648H117.783Z" fill="#212121"/>
<path d="M126.511 29.9427C126.511 29.9427 126.511 29.8337 126.566 29.7793V29.9427H126.456H126.511Z" fill="#212121"/>
<path d="M86.517 12.131C86.517 12.131 86.467 12.131 86.417 12.131C86.417 12.131 86.417 12.0821 86.417 12.0332C86.417 12.0332 86.467 12.0332 86.517 12.0821V12.131Z" fill="#212121"/>
<path d="M118.5 34.4014C118.5 34.4014 118.5 34.4014 118.45 34.4014C118.45 34.4014 118.45 34.4014 118.45 34.3525C118.45 34.3525 118.45 34.4014 118.45 34.4503L118.5 34.4014Z" fill="#212121"/>
<path d="M21.7285 8.97346H21.6287C21.6287 8.92456 21.7285 8.87566 21.7285 8.97346Z" fill="#212121"/>
<path d="M21.7285 11.0503C21.7285 11.0503 21.6786 11.0503 21.6287 11.0503C21.6786 11.0014 21.6786 11.0014 21.7285 11.0503Z" fill="#212121"/>
<path d="M130.239 13.1172C130.239 13.1172 130.239 13.1172 130.239 13.1661C130.239 13.1661 130.239 13.1661 130.289 13.1661L130.239 13.1172Z" fill="#212121"/>
<path d="M31.9209 21.2824C31.9209 21.2824 31.9209 21.2824 31.9708 21.2334C31.9708 21.2334 31.9708 21.2334 31.9209 21.2824Z" fill="#212121"/>
<path d="M93.4277 21.2824C93.4277 21.2824 93.4277 21.2824 93.4777 21.2334C93.4777 21.2334 93.4777 21.2334 93.4277 21.2824Z" fill="#212121"/>
<path d="M29.1329 7.07812C29.1329 7.07812 29.1329 7.07813 29.083 7.12703C29.083 7.12703 29.083 7.12703 29.1329 7.07812Z" fill="#212121"/>
<path d="M86.4142 6.09187C86.4142 6.09187 86.4143 6.09187 86.3643 6.04297C86.3643 6.04297 86.3642 6.04297 86.4142 6.09187Z" fill="#212121"/>
<path d="M86.3643 21.2824C86.3643 21.2824 86.3642 21.2824 86.4142 21.2334C86.4142 21.2334 86.4143 21.2334 86.3643 21.2824Z" fill="#212121"/>
</svg>
