<svg width="161" height="33" viewBox="0 0 161 33" fill="none" xmlns="http://www.w3.org/2000/svg">
<path fill-rule="evenodd" clip-rule="evenodd" d="M21.3991 1.20898H8.44686L1.13623 8.51984L1.14729 31.592H11.2677L21.3883 21.4718H11.2677V11.3403L21.3991 1.20898ZM41.7725 1.20898H31.6521L21.5314 11.3293H31.6521V21.4607L21.5206 31.592H34.4729L41.7835 24.2812L41.7725 1.20898ZM101.951 12.7916C102.027 12.0601 102.287 9.69221 102.287 9.69221C101.093 9.21793 99.8085 8.98133 98.5495 8.98133C97.1605 8.98133 95.8041 9.26899 94.6378 9.84338C92.2897 11.0005 90.89 13.457 90.8927 16.4149C90.89 19.3739 92.2897 21.8304 94.6378 22.9875C96.8599 24.0817 99.7765 24.1359 102.287 23.1387C102.287 23.1387 102.027 20.7708 101.951 20.0393C100.352 20.4694 98.9007 20.745 97.4657 20.1817C96.0107 19.6096 95.2043 18.2729 95.193 16.4169C95.2043 14.5581 96.0107 13.2213 97.4657 12.6492C98.9007 12.0863 100.352 12.3616 101.951 12.7916ZM120.874 6.18515V23.402H125.242V4.98348L120.874 6.18515ZM117.585 9.39895H113.888L108.948 15.4652V4.98348L104.58 6.18553V23.402H108.948V20.0044L110.66 17.9016L114.419 23.402H119.094L113.202 14.7795L117.585 9.39895ZM154.928 23.402H159.602L153.712 14.7795L158.094 9.39895H154.398L149.457 15.4647V4.98348L145.088 6.18553V23.402H149.457V20.0044L151.171 17.9016L154.928 23.402ZM137.416 20.0048C136.877 20.5443 136.151 20.8181 135.255 20.8181C134.358 20.8181 133.63 20.5443 133.091 20.0044C132.357 19.2677 131.986 18.0568 131.99 16.4053C131.986 14.7547 132.357 13.5439 133.091 12.8073C133.63 12.2673 134.358 11.9935 135.255 11.9935C136.149 11.9935 136.877 12.2673 137.416 12.8068C138.151 13.5434 138.521 14.7547 138.517 16.4063C138.521 18.0568 138.151 19.2682 137.416 20.0048ZM135.255 8.93494C132.208 8.93494 130.397 10.108 129.414 11.0923C128.24 12.2683 127.567 13.862 127.569 15.4642V17.3469C127.567 18.9498 128.24 20.5434 129.414 21.7193C130.397 22.7035 132.208 23.8768 135.255 23.8768C138.299 23.8768 140.111 22.7035 141.093 21.7193C142.267 20.5434 142.94 18.9502 142.938 17.3474V15.4647C142.94 13.8614 142.267 12.2683 141.093 11.0923C140.111 10.108 138.299 8.93494 135.255 8.93494ZM73.3358 9.39702H69.3401V4.98348L64.9721 6.18553V18.3916C64.9721 21.0533 66.2307 22.9881 68.3391 23.5682C69.8373 23.9804 71.4916 23.9434 73.3358 23.4719V20.4259C72.7606 20.5452 72.1541 20.6029 71.4516 20.5866C70.3872 20.5593 69.3808 19.4964 69.3808 18.3994L69.3381 12.2206H73.3358V9.39702ZM62.0794 16.5686C60.5228 14.9006 57.5746 15.0591 55.5305 14.3675C54.8847 14.1491 54.0736 13.5925 54.508 12.8135C54.8265 12.2423 55.5816 12.1151 56.1782 12.0715C58.3016 11.9164 60.3369 12.4232 62.1525 12.9056L62.4677 10.0311C59.1301 8.96353 53.6511 7.94892 50.9765 10.9796C49.6622 12.4687 49.6332 14.8812 50.9126 16.248C52.4704 17.9119 55.4178 17.7551 57.4582 18.4454C58.0138 18.6333 58.6735 19.0005 58.593 19.6825C58.4963 20.5024 57.4825 20.6917 56.8101 20.7414C54.6886 20.8988 52.6532 20.3905 50.8362 19.9072L50.5211 22.7819C53.86 23.8501 59.3361 24.8654 62.0119 21.8332C63.3247 20.3461 63.3555 17.9363 62.0794 16.5686ZM84.523 19.6784C83.4106 20.6883 81.9596 21.1458 80.4833 20.8056C79.6949 20.6246 79.2043 19.8324 79.3429 18.9635C79.5369 17.7513 80.8406 17.4135 81.4678 17.2508L84.5296 16.4806L84.523 19.6784ZM88.6926 13.5269C88.6926 12.5987 88.3294 11.6502 87.6955 10.925C86.5698 9.63689 84.6523 8.97573 81.9983 8.9596C80.3047 8.95093 78.2206 9.31537 76.2044 9.96688L76.519 12.8707C78.1066 12.4442 79.8608 11.999 81.6957 11.999C82.4835 11.999 83.6505 12.0422 84.1671 12.7528C84.7103 13.5007 83.7725 14.1309 83.1407 14.3472C81.6264 14.8654 80.0235 15.1075 78.4732 15.4936C76.6203 15.955 75.2027 17.9048 75.2413 19.9336C75.2633 21.0847 75.7759 22.1764 76.613 22.8542C78.7338 24.5705 82.4215 23.971 84.5296 21.8534L84.8122 23.4011L88.7239 23.402L88.6926 13.5269Z" fill="black"/>
</svg>
