<svg width="249" height="141" viewBox="0 0 249 141" fill="none" xmlns="http://www.w3.org/2000/svg">
<path d="M193.715 103.849H189.389V96.4463H190.888V102.605C190.946 102.605 191.004 102.605 191.062 102.605C191.985 102.605 192.908 102.605 193.83 102.605V103.736C193.83 103.736 193.83 103.736 193.773 103.736L193.715 103.849Z" fill="#212121"/>
<path d="M176.989 103.9C176.989 103.9 176.989 103.9 176.989 103.957H175.145C175.145 103.957 175.145 103.957 175.145 103.9C175.145 103.9 175.202 103.9 175.259 103.9C175.779 103.9 176.298 103.9 176.816 103.9C176.874 103.9 176.932 103.9 176.989 103.9Z" fill="#212121"/>
<path d="M193.774 80.734C193.774 80.734 193.774 80.734 193.717 80.734C193.717 79.8303 193.717 78.8701 193.717 77.9663H193.774V80.734Z" fill="#212121"/>
<path d="M58.868 72.6532C58.3489 72.6532 57.8298 72.7662 57.3107 72.8227C56.7916 72.8227 56.2725 72.9359 55.7534 72.9359C55.4651 72.9359 55.1767 72.9923 54.8306 73.0488C54.8306 72.9358 54.8306 72.8792 54.8306 72.8227C54.8306 70.9016 54.8306 69.0369 54.8306 67.1157C54.8306 67.1157 54.8306 67.0026 54.8306 66.9461C54.8306 66.9461 54.8306 66.9461 54.8883 66.9461C55.1191 66.8896 55.3497 66.8896 55.5227 66.8896C62.6747 66.8896 69.8266 66.8896 76.9786 66.8896C77.0939 66.8896 77.2093 66.8896 77.3823 66.8896V68.1328C72.6528 70.1105 67.7502 71.4667 62.617 72.2578C62.617 72.2578 62.617 72.2578 62.5593 72.2578C62.2709 72.2578 61.9826 72.3143 61.6942 72.3708C61.6942 72.3708 61.6365 72.3708 61.5788 72.3708C61.1751 72.3708 60.7713 72.4838 60.3676 72.4838C60.3676 72.4838 60.3099 72.4838 60.2522 72.4838C59.8485 72.4838 59.3871 72.5403 58.9833 72.5968C58.9833 72.5968 58.9257 72.5968 58.868 72.5968V72.6532Z" fill="#212121"/>
<path d="M144.574 79.4892C144.921 79.2067 145.21 78.8677 145.555 78.5851C145.96 78.2461 146.478 78.0765 146.997 77.9635C147.344 77.907 147.747 77.8505 148.093 77.8505C148.554 77.8505 149.015 77.907 149.478 78.0765C150.631 78.4721 151.207 79.2632 151.554 80.2802C151.669 80.6758 151.727 81.0714 151.785 81.5234C151.957 83.9531 151.785 86.3829 151.842 88.8126C151.842 88.8126 151.843 88.8127 151.785 88.8692C150.862 88.8692 149.939 88.8692 149.073 88.8692C149.073 88.8692 149.073 88.8692 148.959 88.8692C148.959 88.7562 148.959 88.5867 148.959 88.4172C148.959 86.3264 148.959 84.2357 148.959 82.145C148.959 81.6364 148.843 81.1844 148.612 80.7888C148.381 80.3368 147.978 80.0543 147.401 80.0543C147.286 80.0543 147.17 79.9978 147.055 79.9978C146.594 79.9978 146.132 80.0543 145.786 80.3369C145.152 80.8453 144.805 81.5234 144.632 82.3145C144.518 82.9361 144.518 83.6141 144.518 84.2357C144.518 85.7049 144.518 87.2305 144.518 88.6997V88.8126C144.518 88.8126 144.517 88.8127 144.46 88.8692H141.633V73.2171C141.864 73.1606 143.595 73.1041 144.46 73.2171C144.46 73.2171 144.46 73.2171 144.518 73.2736C144.518 74.0082 144.518 74.6862 144.518 75.4208C144.518 76.777 144.518 78.1331 144.518 79.4892C144.518 79.4892 144.518 79.5457 144.518 79.6023C144.518 79.6023 144.574 79.6023 144.632 79.6023L144.574 79.4892Z" fill="#212121"/>
<path d="M77.3782 78.3592C77.3782 78.5288 77.3782 78.7548 77.3782 78.9243C77.3782 82.1452 77.3782 85.366 77.3782 88.5868C77.3782 88.6999 77.3782 88.8129 77.3782 88.9259H63.0166C63.0744 88.8694 63.132 88.8129 63.1897 88.8129C64.7469 87.7392 66.3042 86.6657 67.8615 85.5355C68.669 84.9704 69.4764 84.4054 70.2262 83.7839C71.4951 82.8233 72.8217 81.8626 74.0906 80.8456C75.1864 79.998 76.2246 79.1504 77.3205 78.3027C77.3205 78.3027 77.3782 78.3027 77.4359 78.3027L77.3782 78.3592Z" fill="#212121"/>
<path d="M159.284 89.1568C159.053 89.1568 158.765 89.1568 158.534 89.1568C158.016 89.1568 157.553 88.9874 157.035 88.7613C156.688 88.6483 156.343 88.4223 155.996 88.2528C155.362 87.8572 154.843 87.3487 154.496 86.6706C154.093 85.9926 153.804 85.3145 153.689 84.5234C153.631 84.1843 153.631 83.7888 153.689 83.4497C153.689 82.9978 153.747 82.6022 153.804 82.1501C153.862 81.8111 153.978 81.5286 154.093 81.1895C154.381 80.3985 154.843 79.7204 155.477 79.2118C156.054 78.7033 156.688 78.3642 157.38 78.1382C158.13 77.9122 158.88 77.7991 159.63 77.8557C160.726 77.8557 161.763 78.1947 162.687 78.7598C163.436 79.2118 164.013 79.7769 164.417 80.5114C164.763 81.133 164.994 81.7546 165.052 82.4327C165.167 83.1108 165.225 83.7888 165.109 84.4669C164.878 85.597 164.475 86.6706 163.61 87.5182C163.263 87.8572 162.86 88.1398 162.399 88.4223C161.821 88.7048 161.245 88.9309 160.61 89.0439C160.149 89.1568 159.63 89.1568 159.111 89.1568H159.284ZM158.995 87.0096C160.553 87.0096 161.418 86.5575 161.879 85.484C162.168 84.8059 162.283 84.1278 162.283 83.3932C162.283 82.7717 162.168 82.1501 161.937 81.5286C161.649 80.8505 161.187 80.3985 160.495 80.1725C160.034 80.003 159.572 80.003 159.111 80.003C158.534 80.003 157.958 80.2855 157.553 80.7375C157.092 81.246 156.746 81.8676 156.688 82.6022C156.688 83.0543 156.688 83.5062 156.688 83.9583C156.688 84.5234 156.861 85.0319 157.092 85.5405C157.553 86.4445 158.303 86.9531 158.938 86.8966L158.995 87.0096Z" fill="#212121"/>
<path d="M135.692 88.9833C135.692 88.8703 135.692 88.7007 135.692 88.5877C135.692 86.6101 135.692 84.6324 135.692 82.6546C135.692 82.0895 135.634 81.5246 135.403 81.016C135.231 80.5639 134.884 80.2814 134.366 80.1684C133.905 80.0554 133.5 80.0554 133.039 80.1684C132.347 80.3379 132.001 80.8465 131.712 81.4115C131.54 81.8071 131.424 82.2025 131.309 82.6546C131.193 83.1067 131.309 83.6152 131.309 84.0673C131.309 85.5929 131.309 87.1186 131.309 88.6442C131.309 88.7572 131.309 88.8703 131.309 88.9833H128.425V78.1342H131.135V79.6033C131.251 79.4903 131.309 79.4903 131.366 79.4338C132.116 78.5297 133.039 78.0212 134.192 77.9082C134.769 77.8517 135.289 77.8517 135.865 77.9647C136.96 78.2472 137.768 78.8123 138.172 79.8293C138.518 80.6769 138.633 81.5246 138.633 82.4286C138.633 84.4629 138.633 86.5535 138.633 88.5877C138.633 88.7007 138.633 88.8138 138.633 88.9268H135.75L135.692 88.9833Z" fill="#212121"/>
<path d="M115.161 78.1312H118.044C118.044 78.2442 118.044 78.4138 118.044 78.5268C118.044 80.448 118.044 82.4257 118.044 84.3469C118.044 84.7424 118.044 85.138 118.102 85.5334C118.218 86.2115 118.621 86.7201 119.255 86.9461C119.371 86.9461 119.544 86.9461 119.717 86.9461C120.063 86.9461 120.352 86.9461 120.697 86.8331C121.332 86.5506 121.736 86.155 122.024 85.5334C122.37 84.7989 122.428 84.0078 122.428 83.2732C122.428 81.6911 122.428 80.0524 122.428 78.4703C122.428 78.3573 122.428 78.2442 122.428 78.1312H125.311V88.9803H122.601V87.5112C122.485 87.6242 122.37 87.6807 122.312 87.7372C122.024 88.0198 121.678 88.3023 121.332 88.5284C120.755 88.8673 120.178 89.0933 119.544 89.1498C118.852 89.2063 118.102 89.2629 117.41 88.9803C116.718 88.6979 116.199 88.3023 115.795 87.6807C115.449 87.1722 115.276 86.5506 115.218 85.9855C115.161 85.5901 115.161 85.1945 115.161 84.7989C115.161 82.6518 115.161 80.5045 115.161 78.3573C115.161 78.3008 115.161 78.1877 115.161 78.0747V78.1312Z" fill="#212121"/>
<path d="M184.372 86.1031C184.372 86.8377 184.372 87.5158 184.372 88.1374C184.372 88.3068 184.257 88.3633 184.141 88.4763C183.449 88.8154 182.757 89.0414 182.007 89.1544C181.026 89.2674 180.047 89.2674 179.066 89.1544C178.258 89.0414 177.508 88.7023 176.874 88.2503C176.067 87.6853 175.606 86.9507 175.201 86.0466C175.028 85.651 174.914 85.1991 174.856 84.8035C174.798 84.2949 174.856 83.7299 174.856 83.1648C174.856 82.7127 174.914 82.3173 175.028 81.8652C175.143 81.3566 175.375 80.8481 175.606 80.396C176.124 79.4355 176.874 78.7574 177.855 78.3053C178.258 78.1358 178.605 78.0228 179.066 78.0228C179.355 78.0228 179.642 77.9663 179.931 77.9663C180.796 77.9663 181.604 78.0793 182.41 78.4183C183.276 78.7574 183.91 79.3225 184.314 80.1135C184.66 80.6785 184.833 81.3566 185.007 81.9782C185.18 82.7692 185.295 83.6168 185.238 84.4645H177.566C177.451 84.86 177.566 85.2556 177.739 85.538C177.969 86.0466 178.316 86.4421 178.777 86.7247C179.239 87.0072 179.758 87.1767 180.334 87.1767C181.084 87.1767 181.776 87.1767 182.468 86.8942C182.988 86.7247 183.507 86.4421 184.083 86.2161C184.141 86.2161 184.257 86.1596 184.372 86.1031ZM182.41 82.4868C182.41 82.3173 182.354 82.1477 182.354 81.9782C182.296 81.4131 182.065 80.9046 181.662 80.4525C181.315 80.1135 180.854 80.0004 180.45 79.9439C179.816 79.8874 179.181 79.9439 178.605 80.3395C178.2 80.622 177.913 81.0176 177.739 81.5262C177.624 81.8087 177.508 82.1477 177.508 82.4868H182.41Z" fill="#212121"/>
<path d="M104.141 81.0114C104.141 80.2204 104.083 79.4858 104.026 78.6947C104.314 78.5817 104.603 78.4686 104.891 78.3556C105.41 78.1861 105.929 78.0166 106.448 77.9601C107.14 77.9036 107.833 77.734 108.525 77.8471C109.044 77.9601 109.62 77.9601 110.082 78.1296C111.293 78.4686 112.043 79.2598 112.388 80.4463C112.562 81.1244 112.677 81.859 112.677 82.5936C112.677 84.1192 112.677 85.6449 112.735 87.1705C112.735 87.7356 112.793 88.3572 112.851 88.9223H110.255C110.255 88.4137 110.197 87.9051 110.139 87.3401C110.025 87.4531 109.967 87.5096 109.909 87.5661C109.505 88.1877 108.87 88.6397 108.178 88.8658C108.063 88.8658 107.89 88.9788 107.775 88.9788C107.313 89.1482 106.852 89.0917 106.333 89.0917C105.525 89.0917 104.776 88.8093 104.141 88.4137C103.507 87.9616 103.045 87.3401 102.872 86.5489C102.641 85.4754 102.872 84.5148 103.564 83.6672C103.853 83.2716 104.314 82.9892 104.776 82.8196C105.468 82.5371 106.217 82.4241 106.967 82.3111C107.775 82.1981 108.583 82.3111 109.389 82.2546C109.62 82.2546 109.794 82.2546 109.967 82.2546C109.967 82.1981 110.025 82.1981 110.025 82.1415C110.025 81.6895 110.025 81.2374 109.736 80.7854C109.562 80.5028 109.333 80.2204 108.928 80.1074C107.775 79.7118 106.679 79.8248 105.525 80.2769C105.064 80.4463 104.603 80.6723 104.199 81.0114C104.199 81.0114 104.199 81.0114 104.141 81.0114ZM110.082 84.0062C109.967 84.0062 109.851 84.0062 109.736 84.0062C108.986 84.0062 108.294 84.0062 107.544 84.1192C107.256 84.1192 107.025 84.2322 106.794 84.3452C106.044 84.6278 105.641 85.1929 105.641 85.984C105.641 86.4924 105.871 86.8315 106.275 87.001C106.967 87.3401 107.717 87.3401 108.467 87.001C109.217 86.662 109.736 86.0969 109.909 85.2494C110.025 84.8538 110.082 84.4583 110.082 84.0062Z" fill="#212121"/>
<path d="M85.0557 74.2354C85.1711 74.2354 85.2864 74.2354 85.344 74.2354C87.8818 74.2354 90.362 74.2354 92.8997 74.2354C93.0151 74.2354 93.1304 74.2354 93.3035 74.2354V76.5521H87.9395V80.1684H93.0151C93.0151 80.564 93.0151 80.9595 93.0151 81.2986C93.0151 81.6941 93.0151 82.0332 93.0151 82.4287C93.0151 82.4287 93.0151 82.4287 93.0151 82.4852C92.7267 82.4852 92.4383 82.4852 92.1499 82.4852C90.8811 82.4852 89.6122 82.4852 88.3433 82.4852C88.2279 82.4852 88.1126 82.4852 87.9971 82.4852C87.9971 82.5982 87.9971 82.7113 87.9971 82.8808C87.9971 84.7454 87.9971 86.6101 87.9971 88.5314C87.9971 88.6444 87.9971 88.7574 87.9971 88.9268C87.9971 88.9268 87.9971 88.9268 87.9395 88.9833C86.959 88.9833 86.0362 88.9833 85.0557 88.9833C85.0557 88.9268 85.0557 88.8703 85.0557 88.7573C85.0557 84.0108 85.0557 79.2644 85.0557 74.4613C85.0557 74.4613 85.0557 74.3483 85.0557 74.2918C85.0557 74.2918 85.0557 74.2918 85.1133 74.2354H85.0557Z" fill="#212121"/>
<path d="M77.3246 75.5872C75.2482 76.9433 73.1719 78.356 71.0955 79.7121C69.9997 80.3902 68.9038 81.0682 67.8079 81.6898C66.5967 82.4243 65.3855 83.1589 64.1166 83.8935C61.2904 85.5322 58.4642 87.1144 55.5227 88.5835C55.292 88.6965 55.1191 88.8095 54.8306 88.9225V85.6452C54.946 85.6452 55.0036 85.5322 55.1191 85.4757C58.4642 83.8935 61.8095 82.2548 65.0971 80.5032C66.539 79.7686 67.9809 78.9211 69.4229 78.1299C71.0378 77.2258 72.6528 76.2652 74.2677 75.3047C75.2482 74.7396 76.1711 74.118 77.1515 73.4964C77.1515 73.4964 77.2669 73.4964 77.3246 73.4399C77.3246 73.4399 77.3246 73.4399 77.3823 73.4399C77.3823 74.118 77.3823 74.7961 77.3823 75.4742C77.3823 75.4742 77.3823 75.4742 77.3823 75.5307L77.3246 75.5872Z" fill="#212121"/>
<path d="M171.108 80.1644V88.9228H168.224C168.224 85.9845 168.224 83.1027 168.224 80.1644H166.09V78.0737H168.166C168.166 77.9042 168.166 77.7911 168.166 77.6781C168.166 77.2261 168.166 76.774 168.166 76.3219C168.166 75.9264 168.166 75.5308 168.34 75.1354C168.743 74.0617 169.493 73.2706 170.705 72.9881C171.281 72.8751 171.916 72.8751 172.492 72.9316C172.896 72.9316 173.3 73.0446 173.704 73.1011C173.704 73.3836 173.704 73.6662 173.704 73.8922C173.646 74.1182 173.704 74.4008 173.646 74.6268C173.531 74.8528 173.762 75.1354 173.473 75.3614C173.126 75.2484 172.839 75.1354 172.492 75.0789C171.8 74.9659 171.281 75.3614 171.108 75.9829C171.108 76.2089 171.05 76.435 171.05 76.661C171.05 77.113 171.05 77.5086 171.05 77.9607C171.05 77.9607 171.05 78.0172 171.05 78.0737H173.531V80.1644C172.723 80.1644 171.858 80.1644 170.992 80.1644H171.108Z" fill="#212121"/>
<path d="M77.3823 70.792C77.3823 71.1311 77.3823 71.4136 77.3823 71.7527C77.3823 71.7527 77.3823 71.7527 77.3823 71.8092C76.6324 72.2046 75.8826 72.6567 75.0752 73.0522C73.5179 73.8999 71.903 74.7475 70.288 75.595C68.9615 76.2731 67.5772 76.9512 66.2506 77.6293C65.0395 78.1942 63.8859 78.7028 62.6747 79.2679C60.9444 80.059 59.1564 80.7936 57.426 81.5846C56.6186 81.9237 55.8111 82.2627 54.946 82.6017C54.8306 82.2627 54.8306 79.2679 54.8306 78.3073C54.946 78.3073 55.1191 78.1942 55.2344 78.1942C57.1377 77.7423 59.0411 77.2902 60.8867 76.7817C63.3091 76.1601 65.7315 75.369 68.0962 74.5214C69.7689 73.9564 71.3839 73.3348 72.9988 72.6567C74.3253 72.0916 75.652 71.4701 76.9786 70.8485C77.0362 70.8485 77.1515 70.792 77.2093 70.792C77.2093 70.792 77.2093 70.792 77.267 70.792H77.3823Z" fill="#212121"/>
<path d="M98.0857 80.5108C98.2588 79.6067 98.8355 78.9287 99.5277 78.3636C99.9891 78.0245 100.508 77.855 101.085 77.855C101.373 77.855 101.662 77.855 101.95 77.9115V80.7368C101.546 80.6803 101.143 80.6238 100.739 80.5673C100.104 80.5108 99.5277 80.6803 99.1239 81.1889C98.7779 81.5843 98.6048 82.0364 98.4895 82.545C98.3741 82.997 98.3165 83.4491 98.3165 83.9011C98.3165 85.4833 98.3165 87.009 98.3165 88.5911C98.3165 88.7041 98.3165 88.8171 98.3165 88.9301H95.4326V78.081H97.9704C97.9704 78.8722 97.9704 79.7197 97.9704 80.5108H98.0857Z" fill="#212121"/>
<path d="M193.717 77.9645C193.717 78.8686 193.717 79.8292 193.717 80.7332C193.717 80.7332 193.603 80.7332 193.545 80.7332C193.141 80.5637 192.738 80.5637 192.275 80.5637C191.468 80.5637 190.949 81.0158 190.604 81.6939C190.315 82.2589 190.142 82.9369 190.142 83.615C190.142 85.2538 190.142 86.8924 190.142 88.5311C190.142 88.7005 190.142 88.8135 190.142 88.9831H187.258V78.134C188.065 78.134 188.931 78.134 189.796 78.134C189.796 78.9816 189.796 79.7727 189.796 80.5637C189.796 80.5637 189.796 80.5637 189.796 80.5072C189.912 79.7162 190.373 79.1511 190.949 78.586C191.526 78.021 192.275 77.7949 193.083 77.7949C193.256 77.7949 193.487 77.8514 193.66 77.908L193.717 77.9645Z" fill="#212121"/>
<path d="M186.044 97.9644C185.755 98.8119 185.467 99.603 185.236 100.451C184.89 101.411 184.602 102.372 184.256 103.332C184.024 103.897 184.256 103.841 183.506 103.841C183.218 103.841 182.929 103.841 182.64 103.841C181.948 101.863 181.314 99.829 180.622 97.8513V103.784H179.18V96.4387H181.545C182.122 98.3034 182.756 100.112 183.332 101.976C183.332 101.976 183.39 101.976 183.448 101.976C183.448 101.92 183.448 101.807 183.448 101.75C183.564 101.355 183.679 101.016 183.795 100.62C183.968 99.9985 184.198 99.4335 184.371 98.8119C184.602 98.1339 184.832 97.4558 185.005 96.7777C185.005 96.6647 185.005 96.4952 185.121 96.4387C185.236 96.3821 185.41 96.4387 185.524 96.4387C186.102 96.4387 186.621 96.4387 187.197 96.4387C187.313 96.4387 187.428 96.4387 187.544 96.4387V103.784H186.102C186.102 101.807 186.102 99.8855 186.102 97.9079V97.7383C186.102 97.7383 186.102 97.8513 186.044 97.9079V97.9644Z" fill="#212121"/>
<path d="M77.3823 68.7559V69.8295C70.2304 73.1068 62.6747 75.367 54.8306 76.7232V74.237C55.0036 74.237 55.1767 74.237 55.4074 74.1805C55.7535 74.1805 56.0995 74.1805 56.4456 74.0674C57.0224 74.0109 57.6568 73.9544 58.2336 73.8979C58.8104 73.8414 59.3871 73.7284 60.0215 73.6719C60.3099 73.6719 60.5983 73.6154 60.8867 73.5589C61.1751 73.5589 61.4635 73.4459 61.7518 73.3893C62.5593 73.2198 63.3668 73.0503 64.1166 72.8808C65.5586 72.5982 67.0004 72.2027 68.4424 71.8071C69.8842 71.4117 71.2686 70.9596 72.7104 70.5076C74.2677 69.999 75.7673 69.3774 77.267 68.7559C77.267 68.7559 77.2669 68.7559 77.3246 68.7559H77.3823Z" fill="#212121"/>
<path d="M77.3815 76.2168C77.3815 76.4994 77.3815 76.8384 77.3815 77.121C77.3815 77.2905 77.3815 77.4035 77.2084 77.5165C76.747 77.8555 76.2855 78.251 75.7665 78.5901C74.7283 79.3247 73.7479 80.0593 72.7097 80.7938C70.4602 82.4325 68.1531 84.0146 65.7307 85.4273C63.8851 86.5574 61.9817 87.6875 60.136 88.8177C60.0207 88.8742 59.9053 88.9307 59.79 88.9307C58.9249 88.9307 58.0597 88.9307 57.1369 88.9307C57.1369 88.9307 57.0791 88.9307 57.0215 88.9307C57.1369 88.8742 57.2522 88.8177 57.3099 88.7612C59.9053 87.292 62.5585 85.8229 65.0962 84.2406C67.461 82.7715 69.8258 81.2458 72.1328 79.7202C73.7479 78.6466 75.3051 77.5165 76.9201 76.3864C77.0354 76.3299 77.093 76.2734 77.2084 76.2168H77.3237H77.3815Z" fill="#212121"/>
<path d="M176.99 103.903C176.932 103.903 176.874 103.903 176.817 103.903C176.298 103.903 175.778 103.903 175.259 103.903C175.259 103.903 175.201 103.903 175.144 103.903C174.856 103.79 174.567 103.847 174.278 103.734C173.299 103.338 172.491 102.717 172.144 101.643C172.029 101.304 172.029 100.965 171.971 100.626C171.914 99.9478 171.971 99.2697 172.202 98.5916C172.606 97.5181 173.356 96.7835 174.509 96.501C174.97 96.3879 175.432 96.3314 175.836 96.2749C176.356 96.2749 177.277 96.3879 177.74 96.614C177.74 97.0095 177.624 97.3486 177.566 97.8005C177.451 97.8005 177.277 97.6875 177.162 97.6875C176.298 97.3486 175.432 97.4051 174.625 97.8005C174.048 98.0831 173.702 98.5916 173.528 99.2132C173.356 99.8348 173.356 100.513 173.528 101.134C173.644 101.587 173.933 101.926 174.278 102.264C174.913 102.773 175.606 102.886 176.412 102.773C176.817 102.717 177.162 102.66 177.566 102.604C177.566 102.604 177.566 102.604 177.624 102.604C177.624 102.943 177.624 103.338 177.682 103.734C177.393 103.734 177.105 103.847 176.874 103.903H176.99Z" fill="#212121"/>
<path d="M186.041 97.9631C186.041 97.9631 186.041 97.851 186.097 97.7949V97.9631H185.984H186.041Z" fill="#212121"/>
<path d="M144.56 79.4782C144.56 79.4782 144.509 79.4782 144.458 79.4782C144.458 79.4782 144.458 79.4281 144.458 79.3779C144.458 79.3779 144.509 79.3779 144.56 79.4281V79.4782Z" fill="#212121"/>
<path d="M177.732 102.592C177.732 102.592 177.732 102.592 177.681 102.592C177.681 102.592 177.681 102.592 177.681 102.542C177.681 102.542 177.681 102.592 177.681 102.642L177.732 102.592Z" fill="#212121"/>
<path d="M77.3649 76.2014H77.2627C77.2627 76.1513 77.3649 76.1012 77.3649 76.2014Z" fill="#212121"/>
<path d="M77.3649 78.3574C77.3649 78.3574 77.3138 78.3574 77.2627 78.3574C77.3138 78.3073 77.3138 78.3073 77.3649 78.3574Z" fill="#212121"/>
<path d="M189.908 80.5029C189.908 80.5029 189.908 80.5029 189.908 80.5518C189.908 80.5518 189.908 80.5518 189.958 80.5518L189.908 80.5029Z" fill="#212121"/>
<path d="M87.9375 88.9753C87.9375 88.9753 87.9375 88.9753 87.9874 88.9263C87.9874 88.9263 87.9874 88.9263 87.9375 88.9753Z" fill="#212121"/>
<path d="M151.729 88.9753C151.729 88.9753 151.729 88.9753 151.779 88.9263C151.779 88.9263 151.779 88.9263 151.729 88.9753Z" fill="#212121"/>
<path d="M85.044 74.2354C85.044 74.2354 85.044 74.2354 84.9941 74.2843C84.9941 74.2843 84.9941 74.2843 85.044 74.2354Z" fill="#212121"/>
<path d="M144.453 73.21C144.453 73.21 144.453 73.21 144.403 73.1611C144.403 73.1611 144.403 73.1611 144.453 73.21Z" fill="#212121"/>
<path d="M144.403 88.9753C144.403 88.9753 144.403 88.9753 144.453 88.9263C144.453 88.9263 144.453 88.9263 144.403 88.9753Z" fill="#212121"/>
</svg>
