<svg width="197" height="85" viewBox="0 0 197 85" fill="none" xmlns="http://www.w3.org/2000/svg">
<path d="M140.222 61.2293H142.017V62.0959H139.129V56.6465H140.222V61.2293Z" fill="black"/>
<path d="M144.476 62.1664C144.061 62.1664 143.685 62.0753 143.353 61.8931C143.019 61.7057 142.757 61.4429 142.564 61.1046C142.376 60.7663 142.283 60.3759 142.283 59.9335C142.283 59.4911 142.379 59.1008 142.572 58.7625C142.769 58.4241 143.038 58.1639 143.376 57.9817C143.714 57.7943 144.092 57.7007 144.508 57.7007C144.924 57.7007 145.302 57.7943 145.64 57.9817C145.979 58.1639 146.244 58.4241 146.437 58.7625C146.634 59.1008 146.733 59.4911 146.733 59.9335C146.733 60.3759 146.631 60.7663 146.428 61.1046C146.231 61.4429 145.96 61.7057 145.616 61.8931C145.278 62.0753 144.898 62.1664 144.476 62.1664ZM144.476 61.2139C144.675 61.2139 144.859 61.167 145.031 61.0734C145.208 60.9744 145.349 60.8287 145.453 60.6362C145.557 60.4436 145.609 60.2094 145.609 59.9335C145.609 59.5223 145.499 59.2075 145.281 58.9888C145.067 58.765 144.805 58.6531 144.492 58.6531C144.18 58.6531 143.918 58.765 143.704 58.9888C143.496 59.2075 143.392 59.5223 143.392 59.9335C143.392 60.3447 143.493 60.6622 143.696 60.886C143.904 61.1046 144.165 61.2139 144.476 61.2139Z" fill="black"/>
<path d="M149.073 57.7007C149.396 57.7007 149.68 57.7657 149.924 57.8959C150.169 58.0208 150.361 58.1847 150.502 58.3877V57.771H151.603V62.1274C151.603 62.5281 151.522 62.8846 151.36 63.1969C151.199 63.5144 150.957 63.7642 150.635 63.9464C150.312 64.1337 149.922 64.2275 149.464 64.2275C148.85 64.2275 148.345 64.0843 147.949 63.7981C147.558 63.5118 147.337 63.1214 147.286 62.627H148.37C148.428 62.8248 148.55 62.9809 148.738 63.0954C148.93 63.2151 149.161 63.275 149.432 63.275C149.75 63.275 150.007 63.1786 150.205 62.9861C150.403 62.7988 150.502 62.5125 150.502 62.1274V61.4559C150.361 61.6589 150.166 61.828 149.917 61.9633C149.672 62.0987 149.391 62.1664 149.073 62.1664C148.709 62.1664 148.375 62.0726 148.074 61.8853C147.772 61.6979 147.533 61.4351 147.356 61.0968C147.184 60.7533 147.098 60.3603 147.098 59.9179C147.098 59.4807 147.184 59.093 147.356 58.7546C147.533 58.4163 147.769 58.1561 148.066 57.9739C148.368 57.7917 148.704 57.7007 149.073 57.7007ZM150.502 59.9335C150.502 59.668 150.45 59.4417 150.346 59.2543C150.242 59.0617 150.101 58.916 149.924 58.8171C149.747 58.713 149.558 58.6609 149.354 58.6609C149.151 58.6609 148.964 58.7104 148.792 58.8093C148.62 58.9082 148.48 59.0539 148.37 59.2465C148.266 59.4339 148.215 59.6577 148.215 59.9179C148.215 60.1781 148.266 60.4071 148.37 60.6049C148.48 60.7975 148.62 60.9458 148.792 61.0499C148.969 61.1541 149.156 61.206 149.354 61.206C149.558 61.206 149.747 61.1566 149.924 61.0578C150.101 60.9536 150.242 60.8079 150.346 60.6206C150.45 60.4279 150.502 60.199 150.502 59.9335Z" fill="black"/>
<path d="M153.068 57.2554C152.876 57.2554 152.715 57.1957 152.584 57.0759C152.46 56.951 152.397 56.7975 152.397 56.6153C152.397 56.4331 152.46 56.2822 152.584 56.1625C152.715 56.0376 152.876 55.9751 153.068 55.9751C153.261 55.9751 153.42 56.0376 153.544 56.1625C153.675 56.2822 153.74 56.4331 153.74 56.6153C153.74 56.7975 153.675 56.951 153.544 57.0759C153.42 57.1957 153.261 57.2554 153.068 57.2554ZM153.607 57.7708V62.0959H152.514V57.7708H153.607Z" fill="black"/>
<path d="M156.186 62.1659C155.832 62.1659 155.514 62.1034 155.233 61.9785C154.952 61.8484 154.728 61.674 154.561 61.4554C154.4 61.2368 154.312 60.9948 154.296 60.7293H155.397C155.418 60.8959 155.498 61.0338 155.639 61.1432C155.784 61.2525 155.964 61.3071 156.177 61.3071C156.385 61.3071 156.547 61.2654 156.661 61.1822C156.781 61.0989 156.841 60.9922 156.841 60.8621C156.841 60.7215 156.768 60.6175 156.623 60.5498C156.482 60.4769 156.256 60.3988 155.943 60.3156C155.621 60.2375 155.355 60.1568 155.147 60.0736C154.944 59.9902 154.767 59.8627 154.616 59.691C154.47 59.5193 154.397 59.2877 154.397 58.9962C154.397 58.7567 154.465 58.5382 154.6 58.3404C154.741 58.1426 154.939 57.9864 155.194 57.8719C155.454 57.7574 155.759 57.7002 156.107 57.7002C156.623 57.7002 157.034 57.8303 157.341 58.0906C157.648 58.3455 157.817 58.6917 157.848 59.1289H156.802C156.787 58.9571 156.714 58.8218 156.584 58.7229C156.458 58.6188 156.29 58.5668 156.076 58.5668C155.878 58.5668 155.725 58.6032 155.616 58.676C155.512 58.7489 155.459 58.8504 155.459 58.9805C155.459 59.1263 155.532 59.2382 155.677 59.3163C155.824 59.3891 156.05 59.4646 156.357 59.5426C156.669 59.6207 156.927 59.7014 157.13 59.7847C157.333 59.868 157.507 59.998 157.653 60.175C157.804 60.3468 157.882 60.5758 157.888 60.8621C157.888 61.1119 157.817 61.3357 157.677 61.5335C157.541 61.7312 157.343 61.8874 157.083 62.0019C156.828 62.1112 156.529 62.1659 156.186 62.1659Z" fill="black"/>
<path d="M159.901 58.6681V60.7604C159.901 60.9062 159.935 61.0129 160.002 61.0805C160.075 61.143 160.195 61.1743 160.362 61.1743H160.869V62.0955H160.181C159.261 62.0955 158.8 61.6479 158.8 60.7527V58.6681H158.285V57.7703H158.8V56.7007H159.901V57.7703H160.869V58.6681H159.901Z" fill="black"/>
<path d="M162.053 57.2554C161.861 57.2554 161.699 57.1957 161.569 57.0759C161.444 56.951 161.381 56.7975 161.381 56.6153C161.381 56.4331 161.444 56.2822 161.569 56.1625C161.699 56.0376 161.861 55.9751 162.053 55.9751C162.246 55.9751 162.404 56.0376 162.53 56.1625C162.659 56.2822 162.724 56.4331 162.724 56.6153C162.724 56.7975 162.659 56.951 162.53 57.0759C162.404 57.1957 162.246 57.2554 162.053 57.2554ZM162.592 57.7708V62.0959H161.499V57.7708H162.592Z" fill="black"/>
<path d="M163.236 59.933C163.236 59.4854 163.327 59.095 163.509 58.762C163.691 58.4236 163.943 58.1634 164.267 57.9812C164.589 57.7939 164.959 57.7002 165.375 57.7002C165.911 57.7002 166.353 57.8355 166.702 58.1061C167.056 58.3716 167.293 58.7463 167.413 59.2303H166.234C166.171 59.043 166.065 58.8973 165.914 58.7931C165.768 58.6839 165.586 58.6292 165.368 58.6292C165.055 58.6292 164.808 58.7437 164.626 58.9727C164.444 59.1966 164.352 59.5166 164.352 59.933C164.352 60.3442 164.444 60.6643 164.626 60.8933C164.808 61.1171 165.055 61.229 165.368 61.229C165.81 61.229 166.098 61.0312 166.234 60.6357H167.413C167.293 61.1041 167.056 61.4763 166.702 61.7521C166.348 62.028 165.906 62.1659 165.375 62.1659C164.959 62.1659 164.589 62.0748 164.267 61.8926C163.943 61.7052 163.691 61.445 163.509 61.1119C163.327 60.7736 163.236 60.3806 163.236 59.933Z" fill="black"/>
<path d="M169.712 62.1664C169.358 62.1664 169.04 62.1039 168.759 61.979C168.478 61.8488 168.255 61.6745 168.088 61.4559C167.927 61.2373 167.838 60.9953 167.823 60.7298H168.924C168.944 60.8964 169.025 61.0343 169.165 61.1436C169.311 61.253 169.491 61.3076 169.704 61.3076C169.913 61.3076 170.074 61.2659 170.188 61.1827C170.308 61.0994 170.367 60.9927 170.367 60.8626C170.367 60.722 170.295 60.618 170.149 60.5503C170.008 60.4774 169.782 60.3993 169.47 60.3161C169.147 60.238 168.882 60.1573 168.674 60.0741C168.471 59.9907 168.294 59.8632 168.143 59.6915C167.997 59.5198 167.924 59.2882 167.924 58.9967C167.924 58.7572 167.991 58.5387 168.127 58.3409C168.267 58.143 168.465 57.9869 168.72 57.8724C168.98 57.7579 169.285 57.7007 169.634 57.7007C170.149 57.7007 170.56 57.8307 170.867 58.0911C171.174 58.346 171.344 58.6922 171.375 59.1294H170.328C170.313 58.9576 170.24 58.8223 170.11 58.7234C169.985 58.6193 169.816 58.5673 169.603 58.5673C169.405 58.5673 169.251 58.6037 169.142 58.6765C169.038 58.7494 168.985 58.8509 168.985 58.981C168.985 59.1268 169.058 59.2387 169.205 59.3168C169.35 59.3896 169.576 59.4651 169.884 59.5431C170.195 59.6212 170.454 59.7019 170.656 59.7851C170.859 59.8685 171.034 59.9985 171.179 60.1755C171.33 60.3473 171.409 60.5763 171.414 60.8626C171.414 61.1124 171.344 61.3362 171.203 61.534C171.068 61.7317 170.87 61.8879 170.61 62.0024C170.355 62.1117 170.056 62.1664 169.712 62.1664Z" fill="black"/>
<path d="M178.051 62.0953L177.458 61.5098C176.954 61.9626 176.337 62.189 175.608 62.189C175.207 62.189 174.853 62.1213 174.546 61.986C174.244 61.8455 174.01 61.6504 173.844 61.4005C173.677 61.1454 173.594 60.8514 173.594 60.5183C173.594 60.1592 173.695 59.8364 173.899 59.5501C174.101 59.2639 174.401 59.0323 174.796 58.8554C174.656 58.6836 174.554 58.5196 174.491 58.3635C174.429 58.2021 174.398 58.0304 174.398 57.8482C174.398 57.5984 174.463 57.3746 174.593 57.1769C174.723 56.9738 174.908 56.8151 175.148 56.7005C175.392 56.5861 175.676 56.5288 175.999 56.5288C176.326 56.5288 176.607 56.5913 176.841 56.7162C177.076 56.8411 177.25 57.0077 177.365 57.2159C177.479 57.424 177.529 57.6556 177.513 57.9107H176.451C176.457 57.739 176.414 57.6088 176.326 57.5203C176.237 57.4267 176.118 57.3798 175.967 57.3798C175.822 57.3798 175.699 57.424 175.6 57.5125C175.507 57.5958 175.459 57.7051 175.459 57.8404C175.459 57.9706 175.499 58.1007 175.577 58.2308C175.655 58.3557 175.783 58.5118 175.96 58.6992L177.333 60.0576C177.343 60.0472 177.352 60.0368 177.357 60.0265C177.362 60.0161 177.367 60.0056 177.372 59.9952L177.818 59.2535H178.957L178.411 60.2138C178.307 60.4168 178.194 60.6094 178.075 60.7915L179.394 62.0953H178.051ZM175.64 61.2834C176.066 61.2834 176.443 61.1325 176.771 60.8306L175.429 59.5033C174.923 59.7271 174.671 60.0447 174.671 60.4558C174.671 60.69 174.76 60.8878 174.937 61.0491C175.114 61.2053 175.347 61.2834 175.64 61.2834Z" fill="black"/>
<path d="M138.864 68.0811C138.864 67.545 138.983 67.0662 139.223 66.6446C139.468 66.2178 139.798 65.8873 140.214 65.6531C140.635 65.4137 141.107 65.2939 141.627 65.2939C142.236 65.2939 142.77 65.4501 143.227 65.7624C143.685 66.0747 144.005 66.5066 144.188 67.0584H142.931C142.806 66.7981 142.629 66.6029 142.4 66.4728C142.176 66.3427 141.916 66.2777 141.619 66.2777C141.302 66.2777 141.018 66.3531 140.768 66.5041C140.523 66.6498 140.331 66.858 140.191 67.1286C140.055 67.3992 139.987 67.7168 139.987 68.0811C139.987 68.4403 140.055 68.7577 140.191 69.0335C140.331 69.3042 140.523 69.515 140.768 69.6659C141.018 69.8117 141.302 69.8846 141.619 69.8846C141.916 69.8846 142.176 69.8195 142.4 69.6894C142.629 69.554 142.806 69.3562 142.931 69.096H144.188C144.005 69.653 143.685 70.0875 143.227 70.3998C142.775 70.7069 142.242 70.8605 141.627 70.8605C141.107 70.8605 140.635 70.7434 140.214 70.5091C139.798 70.2697 139.468 69.9392 139.223 69.5176C138.983 69.096 138.864 68.6172 138.864 68.0811Z" fill="black"/>
<path d="M146.886 70.8847C146.47 70.8847 146.095 70.7936 145.762 70.6114C145.429 70.4241 145.166 70.1612 144.974 69.8229C144.786 69.4846 144.692 69.0942 144.692 68.6518C144.692 68.2094 144.789 67.819 144.981 67.4807C145.179 67.1424 145.447 66.8822 145.786 66.7001C146.123 66.5127 146.501 66.4189 146.917 66.4189C147.334 66.4189 147.711 66.5127 148.049 66.7001C148.388 66.8822 148.653 67.1424 148.846 67.4807C149.043 67.819 149.142 68.2094 149.142 68.6518C149.142 69.0942 149.041 69.4846 148.837 69.8229C148.64 70.1612 148.369 70.4241 148.026 70.6114C147.687 70.7936 147.307 70.8847 146.886 70.8847ZM146.886 69.9322C147.084 69.9322 147.268 69.8854 147.44 69.7917C147.617 69.6928 147.758 69.5471 147.862 69.3545C147.966 69.1619 148.018 68.9276 148.018 68.6518C148.018 68.2406 147.908 67.9257 147.69 67.7072C147.477 67.4834 147.214 67.3714 146.902 67.3714C146.589 67.3714 146.327 67.4834 146.113 67.7072C145.905 67.9257 145.801 68.2406 145.801 68.6518C145.801 69.063 145.902 69.3805 146.106 69.6043C146.313 69.8229 146.574 69.9322 146.886 69.9322Z" fill="black"/>
<path d="M155.16 66.4258C155.691 66.4258 156.118 66.5897 156.44 66.9176C156.768 67.2403 156.932 67.6931 156.932 68.276V70.8133H155.839V68.4244C155.839 68.0861 155.753 67.8284 155.582 67.6515C155.41 67.4693 155.175 67.3782 154.879 67.3782C154.582 67.3782 154.345 67.4693 154.169 67.6515C153.997 67.8284 153.911 68.0861 153.911 68.4244V70.8133H152.818V68.4244C152.818 68.0861 152.732 67.8284 152.56 67.6515C152.389 67.4693 152.154 67.3782 151.858 67.3782C151.555 67.3782 151.316 67.4693 151.139 67.6515C150.968 67.8284 150.881 68.0861 150.881 68.4244V70.8133H149.788V66.4882H150.881V67.0113C151.022 66.8291 151.201 66.686 151.42 66.5819C151.644 66.4778 151.889 66.4258 152.154 66.4258C152.493 66.4258 152.794 66.4986 153.06 66.6443C153.325 66.7849 153.531 66.9879 153.677 67.2533C153.817 67.0035 154.02 66.8031 154.285 66.6521C154.556 66.5012 154.848 66.4258 155.16 66.4258Z" fill="black"/>
<path d="M163.184 66.4258C163.715 66.4258 164.141 66.5897 164.464 66.9176C164.792 67.2403 164.956 67.6931 164.956 68.276V70.8133H163.863V68.4244C163.863 68.0861 163.777 67.8284 163.605 67.6515C163.433 67.4693 163.2 67.3782 162.903 67.3782C162.606 67.3782 162.369 67.4693 162.192 67.6515C162.02 67.8284 161.935 68.0861 161.935 68.4244V70.8133H160.841V68.4244C160.841 68.0861 160.756 67.8284 160.584 67.6515C160.412 67.4693 160.178 67.3782 159.881 67.3782C159.58 67.3782 159.34 67.4693 159.163 67.6515C158.991 67.8284 158.906 68.0861 158.906 68.4244V70.8133H157.812V66.4882H158.906V67.0113C159.046 66.8291 159.226 66.686 159.444 66.5819C159.668 66.4778 159.913 66.4258 160.178 66.4258C160.516 66.4258 160.819 66.4986 161.084 66.6443C161.35 66.7849 161.554 66.9879 161.7 67.2533C161.841 67.0035 162.044 66.8031 162.31 66.6521C162.58 66.5012 162.871 66.4258 163.184 66.4258Z" fill="black"/>
<path d="M169.858 68.5581C169.858 68.7143 169.847 68.8548 169.827 68.9797H166.665C166.691 69.292 166.801 69.5367 166.993 69.7136C167.185 69.8905 167.422 69.979 167.703 69.979C168.109 69.979 168.398 69.8047 168.57 69.4559H169.749C169.624 69.8723 169.384 70.2159 169.03 70.4865C168.676 70.752 168.242 70.8847 167.727 70.8847C167.31 70.8847 166.935 70.7936 166.602 70.6114C166.275 70.4241 166.017 70.1612 165.829 69.8229C165.647 69.4846 165.557 69.0942 165.557 68.6518C165.557 68.2042 165.647 67.8112 165.829 67.4729C166.011 67.1347 166.267 66.8744 166.595 66.6922C166.923 66.5101 167.3 66.4189 167.727 66.4189C168.138 66.4189 168.505 66.5074 168.828 66.6844C169.155 66.8614 169.408 67.1138 169.585 67.4417C169.767 67.7644 169.858 68.1366 169.858 68.5581ZM168.726 68.2459C168.721 67.9648 168.619 67.741 168.421 67.5745C168.224 67.4027 167.982 67.3168 167.696 67.3168C167.425 67.3168 167.196 67.4001 167.008 67.5666C166.826 67.728 166.714 67.9544 166.673 68.2459H168.726Z" fill="black"/>
<path d="M171.592 67.1596C171.733 66.9306 171.915 66.751 172.139 66.621C172.368 66.4908 172.628 66.4258 172.92 66.4258V67.5734H172.63C172.287 67.5734 172.027 67.654 171.85 67.8154C171.679 67.9768 171.592 68.2578 171.592 68.6586V70.8133H170.499V66.4882H171.592V67.1596Z" fill="black"/>
<path d="M173.219 68.6518C173.219 68.2042 173.309 67.8139 173.491 67.4807C173.673 67.1424 173.927 66.8822 174.249 66.7001C174.572 66.5127 174.941 66.4189 175.358 66.4189C175.894 66.4189 176.336 66.5543 176.685 66.825C177.039 67.0904 177.276 67.4652 177.395 67.9492H176.216C176.154 67.7618 176.047 67.6161 175.896 67.512C175.751 67.4027 175.569 67.348 175.35 67.348C175.038 67.348 174.79 67.4625 174.608 67.6916C174.426 67.9154 174.335 68.2355 174.335 68.6518C174.335 69.063 174.426 69.3831 174.608 69.6121C174.79 69.8359 175.038 69.9479 175.35 69.9479C175.792 69.9479 176.081 69.75 176.216 69.3545H177.395C177.276 69.8229 177.039 70.195 176.685 70.4709C176.331 70.7467 175.889 70.8847 175.358 70.8847C174.941 70.8847 174.572 70.7936 174.249 70.6114C173.927 70.4241 173.673 70.1638 173.491 69.8307C173.309 69.4924 173.219 69.0995 173.219 68.6518Z" fill="black"/>
<path d="M182.061 68.5581C182.061 68.7143 182.05 68.8548 182.03 68.9797H178.868C178.893 69.292 179.003 69.5367 179.196 69.7136C179.388 69.8905 179.625 69.979 179.906 69.979C180.312 69.979 180.601 69.8047 180.773 69.4559H181.951C181.827 69.8723 181.587 70.2159 181.233 70.4865C180.879 70.752 180.445 70.8847 179.93 70.8847C179.513 70.8847 179.138 70.7936 178.805 70.6114C178.478 70.4241 178.219 70.1612 178.032 69.8229C177.85 69.4846 177.759 69.0942 177.759 68.6518C177.759 68.2042 177.85 67.8112 178.032 67.4729C178.214 67.1347 178.469 66.8744 178.798 66.6922C179.126 66.5101 179.503 66.4189 179.93 66.4189C180.341 66.4189 180.707 66.5074 181.031 66.6844C181.358 66.8614 181.611 67.1138 181.788 67.4417C181.97 67.7644 182.061 68.1366 182.061 68.5581ZM180.929 68.2459C180.924 67.9648 180.822 67.741 180.624 67.5745C180.427 67.4027 180.185 67.3168 179.899 67.3168C179.628 67.3168 179.399 67.4001 179.211 67.5666C179.029 67.728 178.917 67.9544 178.876 68.2459H180.929Z" fill="black"/>
<path d="M101.596 55.8862V70.6299H98.6385V64.3564H92.3232V70.6299H89.3662V55.8862H92.3232V61.9485H98.6385V55.8862H101.596Z" fill="black"/>
<path d="M106.154 55.8862V65.0112C106.154 66.011 106.415 66.7785 106.936 67.3136C107.457 67.8347 108.189 68.0951 109.133 68.0951C110.09 68.0951 110.829 67.8347 111.351 67.3136C111.872 66.7785 112.133 66.011 112.133 65.0112V55.8862H115.111V64.9901C115.111 66.2434 114.836 67.3066 114.287 68.1796C113.752 69.0386 113.027 69.6864 112.111 70.1229C111.21 70.5595 110.203 70.7778 109.091 70.7778C107.993 70.7778 106.993 70.5595 106.092 70.1229C105.204 69.6864 104.5 69.0386 103.979 68.1796C103.458 67.3066 103.197 66.2434 103.197 64.9901V55.8862H106.154Z" fill="black"/>
<path d="M125.065 63.0679C125.896 63.2229 126.579 63.6382 127.114 64.3142C127.649 64.9901 127.917 65.7646 127.917 66.6377C127.917 67.4263 127.719 68.1233 127.325 68.7289C126.945 69.3203 126.389 69.785 125.657 70.1229C124.924 70.4609 124.058 70.6299 123.059 70.6299H116.7V55.8862H122.784C123.784 55.8862 124.642 56.0481 125.361 56.372C126.093 56.6959 126.642 57.1466 127.008 57.7239C127.388 58.3013 127.579 58.9561 127.579 59.6883C127.579 60.5473 127.346 61.2655 126.882 61.8429C126.431 62.4202 125.825 62.8285 125.065 63.0679ZM119.658 61.9696H122.361C123.066 61.9696 123.607 61.8147 123.988 61.5048C124.368 61.181 124.558 60.7233 124.558 60.1319C124.558 59.5405 124.368 59.0828 123.988 58.7589C123.607 58.4351 123.066 58.2731 122.361 58.2731H119.658V61.9696ZM122.636 68.2219C123.354 68.2219 123.911 68.0529 124.304 67.7149C124.713 67.377 124.917 66.8982 124.917 66.2786C124.917 65.645 124.706 65.152 124.283 64.8C123.861 64.4339 123.291 64.2508 122.573 64.2508H119.658V68.2219H122.636Z" fill="black"/>
<path d="M19.9943 55.8862C21.5433 55.8862 22.9022 56.189 24.0709 56.7945C25.2538 57.4 26.1621 58.266 26.7958 59.3926C27.4435 60.505 27.7674 61.8006 27.7674 63.2792C27.7674 64.7578 27.4435 66.0533 26.7958 67.1658C26.1621 68.2642 25.2538 69.1161 24.0709 69.7216C22.9022 70.3271 21.5433 70.6299 19.9943 70.6299H14.8403V55.8862H19.9943ZM19.8886 68.1163C21.4377 68.1163 22.6346 67.6938 23.4795 66.8489C24.3244 66.004 24.7469 64.8141 24.7469 63.2792C24.7469 61.7442 24.3244 60.5473 23.4795 59.6883C22.6346 58.8153 21.4377 58.3788 19.8886 58.3788H17.7975V68.1163H19.8886Z" fill="black"/>
<path d="M31.6705 55.8862V70.6299H28.7134V55.8862H31.6705Z" fill="black"/>
<path d="M43.5908 60.3221C43.2528 59.7025 42.7881 59.2308 42.1966 58.907C41.6052 58.5831 40.9152 58.4211 40.1267 58.4211C39.2535 58.4211 38.4791 58.6183 37.8032 59.0126C37.1273 59.4068 36.5992 59.9701 36.219 60.7023C35.8388 61.4346 35.6487 62.2796 35.6487 63.2371C35.6487 64.2229 35.8388 65.0818 36.219 65.8141C36.6133 66.5464 37.1554 67.1096 37.8454 67.5039C38.5354 67.8982 39.3381 68.0953 40.2534 68.0953C41.3799 68.0953 42.3023 67.7996 43.0205 67.2082C43.7386 66.6027 44.2104 65.7648 44.4357 64.6946H39.3663V62.4344H47.3506V65.0114C47.1535 66.0394 46.731 66.9899 46.0832 67.8629C45.4355 68.7361 44.5976 69.4402 43.5696 69.9753C42.5558 70.4963 41.4151 70.7568 40.1478 70.7568C38.7255 70.7568 37.437 70.44 36.2823 69.8062C35.1417 69.1585 34.2405 68.2643 33.5786 67.1237C32.9308 65.9831 32.6069 64.6875 32.6069 63.2371C32.6069 61.7866 32.9308 60.4911 33.5786 59.3505C34.2405 58.1958 35.1417 57.3016 36.2823 56.6679C37.437 56.0202 38.7185 55.6963 40.1267 55.6963C41.7883 55.6963 43.2317 56.1047 44.4568 56.9214C45.6819 57.7241 46.5269 58.8577 46.9915 60.3221H43.5908Z" fill="black"/>
<path d="M51.2277 55.8862V70.6299H48.2705V55.8862H51.2277Z" fill="black"/>
<path d="M63.6732 55.8862V58.2731H59.7444V70.6299H56.7872V58.2731H52.8584V55.8862H63.6732Z" fill="black"/>
<path d="M71.9996 67.8201H66.1275L65.1559 70.6295H62.0508L67.3526 55.8647H70.7956L76.0974 70.6295H72.9712L71.9996 67.8201ZM71.1969 65.4545L69.0635 59.2866L66.9301 65.4545H71.1969Z" fill="black"/>
<path d="M80.3615 68.2852H85.2197V70.6299H77.4043V55.8862H80.3615V68.2852Z" fill="black"/>
<path d="M134.999 55.8647H136.015V70.9376H134.999V55.8647Z" fill="black"/>
<path d="M83.8327 15.7404C83.7547 15.7179 83.4782 15.627 83.2333 15.5442L82.792 15.3882L83.06 15.622C83.8749 16.3389 84.4275 17.752 84.9295 20.3913C85.234 21.9752 84.8455 21.3167 85.4217 21.6783C86.0983 22.103 86.0339 22.0101 86.1313 21.6783C86.1872 20.7857 87.8198 18.898 88.4828 18.6429C88.3812 18.4388 87.9256 17.8726 87.2397 17.4184C86.4463 16.9542 86.2888 16.8573 85.316 16.3683C84.5921 16.0538 83.9254 15.7692 83.8327 15.7404Z" fill="black"/>
<path d="M99.5489 13.9798C99.1729 14.0249 98.681 14.1353 98.4151 14.2357L98.2847 14.2859L98.5556 14.4665C98.9773 14.7476 99.7352 15.4149 100.056 15.7913C100.458 16.253 100.673 16.5842 101.215 17.5477C102.003 18.9478 102.159 19.1234 102.992 19.5249C103.519 19.7858 104.035 19.9514 104.1 19.8912C104.136 19.8511 103.98 18.2051 103.89 17.7333C103.684 16.6394 103.167 15.6056 102.414 14.7676C101.867 14.1604 100.723 13.8443 99.5489 13.9798Z" fill="black"/>
<path d="M73.1301 14.0489C72.5253 14.1618 72.4446 14.2132 72.7038 14.3108C72.9918 14.4135 74.0574 15.3893 74.6046 16.0518C74.8753 16.3753 75.4571 17.1251 75.9006 17.7208C76.3441 18.3114 76.8164 18.8866 76.9547 18.9996C77.4385 19.3899 78.3946 19.6672 79.4486 19.734L80.0131 19.7648L79.8404 19.4362C79.7482 19.2564 79.5927 18.9432 79.489 18.748C79.3853 18.5477 79.0052 17.7979 78.6423 17.0789C77.8935 15.5895 77.6746 15.2609 77.1332 14.809C76.6955 14.4392 76.1886 14.1978 75.5377 14.0489C74.9444 13.9153 73.8558 13.9153 73.1301 14.0489Z" fill="black"/>
<path d="M78.0748 14.2316L77.4854 14.1987L77.8328 14.5024C78.544 15.1232 79.1485 16.0976 80.1961 18.2918C80.5652 19.0664 80.9602 19.8051 81.0848 19.9422C81.3392 20.2379 81.9217 20.5977 82.6044 20.8796C83.1817 21.1204 84.0999 21.4071 84.1906 21.3786C84.2913 21.347 83.2713 17.2655 83.04 16.7537C82.8294 16.2818 82.3531 15.7171 81.8882 15.3854C81.7305 15.2726 81.3556 15.061 81.0521 14.9198C80.567 14.6918 80.3713 14.6281 79.5806 14.4636C78.9721 14.3347 78.4671 14.2567 78.0748 14.2316Z" fill="black"/>
<path d="M70.0721 14.6033C69.2943 14.804 68.5616 15.1654 68.0899 15.5768L67.8691 15.7726L68.1401 15.8077C68.6419 15.8729 69.0132 15.9884 69.5703 16.2643C70.3531 16.6457 71.5926 17.4938 72.6665 18.3821C73.2035 18.8237 73.5297 18.9441 74.2974 18.9842C74.7742 19.0093 75.4968 18.9441 75.6574 18.8537C75.7879 18.7784 73.891 16.2643 73.1131 15.4815C72.6816 15.0499 72.511 14.9145 72.2049 14.7689C71.9991 14.6686 71.7281 14.5631 71.6026 14.5381C71.2162 14.4477 70.5639 14.4779 70.0721 14.6033Z" fill="black"/>
<path d="M96.0925 14.512C95.2593 14.6726 94.4116 15.074 93.8096 15.601L93.6089 15.7766L93.8595 15.8117C94.2406 15.8669 95.2593 16.2132 95.7665 16.4591C96.2932 16.72 96.6946 17.011 97.5981 17.799C98.7675 18.8126 99.0182 18.9331 100.002 18.9832C100.409 19.0033 100.765 18.9883 100.995 18.9531L101.352 18.8879L101.021 18.371C100.835 18.0849 100.539 17.6133 100.358 17.3172C99.6008 16.0777 98.6617 15.1644 97.5981 14.6425C97.3525 14.5221 97.2569 14.507 96.77 14.4969C96.4693 14.4919 96.1628 14.502 96.0925 14.512Z" fill="black"/>
<path d="M103.183 14.6879C104.167 16.0729 104.478 16.8607 104.573 18.2457C104.689 19.8817 104.724 20.1879 104.794 20.4337C104.885 20.7298 105.366 21.4323 105.768 21.8438L106.039 22.1299L106.385 21.2767C106.852 20.1376 106.967 19.8014 107.063 19.2444C107.223 18.3311 107.073 16.9661 106.746 16.3188C106.586 16.0026 106.189 15.6061 105.747 15.3202C105.085 14.8936 104.358 14.6477 103.57 14.5975L103.093 14.5674L103.183 14.6879Z" fill="black"/>
<path d="M92.3287 16.4543C91.8918 16.615 91.6107 16.7604 91.2491 17.0164C90.9078 17.2573 90.321 17.8595 90.0754 18.2107L89.9146 18.4466H90.2812C90.7529 18.4466 91.8969 18.5721 92.3787 18.6724C92.725 18.7427 93.2069 18.9032 94.687 19.4251C95.4094 19.6811 95.9665 19.7463 96.4585 19.641C96.8946 19.5456 97.8185 19.1943 97.9988 19.0488L98.1242 18.9535L98.0141 18.8732C97.954 18.828 97.5424 18.5068 97.1004 18.1555C96.6592 17.8043 96.1224 17.4078 95.9013 17.2773C95.0385 16.7554 93.969 16.4042 93.1061 16.359C92.72 16.3389 92.609 16.349 92.3287 16.4543Z" fill="black"/>
<path d="M66.9365 16.5652C66.4949 16.6906 66.0633 16.9666 65.5515 17.4534C65.0296 17.9552 64.5529 18.6126 64.3823 19.0692C64.322 19.2248 64.2769 19.3753 64.2769 19.4005C64.2769 19.4255 64.3772 19.4055 64.5027 19.3503C65.3658 18.9789 66.6956 18.9538 68.4972 19.28C68.8736 19.3453 69.3754 19.4557 69.6163 19.5259C70.1332 19.6764 70.5697 19.6865 71.0414 19.566C71.3827 19.4757 72.3612 19.004 72.3913 18.9187C72.3964 18.8936 72.1253 18.6678 71.7891 18.4118C70.7955 17.6691 69.5109 16.9315 68.718 16.6504C68.2663 16.4899 67.3631 16.4498 66.9365 16.5652Z" fill="black"/>
<path d="M107.634 16.8506C107.634 16.8606 107.669 17.0413 107.709 17.257C107.82 17.8341 107.81 18.8428 107.684 19.455C107.559 20.0622 107.468 20.3132 107.021 21.2816C106.666 22.0544 106.515 22.4509 106.455 22.7721C106.419 22.9527 106.424 22.9578 106.59 22.9828C106.68 22.9979 107.208 23.038 107.759 23.0681L108.763 23.1233L108.923 22.9326C109.491 22.2552 110.043 20.8651 110.043 20.1124C110.043 19.2743 109.4 18.1202 108.552 17.4326C108.136 17.0915 107.634 16.7753 107.634 16.8506Z" fill="black"/>
<path d="M89.4035 19.1545C88.7861 19.3001 87.9775 19.9474 87.4558 20.7152C87.2297 21.0464 86.8843 21.749 86.9241 21.7891C86.9342 21.8041 87.0799 21.784 87.2399 21.7439C88.2789 21.483 89.4331 21.4629 91.0242 21.6787C92.6848 21.8995 93.1268 21.8392 93.9651 21.2772C94.4215 20.9711 95.1387 20.3188 95.1387 20.2133C95.1387 20.1833 95.104 20.1531 95.0583 20.1531C95.0134 20.1531 94.4969 19.9976 93.9143 19.8069C92.6898 19.4004 92.2182 19.275 91.5357 19.1746C91.0039 19.0943 89.7091 19.0792 89.4035 19.1545Z" fill="black"/>
<path d="M65.2752 19.8467C64.3619 20.0424 63.6493 20.5493 63.2629 21.287C62.8866 21.9995 62.6206 23.0233 62.6206 23.7309C62.6206 24.1022 62.6707 24.1524 62.8514 23.9617C63.1626 23.6355 63.7748 23.2491 64.4723 22.943C65.3153 22.5767 67.152 21.9745 67.7944 21.859C68.1758 21.7888 68.6475 21.4977 69.0088 21.1113C69.2497 20.8554 69.7214 20.1629 69.6862 20.1227C69.6411 20.0776 68.4417 19.8568 67.98 19.8066C67.1972 19.7213 65.7821 19.7414 65.2752 19.8467Z" fill="black"/>
<path d="M124.351 19.9874C124.012 20.2267 123.992 20.7353 124.318 21.0464C124.518 21.2379 124.897 21.232 125.156 21.0345C125.828 20.5259 125.036 19.5026 124.351 19.9874Z" fill="black"/>
<path d="M122.184 21.1901C120.494 22.1531 118.8 22.7544 116.551 23.1846C115.509 23.385 114.153 23.5415 112.712 23.6344C111.53 23.7077 108.001 23.6637 106.729 23.5611C103.06 23.2579 99.1212 22.642 95.6908 21.8402C94.6882 21.6056 94.6637 21.6007 94.4291 21.8207C94.3394 21.8989 93.7864 22.1678 93.5772 22.2314C93.5171 22.2509 93.4773 22.2851 93.4917 22.3047C93.5019 22.3291 93.4621 22.334 93.4028 22.3243C93.3427 22.3144 93.2673 22.3243 93.2428 22.3437C93.1826 22.3878 92.9489 22.9402 92.9735 22.9695C92.9836 22.9793 93.2826 23.1015 93.6314 23.2384C97.3065 24.6756 102.561 25.9614 106.544 26.3916C109.835 26.7485 113.764 26.8022 117.623 26.5382C119.503 26.4111 120.903 26.2644 121.103 26.1814C121.621 25.9711 121.452 25.2574 120.893 25.2769C120.794 25.2769 120.245 25.3259 119.667 25.3846C117.134 25.6338 113.659 25.7659 111.39 25.6974L110.095 25.6534L111.216 25.6192C114.108 25.5214 115.903 25.365 118.096 25.0227C119.308 24.8321 121.387 24.4117 121.89 24.2601C122.324 24.1281 122.354 23.5708 121.935 23.3606C121.801 23.2921 121.741 23.302 121.127 23.4388C119.946 23.7077 118.575 23.9668 117.528 24.1183C116.267 24.2992 116.122 24.2992 116.999 24.1134C119.293 23.6392 121.217 22.9353 122.733 22.026C123.401 21.6251 123.536 21.3367 123.206 21.0092C123.002 20.8088 122.788 20.8478 122.184 21.1901Z" fill="black"/>
<path d="M110.58 20.9912C110.569 21.0112 110.519 21.1667 110.469 21.3323C110.369 21.6834 110.002 22.4861 109.792 22.8121C109.707 22.9426 109.642 23.063 109.642 23.078C109.642 23.0981 110.058 23.1132 110.569 23.1132C111.407 23.1132 111.498 23.1031 111.498 23.0278C111.498 22.8673 111.287 22.1901 111.121 21.8339C110.936 21.4226 110.619 20.926 110.58 20.9912Z" fill="black"/>
<path d="M87.9624 22.2349C87.3146 22.3403 86.6779 22.5009 86.4467 22.6163C86.025 22.8321 85.4534 23.4644 85.122 24.0816L84.9614 24.3877L85.5432 24.6838L86.1308 24.9799L86.7575 24.8946C87.1038 24.8494 87.5458 24.7993 87.7363 24.7892C90.3961 24.6286 90.6222 24.5633 91.5206 23.64C91.9466 23.1984 92.4284 22.5762 92.4284 22.4608C92.4284 22.4407 92.1523 22.4106 91.8162 22.3955C91.4749 22.3754 90.8627 22.3152 90.4512 22.26C89.5984 22.1446 88.6094 22.1346 87.9624 22.2349Z" fill="black"/>
<path d="M67.1621 22.6065C66.0932 22.9376 64.3369 23.7004 63.7899 24.0718C63.1275 24.5184 62.7261 25.0052 62.5253 25.6023C62.2543 26.4153 62.3948 28.1014 62.8013 28.8993L62.8766 29.0348L63.1075 28.5832C63.2329 28.3323 63.4788 27.966 63.6494 27.7602C64.1311 27.1982 65.1398 26.32 66.4295 25.3264C67.1069 24.8095 67.2073 24.6991 67.4381 24.2624C67.6639 23.8259 67.8145 23.304 67.8697 22.767C67.8948 22.4811 67.8898 22.4108 67.8346 22.4158C67.7944 22.4158 67.4933 22.5011 67.1621 22.6065Z" fill="black"/>
<path d="M71.1261 22.8428C70.845 22.8879 70.5991 22.9682 70.5991 23.0083C70.5991 23.0334 70.6845 23.1288 70.7898 23.2141C71.101 23.4851 71.4221 23.8865 72.23 25.0206C72.6566 25.6128 73.3039 26.4458 73.6653 26.8724C74.408 27.7355 74.5234 27.8158 75.3665 28.0416C75.7278 28.137 75.9034 28.1571 76.5156 28.147C76.9121 28.147 77.2533 28.1219 77.2784 28.0969C77.2985 28.0768 77.2332 27.9412 77.1279 27.8057C76.897 27.5047 76.0389 26.1548 75.4417 25.1611C74.5435 23.6758 74.0417 23.204 73.0832 22.9381C72.7821 22.8578 71.4523 22.7926 71.1261 22.8428Z" fill="black"/>
<path d="M123.337 22.8857C123.175 23.0354 123.142 23.1133 123.142 23.3588C123.142 23.6164 123.175 23.6882 123.351 23.8439C123.889 24.323 124.669 23.7781 124.42 23.1073C124.266 22.6761 123.7 22.5623 123.337 22.8857Z" fill="black"/>
<path d="M68.6425 22.9977C68.6425 23.2587 68.4015 24.1218 68.2209 24.4981L68.0503 24.8545L68.4718 25.4014C68.9736 26.0438 70.2934 27.3987 70.5544 27.5291C70.9257 27.7198 71.548 27.8453 72.1552 27.8503C72.7072 27.8503 73.4348 27.7601 73.4851 27.6848C73.4951 27.6647 73.3746 27.4991 73.2191 27.3235C72.8075 26.8567 71.9444 25.7527 71.4025 24.995C70.5544 23.8056 70.1279 23.3741 69.5157 23.0831C69.3199 22.9877 69.0439 22.8974 68.9034 22.8773L68.6425 22.8472V22.9977Z" fill="black"/>
<path d="M59.3591 22.943C59.073 22.9781 58.6013 23.0685 58.4809 23.1136C58.3755 23.1538 58.4006 23.1889 58.8321 23.6255C59.0831 23.8814 59.5698 24.4635 59.9161 24.9202C60.2574 25.3768 60.7642 25.9841 61.0402 26.2701L61.542 26.792L61.5772 26.3955C61.6223 25.8687 61.7026 25.5073 61.8531 25.1711C61.9385 24.9855 61.9685 24.8399 61.9535 24.7195C61.9385 24.6241 61.8983 24.3079 61.8682 24.0169C61.8331 23.7259 61.7979 23.4649 61.7879 23.4298C61.7679 23.3445 61.3162 23.1237 60.985 23.0384C60.699 22.9631 59.6853 22.9029 59.3591 22.943Z" fill="black"/>
<path d="M125.917 22.1526C125.516 22.3255 125.393 22.9179 125.676 23.2574C126.103 23.7635 126.831 23.3747 126.738 22.6957C126.683 22.2822 126.269 22.0045 125.917 22.1526Z" fill="black"/>
<path d="M54.9427 23.0984C54.8724 23.1085 54.7018 23.1536 54.5613 23.1937L54.3003 23.264L54.6767 23.6253C54.8824 23.826 55.3943 24.4283 55.8108 24.9652C57.0603 26.566 58.1041 27.5897 58.6762 27.7804C59.4038 28.0163 60.2369 28.0363 61.105 27.8306C61.3559 27.7704 61.5667 27.7152 61.5667 27.7052C61.5667 27.6951 61.4262 27.5546 61.2606 27.394C60.6684 26.832 59.8304 25.8885 59.163 25.0304C57.8532 23.3393 57.3764 23.0582 55.8208 23.0733C55.4093 23.0733 55.0129 23.0884 54.9427 23.0984Z" fill="black"/>
<path d="M75.0406 23.0934C74.8048 23.1537 74.8048 23.1637 75.0406 23.4297C75.417 23.8412 75.6629 24.2176 76.3102 25.3416C76.6414 25.9187 77.1784 26.7819 77.4995 27.2535C77.9964 27.9762 78.1368 28.1518 78.3627 28.2974C78.9498 28.6888 79.818 28.9347 80.5907 28.9347C80.7814 28.9347 80.9371 28.9246 80.9371 28.9196C80.9371 28.9096 80.7012 28.4128 80.4151 27.8206C80.1291 27.2285 79.7879 26.4958 79.6574 26.1947C78.724 24.0419 78.2071 23.4949 76.8623 23.2089C76.4106 23.1135 75.2464 23.0382 75.0406 23.0934Z" fill="black"/>
<path d="M92.2759 23.6755C92.0312 23.9507 91.9812 24.0294 92.0354 24.0686C92.0905 24.1079 92.0854 24.1079 92.0109 24.0883C91.9406 24.0637 91.8407 24.1277 91.6358 24.3144C91.4859 24.4569 91.3665 24.5945 91.3716 24.624C91.3809 24.6485 91.3715 24.6583 91.3563 24.6387C91.336 24.6191 91.2064 24.6583 91.0709 24.7272C90.6569 24.9336 90.7111 24.9926 91.756 25.5135C92.8153 26.0394 93.8247 26.4374 95.3498 26.9387C97.8834 27.7643 100.563 28.3983 107.374 29.7841C114.762 31.2879 118.74 32.5559 121.614 34.33C122.439 34.8362 122.538 34.8608 122.798 34.6052C123.103 34.3055 123.008 34.0303 122.498 33.7059C121.094 32.8066 119.839 32.1971 118.02 31.5288C115.736 30.6884 112.872 29.9315 108.249 28.9487C107.699 28.8307 107.284 28.7325 107.324 28.7325C107.465 28.7226 110.478 29.2681 112.302 29.6318C114.097 29.9906 115.951 30.4181 116.821 30.6737C118.555 31.1848 119.62 31.5582 120.794 32.0694C121.383 32.3249 121.578 32.3642 121.748 32.2413C121.984 32.0841 122.029 31.6369 121.829 31.4698C121.704 31.3666 120.599 30.8849 119.844 30.6048C118.18 29.9906 116.465 29.5089 113.947 28.9438C113.427 28.8307 113.047 28.7325 113.112 28.7325C113.172 28.7276 113.892 28.8405 114.712 28.9732C116.99 29.3517 118.7 29.6957 119.999 30.0299C120.364 30.1233 120.714 30.2018 120.789 30.2018C120.954 30.2018 121.204 29.9758 121.239 29.7841C121.278 29.5876 121.119 29.332 120.899 29.2435C120.639 29.1355 119.045 28.7521 118.07 28.5604C115.701 28.0985 112.722 27.6611 110.198 27.4007C103.856 26.7519 97.7081 25.3808 93.3099 23.6215L92.5909 23.3364L92.2759 23.6755Z" fill="black"/>
<path d="M79.0801 23.7606C79.0801 23.7857 79.1151 23.8359 79.1604 23.8711C79.2808 23.9714 79.5969 24.4531 79.7675 24.7944C79.8529 24.9599 80.1288 25.5922 80.3898 26.1995C80.6457 26.8067 81.0672 27.725 81.3181 28.2368C81.7748 29.1552 81.7899 29.1803 82.101 29.4112C82.5376 29.7423 83.2301 30.0635 83.8273 30.209C84.0982 30.2743 84.3291 30.3244 84.3341 30.3194C84.3391 30.3144 84.2789 30.1087 84.1987 29.8628C84.1234 29.6119 83.9276 28.9243 83.772 28.3322C83.3104 26.5608 83.1548 26.074 82.8938 25.537C82.5978 24.9399 82.2064 24.5034 81.7547 24.2775C81.4185 24.1069 80.7661 23.8911 80.2694 23.7857C79.893 23.7104 79.0801 23.6904 79.0801 23.7606Z" fill="black"/>
<path d="M83.2959 24.9003C83.2959 24.9153 83.3461 24.9957 83.4013 25.0809C83.602 25.362 83.8529 26.0495 84.1038 27.0029C84.4552 28.3277 85.0473 30.4353 85.1276 30.616C85.3183 31.0576 86.1365 31.6949 86.9689 32.0563C87.2204 32.1616 87.4313 32.247 87.4355 32.2369C87.4457 32.2269 87.4211 31.9609 87.3855 31.6448C87.3102 30.9923 87.195 29.8783 87.0799 28.7342C86.8792 26.6767 86.4177 25.949 84.8767 25.2716C84.2192 24.9856 83.2959 24.7698 83.2959 24.9003Z" fill="black"/>
<path d="M122.637 25.2058C122.311 25.4345 122.218 25.8197 122.404 26.1507C122.524 26.3613 122.691 26.4515 122.97 26.4515C123.083 26.4515 123.236 26.4214 123.309 26.3913C123.489 26.3011 123.635 26.0183 123.635 25.7535C123.635 25.3202 122.983 24.9591 122.637 25.2058Z" fill="black"/>
<path d="M89.7447 25.2515C89.5788 25.2917 89.0165 25.3569 88.4898 25.397C87.9682 25.4371 87.361 25.4824 87.1502 25.5024L86.7632 25.5375L86.8741 25.6731C86.9639 25.7885 87.0494 25.8235 87.3559 25.8737C87.9478 25.9691 88.5855 26.2301 89.102 26.5813C89.2172 26.6616 89.3332 26.7269 89.3527 26.7269C89.4179 26.7269 89.8548 25.9791 90.0005 25.6228C90.1207 25.3217 90.1512 25.1662 90.086 25.1762C90.0606 25.1812 89.9098 25.2164 89.7447 25.2515Z" fill="black"/>
<path d="M125.209 24.4009C124.713 24.6022 124.535 25.4228 124.899 25.8176C125.487 26.4524 126.455 25.8099 126.192 24.9505C126.068 24.517 125.58 24.2461 125.209 24.4009Z" fill="black"/>
<path d="M66.3495 26.1448C65.4262 26.9175 64.3222 28.0015 64.0111 28.4381C63.4992 29.1657 63.2934 29.783 63.3386 30.4654C63.3838 31.0977 63.72 31.9759 64.1766 32.6484C64.3874 32.9545 64.819 33.4513 64.8742 33.4513C64.8993 33.4513 64.9293 33.2556 64.9444 33.0147C64.9595 32.7236 65.0247 32.4024 65.1301 32.0813C65.381 31.2934 66.3646 29.3815 67.1776 28.1069C67.3933 27.7707 67.4786 27.1635 67.3933 26.6014C67.3131 26.0494 67.1876 25.5225 67.1374 25.5225C67.1123 25.5225 66.761 25.8035 66.3495 26.1448Z" fill="black"/>
<path d="M68.1102 26.0397C68.2206 26.3607 68.2506 27.2938 68.1604 27.7252L68.1352 27.8456L68.5316 27.8154C68.7523 27.8005 69.0985 27.7453 69.2991 27.7001L69.6703 27.6148L69.4145 27.3841C69.1636 27.1583 68.6469 26.6116 68.2707 26.1751C68.1654 26.0497 68.0901 25.9895 68.1102 26.0397Z" fill="black"/>
<path d="M126.96 25.8256C126.536 26.2743 126.782 27.0364 127.347 27.0364C127.931 27.0364 128.208 26.1022 127.716 25.7825C127.489 25.6351 127.12 25.6534 126.96 25.8256Z" fill="black"/>
<path d="M87.3848 26.8222C87.6109 27.2638 87.7261 28.0115 87.837 29.7478C87.8819 30.4353 87.9573 31.3637 88.0123 31.8153C88.0877 32.5178 88.1224 32.6835 88.2435 32.8992C88.4391 33.2556 89.0462 33.8929 89.4578 34.1689C89.8388 34.4248 90.5569 34.7861 90.6018 34.7409C90.617 34.7259 90.5916 34.5301 90.5468 34.2993C90.3909 33.4763 90.3511 32.4326 90.4214 31.173C90.4765 30.1493 90.4765 29.9536 90.4113 29.5471C90.3207 29.0202 90.1301 28.5786 89.8338 28.2073C89.3875 27.6452 88.1783 26.8825 87.4306 26.6968L87.2993 26.6616L87.3848 26.8222Z" fill="black"/>
<path d="M125.687 32.3404C125.348 32.5797 125.328 33.0883 125.654 33.3994C125.854 33.5909 126.232 33.5849 126.492 33.3875C127.163 32.8788 126.372 31.8557 125.687 32.3404Z" fill="black"/>
<path d="M124.318 27.4012C123.701 28.0448 124.114 29.0665 124.948 28.8577C125.453 28.736 125.801 28.3482 125.653 27.8264C125.453 27.1221 124.814 26.8882 124.318 27.4012Z" fill="black"/>
<path d="M67.1772 29.3464C65.6014 32.282 65.3004 33.4814 65.8322 34.6657C66.1334 35.3481 67.122 36.2665 67.9901 36.683C68.4769 36.9188 68.507 36.9139 68.3916 36.6479C68.3364 36.5275 68.2561 36.2715 68.2059 36.0809C68.0253 35.3431 68.1557 33.3058 68.4969 31.5243C68.6174 30.9071 68.6073 30.6461 68.4468 30.1393C68.3314 29.7679 67.9651 29.1005 67.7241 28.8195L67.5636 28.6338L67.1772 29.3464Z" fill="black"/>
<path d="M91.0585 29.4212C91.1094 29.7273 91.1085 30.3948 91.0535 31.7196C91.0188 32.6128 91.0238 32.8737 91.0992 33.4257C91.2448 34.5348 91.3998 35.142 91.6107 35.448C91.9265 35.9148 92.6243 36.4567 93.267 36.7378C93.5828 36.8833 94.3907 37.1292 94.4211 37.094C94.4355 37.084 94.4008 36.9887 94.3458 36.8783C93.9639 36.1306 93.7132 34.8961 93.6133 33.2451C93.4973 31.4436 93.3669 31.017 92.7047 30.3747C92.2584 29.9381 91.7961 29.5868 91.36 29.356L91.0137 29.1753L91.0585 29.4212Z" fill="black"/>
<path d="M124.865 30.0312C124.642 30.2536 124.603 30.3456 124.603 30.6371C124.603 31.1432 124.88 31.4577 125.332 31.4577C125.823 31.4577 126.068 31.2199 126.122 30.7061C126.153 30.3303 126.137 30.292 125.884 30.0388C125.524 29.6784 125.224 29.6707 124.865 30.0312Z" fill="black"/>
<path d="M122.521 29.4134C122.321 29.5905 122.288 29.6612 122.288 29.8855C122.288 30.3755 122.775 30.6943 123.215 30.4877C123.843 30.2043 123.696 29.3366 123.002 29.2362C122.788 29.2067 122.728 29.2304 122.521 29.4134Z" fill="black"/>
<path d="M81.0327 30.1795C80.7567 30.4706 80.2349 31.1982 80.2349 31.2885C80.2349 31.3638 83.2609 31.5946 84.2143 31.5946H84.8566L84.691 31.3738C84.5455 31.1781 84.4953 31.148 84.2745 31.1179C83.316 30.9874 82.3475 30.606 81.6751 30.0942L81.3439 29.8433L81.0327 30.1795Z" fill="black"/>
<path d="M105.637 30.1597C105.466 30.4808 105.28 30.9224 105.275 31.0077C105.275 31.0729 105.301 31.093 105.366 31.0729C105.411 31.0578 105.927 31.0228 106.505 30.9926C107.544 30.9424 108.326 30.8421 108.673 30.7217C108.844 30.6615 108.818 30.6514 107.955 30.4708C107.458 30.3704 106.756 30.2199 106.39 30.1446L105.722 29.999L105.637 30.1597Z" fill="black"/>
<path d="M126.946 28.8578C126.743 29.0608 126.731 29.0977 126.755 29.3868C126.799 29.8051 126.977 29.9957 127.334 29.9957C127.721 29.9957 127.918 29.8051 127.961 29.3929C127.985 29.0916 127.973 29.0608 127.77 28.8578C127.616 28.7041 127.499 28.6426 127.358 28.6426C127.217 28.6426 127.1 28.7041 126.946 28.8578Z" fill="black"/>
<path d="M109.676 31.0719C109.315 31.2223 108.633 31.4231 108.221 31.4984C108.05 31.5284 107.278 31.5737 106.505 31.5937C105.265 31.6238 105.059 31.6439 104.764 31.7392C104.377 31.8647 103.795 32.236 103.363 32.6375C102.902 33.064 102.902 33.059 103.383 33.2397C103.61 33.325 104.066 33.4956 104.397 33.6261C105.049 33.877 105.551 34.0075 106.239 34.1029C106.942 34.1982 108.386 34.0326 108.844 33.8017C109.245 33.596 109.857 32.9285 110.183 32.3464C110.329 32.0805 110.645 31.2475 110.645 31.122C110.645 31.0618 110.223 30.9364 110.053 30.9464C110.007 30.9464 109.837 31.0066 109.676 31.0719Z" fill="black"/>
<path d="M69.0945 31.4284C69.0945 31.4535 69.0494 31.7846 68.9942 32.1711C68.7984 33.5862 68.7733 35.3677 68.949 36.0903C69.1045 36.7527 69.5411 37.4 70.0881 37.7764C70.8057 38.2732 72.1055 38.6195 72.9435 38.5442C73.1442 38.5241 73.3098 38.5041 73.3098 38.4991C73.3098 38.4991 73.1442 38.3234 72.9435 38.1127C72.7478 37.9069 72.4768 37.5556 72.3413 37.3348C71.9398 36.6574 71.2473 34.7003 71.0215 33.6013C70.9763 33.3654 70.881 33.0693 70.8158 32.9389C70.6652 32.6328 70.1082 32.0406 69.7469 31.7997C69.3003 31.4987 69.0945 31.3833 69.0945 31.4284Z" fill="black"/>
<path d="M94.1145 31.8606C94.1552 32.0313 94.2153 32.6435 94.2602 33.2256C94.305 33.8026 94.3609 34.4349 94.3906 34.6306C94.5464 35.6895 95.123 37.1699 95.5295 37.5513C96.2772 38.2438 97.7379 38.6503 98.9175 38.4897L99.1428 38.4596L98.8218 38.1584C98.2951 37.6617 97.7532 36.8588 97.4272 36.0809C97.3366 35.8602 97.1757 35.3784 97.0757 35.007C96.5482 33.1051 96.4076 32.8642 95.4694 32.2319C95.0333 31.9409 94.4414 31.6398 94.1797 31.5796L94.0493 31.5444L94.1145 31.8606Z" fill="black"/>
<path d="M79.1104 32.0162C78.6236 32.2069 77.9662 32.6235 77.625 32.9747L77.4092 33.1956L77.5397 33.2458C77.6099 33.2758 77.8708 33.3813 78.1118 33.4816C78.7691 33.7526 80.8366 34.4902 81.2782 34.6107C81.7651 34.7412 82.6181 34.7913 83.0095 34.7111C83.6619 34.5706 84.4498 33.9985 85.0921 33.1855C85.3531 32.8593 85.7348 32.212 85.6891 32.1668C85.6789 32.1518 85.4638 32.1769 85.2226 32.227C84.6956 32.3224 83.6318 32.3023 82.6934 32.1769C81.7651 32.0514 79.9284 31.8457 79.7327 31.8457C79.6373 31.8507 79.3563 31.926 79.1104 32.0162Z" fill="black"/>
<path d="M123.19 31.7711C122.769 32.0061 122.715 32.558 123.096 32.8516C123.384 33.0806 123.652 33.0688 123.939 32.8164C124.132 32.6461 124.166 32.5756 124.166 32.3466C124.166 31.8475 123.631 31.5304 123.19 31.7711Z" fill="black"/>
<path d="M97.1553 33.29C97.2307 33.4757 97.4822 34.2133 97.6727 34.8305C98.0893 36.1604 98.5152 36.888 99.3434 37.6709C99.9158 38.2128 100.111 38.3433 100.508 38.4537C100.969 38.5792 101.903 38.5641 102.425 38.4286C103.082 38.253 104.056 37.7913 104.071 37.6457C104.071 37.6257 103.88 37.5404 103.649 37.4601C103.097 37.2744 102.651 37.0486 102.068 36.6622C101.507 36.2858 101.045 35.8342 100.398 35.0313C99.8752 34.3789 99.3688 33.862 99.1283 33.7416C98.6609 33.5007 97.0901 33.1394 97.1553 33.29Z" fill="black"/>
<path d="M71.5227 33.391C71.5428 33.4462 71.6031 33.657 71.6582 33.8628C71.884 34.6807 72.5213 36.2112 72.9429 36.9238C73.2541 37.4558 73.8361 38.0529 74.2376 38.2587C74.7243 38.4996 75.0255 38.5698 75.6226 38.5698C76.2398 38.5698 76.7116 38.4895 77.3338 38.2788C77.7353 38.1433 78.3526 37.8272 78.3073 37.777C78.2923 37.7669 78.1067 37.6967 77.8858 37.6214C76.9675 37.3002 75.5975 36.141 74.2527 34.5452C73.5752 33.7323 72.9931 33.4412 71.8339 33.3207C71.5077 33.2907 71.4927 33.2907 71.5227 33.391Z" fill="black"/>
<path d="M101.461 33.4862C101.025 33.5615 100.648 33.6568 100.393 33.7522L100.106 33.8576L100.543 34.3443C101.923 35.8648 102.425 36.2663 103.404 36.6578C104.091 36.9287 104.774 37.0843 105.135 37.0442C105.848 36.9739 106.771 36.4721 107.388 35.8197C107.729 35.4634 108.091 34.9816 108.171 34.7809C108.196 34.7057 108.175 34.7007 108.031 34.7307C107.714 34.806 107.012 34.8311 106.46 34.796C105.541 34.7307 104.909 34.5501 103.72 34.0031C102.641 33.5063 102.079 33.3809 101.461 33.4862Z" fill="black"/>
<path d="M75.4418 33.576C75.2762 33.6111 74.9751 33.7014 74.7794 33.7767L74.4131 33.9122L74.6288 34.1681C75.1508 34.7954 76.3652 35.8743 77.2283 36.4815C77.6499 36.7726 78.2069 37.0385 78.6284 37.1439C79.0249 37.2443 79.7324 37.2192 80.1088 37.0887C80.5002 36.9532 81.1274 36.627 81.4888 36.3711C81.83 36.1302 82.4422 35.5532 82.4422 35.4679C82.4422 35.4427 82.2315 35.4076 81.9806 35.3926C81.4236 35.3625 80.9769 35.247 80.1038 34.9109C79.4413 34.6599 77.5696 33.867 77.0728 33.6312C76.8269 33.5158 76.7365 33.5007 76.2698 33.5057C75.9788 33.5057 75.6074 33.5408 75.4418 33.576Z" fill="black"/>
<path d="M123.937 34.8097C123.365 35.3342 123.977 36.1842 124.694 35.8466C125.076 35.6598 125.161 35.0749 124.839 34.7796C124.562 34.5264 124.234 34.5384 123.937 34.8097Z" fill="black"/>
</svg>
