<svg width="114" height="195" viewBox="0 0 114 195" fill="none" xmlns="http://www.w3.org/2000/svg">
<g opacity="0.64">
<path d="M31.2266 194.671V140.603C31.2266 112.818 41.8337 87.5742 58.9888 69.2634C73.3843 53.9556 92.2705 43.5002 113.322 40.4961V45.2329C93.5149 48.1786 75.6561 58.1145 62.1274 72.6131C45.7839 90.0587 35.6106 114.089 35.6106 140.603V194.671H31.2276H31.2266Z" fill="#ABE288"/>
<path d="M46.1602 194.999V143.025C46.1602 119.636 55.1084 98.3272 69.4993 82.9082C81.0877 70.4924 96.2881 61.8294 113.16 59V63.7354C97.4749 66.5648 83.4065 74.6501 72.5717 86.2581C58.988 100.811 50.5257 120.965 50.5257 143.026V195H46.1602V194.999Z" fill="#ABE288"/>
<path d="M62.1602 195V145.698C62.1602 126.972 69.2843 109.98 80.7793 97.669C89.4684 88.3631 100.693 81.7172 113.16 79V83.855C101.88 86.4555 91.7889 92.5243 83.9092 101.021C73.1698 112.464 66.5311 128.302 66.5311 145.698V195H62.1602Z" fill="#ABE288"/>
<path d="M16.1602 194.999V137.284C16.1602 104.775 28.4592 75.2804 48.2789 53.8986C65.3586 35.4718 88.0243 23.071 113.16 20V24.7516C89.2058 27.8226 67.668 39.7022 51.3938 57.26C32.3807 77.7728 20.5648 106.109 20.5648 137.285V195H16.1602V194.999Z" fill="#ABE288"/>
<path d="M0.160156 195V133.838C0.160156 96.8632 14.2985 63.2449 37.0175 38.8262C56.9836 17.4167 83.6416 3.18232 113.16 0V4.7448C84.8297 7.86977 59.305 21.6411 40.1472 42.1828C18.1836 65.7326 4.58558 98.1368 4.58558 133.838V195H0.160156Z" fill="#ABE288"/>
</g>
</svg>
