<svg width="123" height="137" viewBox="0 0 123 137" fill="none" xmlns="http://www.w3.org/2000/svg">
<path fill-rule="evenodd" clip-rule="evenodd" d="M109.823 31.6862C110.129 34.222 109.323 37.4643 108.165 39.6134C107.001 41.77 104.619 44.2835 103.23 46.1798C103.014 46.4698 102.879 46.6037 102.67 46.8788C102.454 47.154 102.409 47.3399 102.163 47.6151C102.021 47.7712 101.961 47.7935 101.842 47.9274C101.677 48.1133 101.73 48.1282 101.595 48.3067C101.446 48.5 101.409 48.4554 101.252 48.671C101.14 48.8272 101.14 48.8793 101.013 49.0503C100.826 49.3031 100.655 49.5039 100.453 49.7493L93.7334 58.264C92.27 60.1826 90.62 62.1087 89.1492 63.9083L84.1095 70.326C83.8855 70.6011 83.8183 70.787 83.6018 71.0622C82.7805 72.1033 82.1384 72.9957 81.3844 73.9401C79.8687 75.8364 80.1748 75.5538 79.4282 74.944C79.2042 74.7581 78.9504 74.5871 78.7189 74.4011C75.4189 71.7091 75.4189 72.7428 76.9868 70.7721C78.0395 69.441 79.152 67.9463 80.2943 66.6152L81.3695 65.1874C81.698 64.7115 82.1161 64.2504 82.4819 63.7893L85.7446 59.5952C86.1328 59.1118 86.4688 58.6879 86.8571 58.1971C87.8053 57.0073 90.3736 53.6832 91.2546 52.6942C92.0684 51.7795 92.7254 50.9168 93.487 49.9724C93.696 49.7121 93.7931 49.5039 94.0022 49.2362L97.8248 44.3505C98.5938 43.3614 99.2434 42.5657 100.02 41.5915L102.178 38.8103C103.298 37.442 105.567 34.5195 106.224 32.9727C106.777 31.6713 106.971 30.7938 107.15 29.2396C107.419 26.9417 106.717 25.9155 106.553 24.8819C106.971 24.9116 107.344 25.5363 107.68 25.9825C108.001 26.4063 108.277 26.9046 108.546 27.4028C109.382 28.9421 109.614 29.9833 109.823 31.6862ZM114.586 31.7383C115.049 35.5234 113.795 39.9258 112.055 43.1011L110.667 45.3469L107.949 48.7528C107.568 49.2362 107.232 49.6601 106.844 50.1583L105.806 51.5489C105.597 51.8092 105.455 51.9951 105.231 52.2405C104.977 52.5157 104.918 52.6495 104.649 52.9173C104.283 53.2891 103.902 53.8394 103.559 54.2633L99.7511 59.0969C99.6092 59.32 99.43 59.4688 99.206 59.7365C98.8103 60.1901 98.4669 60.6511 98.0786 61.1271L96.4809 63.2093C96.2121 63.5068 96.1673 63.5439 95.9135 63.9083L93.1734 67.2993C92.9121 67.5671 92.8449 67.7009 92.6508 67.9612C91.8594 68.9874 88.9252 72.4751 88.2756 73.479C88.0965 73.7616 87.8724 73.888 87.6858 74.1557L84.9607 77.5616C84.7815 77.7773 84.5874 78.0376 84.4007 78.2607C84.1469 78.5656 84.0124 78.5953 83.7138 78.3648C82.9821 77.807 82.8104 77.7699 83.4226 77.0113C83.8109 76.528 84.0722 76.1041 84.4604 75.6207C85.1622 74.7432 85.9536 73.7467 86.6554 72.8692L88.8057 70.0806C89.5225 69.2328 90.1422 68.3107 90.9186 67.3365C92.4716 65.3956 93.8304 63.7001 95.3162 61.8335C95.6671 61.3874 96.0553 60.9709 96.4436 60.4429C97.8696 58.4946 100.572 55.3341 101.789 53.5493C101.983 53.2668 102.185 53.1403 102.379 52.8801L103.454 51.4448C103.686 51.1548 103.79 51.1474 103.999 50.8053L106.172 48.0315C109.748 43.5622 111.794 41.4651 112.615 35.278C113.115 31.5003 112.473 27.0905 110.48 23.8408C110.204 23.3946 109.703 22.7476 109.591 22.294C110.129 22.584 110.92 23.4541 111.353 23.9969C113.026 26.1163 114.25 28.9645 114.586 31.7383ZM82.7805 86.7828C82.6909 87.1026 82.4221 87.3703 82.1758 87.6157L80.2271 90.0028C79.3536 91.1034 78.6219 92.204 77.6812 93.26C77.0242 93.9962 75.8445 95.6248 75.1054 96.5023C73.8436 98.0044 72.6042 99.752 71.32 101.351L67.4899 106.162C65.6159 108.52 64.16 110.356 62.3606 112.587C61.5394 113.606 60.5314 114.87 59.7773 115.822L57.1493 119.02C56.2608 120.135 55.5291 121.147 54.6033 122.277L53.3714 123.935C51.587 126.322 48.063 129 45.2035 130.554C42.8143 131.855 38.8423 133.328 35.7811 133.692L34.1983 133.885C31.0103 134.272 25.6123 133.692 22.6706 132.688C20.8862 132.078 19.4975 131.468 18.0192 130.71C17.2353 130.308 16.5484 129.884 15.8615 129.468C15.1671 129.044 14.5176 128.576 13.868 128.107C13.323 127.713 12.4943 127.029 11.9791 126.523C10.5979 125.147 9.92592 124.471 8.694 122.835C8.2087 122.188 7.69355 121.57 7.20825 120.834C5.35664 118.008 3.74394 114.104 3.27358 110.26C2.40004 103.054 3.82606 97.6252 7.32769 91.6611C7.76819 90.9175 9.18676 89.0509 9.76166 88.3147C10.008 88.0024 10.2171 87.8462 10.4709 87.519L25.2539 68.9874C25.7019 68.4222 26.0453 67.9091 26.5007 67.3365L34.9076 56.8065C35.1167 56.5165 35.3108 56.3008 35.5273 56.0108C35.9454 55.4679 36.3411 54.94 36.804 54.3897C37.14 53.9955 37.8344 53.1032 38.1479 52.8726C38.4391 52.9247 39.3201 53.713 39.6039 53.9361C40.0593 54.293 40.4923 54.6276 40.9776 54.992C41.2688 55.2151 41.3808 55.3713 41.6496 55.5869L43.1055 56.6355C44.2254 57.513 45.5021 58.3235 46.6369 59.201C47.5926 59.9373 48.4662 60.6214 49.3994 61.2981L60.5091 69.8054C62.3756 71.2332 64.2048 72.5718 66.0862 74.0293L71.6336 78.2904C71.9397 78.4912 72.0815 78.5656 72.3727 78.7961C72.5818 78.9597 72.8729 79.22 73.0671 79.3613L80.0255 84.6411C80.3316 84.9386 80.4138 84.9312 80.7498 85.1691L82.7805 86.7828ZM87.8053 0.259776C84.1245 0.705962 80.4884 1.93299 77.4721 3.33847C74.4632 4.73653 70.2299 7.87469 68.005 10.5072C67.8781 10.6559 67.7736 10.8047 67.6541 10.946L64.2272 15.1476C62.398 17.438 60.5912 19.6838 58.7844 21.9668L38.3943 47.5407C37.252 48.9164 35.2809 51.5415 34.3103 52.5826C33.3621 53.594 31.4657 56.2488 30.2562 57.7138L20.7444 69.6493C17.7654 73.4047 14.764 77.0485 11.9119 80.7667C11.6879 81.0568 11.4714 81.2873 11.2474 81.5996C10.8144 82.202 10.3291 82.7225 9.89604 83.31C9.44807 83.9124 8.9852 84.4032 8.5223 85.0055C5.57317 88.8055 5.84939 88.1586 3.54982 92.1817C3.20638 92.784 2.89279 93.4533 2.55681 94.1746C1.92965 95.5206 1.42944 96.9113 1.03373 98.5101C-0.175782 103.478 -0.228042 105.731 0.384182 110.78C0.914278 115.116 2.73603 119.392 4.78175 122.589C5.31185 123.415 5.83446 124.181 6.40189 124.865C8.41775 127.259 9.73926 128.695 12.1882 130.531C13.6217 131.61 15.0551 132.539 16.8022 133.447C18.2955 134.227 20.2889 135.016 21.9763 135.581C25.4032 136.726 30.5773 137.321 34.7359 136.823C42.3215 135.908 48.7499 132.621 53.1848 128.516C54.3122 127.468 56.6938 124.835 57.5002 123.511C57.8212 122.976 59.6504 120.871 60.2776 120.076C60.748 119.488 61.1884 118.975 61.6066 118.351C62.0247 117.726 62.5323 117.25 63.0027 116.67L69.8343 108.103C70.7451 106.965 71.4619 105.887 72.537 104.615C73.4777 103.5 74.3438 102.355 75.2621 101.21C75.725 100.629 76.2477 100.042 76.6732 99.4694L80.7348 94.3457C81.2873 93.669 81.6606 93.1856 82.131 92.5981L83.445 90.858C83.6989 90.5457 83.9229 90.3598 84.1916 90.0251C84.4081 89.75 84.5948 89.4674 84.8412 89.1848C85.7222 88.1586 86.3494 87.1993 86.872 86.582C87.1034 86.3143 87.417 86.0169 87.5962 85.7343L91.6802 80.5511C92.7479 79.0861 93.7035 78.0822 94.7786 76.6618L112.033 54.6723C112.264 54.412 112.518 54.0997 112.75 53.8171L116.132 49.5114C119.163 45.7336 120.821 42.5955 122.157 37.5759C122.933 34.6682 123.225 30.3699 122.814 26.9938C122.217 22.0932 120.746 18.4791 118.558 14.7311C116.669 11.4963 112.817 7.34671 109.457 5.33144C108.905 5.00423 108.472 4.63985 107.688 4.22341C107.299 4.02263 106.911 3.77722 106.5 3.56156C100.841 0.586981 94.6517 -0.56567 87.8053 0.259776Z" fill="#FFD162"/>
</svg>
