<svg width="345" height="290" viewBox="0 0 345 290" fill="none" xmlns="http://www.w3.org/2000/svg">
<g opacity="0.06">
<path d="M163.096 74.4667C225.664 49.584 294.09 69.2343 325.16 99.3223C331.892 105.841 337.61 112.454 342.507 119.027C345.3 103.594 345.527 88.2229 342.84 73.3571C333.022 19.0787 281.812 -11.6709 235.902 4.21286C190.199 20.0254 172.374 50.758 172.374 50.758C172.374 50.758 154.548 20.0254 108.845 4.21286C62.9318 -11.6709 11.7214 19.0821 1.90758 73.3571C-5.33741 113.414 8.38226 157.147 37.4946 195.792C43.6265 197.852 50.0537 199.399 56.861 200.292C97.6433 205.653 112.303 194.747 129.531 187.445C140.971 182.599 149.576 188.1 149.159 191.955C148.511 197.93 125.962 208.14 130.797 210.285C149.889 218.754 173.398 218.826 191.116 203.695C213.132 184.897 221.368 197.747 221.368 197.747C221.368 197.747 210.434 225.636 177.511 239.484C150.041 251.038 121.258 253.885 94.9557 250.926C117.641 266.959 143.689 280.4 172.374 289.992C254.383 262.561 314.966 203.797 336.324 142.359C321.855 128.083 304.107 119.234 282.952 116.027C242.282 109.862 227.412 120.479 210.041 127.439C198.507 132.06 190.013 126.39 190.508 122.542C191.272 116.58 214.021 106.818 209.226 104.575C190.308 95.7322 166.802 95.1961 148.789 109.974C126.406 128.335 118.425 115.325 118.425 115.325C118.425 115.325 129.905 87.663 163.096 74.4667ZM147.53 150.913H163.33V135.114H181.41V150.913H197.21V168.992H181.41V184.791H163.33V168.992H147.53V150.913Z" fill="white"/>
<path d="M147.528 150.887H163.328V135.088H181.409V150.887H197.208V168.966H181.527C204.823 180.737 247.608 198.25 299.022 206.041C315.942 186.027 328.664 164.355 336.319 142.332C321.849 128.057 304.102 119.207 282.947 116.001C242.277 109.835 227.407 120.453 210.036 127.412C198.501 132.034 190.008 126.364 190.503 122.516C191.266 116.554 214.016 106.792 209.221 104.549C190.303 95.7058 166.796 95.1697 148.784 109.947C126.401 128.308 118.419 115.298 118.419 115.298C118.419 115.298 129.903 87.6332 163.091 74.4335C225.659 49.5508 294.084 69.2011 325.155 99.2891C331.887 105.807 337.605 112.421 342.502 118.994C345.295 103.561 345.522 88.1897 342.835 73.3239C333.017 19.0455 281.807 -11.7041 235.897 4.17966C190.194 19.9922 172.368 50.7249 172.368 50.7249C172.368 50.7249 154.543 19.9922 108.84 4.17966C82.6187 -4.89389 54.6771 1.26826 33.6988 18.3159C43.5534 39.4152 55.0979 59.1299 87.9837 98.7801C114.721 131.023 147.528 150.887 147.528 150.887Z" fill="white"/>
<path opacity="0.31" d="M291.267 23.6933C248.093 2.00362 203.533 35.7529 189.4 53.5742C213.775 48.4403 235.103 45.8071 262.091 51.4772C302.014 59.8653 316.956 74.2799 334.782 95.5759C331.632 56.1158 306.708 31.4502 291.267 23.6933Z" fill="white"/>
</g>
</svg>
