<svg width="178" height="293" viewBox="0 0 178 293" fill="none" xmlns="http://www.w3.org/2000/svg">
<path fill-rule="evenodd" clip-rule="evenodd" d="M60.3253 261.902C64.1122 267.292 67.6261 270.141 73.9048 272.003C78.9727 273.508 85.7974 272.899 92.0482 269.553C96.521 267.159 98.8239 264.051 101.092 260.159C104.641 254.069 104.193 244.83 100.063 238.418C98.3409 235.751 96.164 233.637 93.8751 231.999C92.6641 231.131 91.6212 230.536 90.3682 229.892C89.4582 229.43 87.3933 228.611 86.4763 228.394C83.1865 227.638 81.7305 227.295 78.1327 227.659C64.2242 229.08 56.1114 240.511 57.1964 252.27C57.4414 254.965 58.6174 259.473 60.3253 261.902ZM97.7319 3.38761C97.8159 2.20465 96.353 0.349719 98.3829 0.0207309C100.049 -0.245259 99.8179 2.12065 100.833 2.97462C102.366 2.97462 104.466 1.87566 106.174 1.52568C107.847 1.18269 109.646 0.902701 111.255 0.755706C114.671 0.440718 117.611 0.419719 120.824 0.734708C125.71 1.20369 127.544 1.93167 131.695 3.33162C133.921 4.08759 135.72 5.18654 137.735 6.46049C148.592 13.3202 156.117 29.6367 161.661 42.8242C170.137 62.9764 174.687 83.4577 175.226 104.604C175.352 109.406 175.464 114.026 175.191 118.743C175.093 120.465 174.624 121.963 174.673 123.335C178.467 123.874 177.34 123.23 176.556 129.152C175.352 138.238 171.74 159.356 168.975 166.468C166.399 173.103 162.823 178.479 156.488 184.744C153.66 187.544 148.956 189.728 147.99 192.948C146.604 197.553 148.907 200.626 151.217 205.736L163.166 231.957C166.266 238.796 167.106 246.468 166.315 253.271C165.258 262.364 161.829 270.281 155.795 277.609C150.636 283.881 145.687 286.849 138.155 290.174C130.631 293.492 119.018 293.632 113.222 291.917C107.168 290.125 103.087 289.047 97.788 284.756C90.1582 278.568 95.548 279.891 86.7913 281.669C84.7124 282.089 82.5425 282.355 80.4986 282.411C78.3217 282.474 76.5997 282.313 74.6538 281.984L69.026 280.57C63.7342 279.114 54.2495 272.85 50.7077 265.038C48.3208 259.774 47.1238 255.525 47.3618 249.807C47.4458 247.861 47.5508 246.062 47.8658 244.214C48.1878 242.282 48.7407 240.609 49.2937 238.824C51.1066 232.993 56.6085 225.02 65.1901 221.241C70.307 218.987 75.0318 217.776 80.3656 217.86C87.9673 217.979 95.94 220.737 101.652 225.804C108.575 231.936 113.061 240.049 113.215 249.38C113.348 257.408 110.786 264.737 105.509 270.82C104.704 271.751 102.366 273.697 101.953 274.502C102.233 276.014 107.287 279.219 108.498 279.821C109.793 280.465 111.073 281.095 112.326 281.466C116.631 282.747 120.236 283.356 124.975 283.062C142.712 281.949 156.628 265.99 156.516 248.806C156.46 239.797 153.1 234.064 149.411 225.909C147.045 220.681 144.441 215.536 142.033 210.23C140.892 207.71 139.737 204.91 138.47 202.544C135.713 197.385 131.016 198.19 126.312 199.177C118.472 200.822 107.665 200.01 100.308 196.643C98.1099 195.636 96.514 194.971 94.5541 193.977C90.7672 192.066 87.2183 190.015 83.5435 187.768C81.2265 186.354 62.8452 174.825 62.0753 173.502C62.3202 172.893 64.5042 170.52 65.1552 169.639C65.7571 168.82 67.703 166.069 68.396 165.719L75.6408 171.164C81.7445 175.511 88.1003 179.662 94.659 183.379C101.512 187.264 107.539 190.099 115.651 190.505C128.909 191.177 144.805 183.981 153.499 174.181C157.867 169.261 160.268 163.794 161.388 158.432C162.949 150.956 163.306 148.359 164.447 140.87C165.125 136.425 165.762 132.001 166.112 127.5C166.196 126.373 166.203 123.888 166.917 123.083C166.098 122.355 166.084 122.964 166.266 121.165C166.798 115.698 166.665 110.169 166.448 104.646C165.678 85.0536 160.366 60.4075 152.365 42.7332L149.453 36.3074C145.26 27.0607 138.33 16.6451 130.981 12.7603C127.019 10.6673 122.98 9.70138 118.367 9.48439C114.069 9.28139 110.016 9.85537 105.817 10.8283C101.456 11.8433 106.524 13.7542 104.585 15.1472C102.807 16.4281 102.604 14.0902 101.981 13.1662C101.456 13.6562 101.512 14.2932 101.225 15.0702C98.3059 22.9029 86.8124 22.9939 83.4805 15.6442C82.0805 12.5503 81.7725 9.98837 82.9065 7.25147C84.9924 2.23965 92.3912 -1.10622 96.647 2.63164C97.046 2.97463 97.221 3.26161 97.7319 3.38761Z" fill="white"/>
<path fill-rule="evenodd" clip-rule="evenodd" d="M29.2048 45.0511L28.1688 45.4921C28.4978 47.151 29.1558 47.165 28.8828 48.8099C26.6639 50.0419 26.9999 47.935 25.6069 47.067C23.983 47.053 19.4611 50.9729 18.2432 52.1068C12.0624 57.8886 8.66054 64.6854 8.76554 73.036C8.88453 82.1987 16.9622 101.371 21.904 110.415C28.2528 122.048 35.0146 131.694 43.1763 141.102C46.8511 145.336 50.897 149.83 54.8588 153.519C56.9308 155.451 58.8767 157.257 61.0256 159.112C68.3893 165.44 67.6194 163.893 64.9175 168.156C62.3765 172.152 63.3215 172.103 58.9537 168.856C53.2979 164.649 46.4661 157.943 41.6153 152.693C32.7187 143.068 23.332 130.812 16.9202 119.381C8.74451 104.794 -1.58711 82.6607 0.20482 67.6743C1.21978 59.2326 6.79861 50.7069 13.1824 44.7221C15.9473 42.1252 18.3482 40.6692 21.6591 38.4783C21.2531 36.8544 19.6151 35.1324 20.9451 34.1035C22.597 32.8225 23.192 35.2374 24.011 36.4904C27.1608 37.0644 23.08 34.3905 24.9209 31.6536C26.0269 30.0086 28.3158 28.4757 30.7027 27.9717C39.3404 26.1588 46.2772 37.0714 40.2574 43.9731C38.8224 45.6181 36.8695 46.78 34.4896 47.277C33.5446 47.473 32.1377 47.613 31.3677 47.361C30.1777 46.962 30.1287 45.954 29.2048 45.0511Z" fill="white"/>
<path fill-rule="evenodd" clip-rule="evenodd" d="M131.998 177.534C140.258 173.894 146.529 166.922 150.414 159.754C151.016 158.648 151.492 157.465 152.087 156.275C152.654 155.155 153.34 153.721 153.774 152.643C157.169 144.292 158.471 139.749 160.375 130.481C160.704 128.885 161.173 123.699 161.831 122.684C162.734 122.348 166.22 122.292 166.08 123.482C165.947 124.637 164.995 123.503 164.722 125.267L162.629 136.354C161.691 141.695 160.627 148.891 158.989 153.847C158.513 155.288 158.184 156.737 157.722 158.088C157.477 158.802 157.141 159.306 156.903 160.062C156.609 160.986 156.476 161.413 156.105 162.19C153.305 167.972 150.869 172.438 145.885 177.212C142.546 180.411 139.488 182.279 135.239 184.155C127.119 187.739 115.296 187.746 107.618 184.974C106.092 184.421 104.951 184.246 103.509 183.644C93.8213 179.62 93.2823 178.801 84.4696 173.46C81.9847 171.955 79.5348 170.541 77.1339 168.924C76.2659 168.336 70.2881 164.591 69.9102 163.863C70.9041 160.923 71.7861 162.372 76.4199 164.801C83.8046 168.672 90.0834 172.536 98.1961 175.462C106.225 178.381 119.433 183.077 131.998 177.534Z" fill="white"/>
</svg>
