<svg width="380" height="21" viewBox="0 0 380 21" fill="none" xmlns="http://www.w3.org/2000/svg">
<path opacity="0.32" fill-rule="evenodd" clip-rule="evenodd" d="M290.018 5.21738C290.955 5.32108 291.909 5.49391 292.879 5.71859C298.282 6.99751 298.533 12.7181 292.21 12.1305C291.44 12.0614 290.704 11.8713 290.018 11.5947V10.7997C290.738 11.1108 291.474 11.3182 292.26 11.3701C296.492 11.6984 296.091 7.3086 292.695 6.44446C291.792 6.21978 290.905 6.02967 290.018 5.94326V5.21738ZM0 2.08919L71.9317 2.08919V1.20777L0 1.20777L0 2.08919ZM308.068 2.08919L380 2.08919V1.20777L308.068 1.20777V2.08919ZM113.317 16.866C121.029 22.5175 128.44 17.4536 128.975 11.3355C131.417 15.829 138.226 19.2856 150.053 14.2909C150.454 14.118 150.873 13.9452 151.274 13.7551C151.408 13.8933 151.558 14.0143 151.709 14.1353C160.926 21.7052 170.595 6.32348 181.05 5.96054C188.862 5.68402 189.816 14.1526 185.701 14.2563C185.048 14.2736 184.513 14.0489 184.128 13.686C182.322 11.8194 183.794 10.4368 184.112 9.97015C182.556 10.938 182.522 12.9774 183.811 14.1699C184.948 15.2068 186.437 15.0859 187.524 14.2909C186.019 18.4042 181.904 21.3422 178.173 19.4066C172.268 16.3475 177.655 9.39982 181.435 12.3552C183.409 13.8933 183.041 15.1031 182.84 16.2611C183.543 15.829 183.944 13.2885 181.82 11.7503C181 11.1627 179.996 10.5405 178.508 10.7824C172.168 11.8194 172.803 21.204 181.017 20.9966C185.299 20.8929 188.712 16.4858 188.946 11.6639V11.5602L188.963 11.6984C189.214 16.4858 192.61 20.8756 196.892 20.9793C205.122 21.1867 205.741 11.8021 199.418 10.7652C197.929 10.5232 196.926 11.1454 196.106 11.733C193.981 13.2539 194.383 15.7945 195.085 16.2438C194.901 15.0686 194.517 13.8761 196.491 12.3379C200.271 9.38253 205.641 16.3302 199.753 19.3893C196.022 21.325 191.924 18.3869 190.401 14.2736C191.489 15.0686 192.978 15.1896 194.115 14.1526C195.403 12.9601 195.387 10.9207 193.814 9.95287C194.132 10.4022 195.604 11.7848 193.797 13.6687C193.396 14.0143 192.861 14.2563 192.208 14.239C188.11 14.118 189.063 5.64945 196.859 5.94326C207.314 6.32348 216.983 21.6879 226.2 14.118C226.351 13.9971 226.501 13.8761 226.635 13.7378C227.036 13.9279 227.455 14.1007 227.856 14.2736C240.453 19.5967 247.361 15.3278 249.352 10.4195C249.185 16.9178 256.947 22.7767 265.043 16.8487V15.5871C261.179 18.0931 257.683 18.4042 255.123 17.4363C252.982 16.624 251.359 14.8612 250.858 12.6144C249.285 5.54575 258.971 -0.261268 264.742 2.86692C261.045 4.35324 257.014 6.63457 255.659 9.65906C253.735 13.9625 258.469 15.8636 262.25 14.7402C263.32 14.4291 264.257 14.0143 265.06 13.5131V12.1824C263.554 13.686 261.463 14.6019 259.238 14.2909C254.304 13.5823 257.75 6.47903 265.06 3.54095V2.19289C261.48 0.2745 255.441 1.43244 252.413 4.19769C251.276 5.23466 250.49 6.37533 250.004 7.55056C250.004 7.39501 250.004 7.22219 250.004 7.06664C249.837 2.97062 245.12 0.360906 242.092 3.14344C240.101 4.97542 240.151 8.10361 242.544 9.58993C242.058 8.89862 239.783 6.77283 242.56 3.90389C243.163 3.35084 243.999 3.00518 244.986 3.02246C251.292 3.19529 249.82 16.2092 237.843 15.7599C234.347 15.6389 230.917 14.4118 227.538 12.7181C230.449 8.58752 227.588 2.60767 223.557 2.52126C219.04 2.41756 218.037 6.73827 220.312 8.50112C210.793 2.46942 201.66 -4.06349 192.794 3.21257C190.184 5.35564 189.046 8.15546 188.963 10.8861C188.879 8.15546 187.742 5.35564 185.132 3.21257C176.283 -4.04621 167.149 2.46942 157.631 8.50112C159.889 6.73827 158.902 2.41756 154.385 2.52126C150.337 2.62495 147.493 8.58752 150.404 12.7181C147.025 14.4291 143.579 15.6389 140.099 15.7599C128.122 16.192 126.65 3.19529 132.957 3.02246C133.96 3.00518 134.78 3.35084 135.382 3.90389C138.159 6.77283 135.884 8.89862 135.399 9.58993C137.791 8.10361 137.841 4.97542 135.851 3.14344C132.923 0.44732 128.423 2.81507 127.971 6.68642C127.486 5.82228 126.834 4.97542 125.981 4.19769C122.953 1.43244 116.914 0.2745 113.334 2.19289V3.55823C120.644 6.49631 124.091 13.6168 119.156 14.3081C116.931 14.6192 114.84 13.7032 113.334 12.1996V13.5304C114.154 14.0143 115.091 14.4291 116.145 14.7575C119.925 15.8809 124.659 13.9625 122.736 9.67635C121.381 6.65186 117.349 4.37053 113.652 2.88421C119.407 -0.226698 129.109 5.56304 127.537 12.6317C127.035 14.8958 125.412 16.6586 123.271 17.4536C120.695 18.4214 117.215 18.1104 113.351 15.6044V16.866H113.317ZM97.8438 3.36812C94.7324 1.06951 91.4536 0.395472 88.3421 0.551017V0.222653C92.1395 0.118956 95.5855 1.25962 98.2787 3.07432C102.394 0.74114 108.65 1.10407 112.749 2.53854C112.933 2.41756 113.117 2.29659 113.317 2.19289V3.55823C113.167 3.4891 113.016 3.43724 112.866 3.3854C112.364 3.7829 111.946 4.2841 111.645 4.87172C110.423 7.30859 111.36 10.2467 113.317 12.2169V13.5477C108.634 10.7306 108.148 5.49391 112.046 3.10888C108.332 1.91636 102.678 1.62256 98.9479 3.55823C100.805 4.90629 102.712 6.61729 104.937 8.60481C106.81 10.2812 108.918 12.1651 111.41 14.2217C112.063 14.7575 112.699 15.2241 113.317 15.6216V16.8833C112.531 16.3129 111.745 15.6216 110.959 14.8093C106.693 10.4195 101.725 6.11608 98.4293 3.81747C97.2583 4.54334 95.9702 5.64946 94.8996 6.65186C95.6691 6.92838 99.6505 10.9898 99.3159 13.9106C97.8773 10.4368 96.1877 8.34557 94.3309 7.17034C92.4406 8.95046 90.5503 10.7306 88.3254 11.612V10.817C90.2492 9.98743 91.9387 8.38014 93.6617 6.77284C91.9889 5.92598 90.1823 5.75315 88.3254 5.96054V5.21738C90.3663 5.00999 92.3569 5.20009 94.2305 6.23706C95.3011 5.23466 96.6728 4.12857 97.8438 3.36812ZM88.3421 5.21738C87.4054 5.32108 86.4351 5.49391 85.4816 5.71859C80.0784 6.99751 79.8274 12.7181 86.1507 12.1305C86.9202 12.0614 87.6563 11.8713 88.3421 11.5947V10.7997C87.6228 11.1108 86.8868 11.3182 86.1005 11.3701C81.8683 11.6984 82.2698 7.3086 85.6656 6.44446C86.5689 6.21978 87.4555 6.02967 88.3421 5.94326V5.21738ZM88.3421 0.222653C85.0969 0.309067 81.6006 1.32875 78.1044 3.61008C80.8646 2.26202 84.4779 0.758415 88.3421 0.568304V0.222653ZM290.018 0.222653C293.264 0.309067 296.76 1.32875 300.239 3.61008C297.479 2.26202 293.866 0.758415 290.018 0.568304V0.222653ZM280.517 3.36812C283.628 1.06951 286.907 0.395472 290.018 0.551017V0.222653C286.221 0.118956 282.775 1.25962 280.082 3.07432C275.967 0.74114 269.71 1.10407 265.612 2.53854C265.428 2.41756 265.244 2.29659 265.043 2.19289V3.55823C265.194 3.4891 265.344 3.43724 265.495 3.3854C265.997 3.7829 266.415 4.2841 266.716 4.87172C267.937 7.30859 267.017 10.2467 265.043 12.2169V13.5477C269.727 10.7306 270.212 5.49391 266.314 3.10888C270.028 1.91636 275.682 1.62256 279.413 3.55823C277.556 4.90629 275.649 6.61729 273.424 8.60481C271.55 10.2812 269.443 12.1651 266.95 14.2217C266.298 14.7575 265.662 15.2241 265.043 15.6216V16.8833C265.829 16.3129 266.616 15.6216 267.402 14.8093C271.668 10.4195 276.636 6.11608 279.931 3.81747C281.102 4.54334 282.39 5.64946 283.461 6.65186C282.691 6.92838 278.71 10.9898 279.045 13.9106C280.483 10.4368 282.173 8.34557 284.03 7.17034C285.92 8.95046 287.81 10.7306 290.035 11.612V10.817C288.111 9.98743 286.405 8.38014 284.699 6.77284C286.372 5.92598 288.178 5.75315 290.035 5.96054V5.21738C287.994 5.00999 286.004 5.20009 284.13 6.23706C283.043 5.23466 281.688 4.12857 280.517 3.36812ZM151.893 13.444C163.318 7.93079 176.049 -3.78696 185.216 4.57791C186.253 5.51119 186.972 6.56543 187.441 7.65425C185.383 5.37292 181.167 4.11128 174.56 6.91109C166.898 10.143 158.166 18.7498 151.893 13.444ZM157.095 8.82948C155.055 10.1084 152.997 11.3701 150.923 12.4589C147.527 8.08632 152.228 1.48429 156.242 3.57551C160.073 5.58031 156.577 10.0911 154.118 8.17274C152.83 7.17034 153.081 6.39261 153.198 5.63217C152.746 5.90869 152.478 7.56784 153.867 8.57024C154.402 8.95046 155.055 9.34797 156.025 9.19242C156.41 9.10601 156.778 8.98503 157.095 8.82948ZM190.468 7.65425C190.937 6.56543 191.656 5.52847 192.693 4.57791C201.844 -3.78696 214.574 7.93079 226.016 13.444C219.743 18.7498 210.994 10.1257 203.366 6.91109C196.742 4.11128 192.543 5.37292 190.468 7.65425ZM226.986 12.4589C224.912 11.3701 222.838 10.1257 220.797 8.82948C221.115 8.98503 221.483 9.10602 221.884 9.17515C222.854 9.33069 223.507 8.93319 224.042 8.55297C225.431 7.55056 225.163 5.90869 224.711 5.61488C224.828 6.37532 225.079 7.15305 223.791 8.15545C221.332 10.0738 217.819 5.56304 221.667 3.55823C225.681 1.4843 230.365 8.08632 226.986 12.4589Z" fill="#09243C"/>
</svg>
