<svg width="97" height="70" viewBox="0 0 97 70" fill="none" xmlns="http://www.w3.org/2000/svg">
<path d="M81.1389 1.64106C84.5601 7.32124 89.4123 11.771 92.781 17.4462C93.3524 18.4082 95.8877 20.9594 95.828 22.231M95.828 22.231C95.7496 23.8821 91.8631 24.9639 90.961 25.2444C86.4128 26.6585 78.4658 29.0446 73.4105 29.9916M95.828 22.231C80.5337 14.4314 53.3249 18.3827 47.0532 34.8048M47.0532 34.8048C45.3928 39.1526 45.1999 44.3745 47.0842 50.4839C50.6472 62.035 64.3467 54.3769 61.3152 43.6467C59.6408 37.7227 52.876 35.3982 47.0532 34.8048ZM47.0532 34.8048C45.3808 34.6344 43.7861 34.6068 42.4121 34.6777C25.3766 35.5571 7.50622 51.0988 0.999925 68.6619" stroke="white" stroke-width="2" stroke-miterlimit="1.5" stroke-linecap="round" stroke-linejoin="round"/>
</svg>
