<svg width="172" height="39" viewBox="0 0 172 39" fill="none" xmlns="http://www.w3.org/2000/svg">
<path d="M59.1782 29V8H66.5282L70.1582 26.3H70.6982L74.3282 8H81.6782V29H77.8382V10.91H77.2982L73.6982 29H67.1582L63.5582 10.91H63.0182V29H59.1782ZM91.0333 29.42C89.5533 29.42 88.2433 29.11 87.1033 28.49C85.9833 27.85 85.1033 26.96 84.4633 25.82C83.8433 24.66 83.5333 23.3 83.5333 21.74V21.38C83.5333 19.82 83.8433 18.47 84.4633 17.33C85.0833 16.17 85.9533 15.28 87.0733 14.66C88.1933 14.02 89.4933 13.7 90.9733 13.7C92.4333 13.7 93.7033 14.03 94.7833 14.69C95.8633 15.33 96.7033 16.23 97.3033 17.39C97.9033 18.53 98.2033 19.86 98.2033 21.38V22.67H87.3733C87.4133 23.69 87.7933 24.52 88.5133 25.16C89.2333 25.8 90.1133 26.12 91.1533 26.12C92.2133 26.12 92.9933 25.89 93.4933 25.43C93.9933 24.97 94.3733 24.46 94.6333 23.9L97.7233 25.52C97.4433 26.04 97.0333 26.61 96.4933 27.23C95.9733 27.83 95.2733 28.35 94.3933 28.79C93.5133 29.21 92.3933 29.42 91.0333 29.42ZM87.4033 19.85H94.3633C94.2833 18.99 93.9333 18.3 93.3133 17.78C92.7133 17.26 91.9233 17 90.9433 17C89.9233 17 89.1133 17.26 88.5133 17.78C87.9133 18.3 87.5433 18.99 87.4033 19.85ZM106.068 29.42C104.888 29.42 103.778 29.13 102.738 28.55C101.718 27.95 100.898 27.08 100.278 25.94C99.6578 24.8 99.3478 23.42 99.3478 21.8V21.32C99.3478 19.7 99.6578 18.32 100.278 17.18C100.898 16.04 101.718 15.18 102.738 14.6C103.758 14 104.868 13.7 106.068 13.7C106.968 13.7 107.718 13.81 108.318 14.03C108.938 14.23 109.438 14.49 109.818 14.81C110.198 15.13 110.488 15.47 110.688 15.83H111.228V8H115.008V29H111.288V27.2H110.748C110.408 27.76 109.878 28.27 109.158 28.73C108.458 29.19 107.428 29.42 106.068 29.42ZM107.208 26.12C108.368 26.12 109.338 25.75 110.118 25.01C110.898 24.25 111.288 23.15 111.288 21.71V21.41C111.288 19.97 110.898 18.88 110.118 18.14C109.358 17.38 108.388 17 107.208 17C106.048 17 105.078 17.38 104.298 18.14C103.518 18.88 103.128 19.97 103.128 21.41V21.71C103.128 23.15 103.518 24.25 104.298 25.01C105.078 25.75 106.048 26.12 107.208 26.12ZM117.699 29V14.12H121.479V29H117.699ZM119.589 12.38C118.909 12.38 118.329 12.16 117.849 11.72C117.389 11.28 117.159 10.7 117.159 9.98C117.159 9.26 117.389 8.68 117.849 8.24C118.329 7.8 118.909 7.58 119.589 7.58C120.289 7.58 120.869 7.8 121.329 8.24C121.789 8.68 122.019 9.26 122.019 9.98C122.019 10.7 121.789 11.28 121.329 11.72C120.869 12.16 120.289 12.38 119.589 12.38ZM131.157 29.42C129.717 29.42 128.407 29.12 127.227 28.52C126.067 27.92 125.147 27.05 124.467 25.91C123.787 24.77 123.447 23.39 123.447 21.77V21.35C123.447 19.73 123.787 18.35 124.467 17.21C125.147 16.07 126.067 15.2 127.227 14.6C128.407 14 129.717 13.7 131.157 13.7C132.577 13.7 133.797 13.95 134.817 14.45C135.837 14.95 136.657 15.64 137.277 16.52C137.917 17.38 138.337 18.36 138.537 19.46L134.877 20.24C134.797 19.64 134.617 19.1 134.337 18.62C134.057 18.14 133.657 17.76 133.137 17.48C132.637 17.2 132.007 17.06 131.247 17.06C130.487 17.06 129.797 17.23 129.177 17.57C128.577 17.89 128.097 18.38 127.737 19.04C127.397 19.68 127.227 20.47 127.227 21.41V21.71C127.227 22.65 127.397 23.45 127.737 24.11C128.097 24.75 128.577 25.24 129.177 25.58C129.797 25.9 130.487 26.06 131.247 26.06C132.387 26.06 133.247 25.77 133.827 25.19C134.427 24.59 134.807 23.81 134.967 22.85L138.627 23.72C138.367 24.78 137.917 25.75 137.277 26.63C136.657 27.49 135.837 28.17 134.817 28.67C133.797 29.17 132.577 29.42 131.157 29.42ZM147.326 29.42C145.846 29.42 144.516 29.12 143.336 28.52C142.156 27.92 141.226 27.05 140.546 25.91C139.866 24.77 139.526 23.4 139.526 21.8V21.32C139.526 19.72 139.866 18.35 140.546 17.21C141.226 16.07 142.156 15.2 143.336 14.6C144.516 14 145.846 13.7 147.326 13.7C148.806 13.7 150.136 14 151.316 14.6C152.496 15.2 153.426 16.07 154.106 17.21C154.786 18.35 155.126 19.72 155.126 21.32V21.8C155.126 23.4 154.786 24.77 154.106 25.91C153.426 27.05 152.496 27.92 151.316 28.52C150.136 29.12 148.806 29.42 147.326 29.42ZM147.326 26.06C148.486 26.06 149.446 25.69 150.206 24.95C150.966 24.19 151.346 23.11 151.346 21.71V21.41C151.346 20.01 150.966 18.94 150.206 18.2C149.466 17.44 148.506 17.06 147.326 17.06C146.166 17.06 145.206 17.44 144.446 18.2C143.686 18.94 143.306 20.01 143.306 21.41V21.71C143.306 23.11 143.686 24.19 144.446 24.95C145.206 25.69 146.166 26.06 147.326 26.06ZM154.828 29L160.228 21.5L154.888 14.12H159.268L162.658 19.07H163.198L166.588 14.12H170.968L165.628 21.5L171.028 29H166.588L163.198 23.99H162.658L159.268 29H154.828Z" fill="#EEEFF1"/>
<path d="M21.5689 9.84586C29.8434 6.55511 38.8924 9.15388 43.0014 13.133C43.8918 13.9951 44.6479 14.8697 45.2955 15.739C45.6649 13.698 45.6949 11.6651 45.3395 9.69912C44.0412 2.52077 37.2688 -1.54587 31.1973 0.554764C25.1533 2.64598 22.7959 6.71038 22.7959 6.71038C22.7959 6.71038 20.4385 2.64598 14.3944 0.554764C8.32254 -1.54587 1.55012 2.52122 0.252272 9.69912C-0.705856 14.9967 1.10853 20.7803 4.95854 25.8912C5.76947 26.1636 6.61945 26.3683 7.51969 26.4863C12.913 27.1953 14.8517 25.753 17.1301 24.7873C18.6429 24.1465 19.781 24.8739 19.7258 25.3837C19.6401 26.1739 16.658 27.5243 17.2975 27.8079C19.8223 28.928 22.9314 28.9374 25.2745 26.9364C28.1861 24.4503 29.2753 26.1497 29.2753 26.1497C29.2753 26.1497 27.8293 29.8381 23.4753 31.6694C19.8425 33.1975 16.036 33.574 12.5576 33.1826C15.5576 35.303 19.0024 37.0806 22.7959 38.3492C33.6414 34.7214 41.6533 26.9498 44.4779 18.8246C42.5643 16.9367 40.2172 15.7663 37.4196 15.3423C32.041 14.5269 30.0745 15.931 27.7773 16.8514C26.2519 17.4626 25.1286 16.7128 25.1941 16.2039C25.2951 15.4154 28.3037 14.1243 27.6695 13.8277C25.1676 12.6582 22.059 12.5873 19.6769 14.5417C16.7168 16.9699 15.6613 15.2494 15.6613 15.2494C15.6613 15.2494 17.1795 11.5911 21.5689 9.84586ZM19.5104 19.9559H21.5999V17.8665H23.991V19.9559H26.0804V22.3469H23.991V24.4363H21.5999V22.3469H19.5104V19.9559Z" fill="#043460"/>
<path d="M19.5092 19.9548H21.5987V17.8654H23.9898V19.9548H26.0793V22.3458H24.0055C27.0863 23.9026 32.7444 26.2186 39.5438 27.249C41.7814 24.6022 43.4638 21.736 44.4762 18.8235C42.5627 16.9356 40.2156 15.7652 37.4179 15.3412C32.0394 14.5258 30.0729 15.9299 27.7756 16.8503C26.2502 17.4615 25.127 16.7117 25.1925 16.2028C25.2935 15.4143 28.302 14.1232 27.6679 13.8266C25.166 12.6571 22.0574 12.5862 19.6753 14.5406C16.7152 16.9688 15.6597 15.2483 15.6597 15.2483C15.6597 15.2483 17.1783 11.5895 21.5673 9.84386C29.8418 6.55311 38.8908 9.15187 42.9998 13.131C43.8901 13.9931 44.6463 14.8677 45.2939 15.737C45.6632 13.696 45.6933 11.6631 45.3379 9.69711C44.0396 2.51877 37.2672 -1.54788 31.1957 0.552761C25.1517 2.64398 22.7943 6.70838 22.7943 6.70838C22.7943 6.70838 20.4369 2.64398 14.3928 0.552761C10.9251 -0.647219 7.22994 0.167728 4.45563 2.42229C5.75886 5.21267 7.28559 7.81996 11.6346 13.0637C15.1705 17.3278 19.5092 19.9548 19.5092 19.9548Z" fill="url(#paint0_linear_646_97788)"/>
<path opacity="0.31" d="M38.5181 3.13332C32.8084 0.264852 26.9156 4.72821 25.0464 7.08509C28.27 6.40611 31.0905 6.05788 34.6596 6.80775C39.9394 7.91708 41.9153 9.82341 44.2727 12.6398C43.8563 7.42121 40.56 4.15918 38.5181 3.13332Z" fill="url(#paint1_linear_646_97788)"/>
<defs>
<linearGradient id="paint0_linear_646_97788" x1="5.96121" y1="30.8743" x2="39.5612" y2="-2.72666" gradientUnits="userSpaceOnUse">
<stop stop-color="#005644"/>
<stop offset="1" stop-color="#3DDA4D"/>
</linearGradient>
<linearGradient id="paint1_linear_646_97788" x1="33.9285" y1="10.4613" x2="40.8958" y2="4.0138" gradientUnits="userSpaceOnUse">
<stop stop-color="#00A482"/>
<stop offset="1" stop-color="#79DD83"/>
</linearGradient>
</defs>
</svg>
