<svg width="196" height="44" viewBox="0 0 196 44" fill="none" xmlns="http://www.w3.org/2000/svg">
<path d="M74.0585 32H69.4085V11H75.0485L80.6285 25.91L86.2085 11H91.7285V32H87.0785V18.38L82.4285 32H78.8285L74.0585 18.29V32ZM110.175 24.02C110.175 24.77 110.145 25.22 110.055 26.03H99.375C99.465 27.92 100.725 28.94 102.765 28.94C104.175 28.94 105.075 28.55 105.465 27.65H109.965C109.515 30.5 106.605 32.39 102.765 32.39C97.845 32.39 94.815 29.6 94.815 24.77C94.815 20.03 97.905 17.15 102.615 17.15C107.115 17.15 110.175 19.94 110.175 24.02ZM99.375 23.18H105.645C105.615 21.26 104.535 20.24 102.585 20.24C100.605 20.24 99.405 21.41 99.375 23.18ZM123.685 19.61V11H128.245V32H123.685V29.96C122.905 31.4 121.105 32.39 119.095 32.39C114.775 32.39 112.285 29.12 112.285 24.77C112.285 20.45 114.955 17.15 119.155 17.15C121.255 17.15 122.905 18.14 123.685 19.61ZM120.415 28.58C122.695 28.58 123.865 26.87 123.865 24.77C123.865 22.7 122.695 20.99 120.415 20.99C118.285 20.99 116.965 22.58 116.965 24.77C116.965 26.96 118.285 28.58 120.415 28.58ZM134.636 16.28C132.986 16.28 131.816 15.02 131.816 13.49C131.816 11.93 132.986 10.67 134.636 10.67C136.286 10.67 137.486 11.93 137.486 13.49C137.486 15.02 136.286 16.28 134.636 16.28ZM136.916 32H132.356V17.54H136.916V32ZM147.635 32.39C142.865 32.39 139.895 29.33 139.895 24.77C139.895 20.21 142.865 17.15 147.635 17.15C151.955 17.15 154.775 19.43 155.135 23.03H150.545C150.215 21.68 149.345 21.05 147.665 21.05C145.685 21.05 144.485 22.37 144.485 24.77C144.485 27.17 145.685 28.49 147.665 28.49C149.345 28.49 150.215 27.89 150.545 26.63H155.135C154.775 30.14 151.955 32.39 147.635 32.39ZM165.461 32.39C160.481 32.39 157.421 29.18 157.421 24.77C157.421 20.36 160.481 17.15 165.461 17.15C170.411 17.15 173.471 20.36 173.471 24.77C173.471 29.18 170.411 32.39 165.461 32.39ZM165.461 28.52C167.621 28.52 168.911 26.96 168.911 24.77C168.911 22.58 167.621 21.02 165.461 21.02C163.271 21.02 162.011 22.58 162.011 24.77C162.011 26.96 163.271 28.52 165.461 28.52ZM179.754 32H174.294L179.544 24.71L174.384 17.54H179.844L182.364 21.74L184.854 17.54H190.344L185.184 24.71L190.434 32H184.944L182.364 27.68L179.754 32Z" fill="#09243C"/>
<path d="M24.7471 11.2963C34.2408 7.52071 44.6232 10.5024 49.3376 15.0679C50.3592 16.057 51.2268 17.0605 51.9698 18.0578C52.3936 15.7161 52.4281 13.3837 52.0203 11.128C50.5307 2.89191 42.7603 -1.77396 35.7943 0.636209C28.8596 3.03556 26.1548 7.69886 26.1548 7.69886C26.1548 7.69886 23.4501 3.03556 16.5154 0.636209C9.54886 -1.77396 1.77853 2.89243 0.289444 11.128C-0.809864 17.2062 1.27187 23.842 5.68918 29.706C6.61961 30.0185 7.59482 30.2533 8.62771 30.3887C14.8158 31.2022 17.0401 29.5474 19.6543 28.4394C21.39 27.7041 22.6958 28.5387 22.6324 29.1237C22.5341 30.0304 19.1126 31.5796 19.8463 31.9051C22.7431 33.1902 26.3104 33.201 28.9986 30.9052C32.3393 28.0527 33.589 30.0026 33.589 30.0026C33.589 30.0026 31.93 34.2344 26.9344 36.3356C22.7663 38.0888 18.3989 38.5208 14.408 38.0718C17.8501 40.5046 21.8024 42.5441 26.1548 43.9997C38.5984 39.8373 47.7909 30.9206 51.0317 21.5981C48.8361 19.432 46.1432 18.0892 42.9333 17.6026C36.7623 16.6671 34.506 18.2782 31.8702 19.3342C30.1201 20.0355 28.8313 19.1751 28.9065 18.5912C29.0223 17.6866 32.4742 16.2052 31.7466 15.8649C28.8761 14.5231 25.3094 14.4418 22.5763 16.6841C19.18 19.4701 17.969 17.4961 17.969 17.4961C17.969 17.4961 19.7109 13.2987 24.7471 11.2963ZM22.3853 22.8961H24.7826V20.4988H27.526V22.8961H29.9234V25.6394H27.526V28.0367H24.7826V25.6394H22.3853V22.8961Z" fill="#09243C"/>
<path d="M22.385 22.8952H24.7824V20.4979H27.5258V22.8952H29.9232V25.6385H27.5438C31.0786 27.4246 37.5704 30.0819 45.3717 31.2641C47.9389 28.2273 49.8693 24.9388 51.0309 21.5972C48.8354 19.431 46.1425 18.0882 42.9326 17.6017C36.7615 16.6661 34.5052 18.2772 31.8695 19.3332C30.1193 20.0345 28.8305 19.1741 28.9057 18.5902C29.0216 17.6856 32.4735 16.2043 31.7459 15.8639C28.8753 14.5222 25.3086 14.4408 22.5756 16.6831C19.1793 19.4691 17.9682 17.4951 17.9682 17.4951C17.9682 17.4951 19.7107 13.2972 24.7464 11.2943C34.2401 7.51871 44.6225 10.5004 49.3369 15.0659C50.3585 16.055 51.2261 17.0585 51.9691 18.0558C52.3928 15.7141 52.4273 13.3817 52.0195 11.126C50.5299 2.88991 42.7596 -1.77596 35.7935 0.63421C28.8589 3.03357 26.1541 7.69686 26.1541 7.69686C26.1541 7.69686 23.4493 3.03357 16.5147 0.63421C12.5361 -0.742587 8.29638 0.192443 5.11328 2.77922C6.60855 5.98076 8.36023 8.97223 13.3501 14.9886C17.407 19.8811 22.385 22.8952 22.385 22.8952Z" fill="#FFD162"/>
<path opacity="0.31" d="M44.195 3.59498C37.644 0.303843 30.8828 5.42487 28.7383 8.12904C32.4368 7.35002 35.6729 6.95047 39.7679 7.81084C45.8257 9.08363 48.0928 11.2709 50.7976 14.5023C50.3197 8.51468 46.5378 4.772 44.195 3.59498Z" fill="white"/>
</svg>
