<svg width="295" height="68" viewBox="0 0 295 68" fill="none" xmlns="http://www.w3.org/2000/svg">
<path d="M277.798 49.4607H269.359L277.473 38.1943L269.498 27.1133H277.937L281.831 33.6042L285.679 27.1133H294.164L286.19 38.1943L294.303 49.4607H285.819L281.831 42.7843L277.798 49.4607Z" fill="white"/>
<path d="M255.707 50.0646C248.01 50.0646 243.281 45.1037 243.281 38.2882C243.281 31.4727 248.01 26.5117 255.707 26.5117C263.357 26.5117 268.086 31.4727 268.086 38.2882C268.086 45.1037 263.357 50.0646 255.707 50.0646ZM255.707 44.0837C259.045 44.0837 261.039 41.6727 261.039 38.2882C261.039 34.9036 259.045 32.4927 255.707 32.4927C252.322 32.4927 250.375 34.9036 250.375 38.2882C250.375 41.6727 252.322 44.0837 255.707 44.0837Z" fill="white"/>
<path d="M228.153 50.0646C220.781 50.0646 216.191 45.3355 216.191 38.2882C216.191 31.2408 220.781 26.5117 228.153 26.5117C234.83 26.5117 239.188 30.0354 239.744 35.5991H232.651C232.141 33.5127 230.796 32.539 228.2 32.539C225.14 32.539 223.285 34.5791 223.285 38.2882C223.285 41.9973 225.14 44.0373 228.2 44.0373C230.796 44.0373 232.141 43.11 232.651 41.1627H239.744C239.188 46.5873 234.83 50.0646 228.153 50.0646Z" fill="white"/>
<path d="M208.065 25.1662C205.515 25.1662 203.707 23.2189 203.707 20.8543C203.707 18.4434 205.515 16.4961 208.065 16.4961C210.615 16.4961 212.47 18.4434 212.47 20.8543C212.47 23.2189 210.615 25.1662 208.065 25.1662ZM211.589 49.4609H204.542V27.1134H211.589V49.4609Z" fill="white"/>
<path d="M191.142 30.3104V17.0039H198.189V49.4587H191.142V46.306C189.936 48.5314 187.154 50.0614 184.048 50.0614C177.372 50.0614 173.523 45.0078 173.523 38.285C173.523 31.6086 177.65 26.5085 184.141 26.5085C187.386 26.5085 189.936 28.0385 191.142 30.3104ZM186.088 44.1732C189.612 44.1732 191.42 41.5305 191.42 38.285C191.42 35.0859 189.612 32.4431 186.088 32.4431C182.796 32.4431 180.756 34.9004 180.756 38.285C180.756 41.6696 182.796 44.1732 186.088 44.1732Z" fill="white"/>
<path d="M170.266 37.1291C170.266 38.2882 170.219 38.9836 170.08 40.2355H153.575C153.714 43.1564 155.661 44.7328 158.814 44.7328C160.993 44.7328 162.384 44.13 162.987 42.7391H169.941C169.246 47.1437 164.748 50.0646 158.814 50.0646C151.21 50.0646 146.527 45.7528 146.527 38.2882C146.527 30.9627 151.303 26.5117 158.582 26.5117C165.537 26.5117 170.266 30.8236 170.266 37.1291ZM153.575 35.8309H163.265C163.218 32.8636 161.549 31.2872 158.536 31.2872C155.476 31.2872 153.621 33.0954 153.575 35.8309Z" fill="white"/>
<path d="M114.448 49.4587H107.262V17.0039H115.978L124.602 40.0468L133.226 17.0039H141.757V49.4587H134.57V28.4095L127.384 49.4587H121.82L114.448 28.2704V49.4587Z" fill="white"/>
<path d="M38.2458 17.4628C52.918 11.6277 68.9637 16.2358 76.2497 23.2916C77.8285 24.8202 79.1693 26.3711 80.3176 27.9124C80.9725 24.2934 81.0258 20.6888 80.3956 17.2026C78.0934 4.47407 66.0847 -2.73687 55.3188 0.987964C44.6016 4.69609 40.4214 11.9031 40.4214 11.9031C40.4214 11.9031 36.2413 4.69609 25.5241 0.987964C14.7574 -2.73687 2.74866 4.47487 0.447327 17.2026C-1.25162 26.5963 1.96563 36.8517 8.79244 45.9143C10.2304 46.3973 11.7375 46.7602 13.3338 46.9695C22.8973 48.2267 26.3349 45.6693 30.375 43.9568C33.0575 42.8205 35.0755 44.1104 34.9777 45.0144C34.8257 46.4156 29.5379 48.81 30.6718 49.3129C35.1488 51.2991 40.6618 51.3158 44.8164 47.7676C49.9793 43.3592 51.9106 46.3727 51.9106 46.3727C51.9106 46.3727 49.3467 52.9128 41.6262 56.1602C35.1846 58.8697 28.4349 59.5373 22.267 58.8434C27.5867 62.6033 33.6949 65.7552 40.4214 68.0047C59.6525 61.572 73.8592 47.7915 78.8677 33.3839C75.4746 30.0362 71.3128 27.961 66.352 27.209C56.8149 25.7632 53.3279 28.253 49.2544 29.8851C46.5496 30.9688 44.5578 29.6392 44.674 28.7368C44.853 27.3387 50.1878 25.0494 49.0634 24.5234C44.627 22.4497 39.1148 22.324 34.8909 25.7894C29.6421 30.0951 27.7705 27.0443 27.7705 27.0443C27.7705 27.0443 30.4625 20.5575 38.2458 17.4628ZM34.5957 35.39H38.3008V31.685H42.5406V35.39H46.2456V39.6296H42.5406V43.3346H38.3008V39.6296H34.5957V35.39Z" fill="white"/>
<path d="M34.5953 35.3837H38.3004V31.6788H42.5402V35.3837H46.2452V39.6234H42.568C48.0309 42.3838 58.0639 46.4906 70.1204 48.3176C74.088 43.6244 77.0713 38.542 78.8666 33.3777C75.4735 30.03 71.3116 27.9548 66.3509 27.2028C56.8137 25.7569 53.3267 28.2468 49.2532 29.8788C46.5484 30.9626 44.5566 29.633 44.6728 28.7306C44.8519 27.3325 50.1866 25.0432 49.0622 24.5172C44.6259 22.4435 39.1137 22.3178 34.8898 25.7832C29.6409 30.0889 27.7693 27.0381 27.7693 27.0381C27.7693 27.0381 30.4622 20.5504 38.2447 17.455C52.9169 11.6199 68.9626 16.228 76.2485 23.2838C77.8273 24.8124 79.1682 26.3633 80.3165 27.9046C80.9714 24.2856 81.0247 20.681 80.3944 17.1948C78.0923 4.46627 66.0835 -2.74468 55.3177 0.980151C44.6004 4.68827 40.4203 11.8952 40.4203 11.8952C40.4203 11.8952 36.2402 4.68827 25.5229 0.980151C19.3741 -1.14764 12.8218 0.297414 7.9024 4.29518C10.2133 9.24306 12.9205 13.8663 20.6322 23.1644C26.9019 30.7255 34.5953 35.3837 34.5953 35.3837Z" fill="#FFD162"/>
<path opacity="0.31" d="M68.3019 5.55624C58.1775 0.469904 47.7284 8.38428 44.4141 12.5635C50.13 11.3595 55.1313 10.742 61.46 12.0717C70.8221 14.0388 74.3258 17.4191 78.5059 22.4131C77.7675 13.1595 71.9226 7.37529 68.3019 5.55624Z" fill="white"/>
</svg>
